<?xml version="1.0" standalone="no"?>
<!DOCTYPE svg PUBLIC "-//W3C//DTD SVG 1.1//EN" "http://www.w3.org/Graphics/SVG/1.1/DTD/svg11.dtd" >
<svg xmlns="http://www.w3.org/2000/svg">
<metadata></metadata>
<defs>
<font id="lavanderia_delicatedelicate" horiz-adv-x="2068" >
<font-face units-per-em="2048" ascent="1536" descent="-512" />
<missing-glyph horiz-adv-x="370" />
<glyph horiz-adv-x="0" />
<glyph horiz-adv-x="0" />
<glyph unicode="&#xd;" horiz-adv-x="2048" />
<glyph unicode=" "  horiz-adv-x="370" />
<glyph unicode="&#x09;" horiz-adv-x="370" />
<glyph unicode="&#xa0;" horiz-adv-x="370" />
<glyph unicode="!" horiz-adv-x="325" d="M25 20q0 13 7.5 24t18.5 11q25 0 25 -30q0 -13 -7 -24t-20 -11q-24 0 -24 30zM55 115q63 315 163 694t194 674l37 -13q-81 -253 -129 -408.5t-118.5 -424.5t-123.5 -526z" />
<glyph unicode="&#x22;" horiz-adv-x="335" d="M141 1200q14 68 26 140.5t17 110.5l6 38l37 -4q-34 -131 -67 -289zM223 1200q14 68 26 140.5t17 110.5l6 38l37 -4q-34 -131 -67 -289z" />
<glyph unicode="#" horiz-adv-x="790" d="M35 428l4 25h235l37 200h-241l4 25h241l54 297l24 -2l-51 -295h178l53 297l25 -2l-51 -295h231l-4 -25h-231l-39 -200h239l-4 -25h-239l-56 -287l-24 4l53 283h-178l-55 -287l-25 4l53 283h-233zM299 453h180l37 200h-178z" />
<glyph unicode="$" horiz-adv-x="649" d="M51 215q0 29 6 59l45 -8q-4 -18 -4 -53q0 -80 40.5 -131t101.5 -66q14 67 82 447q-46 48 -71.5 80.5t-49 87t-23.5 112.5q0 96 60 149.5t143 53.5q14 0 20 -2l29 160l25 -2q-24 -134 -29 -162q58 -14 96.5 -65t38.5 -127q0 -53 -16 -105l-41 14q18 55 18 101 q0 59 -27.5 100t-72.5 57q-11 -62 -33.5 -205.5t-36.5 -220.5q35 -37 45.5 -48.5t37.5 -44.5t37 -54t20 -53t10 -64q0 -112 -66.5 -171.5t-156.5 -59.5h-19q-5 -31 -18 -93.5t-19 -93.5l-24 3q6 31 19 93t18 93q-77 13 -131 71t-54 148zM219 741q0 -64 29.5 -117.5 t81.5 -109.5q3 18 67 408q-4 0 -12 1t-12 1q-67 0 -110.5 -47.5t-43.5 -135.5zM264 14q3 0 9.5 -1t9.5 -1q73 0 125.5 55t52.5 154q0 59 -29.5 107.5t-87.5 111.5q-50 -281 -80 -426z" />
<glyph unicode="%" horiz-adv-x="870" d="M31 6q120 127 236 280.5t196 282t142.5 239t92.5 173.5l31 63q-6 -5 -16.5 -13.5t-46 -30t-72.5 -37.5t-92 -29.5t-109 -13.5q-34 0 -67 8q41 -13 67.5 -63t26.5 -115q0 -71 -23 -136t-75.5 -112t-124.5 -47q-76 0 -117 58.5t-41 145.5q0 65 28 130.5t84 112t125 46.5 q19 0 53 -6t50 -6q60 0 120 14.5t102.5 36t77 42.5t51.5 35l18 15l20 -14q-105 -240 -315 -559t-400 -512zM80 647q0 -74 30 -123t87 -49q81 0 132.5 86t51.5 189q0 71 -28.5 121t-82.5 57q-57 0 -102 -46.5t-66.5 -109.5t-21.5 -125zM408 180q0 73 26.5 143.5t80.5 119.5 t122 49q72 0 109.5 -54.5t37.5 -136.5q0 -73 -26.5 -143t-80.5 -119t-122 -49q-73 0 -110 54t-37 136zM449 168q0 -69 26.5 -113.5t79.5 -44.5q54 0 98 48t66 116.5t22 136.5q0 71 -25.5 115.5t-78.5 44.5q-54 0 -98.5 -48.5t-67 -117.5t-22.5 -137z" />
<glyph unicode="&#x26;" horiz-adv-x="866" d="M78 326q0 125 55 266t158 272q-23 145 -23 250q0 172 53 272.5t164 100.5q93 0 142 -60.5t49 -148.5q0 -64 -27 -123.5t-76 -95.5l-18 22q41 35 64.5 91t23.5 114q0 76 -40.5 128t-119.5 52q-90 0 -134 -85t-44 -232q0 -221 86 -512t215 -510q128 156 131 565 q-78 0 -123 2l4 19h351l-4 -19q-76 -2 -187 -2q-3 -428 -155 -590q171 -278 333 -278q90 0 150 78l24 -21q-34 -41 -72 -57.5t-100 -16.5q-181 0 -364 269q-92 -76 -229 -76q-138 0 -212.5 90t-74.5 236zM119 342q0 -143 63 -233.5t187 -90.5q127 0 211 78 q-98 151 -173.5 350t-111.5 394q-82 -100 -129 -235.5t-47 -262.5z" />
<glyph unicode="'" horiz-adv-x="194" d="M104 1200q14 68 26.5 140.5t17.5 110.5l6 38l36 -4q-34 -131 -67 -289z" />
<glyph unicode="(" horiz-adv-x="299" d="M57 88q0 369 104 819.5t240 675.5l19 -10q-125 -231 -229.5 -706.5t-104.5 -833.5q0 -129 14 -217l-20 -4q-23 115 -23 276z" />
<glyph unicode=")" horiz-adv-x="348" d="M-47 -178q125 229 229.5 704.5t104.5 835.5q0 122 -15 217l21 4q22 -110 22 -278q0 -366 -104.5 -816.5t-239.5 -676.5z" />
<glyph unicode="*" horiz-adv-x="376" d="M18 1233q83 28 166 51q-65 52 -133 111l19 20q96 -84 129 -121q5 68 28 174l27 -4q-5 -28 -39 -170q59 24 166 62l6 -29q-34 -12 -69.5 -22.5t-62.5 -18.5t-34 -10q12 -9 135 -113l-18 -20q-47 39 -129 121q-12 -78 -29 -174l-26 6q18 93 41 172q-86 -34 -166 -62z" />
<glyph unicode="+" horiz-adv-x="403" d="M14 514l4 25h172l35 190l25 -4l-33 -186h168l-4 -25h-168l-33 -186l-24 4l30 182h-172z" />
<glyph unicode="," horiz-adv-x="176" d="M-92 -209q88 137 88 283h37q0 -67 -29.5 -148t-81.5 -145z" />
<glyph unicode="-" horiz-adv-x="448" d="M35 510l4 25h367l-5 -25h-366z" />
<glyph unicode="." horiz-adv-x="225" d="M25 20q0 13 7.5 24t18.5 11q25 0 25 -30q0 -13 -7 -24t-20 -11q-24 0 -24 30z" />
<glyph unicode="/" horiz-adv-x="309" d="M33 2q228 684 364 1477l25 -4q-75 -422 -154 -757.5t-211 -723.5z" />
<glyph unicode="0" horiz-adv-x="600" d="M41 338q0 105 20.5 210t58.5 194.5t100 145.5t136 56q193 0 193 -348q0 -105 -20.5 -210t-58.5 -194.5t-100 -145.5t-137 -56q-65 0 -109 47t-63.5 123t-19.5 178zM82 322q0 -140 36.5 -226t114.5 -86q65 0 119 56.5t87 146t51 193.5t18 206q0 88 -15.5 156.5t-50.5 112 t-86 43.5q-64 0 -117.5 -56.5t-86.5 -146t-51.5 -193.5t-18.5 -206z" />
<glyph unicode="1" horiz-adv-x="350" d="M-72 0l4 23h156q29 200 68 419.5t64 339.5l24 119q-91 -139 -191 -233l-16 16q54 50 106.5 114t78.5 103l26 39l43 -14q-1 -7 -26 -128t-63.5 -335.5t-72.5 -439.5h152l-5 -23h-348z" />
<glyph unicode="2" horiz-adv-x="536" d="M-31 10q7 25 37 70q52 76 122 154.5t122.5 132.5t100.5 114.5t74 128.5t26 146q0 72 -39.5 120t-110.5 48q-83 0 -132.5 -68t-49.5 -154q0 -58 24 -104l-32 -16q-27 40 -27 106q0 62 22.5 118.5t74.5 97t124 40.5q91 0 139 -53t48 -143q0 -83 -31 -158t-85 -139 t-111.5 -122.5t-126 -135.5t-113.5 -150q20 10 59 10q28 0 98.5 -10t106.5 -10q40 0 61.5 8.5t42.5 26.5l29 -35q-22 -20 -43.5 -29.5t-59.5 -9.5q-51 0 -131.5 20.5t-109.5 20.5q-52 0 -82 -43z" />
<glyph unicode="3" horiz-adv-x="540" d="M-23 -18q0 68 29 128t80 95l23 -27q-45 -33 -71 -91t-26 -118q0 -77 41 -128.5t121 -51.5q72 0 125.5 53.5t77.5 130.5t24 164t-26 155t-74 93q-21 -8 -51 -8q-8 0 -12 2l6 39h6q25 0 55 -10q66 28 106 115t40 184q0 93 -39.5 155t-114.5 62q-79 0 -127.5 -69t-48.5 -155 q0 -58 24 -102l-32 -16q-29 47 -29 110q0 61 22 116.5t73.5 95.5t123.5 40q94 0 142.5 -66.5t48.5 -166.5q0 -98 -45 -189.5t-119 -126.5q55 -33 84.5 -105.5t29.5 -162.5t-28.5 -169.5t-92.5 -134t-151 -54.5q-94 0 -144.5 62t-50.5 151z" />
<glyph unicode="4" horiz-adv-x="534" d="M-25 270q173 229 183 592h37q-2 -161 -38 -301t-124 -276q24 6 55 6q32 0 103 -10.5t94 -12.5q23 137 48.5 277t49 259.5t25.5 129.5h43q-1 -7 -19.5 -97t-48 -247.5t-57.5 -323.5q101 0 155 47l21 -39q-39 -36 -131 -36q-29 0 -45 2h-4l-33 -217h149l-4 -23h-325l4 23 h135q16 122 33 221q-19 3 -90.5 15.5t-102.5 12.5q-61 0 -86 -34z" />
<glyph unicode="5" horiz-adv-x="585" d="M-25 -27q0 68 27.5 131t75.5 99l26 -31q-46 -33 -72 -90t-26 -119q0 -75 42 -126.5t122 -51.5q75 0 137 64t94.5 160.5t32.5 199.5q0 122 -46.5 194t-139.5 72q-26 0 -55.5 -10t-42.5 -23q-15 -34 -31 -39l-29 27q8 17 41 35q57 241 84 479q72 -16 154 -16q108 0 168 24 l10 -43q-59 -24 -160 -24q-93 0 -151 16q-17 -139 -31.5 -219.5t-46.5 -204.5q59 19 94 19q112 0 166.5 -78t54.5 -215q0 -115 -38 -215t-110 -162t-161 -62q-93 0 -141 60t-48 149z" />
<glyph unicode="6" horiz-adv-x="585" d="M33 319q0 145 44 281t118 240.5t171.5 180t204.5 109.5l13 -30q-169 -61 -295.5 -196t-182.5 -322q73 125 193 125q93 0 143 -87t50 -217q0 -101 -29.5 -193.5t-92 -156t-145.5 -63.5q-52 0 -90.5 26.5t-60 73.5t-31.5 103.5t-10 125.5zM68 301q0 -52 7 -99t24 -92.5 t50 -72.5t80 -27q70 0 122 60t76 146.5t24 182.5q0 127 -41 209t-117 82q-67 0 -125.5 -57t-83.5 -162q-16 -75 -16 -170z" />
<glyph unicode="7" horiz-adv-x="532" d="M23 758q14 71 14 178q98 -16 229 -16q143 0 242 22l12 -31q-61 -91 -126 -238t-113.5 -292t-88 -277t-60.5 -214l-21 -83h-43q8 31 22.5 85.5t59.5 205.5t90.5 284.5t111 286t125.5 246.5q-76 -20 -213 -20q-108 0 -194 14q0 -8 1 -24t1 -23q0 -19 -6 -106z" />
<glyph unicode="8" horiz-adv-x="585" d="M27 236q0 81 26 159.5t80.5 140.5t126.5 82q-52 21 -78 75.5t-26 127.5q0 79 29.5 153.5t90 126.5t138.5 52q79 0 119 -58t40 -147q0 -106 -52.5 -204.5t-137.5 -127.5q62 -21 92.5 -82t30.5 -145q0 -93 -34 -183t-102.5 -153t-154.5 -63q-92 0 -140 70.5t-48 175.5z M66 225q0 -93 38 -154t111 -61q71 0 129.5 62t88.5 150.5t30 176.5q0 91 -34.5 149t-104.5 58q-76 0 -137 -60.5t-91 -146.5t-30 -174zM197 809q0 -79 32 -130.5t93 -51.5q59 0 108.5 53t74.5 128t25 150q0 77 -29 126t-87 49q-64 0 -115 -51.5t-76.5 -124.5t-25.5 -148z " />
<glyph unicode="9" horiz-adv-x="614" d="M68 520q0 76 18 150.5t51.5 136.5t86.5 100.5t116 38.5q94 0 143 -90t49 -235q0 -146 -43.5 -305.5t-132 -303t-202.5 -213.5l-27 35q124 71 213.5 223.5t130.5 333.5q-34 -75 -88.5 -119.5t-124.5 -44.5q-93 0 -141.5 83t-48.5 210zM106 524q0 -72 15 -132.5 t46.5 -100.5t74.5 -45q8 -2 22 -2q70 0 125.5 60.5t83 146.5t27.5 174q0 136 -41.5 218.5t-122.5 82.5q-71 0 -125 -62.5t-79.5 -152.5t-25.5 -187z" />
<glyph unicode=":" horiz-adv-x="264" d="M25 20q0 13 7.5 24t18.5 11q25 0 25 -30q0 -13 -7 -24t-20 -11q-24 0 -24 30zM145 748q0 13 8 23.5t19 10.5q25 0 25 -30q0 -13 -7 -24t-20 -11q-25 0 -25 31z" />
<glyph unicode=";" horiz-adv-x="282" d="M-61 -209q88 137 88 283h36q0 -68 -29 -149t-81 -144zM145 748q0 13 8 23.5t19 10.5q25 0 25 -30q0 -13 -7 -24t-20 -11q-25 0 -25 31z" />
<glyph unicode="&#x3c;" horiz-adv-x="522" d="M29 764l4 27q25 11 66.5 31t146.5 80t182 118l12 -19q-75 -57 -168 -112.5t-148 -82.5l-56 -26q61 -44 130 -110.5t108 -111.5l38 -44l-25 -27q-140 156 -290 277z" />
<glyph unicode="=" horiz-adv-x="454" d="M33 418l4 24h371l-5 -24h-370zM61 582l5 24h370l-4 -24h-371z" />
<glyph unicode="&#x3e;" horiz-adv-x="493" d="M55 506q75 57 168 112.5t149 81.5l56 27q-61 44 -130 110.5t-108 110.5l-38 45l24 27q141 -156 291 -277l-4 -26q-25 -11 -66.5 -31t-146.5 -80.5t-182 -118.5z" />
<glyph unicode="?" horiz-adv-x="557" d="M80 1128q0 66 19.5 129t56 115t96 83.5t131.5 31.5q118 0 187 -76.5t69 -218.5q0 -84 -27 -166.5t-68.5 -147.5t-93 -141t-97.5 -145.5t-84.5 -162.5t-53.5 -189l-41 6q11 83 41 162.5t68 142t81.5 124t84.5 120.5t74.5 119t54 131.5t20.5 146.5q0 130 -62.5 202 t-152.5 72q-85 0 -147.5 -49.5t-91.5 -122.5t-29 -155q0 -107 51.5 -182.5t144.5 -75.5l-4 -35q-109 0 -168 81.5t-59 200.5zM152 20q0 13 7.5 24t18.5 11q25 0 25 -30q0 -13 -7 -24t-20 -11q-24 0 -24 30z" />
<glyph unicode="@" horiz-adv-x="1134" d="M-33 227q0 126 22 259t62.5 258t101.5 236t134 194t165 131.5t191 48.5q88 0 153 -42t102.5 -116t55 -165.5t17.5 -201.5q0 -188 -46 -385t-119 -325.5t-144 -128.5q-70 0 -70 162q0 97 22 245q-31 -94 -58 -161t-60 -126.5t-70 -89.5t-78 -30q-54 0 -80 61.5t-26 165.5 q0 106 25.5 232t67 235.5t101 182.5t121.5 73q55 0 86 -43.5t39 -112.5l31 150h41q-11 -60 -34.5 -181.5t-37 -193t-29 -164.5t-23 -160.5t-7.5 -115.5q0 -103 39 -103q62 0 129.5 127.5t112 323t44.5 377.5q0 82 -10 152.5t-33 133.5t-57.5 107.5t-86.5 70t-118 25.5 q-95 0 -183.5 -47.5t-159 -129t-129 -190.5t-97.5 -232t-60.5 -253t-21.5 -254q0 -131 24 -242t72 -198t127 -136.5t182 -49.5q92 0 181 49t163 130t147 200t131 243t116 275q16 0 16 -13v-4q-47 -122 -94.5 -227t-104.5 -210t-119 -186.5t-130.5 -145.5t-146.5 -98 t-159 -34q-109 0 -193.5 51.5t-135 141.5t-76 204.5t-25.5 249.5zM274 197q0 -187 82 -187q51 0 109.5 94t107.5 238.5t84 310.5q5 50 5 66q0 86 -27 145.5t-80 59.5q-66 0 -133 -126.5t-107.5 -296.5t-40.5 -304z" />
<glyph unicode="A" d="M-137 276q0 127 33 250t102 233t164.5 193t230.5 132t291 49q181 0 298 -87t163 -227q282 -3 479 -151q43 112 103.5 279.5t102 279.5t91.5 235t100 209.5t101 138.5l45 -20q-269 -1125 -269 -1788q0 -868 459 -868q140 0 225 71t142 207l37 -12q-116 -289 -381 -289 q-114 0 -202.5 41t-148.5 115.5t-98.5 185t-55.5 242.5t-17 295q0 17 1 52t1 54q0 344 -215 527q-49 -132 -95 -240t-106.5 -225t-122.5 -206.5t-141 -172.5t-163.5 -136.5t-189 -85.5t-219.5 -32q-147 0 -271 41.5t-210.5 112.5t-146.5 167t-88.5 204.5t-28.5 225.5z M-94 276q0 -114 27 -220t84 -199.5t139 -162.5t200.5 -109t259.5 -40q104 0 201 32.5t177 87t156.5 138.5t137.5 174t122 207t108 224.5t98 238.5q-188 143 -465 146q18 -71 18 -144q0 -113 -40.5 -219.5t-123 -191t-194.5 -121.5l-14 30q107 36 185 116.5t115.5 180 t37.5 207.5q0 69 -19 140q-119 -4 -232 -38t-208 -94.5t-163 -152.5t-93 -203l-35 8q36 154 147.5 269.5t261 174t316.5 62.5q-44 134 -153.5 216.5t-278.5 82.5q-145 0 -271.5 -48t-217 -130t-155.5 -189.5t-96.5 -228t-31.5 -244.5zM1653 645q173 -143 215 -381 q40 564 239 1493q-62 -88 -125.5 -227t-106 -257t-112 -318t-110.5 -310z" />
<glyph unicode="B" horiz-adv-x="1814" d="M84 1004q0 115 32 227.5t100.5 218t166.5 185.5t241 128.5t312 48.5q129 0 237.5 -30t184.5 -81t129.5 -119.5t78.5 -145t25 -156.5q0 -166 -104.5 -302t-294.5 -185q124 -25 219.5 -85t154 -141t88 -175.5t29.5 -196.5q0 -125 -43 -244t-121 -214.5t-198.5 -153.5 t-263.5 -58q-121 0 -216.5 33.5t-193.5 91.5q-148 -125 -356 -125q-83 0 -129.5 40.5t-46.5 98.5q0 59 52.5 103.5t147.5 44.5q47 0 89.5 -9t89 -32t69.5 -36t78 -48q265 265 350 1042l4 41q-24 3 -24 18q0 8 7.5 15t20.5 8q55 452 146 725l43 -12q-90 -254 -144 -715 q48 0 91 -6q131 25 227 99t142 172.5t46 209.5q0 77 -23.5 149.5t-73 138t-120.5 114.5t-173 77.5t-224 28.5q-161 0 -298 -48t-230.5 -127.5t-159.5 -183.5t-96.5 -214.5t-30.5 -221.5q0 -135 44 -244.5t135 -178t216 -68.5q90 0 163 43t117.5 112t68.5 149.5t24 162.5 q0 88 -27 156t-78 98l15 28q60 -30 93.5 -107t33.5 -175q0 -87 -25.5 -171t-74.5 -156t-130 -116.5t-182 -44.5q-102 0 -185 42t-136 114t-81 165t-28 198zM143 -336q0 -48 41 -83.5t113 -35.5q190 0 324 121q-6 3 -33.5 20t-35 21.5t-32 18.5t-34.5 18.5t-32 14.5t-35.5 14 t-33 9t-37.5 7t-37 2q-80 0 -124 -38t-44 -89zM670 -330q94 -59 182.5 -92t204.5 -33q128 0 239.5 58.5t185.5 153.5t116 214t42 242q0 102 -29.5 193.5t-88.5 169.5t-157 131.5t-226 72.5q-60 -8 -99 -10q0 -7 -2 -20.5t-2 -20.5q-85 -795 -366 -1059z" />
<glyph unicode="C" horiz-adv-x="1908" d="M61 868q0 129 56 239.5t167 180.5t255 70q54 0 98.5 -9t62.5 -19l17 -9l-25 -41q-6 4 -16.5 10t-50 16.5t-84.5 10.5q-103 0 -188 -38t-140 -102.5t-85 -148t-30 -176.5q0 -103 39.5 -198t117 -174.5t207 -127t294.5 -47.5q12 0 35 1t34 1q3 165 32 341.5t78.5 343.5 t122 316.5t157 261t189.5 177t214 65.5q141 0 214 -100.5t73 -267.5q0 -92 -22.5 -195t-68 -209t-109 -208t-151.5 -193.5t-190.5 -164t-230 -121t-265.5 -62.5v-43q0 -150 22.5 -274.5t67.5 -222t120 -152t173 -54.5q20 0 56 4q-35 134 -35 281q0 145 31.5 268t100 204 t161.5 81q96 0 146 -75.5t50 -198.5q0 -87 -27 -178t-77 -173t-131.5 -143t-179.5 -80q34 -115 93.5 -189.5t141.5 -88.5l-10 -39q-91 18 -156.5 101t-101.5 210q-40 -4 -60 -4q-112 0 -196.5 59.5t-134 165.5t-73.5 240.5t-24 296.5q-11 0 -34 -1t-35 -1 q-142 0 -259.5 33.5t-197 90t-134 132t-79.5 158t-25 169.5zM868 311q135 15 259 63t222 119.5t182 162.5t144.5 191t103 204.5t63 204.5t20.5 190q0 157 -62.5 251.5t-181.5 94.5q-87 0 -172 -47.5t-156.5 -132t-135.5 -198t-114 -247.5t-87.5 -277.5t-59 -291.5 t-25.5 -287zM1305 -168q0 -149 34 -276q92 20 167 81t120 142.5t68.5 170.5t23.5 173q0 99 -32.5 165t-92.5 72h-20q-84 0 -146.5 -77t-92 -195t-29.5 -256z" />
<glyph unicode="D" horiz-adv-x="1839" d="M-12 -334q0 60 58.5 103t170.5 43q19 0 39.5 -3.5t36.5 -7t39 -13.5l34.5 -15t38.5 -20.5t35.5 -20.5t39.5 -25t38 -24q183 177 283 600q-18 -2 -58 -2q-117 0 -216 36.5t-169 99.5t-119 148.5t-72.5 184t-23.5 204.5q0 104 23 206.5t67 198.5t113.5 178.5t156.5 143.5 t202 96t245 35q152 0 277.5 -57.5t212 -156t146 -233t87 -286.5t27.5 -319q0 -150 -23.5 -299.5t-67.5 -287t-111 -256t-149.5 -205.5t-188 -137t-222.5 -50q-125 0 -223 32.5t-193 88.5q-143 -121 -350 -121q-84 0 -134 42t-50 99zM25 -338q0 -47 41 -82t112 -35 q185 0 318 117q-10 6 -49 31t-51 32.5t-43 24.5t-48.5 23t-43 12t-48.5 6q-89 0 -138.5 -38.5t-49.5 -90.5zM184 956q0 -130 35.5 -246t103 -208.5t176.5 -146.5t246 -54q40 0 60 2q40 181 67 426q58 518 154 805l35 -10q-98 -280 -152 -795q-23 -231 -65 -422 q103 16 186 65t133.5 116.5t77.5 144t27 153.5q0 152 -90 236l18 27q104 -85 104 -254q0 -83 -29 -164.5t-84.5 -153.5t-146 -123t-202.5 -67q-100 -439 -295 -621q93 -57 186 -89t209 -32q108 0 206.5 49t176 135t140.5 202.5t104 252t63.5 283t22.5 295.5q0 164 -26 313.5 t-83 281.5t-139.5 228.5t-203.5 152.5t-267 56q-143 0 -266.5 -48.5t-210.5 -131t-149 -190.5t-92 -227t-30 -241z" />
<glyph unicode="E" horiz-adv-x="1486" d="M8 1370q0 121 87.5 208t230.5 87q101 0 183.5 -50.5t129.5 -129.5l-39 -27q-41 81 -113.5 134t-160.5 53q-128 0 -204.5 -77.5t-76.5 -187.5q0 -56 20.5 -109.5t66.5 -104t112 -89t164.5 -61.5t216.5 -23q89 0 186 17q-37 110 -37 243q0 105 23.5 203t67.5 179.5 t115.5 130.5t160.5 49q107 0 167 -72.5t60 -190.5q0 -64 -19 -130t-60 -132.5t-100 -123.5t-146 -102.5t-191 -68.5q50 -130 139 -168q52 9 74 9q10 0 25 -5l-5 -38q-15 -5 -24 -5q-40 0 -86 17q-109 -18 -202.5 -70.5t-160 -126.5t-114 -165t-70 -187.5t-22.5 -192.5 q0 -105 27.5 -197t80.5 -164.5t138 -114.5t192 -42q95 0 177.5 37.5t139 99t97.5 141.5t60 164t19 167q0 139 -55 231t-156 92q-111 0 -177 -97.5t-66 -227.5q0 -108 47 -191l-33 -18q-49 82 -49 198q0 90 30.5 169.5t95.5 133.5t152 54q81 0 139 -49.5t85.5 -129 t27.5 -178.5q0 -85 -21 -170.5t-65.5 -166t-106.5 -142.5t-152.5 -99.5t-196.5 -37.5q-148 0 -256 78.5t-159.5 201.5t-51.5 271q0 97 22 191.5t69 184.5t114 163t163 127t209 77q-82 50 -129 170q-94 -16 -192 -16q-126 0 -231 23.5t-175 62t-118.5 90.5t-70.5 107.5 t-22 113.5zM807 1257q0 -132 37 -239q99 23 181.5 68.5t137.5 101.5t93.5 121.5t55.5 129.5t17 126q0 93 -40 156.5t-109 70.5q-5 0 -15.5 1t-15.5 1q-83 0 -150 -47t-108 -124.5t-62.5 -171.5t-21.5 -194z" />
<glyph unicode="F" horiz-adv-x="2056" d="M2 1094q0 104 29 205t90 192t145.5 160t204 110t258.5 41q149 0 314 -26t282 -57t244.5 -57t210.5 -26q116 0 190 19q60 80 111 86l22 -29q-17 -41 -116 -76q-28 -35 -55.5 -91.5t-61.5 -158t-65.5 -271t-53.5 -386.5q-4 -24 -4 -33q142 16 209 74q17 45 36 85.5t30 58.5 l10 18l30 -14q0 -34 -21 -80.5t-69 -85.5q-59 -224 -59 -433h-41q0 211 70 412q-80 -50 -199 -63q-23 -196 -58.5 -357.5t-78.5 -279t-96.5 -207t-109.5 -146t-121.5 -92t-129 -49.5t-135.5 -14q-101 0 -180 29.5t-126.5 79t-71.5 110t-24 127.5q0 126 70 217t174 94l2 -41 q-92 -3 -149.5 -79.5t-57.5 -186.5q0 -66 22 -124.5t66 -105t116 -73.5t165 -27t173 29t162 106t146 200t118.5 323.5t86.5 464.5q-107 -7 -193 -37t-141 -86.5t-55 -130.5q0 -35 14 -70l-43 -16q-16 31 -16 77q0 57 26.5 104t69 79t100 55t115.5 35t119 16h8q0 13 4 37 q71 643 236 897q-82 -20 -174 -20q-99 0 -232.5 25t-247.5 54.5t-272 54.5t-301 25q-133 0 -246.5 -38.5t-193.5 -103.5t-137 -151.5t-84 -181.5t-27 -194q0 -111 35.5 -211t102.5 -179.5t174.5 -126.5t242.5 -47q129 0 230.5 40t163.5 109t94 155t32 184q0 55 -8 102l39 8 q10 -62 10 -110q0 -80 -21 -153.5t-66.5 -138.5t-110 -113t-157.5 -75.5t-204 -27.5q-144 0 -259 48.5t-186 131t-108 185.5t-37 217z" />
<glyph unicode="G" horiz-adv-x="1767" d="M23 907q0 87 30 168t83.5 144t136.5 101t182 38q98 0 178 -47l-21 -35q-75 43 -155 43q-121 0 -215 -61t-141.5 -156.5t-47.5 -204.5q0 -74 22 -143t71 -132.5t120 -110.5t175.5 -75t230.5 -28q82 0 145 8q-16 106 -16 209q0 160 30 326t90 320t141.5 275t193.5 193.5 t237 72.5q145 0 221 -100t76 -262q0 -117 -38.5 -247.5t-117.5 -261t-188 -240.5t-263 -191t-329 -109q28 -181 106 -287t203 -106q87 0 157.5 37t113.5 92t78.5 131t55 142t41.5 138.5t38 106.5l45 -22l-82 -193q-6 -21 -22 -95t-41 -207.5t-46 -268.5q-2 -11 -5 -34 q-8 -51 -12.5 -78.5t-15.5 -80.5t-20.5 -84.5t-26.5 -78t-35.5 -75.5t-45.5 -62t-57.5 -51.5t-71.5 -31t-87 -12.5q-121 0 -185.5 71.5t-64.5 172.5q0 102 62.5 179.5t167.5 80.5l4 -43q-93 -4 -147 -71.5t-54 -155.5q0 -89 55.5 -151t161.5 -62q41 0 76.5 11.5t62.5 29.5 t51 49t40.5 59.5t31.5 71.5t24 75t18.5 80.5t14.5 78t11 75.5q4 25 6 37q25 171 66 364q-61 -110 -151.5 -177.5t-209.5 -67.5q-140 0 -227 109.5t-119 297.5q-63 -8 -147 -8q-132 0 -241.5 30t-184 80t-125.5 117.5t-74.5 141t-23.5 151.5zM840 608q0 -97 12 -186 q171 28 319.5 108t252 188t178 236.5t110 255t35.5 240.5q0 154 -65.5 248t-188.5 94q-117 0 -223 -73t-183 -194.5t-133.5 -275t-85 -319t-28.5 -322.5z" />
<glyph unicode="H" horiz-adv-x="1906" d="M-145 88q0 117 37 229t104 202t172 145t231 55q153 0 248.5 -109t95.5 -256q0 -138 -86 -243l-30 24q84 112 84 232q0 134 -92 232.5t-222 98.5q-113 0 -208.5 -53.5t-157 -141.5t-95.5 -197t-34 -222q0 -84 18.5 -162t58.5 -147t98 -120t142.5 -80.5t186.5 -29.5 q111 0 204 31t162 80.5t127.5 134.5t98.5 171t77.5 212.5t61.5 235t53 262.5q-129 -6 -217 -54l-15 33q94 46 238 49q6 33 30.5 169t36 195t33.5 169.5t43.5 200.5t46.5 178q-52 -36 -129.5 -65.5t-148 -45.5t-144 -42t-127 -56t-88 -86t-34.5 -133q0 -93 63.5 -147 t169.5 -54l-8 -51q-124 9 -194 73t-70 179q0 72 30.5 128.5t83 93t116.5 64.5t136.5 49t137 40t124.5 43.5t93 52.5l47 151l57 -14q-11 -83 -78 -147q-30 -109 -58.5 -243.5t-44.5 -223.5t-43 -253t-38 -225q48 -2 121 -6t112 -6q17 -1 37 -1q24 -1 51 1q49 2 87 12 q54 309 115 526t131 345.5t145 186t164 57.5q84 0 132 -60t48 -186q0 -35 -2 -53h-47q4 29 4 77q0 201 -148 201q-187 0 -325 -375q-114 -310 -206.5 -903t-92.5 -981h-41q1 216 33.5 524.5t84.5 614.5q-63 -13 -131 -13t-150 6.5t-128 6.5q-21 -117 -39 -206.5t-44 -192.5 t-53.5 -180t-66 -159t-82 -140.5t-100.5 -112t-123.5 -86.5t-149.5 -52.5t-178 -19.5q-109 0 -200 31t-153.5 84.5t-105.5 125.5t-63 153t-20 169z" />
<glyph unicode="I" horiz-adv-x="1058" d="M41 635q0 103 44.5 202.5t120 182.5t167.5 159.5t196 146t196 129t176.5 122t129.5 113.5q6 37 31 116l33 -8q-5 -45 -31 -94q-118 -494 -201.5 -979t-179.5 -1190h-41q83 553 122 800t109.5 619.5t149.5 700.5q-46 -48 -118.5 -104t-147.5 -104.5t-161 -107.5 t-163.5 -114.5t-150 -124t-125 -137.5t-84 -154t-31.5 -174q0 -172 91.5 -275.5t246.5 -103.5q117 0 185.5 79.5t68.5 182.5q0 70 -34.5 126.5t-100.5 78.5l16 37q75 -27 115.5 -90.5t40.5 -141.5q0 -116 -79 -204t-212 -88q-169 0 -274 107.5t-105 291.5z" />
<glyph unicode="J" horiz-adv-x="1079" d="M16 389q0 66 19 131.5t47.5 120t77 114.5t92 104.5t108.5 100t110.5 91t114.5 88.5t105 82q135 108 238 216.5t143 186.5q41 121 70 178l43 -18q-10 -36 -56 -117l-6 -10q-184 -612 -254 -1133q-5 -35 -16 -125t-19 -149.5t-23.5 -158t-30 -168t-38 -160.5t-48.5 -154 t-60 -129.5t-73.5 -106.5t-88.5 -66t-106 -26q-100 0 -163 60t-63 163q0 119 72.5 201t173.5 82l4 -45q-82 0 -147.5 -68t-65.5 -170q0 -100 51 -151t138 -51q51 0 96 25t80.5 67t67 105t54.5 129.5t44 151t35 159t28 164.5t22 156t18.5 144.5t16.5 120.5q84 594 220 1022 q-125 -158 -342 -342q-40 -34 -107.5 -88.5t-113.5 -91.5t-107 -91.5t-102.5 -97.5t-86 -100t-71 -108.5t-43.5 -113.5t-17 -124q0 -172 91.5 -275.5t246.5 -103.5q117 0 185.5 79.5t68.5 182.5q0 70 -34.5 126.5t-100.5 78.5l14 39q77 -19 119.5 -85.5t42.5 -149.5 q0 -54 -18.5 -105t-54 -93t-93 -67.5t-129.5 -25.5q-169 0 -274 107.5t-105 291.5z" />
<glyph unicode="K" horiz-adv-x="1869" d="M-92 88q0 93 23 184t69 171.5t110 142t153 97.5t190 36q153 0 248.5 -109t95.5 -256q0 -138 -86 -243l-31 24q84 112 84 232q0 135 -91.5 233t-221.5 98q-91 0 -171.5 -35t-139 -95t-101 -138.5t-63.5 -167t-21 -178.5q0 -84 18.5 -162t58.5 -147t98 -120t142.5 -80.5 t186.5 -29.5q82 0 153.5 16.5t130.5 45t110 74t91.5 97.5t76.5 122t63.5 140t53 160t45 173.5t40.5 187.5h-52l7 35q28 0 49 -8q15 78 56.5 304.5t77.5 395t79 324.5q-52 -36 -129.5 -65.5t-148 -45.5t-144.5 -42t-127.5 -56t-88 -86t-34.5 -133q0 -93 63.5 -147t169.5 -54 l-8 -51q-124 9 -194 73t-70 179q0 72 30.5 128.5t83 93t116.5 64.5t136.5 49t137 40t124.5 43.5t93 52.5l47 151l57 -14q-11 -84 -77 -147q-43 -156 -77.5 -332t-71.5 -400t-56 -323q82 20 154 74.5t126 129.5t102.5 167t89.5 189t80.5 192.5t80.5 180t85 149.5t99.5 102.5 t118.5 37.5q61 0 97 -37t36 -89v-13h-39v10q0 49 -26 77t-70 28q-54 0 -102 -38t-87.5 -103.5t-77.5 -150.5t-77 -180.5t-80.5 -193t-93.5 -189t-110.5 -166.5t-138 -128t-169.5 -70q53 -32 106.5 -107t100 -167t96.5 -196.5t105 -202t116 -176.5t139.5 -127t165.5 -48 q107 0 161 63.5t54 151.5l47 -2q0 -41 -14.5 -81t-43.5 -76t-81.5 -58t-120.5 -22q-97 0 -182.5 47.5t-149.5 126.5t-120 175.5t-104 201.5t-91.5 197t-92.5 169t-97 111q-25 -134 -50.5 -238t-63 -214.5t-81 -192t-104.5 -156t-134.5 -121.5t-169.5 -74.5t-210 -27.5 q-109 0 -200 31t-153.5 84.5t-106 125.5t-63.5 153t-20 169z" />
<glyph unicode="L" horiz-adv-x="1599" d="M-88 858q0 97 33 186.5t92 159.5t151 112t201 42q106 0 189 -45l-25 -37q-58 41 -162 41q-83 0 -154.5 -25t-124 -69.5t-90.5 -103t-56.5 -126t-18.5 -139.5q0 -82 24 -159.5t76.5 -148.5t128.5 -124.5t186.5 -85t243.5 -31.5q176 0 330 55q34 183 55 369 q25 227 53.5 399.5t62.5 290.5t70 196t80.5 121t89 59.5t101.5 16.5q109 0 168 -103.5t59 -270.5q0 -113 -27 -237t-84.5 -252.5t-138 -242t-198.5 -208.5t-256 -148q-80 -389 -226 -590q84 -24 189 -65.5t177.5 -72t168.5 -54t186 -23.5q217 0 240 170l41 -10 q-3 -32 -19.5 -61.5t-47.5 -57.5t-86.5 -44.5t-127.5 -16.5q-121 0 -240.5 31.5t-275.5 92.5t-227 83q-166 -207 -432 -207q-78 0 -122 36.5t-44 88.5q0 65 65.5 113.5t186.5 48.5q178 0 334 -43q142 199 219 567q-151 -51 -324 -51q-140 0 -257 32.5t-196.5 88 t-134.5 129.5t-80.5 155.5t-25.5 167.5zM162 -354q0 -42 35.5 -71.5t99.5 -29.5q234 0 393 197q-158 49 -317 49q-98 0 -154.5 -44.5t-56.5 -100.5zM975 375q133 54 244.5 148t187 205t128.5 237t77 245.5t24 229.5q0 158 -49.5 255t-140.5 97q-55 0 -101 -25.5t-93.5 -95.5 t-86.5 -186.5t-74.5 -307.5t-62.5 -448q-18 -169 -53 -354z" />
<glyph unicode="M" horiz-adv-x="2361" d="M35 92q0 122 35.5 238t101 211t170.5 153t233 58q82 0 149 -31.5t109 -84.5t64.5 -120t22.5 -141q0 -139 -74 -254l-43 26q71 119 71 254q0 141 -81.5 237.5t-219.5 96.5q-94 0 -175.5 -38t-140 -102t-100.5 -148t-62.5 -178t-20.5 -189q0 -104 26 -196.5t76.5 -166.5 t134 -117.5t189.5 -43.5q139 0 277.5 94t255 254t212 366t160.5 437q-72 436 -72 665q0 132 34 206.5t89 74.5q43 0 62.5 -48t19.5 -161q0 -319 -96 -694q8 -54 38 -240t43 -274t31 -225.5t27 -239.5q61 188 227 591.5t232 595.5q-2 51 -2 154q0 306 30.5 503t85.5 197 q26 0 41 -36.5t15 -94.5q0 -273 -133 -682q5 -178 15 -328t28.5 -299.5t45 -268t65.5 -221.5t89 -171.5t117 -107.5t148 -39q76 0 127 27t88 81l30 -24q-75 -121 -231 -121q-91 0 -165.5 36.5t-128.5 99t-96 161.5t-69.5 207.5t-47.5 256t-31 287t-19 318.5 q-59 -169 -229 -587t-228 -615q0 -15 2 -44t2 -46q0 -38 -2 -58l-63 2q0 26 10 75t22 73q-6 92 -23 223.5t-30 213t-46 275.5t-42 246q-53 -179 -122 -341t-158 -304.5t-188.5 -246.5t-216.5 -164t-238 -60q-112 0 -201 46.5t-144 125t-83.5 177t-28.5 208.5zM1374 1376 q0 -185 60 -567q79 327 79 627q0 107 -12.5 151.5t-46.5 44.5q-36 0 -58 -69.5t-22 -186.5zM2077 1069q112 354 112 610q0 49 -10 81t-29 32q-32 0 -52.5 -180.5t-20.5 -448.5v-94z" />
<glyph unicode="N" horiz-adv-x="2039" d="M35 92q0 122 35.5 238t101 211t170.5 153t233 58q153 0 249 -114.5t96 -266.5q0 -143 -86 -248l-31 24q84 112 84 236q0 140 -92.5 244t-221.5 104q-94 0 -175.5 -37.5t-140 -101.5t-100.5 -147.5t-62.5 -176.5t-20.5 -188q0 -83 16 -159t50 -143t83 -116t120.5 -77.5 t156.5 -28.5q132 0 256.5 67t224 180t182 261.5t137.5 313t84 333.5q-106 272 -164.5 472t-58.5 341q0 61 23.5 96t60.5 35q80 0 135.5 -178.5t55.5 -462.5q0 -100 -21 -258q9 -23 47.5 -122.5t52 -134t46.5 -120.5t49.5 -133.5t41 -117t42 -126.5t32.5 -111 q21 427 95.5 789.5t187.5 616.5t263 397t319 143q100 0 174 -43t94 -98l-37 -19q-17 58 -85.5 92.5t-164.5 34.5q-123 0 -239.5 -91t-216.5 -266t-178 -415t-127.5 -554t-61.5 -666l14 -68q6 -31 12.5 -97.5t6.5 -101.5v-10h-60q-4 50 -4 84q0 57 4 131v21q-15 70 -39 150.5 t-62.5 185.5t-64.5 172.5t-80.5 204t-74.5 188.5q-32 -163 -86 -320.5t-137 -306.5t-182.5 -261.5t-230.5 -180.5t-273 -68q-112 0 -201 46.5t-144 125t-83.5 177t-28.5 208.5zM1190 1528q0 -112 53.5 -289.5t153.5 -435.5q14 122 14 203q0 264 -50 446t-116 182 q-55 0 -55 -106z" />
<glyph unicode="O" horiz-adv-x="2285" d="M61 858q0 130 55.5 242.5t166.5 185t256 72.5q58 0 99 -11.5t87 -39.5l-25 -35q-65 45 -159 45q-136 0 -239.5 -67t-154.5 -171t-51 -225q0 -103 40 -198.5t117.5 -175t207.5 -127.5t295 -48q50 0 75 2q1 165 28.5 342t76.5 343.5t121 316t157 261t190 177t214 65.5 q141 0 214 -100.5t73 -267.5q0 -108 -31.5 -229t-90 -243.5t-149.5 -237.5t-202 -207.5t-257 -155.5t-305 -80q0 -159 24 -290.5t73 -235.5t132 -162t193 -58q121 0 233.5 69t200.5 186.5t161.5 272t121.5 326t74 348t26 338.5q0 235 -54.5 402.5t-162.5 226.5l13 25 q123 -58 185 -236t62 -428q0 -165 -27.5 -343t-77.5 -350.5t-126.5 -327.5t-169 -273t-211 -187t-246.5 -69q-119 0 -209 59.5t-144.5 165.5t-81.5 241t-28 296q-25 -2 -75 -2q-140 0 -257 32.5t-197 88t-135 129.5t-80.5 155.5t-25.5 167.5zM870 311q156 17 297.5 79.5 t248 154t192.5 204t141 234t84 240t29 223.5q0 157 -62.5 251.5t-181.5 94.5q-122 0 -237.5 -91t-205 -243.5t-158.5 -343.5t-106.5 -399.5t-40.5 -403.5z" />
<glyph unicode="P" horiz-adv-x="1687" d="M68 1028q0 93 22 185.5t65.5 180.5t113 163.5t158.5 132.5t209.5 89.5t258.5 32.5q151 0 278 -39.5t214 -106.5t148 -157.5t89.5 -192t28.5 -210.5q0 -131 -42 -255.5t-119.5 -226.5t-199 -170.5t-268.5 -84.5q-34 -200 -80 -349.5t-97.5 -243.5t-115.5 -151.5 t-128.5 -79.5t-143.5 -22q-114 0 -198 51t-123.5 128t-39.5 167q0 126 71 219.5t175 97.5v-39q-83 -3 -145 -85t-62 -189q0 -137 87 -233.5t241 -96.5q78 0 143.5 30.5t131 110.5t117 211t97 341.5t76.5 492.5q61 545 184 811l50 -18q-139 -295 -191 -793q-21 -186 -45 -340 q110 14 205 60.5t163.5 116t117 156.5t72.5 183.5t24 196.5q0 134 -44 255t-129 219.5t-225 157t-317 58.5q-157 0 -289 -46t-222 -122t-153.5 -176.5t-92.5 -208t-29 -217.5q0 -104 27 -196.5t77 -164t128.5 -113.5t174.5 -42q92 0 165.5 41t117 107.5t66 144.5t22.5 159 q0 91 -26.5 163.5t-76.5 105.5l25 30q57 -37 88 -116t31 -176q0 -69 -15.5 -136t-48.5 -129.5t-80.5 -110t-117 -76t-152.5 -28.5q-105 0 -191 44.5t-141 120t-84.5 172.5t-29.5 206z" />
<glyph unicode="Q" horiz-adv-x="1439" d="M41 768q0 145 33 291t102.5 281.5t165.5 240.5t233 168t295 63q137 0 241.5 -50.5t168 -141t95.5 -208.5t32 -261q0 -168 -42 -354.5t-123 -370.5t-190 -348t-254.5 -297.5t-305.5 -208.5q77 -20 368.5 -106.5t492.5 -130.5t355 -44q80 0 143 18.5t100.5 47t62.5 67.5 t34 76.5t10 77.5h39v-14q0 -60 -19.5 -112t-62.5 -98t-122 -72.5t-187 -26.5q-115 0 -296 40t-341 89.5t-339.5 102.5t-272.5 71l-11 -7q-47 -20 -102 -20q-25 0 -35 2l8 66q4 0 12.5 1t12.5 1q43 0 100 -17q162 69 309 200t257 294t191.5 348t123 372.5t41.5 356.5 q0 138 -29.5 252t-88 201t-154.5 135.5t-222 48.5q-150 0 -280 -62.5t-221.5 -167t-157.5 -239t-97.5 -279.5t-31.5 -288q0 -125 25.5 -233t74.5 -191.5t127.5 -131.5t177.5 -48q100 0 185 53t139 138.5t83.5 188t29.5 205.5q0 133 -48.5 232t-142.5 131l23 43 q99 -41 150.5 -148t51.5 -245q0 -109 -32.5 -218t-90.5 -199t-149 -146t-199 -56q-87 0 -160.5 33.5t-126 92.5t-88.5 139.5t-53.5 174t-17.5 197.5z" />
<glyph unicode="R" horiz-adv-x="1648" d="M68 1028q0 93 22 185.5t65.5 180.5t113 163.5t158.5 132.5t209.5 89.5t258.5 32.5q150 0 275.5 -38.5t212 -105t146.5 -155.5t88 -189t28 -208q0 -129 -41.5 -252t-117.5 -225t-195.5 -172t-264.5 -88q53 -38 105.5 -121.5t96.5 -184t91.5 -214.5t100 -219.5t111 -191.5 t135 -137.5t163.5 -51.5q107 0 161 63.5t54 151.5l45 -2q-2 -45 -16 -84.5t-42.5 -75.5t-80 -57t-119.5 -21q-84 0 -159.5 40t-132 106t-109.5 154.5t-93 182.5t-81.5 192.5t-76 182.5t-76 155t-81.5 107q-35 -197 -81 -344t-97 -239t-115 -148.5t-128 -78t-142 -21.5 q-114 0 -198 51t-123.5 128t-39.5 167q0 124 72 220t168 104l6 -46q-84 -1 -145.5 -83.5t-61.5 -190.5q0 -137 87 -233.5t241 -96.5q67 0 124 22.5t115 79.5t106 149.5t92.5 239.5t78.5 341h-4q-41 0 -59 2l4 37q20 0 63 -13q24 148 45 328q61 545 184 811l50 -18 q-141 -308 -191 -793q-13 -133 -45 -328q105 13 196.5 60.5t159.5 119t117 160.5t73.5 188.5t24.5 200.5q0 103 -25.5 198t-81 180t-136.5 148t-199.5 99.5t-261.5 36.5q-158 0 -291.5 -45.5t-224 -121.5t-154 -176t-92.5 -206.5t-29 -216.5q0 -140 47 -256.5t142.5 -190 t222.5 -73.5q74 0 136.5 27.5t105 72.5t72.5 104.5t43.5 123t13.5 127.5q0 90 -26.5 161.5t-76.5 104.5l29 30q56 -31 86.5 -108.5t30.5 -175.5q0 -69 -15 -136.5t-48.5 -131.5t-81 -112.5t-117.5 -78t-154 -29.5q-105 0 -191 44.5t-141 120t-84.5 172.5t-29.5 206z" />
<glyph unicode="S" horiz-adv-x="1990" d="M37 408q0 103 64.5 177t170.5 74q56 0 90.5 -21.5t65.5 -64.5l-29 -22q-49 78 -127 78q-93 0 -148.5 -67t-55.5 -161q0 -57 23 -109.5t68 -98t123.5 -72.5t178.5 -27h39q-4 58 -4 88q0 126 28 250.5t84.5 237t134.5 199t185.5 137.5t230.5 51q82 0 148 -34.5t109 -95 t68.5 -138.5t31.5 -168q155 161 276 335q2 115 7.5 212t16.5 198t29 178t43 138.5t61.5 94.5t82.5 33q16 0 26 -2q76 -14 76 -129q0 -118 -81 -307.5t-222 -394.5q-2 -72 -2 -217q0 -196 -30 -375t-94 -336.5t-156.5 -273.5t-226 -183t-294.5 -67q-119 0 -215.5 43.5 t-159.5 120.5t-101 174.5t-50 212.5h-33q-110 0 -195.5 29.5t-135.5 78t-75.5 105.5t-25.5 119zM545 184q0 -28 4 -86q250 21 487 151.5t445 336.5q-2 124 -36.5 223.5t-109 163t-178.5 63.5q-113 0 -212.5 -49.5t-171.5 -133.5t-124 -193.5t-78 -231t-26 -244.5zM549 78 q12 -111 47 -204.5t92.5 -167t145 -115.5t196.5 -42q146 0 270 63.5t213 175.5t152 264t94 330t31 372v166q-129 -179 -274 -324v-39q0 -174 -61 -337t-171 -257l-31 31q106 93 166 248.5t62 318.5q-212 -205 -448.5 -333.5t-483.5 -149.5zM1833 1016q129 195 203.5 374.5 t74.5 286.5q0 93 -57 105q-3 0 -8 1t-8 1q-49 0 -86.5 -61t-61.5 -170t-37.5 -242t-19.5 -295z" />
<glyph unicode="T" horiz-adv-x="1933" d="M0 1094q0 104 29 205t90 192t145.5 160t204 110t258.5 41q149 0 314 -26t282 -57t244.5 -57t210.5 -26q116 0 190 19q55 70 103 84l26 -37q-23 -38 -115 -66q-160 -204 -233 -907q-22 -208 -56.5 -378t-77.5 -294t-97 -218t-111 -153t-124 -96.5t-132 -52t-139 -14.5 q-101 0 -180 29.5t-126.5 79t-71.5 110t-24 127.5q0 126 71.5 220.5t170.5 94.5l4 -37q-55 -1 -104 -39.5t-78 -101.5t-29 -133q0 -66 23 -124.5t67 -105t117 -73.5t166 -27q96 0 177.5 30t165 111t148 211t118.5 342t85 492q70 638 236 897q-82 -20 -174 -20 q-99 0 -232.5 25t-247.5 54.5t-272 54.5t-301 25q-133 0 -246.5 -38.5t-193.5 -103.5t-137 -151.5t-84 -181.5t-27 -194q0 -111 35.5 -211t102.5 -179.5t174.5 -126.5t242.5 -47q108 0 194.5 29t142.5 77.5t93.5 114.5t53 135.5t15.5 145.5q0 46 -6 90l49 4q7 -54 7 -90 q0 -102 -32.5 -193.5t-96.5 -167t-172 -120.5t-246 -45q-144 0 -259 48.5t-186 131t-108 185.5t-37 217z" />
<glyph unicode="U" horiz-adv-x="2037" d="M63 1090q0 105 30 207.5t92 195.5t148.5 163.5t208 112t261.5 41.5q168 0 306 -85.5t214 -226.5t76 -304q0 -129 -38 -327.5t-83 -371.5t-83 -363.5t-38 -305.5q0 -135 37.5 -208t126.5 -73q59 0 124 67.5t119 170t104 227.5t84 236t54 200q59 377 140 756.5t159 612.5 l56 -23l-78 -205q-61 -159 -148 -665q-11 -63 -44.5 -249t-49 -282t-31.5 -235t-16 -238q0 -191 50 -283t141 -92q96 0 166.5 97t95.5 299l37 -7q-63 -409 -295 -409q-116 0 -176 96.5t-60 317.5q0 112 25 321q-38 -132 -87.5 -256.5t-109 -234t-128 -176t-132.5 -66.5 q-205 0 -205 297q0 115 38 312t83 376t83 375t38 309q0 114 -41 221.5t-113 190.5t-178.5 133.5t-228.5 50.5q-135 0 -250.5 -40t-197 -107.5t-139.5 -156.5t-86 -187.5t-28 -200.5q0 -111 34.5 -209.5t100 -177t171.5 -124.5t239 -46q105 0 191 35.5t141.5 93t93.5 134 t54 154t16 156.5q0 26 -4 72l36 8q2 -20 2 -61q0 -68 -12.5 -137t-38.5 -139t-69 -130t-99.5 -106.5t-136 -73.5t-172.5 -27q-115 0 -211 31t-163.5 84.5t-114.5 126.5t-69 155.5t-22 172.5z" />
<glyph unicode="V" horiz-adv-x="2002" d="M14 938q0 102 28 200.5t87 186.5t141 154.5t198.5 105.5t252.5 39q167 0 298.5 -71.5t220.5 -199t148 -312t85 -403t26 -480.5q0 -244 -26 -561q100 495 245.5 911.5t315 709t362 456t383.5 163.5q102 0 173 -40t95 -101l-36 -19q-49 127 -244 127q-179 0 -364 -162 t-353 -455t-316 -719.5t-253 -936.5l-43 6q16 312 16 559q0 279 -22.5 503t-76 415t-137 319t-210.5 199.5t-293 71.5q-130 0 -240.5 -37.5t-188 -101.5t-132.5 -148.5t-81 -178.5t-26 -192q0 -115 37 -220t106.5 -188.5t181 -133.5t249.5 -50q87 0 160.5 25t124.5 67.5 t90 96.5t61.5 116.5t33.5 122t11 117.5q0 52 -10 100l41 9q8 -54 8 -93q0 -60 -11 -121.5t-34 -128.5t-64.5 -125t-96.5 -105t-135.5 -74t-176.5 -27q-119 0 -219.5 33t-171.5 90.5t-121 134.5t-73.5 164.5t-23.5 181.5z" />
<glyph unicode="W" horiz-adv-x="2592" d="M63 938q0 102 28 200.5t87 186.5t141 154.5t198.5 105.5t252.5 39q225 0 396.5 -140t256.5 -388q72 -210 72 -858q0 -60 -1 -168.5t-1 -155.5q0 -311 27 -340q21 98 41 191t90 388t133.5 532.5t152 515.5t164.5 446l35 -9q-121 -1100 -121 -1585q0 -402 74 -487 q60 295 100 483.5t96.5 430.5t103 393.5t107.5 324.5t122.5 275t135.5 193.5t159 131t182 39.5q171 0 268 -141l-37 -19q-37 61 -104.5 94t-145.5 33q-89 0 -168 -38t-148.5 -125t-128 -187.5t-117.5 -268.5t-105.5 -321.5t-103 -393.5t-99 -437.5t-103.5 -497.5h-35 q-92 64 -92 526q0 581 127 1543q-69 -151 -153.5 -419t-154.5 -536.5t-132.5 -529.5t-96 -412.5t-36.5 -171.5h-29q-29 27 -39 161q-10 127 -11 305q1 9 1 17v384q0 7 1 14q-1 191 -15 374q-14 190 -47 293q-80 246 -243.5 383.5t-383.5 137.5q-130 0 -240.5 -37.5 t-188 -101.5t-132.5 -148.5t-81 -178.5t-26 -192q0 -115 37 -220t106.5 -188.5t181 -133.5t249.5 -50q103 0 186.5 35t136 91.5t88 132t50 151.5t14.5 156q0 25 -4 79l37 9q2 -23 2 -70q0 -83 -16 -164t-54 -161.5t-94.5 -141.5t-145 -99t-198.5 -38q-119 0 -219.5 33 t-171.5 90.5t-121 134.5t-73.5 164.5t-23.5 181.5z" />
<glyph unicode="X" horiz-adv-x="1978" d="M59 184q0 112 25.5 219.5t79 204t128.5 169.5t182 116t231 43q91 0 167.5 -37t126 -99t76.5 -140.5t27 -163.5q0 -104 -41 -202.5t-121 -170.5l-29 24q162 159 162 369q0 107 -44.5 198.5t-130.5 148.5t-196 57q-114 0 -212.5 -42.5t-168 -115t-119.5 -167.5t-74 -200.5 t-24 -214.5q0 -123 31.5 -233.5t92 -198.5t159 -140t221.5 -52q82 0 158 20t139.5 52.5t124 86.5t109 110.5t97.5 135.5t86.5 151t79 168t72 174.5t68.5 182.5l-4 37q-24 152 -39 241.5t-43.5 223t-54 213.5t-66.5 174t-86 145t-107.5 86t-135.5 35q-161 0 -246.5 -89.5 t-85.5 -215.5q0 -81 34 -152.5t104 -118.5t161 -47l-4 -47q-101 0 -177 51t-112.5 128.5t-36.5 166.5q0 66 22.5 126.5t65.5 109.5t113.5 78.5t159.5 29.5q54 0 103 -15t90 -45.5t77 -69t66.5 -93.5t55.5 -111t48 -129.5t41 -140.5t35.5 -153t30.5 -158t28 -164 q135 376 201 523q151 337 320 464q123 92 270 92q102 0 178 -43.5t94 -101.5l-41 -14q-17 58 -85.5 92.5t-164.5 34.5q-61 0 -117.5 -18.5t-104 -47.5t-94 -80t-83 -101t-76.5 -125.5t-69 -139.5t-65.5 -157t-62.5 -163t-62 -172q-21 -59 -32 -88q20 -126 31.5 -192 t34 -181.5t41 -179.5t50 -157.5t63.5 -146.5t78.5 -115.5t98.5 -94.5t119.5 -54t145.5 -22q114 0 185 55.5t93 159.5l45 -6q-55 -233 -321 -233q-80 0 -150.5 19.5t-126 51.5t-104 85t-84.5 108.5t-68 133.5t-54.5 149t-44.5 166.5t-36 173.5t-31 182q-48 -130 -88.5 -228.5 t-97 -214t-111 -199t-127 -166t-149.5 -133.5t-173.5 -82.5t-203.5 -31.5q-131 0 -236.5 54.5t-170.5 146t-99.5 206.5t-34.5 242z" />
<glyph unicode="Y" horiz-adv-x="2031" d="M8 1090q0 105 30 207.5t92 195.5t148.5 163.5t208 112t261.5 41.5q168 0 306 -85.5t213.5 -226.5t75.5 -304q0 -115 -21.5 -237.5t-47 -213t-47 -214t-21.5 -238.5q0 -135 37.5 -208t126.5 -73q57 0 116.5 59.5t108.5 150.5t94.5 206.5t76.5 219t53 196.5q60 334 132 593 t124 377l45 -22q-81 -171 -167 -497.5t-145 -768.5q-5 -35 -16 -125t-19 -149.5t-23.5 -158t-30 -168t-38 -160.5t-48.5 -154t-60 -129.5t-73.5 -106.5t-88.5 -66t-106 -26q-100 0 -163 60t-63 163q0 115 76 195.5t170 83.5l4 -41q-82 0 -147.5 -68t-65.5 -170 q0 -100 51 -151t138 -51q69 0 128 47t100.5 122.5t77 181t57.5 213t41.5 227t31 214.5t22.5 185.5t19 130.5q-38 -123 -81.5 -230t-96.5 -200.5t-113.5 -148t-120.5 -54.5q-205 0 -205 297q0 115 21.5 239.5t47.5 216.5t47.5 215t21.5 236q0 114 -41 221.5t-113 190.5 t-179 133.5t-229 50.5q-134 0 -250 -40t-197 -107.5t-139 -156.5t-86 -187.5t-28 -200.5q0 -111 34.5 -209.5t100 -177t171.5 -124.5t239 -46q105 0 191 35.5t141.5 93t93 134t53.5 154t16 156.5q0 26 -4 72l37 8q2 -20 2 -61q0 -68 -12.5 -137t-38.5 -139t-69 -130 t-99.5 -106.5t-136 -73.5t-172.5 -27q-115 0 -211 31t-163.5 84.5t-114.5 126.5t-69 155.5t-22 172.5z" />
<glyph unicode="Z" horiz-adv-x="1339" d="M225 1077q0 104 25.5 207.5t78.5 199t127.5 168.5t181.5 116.5t232 43.5q168 0 290 -79t181.5 -208t59.5 -290q0 -132 -42.5 -267.5t-124 -264.5t-214 -244t-299.5 -193q99 -29 165.5 -95.5t95 -149t28.5 -179.5q0 -135 -50.5 -264t-142 -213t-196.5 -84q-104 0 -161 72 t-57 180q0 109 59.5 214t166.5 161l24 -39q-105 -59 -161 -155.5t-56 -196.5q0 -93 48.5 -154t136.5 -61q95 0 176.5 83t126.5 208.5t45 256.5q0 100 -28 181.5t-94.5 141.5t-164.5 75q-19 -4 -41.5 -12.5t-41 -13.5t-40.5 -5q-4 0 -12 1t-12 1l14 70h8q59 0 119 -13 q136 59 249 143.5t192 181t134 204.5t81 215.5t26 212.5q0 116 -32.5 217t-93 177.5t-154 120.5t-208.5 44q-116 0 -216 -43.5t-170 -116t-120 -167t-74 -196.5t-24 -204q0 -201 85.5 -332t234.5 -131q72 0 127.5 33t88.5 88.5t49.5 121t16.5 136.5q0 87 -35.5 159 t-99.5 103l27 41q75 -41 112 -122.5t37 -182.5q0 -73 -21 -142.5t-59.5 -127t-102 -92.5t-140.5 -35q-112 0 -195 67t-124.5 178t-41.5 250z" />
<glyph unicode="[" horiz-adv-x="374" d="M6 -205q109 617 156 895l149 899q72 -16 150 -16q102 0 162 24l10 -34q-27 -19 -117 -19q-116 0 -190 21q-7 -59 -27.5 -186t-38 -227.5t-46.5 -266.5t-34 -195q-12 -68 -44.5 -266.5t-60.5 -361.5t-44 -238q67 18 159 18q86 0 136 -18l-13 -37q-61 25 -151 25 q-76 0 -156 -17z" />
<glyph unicode="\" horiz-adv-x="270" d="M85.5 1097.5q0.5 187.5 12.5 377.5h29q-39 -700 74 -1526h-27q-29 217 -47.5 398.5t-30 372t-11 378z" />
<glyph unicode="]" horiz-adv-x="335" d="M-332 -178q23 18 117 18q120 0 190 -20q12 104 146 874q12 69 44.5 267t60.5 361.5t44 238.5q-78 -21 -161 -21q-75 0 -134 21l13 36q52 -24 151 -24q78 0 156 16q-109 -617 -156 -895l-149 -899q-77 17 -150 17q-92 0 -162 -25z" />
<glyph unicode="^" horiz-adv-x="401" d="M33 1016q114 96 196 209h29q104 -186 117 -219l-31 -11q-41 90 -111 195q-44 -51 -91 -99t-72 -70l-25 -22z" />
<glyph unicode="_" horiz-adv-x="323" d="M-27 -74l4 25h367l-4 -25h-367z" />
<glyph unicode="`" horiz-adv-x="356" d="M96 1229l29 16q71 -125 166 -231l-10 -15q-10 7 -26.5 22.5t-65.5 75t-93 132.5z" />
<glyph unicode="a" horiz-adv-x="651" d="M-37 217q0 144 42 311t117.5 289.5t156.5 122.5q112 0 120 -180l35 174h41q-7 -40 -28.5 -152t-30.5 -163t-25 -143t-23.5 -145t-13.5 -113.5t-6 -100.5q0 -101 35 -101q50 0 111.5 117t156.5 365q17 0 17 -13v-4q-42 -111 -69.5 -178.5t-58.5 -134.5t-55 -101.5 t-51 -55.5t-55 -21q-66 0 -66 151q0 88 23 246q-128 -397 -266 -397q-54 0 -80.5 61.5t-26.5 165.5zM-4 197q0 -187 82 -187q60 0 132.5 133.5t120.5 302.5t48 277q0 93 -26.5 147t-76.5 54q-66 0 -133 -126.5t-107 -296.5t-40 -304z" />
<glyph unicode="b" horiz-adv-x="653" d="M-4 379q0 235 49.5 528t122 499t131.5 206q47 0 47 -82q0 -204 -301 -989q-8 -91 -8 -193q0 -338 129 -338q52 0 99.5 56.5t86.5 152.5q-119 10 -177 104t-58 228q0 94 26 183.5t72 147.5t100 58q82 0 123 -80.5t41 -210.5q0 -208 -82 -409q77 8 144 73.5t112 184.5 q17 0 17 -13v-4q-45 -120 -118 -189t-163 -73q-45 -105 -105 -167t-126 -62q-162 0 -162 389zM51 625q273 712 273 917q0 51 -27 51q-34 0 -84 -149t-95 -376.5t-67 -442.5zM152 541q0 -59 11 -109.5t34.5 -93t65 -68.5t97.5 -30q78 214 78 422q0 117 -31 189.5t-94 72.5 q-40 0 -77.5 -57t-60.5 -146t-23 -180z" />
<glyph unicode="c" horiz-adv-x="501" d="M-18 301q0 139 37.5 286.5t104.5 250t140 102.5q56 0 86.5 -52t30.5 -132q0 -152 -82 -277l-37 25q90 137 90 270q0 67 -24.5 108.5t-65.5 41.5q-59 0 -116.5 -99t-91.5 -244t-34 -278q0 -129 38 -209.5t118 -83.5q29 2 55 14.5t48 30.5t45 52.5t41.5 67.5t43.5 90 t44 105.5t49 127.5q16 0 16 -13v-4q-94 -244 -138 -323q-69 -126 -154 -156q-33 -12 -72 -12q-87 0 -129.5 86t-42.5 225z" />
<glyph unicode="d" horiz-adv-x="663" d="M-37 217q0 144 42 311t117.5 289.5t156.5 122.5q102 0 124 -145q48 281 154 817h33q-11 -61 -48.5 -259t-66 -353t-61 -340.5t-50.5 -317t-18 -186.5q0 -140 49 -140q50 0 112.5 117.5t156.5 364.5q18 0 18 -15v-4q-103 -271 -164 -380t-127 -109q-80 0 -80 166 q0 57 27 254q-31 -97 -58 -165.5t-60 -130t-70.5 -93t-79.5 -31.5q-54 0 -80.5 61.5t-26.5 165.5zM-4 197q0 -187 82 -187q64 0 142.5 157.5t139.5 383.5l19 102q4 40 4 66q0 86 -27 145.5t-80 59.5q-66 0 -133 -126.5t-107 -296.5t-40 -304z" />
<glyph unicode="e" horiz-adv-x="499" d="M-20 305q0 140 40 287.5t111 249.5t148 102q40 0 60.5 -23t20.5 -63q0 -83 -83 -188t-232 -178l-6 -5q-21 -123 -21 -204q0 -124 37.5 -198.5t116.5 -74.5q34 0 67 20.5t65.5 66t55.5 82.5t53.5 106.5t42.5 100t39 98.5q3 9 5 14q16 0 16 -13v-4q-72 -195 -113 -275 q-112 -216 -235 -216q-65 0 -108.5 43.5t-61.5 112t-18 159.5zM45 516q135 81 207 179t72 167q0 60 -48 60q-67 0 -131 -119t-100 -287z" />
<glyph unicode="f" horiz-adv-x="329" d="M-84 -264q0 315 109.5 909t199.5 838q22 61 52 95t55 34q47 0 47 -82q0 -97 -81.5 -356t-147 -431.5t-119.5 -306.5q-34 -217 -47 -330q27 11 66 37t91 71.5t103.5 120.5t85.5 163q16 0 16 -13v-4q-57 -146 -160.5 -251.5t-185.5 -137.5q86 -57 127 -141t41 -176 q0 -101 -43.5 -175.5t-104.5 -74.5q-48 0 -76 46.5t-28 164.5zM-53 -279q0 -82 17 -129t50 -47q47 0 84 70t37 164q0 86 -37 166.5t-118 138.5q-33 -287 -33 -363zM51 551q56 139 115.5 301.5t124.5 380.5t65 309q0 51 -26 51q-49 0 -123 -288.5t-156 -753.5z" />
<glyph unicode="g" horiz-adv-x="624" d="M-37 217q0 144 42 311t117.5 289.5t156.5 122.5q54 0 84 -41t38 -106l29 141h45q-26 -101 -174 -940q104 113 184 231t140 273h4q12 0 12 -13v-4q-63 -166 -147.5 -286.5t-196.5 -237.5l-78 -436q-12 -67 -47.5 -105.5t-83.5 -38.5q-38 0 -63 36t-25 93q0 36 8.5 72.5 t18 64t33.5 65t37.5 58t49 61t49.5 55.5t56 59q15 83 78 452q-29 -92 -55 -159t-58 -125.5t-69 -88.5t-78 -30q-54 0 -80.5 61.5t-26.5 165.5zM-4 197q0 -187 82 -187q44 0 96.5 80t99.5 203.5t86 273.5l17 84q4 46 4 68q0 87 -26 146t-79 59q-66 0 -133 -126.5t-107 -296.5 t-40 -304zM27 -498q0 -52 18 -78t47 -26q32 0 54.5 33t33.5 94l66 379q-65 -69 -101 -113t-70.5 -109t-43.5 -131q-4 -18 -4 -49z" />
<glyph unicode="h" horiz-adv-x="636" d="M-78 0q14 102 41 215q75 579 124 834q107 563 222 563q47 0 47 -82q0 -73 -39 -222t-101 -326.5t-102.5 -286t-78.5 -206.5q-20 -128 -23 -153q37 111 77.5 209.5t88 191.5t98 148t95.5 55q40 0 65 -35.5t25 -93.5q0 -64 -38.5 -202t-77 -279t-38.5 -211q0 -46 14 -74.5 t41 -28.5q48 0 122.5 139t152.5 343q16 0 16 -13v-4q-32 -83 -56 -142t-58 -130t-61.5 -115t-59.5 -74t-60 -30q-92 0 -92 131q0 67 39 215t78 287.5t39 187.5q0 107 -62 107q-44 0 -115 -115t-133 -259.5t-112 -289.5q-8 -66 -35 -254h-43zM49 592q285 739 285 950 q0 51 -27 51q-32 0 -69 -97.5t-72.5 -259.5t-63.5 -318.5t-53 -325.5z" />
<glyph unicode="i" horiz-adv-x="299" d="M-39 150q0 84 22 236t39 240t60 308h41q-7 -40 -28.5 -152t-30.5 -163t-25 -143t-23.5 -145t-13.5 -113.5t-6 -100.5q0 -101 35 -101q50 0 111.5 117t156.5 365q16 0 16 -13v-4q-36 -93 -59 -151.5t-50 -120.5t-47 -97.5t-43 -66t-44.5 -43t-44.5 -12.5q-66 0 -66 160z M115 1143q0 37 24 37q13 0 20 -9t7 -22q0 -15 -7.5 -25t-19.5 -10q-24 0 -24 29z" />
<glyph unicode="j" horiz-adv-x="309" d="M-315 -494q0 25 4.5 51t9 46.5t18 47t20.5 42t28 44t29 40t35 42.5t34.5 39.5t38.5 42t37 40.5q17 94 53 309.5t55 318.5q-8 -28 -31 -88q-18 1 -18 11q0 1 1 3t1 3q26 67 44.5 124t31 106.5t18 75.5t13.5 73t10 57h41q-28 -110 -170 -942q103 114 182 231.5t139 274.5h4 q13 0 13 -13v-4q-34 -88 -75 -165.5t-90 -144.5t-87 -112t-92 -104l-78 -434q-12 -67 -47.5 -105.5t-83.5 -38.5q-38 0 -63 36t-25 93zM-289 -498q0 -52 18.5 -78t47.5 -26q20 0 36 14.5t29 45.5t22.5 64.5t19 85t16 93t16 103.5t16.5 102q-98 -106 -149.5 -183.5 t-67.5 -171.5q-4 -18 -4 -49zM152 1143v8q4 29 24 29q13 0 20 -9t7 -22q0 -15 -7.5 -25t-19.5 -10q-24 0 -24 29z" />
<glyph unicode="k" horiz-adv-x="514" d="M-80 0q18 91 50.5 315t65 427.5t74 411t93 333t106.5 125.5q47 0 47 -82q0 -215 -323 -1041l-6 -45q30 76 53 132t51.5 117t53.5 102t52.5 76t55.5 52t57 17q53 0 53 -63q0 -64 -48.5 -166.5t-122.5 -194.5t-140 -125q28 -39 53.5 -135.5t47 -168t47.5 -71.5 q48 0 122 138.5t152 343.5q18 0 18 -15v-4q-40 -104 -71.5 -177.5t-72 -151.5t-79 -119t-73.5 -41q-37 0 -63.5 50.5t-38.5 113.5t-28.5 132t-35.5 95q-20 -4 -31 -4t-19 4q0 -4 -4 -12q-26 -207 -51 -369h-45zM35 422h8q18 0 33 -12q61 26 132 117.5t117 191t46 155.5 q0 44 -31 44q-56 0 -135.5 -128t-169.5 -368zM43 557q291 785 291 982q0 54 -27 54q-33 0 -71 -102t-74 -268.5t-65 -330t-54 -335.5z" />
<glyph unicode="l" horiz-adv-x="325" d="M-18 219q0 249 74.5 648.5t154.5 615.5q24 63 52 96t54 33q48 0 48 -78q0 -99 -31 -235.5t-70.5 -251.5t-93.5 -245.5t-81 -188.5t-52 -109q-27 -211 -27 -322q0 -166 47 -166q50 0 112.5 117.5t156.5 364.5q18 0 18 -15v-4q-103 -271 -164 -380t-127 -109q-71 0 -71 229 zM49 584q36 72 75.5 163.5t94 233t89 290.5t34.5 263q0 59 -25 59q-37 0 -89.5 -161.5t-99 -389t-79.5 -458.5z" />
<glyph unicode="m" horiz-adv-x="843" d="M-106 0q0 1 36.5 175.5t81.5 406.5t62 352h43q-4 -36 -62 -330q127 340 236 340q65 -6 65 -129q0 -74 -26 -233q48 166 112 264t136 98q40 0 65 -37t25 -96q0 -75 -77 -354t-77 -365q0 -76 55 -76q31 0 65 39t72.5 117t67.5 147.5t70 178.5q16 0 16 -13v-4 q-96 -248 -139 -331q-82 -160 -156 -160q-92 0 -92 104q0 84 78 374t78 343q0 113 -62 113t-136 -141.5t-126 -352.5q-33 -187 -88 -430h-45q47 218 98.5 487t51.5 328q0 22 -1 36t-5 33t-14 28.5t-26 9.5q-89 0 -247 -459q-81 -425 -90 -463h-45z" />
<glyph unicode="n" horiz-adv-x="610" d="M-104 0q16 116 65 287q88 475 102 647h43q-4 -53 -75 -432q34 91 69.5 166t76 139.5t83.5 100.5t84 36q43 0 66.5 -36.5t23.5 -96.5q0 -75 -76.5 -351t-76.5 -362q0 -82 55 -82q30 0 64 39t72 116.5t67.5 148.5t70.5 178q17 0 17 -13v-4q-94 -243 -132 -320 q-86 -171 -163 -171q-46 0 -69 29.5t-23 80.5q0 84 77.5 371t77.5 340q0 57 -14 84t-47 27q-37 0 -81.5 -47.5t-87.5 -128t-82 -170.5t-73 -189l-69 -387h-45z" />
<glyph unicode="o" horiz-adv-x="661" d="M-16 322q0 185 63 356l39 -8q-66 -182 -66 -365q0 -130 39 -212.5t115 -82.5q52 0 99.5 56.5t86.5 152.5q-67 4 -118 33.5t-81 76t-44.5 102.5t-14.5 120q0 94 29 183.5t81 147.5t112 58q82 0 122.5 -80.5t40.5 -210.5q0 -210 -81 -409q77 8 144 73.5t112 184.5 q16 0 16 -13v-4q-45 -120 -118 -189t-163 -73q-45 -105 -105 -167t-126 -62q-90 0 -136 93.5t-46 238.5zM135 549q0 -128 57.5 -215.5t176.5 -93.5q77 211 77 422q0 118 -30.5 190t-93.5 72q-73 0 -130 -117.5t-57 -257.5z" />
<glyph unicode="p" horiz-adv-x="620" d="M-205 -612q5 24 23.5 120t27 139t24.5 116.5t29.5 125.5t26.5 93l11 -21q-19 -56 -50.5 -201.5t-44.5 -240.5q15 101 69 429t99 613t51 373h45l-51 -326q51 153 113.5 244.5t130.5 91.5q67 0 100 -70t33 -186q0 -182 -71.5 -384.5t-174.5 -278.5q77 25 154.5 82.5 t155 160t125.5 230.5q16 0 16 -13v-4q-58 -150 -155 -264.5t-198.5 -170.5t-191.5 -56h-2q-101 0 -115 139l-125 -741h-55zM-170 -561q0 1 4 29q-4 -24 -4 -29zM-162 -506q0 5 4 25q-4 -20 -4 -25zM-8 201q0 -84 23.5 -137.5t76.5 -53.5q76 0 148 118.5t113.5 280 t41.5 298.5q0 99 -25.5 158t-78.5 59q-63 0 -137 -135.5t-123 -327.5l-37 -223q0 -6 -1 -18.5t-1 -18.5z" />
<glyph unicode="q" horiz-adv-x="628" d="M-37 217q0 144 42 311t117.5 289.5t156.5 122.5q106 0 124 -158l33 152h41q-26 -139 -97 -456.5t-97 -448.5q130 112 210 218t136 251q16 0 16 -13v-4q-110 -289 -360 -465q60 -59 90.5 -155t30.5 -199q0 -134 -32 -209.5t-93 -75.5q-93 0 -93 201q0 200 111 719 q-52 -147 -107 -227t-122 -80q-54 0 -80.5 61.5t-26.5 165.5zM-4 197q0 -187 82 -187q40 0 82.5 55t81.5 150.5t73 209.5t64 245q2 16 2 51q0 86 -26 144.5t-79 58.5q-66 0 -133 -126.5t-107 -296.5t-40 -304zM219 -426q0 -176 62 -176q88 0 88 258q0 102 -23 194.5 t-70 149.5q-29 -141 -45 -258q-12 -102 -12 -168z" />
<glyph unicode="r" horiz-adv-x="475" d="M-2 492q0 1 1 3t1 3q50 133 100 420q-5 40 -5 83q0 105 30 222l37 -6q-1 -33 0 -46.5t-2.5 -44t-4 -42.5t-5.5 -41.5t-7.5 -41t-8 -41t-7.5 -40.5l-4 -19q10 -27 34.5 -68.5t45 -76t37 -88t16.5 -107.5q0 -89 -49 -247.5t-49 -225.5q0 -34 13.5 -53t35.5 -19 q50 0 111.5 117t156.5 365q17 0 17 -13v-4q-42 -111 -69.5 -178.5t-58.5 -134.5t-55 -101.5t-51 -55.5t-55 -21q-82 0 -82 116q0 72 49 224t49 231q0 60 -16 111.5t-46.5 111t-39.5 82.5q-55 -263 -101 -385q-18 1 -18 11z" />
<glyph unicode="s" horiz-adv-x="458" d="M-66 145q0 40 19 80l31 -14q-17 -28 -17 -68q0 -55 34 -94t95 -39h4h4q79 3 127 73.5t48 166.5q0 71 -24 168.5t-56.5 223.5t-46.5 237q-65 -215 -136 -398q-18 1 -18 11q0 1 1 3t1 3q80 213 145 444v90q0 110 29 191l33 -4v-15q0 -132 -41 -276q8 -101 46.5 -236.5 t72.5 -253t34 -188.5q0 -46 -12 -86q62 106 150 334q16 0 16 -13v-4q-34 -88 -58.5 -146t-54.5 -119.5t-57 -98.5t-60 -68.5t-70.5 -45t-80.5 -13.5h-2q-74 0 -115 46t-41 109z" />
<glyph unicode="t" horiz-adv-x="335" d="M-53 915l4 19h123q113 498 198 498q21 0 34 -21t13 -57q0 -49 -20 -131.5t-35.5 -131t-52.5 -157.5h94l-4 -19h-96q-88 -248 -168 -432q-23 -182 -23 -290q0 -177 54 -177q50 0 111.5 117t156.5 365q16 0 16 -13v-4q-42 -111 -69.5 -178.5t-58.5 -134.5t-55 -101.5 t-51 -55.5t-55 -21q-81 0 -81 243q0 275 88 682h-123zM45 553q83 209 133 362h-67q-48 -229 -66 -362zM115 934h69q88 265 111 412q0 4 1 11t1 11q0 45 -25 45q-29 0 -72.5 -141t-84.5 -338z" />
<glyph unicode="u" horiz-adv-x="608" d="M-39 156q0 44 6 105t12.5 109t22.5 138.5t24 131t30 152.5t28 142h41q-14 -73 -43.5 -224.5t-45.5 -235t-30 -184.5t-14 -161q0 -115 49 -115q61 0 143.5 151.5t126.5 344.5q31 185 80 424h41q-7 -40 -28.5 -152t-30.5 -163t-25 -143t-23.5 -145t-13.5 -113.5t-6 -100.5 q0 -101 35 -101q50 0 111.5 117t156.5 365q17 0 17 -13v-4q-42 -111 -69.5 -178.5t-58.5 -134.5t-55 -101.5t-51 -55.5t-55 -21q-66 0 -66 160q0 53 15 184q-53 -150 -122.5 -247t-127.5 -97q-74 0 -74 166z" />
<glyph unicode="v" horiz-adv-x="591" d="M-2 492q0 1 1 3t1 3q43 114 66 204q0 147 10 232h43q4 -16 4 -35q0 -39 -8 -72l-13 -53q27 -489 37 -741q97 132 172 329q-51 102 -51 289q0 105 18 200t55 158.5t85 63.5q28 0 45.5 -30.5t17.5 -84.5q0 -234 -145 -596q36 -61 88 -61q41 0 86.5 51.5t81.5 145.5 q5 0 10.5 -3.5t5.5 -9.5v-4q-36 -95 -88 -147.5t-104 -52.5q-51 0 -90 57q-52 -124 -103.5 -216t-87.5 -122h-29q-31 418 -38 635q-9 -37 -52 -154q-18 1 -18 11zM285 649q0 -163 39 -258q118 320 118 572q0 90 -32 90q-36 0 -65.5 -60.5t-44.5 -152t-15 -191.5z" />
<glyph unicode="w" horiz-adv-x="821" d="M-39 156q0 44 6 105t12.5 109t22.5 138.5t24 131t30 152.5t28 142h41q-5 -29 -21 -114.5t-23 -121.5t-20.5 -111.5t-20 -115.5t-16 -101.5t-13.5 -100t-7.5 -80.5t-3.5 -72q0 -101 33 -101q61 0 147 150t131 344q31 185 80 424h41q-7 -40 -28.5 -152t-30.5 -163t-25 -143 t-23.5 -145t-13.5 -113.5t-6 -100.5q0 -101 35 -101q34 0 88 99.5t109 253.5q-25 77 -25 192q0 139 11 241t31 159.5t44 84.5t53 27q26 0 43 -31.5t17 -83.5q0 -125 -39 -289.5t-101 -320.5q27 -47 80 -47q41 0 87 51t83 146q5 0 11 -4t6 -9v-4q-35 -95 -88 -147.5 t-105 -52.5q-54 0 -84 41q-61 -146 -122.5 -239t-102.5 -93q-66 0 -66 160q0 53 15 184q-53 -150 -122.5 -247t-127.5 -97q-74 0 -74 166zM532 561q0 -94 17 -160q54 155 88.5 309t34.5 253q0 38 -9 64t-22 26q-29 0 -53 -51.5t-40 -166t-16 -274.5z" />
<glyph unicode="x" horiz-adv-x="659" d="M-61 111q0 60 23.5 126.5t60.5 114.5l34 -24q-36 -41 -60 -107.5t-24 -122.5q0 -88 60 -88q22 0 45 15t47 48t44.5 66.5t46.5 90t44.5 98t46.5 108.5q3 30 9.5 87.5t10 92t6.5 78.5t3 76q0 154 -64 154q-51 0 -105 -97t-151 -346q-18 1 -18 11q0 1 1 3t1 3q33 85 54 137 t46.5 109t44.5 89t41 60t43.5 39.5t44.5 11.5q101 0 101 -239q0 -39 -4 -121q32 83 57 139.5t56.5 111t65 82t68.5 27.5q37 0 52 -22l-17 -23q-17 16 -37 16q-23 0 -45.5 -14t-45 -45t-40.5 -61.5t-41.5 -85t-38.5 -91.5t-40 -104q-4 -50 -13 -135.5t-14.5 -147t-5.5 -104.5 q0 -111 39 -111q103 0 288 482q17 0 17 -13v-4q-98 -256 -169.5 -373.5t-139.5 -117.5q-80 0 -80 182q0 84 12 186q-37 -85 -65.5 -142.5t-63.5 -113.5t-69.5 -84t-69.5 -28q-47 0 -69.5 33t-22.5 88z" />
<glyph unicode="y" horiz-adv-x="585" d="M-39 156q0 44 6 105t12.5 109t22.5 138.5t24 131t30 152.5t28 142h41q-14 -73 -43.5 -224.5t-45.5 -235t-30 -184.5t-14 -161q0 -113 49 -113q41 0 94.5 72t102.5 190.5t77 247.5q26 153 76 408h45q-26 -101 -174 -940q104 113 184 231t140 273h4q12 0 12 -13v-4 q-63 -166 -147.5 -286.5t-196.5 -237.5l-78 -436q-12 -67 -47.5 -105.5t-83.5 -38.5q-38 0 -63 36t-25 93q0 59 18 114t57 110.5t72.5 94.5t90.5 101q9 10 14 15q41 219 66 378q-53 -145 -120.5 -237t-123.5 -92q-74 0 -74 166zM-12 -498q0 -52 18 -78t47 -26q32 0 54.5 33 t33.5 94l66 379q-65 -69 -101 -113t-70.5 -109t-43.5 -131q-4 -18 -4 -49z" />
<glyph unicode="z" horiz-adv-x="583" d="M-2 492q0 1 1 3t1 3q18 48 40 114t35.5 107.5t32.5 88.5t36 74t41.5 44.5t52.5 17.5q70 0 105.5 -73.5t35.5 -194.5q0 -175 -65 -369.5t-160 -279.5q37 -25 65 -101q63 73 95.5 112.5t88.5 116.5t100 161.5t81 181.5h4q12 0 12 -13v-4q-31 -81 -72 -158.5t-70 -125 t-83.5 -116.5t-72.5 -89.5t-77 -87.5q25 -92 25 -187q0 -139 -48 -237t-114 -98q-38 0 -63 36t-25 93q0 55 15.5 107.5t47.5 104t60.5 88.5t75.5 91q-21 89 -62 110q-18 -13 -61 -22l-4 41q12 6 39 6q16 0 24 -2q73 61 138 277.5t65 394.5q0 215 -105 215q-26 0 -48.5 -22.5 t-43.5 -70t-37.5 -95t-41.5 -124t-46 -129.5q-18 1 -18 11zM27 -494q0 -52 18 -78t47 -26q40 0 69.5 61.5t43.5 161.5q8 70 8 125q0 59 -10 127q-85 -101 -130.5 -186t-45.5 -185z" />
<glyph unicode="{" horiz-adv-x="342" d="M0 -68q0 64 29 165.5t64 190t64 183t29 145.5t-26 68q-21 -6 -49 -6h-11l6 37h15q26 0 45 -8q37 20 54.5 80t20.5 138.5t2.5 169t5.5 176.5t24.5 156t65.5 113t122 43q28 0 41 -8l-8 -33q-18 6 -35 6q-61 0 -99.5 -40.5t-54.5 -106.5t-23 -147.5t-9.5 -168t-8.5 -163 t-26.5 -138.5t-57.5 -88q25 -25 25 -80q0 -69 -41.5 -200t-83 -263.5t-41.5 -205.5q0 -113 98 -113q18 0 39 6l4 -35q-12 -6 -51 -6q-129 0 -129 133z" />
<glyph unicode="|" horiz-adv-x="288" d="M25 0q44 250 136 746.5t132 730.5h26q-131 -777 -270 -1477h-24z" />
<glyph unicode="}" horiz-adv-x="399" d="M-57 -193l8 33q18 -6 35 -6q61 0 99 40.5t54 106.5t22.5 147t9 168t8.5 163t26.5 138t56.5 89q-24 21 -24 78q0 68 42 200t84 265.5t42 206.5q0 112 -99 112q-18 0 -39 -6l-4 35q12 6 51 6q127 0 127 -133q0 -80 -46.5 -219t-93 -271.5t-46.5 -195.5q0 -50 27 -68 q27 9 49 9h12l-6 -37q-3 0 -8 -1t-8 -1q-15 0 -43 8q-37 -20 -55 -80t-21 -138.5t-2.5 -168.5t-5.5 -176t-24 -156t-65 -113t-122 -43q-28 0 -41 8z" />
<glyph unicode="~" horiz-adv-x="798" d="M-12 608q72 94 207 94q67 0 197 -28.5t183 -28.5q83 0 127.5 17t85.5 53l46 -62q-79 -73 -195 -73q-74 0 -220.5 41t-211.5 41q-115 0 -182 -89z" />
<glyph unicode="&#xa1;" horiz-adv-x="358" d="M-6 0h47q94 296 194.5 675.5t163.5 694.5h-24q-17 -81 -35.5 -164.5t-35 -152t-39.5 -154t-37.5 -140t-40.5 -142t-38.5 -129.5t-41 -132.5t-37.5 -119.5t-39.5 -123t-36.5 -113zM375 1448q0 13 7.5 24t18.5 11q25 0 25 -31q0 -13 -7 -24t-20 -11q-24 0 -24 31z" />
<glyph unicode="&#xa2;" horiz-adv-x="471" d="M-16 356q0 107 36 217.5t102.5 187.5t141.5 77l17 96h16q-12 -68 -16 -96q106 -8 106 -127q0 -78 -43 -166l-41 20q43 75 43 150q0 43 -18 71.5t-52 32.5q-65 -378 -124 -686h10q66 0 120 68.5t89 175.5l30 -12q-32 -107 -99.5 -179.5t-147.5 -72.5h-7l-22 -113h-16 q13 82 20 113q-73 10 -109 76.5t-36 166.5zM27 350q0 -190 106 -215q22 125 65 353.5t62 332.5q-61 -1 -116 -77t-86 -184.5t-31 -209.5z" />
<glyph unicode="&#xa3;" horiz-adv-x="608" d="M2 18q141 125 156 373h-107l4 21h105q10 221 28 306q37 179 152 216q32 10 72 10q79 0 116 -46.5t37 -117.5q0 -55 -21 -109.5t-55 -90.5l-30 24q36 35 56 83.5t20 96.5q0 60 -32 100t-93 40q-30 0 -55 -10t-44 -25t-34.5 -41.5t-26 -50t-19 -61t-13 -64t-8.5 -69.5 t-5.5 -66.5t-4 -66t-3.5 -58.5h163l-4 -21h-161q-10 -103 -33.5 -178.5t-77.5 -146.5q10 2 33 2q35 0 107 -19.5t104 -19.5q27 0 48 7t26.5 11.5t23.5 20.5l29 -29q-42 -45 -103 -45q-50 0 -130 27.5t-109 27.5q-54 0 -84 -57z" />
<glyph unicode="&#xa5;" horiz-adv-x="436" d="M10 397l4 25h140l8 35q-4 40 -12 106h-111l4 25h102q-27 204 -55 346h45q30 -152 51 -346h50l165 346h31l-168 -346h105l-4 -25h-111l-55 -112l-6 -29h147l-4 -25h-148q-6 -34 -17 -96t-19 -108.5t-17.5 -94.5t-17 -74t-13.5 -26q-22 0 -22 25q0 28 9.5 79.5t28 139.5 t30.5 155h-140zM190 563l7 -55l26 55h-33z" />
<glyph unicode="&#xa6;" horiz-adv-x="299" d="M35 0q63 358 129 709h29q-67 -368 -134 -709h-24zM176 791q21 116 65 342.5t64 343.5h25q-80 -457 -123 -686h-31z" />
<glyph unicode="&#xa7;" horiz-adv-x="659" d="M45 221l55 12q9 -98 64 -159.5t127 -61.5q65 0 99 49.5t34 118.5q0 47 -28 95t-68 91.5t-80 91t-68 113t-28 138.5q0 106 66.5 170.5t189.5 64.5q82 0 131 -51.5t49 -130.5q0 -64 -33 -129l-43 16q33 59 33 119q0 65 -37 109.5t-90 44.5q-45 0 -74 -39t-29 -111 q0 -51 20 -101t50.5 -88.5t66 -81t66 -79.5t50.5 -83.5t20 -92.5q0 -115 -74.5 -186.5t-214.5 -71.5q-97 0 -167 63t-87 170zM193 713q0 -67 28 -129.5t68 -110.5t80 -92.5t68 -93.5t28 -97q0 -46 -23.5 -98t-56.5 -76q80 21 121 78t41 139q0 55 -28 108.5t-68 98.5 t-80.5 92t-68.5 107.5t-28 126.5q0 100 72 152q-69 -11 -111 -66.5t-42 -138.5z" />
<glyph unicode="&#xa8;" horiz-adv-x="301" d="M35 1044q0 13 7.5 24t18.5 11q25 0 25 -30q0 -13 -7 -24t-20 -11q-24 0 -24 30zM219 1044q0 13 8 24t19 11q24 0 24 -30q0 -14 -6.5 -24.5t-19.5 -10.5q-25 0 -25 30z" />
<glyph unicode="&#xa9;" horiz-adv-x="802" d="M57 831q0 114 27.5 226.5t78.5 206.5t132 152.5t178 58.5q85 0 145 -59.5t87.5 -153t27.5 -209.5q0 -114 -27.5 -226.5t-78.5 -206t-132 -152t-178 -58.5q-86 0 -146 59.5t-87 152.5t-27 209zM82 827q0 -110 24.5 -197.5t79 -143.5t131.5 -56q91 0 167.5 57t124.5 148.5 t74 201t26 220.5q0 170 -61 283.5t-175 113.5q-91 0 -167.5 -57t-124 -148.5t-73.5 -201t-26 -220.5zM236 852q0 -95 32 -154t97 -59q52 0 96.5 51.5t75.5 138.5l-23 7q-60 -177 -143 -177q-54 0 -80.5 51.5t-26.5 135.5t23 174.5t63.5 153.5t83.5 63q29 0 45.5 -24 t16.5 -64q0 -81 -62 -176l33 -17q55 80 55 174q0 55 -23.5 91t-62.5 36q-54 0 -101 -64.5t-73 -157.5t-26 -183z" />
<glyph unicode="&#xaa;" horiz-adv-x="700" d="M80 522q0 129 39 273.5t111 250t151 105.5q113 0 121 -180l35 170h41q-7 -35 -23.5 -122t-23 -124.5t-19.5 -109t-19 -110.5t-13 -90.5t-10 -88t-3 -66.5q0 -100 39 -100q75 0 168 188l18 -14q-58 -116 -100 -158.5t-90 -42.5q-38 0 -58 31t-20 108q0 64 14 156 q-108 -295 -245 -295q-57 0 -85 59.5t-28 159.5zM115 504q0 -83 21 -131.5t65 -48.5t94 55.5t91 140.5t68 197t27 217q0 93 -26 147t-76 54q-64 0 -127 -108t-100 -255t-37 -268z" />
<glyph unicode="&#xab;" horiz-adv-x="681" d="M29 764l4 27q25 11 66.5 31t146.5 80t182 118l12 -19q-75 -57 -168 -112.5t-148 -82.5l-56 -26q61 -44 130 -110.5t108 -111.5l38 -44l-25 -27q-140 156 -290 277zM213 764l4 27q25 11 66.5 31t146.5 80t182 118l13 -19q-75 -57 -168 -112.5t-149 -82.5l-56 -26 q61 -44 130 -110.5t108 -111.5l38 -44l-24 -27q-141 156 -291 277z" />
<glyph unicode="&#xad;" horiz-adv-x="448" d="M35 510l4 25h367l-5 -25h-366z" />
<glyph unicode="&#xae;" horiz-adv-x="776" d="M57 831q0 114 27.5 226.5t78.5 206.5t132 152.5t178 58.5q85 0 145 -59.5t87.5 -153t27.5 -209.5q0 -114 -27.5 -226.5t-78.5 -206t-132 -152t-178 -58.5q-86 0 -146 59.5t-87 152.5t-27 209zM82 827q0 -110 24.5 -197.5t79 -143.5t131.5 -56q91 0 167.5 57t124.5 148.5 t74 201t26 220.5q0 170 -61 283.5t-175 113.5q-91 0 -167.5 -57t-124 -148.5t-73.5 -201t-26 -220.5zM246 657h33l38 211q25 -17 48.5 -55t38.5 -72t36.5 -64t44.5 -36l11 27q-23 9 -47 51t-54 90t-65 70q98 18 156.5 91.5t58.5 153.5q0 57 -32.5 94t-92.5 37 q-71 0 -150 -57l17 -20q35 31 69 45q-36 -198 -61 -330q-20 4 -31 4h-4l-4 -20q15 -3 35 -3zM324 893q20 104 61 340q36 6 37 6q43 0 66.5 -31.5t23.5 -79.5q0 -74 -50 -144.5t-138 -90.5z" />
<glyph unicode="&#xaf;" horiz-adv-x="415" d="M35 1022l4 25h326l-5 -25h-325z" />
<glyph unicode="&#xb0;" horiz-adv-x="311" d="M33 944q0 62 41 112t106 50q49 0 75 -31t26 -76q0 -62 -40.5 -111.5t-105.5 -49.5q-50 0 -76 30t-26 76zM61 946q0 -38 20 -63t56 -25q51 0 82 43.5t31 95.5q0 38 -19 63t-55 25q-51 0 -83 -43.5t-32 -95.5z" />
<glyph unicode="&#xb2;" horiz-adv-x="475" d="M53 946q8 28 35 60q31 38 79 76t88.5 65.5t78.5 58t60 67t22 77.5q0 57 -28.5 86.5t-80.5 29.5q-59 0 -98 -47.5t-39 -113.5q0 -18 8 -54l-41 -12q-6 24 -6 53q0 77 47 136t133 59q67 0 106.5 -38.5t39.5 -107.5q0 -57 -39 -106t-89.5 -80.5t-116 -81.5t-103.5 -100 q16 8 41 8q19 0 65.5 -9t73.5 -9q65 0 104 34l25 -34q-36 -39 -99 -39q-46 0 -101.5 18.5t-72.5 18.5q-36 0 -67 -39z" />
<glyph unicode="&#xb3;" horiz-adv-x="434" d="M86 1059q0 30 8 57l41 -10q-14 -35 -14 -59q0 -44 26.5 -73.5t73.5 -29.5q66 0 101.5 46.5t35.5 109.5q0 37 -14 68.5t-39 45.5q-32 -8 -55 -8h-2v41h2q28 0 55 -10q30 18 48 55t18 76q0 42 -21 70t-63 28t-69.5 -29.5t-27.5 -74.5v-12h-43q2 58 40 97.5t106 39.5 q57 0 88 -36t31 -87q0 -40 -21 -78t-59 -59q33 -20 50 -54.5t17 -74.5q0 -69 -48 -121.5t-132 -52.5q-62 0 -97.5 37.5t-35.5 97.5z" />
<glyph unicode="&#xb4;" horiz-adv-x="385" d="M104 1012q92 103 166 233l27 -16q-44 -73 -89.5 -130.5t-69.5 -78.5l-23 -21z" />
<glyph unicode="&#xb6;" horiz-adv-x="1148" d="M59 973q0 95 39 184.5t111.5 163t189.5 118t260 44.5q93 0 170 -21q-56 -497 -122 -897q125 27 211 102t124.5 176t38.5 224q0 22 -4 76l37 6q4 -46 4 -70q0 -72 -14 -140t-46 -133t-79 -116.5t-118 -90t-159 -54.5q-43 -248 -104 -545h-29q68 338 103 539q-51 -7 -94 -7 q-35 -203 -103 -532h-29q40 192 103 532q-119 3 -214.5 41t-154.5 100t-90 139t-31 161zM100 967q0 -80 28 -152.5t82.5 -130.5t142 -93.5t198.5 -37.5q97 589 133 909h-31q-131 0 -238.5 -43.5t-174.5 -114.5t-103.5 -158t-36.5 -179zM582 553q78 5 94 8q59 331 129 885 q-63 12 -96 14q-61 -519 -127 -907z" />
<glyph unicode="&#xb7;" horiz-adv-x="215" d="M92 635q0 13 8 24t19 11q24 0 24 -31q0 -14 -6.5 -24.5t-19.5 -10.5q-25 0 -25 31z" />
<glyph unicode="&#xb8;" horiz-adv-x="847" d="M254 -287l47 23q14 -46 39.5 -70t77.5 -24q54 0 89.5 40t35.5 89q0 38 -25.5 64t-75.5 26q-44 0 -86 -21v-2q-10 -35 -20 -43l-37 27q20 23 37 33q21 83 35 153l24 -10l-33 -131q44 14 84 14q67 0 104.5 -34.5t37.5 -82.5q0 -57 -47.5 -100t-128.5 -43q-135 0 -158 92z " />
<glyph unicode="&#xb9;" horiz-adv-x="229" d="M51 1329q33 27 64 64t46 61l15 23h39q-1 -9 -13.5 -54.5t-37.5 -170.5t-55 -318h-39q60 381 100 500q-47 -78 -96 -123z" />
<glyph unicode="&#xba;" horiz-adv-x="737" d="M98 596q0 153 62 307l39 -12q-60 -163 -60 -311q0 -115 40.5 -184.5t121.5 -69.5q56 0 106 57t87 152q-138 6 -205.5 89.5t-67.5 202.5q0 124 61 222t150 98q86 0 128 -76.5t42 -198.5q0 -162 -61 -315q39 9 80 33l12 -17q-40 -31 -101 -38q-44 -103 -106.5 -166.5 t-132.5 -63.5q-96 0 -145.5 80.5t-49.5 210.5zM254 829q0 -115 60.5 -193t187.5 -81q59 163 59 328q0 110 -32.5 178.5t-98.5 68.5q-47 0 -88.5 -44.5t-64.5 -114t-23 -142.5z" />
<glyph unicode="&#xbb;" horiz-adv-x="493" d="M55 506q75 57 168 112.5t149 81.5l56 27q-61 44 -130 110.5t-108 110.5l-38 45l24 27q141 -156 291 -277l-4 -26q-25 -11 -66.5 -31t-146.5 -80.5t-182 -118.5zM260 506q75 57 168 112.5t149 81.5l56 27q-61 44 -130 110.5t-108 110.5l-39 45l25 27q141 -156 291 -277 l-4 -26q-25 -11 -66.5 -31t-147 -80.5t-182.5 -118.5z" />
<glyph unicode="&#xbc;" horiz-adv-x="737" d="M47 4q97 198 236.5 484.5t220.5 451.5l22 -12q-53 -106 -205 -419.5t-253 -514.5zM51 786q33 27 64 64t46 60l15 24h39q-1 -9 -13.5 -54.5t-37.5 -170.5t-55 -318h-39q60 381 100 500q-47 -78 -96 -123zM330 174q53 69 87 174.5t34 210.5h36q-2 -82 -28.5 -184.5 t-75.5 -175.5q12 4 39 4q25 0 71 -9t62 -10q13 87 24 152t16 92t14 70t12 61h38q-1 -10 -5.5 -28t-10 -44.5t-19 -106t-30.5 -196.5q53 3 86 39l25 -26q-38 -41 -115 -41l-21 -133h97l-4 -23h-232l4 23h98l19 135q-22 2 -70.5 12t-70.5 10q-43 0 -62 -24z" />
<glyph unicode="&#xbd;" horiz-adv-x="755" d="M47 4q97 198 236.5 484.5t220.5 451.5l22 -12q-53 -106 -205 -419.5t-253 -514.5zM57 786q33 27 64 64t46 60l15 24h39q-1 -9 -13.5 -54.5t-37.5 -170.5t-55 -318h-39q60 381 100 500q-47 -78 -96 -123zM319 12q8 28 35 60q31 38 79 76t88.5 65.5t78.5 58t60 67t22 77.5 q0 57 -28.5 86.5t-80.5 29.5q-59 0 -98 -47.5t-39 -113.5q0 -18 8 -54l-41 -12q-6 24 -6 53q0 77 47.5 136t133.5 59q67 0 106 -38t39 -107q0 -57 -39 -106t-89.5 -81t-116 -82t-103.5 -100q16 8 41 8q19 0 65.5 -9t73.5 -9q65 0 104 34l25 -34q-36 -39 -98 -39 q-46 0 -101.5 18.5t-72.5 18.5q-37 0 -68 -39z" />
<glyph unicode="&#xbe;" horiz-adv-x="739" d="M47 4q97 198 236.5 484.5t220.5 451.5l22 -12q-53 -106 -205 -419.5t-253 -514.5zM55 786q33 27 64 64t46 60l15 24h39q-1 -9 -13.5 -54.5t-37.5 -170.5t-55 -318h-39q60 381 100 500q-47 -78 -96 -123zM348 125q0 30 8 57l41 -10q-14 -35 -14 -59q0 -44 26.5 -73.5 t73.5 -29.5q66 0 102 46.5t36 109.5q0 37 -14.5 68.5t-39.5 46.5q-36 -9 -55 -9h-2v41h2q28 0 55 -10q30 18 48 55t18 76q0 42 -21 70t-63 28q-41 0 -68.5 -29t-27.5 -75v-12h-43q2 58 39.5 97.5t105.5 39.5q57 0 88 -36t31 -87q0 -40 -21 -78t-59 -59q33 -20 50.5 -54.5 t17.5 -74.5q0 -69 -48.5 -121.5t-132.5 -52.5q-62 0 -97.5 37.5t-35.5 97.5z" />
<glyph unicode="&#xbf;" horiz-adv-x="1019" d="M-25 285q0 -142 69 -218.5t187 -76.5q96 0 167 54.5t104 134.5t33 169q0 117 -59.5 200t-168.5 83l-4 -35q93 0 145 -76t52 -184q0 -81 -29 -153.5t-92 -122.5t-148 -50q-90 0 -152.5 72.5t-62.5 202.5q0 75 20.5 146.5t54 131.5t74.5 119t84.5 120.5t81.5 124t68 142 t41 162.5l-41 6q-15 -96 -53.5 -189t-84.5 -162.5t-97.5 -145.5t-93 -141t-68.5 -147.5t-27 -166.5zM434 1452q0 14 6.5 25.5t18.5 11.5q26 0 26 -31q0 -15 -7 -25t-19 -10q-25 0 -25 29z" />
<glyph unicode="&#xc0;" d="M-137 276q0 127 33 250t102 233t164.5 193t230.5 132t291 49q181 0 298 -87t163 -227q282 -3 479 -151q43 112 103.5 279.5t102 279.5t91.5 235t100 209.5t101 138.5l45 -20q-269 -1125 -269 -1788q0 -868 459 -868q140 0 225 71t142 207l37 -12q-116 -289 -381 -289 q-114 0 -202.5 41t-148.5 115.5t-98.5 185t-55.5 242.5t-17 295q0 17 1 52t1 54q0 344 -215 527q-49 -132 -95 -240t-106.5 -225t-122.5 -206.5t-141 -172.5t-163.5 -136.5t-189 -85.5t-219.5 -32q-147 0 -271 41.5t-210.5 112.5t-146.5 167t-88.5 204.5t-28.5 225.5z M-94 276q0 -114 27 -220t84 -199.5t139 -162.5t200.5 -109t259.5 -40q104 0 201 32.5t177 87t156.5 138.5t137.5 174t122 207t108 224.5t98 238.5q-188 143 -465 146q18 -71 18 -144q0 -113 -40.5 -219.5t-123 -191t-194.5 -121.5l-14 30q107 36 185 116.5t115.5 180 t37.5 207.5q0 69 -19 140q-119 -4 -232 -38t-208 -94.5t-163 -152.5t-93 -203l-35 8q36 154 147.5 269.5t261 174t316.5 62.5q-44 134 -153.5 216.5t-278.5 82.5q-145 0 -271.5 -48t-217 -130t-155.5 -189.5t-96.5 -228t-31.5 -244.5zM1653 645q173 -143 215 -381 q40 564 239 1493q-62 -88 -125.5 -227t-106 -257t-112 -318t-110.5 -310zM1939 2089l29 16q71 -125 166 -231l-10 -14q-10 7 -26.5 22.5t-65.5 74.5t-93 132z" />
<glyph unicode="&#xc1;" d="M-137 276q0 127 33 250t102 233t164.5 193t230.5 132t291 49q181 0 298 -87t163 -227q282 -3 479 -151q43 112 103.5 279.5t102 279.5t91.5 235t100 209.5t101 138.5l45 -20q-269 -1125 -269 -1788q0 -868 459 -868q140 0 225 71t142 207l37 -12q-116 -289 -381 -289 q-114 0 -202.5 41t-148.5 115.5t-98.5 185t-55.5 242.5t-17 295q0 17 1 52t1 54q0 344 -215 527q-49 -132 -95 -240t-106.5 -225t-122.5 -206.5t-141 -172.5t-163.5 -136.5t-189 -85.5t-219.5 -32q-147 0 -271 41.5t-210.5 112.5t-146.5 167t-88.5 204.5t-28.5 225.5z M-94 276q0 -114 27 -220t84 -199.5t139 -162.5t200.5 -109t259.5 -40q104 0 201 32.5t177 87t156.5 138.5t137.5 174t122 207t108 224.5t98 238.5q-188 143 -465 146q18 -71 18 -144q0 -113 -40.5 -219.5t-123 -191t-194.5 -121.5l-14 30q107 36 185 116.5t115.5 180 t37.5 207.5q0 69 -19 140q-119 -4 -232 -38t-208 -94.5t-163 -152.5t-93 -203l-35 8q36 154 147.5 269.5t261 174t316.5 62.5q-44 134 -153.5 216.5t-278.5 82.5q-145 0 -271.5 -48t-217 -130t-155.5 -189.5t-96.5 -228t-31.5 -244.5zM1653 645q173 -143 215 -381 q40 564 239 1493q-62 -88 -125.5 -227t-106 -257t-112 -318t-110.5 -310zM2152 1892q91 101 166 234l27 -17q-44 -73 -89.5 -130t-69.5 -78l-23 -21z" />
<glyph unicode="&#xc2;" d="M-137 276q0 127 33 250t102 233t164.5 193t230.5 132t291 49q181 0 298 -87t163 -227q282 -3 479 -151q43 112 103.5 279.5t102 279.5t91.5 235t100 209.5t101 138.5l45 -20q-269 -1125 -269 -1788q0 -868 459 -868q140 0 225 71t142 207l37 -12q-116 -289 -381 -289 q-114 0 -202.5 41t-148.5 115.5t-98.5 185t-55.5 242.5t-17 295q0 17 1 52t1 54q0 344 -215 527q-49 -132 -95 -240t-106.5 -225t-122.5 -206.5t-141 -172.5t-163.5 -136.5t-189 -85.5t-219.5 -32q-147 0 -271 41.5t-210.5 112.5t-146.5 167t-88.5 204.5t-28.5 225.5z M-94 276q0 -114 27 -220t84 -199.5t139 -162.5t200.5 -109t259.5 -40q104 0 201 32.5t177 87t156.5 138.5t137.5 174t122 207t108 224.5t98 238.5q-188 143 -465 146q18 -71 18 -144q0 -113 -40.5 -219.5t-123 -191t-194.5 -121.5l-14 30q107 36 185 116.5t115.5 180 t37.5 207.5q0 69 -19 140q-119 -4 -232 -38t-208 -94.5t-163 -152.5t-93 -203l-35 8q36 154 147.5 269.5t261 174t316.5 62.5q-44 134 -153.5 216.5t-278.5 82.5q-145 0 -271.5 -48t-217 -130t-155.5 -189.5t-96.5 -228t-31.5 -244.5zM1653 645q173 -143 215 -381 q40 564 239 1493q-62 -88 -125.5 -227t-106 -257t-112 -318t-110.5 -310zM1911 1874q109 90 198 211h29q104 -186 117 -219l-29 -15q-47 104 -112 201q-36 -49 -83.5 -97t-76.5 -71l-29 -24z" />
<glyph unicode="&#xc3;" d="M-137 276q0 127 33 250t102 233t164.5 193t230.5 132t291 49q181 0 298 -87t163 -227q282 -3 479 -151q43 112 103.5 279.5t102 279.5t91.5 235t100 209.5t101 138.5l45 -20q-269 -1125 -269 -1788q0 -868 459 -868q140 0 225 71t142 207l37 -12q-116 -289 -381 -289 q-114 0 -202.5 41t-148.5 115.5t-98.5 185t-55.5 242.5t-17 295q0 17 1 52t1 54q0 344 -215 527q-49 -132 -95 -240t-106.5 -225t-122.5 -206.5t-141 -172.5t-163.5 -136.5t-189 -85.5t-219.5 -32q-147 0 -271 41.5t-210.5 112.5t-146.5 167t-88.5 204.5t-28.5 225.5z M-94 276q0 -114 27 -220t84 -199.5t139 -162.5t200.5 -109t259.5 -40q104 0 201 32.5t177 87t156.5 138.5t137.5 174t122 207t108 224.5t98 238.5q-188 143 -465 146q18 -71 18 -144q0 -113 -40.5 -219.5t-123 -191t-194.5 -121.5l-14 30q107 36 185 116.5t115.5 180 t37.5 207.5q0 69 -19 140q-119 -4 -232 -38t-208 -94.5t-163 -152.5t-93 -203l-35 8q36 154 147.5 269.5t261 174t316.5 62.5q-44 134 -153.5 216.5t-278.5 82.5q-145 0 -271.5 -48t-217 -130t-155.5 -189.5t-96.5 -228t-31.5 -244.5zM1653 645q173 -143 215 -381 q40 564 239 1493q-62 -88 -125.5 -227t-106 -257t-112 -318t-110.5 -310zM1974 1892q37 47 103 47q33 0 97 -14t91 -14q65 0 105 35l22 -31q-40 -37 -96 -37q-37 0 -109 20.5t-104 20.5q-57 0 -90 -43z" />
<glyph unicode="&#xc4;" d="M-137 276q0 127 33 250t102 233t164.5 193t230.5 132t291 49q181 0 298 -87t163 -227q282 -3 479 -151q43 112 103.5 279.5t102 279.5t91.5 235t100 209.5t101 138.5l45 -20q-269 -1125 -269 -1788q0 -868 459 -868q140 0 225 71t142 207l37 -12q-116 -289 -381 -289 q-114 0 -202.5 41t-148.5 115.5t-98.5 185t-55.5 242.5t-17 295q0 17 1 52t1 54q0 344 -215 527q-49 -132 -95 -240t-106.5 -225t-122.5 -206.5t-141 -172.5t-163.5 -136.5t-189 -85.5t-219.5 -32q-147 0 -271 41.5t-210.5 112.5t-146.5 167t-88.5 204.5t-28.5 225.5z M-94 276q0 -114 27 -220t84 -199.5t139 -162.5t200.5 -109t259.5 -40q104 0 201 32.5t177 87t156.5 138.5t137.5 174t122 207t108 224.5t98 238.5q-188 143 -465 146q18 -71 18 -144q0 -113 -40.5 -219.5t-123 -191t-194.5 -121.5l-14 30q107 36 185 116.5t115.5 180 t37.5 207.5q0 69 -19 140q-119 -4 -232 -38t-208 -94.5t-163 -152.5t-93 -203l-35 8q36 154 147.5 269.5t261 174t316.5 62.5q-44 134 -153.5 216.5t-278.5 82.5q-145 0 -271.5 -48t-217 -130t-155.5 -189.5t-96.5 -228t-31.5 -244.5zM1653 645q173 -143 215 -381 q40 564 239 1493q-62 -88 -125.5 -227t-106 -257t-112 -318t-110.5 -310zM2073 1966q0 13 7.5 24t18.5 11q25 0 25 -31q0 -13 -7 -24t-20 -11q-24 0 -24 31zM2257 1966q0 13 8 24t19 11q24 0 24 -31q0 -13 -7 -24t-20 -11q-24 0 -24 31z" />
<glyph unicode="&#xc5;" d="M-137 276q0 127 33 250t102 233t164.5 193t230.5 132t291 49q181 0 298 -87t163 -227q282 -3 479 -151q47 122 125 338.5t123.5 338.5t111.5 255t127 200q-47 23 -47 90q0 54 34.5 98t90.5 44q45 0 68.5 -29t23.5 -72q0 -53 -31.5 -95.5t-84.5 -45.5h2 q-269 -1125 -269 -1788q0 -868 459 -868q140 0 225 71t142 207l37 -12q-116 -289 -381 -289q-114 0 -202.5 41t-148.5 115.5t-98.5 185t-55.5 242.5t-17 295q0 17 1 52t1 54q0 344 -215 527q-49 -132 -95 -240t-106.5 -225t-122.5 -206.5t-141 -172.5t-163.5 -136.5 t-189 -85.5t-219.5 -32q-147 0 -271 41.5t-210.5 112.5t-146.5 167t-88.5 204.5t-28.5 225.5zM-94 276q0 -114 27 -220t84 -199.5t139 -162.5t200.5 -109t259.5 -40q104 0 201 32.5t177 87t156.5 138.5t137.5 174t122 207t108 224.5t98 238.5q-188 143 -465 146 q18 -71 18 -144q0 -113 -40.5 -219.5t-123 -191t-194.5 -121.5l-14 30q107 36 185 116.5t115.5 180t37.5 207.5q0 69 -19 140q-119 -4 -232 -38t-208 -94.5t-163 -152.5t-93 -203l-35 8q36 154 147.5 269.5t261 174t316.5 62.5q-44 134 -153.5 216.5t-278.5 82.5 q-145 0 -271.5 -48t-217 -130t-155.5 -189.5t-96.5 -228t-31.5 -244.5zM1653 645q173 -143 215 -381q40 564 239 1493q-62 -88 -125.5 -227t-106 -257t-112 -318t-110.5 -310zM2087 1888q0 -36 18 -60t52 -24q44 0 72 40.5t28 88.5q0 35 -17.5 58.5t-50.5 23.5 q-44 0 -73 -40t-29 -87z" />
<glyph unicode="&#xc6;" horiz-adv-x="2871" d="M25 274q0 127 32 249.5t97.5 232.5t157 193t219.5 132t276 49q226 0 368 -128t142 -345q0 -176 -94 -327t-262 -209l-17 37q159 58 249.5 197.5t90.5 303.5q0 145 -64 249.5t-170 155t-241 50.5q-140 0 -262.5 -48.5t-210 -130.5t-150.5 -190t-94 -228.5t-31 -244.5 q0 -113 25.5 -216.5t80 -195t133 -159t191.5 -106.5t248 -39q93 0 177.5 28.5t152.5 71.5t134.5 122t115.5 149.5t102 187t88 202t81 226t72 228t69 237.5q-114 33 -191.5 95.5t-110 132t-32.5 144.5l41 6q0 -110 75 -207t224 -147q56 194 88 299t83 245.5t99 233.5l53 -18 q-5 -78 -29.5 -352.5t-35.5 -446.5h16q90 0 187 17q-37 110 -37 243q0 105 23 203t67 179.5t115.5 130.5t160.5 49q107 0 167.5 -72.5t60.5 -190.5q0 -80 -31.5 -163.5t-92 -162t-162.5 -140.5t-231 -91q50 -130 140 -168q52 9 73 9q41 0 41 -21q0 -11 -12 -19t-33 -8 q-40 0 -86 17q-233 -38 -387 -223q-2 -61 -2 -185q0 -852 258 -852q95 0 177.5 37.5t139.5 99t98 141.5t60 164t19 167q0 139 -55 231t-156 92q-111 0 -177.5 -97.5t-66.5 -227.5q0 -108 47 -191q-10 -10 -18 -10q-27 0 -45.5 73t-18.5 126q0 88 31.5 166.5t97 130 t150.5 51.5q81 0 139 -49.5t85.5 -129t27.5 -178.5q0 -85 -21 -170.5t-65.5 -166t-107 -142.5t-153 -99.5t-196.5 -37.5q-112 0 -202.5 45t-147.5 122t-87 175.5t-30 208.5q0 141 48 277.5t141 242.5q8 254 16 377q-124 7 -203 28q-41 -147 -66.5 -235t-70 -228t-80 -227.5 t-89.5 -204.5t-105 -190t-120.5 -153.5t-142 -124.5t-162.5 -73.5t-190 -29.5q-140 0 -257.5 40.5t-199.5 110.5t-138.5 164.5t-83.5 201t-27 222.5zM1763 1024q90 -25 197 -31q9 150 29 409.5t26 356.5q-45 -87 -92.5 -218.5t-77.5 -233t-82 -283.5zM1792 63 q0 -125 37 -230t116.5 -180t192.5 -97q-196 126 -196 872q0 18 1 55.5t1 57.5q-74 -102 -113 -228t-39 -250zM1976 631q146 146 357 188q-82 50 -129 170q-94 -16 -193 -16h-16q-14 -202 -19 -342zM2193 1257q0 -132 37 -239q99 23 181.5 68.5t138 101.5t93.5 121.5 t55.5 129.5t17.5 126q0 93 -40.5 156.5t-109.5 70.5q-5 0 -15.5 1t-15.5 1q-83 0 -150 -47t-108 -124.5t-62.5 -171.5t-21.5 -194z" />
<glyph unicode="&#xc7;" horiz-adv-x="1908" d="M61 858q0 130 55.5 242.5t166.5 185t256 72.5q111 0 176 -53l-25 -39q-60 51 -149 51q-136 0 -239.5 -67t-154.5 -171t-51 -225q0 -103 40 -198.5t117.5 -175t207.5 -127.5t295 -48q12 0 35 1t34 1q3 165 32 341.5t78.5 343.5t122 316.5t157 261t189.5 177t214 65.5 q141 0 214 -100.5t73 -267.5q0 -92 -22.5 -195t-68 -209t-109 -208t-151.5 -193.5t-190.5 -164t-230 -121t-265.5 -62.5v-43q0 -148 22 -271.5t66 -220.5t117.5 -152t169.5 -57q18 66 33.5 168t25 187t29.5 177.5t46.5 156.5t76.5 105.5t119 41.5q96 0 146 -74.5t50 -193.5 q0 -76 -20.5 -157t-63.5 -158t-102 -137.5t-143 -98.5t-180 -39q-23 -72 -54 -113q37 13 80 13q67 0 104 -34.5t37 -82.5q0 -57 -47.5 -100.5t-128.5 -43.5q-129 0 -155 103l45 12q22 -94 116 -94q54 0 89.5 40t35.5 89q0 38 -25.5 64t-74.5 26q-14 0 -25 -0.5t-20.5 -3.5 t-14.5 -4.5t-13.5 -8t-10.5 -8t-11.5 -11.5t-12.5 -13l-23 24q34 34 51.5 64t34.5 84q-108 4 -189 65t-129 166t-71 237.5t-23 291.5q-11 0 -34 -1t-35 -1q-140 0 -257 32.5t-197 88t-135 129.5t-80.5 155.5t-25.5 167.5zM868 311q135 15 259 63t222 119.5t182 162.5 t144.5 191t103 204.5t63 204.5t20.5 190q0 157 -62.5 251.5t-181.5 94.5q-87 0 -172 -47.5t-156.5 -132t-135.5 -198t-114 -247.5t-87.5 -277.5t-59 -291.5t-25.5 -287zM1268 -455q89 3 166 41.5t130.5 98t92.5 134.5t57.5 152t18.5 150q0 100 -36 166t-104 73h-20 q-69 0 -115.5 -54t-72 -149t-41 -193.5t-35 -221t-41.5 -197.5z" />
<glyph unicode="&#xc8;" horiz-adv-x="1486" d="M8 1370q0 -58 22 -113.5t70.5 -107.5t118.5 -90.5t175 -62t231 -23.5q98 0 192 16q47 -120 129 -170q-113 -23 -209 -77t-163 -127t-114 -163t-69 -184.5t-22 -191.5q0 -148 51.5 -271t159.5 -201.5t256 -78.5q106 0 196.5 37.5t152.5 99.5t106.5 142.5t65.5 166 t21 170.5q0 99 -27.5 178.5t-85.5 129t-139 49.5q-87 0 -152 -54t-95.5 -133.5t-30.5 -169.5q0 -116 49 -198l33 18q-47 83 -47 191q0 130 66 227.5t177 97.5q101 0 156 -92t55 -231q0 -83 -19 -167t-60 -164t-97.5 -141.5t-139 -99t-177.5 -37.5q-107 0 -192 42t-138 114.5 t-80.5 164.5t-27.5 197q0 96 22.5 192.5t70 187.5t114 165t160 126.5t202.5 70.5q46 -17 86 -17q9 0 24 5l5 38q-15 5 -25 5q-22 0 -74 -9q-89 38 -139 168q104 23 191 68.5t146 102.5t100 123.5t60 132.5t19 130q0 118 -60 190.5t-167 72.5q-89 0 -160.5 -49t-115.5 -130.5 t-67.5 -179.5t-23.5 -203q0 -133 37 -243q-97 -17 -186 -17q-118 0 -216.5 23t-164.5 61.5t-112 89t-66.5 104t-20.5 109.5q0 110 76.5 187.5t204.5 77.5q88 0 160.5 -53t113.5 -134l39 27q-47 79 -129.5 129.5t-183.5 50.5q-143 0 -230.5 -87t-87.5 -208zM807 1257 q0 100 21.5 194t62.5 171.5t108 124.5t150 47q5 0 15.5 -1t15.5 -1q69 -7 109 -70.5t40 -156.5q0 -62 -17 -126t-55.5 -129.5t-93.5 -121.5t-137.5 -101.5t-181.5 -68.5q-37 107 -37 239zM948 2089l29 16q71 -125 166 -231l-10 -14q-10 7 -26.5 22.5t-65.5 74.5t-93 132z " />
<glyph unicode="&#xc9;" horiz-adv-x="1208" d="M-270 1370q0 121 87.5 208t229.5 87q101 0 183.5 -50.5t129.5 -129.5l-38 -27q-41 81 -114 134t-161 53q-128 0 -204 -77.5t-76 -187.5q0 -56 20.5 -109.5t66.5 -104.5t111.5 -89t164 -61t216.5 -23q89 0 186 17q-36 107 -36 243q0 105 23 203t67 179.5t115.5 130.5 t160.5 49q107 0 167.5 -72.5t60.5 -190.5q0 -80 -31.5 -163.5t-92 -162t-162.5 -140.5t-231 -91q50 -130 140 -168q52 9 73 9q10 0 25 -5l-4 -38q-15 -5 -25 -5q-40 0 -86 17q-109 -18 -202.5 -70.5t-160 -126.5t-114 -165t-70 -187.5t-22.5 -192.5q0 -105 27.5 -197 t80.5 -164.5t138 -114.5t192 -42q95 0 177.5 37.5t139.5 99t98 141.5t60 164t19 167q0 139 -55 231t-156 92q-111 0 -177.5 -97.5t-66.5 -227.5q0 -108 47 -191l-33 -18q-49 82 -49 198q0 90 31 170t96 133.5t152 53.5q81 0 139 -49.5t85.5 -129t27.5 -178.5 q0 -85 -21 -170.5t-65.5 -166t-107 -142.5t-153 -99.5t-196.5 -37.5q-148 0 -256 78.5t-159.5 201.5t-51.5 271q0 122 36.5 239.5t106 221t182 179t253.5 103.5q-82 50 -129 170q-94 -16 -193 -16q-126 0 -231 23.5t-175 62t-118.5 90.5t-70 107.5t-21.5 113.5zM528 1257 q0 -132 37 -239q99 23 181.5 68.5t138 101.5t93.5 121.5t55.5 129.5t17.5 126q0 93 -40.5 156.5t-109.5 70.5q-5 0 -15.5 1t-15.5 1q-83 0 -150 -47t-108 -124.5t-62.5 -171.5t-21.5 -194zM862 1913q92 103 166 233l27 -16q-44 -73 -90 -130t-69 -78l-24 -21z" />
<glyph unicode="&#xca;" horiz-adv-x="1208" d="M-270 1370q0 -58 21.5 -113.5t70 -107.5t118.5 -90.5t175 -62t231 -23.5q99 0 193 16q47 -120 129 -170q-141 -28 -253.5 -103.5t-182 -179t-106 -221t-36.5 -239.5q0 -148 51.5 -271t159.5 -201.5t256 -78.5q106 0 196.5 37.5t153 99.5t107 142.5t65.5 166t21 170.5 q0 99 -27.5 178.5t-85.5 129t-139 49.5q-87 0 -152 -53.5t-96 -133.5t-31 -170q0 -116 49 -198l33 18q-47 83 -47 191q0 130 66.5 227.5t177.5 97.5q101 0 156 -92t55 -231q0 -83 -19 -167t-60 -164t-98 -141.5t-139.5 -99t-177.5 -37.5q-107 0 -192 42t-138 114.5 t-80.5 164.5t-27.5 197q0 96 22.5 192.5t70 187.5t114 165t160 126.5t202.5 70.5q46 -17 86 -17q10 0 25 5l4 38q-15 5 -25 5q-21 0 -73 -9q-90 38 -140 168q129 29 231 91t162.5 140.5t92 162t31.5 163.5q0 118 -60.5 190.5t-167.5 72.5q-89 0 -160.5 -49t-115.5 -130.5 t-67 -179.5t-23 -203q0 -136 36 -243q-97 -17 -186 -17q-118 0 -216.5 23t-164 61t-111.5 89t-66.5 104.5t-20.5 109.5q0 110 76 187.5t204 77.5q88 0 161 -53t114 -134l38 27q-47 79 -129.5 129.5t-183.5 50.5q-142 0 -229.5 -87t-87.5 -208zM528 1257q0 100 21.5 194 t62.5 171.5t108 124.5t150 47q5 0 15.5 -1t15.5 -1q69 -7 109.5 -70.5t40.5 -156.5q0 -62 -17.5 -126t-55.5 -129.5t-93.5 -121.5t-138 -101.5t-181.5 -68.5q-37 107 -37 239zM727 1956q112 92 199 211h28q104 -186 117 -219l-29 -15q-47 104 -112 201q-36 -49 -83.5 -97 t-76.5 -71l-29 -24z" />
<glyph unicode="&#xcb;" horiz-adv-x="1486" d="M8 1370q0 -58 22 -113.5t70.5 -107.5t118.5 -90.5t175 -62t231 -23.5q98 0 192 16q47 -120 129 -170q-113 -23 -209 -77t-163 -127t-114 -163t-69 -184.5t-22 -191.5q0 -148 51.5 -271t159.5 -201.5t256 -78.5q106 0 196.5 37.5t152.5 99.5t106.5 142.5t65.5 166 t21 170.5q0 99 -27.5 178.5t-85.5 129t-139 49.5q-87 0 -152 -54t-95.5 -133.5t-30.5 -169.5q0 -116 49 -198l33 18q-47 83 -47 191q0 130 66 227.5t177 97.5q101 0 156 -92t55 -231q0 -83 -19 -167t-60 -164t-97.5 -141.5t-139 -99t-177.5 -37.5q-107 0 -192 42t-138 114.5 t-80.5 164.5t-27.5 197q0 96 22.5 192.5t70 187.5t114 165t160 126.5t202.5 70.5q46 -17 86 -17q9 0 24 5l5 38q-15 5 -25 5q-22 0 -74 -9q-89 38 -139 168q104 23 191 68.5t146 102.5t100 123.5t60 132.5t19 130q0 118 -60 190.5t-167 72.5q-89 0 -160.5 -49t-115.5 -130.5 t-67.5 -179.5t-23.5 -203q0 -133 37 -243q-97 -17 -186 -17q-118 0 -216.5 23t-164.5 61.5t-112 89t-66.5 104t-20.5 109.5q0 110 76.5 187.5t204.5 77.5q88 0 160.5 -53t113.5 -134l39 27q-47 79 -129.5 129.5t-183.5 50.5q-143 0 -230.5 -87t-87.5 -208zM807 1257 q0 100 21.5 194t62.5 171.5t108 124.5t150 47q5 0 15.5 -1t15.5 -1q69 -7 109 -70.5t40 -156.5q0 -62 -17 -126t-55.5 -129.5t-93.5 -121.5t-137.5 -101.5t-181.5 -68.5q-37 107 -37 239zM1059 1946q0 13 7.5 23.5t18.5 10.5q25 0 25 -30q0 -13 -7 -24t-20 -11q-24 0 -24 31 zM1243 1946q0 13 8 23.5t19 10.5q24 0 24 -30q0 -14 -6.5 -24.5t-19.5 -10.5q-25 0 -25 31z" />
<glyph unicode="&#xcc;" horiz-adv-x="1058" d="M41 635q0 -184 105 -291.5t274 -107.5q133 0 212 88t79 204q0 78 -40.5 141.5t-115.5 90.5l-16 -37q66 -22 100.5 -78.5t34.5 -126.5q0 -103 -68.5 -182.5t-185.5 -79.5q-155 0 -246.5 103.5t-91.5 275.5q0 89 31.5 174t84 154t125 137.5t150 124t163.5 114.5t161 107.5 t147.5 104.5t118.5 104q-79 -328 -149.5 -700.5t-109.5 -619.5t-122 -800h41q96 705 179.5 1190t201.5 979q26 49 31 94l-33 8q-25 -79 -31 -116q-45 -51 -129.5 -113.5t-176.5 -122t-196 -129t-196 -146t-167.5 -159.5t-120 -182.5t-44.5 -202.5zM930 2089l28 16 q71 -125 166 -231l-10 -14q-9 7 -26 22.5t-65.5 74.5t-92.5 132z" />
<glyph unicode="&#xcd;" horiz-adv-x="1058" d="M41 635q0 103 44.5 202.5t120 182.5t167.5 159.5t196 146t196 129t176.5 122t129.5 113.5q6 37 31 116l33 -8q-5 -45 -31 -94q-118 -494 -201.5 -979t-179.5 -1190h-41q83 553 122 800t109.5 619.5t149.5 700.5q-46 -48 -118.5 -104t-147.5 -104.5t-161 -107.5 t-163.5 -114.5t-150 -124t-125 -137.5t-84 -154t-31.5 -174q0 -172 91.5 -275.5t246.5 -103.5q117 0 185.5 79.5t68.5 182.5q0 70 -34.5 126.5t-100.5 78.5l16 37q75 -27 115.5 -90.5t40.5 -141.5q0 -116 -79 -204t-212 -88q-169 0 -274 107.5t-105 291.5zM1128 1913 q92 103 166 233l27 -16q-44 -73 -89.5 -130t-69.5 -78l-23 -21z" />
<glyph unicode="&#xce;" horiz-adv-x="1058" d="M41 635q0 -184 105 -291.5t274 -107.5q133 0 212 88t79 204q0 78 -40.5 141.5t-115.5 90.5l-16 -37q66 -22 100.5 -78.5t34.5 -126.5q0 -103 -68.5 -182.5t-185.5 -79.5q-155 0 -246.5 103.5t-91.5 275.5q0 89 31.5 174t84 154t125 137.5t150 124t163.5 114.5t161 107.5 t147.5 104.5t118.5 104q-79 -328 -149.5 -700.5t-109.5 -619.5t-122 -800h41q96 705 179.5 1190t201.5 979q26 49 31 94l-33 8q-25 -79 -31 -116q-45 -51 -129.5 -113.5t-176.5 -122t-196 -129t-196 -146t-167.5 -159.5t-120 -182.5t-44.5 -202.5zM952 1874q112 92 199 211 h29q101 -180 116 -219l-28 -15q-45 99 -113 201q-36 -49 -83 -97t-76 -71l-29 -24z" />
<glyph unicode="&#xcf;" horiz-adv-x="1058" d="M41 635q0 -184 105 -291.5t274 -107.5q133 0 212 88t79 204q0 78 -40.5 141.5t-115.5 90.5l-16 -37q66 -22 100.5 -78.5t34.5 -126.5q0 -103 -68.5 -182.5t-185.5 -79.5q-155 0 -246.5 103.5t-91.5 275.5q0 89 31.5 174t84 154t125 137.5t150 124t163.5 114.5t161 107.5 t147.5 104.5t118.5 104q-79 -328 -149.5 -700.5t-109.5 -619.5t-122 -800h41q96 705 179.5 1190t201.5 979q26 49 31 94l-33 8q-25 -79 -31 -116q-45 -51 -129.5 -113.5t-176.5 -122t-196 -129t-196 -146t-167.5 -159.5t-120 -182.5t-44.5 -202.5zM1008 1905q0 13 7.5 23.5 t18.5 10.5q25 0 25 -30q0 -13 -7 -24t-20 -11q-24 0 -24 31zM1212 1905q0 13 8 23.5t19 10.5q25 0 25 -30q0 -13 -7 -24t-20 -11q-25 0 -25 31z" />
<glyph unicode="&#xd0;" horiz-adv-x="1839" d="M-12 -334q0 60 58.5 103t170.5 43q19 0 39.5 -3.5t36.5 -7t39 -13.5l34.5 -15t38.5 -20.5t35.5 -20.5t39.5 -25t38 -24q183 177 283 600q-18 -2 -58 -2q-117 0 -216 36.5t-169 99.5t-119 148.5t-72.5 184t-23.5 204.5q0 104 23 206.5t67 198.5t113.5 178.5t156.5 143.5 t202 96t245 35q152 0 277.5 -57.5t212 -156t146 -233t87 -286.5t27.5 -319q0 -150 -23.5 -299.5t-67.5 -287t-111 -256t-149.5 -205.5t-188 -137t-222.5 -50q-125 0 -223 32.5t-193 88.5q-143 -121 -350 -121q-84 0 -134 42t-50 99zM25 -338q0 -47 41 -82t112 -35 q185 0 318 117q-10 6 -49 31t-51 32.5t-43 24.5t-48.5 23t-43 12t-48.5 6q-89 0 -138.5 -38.5t-49.5 -90.5zM184 956q0 -130 35.5 -246t103 -208.5t176.5 -146.5t246 -54q40 0 60 2q40 181 67 426q58 518 154 805l35 -10q-98 -280 -152 -795q-23 -231 -65 -422 q103 16 186 65t133.5 116.5t77.5 144t27 153.5q0 152 -90 236l18 27q104 -85 104 -254q0 -83 -29 -164.5t-84.5 -153.5t-146 -123t-202.5 -67q-100 -439 -295 -621q93 -57 186 -89t209 -32q108 0 206.5 49t176 135t140.5 202.5t104 252t63.5 283t22.5 295.5q0 164 -26 313.5 t-83 281.5t-139.5 228.5t-203.5 152.5t-267 56q-143 0 -266.5 -48.5t-210.5 -131t-149 -190.5t-92 -227t-30 -241zM547 -2l4 25h367l-5 -25h-366z" />
<glyph unicode="&#xd1;" horiz-adv-x="2039" d="M35 92q0 122 35.5 238t101 211t170.5 153t233 58q153 0 249 -114.5t96 -266.5q0 -143 -86 -248l-31 24q84 112 84 236q0 140 -92.5 244t-221.5 104q-94 0 -175.5 -37.5t-140 -101.5t-100.5 -147.5t-62.5 -176.5t-20.5 -188q0 -83 16 -159t50 -143t83 -116t120.5 -77.5 t156.5 -28.5q132 0 256.5 67t224 180t182 261.5t137.5 313t84 333.5q-106 272 -164.5 472t-58.5 341q0 61 23.5 96t60.5 35q80 0 135.5 -178.5t55.5 -462.5q0 -100 -21 -258q9 -23 47.5 -122.5t52 -134t46.5 -120.5t49.5 -133.5t41 -117t42 -126.5t32.5 -111 q21 427 95.5 789.5t187.5 616.5t263 397t319 143q100 0 174 -43t94 -98l-37 -19q-17 58 -85.5 92.5t-164.5 34.5q-123 0 -239.5 -91t-216.5 -266t-178 -415t-127.5 -554t-61.5 -666l14 -68q6 -31 12.5 -97.5t6.5 -101.5v-10h-60q-4 50 -4 84q0 57 4 131v21q-15 70 -39 150.5 t-62.5 185.5t-64.5 172.5t-80.5 204t-74.5 188.5q-32 -163 -86 -320.5t-137 -306.5t-182.5 -261.5t-230.5 -180.5t-273 -68q-112 0 -201 46.5t-144 125t-83.5 177t-28.5 208.5zM1190 1528q0 -112 53.5 -289.5t153.5 -435.5q14 122 14 203q0 264 -50 446t-116 182 q-55 0 -55 -106zM1647 1729q37 47 102 47q33 0 97 -14.5t91 -14.5q65 0 105 35l22 -31q-40 -37 -96 -37q-37 0 -109 20.5t-104 20.5q-57 0 -90 -43z" />
<glyph unicode="&#xd2;" horiz-adv-x="2285" d="M61 858q0 -86 25.5 -167.5t80.5 -155.5t135 -129.5t197 -88t257 -32.5q50 0 75 2q1 -161 28 -296t81.5 -241t144.5 -165.5t209 -59.5q128 0 246.5 69t211 187t169 273t126.5 327.5t77.5 350.5t27.5 343q0 250 -62 428t-185 236l-13 -25q108 -59 162.5 -226.5t54.5 -402.5 q0 -162 -26 -338.5t-74 -348t-121.5 -326t-161.5 -272t-200.5 -186.5t-233.5 -69q-110 0 -193 58t-132 162t-73 235.5t-24 290.5q159 17 305 80t257 155.5t202 207.5t149.5 237.5t90 243.5t31.5 229q0 167 -73 267.5t-214 100.5q-109 0 -214 -65.5t-190 -177t-157 -261 t-121 -316t-76.5 -343.5t-28.5 -342q-25 -2 -75 -2q-165 0 -295 48t-207.5 127.5t-117.5 175t-40 198.5q0 121 51 225t154.5 171t239.5 67q94 0 159 -45l25 35q-46 28 -87 39.5t-99 11.5q-145 0 -256 -72.5t-166.5 -185t-55.5 -242.5zM870 311q3 195 40.5 403.5t106.5 399.5 t158.5 343.5t205 243.5t237.5 91q119 0 181.5 -94.5t62.5 -251.5q0 -105 -29 -223.5t-84 -240t-141 -234t-192.5 -204t-248 -154t-297.5 -79.5zM1530 2089l29 16q73 -128 165 -231l-10 -14q-9 7 -26 22.5t-65.5 74.5t-92.5 132z" />
<glyph unicode="&#xd3;" horiz-adv-x="2285" d="M61 858q0 130 55.5 242.5t166.5 185t256 72.5q58 0 99 -11.5t87 -39.5l-25 -35q-65 45 -159 45q-136 0 -239.5 -67t-154.5 -171t-51 -225q0 -103 40 -198.5t117.5 -175t207.5 -127.5t295 -48q50 0 75 2q1 165 28.5 342t76.5 343.5t121 316t157 261t190 177t214 65.5 q141 0 214 -100.5t73 -267.5q0 -108 -31.5 -229t-90 -243.5t-149.5 -237.5t-202 -207.5t-257 -155.5t-305 -80q0 -159 24 -290.5t73 -235.5t132 -162t193 -58q121 0 233.5 69t200.5 186.5t161.5 272t121.5 326t74 348t26 338.5q0 235 -54.5 402.5t-162.5 226.5l13 25 q123 -58 185 -236t62 -428q0 -165 -27.5 -343t-77.5 -350.5t-126.5 -327.5t-169 -273t-211 -187t-246.5 -69q-119 0 -209 59.5t-144.5 165.5t-81.5 241t-28 296q-25 -2 -75 -2q-140 0 -257 32.5t-197 88t-135 129.5t-80.5 155.5t-25.5 167.5zM870 311q156 17 297.5 79.5 t248 154t192.5 204t141 234t84 240t29 223.5q0 157 -62.5 251.5t-181.5 94.5q-122 0 -237.5 -91t-205 -243.5t-158.5 -343.5t-106.5 -399.5t-40.5 -403.5zM1640 1913q92 103 166 233l27 -16q-44 -73 -89.5 -130t-69.5 -78l-23 -21z" />
<glyph unicode="&#xd4;" horiz-adv-x="2285" d="M61 858q0 -86 25.5 -167.5t80.5 -155.5t135 -129.5t197 -88t257 -32.5q50 0 75 2q1 -161 28 -296t81.5 -241t144.5 -165.5t209 -59.5q128 0 246.5 69t211 187t169 273t126.5 327.5t77.5 350.5t27.5 343q0 250 -62 428t-185 236l-13 -25q108 -59 162.5 -226.5t54.5 -402.5 q0 -162 -26 -338.5t-74 -348t-121.5 -326t-161.5 -272t-200.5 -186.5t-233.5 -69q-110 0 -193 58t-132 162t-73 235.5t-24 290.5q159 17 305 80t257 155.5t202 207.5t149.5 237.5t90 243.5t31.5 229q0 167 -73 267.5t-214 100.5q-109 0 -214 -65.5t-190 -177t-157 -261 t-121 -316t-76.5 -343.5t-28.5 -342q-25 -2 -75 -2q-165 0 -295 48t-207.5 127.5t-117.5 175t-40 198.5q0 121 51 225t154.5 171t239.5 67q94 0 159 -45l25 35q-46 28 -87 39.5t-99 11.5q-145 0 -256 -72.5t-166.5 -185t-55.5 -242.5zM870 311q3 195 40.5 403.5t106.5 399.5 t158.5 343.5t205 243.5t237.5 91q119 0 181.5 -94.5t62.5 -251.5q0 -105 -29 -223.5t-84 -240t-141 -234t-192.5 -204t-248 -154t-297.5 -79.5zM1505 1935q112 92 199 211h29q101 -180 116 -219l-28 -14q-45 99 -113 201q-36 -49 -83 -97.5t-76 -72.5l-29 -23z" />
<glyph unicode="&#xd5;" horiz-adv-x="2285" d="M61 858q0 130 55.5 242.5t166.5 185t256 72.5q58 0 99 -11.5t87 -39.5l-25 -35q-65 45 -159 45q-136 0 -239.5 -67t-154.5 -171t-51 -225q0 -103 40 -198.5t117.5 -175t207.5 -127.5t295 -48q50 0 75 2q1 165 28.5 342t76.5 343.5t121 316t157 261t190 177t214 65.5 q141 0 214 -100.5t73 -267.5q0 -108 -31.5 -229t-90 -243.5t-149.5 -237.5t-202 -207.5t-257 -155.5t-305 -80q0 -159 24 -290.5t73 -235.5t132 -162t193 -58q121 0 233.5 69t200.5 186.5t161.5 272t121.5 326t74 348t26 338.5q0 235 -54.5 402.5t-162.5 226.5l13 25 q123 -58 185 -236t62 -428q0 -165 -27.5 -343t-77.5 -350.5t-126.5 -327.5t-169 -273t-211 -187t-246.5 -69q-119 0 -209 59.5t-144.5 165.5t-81.5 241t-28 296q-25 -2 -75 -2q-140 0 -257 32.5t-197 88t-135 129.5t-80.5 155.5t-25.5 167.5zM870 311q156 17 297.5 79.5 t248 154t192.5 204t141 234t84 240t29 223.5q0 157 -62.5 251.5t-181.5 94.5q-122 0 -237.5 -91t-205 -243.5t-158.5 -343.5t-106.5 -399.5t-40.5 -403.5zM1462 1933q37 47 103 47q33 0 97 -14t91 -14q65 0 105 35l22 -31q-40 -37 -96 -37q-37 0 -109 20.5t-104 20.5 q-57 0 -90 -43z" />
<glyph unicode="&#xd6;" horiz-adv-x="2285" d="M61 858q0 -86 25.5 -167.5t80.5 -155.5t135 -129.5t197 -88t257 -32.5q50 0 75 2q1 -161 28 -296t81.5 -241t144.5 -165.5t209 -59.5q128 0 246.5 69t211 187t169 273t126.5 327.5t77.5 350.5t27.5 343q0 250 -62 428t-185 236l-13 -25q108 -59 162.5 -226.5t54.5 -402.5 q0 -162 -26 -338.5t-74 -348t-121.5 -326t-161.5 -272t-200.5 -186.5t-233.5 -69q-110 0 -193 58t-132 162t-73 235.5t-24 290.5q159 17 305 80t257 155.5t202 207.5t149.5 237.5t90 243.5t31.5 229q0 167 -73 267.5t-214 100.5q-109 0 -214 -65.5t-190 -177t-157 -261 t-121 -316t-76.5 -343.5t-28.5 -342q-25 -2 -75 -2q-165 0 -295 48t-207.5 127.5t-117.5 175t-40 198.5q0 121 51 225t154.5 171t239.5 67q94 0 159 -45l25 35q-46 28 -87 39.5t-99 11.5q-145 0 -256 -72.5t-166.5 -185t-55.5 -242.5zM870 311q3 195 40.5 403.5t106.5 399.5 t158.5 343.5t205 243.5t237.5 91q119 0 181.5 -94.5t62.5 -251.5q0 -105 -29 -223.5t-84 -240t-141 -234t-192.5 -204t-248 -154t-297.5 -79.5zM1602 1946q0 13 7.5 23.5t18.5 10.5q25 0 25 -30q0 -13 -7 -24t-20 -11q-24 0 -24 31zM1806 1946q0 13 8 23.5t19 10.5 q25 0 25 -30q0 -13 -7 -24t-20 -11q-25 0 -25 31z" />
<glyph unicode="&#xd7;" horiz-adv-x="434" d="M37 340l174 172l-119 176l19 12l116 -172l172 168l15 -16l-172 -170l118 -172l-20 -16l-117 172l-170 -170z" />
<glyph unicode="&#xd8;" horiz-adv-x="2285" d="M61 858q0 130 55.5 242.5t166.5 185t256 72.5q58 0 99 -11.5t87 -39.5l-25 -35q-65 45 -159 45q-136 0 -239.5 -67t-154.5 -171t-51 -225q0 -103 40 -198.5t117.5 -175t207.5 -127.5t295 -48q50 0 75 2q1 165 28.5 342t76.5 343.5t121 316t157 261t190 177t214 65.5 q141 0 214 -100.5t73 -267.5q0 -108 -31.5 -229t-90 -243.5t-149.5 -237.5t-202 -207.5t-257 -155.5t-305 -80q0 -159 24 -290.5t73 -235.5t132 -162t193 -58q121 0 233.5 69t200.5 186.5t161.5 272t121.5 326t74 348t26 338.5q0 235 -54.5 402.5t-162.5 226.5l13 25 q123 -58 185 -236t62 -428q0 -165 -27.5 -343t-77.5 -350.5t-126.5 -327.5t-169 -273t-211 -187t-246.5 -69q-119 0 -209 59.5t-144.5 165.5t-81.5 241t-28 296q-25 -2 -75 -2q-140 0 -257 32.5t-197 88t-135 129.5t-80.5 155.5t-25.5 167.5zM870 311q156 17 297.5 79.5 t248 154t192.5 204t141 234t84 240t29 223.5q0 157 -62.5 251.5t-181.5 94.5q-122 0 -237.5 -91t-205 -243.5t-158.5 -343.5t-106.5 -399.5t-40.5 -403.5zM1243 -561q43 246 221 1220t219 1211l25 -4q-69 -408 -216 -1224t-224 -1207z" />
<glyph unicode="&#xd9;" horiz-adv-x="1595" d="M-379 1090q0 -90 22 -172.5t69 -155.5t114.5 -126.5t163.5 -84.5t211 -31q93 0 172.5 27t136 73.5t99.5 106.5t69 130t38.5 139t12.5 137q0 41 -2 61l-37 -8q4 -46 4 -72q0 -79 -16 -156.5t-53.5 -154t-93 -134t-141.5 -93t-191 -35.5q-133 0 -239 46t-171.5 124.5 t-100 177t-34.5 209.5q0 102 28 200.5t86 187.5t139 156.5t197 107.5t250 40q122 0 228.5 -50.5t178.5 -133.5t113 -190.5t41 -221.5q0 -113 -37.5 -309t-83 -375t-83 -376t-37.5 -312q0 -297 205 -297q64 0 132 66.5t127.5 176t109 234t87.5 256.5q-24 -201 -24 -321 q0 -222 59.5 -318t175.5 -96q232 0 295 409l-37 7q-25 -202 -95.5 -299t-166.5 -97q-91 0 -140.5 92t-49.5 283q0 99 16 238t31.5 235t49 282t44.5 249q88 511 147 665l78 205l-55 23q-78 -233 -159 -612.5t-140 -756.5q-20 -89 -54 -200t-84 -236t-104 -227.5t-119 -170 t-124 -67.5q-89 0 -126.5 73t-37.5 208q0 115 37.5 306t83 363.5t83 371t37.5 327.5q0 163 -76 304t-214 226.5t-306 85.5q-140 0 -261.5 -41.5t-208 -112t-148 -163.5t-91.5 -195.5t-30 -207.5zM1202 2089l29 16q71 -125 166 -231l-11 -14q-9 7 -26 22.5t-65.5 74.5 t-92.5 132z" />
<glyph unicode="&#xda;" horiz-adv-x="1595" d="M-379 1090q0 105 30 207.5t91.5 195.5t148 163.5t208 112t261.5 41.5q168 0 306 -85.5t214 -226.5t76 -304q0 -129 -37.5 -327.5t-83 -371t-83 -363.5t-37.5 -306q0 -135 37.5 -208t126.5 -73q59 0 124 67.5t119 170t104 227.5t84 236t54 200q59 377 140 756.5t159 612.5 l55 -23l-78 -205q-59 -154 -147 -665q-11 -63 -44.5 -249t-49 -282t-31.5 -235t-16 -238q0 -191 49.5 -283t140.5 -92q96 0 166.5 97t95.5 299l37 -7q-63 -409 -295 -409q-116 0 -175.5 96t-59.5 318q0 120 24 321q-38 -132 -87.5 -256.5t-109 -234t-127.5 -176t-132 -66.5 q-205 0 -205 297q0 115 37.5 312t83 376t83 375t37.5 309q0 114 -41 221.5t-113 190.5t-178.5 133.5t-228.5 50.5q-134 0 -250 -40t-197 -107.5t-139 -156.5t-86 -187.5t-28 -200.5q0 -111 34.5 -209.5t100 -177t171.5 -124.5t239 -46q105 0 191 35.5t141.5 93t93 134 t53.5 154t16 156.5q0 26 -4 72l37 8q2 -20 2 -61q0 -68 -12.5 -137t-38.5 -139t-69 -130t-99.5 -106.5t-136 -73.5t-172.5 -27q-115 0 -211 31t-163.5 84.5t-114.5 126.5t-69 155.5t-22 172.5zM1333 1892q91 101 166 234l27 -17q-44 -73 -90 -130t-70 -78l-23 -21z" />
<glyph unicode="&#xdb;" horiz-adv-x="1595" d="M-379 1090q0 -90 22 -172.5t69 -155.5t114.5 -126.5t163.5 -84.5t211 -31q93 0 172.5 27t136 73.5t99.5 106.5t69 130t38.5 139t12.5 137q0 41 -2 61l-37 -8q4 -46 4 -72q0 -79 -16 -156.5t-53.5 -154t-93 -134t-141.5 -93t-191 -35.5q-133 0 -239 46t-171.5 124.5 t-100 177t-34.5 209.5q0 102 28 200.5t86 187.5t139 156.5t197 107.5t250 40q122 0 228.5 -50.5t178.5 -133.5t113 -190.5t41 -221.5q0 -113 -37.5 -309t-83 -375t-83 -376t-37.5 -312q0 -297 205 -297q64 0 132 66.5t127.5 176t109 234t87.5 256.5q-24 -201 -24 -321 q0 -222 59.5 -318t175.5 -96q232 0 295 409l-37 7q-25 -202 -95.5 -299t-166.5 -97q-91 0 -140.5 92t-49.5 283q0 99 16 238t31.5 235t49 282t44.5 249q88 511 147 665l78 205l-55 23q-78 -233 -159 -612.5t-140 -756.5q-20 -89 -54 -200t-84 -236t-104 -227.5t-119 -170 t-124 -67.5q-89 0 -126.5 73t-37.5 208q0 115 37.5 306t83 363.5t83 371t37.5 327.5q0 163 -76 304t-214 226.5t-306 85.5q-140 0 -261.5 -41.5t-208 -112t-148 -163.5t-91.5 -195.5t-30 -207.5zM1178 1874q109 90 198 211h29q104 -186 117 -219l-29 -15q-45 99 -113 201 q-36 -49 -83 -97t-76 -71l-29 -24z" />
<glyph unicode="&#xdc;" horiz-adv-x="1595" d="M-379 1090q0 -90 22 -172.5t69 -155.5t114.5 -126.5t163.5 -84.5t211 -31q93 0 172.5 27t136 73.5t99.5 106.5t69 130t38.5 139t12.5 137q0 41 -2 61l-37 -8q4 -46 4 -72q0 -79 -16 -156.5t-53.5 -154t-93 -134t-141.5 -93t-191 -35.5q-133 0 -239 46t-171.5 124.5 t-100 177t-34.5 209.5q0 102 28 200.5t86 187.5t139 156.5t197 107.5t250 40q122 0 228.5 -50.5t178.5 -133.5t113 -190.5t41 -221.5q0 -113 -37.5 -309t-83 -375t-83 -376t-37.5 -312q0 -297 205 -297q64 0 132 66.5t127.5 176t109 234t87.5 256.5q-24 -201 -24 -321 q0 -222 59.5 -318t175.5 -96q232 0 295 409l-37 7q-25 -202 -95.5 -299t-166.5 -97q-91 0 -140.5 92t-49.5 283q0 99 16 238t31.5 235t49 282t44.5 249q88 511 147 665l78 205l-55 23q-78 -233 -159 -612.5t-140 -756.5q-20 -89 -54 -200t-84 -236t-104 -227.5t-119 -170 t-124 -67.5q-89 0 -126.5 73t-37.5 208q0 115 37.5 306t83 363.5t83 371t37.5 327.5q0 163 -76 304t-214 226.5t-306 85.5q-140 0 -261.5 -41.5t-208 -112t-148 -163.5t-91.5 -195.5t-30 -207.5zM1253 1946q0 13 8 23.5t19 10.5q25 0 25 -30q0 -13 -7 -24t-20 -11 q-25 0 -25 31zM1458 1946q0 13 8 23.5t19 10.5q24 0 24 -30q0 -14 -6.5 -24.5t-19.5 -10.5q-25 0 -25 31z" />
<glyph unicode="&#xdd;" horiz-adv-x="1644" d="M-379 1090q0 105 30 207.5t91.5 195.5t148 163.5t208 112t261.5 41.5q168 0 306 -85.5t214 -226.5t76 -304q0 -115 -21.5 -237.5t-47 -213t-47 -214t-21.5 -238.5q0 -135 37.5 -208t126.5 -73q57 0 116.5 59.5t108.5 150.5t94.5 206.5t76.5 219t53 196.5q60 334 132 593 t124 377l45 -22q-81 -171 -167 -497.5t-145 -768.5q-5 -35 -16 -125t-19 -149.5t-23.5 -158t-30 -168t-38 -160.5t-48.5 -154t-60 -129.5t-73.5 -106.5t-88.5 -66t-106 -26q-100 0 -163 60t-63 163q0 115 76 195.5t170 83.5l4 -41q-82 0 -147.5 -68t-65.5 -170 q0 -100 51.5 -151t137.5 -51q69 0 128 47t100.5 122.5t77 181t57.5 213t41.5 227t31 214.5t22.5 185.5t19 130.5q-38 -123 -81.5 -230t-96.5 -200.5t-113.5 -148t-120.5 -54.5q-205 0 -205 297q0 115 21.5 239.5t47 216.5t47 215t21.5 236q0 114 -41 221.5t-113 190.5 t-178.5 133.5t-228.5 50.5q-134 0 -250 -40t-197 -107.5t-139 -156.5t-86 -187.5t-28 -200.5q0 -111 34.5 -209.5t100 -177t171.5 -124.5t239 -46q105 0 191 35.5t141.5 93t93 134t53.5 154t16 156.5q0 26 -4 72l37 8q2 -20 2 -61q0 -68 -12.5 -137t-38.5 -139t-69 -130 t-99.5 -106.5t-136 -73.5t-172.5 -27q-115 0 -211 31t-163.5 84.5t-114.5 126.5t-69 155.5t-22 172.5zM1292 1872q92 103 166 233l27 -16q-44 -73 -89.5 -130t-69.5 -78l-23 -21z" />
<glyph unicode="&#xde;" horiz-adv-x="657" d="M10 315v21q45 0 92 6q77 406 148 838q-100 -37 -182 -109l-25 29q97 76 211 110l45 267h41l-43 -256q49 12 100 12q135 0 206 -82.5t71 -212.5q0 -73 -22 -149.5t-67.5 -151.5t-108 -137.5t-150 -109t-187.5 -64.5l-59 -326h-47q15 69 65 319q-58 -4 -88 -4zM143 350 q114 24 209 88t154.5 148t92 176.5t32.5 179.5q0 120 -58.5 195t-169.5 75q-51 0 -110 -18q-46 -271 -150 -844z" />
<glyph unicode="&#xdf;" horiz-adv-x="477" d="M-84 -264q0 316 109.5 911t199.5 836q22 61 51.5 95t55.5 34q36 0 56 -37t20 -107q0 -84 -30 -189.5t-65.5 -187t-65.5 -171t-30 -146.5q0 -46 16 -90t39 -83t46 -82.5t39 -106t16 -136.5q0 -116 -45 -182.5t-107 -66.5q-66 0 -110 63.5t-62 171.5l41 8q9 -108 46 -167.5 t85 -59.5q46 0 78.5 60.5t32.5 172.5q0 66 -14.5 126t-35 104.5t-40.5 86t-34.5 88.5t-14.5 93q0 53 19 121.5t46 137.5t54 140.5t46 153.5t19 154q0 112 -45 112q-40 0 -107 -233t-132.5 -577.5t-108.5 -678.5q94 -55 139 -142.5t45 -184.5q0 -101 -44 -176.5t-104 -75.5 q-48 0 -76 46.5t-28 164.5zM-53 -279q0 -82 17 -129t50 -47q47 0 84 70t37 164q0 86 -37 166.5t-118 138.5q-33 -287 -33 -363z" />
<glyph unicode="&#xe0;" horiz-adv-x="651" d="M-37 217q0 -104 26.5 -165.5t80.5 -61.5q138 0 266 397q-23 -158 -23 -246q0 -151 66 -151q28 0 55 21t51 55.5t55 101.5t58.5 134.5t69.5 178.5v4q0 13 -17 13q-95 -248 -156.5 -365t-111.5 -117q-35 0 -35 101q0 40 6 100.5t13.5 113.5t23.5 145t25 143t30.5 163 t28.5 152h-41l-35 -174q-8 180 -120 180q-81 0 -156.5 -122.5t-117.5 -289.5t-42 -311zM-4 197q0 134 40 304t107 296.5t133 126.5q50 0 76.5 -54t26.5 -147q0 -108 -48 -277t-120.5 -302.5t-132.5 -133.5q-82 0 -82 187zM96 1229l29 16q71 -125 166 -231l-10 -15 q-10 7 -26.5 22.5t-65.5 75t-93 132.5z" />
<glyph unicode="&#xe1;" horiz-adv-x="651" d="M-37 217q0 144 42 311t117.5 289.5t156.5 122.5q112 0 120 -180l35 174h41q-7 -40 -28.5 -152t-30.5 -163t-25 -143t-23.5 -145t-13.5 -113.5t-6 -100.5q0 -101 35 -101q50 0 111.5 117t156.5 365q17 0 17 -13v-4q-42 -111 -69.5 -178.5t-58.5 -134.5t-55 -101.5 t-51 -55.5t-55 -21q-66 0 -66 151q0 88 23 246q-128 -397 -266 -397q-54 0 -80.5 61.5t-26.5 165.5zM-4 197q0 -187 82 -187q60 0 132.5 133.5t120.5 302.5t48 277q0 93 -26.5 147t-76.5 54q-66 0 -133 -126.5t-107 -296.5t-40 -304zM248 1012q92 103 166 233l26 -16 q-44 -73 -89.5 -130.5t-68.5 -78.5l-24 -21z" />
<glyph unicode="&#xe2;" horiz-adv-x="651" d="M-37 217q0 -104 26.5 -165.5t80.5 -61.5q138 0 266 397q-23 -158 -23 -246q0 -151 66 -151q28 0 55 21t51 55.5t55 101.5t58.5 134.5t69.5 178.5v4q0 13 -17 13q-95 -248 -156.5 -365t-111.5 -117q-35 0 -35 101q0 40 6 100.5t13.5 113.5t23.5 145t25 143t30.5 163 t28.5 152h-41l-35 -174q-8 180 -120 180q-81 0 -156.5 -122.5t-117.5 -289.5t-42 -311zM-4 197q0 134 40 304t107 296.5t133 126.5q50 0 76.5 -54t26.5 -147q0 -108 -48 -277t-120.5 -302.5t-132.5 -133.5q-82 0 -82 187zM133 1014q112 92 199 211h28q104 -186 117 -219 l-28 -15q-45 99 -113 201q-36 -49 -83.5 -97.5t-76.5 -72.5l-29 -23z" />
<glyph unicode="&#xe3;" horiz-adv-x="651" d="M-37 217q0 144 42 311t117.5 289.5t156.5 122.5q112 0 120 -180l35 174h41q-7 -40 -28.5 -152t-30.5 -163t-25 -143t-23.5 -145t-13.5 -113.5t-6 -100.5q0 -101 35 -101q50 0 111.5 117t156.5 365q17 0 17 -13v-4q-42 -111 -69.5 -178.5t-58.5 -134.5t-55 -101.5 t-51 -55.5t-55 -21q-66 0 -66 151q0 88 23 246q-128 -397 -266 -397q-54 0 -80.5 61.5t-26.5 165.5zM-4 197q0 -187 82 -187q60 0 132.5 133.5t120.5 302.5t48 277q0 93 -26.5 147t-76.5 54q-66 0 -133 -126.5t-107 -296.5t-40 -304zM111 1053q37 47 102 47q33 0 97 -14.5 t91 -14.5q65 0 105 35l22 -31q-40 -37 -96 -37q-37 0 -109 20.5t-104 20.5q-57 0 -90 -43z" />
<glyph unicode="&#xe4;" horiz-adv-x="651" d="M-37 217q0 -104 26.5 -165.5t80.5 -61.5q138 0 266 397q-23 -158 -23 -246q0 -151 66 -151q28 0 55 21t51 55.5t55 101.5t58.5 134.5t69.5 178.5v4q0 13 -17 13q-95 -248 -156.5 -365t-111.5 -117q-35 0 -35 101q0 40 6 100.5t13.5 113.5t23.5 145t25 143t30.5 163 t28.5 152h-41l-35 -174q-8 180 -120 180q-81 0 -156.5 -122.5t-117.5 -289.5t-42 -311zM-4 197q0 134 40 304t107 296.5t133 126.5q50 0 76.5 -54t26.5 -147q0 -108 -48 -277t-120.5 -302.5t-132.5 -133.5q-82 0 -82 187zM168 1044q0 13 8 24t19 11q24 0 24 -30 q0 -14 -6.5 -24.5t-19.5 -10.5q-25 0 -25 30zM373 1044q0 13 7.5 24t18.5 11q25 0 25 -30q0 -13 -7 -24t-20 -11q-24 0 -24 30z" />
<glyph unicode="&#xe5;" horiz-adv-x="651" d="M-37 217q0 144 42 311t117.5 289.5t156.5 122.5q112 0 120 -180l35 174h41q-7 -40 -28.5 -152t-30.5 -163t-25 -143t-23.5 -145t-13.5 -113.5t-6 -100.5q0 -101 35 -101q50 0 111.5 117t156.5 365q17 0 17 -13v-4q-42 -111 -69.5 -178.5t-58.5 -134.5t-55 -101.5 t-51 -55.5t-55 -21q-66 0 -66 151q0 88 23 246q-128 -397 -266 -397q-54 0 -80.5 61.5t-26.5 165.5zM-4 197q0 -187 82 -187q60 0 132.5 133.5t120.5 302.5t48 277q0 93 -26.5 147t-76.5 54q-66 0 -133 -126.5t-107 -296.5t-40 -304zM182 1026q0 54 34.5 97.5t90.5 43.5 q45 0 68.5 -28.5t23.5 -71.5q0 -55 -34 -98t-91 -43q-45 0 -68.5 28.5t-23.5 71.5zM205 1024q0 -36 17.5 -60t51.5 -24q45 0 73 40.5t28 88.5q0 35 -17.5 58.5t-50.5 23.5q-44 0 -73 -40t-29 -87z" />
<glyph unicode="&#xe6;" horiz-adv-x="851" d="M-37 219q0 144 42 311.5t117.5 290.5t156.5 123q129 0 129 -242q44 109 102 175.5t121 66.5q40 0 61 -23t21 -63q0 -83 -83.5 -188t-232.5 -178l-6 -5q-20 -117 -20 -204q0 -124 37 -198.5t116 -74.5q34 0 67 20.5t65.5 66t55.5 82.5t53.5 106.5t42.5 100t39 98.5 l1.5 4.5l1.5 4.5t2 5q16 0 16 -13v-4q-72 -195 -113 -275q-112 -216 -235 -216q-96 0 -143 87t-47 226q0 24 4 74q-61 -182 -124.5 -284.5t-139.5 -102.5q-55 0 -81 62t-26 167zM-4 197q0 -187 82 -187q64 0 143 153t135 369l9 31q0 5 4 17q16 75 16 141q0 89 -28.5 146 t-80.5 57q-66 0 -133 -126.5t-107 -296.5t-40 -304zM397 516q135 81 207 179t72 167q0 60 -47 60q-67 0 -131.5 -119t-100.5 -287z" />
<glyph unicode="&#xe7;" horiz-adv-x="501" d="M-18 301q0 139 37.5 286.5t104.5 250t140 102.5q56 0 86.5 -52t30.5 -132q0 -152 -82 -277l-37 25q90 137 90 270q0 67 -24.5 108.5t-65.5 41.5q-59 0 -116.5 -99t-91.5 -244t-34 -278q0 -129 38 -209.5t118 -83.5q29 2 55 14.5t48 30.5t45 52.5t41.5 67.5t43.5 90 t44 105.5t49 127.5q16 0 16 -13v-4q-94 -244 -138 -323q-69 -126 -154 -156q-33 -12 -72 -12q-87 0 -129.5 86t-42.5 225zM-12 -287l47 23q14 -46 39.5 -70t77.5 -24q54 0 89 40t35 89q0 38 -25.5 64t-74.5 26q-44 0 -86 -21v-2q-10 -35 -20 -43l-37 27q20 23 37 33 q17 67 34 153l25 -10l-33 -131q44 14 84 14q67 0 104.5 -34.5t37.5 -82.5q0 -57 -47.5 -100t-129.5 -43q-134 0 -157 92z" />
<glyph unicode="&#xe8;" horiz-adv-x="499" d="M-20 305q0 -91 18 -159.5t61.5 -112t108.5 -43.5q40 0 78 21.5t70.5 62.5t59 83t52.5 102.5t42 100.5t36 94q7 19 10 27v4q0 13 -16 13q-88 -228 -144 -326q-94 -162 -184 -162q-79 0 -116.5 74.5t-37.5 198.5q0 81 21 204l6 5q149 73 232 178t83 188q0 40 -20.5 63 t-60.5 23q-77 0 -148 -102t-111 -249.5t-40 -287.5zM45 516q36 168 100 287t131 119q48 0 48 -60q0 -69 -72 -167t-207 -179zM96 1229l29 16q71 -125 166 -231l-10 -15q-10 7 -26.5 22.5t-65.5 75t-93 132.5z" />
<glyph unicode="&#xe9;" horiz-adv-x="499" d="M-20 305q0 140 40 287.5t111 249.5t148 102q40 0 60.5 -23t20.5 -63q0 -83 -83 -188t-232 -178l-6 -5q-21 -123 -21 -204q0 -124 37.5 -198.5t116.5 -74.5q34 0 67 20.5t65.5 66t55.5 82.5t53.5 106.5t42.5 100t39 98.5q3 9 5 14q16 0 16 -13v-4q-72 -195 -113 -275 q-112 -216 -235 -216q-65 0 -108.5 43.5t-61.5 112t-18 159.5zM45 516q135 81 207 179t72 167q0 60 -48 60q-67 0 -131 -119t-100 -287zM207 1012q92 103 166 233l26 -16q-44 -73 -89.5 -130.5t-69.5 -78.5l-23 -21z" />
<glyph unicode="&#xea;" horiz-adv-x="499" d="M-20 305q0 -91 18 -159.5t61.5 -112t108.5 -43.5q40 0 78 21.5t70.5 62.5t59 83t52.5 102.5t42 100.5t36 94q7 19 10 27v4q0 13 -16 13q-88 -228 -144 -326q-94 -162 -184 -162q-79 0 -116.5 74.5t-37.5 198.5q0 81 21 204l6 5q149 73 232 178t83 188q0 40 -20.5 63 t-60.5 23q-77 0 -148 -102t-111 -249.5t-40 -287.5zM45 516q36 168 100 287t131 119q48 0 48 -60q0 -69 -72 -167t-207 -179zM100 1014q112 92 199 211h29q101 -180 116 -219l-28 -15q-45 99 -113 201q-36 -49 -83 -97.5t-76 -72.5l-29 -23z" />
<glyph unicode="&#xeb;" horiz-adv-x="499" d="M-20 305q0 -91 18 -159.5t61.5 -112t108.5 -43.5q40 0 78 21.5t70.5 62.5t59 83t52.5 102.5t42 100.5t36 94q7 19 10 27v4q0 13 -16 13q-88 -228 -144 -326q-94 -162 -184 -162q-79 0 -116.5 74.5t-37.5 198.5q0 81 21 204l6 5q149 73 232 178t83 188q0 40 -20.5 63 t-60.5 23q-77 0 -148 -102t-111 -249.5t-40 -287.5zM45 516q36 168 100 287t131 119q48 0 48 -60q0 -69 -72 -167t-207 -179zM127 1044q0 13 8 24t19 11q24 0 24 -30q0 -14 -6.5 -24.5t-19.5 -10.5q-25 0 -25 30zM332 1044q0 13 7.5 24t18.5 11q25 0 25 -30q0 -13 -7 -24 t-20 -11q-24 0 -24 30z" />
<glyph unicode="&#xec;" horiz-adv-x="299" d="M-68 1229l29 16q71 -125 166 -231l-10 -15q-10 7 -26.5 22.5t-65.5 75t-93 132.5zM-39 150q0 -160 66 -160q23 0 44.5 12.5t44.5 43t43 66t47 97.5t50 120.5t59 151.5v4q0 13 -16 13q-95 -248 -156.5 -365t-111.5 -117q-35 0 -35 101q0 40 6 100.5t13.5 113.5t23.5 145 t25 143t30.5 163t28.5 152h-41q-43 -220 -60 -308t-39 -240t-22 -236z" />
<glyph unicode="&#xed;" horiz-adv-x="299" d="M-39 150q0 84 22 236t39 240t60 308h41q-7 -40 -28.5 -152t-30.5 -163t-25 -143t-23.5 -145t-13.5 -113.5t-6 -100.5q0 -101 35 -101q50 0 111.5 117t156.5 365q16 0 16 -13v-4q-36 -93 -59 -151.5t-50 -120.5t-47 -97.5t-43 -66t-44.5 -43t-44.5 -12.5q-66 0 -66 160z M104 1012q92 103 166 233l27 -16q-44 -73 -89.5 -130.5t-69.5 -78.5l-23 -21z" />
<glyph unicode="&#xee;" horiz-adv-x="299" d="M-51 1014q109 90 198 211h29q104 -186 117 -219l-29 -15q-47 104 -112 201q-36 -49 -83.5 -97.5t-76.5 -72.5l-29 -23zM-39 150q0 -160 66 -160q23 0 44.5 12.5t44.5 43t43 66t47 97.5t50 120.5t59 151.5v4q0 13 -16 13q-95 -248 -156.5 -365t-111.5 -117q-35 0 -35 101 q0 40 6 100.5t13.5 113.5t23.5 145t25 143t30.5 163t28.5 152h-41q-43 -220 -60 -308t-39 -240t-22 -236z" />
<glyph unicode="&#xef;" horiz-adv-x="299" d="M-39 150q0 -160 66 -160q23 0 44.5 12.5t44.5 43t43 66t47 97.5t50 120.5t59 151.5v4q0 13 -16 13q-95 -248 -156.5 -365t-111.5 -117q-35 0 -35 101q0 40 6 100.5t13.5 113.5t23.5 145t25 143t30.5 163t28.5 152h-41q-43 -220 -60 -308t-39 -240t-22 -236zM-16 1044 q0 13 7.5 24t18.5 11q25 0 25 -30q0 -13 -7 -24t-20 -11q-24 0 -24 30zM188 1044q0 13 8 24t19 11q25 0 25 -30q0 -13 -7 -24t-20 -11q-25 0 -25 30z" />
<glyph unicode="&#xf0;" horiz-adv-x="663" d="M-37 217q0 144 42 311t117.5 289.5t156.5 122.5q44 0 72.5 -28.5t41.5 -75.5q6 91 6 163q0 81 -6 140q-46 -37 -106 -70l-11 21q90 49 115 69q-25 166 -106 166q-64 0 -109 -61l-20 16q22 26 57.5 46t71.5 20q99 0 135 -162q60 57 86 125l22 -6q-43 -82 -104 -140 q14 -82 14 -178q0 -115 -46 -448t-46 -381q0 -140 49 -140q50 0 112.5 117.5t156.5 364.5q18 0 18 -15v-4q-103 -271 -164 -380t-127 -109q-80 0 -80 166q0 41 37 280q-31 -102 -59.5 -175t-63 -138.5t-73.5 -99t-82 -33.5q-54 0 -80.5 61.5t-26.5 165.5zM-4 197 q0 -187 82 -187q43 0 100.5 84t110 222.5t82.5 287.5l12 107q0 59 -9.5 104.5t-34.5 77t-63 31.5q-66 0 -133 -126.5t-107 -296.5t-40 -304z" />
<glyph unicode="&#xf1;" horiz-adv-x="610" d="M-104 0q16 116 65 287q88 475 102 647h43q-4 -53 -75 -432q34 91 69.5 166t76 139.5t83.5 100.5t84 36q43 0 66.5 -36.5t23.5 -96.5q0 -75 -76.5 -351t-76.5 -362q0 -82 55 -82q30 0 64 39t72 116.5t67.5 148.5t70.5 178q17 0 17 -13v-4q-94 -243 -132 -320 q-86 -171 -163 -171q-46 0 -69 29.5t-23 80.5q0 84 77.5 371t77.5 340q0 57 -14 84t-47 27q-37 0 -81.5 -47.5t-87.5 -128t-82 -170.5t-73 -189l-69 -387h-45zM111 1053q37 47 102 47q33 0 97 -14.5t91 -14.5q65 0 105 35l22 -31q-40 -37 -96 -37q-37 0 -109 20.5t-104 20.5 q-57 0 -90 -43z" />
<glyph unicode="&#xf2;" horiz-adv-x="661" d="M-16 322q0 -145 46 -238.5t136 -93.5q66 0 126 62t105 167q90 4 163 73t118 189v4q0 13 -16 13q-45 -119 -112 -184.5t-144 -73.5q81 199 81 409q0 130 -40.5 210.5t-122.5 80.5q-60 0 -112 -58t-81 -147.5t-29 -183.5q0 -64 14.5 -120t44.5 -102.5t81 -76t118 -33.5 q-39 -96 -86.5 -152.5t-99.5 -56.5q-76 0 -115 82.5t-39 212.5q0 183 66 365l-39 8q-63 -171 -63 -356zM135 549q0 140 57 257.5t130 117.5q63 0 93.5 -72t30.5 -190q0 -211 -77 -422q-119 6 -176.5 93.5t-57.5 215.5zM158 1229l28 16q71 -125 166 -231l-10 -15 q-9 7 -26 22.5t-65.5 75t-92.5 132.5z" />
<glyph unicode="&#xf3;" horiz-adv-x="661" d="M-16 322q0 185 63 356l39 -8q-66 -182 -66 -365q0 -130 39 -212.5t115 -82.5q52 0 99.5 56.5t86.5 152.5q-67 4 -118 33.5t-81 76t-44.5 102.5t-14.5 120q0 94 29 183.5t81 147.5t112 58q82 0 122.5 -80.5t40.5 -210.5q0 -210 -81 -409q77 8 144 73.5t112 184.5 q16 0 16 -13v-4q-45 -120 -118 -189t-163 -73q-45 -105 -105 -167t-126 -62q-90 0 -136 93.5t-46 238.5zM135 549q0 -128 57.5 -215.5t176.5 -93.5q77 211 77 422q0 118 -30.5 190t-93.5 72q-73 0 -130 -117.5t-57 -257.5zM289 1012q92 103 166 233l26 -16 q-44 -73 -89.5 -130.5t-69.5 -78.5l-23 -21z" />
<glyph unicode="&#xf4;" horiz-adv-x="661" d="M-16 322q0 -145 46 -238.5t136 -93.5q66 0 126 62t105 167q90 4 163 73t118 189v4q0 13 -16 13q-45 -119 -112 -184.5t-144 -73.5q81 199 81 409q0 130 -40.5 210.5t-122.5 80.5q-60 0 -112 -58t-81 -147.5t-29 -183.5q0 -64 14.5 -120t44.5 -102.5t81 -76t118 -33.5 q-39 -96 -86.5 -152.5t-99.5 -56.5q-76 0 -115 82.5t-39 212.5q0 183 66 365l-39 8q-63 -171 -63 -356zM135 549q0 140 57 257.5t130 117.5q63 0 93.5 -72t30.5 -190q0 -211 -77 -422q-119 6 -176.5 93.5t-57.5 215.5zM154 1014q109 90 198 211h29q104 -186 117 -219 l-29 -15q-45 99 -113 201q-36 -49 -83 -97.5t-76 -72.5l-29 -23z" />
<glyph unicode="&#xf5;" horiz-adv-x="661" d="M-16 322q0 185 63 356l39 -8q-66 -182 -66 -365q0 -130 39 -212.5t115 -82.5q52 0 99.5 56.5t86.5 152.5q-67 4 -118 33.5t-81 76t-44.5 102.5t-14.5 120q0 94 29 183.5t81 147.5t112 58q82 0 122.5 -80.5t40.5 -210.5q0 -210 -81 -409q77 8 144 73.5t112 184.5 q16 0 16 -13v-4q-45 -120 -118 -189t-163 -73q-45 -105 -105 -167t-126 -62q-90 0 -136 93.5t-46 238.5zM135 549q0 -128 57.5 -215.5t176.5 -93.5q77 211 77 422q0 118 -30.5 190t-93.5 72q-73 0 -130 -117.5t-57 -257.5zM152 1053q37 47 102 47q32 0 97 -14.5t91 -14.5 q65 0 105 35l22 -31q-40 -37 -96 -37q-37 0 -109 20.5t-104 20.5q-57 0 -90 -43z" />
<glyph unicode="&#xf6;" horiz-adv-x="661" d="M-16 322q0 -145 46 -238.5t136 -93.5q66 0 126 62t105 167q90 4 163 73t118 189v4q0 13 -16 13q-45 -119 -112 -184.5t-144 -73.5q81 199 81 409q0 130 -40.5 210.5t-122.5 80.5q-60 0 -112 -58t-81 -147.5t-29 -183.5q0 -64 14.5 -120t44.5 -102.5t81 -76t118 -33.5 q-39 -96 -86.5 -152.5t-99.5 -56.5q-76 0 -115 82.5t-39 212.5q0 183 66 365l-39 8q-63 -171 -63 -356zM135 549q0 140 57 257.5t130 117.5q63 0 93.5 -72t30.5 -190q0 -211 -77 -422q-119 6 -176.5 93.5t-57.5 215.5zM209 1044q0 13 8 24t19 11q24 0 24 -30q0 -13 -7 -24 t-20 -11q-24 0 -24 30zM414 1044q0 13 7.5 24t18.5 11q25 0 25 -30q0 -13 -7 -24t-20 -11q-24 0 -24 30z" />
<glyph unicode="&#xf7;" horiz-adv-x="464" d="M35 510h366l5 25h-367zM168 356q0 13 8 24t19 11q24 0 24 -31q0 -13 -6.5 -23.5t-19.5 -10.5q-25 0 -25 30zM217 657q0 13 8 24t19 11q24 0 24 -30q0 -14 -6.5 -24.5t-19.5 -10.5q-25 0 -25 30z" />
<glyph unicode="&#xf8;" horiz-adv-x="661" d="M-39 -8q92 146 187 325t155.5 306.5t145.5 314.5l18 -8q-124 -271 -235 -490.5t-252 -453.5zM-16 322q0 185 63 356l39 -8q-66 -182 -66 -365q0 -130 39 -212.5t115 -82.5q52 0 99.5 56.5t86.5 152.5q-67 4 -118 33.5t-81 76t-44.5 102.5t-14.5 120q0 94 29 183.5 t81 147.5t112 58q82 0 122.5 -80.5t40.5 -210.5q0 -210 -81 -409q77 8 144 73.5t112 184.5q16 0 16 -13v-4q-45 -120 -118 -189t-163 -73q-45 -105 -105 -167t-126 -62q-90 0 -136 93.5t-46 238.5zM135 549q0 -128 57.5 -215.5t176.5 -93.5q77 211 77 422q0 118 -30.5 190 t-93.5 72q-73 0 -130 -117.5t-57 -257.5z" />
<glyph unicode="&#xf9;" horiz-adv-x="608" d="M-39 156q0 -166 74 -166q58 0 127.5 97t122.5 247q-15 -131 -15 -184q0 -160 66 -160q28 0 55 21t51 55.5t55 101.5t58.5 134.5t69.5 178.5v4q0 13 -17 13q-95 -248 -156.5 -365t-111.5 -117q-35 0 -35 101q0 40 6 100.5t13.5 113.5t23.5 145t25 143t30.5 163t28.5 152 h-41q-49 -239 -80 -424q-44 -193 -126.5 -344.5t-143.5 -151.5q-49 0 -49 115q0 60 14 161t30 184.5t45.5 235t43.5 224.5h-41q-6 -30 -28 -142t-30 -152.5t-24 -131t-22.5 -138.5t-12.5 -109t-6 -105zM96 1229l29 16q71 -125 166 -231l-10 -15q-10 7 -26.5 22.5t-65.5 75 t-93 132.5z" />
<glyph unicode="&#xfa;" horiz-adv-x="608" d="M-39 156q0 44 6 105t12.5 109t22.5 138.5t24 131t30 152.5t28 142h41q-14 -73 -43.5 -224.5t-45.5 -235t-30 -184.5t-14 -161q0 -115 49 -115q61 0 143.5 151.5t126.5 344.5q31 185 80 424h41q-7 -40 -28.5 -152t-30.5 -163t-25 -143t-23.5 -145t-13.5 -113.5t-6 -100.5 q0 -101 35 -101q50 0 111.5 117t156.5 365q17 0 17 -13v-4q-42 -111 -69.5 -178.5t-58.5 -134.5t-55 -101.5t-51 -55.5t-55 -21q-66 0 -66 160q0 53 15 184q-53 -150 -122.5 -247t-127.5 -97q-74 0 -74 166zM207 1012q92 103 166 233l26 -16q-44 -73 -89.5 -130.5 t-69.5 -78.5l-23 -21z" />
<glyph unicode="&#xfb;" horiz-adv-x="608" d="M-39 156q0 -166 74 -166q58 0 127.5 97t122.5 247q-15 -131 -15 -184q0 -160 66 -160q28 0 55 21t51 55.5t55 101.5t58.5 134.5t69.5 178.5v4q0 13 -17 13q-95 -248 -156.5 -365t-111.5 -117q-35 0 -35 101q0 40 6 100.5t13.5 113.5t23.5 145t25 143t30.5 163t28.5 152 h-41q-49 -239 -80 -424q-44 -193 -126.5 -344.5t-143.5 -151.5q-49 0 -49 115q0 60 14 161t30 184.5t45.5 235t43.5 224.5h-41q-6 -30 -28 -142t-30 -152.5t-24 -131t-22.5 -138.5t-12.5 -109t-6 -105zM92 1014q112 92 199 211h28q104 -186 117 -219l-28 -15 q-45 99 -113 201q-36 -49 -83.5 -97.5t-76.5 -72.5l-29 -23z" />
<glyph unicode="&#xfc;" horiz-adv-x="608" d="M-39 156q0 -166 74 -166q58 0 127.5 97t122.5 247q-15 -131 -15 -184q0 -160 66 -160q28 0 55 21t51 55.5t55 101.5t58.5 134.5t69.5 178.5v4q0 13 -17 13q-95 -248 -156.5 -365t-111.5 -117q-35 0 -35 101q0 40 6 100.5t13.5 113.5t23.5 145t25 143t30.5 163t28.5 152 h-41q-49 -239 -80 -424q-44 -193 -126.5 -344.5t-143.5 -151.5q-49 0 -49 115q0 60 14 161t30 184.5t45.5 235t43.5 224.5h-41q-6 -30 -28 -142t-30 -152.5t-24 -131t-22.5 -138.5t-12.5 -109t-6 -105zM147 1044q0 13 8 24t19 11q25 0 25 -30q0 -13 -7 -24t-20 -11 q-25 0 -25 30zM352 1044q0 13 8 24t19 11q24 0 24 -30q0 -14 -6.5 -24.5t-19.5 -10.5q-25 0 -25 30z" />
<glyph unicode="&#xfd;" horiz-adv-x="585" d="M-39 156q0 44 6 105t12.5 109t22.5 138.5t24 131t30 152.5t28 142h41q-14 -73 -43.5 -224.5t-45.5 -235t-30 -184.5t-14 -161q0 -113 49 -113q41 0 94.5 72t102.5 190.5t77 247.5q26 153 76 408h45q-26 -101 -174 -940q104 113 184 231t140 273h4q12 0 12 -13v-4 q-63 -166 -147.5 -286.5t-196.5 -237.5l-78 -436q-12 -67 -47.5 -105.5t-83.5 -38.5q-38 0 -63 36t-25 93q0 59 18 114t57 110.5t72.5 94.5t90.5 101q9 10 14 15q41 219 66 378q-53 -145 -120.5 -237t-123.5 -92q-74 0 -74 166zM-12 -498q0 -52 18 -78t47 -26q32 0 54.5 33 t33.5 94l66 379q-65 -69 -101 -113t-70.5 -109t-43.5 -131q-4 -18 -4 -49zM221 1012q92 103 166 233l27 -16q-44 -73 -90 -130.5t-70 -78.5l-23 -21z" />
<glyph unicode="&#xfe;" horiz-adv-x="620" d="M-205 -612q0 5 16.5 89t43 207.5t47.5 206.5q11 67 56 348t66 415t53.5 341t48.5 321.5t19 160.5h43q-3 -36 -147 -910q127 373 258 373q67 0 100 -70t33 -184q0 -183 -71.5 -383.5t-174.5 -277.5q77 25 154.5 82.5t155 160t125.5 230.5q16 0 16 -13v-4 q-58 -150 -155 -264.5t-198.5 -170.5t-191.5 -56h-2q-100 0 -121 137l-123 -739h-51zM-170 -565q0 2 1 10l3 24t4 29q-2 -13 -4 -28t-3 -23.5t-1 -11.5zM-10 201q0 -83 24.5 -137t77.5 -54q76 0 148 118.5t113.5 279.5t41.5 297q0 99 -25.5 157t-78.5 58q-50 0 -111 -93 t-112.5 -245t-73.5 -312q-4 -46 -4 -69z" />
<glyph unicode="&#xff;" horiz-adv-x="585" d="M-39 156q0 -166 74 -166q56 0 123.5 92t120.5 237q-25 -159 -66 -378q-120 -129 -161 -186q-91 -128 -91 -249q0 -57 25 -93t63 -36q48 0 83.5 38.5t47.5 105.5l78 436q112 117 196.5 237.5t147.5 286.5v4q0 13 -12 13h-4q-60 -155 -140 -273t-184 -231q148 839 174 940 h-45q-50 -255 -76 -408q-28 -129 -77 -247.5t-102.5 -190.5t-94.5 -72q-49 0 -49 113q0 60 14 161t30 184.5t45.5 235t43.5 224.5h-41q-6 -30 -28 -142t-30 -152.5t-24 -131t-22.5 -138.5t-12.5 -109t-6 -105zM-12 -498q0 31 4 49q9 66 43.5 131t70.5 109t101 113l-66 -379 q-11 -61 -33.5 -94t-54.5 -33q-29 0 -47 26t-18 78zM143 1044q0 13 8 24t19 11q25 0 25 -30q0 -13 -7 -24t-20 -11q-25 0 -25 30zM348 1044q0 13 8 24t19 11q24 0 24 -30q0 -14 -6.5 -24.5t-19.5 -10.5q-25 0 -25 30z" />
<glyph unicode="&#x152;" horiz-adv-x="2091" d="M57 287q0 205 41.5 428t113.5 422t178 363.5t226 248.5l21 -25q-154 -105 -280.5 -347.5t-194.5 -534.5t-68 -566q0 -156 24.5 -286t73.5 -231t131.5 -157.5t190.5 -56.5q136 0 257.5 98.5t221.5 272.5q-18 79 -18 164q0 168 69 327.5t201 268.5q25 157 31 297h-45 q-131 0 -240 30.5t-182.5 80.5t-124 116.5t-73.5 136.5t-23 142q0 139 80.5 236t216.5 97q110 0 195 -60t136 -166.5t77 -243t26 -298.5v-49q50 6 98 15q-37 110 -37 243q0 105 23.5 203t67.5 179.5t115.5 130.5t160.5 49q107 0 167 -72.5t60 -190.5q0 -64 -19 -130 t-60 -132.5t-100 -123.5t-146 -102.5t-191 -68.5q50 -130 139 -168q14 4 56 4h33l-9 -43q-21 0 -53 8.5t-43 8.5q-159 -25 -291 -129q-73 -453 -262 -770q38 -162 145 -261.5t277 -99.5q95 0 177.5 37.5t139.5 99t98 141.5t60 164t19 167q0 139 -55 231t-156 92 q-111 0 -177.5 -97.5t-66.5 -227.5q0 -108 47 -191q-10 -10 -18 -10q-27 0 -45.5 73t-18.5 126q0 88 31.5 166.5t97 130t150.5 51.5q81 0 139 -49.5t85.5 -129t27.5 -178.5q0 -85 -21 -170.5t-65.5 -166t-107 -142.5t-153 -99.5t-196.5 -37.5q-166 0 -277.5 94t-158.5 250 q-102 -162 -227 -253t-263 -91q-118 0 -208 59.5t-144 165t-80.5 240.5t-26.5 297zM623 1493q0 -70 22 -139t70.5 -135t118 -115.5t172 -80t225.5 -30.5h45v70q0 155 -23.5 284.5t-69.5 230.5t-122.5 157.5t-175.5 56.5q-121 0 -191.5 -86.5t-70.5 -212.5zM1012 61 q0 -49 6 -98q154 287 219 666q-109 -109 -167 -260.5t-58 -307.5zM1294 713q114 79 258 108q-84 54 -129 168q-50 -9 -104 -12q-5 -117 -25 -264zM1413 1257q0 -132 37 -239q99 23 181.5 68.5t137.5 101.5t93.5 121.5t55.5 129.5t17 126q0 93 -40 156.5t-109 70.5 q-5 0 -15.5 1t-15.5 1q-83 0 -150 -47t-108 -124.5t-62.5 -171.5t-21.5 -194z" />
<glyph unicode="&#x153;" horiz-adv-x="933" d="M-12 324q0 191 65 370l37 -10q-65 -174 -65 -377q0 -132 37 -214.5t112 -82.5q74 0 140 115t102 281q-15 -3 -31 -3q-74 0 -130 20.5t-88.5 56t-48.5 78.5t-16 93q0 110 65.5 201.5t156.5 91.5q75 0 113 -77.5t38 -202.5q0 -8 -1 -25t-1 -25q42 144 106 237t134 93 q33 0 50 -29.5t17 -78.5q0 -55 -21 -119.5t-59.5 -127t-101.5 -111.5t-137 -66q-8 -57 -8 -127q0 -124 37 -199.5t116 -75.5q34 0 67 20.5t65.5 66t55.5 82.5t53.5 106.5t42.5 100t39 98.5l1.5 4.5l1.5 4.5t2 5q16 0 16 -13v-4q-72 -195 -113 -275q-112 -216 -235 -216 q-89 0 -132.5 85t-43.5 220q0 33 2 49q-44 -153 -113.5 -253.5t-148.5 -100.5q-60 0 -101 46.5t-59 119.5t-18 168zM143 643q0 -95 58.5 -157t183.5 -62q6 0 18.5 1t18.5 1q24 120 24 236q0 118 -30.5 190t-93.5 72q-67 0 -123 -90t-56 -191zM465 434q67 19 123.5 69 t91 111.5t53.5 122.5t19 109q0 76 -41 76q-50 0 -101.5 -73t-89 -184t-55.5 -231z" />
<glyph unicode="&#x178;" horiz-adv-x="1644" d="M-379 1090q0 -90 22 -172.5t69 -155.5t114.5 -126.5t163.5 -84.5t211 -31q93 0 172.5 27t136 73.5t99.5 106.5t69 130t38.5 139t12.5 137q0 41 -2 61l-37 -8q4 -46 4 -72q0 -79 -16 -156.5t-53.5 -154t-93 -134t-141.5 -93t-191 -35.5q-133 0 -239 46t-171.5 124.5 t-100 177t-34.5 209.5q0 102 28 200.5t86 187.5t139 156.5t197 107.5t250 40q122 0 228.5 -50.5t178.5 -133.5t113 -190.5t41 -221.5q0 -113 -21.5 -236t-47 -215t-47 -216.5t-21.5 -239.5q0 -297 205 -297q60 0 120.5 54.5t113.5 148t96.5 200.5t81.5 230 q-8 -40 -19 -130.5t-22.5 -185.5t-31 -214.5t-41.5 -227t-57.5 -213t-77 -181t-100.5 -122.5t-128 -47q-86 0 -137.5 51t-51.5 151q0 102 65.5 170t147.5 68l-4 41q-94 -3 -170 -83.5t-76 -195.5q0 -103 63 -163t163 -60q56 0 106 26t88.5 66t73.5 106.5t60 129.5t48.5 154 t38 160.5t30 168t23.5 158t19 149.5t16 125q59 442 145 768.5t167 497.5l-45 22q-52 -118 -124 -377t-132 -593q-22 -93 -53 -196.5t-76.5 -219t-94.5 -206.5t-108.5 -150.5t-116.5 -59.5q-89 0 -126.5 73t-37.5 208q0 115 21.5 238.5t47 214t47 213t21.5 237.5 q0 163 -76 304t-214 226.5t-306 85.5q-140 0 -261.5 -41.5t-208 -112t-148 -163.5t-91.5 -195.5t-30 -207.5zM1253 1946q0 13 8 23.5t19 10.5q25 0 25 -30q0 -13 -7 -24t-20 -11q-25 0 -25 31zM1458 1946q0 13 8 23.5t19 10.5q24 0 24 -30q0 -14 -6.5 -24.5t-19.5 -10.5 q-25 0 -25 31z" />
<glyph unicode="&#x2c6;" horiz-adv-x="405" d="M31 1014q109 90 198 211h29q104 -186 117 -219l-29 -15q-45 99 -113 201q-36 -49 -83 -97.5t-76 -72.5l-29 -23z" />
<glyph unicode="&#x2dc;" horiz-adv-x="425" d="M8 1053q37 47 103 47q33 0 97 -14.5t91 -14.5q40 0 61.5 8.5t42.5 26.5l23 -31q-40 -37 -96 -37q-37 0 -109 20.5t-104 20.5q-57 0 -90 -43z" />
<glyph unicode="&#x2000;" horiz-adv-x="1083" />
<glyph unicode="&#x2001;" horiz-adv-x="2167" />
<glyph unicode="&#x2002;" horiz-adv-x="1083" />
<glyph unicode="&#x2003;" horiz-adv-x="2167" />
<glyph unicode="&#x2004;" horiz-adv-x="722" />
<glyph unicode="&#x2005;" horiz-adv-x="541" />
<glyph unicode="&#x2006;" horiz-adv-x="361" />
<glyph unicode="&#x2007;" horiz-adv-x="361" />
<glyph unicode="&#x2008;" horiz-adv-x="270" />
<glyph unicode="&#x2009;" horiz-adv-x="433" />
<glyph unicode="&#x200a;" horiz-adv-x="120" />
<glyph unicode="&#x2010;" horiz-adv-x="448" d="M35 510l4 25h367l-5 -25h-366z" />
<glyph unicode="&#x2011;" horiz-adv-x="448" d="M35 510l4 25h367l-5 -25h-366z" />
<glyph unicode="&#x2012;" horiz-adv-x="448" d="M35 510l4 25h367l-5 -25h-366z" />
<glyph unicode="&#x2013;" horiz-adv-x="653" d="M35 510l4 25h571l-4 -25h-571z" />
<glyph unicode="&#x2014;" horiz-adv-x="956" d="M74 510l4 25h776l-4 -25h-776z" />
<glyph unicode="&#x2018;" horiz-adv-x="249" d="M100 1194q0 135 80 276l17 -8q-62 -118 -62 -233q0 -19 4 -55l-37 -7q0 4 -1 13.5t-1 13.5z" />
<glyph unicode="&#x2019;" horiz-adv-x="212" d="M104 1464l33 17q31 -82 31 -178q0 -73 -14 -136l-19 4q10 62 10 103q0 97 -41 190z" />
<glyph unicode="&#x201a;" horiz-adv-x="176" d="M-92 -209q88 137 88 283h37q0 -67 -29.5 -148t-81.5 -145z" />
<glyph unicode="&#x201c;" horiz-adv-x="307" d="M53 1214q0 136 80 277l17 -8q-62 -118 -62 -234q0 -19 4 -55l-37 -6q0 4 -1 13t-1 13zM170 1194q0 135 80 276l16 -8q-61 -116 -61 -233q0 -19 4 -55l-37 -7q0 4 -1 13.5t-1 13.5z" />
<glyph unicode="&#x201d;" horiz-adv-x="276" d="M35 1448l33 16q30 -88 30 -178q0 -61 -16 -133l-16 2q8 47 8 100q0 98 -39 193zM152 1464l32 17q31 -82 31 -178q0 -73 -14 -136l-19 4q11 68 11 103q0 97 -41 190z" />
<glyph unicode="&#x201e;" horiz-adv-x="243" d="M-92 -209q88 137 88 283h37q0 -67 -29.5 -148t-81.5 -145zM31 -209q88 137 88 283h37q0 -67 -29.5 -148t-81.5 -145z" />
<glyph unicode="&#x2022;" horiz-adv-x="221" d="M33 592q0 40 25.5 73t64.5 33q57 0 57 -63q0 -40 -25 -74.5t-63 -34.5q-29 0 -44 19t-15 47z" />
<glyph unicode="&#x2026;" horiz-adv-x="485" d="M25 20q0 13 7.5 24t18.5 11q25 0 25 -30q0 -13 -7 -24t-20 -11q-24 0 -24 30zM209 20q0 13 8 24t19 11q24 0 24 -30q0 -13 -7 -24t-20 -11q-24 0 -24 30zM393 20q0 13 8 24t19 11q24 0 24 -30q0 -14 -6.5 -24.5t-19.5 -10.5q-25 0 -25 30z" />
<glyph unicode="&#x202f;" horiz-adv-x="433" />
<glyph unicode="&#x2039;" horiz-adv-x="446" d="M29 498l4 26q25 11 66.5 31t146.5 80.5t182 118.5l12 -19q-75 -57 -168 -112.5t-148 -82.5l-56 -26q61 -44 130 -110.5t108 -111.5l38 -44l-25 -27q-140 156 -290 277z" />
<glyph unicode="&#x203a;" horiz-adv-x="493" d="M55 240q75 57 168 112.5t149 81.5l56 27q-61 44 -130 110.5t-108 110.5l-38 45l24 27q141 -156 291 -277l-4 -26q-25 -11 -66.5 -31t-146.5 -80.5t-182 -118.5z" />
<glyph unicode="&#x205f;" horiz-adv-x="541" />
<glyph unicode="&#x20ac;" horiz-adv-x="622" d="M2 377l4 24h115q2 33 14 99h-112l4 24h114q25 112 68 205.5t103 154t124 60.5t94.5 -56t30.5 -143q0 -72 -18.5 -143.5t-50.5 -118.5l-33 19q33 52 53 123.5t20 138.5q0 71 -24 115.5t-74 44.5q-80 0 -150 -116.5t-106 -283.5h174l-4 -24h-174q-12 -66 -16 -99h174 l-4 -24h-172q-4 -54 -4 -76q0 -130 39.5 -210.5t121.5 -80.5q76 0 135.5 70t94.5 192l30 -10q-38 -126 -106 -199t-160 -73q-66 0 -110.5 43.5t-64 112.5t-19.5 159q0 22 4 72h-115z" />
<glyph unicode="&#x2122;" horiz-adv-x="665" d="M-16 1452l4 25h284l-4 -25h-118q-13 -100 -41.5 -268.5t-47.5 -249.5h-34q43 216 86 518h-129zM242 934q35 116 51.5 175t39.5 166t34 202h22q8 -102 20 -224t21 -193l8 -71q44 101 83.5 223t56.5 194l18 71h29q-21 -181 -21 -349q0 -53 6 -194h-41q-8 57 -8 180 q0 132 12 211q-64 -256 -139 -391h-28q-1 9 -44 383q-22 -159 -83 -383h-37z" />
<glyph unicode="&#xe000;" horiz-adv-x="942" d="M0 0v942h942v-942h-942z" />
<glyph unicode="&#xfb01;" horiz-adv-x="628" d="M-84 -264q0 315 109.5 909t199.5 838q22 61 52 95t55 34q47 0 47 -82q0 -97 -81.5 -356t-147 -431.5t-119.5 -306.5q-34 -217 -47 -330q27 11 66 37t91 71.5t103.5 120.5t85.5 163q16 0 16 -13v-4q-57 -146 -160.5 -251.5t-185.5 -137.5q86 -57 127 -141t41 -176 q0 -101 -43.5 -175.5t-104.5 -74.5q-48 0 -76 46.5t-28 164.5zM-53 -279q0 -82 17 -129t50 -47q47 0 84 70t37 164q0 86 -37 166.5t-118 138.5q-33 -287 -33 -363zM51 551q56 139 115.5 301.5t124.5 380.5t65 309q0 51 -26 51q-49 0 -123 -288.5t-156 -753.5zM291 150 q0 84 22 236t39 240t60 308h41q-7 -40 -28.5 -152t-30.5 -163t-25 -143t-23.5 -145t-13.5 -113.5t-6 -100.5q0 -101 34 -101q50 0 112.5 117.5t156.5 364.5q16 0 16 -13v-4q-42 -111 -69.5 -178.5t-58.5 -134.5t-55 -101.5t-51 -55.5t-55 -21q-65 0 -65 160zM444 1143 q0 37 25 37q13 0 20 -9t7 -22q0 -15 -7.5 -25t-19.5 -10q-25 0 -25 29z" />
<glyph unicode="&#xfb02;" horiz-adv-x="655" d="M-84 -264q0 315 109.5 909t199.5 838q22 61 52 95t55 34q47 0 47 -82q0 -97 -81.5 -356t-147 -431.5t-119.5 -306.5q-34 -217 -47 -330q27 11 66 37t91 71.5t103.5 120.5t85.5 163q16 0 16 -13v-4q-57 -146 -160.5 -251.5t-185.5 -137.5q86 -57 127 -141t41 -176 q0 -101 -43.5 -175.5t-104.5 -74.5q-48 0 -76 46.5t-28 164.5zM-53 -279q0 -82 17 -129t50 -47q47 0 84 70t37 164q0 86 -37 166.5t-118 138.5q-33 -287 -33 -363zM51 551q56 139 115.5 301.5t124.5 380.5t65 309q0 51 -26 51q-49 0 -123 -288.5t-156 -753.5zM311 219 q0 248 75 647.5t155 616.5q24 63 52 96t54 33q47 0 47 -78q0 -99 -31 -235.5t-70.5 -252t-93 -245t-81 -188.5t-51.5 -109q-27 -211 -27 -322q0 -166 47 -166q50 0 111.5 117t156.5 365q19 0 19 -15v-4q-103 -271 -164 -380t-127 -109q-72 0 -72 229zM379 584 q36 72 75.5 163.5t94 233t89 290.5t34.5 263q0 59 -25 59q-37 0 -89.5 -161.5t-99 -389t-79.5 -458.5z" />
</font>
</defs>
</svg>
