<svg width="0" height="0" style="position:absolute"><symbol viewBox="0 0 19.56 18.65" id="heart"><title>icon-heart</title><path d="M19.44 4a4.68 4.68 0 0 0-4.05-4 5.47 5.47 0 0 0-5.1 2.16 3 3 0 0 0-.51 1 3 3 0 0 0-.51-1A5.47 5.47 0 0 0 4.17 0 4.68 4.68 0 0 0 .12 4c-.5 2.69.66 4.38 2.35 6.44C4.78 13.27 7.3 16 9.78 18.65c2.48-2.69 5-5.38 7.31-8.21 1.69-2.06 2.85-3.75 2.35-6.44z"/></symbol><symbol viewBox="0 0 22 17.88" id="twitter"><defs><style>.ba{fill:#55acee}</style></defs><title>twitter</title><path class="ba" d="M22 2.12a9 9 0 0 1-2.59.71 4.53 4.53 0 0 0 2-2.5 9 9 0 0 1-2.87 1.1 4.52 4.52 0 0 0-7.69 4.12A12.81 12.81 0 0 1 1.55.83a4.52 4.52 0 0 0 1.4 6 4.5 4.5 0 0 1-2-.56v.08a4.52 4.52 0 0 0 3.55 4.42 4.52 4.52 0 0 1-2 .08 4.52 4.52 0 0 0 4.18 3.13 9.06 9.06 0 0 1-5.6 1.9 9.19 9.19 0 0 1-1.08 0 12.78 12.78 0 0 0 6.92 2A12.75 12.75 0 0 0 19.76 5.04v-.58A9.17 9.17 0 0 0 22 2.12z"/></symbol></svg>
