<?xml version="1.0" encoding="utf-8"?><svg xmlns="http://www.w3.org/2000/svg" xmlns:xlink="http://www.w3.org/1999/xlink"><symbol viewBox="0 0 24 24" id="heart"><title>heart</title><path d="M21.66 7a4.68 4.68 0 0 0-4.05-4 5.47 5.47 0 0 0-5.1 2.16 3 3 0 0 0-.51 1 3 3 0 0 0-.51-1A5.47 5.47 0 0 0 6.39 3a4.68 4.68 0 0 0-4.05 4c-.5 2.69.66 4.38 2.35 6.44C7 16.27 9.52 19 12 21.65c2.48-2.69 5-5.38 7.31-8.21C21 11.38 22.16 9.69 21.66 7z"/></symbol><symbol viewBox="0 0 24 24" id="twitter"><title>twitter</title><path d="M23 5.24a9 9 0 0 1-2.59.71 4.53 4.53 0 0 0 2-2.5 9 9 0 0 1-2.87 1.1 4.52 4.52 0 0 0-7.69 4.12 12.81 12.81 0 0 1-9.3-4.72 4.52 4.52 0 0 0 1.4 6 4.5 4.5 0 0 1-2-.56v.08a4.52 4.52 0 0 0 3.55 4.42 4.52 4.52 0 0 1-2 .08 4.52 4.52 0 0 0 4.18 3.13 9.06 9.06 0 0 1-5.6 1.9A9.19 9.19 0 0 1 1 19a12.78 12.78 0 0 0 6.92 2A12.75 12.75 0 0 0 20.76 8.16v-.58A9.17 9.17 0 0 0 23 5.24z"/></symbol></svg>