<svg xmlns="http://www.w3.org/2000/svg" class="hide"><symbol id="arrow" viewBox="0 0 32 32"><g fill-rule="evenodd"><path d="M17.056 7.056L15 5 4 16l11 11 2.056-2.056L8.11 16l8.946-8.944z"/><path d="M6 14.5h22v3H6z"/></g></symbol><symbol id="feed" viewBox="0 0 32 32"><g fill-rule="evenodd"><path d="M7 13.333V16.5c5.24 0 9.5 4.26 9.5 9.5h3.167c0-6.995-5.672-12.667-12.667-12.667zM7 7v3.167c8.73 0 15.833 7.103 15.833 15.833H26C26 15.507 17.493 7 7 7zm2.375 14.25a2.375 2.375 0 1 0 0 4.75 2.375 2.375 0 0 0 0-4.75z"/></g></symbol><symbol id="globe" viewBox="0 0 32 32"><g fill-rule="evenodd"><path d="M16 25.5a9.5 9.5 0 1 0 0-19 9.5 9.5 0 0 0 0 19zm0 1c-5.8 0-10.5-4.7-10.5-10.5S10.2 5.5 16 5.5 26.5 10.2 26.5 16 21.8 26.5 16 26.5z"/><path d="M6 16.25h20.25v-.5H5.75v.5H6z"/><path d="M15.783 26.05c.146-.07.422-.232.784-.493.612-.44 1.226-1 1.8-1.686C20.01 21.904 21 19.31 21 16c0-3.16-.99-5.723-2.638-7.747a11.096 11.096 0 0 0-1.808-1.77 6.678 6.678 0 0 0-.793-.544h.48c-.15.08-.43.26-.794.542a11.096 11.096 0 0 0-1.808 1.77C11.988 10.278 11 12.84 11 16c0 3.093.99 5.642 2.64 7.69.577.717 1.195 1.32 1.812 1.81.366.292.646.48.797.566l-.467-.016zm.217.45s-5.5-3.155-5.5-10.5C10.5 8.5 16 5.5 16 5.5s5.5 3 5.5 10.5c0 7.843-5.5 10.5-5.5 10.5z"/><path d="M15.75 6v20.355h.5V5.75h-.5V6z"/><path d="M7.73 22.47c1.695-1.444 4.4-2.97 8.27-2.97 3.925 0 6.617 1.506 8.292 2.942-.102.132-.208.26-.316.387a11.68 11.68 0 0 0-.23-.192C21.724 20.988 19.162 20 16 20c-3.093 0-5.642.99-7.69 2.64-.09.07-.177.143-.263.216-.108-.126-.214-.255-.317-.386zM24.292 9.558C22.617 10.994 19.925 12.5 16 12.5c-4.043 0-6.708-1.462-8.342-2.878.102-.133.206-.263.314-.39l.157.134C10.096 11.012 12.69 12 16 12c3.16 0 5.723-.99 7.747-2.638l.23-.19c.107.125.213.254.315.386z"/></g></symbol><symbol id="heart" viewBox="0 0 32 32"><g fill-rule="evenodd"><path d="M25.87 11.05c-.444-2.38-2.18-3.736-4.136-4.003-1.846-.245-3.893.467-5.227 2.224-.245.334-.4.646-.512 1.046-.11-.4-.266-.712-.51-1.045-1.336-1.756-3.36-2.468-5.228-2.223C8.3 7.314 6.543 8.67 6.12 11.05c-.51 2.78.668 4.515 2.402 6.628 2.358 2.89 4.938 5.65 7.473 8.407 2.536-2.758 5.116-5.493 7.496-8.407 1.735-2.113 2.914-3.848 2.38-6.628z"/></g></symbol><symbol id="mail" viewBox="0 0 32 32"><g fill-rule="evenodd"><path d="M12.103 15.633L4.573 24h22.854l-7.53-8.367-3.592 2.763-.305.235-.305-.234-3.592-2.763zm.35-.898l-.49-.44-.03.034L5.095 9h21.808l-6.836 5.33-.03-.036-.49.44L16 17.5l-3.547-2.765zm-1.145.287L4 23.142V9.4l7.308 5.622zM28 9.4v13.74l-7.308-8.118L28 9.4z"/></g></symbol><symbol id="star" viewBox="0 0 32 32"><g fill-rule="evenodd"><path d="M15.904 4.104l-3.552 7.263-7.995 1.194 5.804 5.622-1.335 7.973 7.143-3.788 7.18 3.737-1.39-7.967 5.756-5.665-8.004-1.13-3.606-7.238z"/></g></symbol><symbol id="twitter" viewBox="0 0 32 32"><g fill-rule="evenodd"><path d="M24.41 10.292a4.552 4.552 0 0 0 1.982-2.516c-.87.52-1.837.9-2.863 1.103a4.496 4.496 0 0 0-3.298-1.437c-2.492 0-4.513 2.037-4.513 4.548 0 .357.04.704.117 1.036-3.75-.19-7.078-2-9.305-4.75a4.563 4.563 0 0 0-.61 2.287 4.55 4.55 0 0 0 2.006 3.784 4.482 4.482 0 0 1-2.045-.57v.06a4.54 4.54 0 0 0 3.62 4.46 4.52 4.52 0 0 1-2.037.076 4.518 4.518 0 0 0 4.216 3.156A9.005 9.005 0 0 1 5 23.41a12.687 12.687 0 0 0 6.917 2.045c8.304 0 12.845-6.93 12.845-12.94 0-.195-.006-.39-.015-.586A9.214 9.214 0 0 0 27 9.575a8.913 8.913 0 0 1-2.59.716z"/></g></symbol></svg>