<svg xmlns="http://www.w3.org/2000/svg" class="hide">

	<symbol id="feed" viewBox="0 0 32 32"><title>feed</title><g fill-rule="evenodd"><g stroke-width=".1"><g stroke-opacity=".388" stroke="#50E3C2"><path d="M26.667 29.333H5.334V2.666h21.333v26.667z"/><path d="M29.333 26.667H2.666V5.334h26.667v21.333z"/></g><g stroke-opacity=".388" stroke="#50E3C2"><path d="M28 4H4v24h24V4z"/><path d="M16 2.667C8.636 2.667 2.667 8.637 2.667 16c0 7.364 5.97 13.334 13.333 13.334 7.364 0 13.333-5.97 13.333-13.334 0-7.363-5.97-13.333-13.333-13.333"/></g><g stroke="#E350D5" stroke-opacity=".336"><path d="M16 32V0M32 16H0"/></g><g stroke="#E350D5" stroke-opacity=".336"><path d="M0 0l32 32M32 0L0 32"/></g></g><path d="M7 13.333V16.5c5.24 0 9.5 4.26 9.5 9.5h3.167c0-6.995-5.672-12.667-12.667-12.667zM7 7v3.167c8.73 0 15.833 7.103 15.833 15.833H26C26 15.507 17.493 7 7 7zm2.375 14.25a2.375 2.375 0 1 0 0 4.75 2.375 2.375 0 0 0 0-4.75z"/></g></symbol>

	<symbol id="heart" viewBox="0 0 24 24"><title>heart</title><path d="M21.66 7a4.68 4.68 0 0 0-4.05-4 5.47 5.47 0 0 0-5.1 2.16 3 3 0 0 0-.51 1 3 3 0 0 0-.51-1A5.47 5.47 0 0 0 6.39 3a4.68 4.68 0 0 0-4.05 4c-.5 2.69.66 4.38 2.35 6.44C7 16.27 9.52 19 12 21.65c2.48-2.69 5-5.38 7.31-8.21C21 11.38 22.16 9.69 21.66 7z"/></symbol>

	<symbol id="mail" viewBox="0 0 32 32"><title>mail</title><g fill-rule="evenodd"><g stroke-width=".1"><g stroke-opacity=".388" stroke="#50E3C2"><path d="M26.667 29.333H5.334V2.666h21.333v26.667z"/><path d="M29.333 26.667H2.666V5.334h26.667v21.333z"/></g><g stroke-opacity=".388" stroke="#50E3C2"><path d="M28 4H4v24h24V4z"/><path d="M16 2.667C8.636 2.667 2.667 8.637 2.667 16c0 7.364 5.97 13.334 13.333 13.334 7.364 0 13.333-5.97 13.333-13.334 0-7.363-5.97-13.333-13.333-13.333"/></g><g stroke="#E350D5" stroke-opacity=".336"><path d="M16 32V0M32 16H0"/></g><g stroke="#E350D5" stroke-opacity=".336"><path d="M0 0l32 32M32 0L0 32"/></g></g><path d="M12.103 15.633L4.573 24h22.854l-7.53-8.367-3.592 2.763-.305.235-.305-.234-3.592-2.763zm.35-.898l-.49-.44-.03.034L5.095 9h21.808l-6.836 5.33-.03-.036-.49.44L16 17.5l-3.547-2.765zm-1.145.287L4 23.142V9.4l7.308 5.622zM28 9.4v13.74l-7.308-8.118L28 9.4z"/></g></symbol>

	<symbol id="twitter" viewBox="0 0 24 24"><title>twitter</title><path d="M23 5.24a9 9 0 0 1-2.59.71 4.53 4.53 0 0 0 2-2.5 9 9 0 0 1-2.87 1.1 4.52 4.52 0 0 0-7.69 4.12 12.81 12.81 0 0 1-9.3-4.72 4.52 4.52 0 0 0 1.4 6 4.5 4.5 0 0 1-2-.56v.08a4.52 4.52 0 0 0 3.55 4.42 4.52 4.52 0 0 1-2 .08 4.52 4.52 0 0 0 4.18 3.13 9.06 9.06 0 0 1-5.6 1.9A9.19 9.19 0 0 1 1 19a12.78 12.78 0 0 0 6.92 2A12.75 12.75 0 0 0 20.76 8.16v-.58A9.17 9.17 0 0 0 23 5.24z"/></symbol>

</svg>
