<svg xmlns="http://www.w3.org/2000/svg" class="hide"><symbol id="arrow" viewBox="0 0 32 32"><g fill-rule="evenodd"><path d="M16.556 6.556L15 5 4 16l11 11 1.556-1.556L7.11 16l9.446-9.444z"/><path d="M5 15h22v2H5z"/></g></symbol><symbol id="feed" viewBox="0 0 32 32"><g fill-rule="evenodd"><path d="M7 13.333V16.5c5.24 0 9.5 4.26 9.5 9.5h3.167c0-6.995-5.672-12.667-12.667-12.667zM7 7v3.167c8.73 0 15.833 7.103 15.833 15.833H26C26 15.507 17.493 7 7 7zm2.375 14.25a2.375 2.375 0 1 0 0 4.75 2.375 2.375 0 0 0 0-4.75z"/></g></symbol><symbol id="heart" viewBox="0 0 32 32"><g fill-rule="evenodd"><path d="M25.87 11.05c-.444-2.38-2.18-3.736-4.136-4.003-1.846-.245-3.893.467-5.227 2.224-.245.334-.4.646-.512 1.046-.11-.4-.266-.712-.51-1.045-1.336-1.756-3.36-2.468-5.228-2.223C8.3 7.314 6.543 8.67 6.12 11.05c-.51 2.78.668 4.515 2.402 6.628 2.358 2.89 4.938 5.65 7.473 8.407 2.536-2.758 5.116-5.493 7.496-8.407 1.735-2.113 2.914-3.848 2.38-6.628z"/></g></symbol><symbol id="mail" viewBox="0 0 32 32"><g fill-rule="evenodd"><path d="M12.103 15.633L4.573 24h22.854l-7.53-8.367-3.592 2.763-.305.235-.305-.234-3.592-2.763zm.35-.898l-.49-.44-.03.034L5.095 9h21.808l-6.836 5.33-.03-.036-.49.44L16 17.5l-3.547-2.765zm-1.145.287L4 23.142V9.4l7.308 5.622zM28 9.4v13.74l-7.308-8.118L28 9.4z"/></g></symbol><symbol id="twitter" viewBox="0 0 32 32"><g fill-rule="evenodd"><path d="M24.41 10.292a4.552 4.552 0 0 0 1.982-2.516c-.87.52-1.837.9-2.863 1.103a4.496 4.496 0 0 0-3.298-1.437c-2.492 0-4.513 2.037-4.513 4.548 0 .357.04.704.117 1.036-3.75-.19-7.078-2-9.305-4.75a4.563 4.563 0 0 0-.61 2.287 4.55 4.55 0 0 0 2.006 3.784 4.482 4.482 0 0 1-2.045-.57v.06a4.54 4.54 0 0 0 3.62 4.46 4.52 4.52 0 0 1-2.037.076 4.518 4.518 0 0 0 4.216 3.156A9.005 9.005 0 0 1 5 23.41a12.687 12.687 0 0 0 6.917 2.045c8.304 0 12.845-6.93 12.845-12.94 0-.195-.006-.39-.015-.586A9.214 9.214 0 0 0 27 9.575a8.913 8.913 0 0 1-2.59.716z"/></g></symbol></svg>