<svg xmlns="http://www.w3.org/2000/svg" viewBox="0 0 94.95 94.95"><title>Triggers &amp; Sparks</title><circle cx="47.47" cy="47.48" r="47.47" style="fill:#140002"/><circle cx="47.47" cy="47.48" r="45.25" style="fill:#140002;stroke:#fff;stroke-miterlimit:10"/><path d="M70.11,50.39c-1.19-.33-1.14-1.1-1.72-1.87a6.23,6.23,0,0,0-2.43-1.62l-4.57-2.29c-1.16-.58-2.57-1.54-3.92-1.42h0L39,34a1.58,1.58,0,0,0-2.57-1.29l-2.49-1.25A3,3,0,0,0,33,32.5a3.28,3.28,0,0,0-.35,1.37L56.18,45.63,56,46,37,36.43a1.62,1.62,0,0,0-.58.63,1.43,1.43,0,0,0-.15.8h0l19,9.52-0.19.39a1.73,1.73,0,0,0,.39.83,2.26,2.26,0,0,1,0,1.39c-0.15.51-.83,1.31-0.36,1.79s1.56,0.7,2.18,1.35,1.5,2.13.26,3.27c0,0,0,0,.13,0a2.35,2.35,0,0,0-.8,1c-0.58,1.47.46,3.27,2.32,4a3.66,3.66,0,0,0,4-.59l-0.07.2c1.4-1.27,3.58.85,3.87,2.73a8,8,0,0,1-1,4.45c-0.43.9-1.69,2.14-1,3.08a9.32,9.32,0,0,0,3.59,2.5c1.15,0.53,2.47,1.17,3.7.8l0.09,0c0.46-.18.49-1.31,0.59-1.94a36,36,0,0,0,.47-4.12c0.18-3.24-.09-6.63-2.36-9.16a8.62,8.62,0,0,0-2.88-2.1c-0.74-.33,0-1.43-0.43-2.19a6,6,0,0,0-1.18-1c-0.34-.38.89-0.22,1-0.23,0.76-.06,1.08-1.59,1.23-2.18a2.07,2.07,0,0,0,2.42-.41A1.49,1.49,0,0,1,73,50.79C72.06,49.3,71.09,50.67,70.11,50.39ZM63.44,60c-0.52,1.31-2.34,1.83-4,1.15s-2.68-2.3-2.15-3.62,2.34-1.83,4-1.15a4,4,0,0,1,.59.29,0.5,0.5,0,0,0,.13.18,1.3,1.3,0,0,1,.21,1.93,1.52,1.52,0,0,1-1.65.8,1.33,1.33,0,0,0,.74.35c0.88,0.15,1.58-.18,2-1.45l0.07-.08A2.16,2.16,0,0,1,63.44,60Zm-2-3.9a1.45,1.45,0,0,1,.29.13l-0.28-.12h0Zm3-3.24h0l-0.22.46L61.5,52l-0.29-.71-3.14-1.57L58.41,49l6.32,3.16Zm1.07-2.13-6.32-3.16,0.48-1,6.32,3.16Z" style="fill:#fff"/><polygon points="22.24 21.67 22.31 24.19 24.42 25.56 22.05 26.4 21.39 28.83 19.86 26.83 17.34 26.96 18.77 24.89 17.87 22.53 20.29 23.25 22.24 21.67" style="fill:#fecd00"/><polygon points="27.99 27.86 29.02 29.2 30.71 29.11 29.75 30.5 30.36 32.08 28.74 31.6 27.42 32.66 27.38 30.97 25.96 30.05 27.55 29.49 27.99 27.86" style="fill:#fecd00"/></svg>
