<?xml version="1.0" standalone="no"?>
<!DOCTYPE svg PUBLIC "-//W3C//DTD SVG 1.1//EN" "http://www.w3.org/Graphics/SVG/1.1/DTD/svg11.dtd" >
<svg xmlns="http://www.w3.org/2000/svg">
<metadata>
This is a custom SVG webfont generated by Font Squirrel.
Copyright   : Copyright C 19962005 Hoefler  FrereJones Inc wwwtypographycom
</metadata>
<defs>
<font id="webfontqDqB1wiL" horiz-adv-x="1064" >
<font-face units-per-em="2048" ascent="1638" descent="-410" />
<missing-glyph horiz-adv-x="450" />
<glyph unicode=" "  horiz-adv-x="450" />
<glyph unicode="&#x09;" horiz-adv-x="450" />
<glyph unicode="&#xa0;" horiz-adv-x="450" />
<glyph unicode="!" horiz-adv-x="569" d="M403 1202q0 -68 -90 -809h-53q-90 741 -90 809q0 63 33 98t84 35q53 0 84.5 -35t31.5 -98zM412 96q0 -51 -38 -89t-89.5 -38t-89 38t-37.5 89t37.5 89t89 38t89.5 -38t38 -89z" />
<glyph unicode="&#x22;" horiz-adv-x="759" d="M702 1253q0 -23 -8 -47q-20 -51 -125 -213l-90 -141l-45 20l35 162q43 207 57 238q29 63 86 63q31 0 60.5 -24.5t29.5 -57.5zM369 1253q0 -29 -7 -47q-25 -61 -122 -213l-93 -141l-45 20l35 162q43 207 60 238q29 63 84 63q31 0 59.5 -24.5t28.5 -57.5z" />
<glyph unicode="#" horiz-adv-x="1271" d="M1174 793h-244l-53 -177l-43 -172h256v-88h-277l-86 -307l-106 23l88 284h-287l-86 -307l-107 23l88 284h-219v88h242l57 191l39 158h-254v88h279l92 325l102 -22l-90 -303h287l92 325l103 -22l-91 -303h218v-88zM827 793h-288l-54 -177l-43 -172h289l57 191z" />
<glyph unicode="$" horiz-adv-x="1120" d="M981 352q0 -164 -116.5 -268t-313.5 -113l-16 -215l-84 8l16 205q-172 8 -330 76l-20 348l49 4q57 -164 128 -247.5t183 -104.5l39 528q-190 70 -274 149t-84 204q0 147 112.5 249.5t294.5 110.5l15 187l84 -11l-15 -178q133 -8 271 -51l8 -307l-49 -6 q-55 127 -108.5 193.5t-133.5 88.5l-33 -479q207 -72 292 -156t85 -215zM565 1217q-102 6 -180 -55.5t-78 -166.5q0 -90 50.5 -145t172.5 -100zM829 289q0 94 -54 152.5t-185 107.5l-39 -510q117 -4 197.5 63.5t80.5 186.5z" />
<glyph unicode="%" horiz-adv-x="1658" d="M727 965q0 -131 -92 -232.5t-238 -101.5q-143 0 -227 92t-84 229q0 133 93 232.5t239 99.5q143 0 226 -91t83 -228zM307 -12l488 659l471 670l86 -55l-488 -656l-471 -672zM1573 301q0 -131 -92 -232.5t-238 -101.5q-143 0 -227 92.5t-84 229.5q0 133 93 232.5t239 99.5 q143 0 226 -91.5t83 -228.5zM575 961q0 127 -46 194.5t-126 67.5q-76 0 -121.5 -70t-45.5 -199q0 -127 48 -194.5t126 -67.5q165 1 165 269zM1081 291q0 -127 48.5 -194.5t125.5 -67.5q166 0 166 268q0 127 -46 194.5t-126 67.5q-76 0 -122 -69.5t-46 -198.5z" />
<glyph unicode="&#x26;" horiz-adv-x="1443" d="M1413 719v-53l-147 -56l-277 -346q72 -94 126 -126t142 -32q43 0 113 5l14 -39q-143 -102 -274 -103q-61 0 -117.5 39t-128.5 133q-98 -92 -186 -132t-195 -40q-180 0 -294.5 97.5t-114.5 248.5q0 233 270 375l76 41q-115 150 -115 268q0 127 96.5 207t233.5 80 q139 0 222 -71.5t83 -172.5q0 -82 -52 -150.5t-167 -141.5l-66 -41l291 -387l189 290l-113 60v47h391zM776 1044q0 78 -42 125.5t-111.5 47.5t-112.5 -44.5t-43 -119.5q0 -90 94 -217l60 -80q84 84 119.5 146t35.5 142zM821 197l-362 487l-39 -37q-78 -70 -114 -137.5 t-36 -153.5q0 -115 80 -185.5t201 -70.5q137 1 270 97z" />
<glyph unicode="'" horiz-adv-x="436" d="M375 1253q0 -23 -8 -47q-25 -61 -123 -213l-92 -141l-46 20l35 162q43 207 58 238q31 63 86 63q31 0 60.5 -24.5t29.5 -57.5z" />
<glyph unicode="(" horiz-adv-x="739" d="M291 577.5q0 -321.5 133 -547t364 -339.5l-26 -53q-279 113 -457 356.5t-178 583.5t178 583.5t457 356.5l26 -54q-231 -115 -364 -340t-133 -546.5z" />
<glyph unicode=")" horiz-adv-x="739" d="M612 578q0 -340 -178 -584t-457 -356l-26 53q231 115 364.5 340t133.5 546.5t-133.5 547t-364.5 339.5l26 54q279 -113 457 -356.5t178 -583.5z" />
<glyph unicode="*" horiz-adv-x="868" d="M82 1090l53 106l266 -205l17 8l-45 330h123l-45 -330l16 -8l266 205l53 -106l-303 -125v-23l303 -125l-53 -106l-266 204l-16 -8l45 -329h-123l45 329l-17 8l-266 -204l-53 106l303 125v23z" />
<glyph unicode="+" d="M969 573h-377v-387h-117v387h-379v109h379v381h117v-381h377v-109z" />
<glyph unicode="," horiz-adv-x="473" d="M379 57q0 -225 -291 -405l-37 41q190 145 213 297l-12 6l-4 -2q-18 -10 -49 -10q-41 0 -67 30.5t-26 77.5q0 53 37 91t90 38q68 0 107 -45t39 -119z" />
<glyph unicode="-" horiz-adv-x="749" d="M641 408h-532v145h532v-145z" />
<glyph unicode="." horiz-adv-x="473" d="M365 94q0 -53 -37 -90t-90.5 -37t-91 37t-37.5 90t37.5 90t91 37t90.5 -37t37 -90z" />
<glyph unicode="/" horiz-adv-x="882" d="M948 1485l-428 -955l-403 -960l-113 35l428 952l404 961z" />
<glyph unicode="0" horiz-adv-x="1171" d="M1075 627q0 -285 -135 -471.5t-362 -186.5q-236 0 -360 183.5t-124 474.5q0 287 135.5 473t362.5 186q236 0 359.5 -183t123.5 -476zM866 626.5q0 288.5 -86 437t-213 148.5q-264 0 -264 -585.5t299 -585.5q113 0 188.5 148.5t75.5 437z" />
<glyph unicode="1" horiz-adv-x="806" d="M512 125l223 -64v-61h-635v61l228 64v958l-230 68v53l394 68l20 -17v-1130z" />
<glyph unicode="2" horiz-adv-x="1071" d="M698 881q0 117 -65.5 185.5t-169.5 68.5q-82 0 -140.5 -37t-146.5 -129l-47 39q158 279 403 278q170 0 266.5 -95t96.5 -261q0 -158 -113.5 -306.5t-474.5 -449.5l8 -18h437l161 198l41 -20l-80 -334h-811l-14 47q268 227 451 430q111 121 154.5 209.5t43.5 194.5z" />
<glyph unicode="3" horiz-adv-x="1009" d="M895 358q0 -162 -129 -275.5t-315 -113.5q-162 0 -262.5 55.5t-100.5 141.5q0 53 33 87t84 34q70 0 107.5 -53.5t19.5 -145.5q68 -43 149 -43q100 0 169 66.5t69 177.5q0 264 -424 291v57q211 82 294 159.5t83 172.5q0 80 -56.5 129t-150.5 49q-131 0 -293 -137l-43 45 q178 231 401 231q152 0 233 -76.5t81 -183.5q0 -111 -71 -188.5t-206 -143.5v-20q328 -64 328 -316z" />
<glyph unicode="4" horiz-adv-x="1148" d="M1061 377h-252v-256l213 -62v-59h-604v59l219 62v256h-545l-16 63l604 844l129 -12v-778h252v-117zM639 494v563h-21l-397 -563h418z" />
<glyph unicode="5" horiz-adv-x="1030" d="M913 408q0 -188 -133 -313.5t-321 -125.5q-158 0 -258.5 55.5t-100.5 141.5q0 53 33 87t84 34q72 0 107.5 -54.5t19.5 -144.5q66 -43 139 -43q113 0 185.5 80t72.5 219q0 137 -84 213t-221 76q-100 0 -217 -41l-41 20l72 641h502l86 101l49 -11l-45 -258h-514l-37 -303 l14 -12q78 25 174 25q199 0 316.5 -102.5t117.5 -284.5z" />
<glyph unicode="6" horiz-adv-x="1079" d="M981 440q0 -201 -126 -336t-320 -135q-190 0 -310.5 121t-120.5 356q0 340 252 580q217 207 527 283l16 -60q-217 -90 -354 -213q-137 -127 -209 -301l16 -8q133 96 264 96q168 0 266.5 -113.5t98.5 -269.5zM801 358q0 162 -72 257.5t-211 95.5q-94 0 -196 -54 q-31 -100 -31 -211q0 -176 74.5 -290.5t195.5 -114.5q106 0 173 88t67 229z" />
<glyph unicode="7" horiz-adv-x="987" d="M793 1087h-519l-112 -157l-53 10l57 377l53 10l47 -74h672l23 -30l-621 -1254h-182l297 500z" />
<glyph unicode="8" horiz-adv-x="1077" d="M684 670q285 -137 285 -346q0 -156 -123 -255.5t-307 -99.5q-193 0 -306.5 90.5t-113.5 223.5q0 215 297 333q-260 119 -260 322q0 147 117.5 247.5t283.5 100.5q174 0 277.5 -85t103.5 -214q0 -202 -254 -317zM623 696q78 74 112.5 141.5t34.5 157.5q0 98 -60.5 158.5 t-164.5 60.5q-98 0 -162 -63.5t-64 -153.5q0 -100 62 -160.5t242 -140.5zM469 594q-172 -133 -172 -299q0 -117 72.5 -186.5t195.5 -69.5q100 0 169 66.5t69 160.5q0 102 -70.5 173t-263.5 155z" />
<glyph unicode="9" horiz-adv-x="1079" d="M975 809q0 -340 -246 -573q-231 -219 -532 -289l-15 59q217 92 353 213q141 129 202 281l-16 8q-129 -96 -262 -96q-166 0 -263.5 115.5t-97.5 277.5q0 209 123 345t322 136q188 0 310 -126t122 -351zM788 809q0 188 -73.5 296.5t-196.5 108.5q-109 0 -174 -88t-65 -241 q0 -168 70.5 -264.5t205.5 -96.5q100 0 203 54q30 100 30 231z" />
<glyph unicode=":" horiz-adv-x="493" d="M375 694q0 -51 -38 -89t-89 -38q-53 0 -91 37t-38 90.5t38 90t91 36.5q51 0 89 -38t38 -89zM375 94q0 -53 -38 -90t-89 -37q-53 0 -91 37t-38 90t38 90t91 37q51 0 89 -37t38 -90z" />
<glyph unicode=";" horiz-adv-x="493" d="M381 694q0 -51 -37 -89t-90 -38t-90 38t-37 89t37 89t90 38t90 -38t37 -89zM379 57q0 -225 -291 -405l-37 41q190 145 213 297l-12 6l-4 -2q-18 -10 -49 -10q-41 0 -67 30.5t-26 77.5q0 53 37 91t90 38q68 0 107 -45t39 -119z" />
<glyph unicode="&#x3c;" d="M903 287l-26 -105l-734 393v105l734 391l26 -102l-643 -342z" />
<glyph unicode="=" d="M950 879v-113h-835v113h835zM950 373h-835v112h835v-112z" />
<glyph unicode="&#x3e;" d="M801 627l-643 342l28 102l732 -391v-105l-732 -393l-28 105z" />
<glyph unicode="?" horiz-adv-x="839" d="M778 1036q0 -98 -56 -160.5t-192 -134.5q-117 -61 -153.5 -96t-36.5 -80q0 -41 33 -66.5t86 -25.5q59 0 119 19l18 -52q-84 -47 -174 -47q-100 0 -170 51.5t-70 143.5q0 82 54.5 140t183.5 126q109 57 152.5 103.5t43.5 123.5q0 82 -55 133.5t-147 51.5q-74 0 -117 -35 q31 -51 31 -96q0 -53 -33 -87t-84 -34t-86 35.5t-35 91.5q0 86 89 140t222 54q164 0 270.5 -85t106.5 -214zM510 96q0 -51 -38 -89t-89 -38t-89 38t-38 89t38 89t89 38t89 -38t38 -89z" />
<glyph unicode="@" horiz-adv-x="1892" d="M1663 653q0 260 -188.5 434.5t-477.5 174.5q-313 0 -533 -222.5t-220 -550.5q0 -338 205.5 -548.5t556.5 -210.5q254 0 497 131l33 -37q-246 -188 -578 -189q-371 0 -608 219.5t-237 589.5q0 381 269 636t662 255q317 0 529.5 -184t212.5 -465q0 -268 -152.5 -437 t-337.5 -169q-104 0 -165.5 45t-73.5 121l-21 4q-133 -154 -254 -154q-94 0 -149 61.5t-55 170.5q0 197 162.5 386t326.5 189q80 0 145 -47l86 94l39 -10l-129 -575q-23 -98 7 -156.5t104 -58.5q137 0 240.5 140t103.5 363zM1155 739q-66 72 -139 72q-113 0 -201 -134 t-88 -302q0 -86 34 -129t89 -43q43 0 88 30.5t127 112.5z" />
<glyph unicode="A" horiz-adv-x="1382" d="M1214 113l166 -50v-63h-575v61l201 39l-127 357h-480l-123 -344l156 -52v-61h-434v63l166 56l457 1198h137zM846 547l-201 555h-16l-199 -555h416z" />
<glyph unicode="B" horiz-adv-x="1298" d="M1202 375q0 -166 -127 -270.5t-344 -104.5h-670v63l226 39v1100l-226 39v64h617q209 0 323.5 -81t114.5 -212q0 -231 -289 -305v-23q375 -57 375 -309zM485 719h179q117 0 181 69.5t64 198.5q0 127 -73.5 184.5t-192.5 57.5q-98 0 -158 -12v-498zM975 358.5 q0 282.5 -320 282.5h-170v-551q68 -14 172 -14q318 0 318 282.5z" />
<glyph unicode="C" horiz-adv-x="1390" d="M1262 348l-39 -270q-199 -109 -428 -109q-315 0 -509 184.5t-194 491.5q0 303 202 496.5t484 193.5q168 0 316 -65l63 71h57l17 -438l-57 -4q-96 180 -195.5 268t-235.5 88q-184 0 -301.5 -161.5t-117.5 -427.5q0 -293 142 -450t372 -157q92 0 161 31l220 272z" />
<glyph unicode="D" horiz-adv-x="1513" d="M287 1202l-224 39v64h648q328 0 519 -183.5t191 -468.5q0 -281 -202.5 -467t-520.5 -186h-635v63l224 39v1100zM1190 653q0 293 -141.5 426t-378.5 133h-183v-1120h228q475 0 475 561z" />
<glyph unicode="E" horiz-adv-x="1323" d="M1106 1305l49 -347l-39 -14l-131 162q-53 66 -94 84t-133 18h-271v-508h121q94 0 136 35t71 142l19 67h51v-571h-51l-19 63q-31 106 -73 142t-134 36h-121v-516h365q90 0 128 16.5t77 73.5l151 215l41 -8l-55 -395h-1131v63l224 39v1100l-224 39v64h1043z" />
<glyph unicode="F" horiz-adv-x="1214" d="M1157 958l-41 -14l-131 162q-51 63 -93 82.5t-138 19.5h-267v-516h125q92 0 132 35t69 143l18 68h52v-571h-52l-18 63q-31 109 -69.5 142.5t-131.5 33.5h-125v-504l236 -39v-63h-660v63l224 39v1100l-224 39v64h1045z" />
<glyph unicode="G" horiz-adv-x="1452" d="M1217 903l-58 -4q-98 190 -200.5 272t-237.5 82q-166 0 -281.5 -148.5t-115.5 -430.5q0 -293 130 -446.5t347 -153.5q123 0 243 65v348l-196 41v64h565v-64l-170 -41v-503l-53 -11l-109 101q-166 -104 -356 -105q-276 0 -454.5 182.5t-178.5 481.5q0 293 196.5 497.5 t489.5 204.5q170 0 301 -65l66 71h57z" />
<glyph unicode="H" horiz-adv-x="1683" d="M1196 727v475l-213 39v64h637v-64l-223 -39v-1100l223 -39v-63h-637v63l213 39v525h-709v-525l213 -39v-63h-637v63l224 39v1100l-224 39v64h637v-64l-213 -39v-475h709z" />
<glyph unicode="I" horiz-adv-x="835" d="M518 102l230 -39v-63h-662v63l231 39v1100l-231 39v64h662v-64l-230 -39v-1100z" />
<glyph unicode="J" horiz-adv-x="1056" d="M782 475q0 -143 -20.5 -228t-81.5 -153q-117 -131 -334 -131q-145 0 -215 53.5t-70 130.5q0 55 39 90t93 35q70 0 109.5 -62.5t39.5 -176.5q123 10 181.5 97t58.5 267v805l-226 39v64h645v-64l-219 -39v-727z" />
<glyph unicode="K" horiz-adv-x="1470" d="M786 733l492 -610l174 -60v-63h-541v57l140 49l-400 519h-164v-523l201 -39v-63h-625v63l224 39v1100l-224 39v64h625v-64l-201 -39v-485h177l413 463l-153 63v62h467v-64l-187 -72z" />
<glyph unicode="L" horiz-adv-x="1275" d="M1204 416l-53 -416h-1088v63l224 39v1100l-224 39v64h658v-64l-234 -39v-1102h316q84 0 122 21.5t87 87.5l153 215z" />
<glyph unicode="M" horiz-adv-x="1945" d="M1659 102l223 -39v-63h-645v63l223 39v1084h-24l-471 -1186h-95l-464 1186h-25v-1065l182 -58v-63h-469v63l182 58v1077l-182 43v64h481l78 -211l305 -813h31l307 813l78 211h508v-64l-223 -39v-1100z" />
<glyph unicode="N" horiz-adv-x="1566" d="M276 121v1061l-182 55v68h428l148 -209l514 -731h22v819l-202 57v64h491v-64l-182 -57v-1196h-103l-147 209l-655 919h-25v-995l203 -58v-63h-492v63z" />
<glyph unicode="O" horiz-adv-x="1462" d="M1366 653q0 -287 -178 -485.5t-465 -198.5q-297 0 -464 195.5t-167 488.5q0 285 178.5 483.5t464.5 198.5q297 0 464 -195.5t167 -486.5zM1135 653q0 291 -129 451t-299 160q-162 0 -272.5 -143.5t-110.5 -467.5q0 -168 36.5 -291.5t101 -191.5t136.5 -98.5t154 -30.5 q156 0 269.5 158.5t113.5 453.5z" />
<glyph unicode="P" horiz-adv-x="1228" d="M1147 940q0 -170 -125 -282.5t-322 -112.5q-94 0 -213 18v-461l230 -39v-63h-654v63l224 39v1100l-224 39v64h601q225 0 354 -99.5t129 -265.5zM926 932q0 147 -79 219t-218 72q-80 0 -142 -13v-569q61 -10 142 -10q297 0 297 301z" />
<glyph unicode="Q" horiz-adv-x="1462" d="M1366 653q0 -266 -145.5 -444t-376.5 -223q133 -199 246 -271q109 -72 280 -86l-6 -57h-195q-219 0 -309 66q-53 41 -143 192l-88 150q-252 39 -394.5 219t-142.5 454q0 285 178.5 483.5t464.5 198.5q297 0 464 -195.5t167 -486.5zM1135 653q0 291 -129 451t-299 160 q-162 0 -272.5 -143.5t-110.5 -467.5q0 -168 36.5 -291.5t101 -191.5t136.5 -98.5t154 -30.5q156 0 269.5 158.5t113.5 453.5z" />
<glyph unicode="R" horiz-adv-x="1363" d="M1167 971q0 -250 -376 -326v-22q150 -47 233 -209q10 -23 32 -66l34 -66l29 -55q17 -31 30.5 -50t28.5 -34q66 -66 206 -82v-61h-200q-115 0 -169 44t-118 173l-115 236q-43 88 -88 115.5t-135 27.5h-72v-494l213 -39v-63h-637v63l224 39v1100l-224 39v64h609 q236 0 365.5 -89t129.5 -245zM944 961q0 264 -313 264q-82 0 -144 -13v-530h144q145 0 229 70t84 209z" />
<glyph unicode="S" horiz-adv-x="1091" d="M983 379q0 -193 -133 -301.5t-301 -108.5q-170 0 -299 62l-53 -68h-64l-24 449l61 4q88 -215 175 -297t218 -82q113 0 181.5 65.5t68.5 173.5q0 96 -54 159t-194 122q-18 8 -83.5 34.5t-102.5 45.5q-113 55 -169 133t-56 195q0 170 115.5 270t271.5 100q133 0 235 -61 l53 67h64l35 -393l-64 -4q-84 182 -159.5 253t-182.5 71q-86 0 -142 -57.5t-56 -151.5q0 -88 46 -146.5t152 -103.5l215 -94q127 -61 186.5 -141t59.5 -195z" />
<glyph unicode="T" horiz-adv-x="1378" d="M1325 920l-43 -13l-111 158q-66 92 -109.5 120.5t-123.5 28.5h-137v-1112l237 -39v-63h-676v63l238 39v1112h-151q-78 0 -123 -28.5t-111 -120.5l-111 -158l-41 13l72 385h1116z" />
<glyph unicode="U" horiz-adv-x="1531" d="M1184 1184l-183 57v64h469v-64l-182 -57v-729q0 -213 -135 -351.5t-373 -138.5q-252 0 -388 117t-136 348v772l-203 39v64h631v-64l-223 -39v-741q0 -385 379 -385q164 0 254 107.5t90 281.5v719z" />
<glyph unicode="V" horiz-adv-x="1388" d="M1227 1184l-475 -1196h-90l-480 1204l-184 49v64h608v-64l-207 -39l359 -954l358 936l-162 57v64h445v-64z" />
<glyph unicode="W" horiz-adv-x="2064" d="M1165 1206l328 -936h4l295 916l-166 57v62h440v-62l-174 -57l-409 -1198h-80l-348 954h-4l-377 -954h-80l-401 1208l-185 47v62h590v-62l-197 -37l283 -934h4l313 811l-38 113l-168 47v62h557v-62z" />
<glyph unicode="X" horiz-adv-x="1480" d="M1212 1184l-391 -482l414 -591l182 -50v-61h-596v57l189 37l-299 469l-332 -452l151 -54v-57h-462v61l188 60l408 506l-396 565l-192 49v64h606v-60l-188 -37l282 -444l314 430l-154 51v60h465v-64z" />
<glyph unicode="Y" horiz-adv-x="1347" d="M1192 1184l-401 -606v-476l237 -39v-63h-676v63l238 39v441l-412 651l-184 47v64h594v-64l-187 -37l340 -559l330 545l-180 51v64h469v-64z" />
<glyph unicode="Z" horiz-adv-x="1327" d="M1229 410l-53 -410h-1082l-8 43l858 1171h-389q-84 0 -128 -25.5t-99 -96.5l-129 -162l-43 14l49 361h993l8 -43l-858 -1170h483q80 0 121 22.5t84 86.5l150 217z" />
<glyph unicode="[" horiz-adv-x="661" d="M707 1442h-363v-1727h363v-82h-521v1891h521v-82z" />
<glyph unicode="\" horiz-adv-x="882" d="M47 1518l404 -961l428 -952l-113 -35l-404 960l-428 957z" />
<glyph unicode="]" horiz-adv-x="661" d="M317 1442h-362v82h520v-1891h-520v82h362v1727z" />
<glyph unicode="^" horiz-adv-x="612" d="M307 1282l-221 -211l-45 39l242 363h63l225 -363l-45 -39z" />
<glyph unicode="_" horiz-adv-x="901" d="M905 94v-94h-909v94h909z" />
<glyph unicode="`" horiz-adv-x="487" d="M358 1112l-41 -29l-74 74l-78 78l-56 60q-31 34 -46 55q-25 41 -18.5 77.5t39.5 59.5q33 20 69.5 10t61.5 -47q43 -66 143 -338z" />
<glyph unicode="a" horiz-adv-x="1112" d="M309 338l-84 -227l137 -60v-51h-376v53l133 60l364 917h142l356 -934l129 -43v-53h-481v51l162 41l-91 246h-391zM672 416l-160 436h-18l-158 -436h336z" />
<glyph unicode="b" horiz-adv-x="1079" d="M997 289q0 -125 -105.5 -207t-275.5 -82h-544v53l166 35v832l-166 34v56h514q170 0 264 -63.5t94 -166.5q0 -176 -237 -235v-21q290 -40 290 -235zM420 561h125q100 0 156.5 54.5t56.5 142.5q0 94 -63.5 138t-162.5 44q-68 0 -112 -8v-371zM791 278.5 q0 100.5 -62.5 155.5t-187.5 55h-121v-411q35 -8 125 -8q117 0 181.5 54t64.5 154.5z" />
<glyph unicode="c" horiz-adv-x="1116" d="M1020 354l-39 -295q-170 -90 -352 -90q-248 0 -398.5 138.5t-150.5 381.5q0 240 163 395.5t388 155.5q131 0 246 -55l51 62h49l27 -365l-66 -4q-82 162 -155.5 226.5t-170.5 64.5q-135 0 -230 -121t-95 -340q0 -227 104.5 -343t270.5 -116q82 0 141 33l166 289z" />
<glyph unicode="d" horiz-adv-x="1218" d="M238 920l-166 34v56h516q256 0 403.5 -139.5t147.5 -362.5q0 -217 -154 -362.5t-412 -145.5h-501v53l166 35v832zM932 504q0 223 -102.5 324.5t-274.5 101.5h-135v-850h164q348 0 348 424z" />
<glyph unicode="e" horiz-adv-x="1089" d="M944 1010l33 -293l-45 -8l-94 131q-35 47 -77 66.5t-116 19.5h-225v-373h67q129 0 183 115l24 59h45v-424h-45l-24 57q-57 119 -183 119h-67v-395h268q119 0 168 74l117 172l45 -8l-41 -322h-905v53l166 35v832l-166 34v56h872z" />
<glyph unicode="f" horiz-adv-x="1017" d="M958 711l-40 -11l-95 140q-61 86 -190 86h-213v-396h74q127 0 176 115l26 60h43v-424h-43l-26 57q-53 119 -176 119h-74v-369l178 -35v-53h-526v53l166 35v832l-166 34v56h860z" />
<glyph unicode="g" horiz-adv-x="1163" d="M975 682l-62 -4q-72 154 -146.5 221.5t-166.5 67.5q-127 0 -220 -113t-93 -330q0 -223 101 -343t253 -120q100 0 164 52v274l-164 37v55h465v-55l-121 -33v-407l-51 -11l-86 93q-127 -96 -270 -97q-217 0 -357.5 143.5t-140.5 379.5q0 231 161.5 389.5t389.5 158.5 q133 0 231 -55l47 62h56z" />
<glyph unicode="h" horiz-adv-x="1347" d="M926 563v357l-158 34v56h508v-56l-168 -34v-832l168 -35v-53h-508v53l158 35v387h-506v-387l155 -35v-53h-503v53l166 35v832l-166 34v56h503v-56l-155 -34v-357h506z" />
<glyph unicode="i" horiz-adv-x="714" d="M449 88l172 -35v-53h-527v53l172 35v832l-172 34v56h527v-56l-172 -34v-832z" />
<glyph unicode="j" horiz-adv-x="890" d="M684 418q0 -231 -96 -336q-98 -113 -303 -113q-113 0 -178.5 47t-65.5 119q0 45 32.5 78t78.5 33q66 0 100 -58q31 -51 31 -133v-20q111 10 165 87t54 243v555l-176 34v56h522v-56l-164 -34v-502z" />
<glyph unicode="k" horiz-adv-x="1196" d="M672 571l354 -467l129 -51v-53h-440v47l108 41l-274 383h-129v-383l147 -35v-53h-495v53l166 35v832l-166 34v56h495v-56l-147 -34v-365h137l293 346l-131 55v54h418v-56l-158 -61z" />
<glyph unicode="l" horiz-adv-x="1026" d="M961 377l-43 -377h-846v53l166 35v832l-166 34v56h524v-56l-176 -34v-836h188q68 0 97.5 18.5t68.5 71.5l152 211z" />
<glyph unicode="m" horiz-adv-x="1568" d="M1329 88l168 -35v-53h-510v53l160 35v803h-33l-328 -891h-106l-328 891h-28v-789l143 -49v-53h-383v53l143 49v816l-143 36v56h416l59 -168l219 -627h8l215 627l54 168h442v-56l-168 -34v-832z" />
<glyph unicode="n" horiz-adv-x="1275" d="M227 102v803l-141 45v60h348l111 -164l413 -572h17v631l-156 49v56h400v-56l-146 -49v-915h-133l-133 192l-463 645h-18v-725l157 -49v-53h-399v53z" />
<glyph unicode="o" horiz-adv-x="1189" d="M1110 504q0 -223 -141.5 -379t-378.5 -156q-246 0 -378 153.5t-132 381.5q0 225 141 380.5t379 155.5q244 0 377 -153.5t133 -382.5zM903 504q0 223 -95 347t-228 124q-125 0 -209 -113.5t-84 -357.5t93 -357.5t230 -113.5q121 0 207 125t86 346z" />
<glyph unicode="p" horiz-adv-x="1019" d="M956 715q0 -137 -107.5 -228.5t-279.5 -91.5q-68 0 -149 13v-320l178 -35v-53h-526v53l166 35v832l-166 34v56h465q201 0 310 -80t109 -215zM752 711q0 225 -234 225q-59 0 -98 -6v-455q35 -6 102 -6q230 0 230 242z" />
<glyph unicode="q" horiz-adv-x="1189" d="M1110 504q0 -190 -108.5 -335.5t-296.5 -182.5q90 -131 178 -189q70 -43 204 -61l-8 -51h-164q-178 0 -241 53q-43 33 -111 145l-57 97q-205 27 -315.5 173t-110.5 351q0 225 141 380.5t379 155.5q244 0 377 -153.5t133 -382.5zM903 504q0 223 -95 347t-228 124 q-125 0 -209 -113.5t-84 -357.5t93 -357.5t230 -113.5q121 0 207 125t86 346z" />
<glyph unicode="r" horiz-adv-x="1105" d="M969 754q0 -98 -84 -168t-226 -97v-18q145 -25 201 -149q68 -160 115 -207t141 -64v-51h-192q-78 0 -119 34t-80 132l-72 178q-25 63 -63.5 82.5t-118.5 19.5h-51v-358l162 -35v-53h-510v53l166 35v832l-166 34v56h497q193 0 296.5 -67.5t103.5 -188.5zM764 737 q0 94 -60.5 146.5t-166.5 52.5q-80 0 -117 -6v-408h104q104 0 172 58.5t68 156.5z" />
<glyph unicode="s" horiz-adv-x="948" d="M852 295q0 -156 -106.5 -241t-254 -85t-270.5 58l-43 -62h-57l-10 373l61 10q90 -174 169 -244.5t175 -70.5q88 0 140.5 49t52.5 131q0 72 -43 114t-138 83l-82 29q-59 22 -90 36q-100 43 -154.5 99.5t-54.5 152.5q0 147 96.5 230t233.5 83q117 0 209 -57l51 64h56 l18 -334l-61 -6q-147 270 -289 270q-76 0 -120 -43t-44 -117q0 -72 40 -111.5t130 -74.5q29 -12 88 -32.5t84 -31.5q100 -43 156.5 -104.5t56.5 -167.5z" />
<glyph unicode="t" horiz-adv-x="1112" d="M1051 676l-60 -12l-78 139q-43 74 -78.5 99.5t-103.5 25.5h-76v-840l176 -35v-53h-534v53l176 35v840h-88q-66 0 -105.5 -29t-76.5 -96l-74 -139l-61 12l41 334h903z" />
<glyph unicode="u" horiz-adv-x="1255" d="M954 905l-143 49v56h381v-56l-143 -49v-557q0 -172 -107.5 -275.5t-302.5 -103.5q-205 0 -316.5 93.5t-111.5 277.5v580l-150 34v56h494v-56l-158 -34v-564q0 -147 78 -217.5t211 -70.5q127 0 197.5 78.5t70.5 207.5v551z" />
<glyph unicode="v" horiz-adv-x="1114" d="M995 893l-366 -913h-115l-367 931l-139 43v56h494v-56l-160 -34l279 -752l266 727l-139 59v56h380v-56z" />
<glyph unicode="w" horiz-adv-x="1632" d="M795 768l-54 147l-118 41v54h454v-54l-151 -41l245 -700h5l208 680l-149 59v56h381v-56l-127 -61l-311 -913h-95l-243 665h-4l-273 -665h-94l-303 931l-139 43v56h469v-54l-146 -34l219 -705h4z" />
<glyph unicode="x" horiz-adv-x="1173" d="M631 590l215 317l-123 51v52h403v-56l-155 -53l-287 -373l307 -434l142 -41v-53h-494v51l141 37l-219 340l-227 -328l125 -51v-49h-406v53l154 56l301 378l-297 428l-148 39v56h498v-52l-141 -38z" />
<glyph unicode="y" horiz-adv-x="1089" d="M944 901l-301 -465v-346l176 -37v-53h-532v53l174 37v324l-305 495l-142 45v56h486v-54l-148 -36l250 -410l227 395l-137 51v54h389v-56z" />
<glyph unicode="z" horiz-adv-x="1073" d="M979 356l-33 -356h-862l-6 66l674 862h-275q-125 0 -196 -107l-95 -137l-57 10l33 316h807l6 -66l-674 -864h338q68 0 105.5 21.5t68.5 76.5l109 184z" />
<glyph unicode="{" horiz-adv-x="794" d="M492 930q0 -88 -16.5 -148.5t-55.5 -96.5t-85 -55.5t-122 -35.5v-21q76 -16 122 -35.5t85 -55.5t55.5 -96t16.5 -148v-181q0 -180 64.5 -246.5t252.5 -97.5v-63q-266 10 -374.5 102t-108.5 334v184q0 137 -60.5 196.5t-212.5 78.5v78q152 18 212.5 77.5t60.5 196.5v184 q0 242 108.5 334t374.5 103v-64q-188 -31 -252.5 -98.5t-64.5 -247.5v-178z" />
<glyph unicode="|" horiz-adv-x="602" d="M360 -494h-118l10 965l-10 965h118l-10 -965z" />
<glyph unicode="}" horiz-adv-x="794" d="M469 897q0 -137 60.5 -196.5t211.5 -77.5v-78q-152 -18 -212 -77.5t-60 -197.5v-184q0 -242 -108.5 -334t-374.5 -102v63q188 31 252.5 97.5t64.5 246.5v181q0 88 16.5 148t55.5 96t85 55.5t122 35.5v21q-76 16 -122 35.5t-85 55.5t-55.5 96.5t-16.5 148.5v178 q0 180 -64.5 247.5t-252.5 98.5v64q266 -10 374.5 -102.5t108.5 -334.5v-184z" />
<glyph unicode="~" horiz-adv-x="759" d="M250 768q55 0 157.5 -49t131.5 -49q27 0 45 25.5t49 97.5l61 -15q-25 -129 -65.5 -188.5t-114.5 -59.5q-55 0 -156.5 49.5t-130.5 49.5q-27 0 -45 -25.5t-49 -97.5l-61 14q25 129 65.5 188.5t112.5 59.5z" />
<glyph unicode="&#xa1;" horiz-adv-x="569" d="M412 694q0 -51 -38 -89t-89.5 -38t-89 38t-37.5 89t37.5 89t89 38t89.5 -38t38 -89zM256 397h53q90 -741 90 -809q0 -63 -32.5 -98t-83.5 -35q-53 0 -85 35t-32 98q0 68 90 809z" />
<glyph unicode="&#xa2;" horiz-adv-x="983" d="M524 98q31 -6 68 -6q102 0 264 90l33 -41q-164 -172 -375 -170l-14 -202l-80 8l18 203q-164 31 -258 151.5t-94 290.5q0 184 121 326.5t307 169.5l14 186l78 -8l-14 -174q129 -2 223 -62.5t94 -140.5q0 -43 -27.5 -72t-70.5 -29q-53 0 -87 57.5t-24 145.5q-43 33 -114 37 l-39 -428zM256 457q0 -125 53 -211t144 -125l28 315l29 416q-117 -27 -185.5 -138.5t-68.5 -256.5z" />
<glyph unicode="&#xa3;" horiz-adv-x="1142" d="M868 678v-90h-299q4 -29 4 -51q0 -106 -43 -179t-149 -155l12 -25q76 4 214 -16.5t196 -20.5q80 0 121 50.5t69 177.5l72 -2q-16 -176 -88 -287t-195 -111q-143 0 -446 148q-31 -68 -79 -108t-97 -40q-47 0 -74 25.5t-27 64.5q0 57 59.5 96.5t176.5 45.5q100 125 100 266 q0 57 -24 121h-267v90h228q-43 98 -43 180q0 178 143 303t330 125q135 0 193.5 -47t58.5 -102q0 -49 -33 -83t-82 -34q-59 0 -107.5 46t-68.5 138q-115 -16 -179.5 -92t-64.5 -184q0 -37 7.5 -75t14.5 -58.5t24 -63.5l22 -53h321z" />
<glyph unicode="&#xa4;" horiz-adv-x="1220" d="M242 719h-185v82h201q59 215 222 350t366 135q137 0 205.5 -42t68.5 -109q0 -49 -31.5 -82t-80.5 -33q-63 0 -112.5 49t-66.5 141h-4q-135 -10 -242.5 -118.5t-144.5 -290.5h559v-82h-571q-4 -57 -4 -88q0 -61 6 -113h569v-82h-553q41 -168 151 -255t259 -87 q127 0 252 60l29 -43q-141 -141 -353 -142q-215 0 -358 122t-182 345h-185v82h174q0 10 -1 35t-1 37q1 66 13 129z" />
<glyph unicode="&#xa5;" horiz-adv-x="1339" d="M231 641h314l-326 500l-168 51v61h565v-61l-178 -37l285 -479l293 467l-150 49v61h420v-61l-160 -59l-340 -492h318v-76h-346v-164h346v-73h-346v-226l211 -41v-61h-602v61l208 41v226h-344v73h344v164h-344v76z" />
<glyph unicode="&#xa6;" horiz-adv-x="602" d="M360 612h-118l10 412l-10 412h118l-10 -412zM360 -494h-118l10 412l-10 412h118l-10 -412z" />
<glyph unicode="&#xa7;" horiz-adv-x="1075" d="M946 373q0 -248 -145.5 -411t-362.5 -163q-129 0 -210 48.5t-81 125.5q0 49 36 84t83 35q55 0 89 -31.5t34 -78.5q0 -35 -14 -70q45 -33 117 -33q94 0 170.5 59.5t115.5 159.5q-319 82 -484 273.5t-165 429.5q0 248 145.5 410.5t362.5 162.5q129 0 210 -48t81 -126 q0 -49 -36 -84t-83 -35q-55 0 -89 31t-34 80q0 35 14 70q-45 33 -116 32q-94 0 -171 -59t-116 -160q319 -82 484 -273t165 -429zM264 895q0 -211 135.5 -403.5t399.5 -331.5q12 57 12 119q0 211 -135 403t-400 332q-12 -60 -12 -119z" />
<glyph unicode="&#xa8;" horiz-adv-x="659" d="M516 1114q-49 0 -81 33t-32 82q0 51 36 88t89 37q49 0 80 -33t31 -82q0 -51 -35 -88t-88 -37zM131 1114q-49 0 -80 33t-31 82q0 51 35 88t88 37q49 0 81 -33t32 -82q0 -51 -36 -88t-89 -37z" />
<glyph unicode="&#xa9;" horiz-adv-x="1613" d="M1524 653q0 -297 -211 -508t-508 -211t-507 211t-210 508t210 507t507 210t508 -210t211 -507zM1460 653q0 272 -191.5 465t-463.5 193q-270 0 -461.5 -192.5t-191.5 -465.5q0 -274 191.5 -466.5t461.5 -192.5q272 0 463.5 192.5t191.5 466.5zM598 664q0 -158 72.5 -240 t189.5 -82q47 0 70 10l127 166l37 -10l-25 -184q-115 -55 -242 -56q-178 0 -285.5 102.5t-107.5 272.5q0 162 114 276.5t283 114.5q90 0 164 -35l29 48h41l14 -279l-45 -4q-49 109 -104.5 156t-130.5 47q-84 0 -142.5 -73.5t-58.5 -229.5z" />
<glyph unicode="&#xaa;" horiz-adv-x="839" d="M147 1159q0 74 97.5 125t212.5 51q199 0 198 -196v-361q0 -63 117 -57l6 -35q-74 -39 -151 -39q-88 0 -95 101l-16 2q-123 -102 -227 -103q-78 0 -124 44t-46 114q0 98 100 157.5t297 69.5v90q0 70 -36 100.5t-115 30.5q-53 0 -103 -14q43 -37 43 -82q0 -31 -21.5 -53.5 t-56.5 -22.5q-37 0 -58.5 23.5t-21.5 54.5zM258 840q0 -98 104 -99q66 0 154 52v188q-258 -14 -258 -141z" />
<glyph unicode="&#xab;" horiz-adv-x="1024" d="M690 459l244 -369l-53 -35l-396 385v37l396 385l53 -37zM274 459l244 -369l-53 -35l-393 385v37l393 385l53 -37z" />
<glyph unicode="&#xac;" d="M954 569h-843v117h843v-117z" />
<glyph unicode="&#xad;" horiz-adv-x="749" d="M641 408h-532v145h532v-145z" />
<glyph unicode="&#xae;" horiz-adv-x="856" d="M428 592q-164 0 -273.5 109.5t-109.5 271.5t110.5 272.5t272.5 110.5t272.5 -110.5t110.5 -272.5t-109.5 -271.5t-273.5 -109.5zM428 633q145 0 241.5 97t96.5 242.5t-96.5 244t-241.5 98.5t-241.5 -98.5t-96.5 -244t96.5 -242.5t241.5 -97zM596 1077q0 -80 -119 -100 v-14q70 -8 86 -56q18 -49 41 -73q18 -18 58 -21v-29h-89q-35 0 -48 13.5t-29 54.5l-27 61q-18 39 -63 39h-25v-123l65 -16v-29h-215v29l68 16v306l-68 14v29h224q68 0 104.5 -29t36.5 -72zM510 1069q0 72 -86 72h-43v-152h49q35 0 57.5 21.5t22.5 58.5z" />
<glyph unicode="&#xaf;" horiz-adv-x="657" d="M590 1266v-125h-522v125h522z" />
<glyph unicode="&#xb0;" horiz-adv-x="806" d="M719 1030q0 -121 -89 -215t-233 -94q-141 0 -225 91t-84 216q0 121 89 214t235 93q141 0 224 -90t83 -215zM582 1030q0 109 -50.5 174.5t-130.5 65.5q-78 0 -127 -66.5t-49 -177.5q0 -106 51.5 -173t129.5 -67q80 0 128 66.5t48 177.5z" />
<glyph unicode="&#xb1;" horiz-adv-x="1024" d="M51 -410v2048h922v-2048h-922z" />
<glyph unicode="&#xb2;" horiz-adv-x="798" d="M197 508l8 -21h370l101 162l41 -10l-45 -285h-584l-25 129q182 150 293 269q90 96 125 157.5t35 126.5q0 68 -44 112t-114 44q-147 0 -206 -188l-60 16q20 139 105.5 221t210.5 82q127 0 200.5 -74.5t73.5 -185.5q0 -123 -102 -239.5t-383 -315.5z" />
<glyph unicode="&#xb3;" horiz-adv-x="798" d="M242 772v78q162 53 218 102t56 127q0 51 -40 87t-107 36q-131 0 -224 -147l-53 28q43 109 133 174.5t205 65.5q111 0 177.5 -57.5t66.5 -149.5q0 -172 -209 -231v-29q250 -41 250 -238q0 -127 -100.5 -210.5t-247.5 -83.5q-129 0 -213 48t-84 117q0 43 26.5 72t67.5 29 q57 0 88 -44t16 -118q49 -33 115 -33q76 0 125 44t49 124q0 189 -315 209z" />
<glyph unicode="&#xb4;" horiz-adv-x="487" d="M377 1487q33 -23 39 -59.5t-19 -77.5q-14 -20 -45 -55l-56 -60l-78 -78l-75 -74l-41 29q102 281 142 338q27 37 63.5 47t69.5 -10z" />
<glyph unicode="&#xb5;" d="M606 625l289 -295l-80 -78l-283 295l-282 -295l-80 78l289 295l-289 295l80 77l282 -295l283 295l80 -77z" />
<glyph unicode="&#xb6;" horiz-adv-x="1284" d="M627 416q-238 6 -381.5 111.5t-143.5 312.5q0 199 144.5 311.5t388.5 112.5h600v-58l-221 -41v-1370h-107v1374h-174v-1374h-106v621zM627 508v661q-154 0 -237 -84t-83 -235q0 -154 80 -241t240 -101z" />
<glyph unicode="&#xb7;" horiz-adv-x="473" d="M365 651.5q0 -53.5 -37 -90.5t-90.5 -37t-91 37t-37.5 90.5t37.5 90t91 36.5t90.5 -36.5t37 -90z" />
<glyph unicode="&#xb8;" horiz-adv-x="577" d="M354 -338q0 -90 -67.5 -147.5t-165.5 -57.5q-74 0 -117 27t-43 63q0 66 62 66q27 0 44 -18.5t17 -43.5q0 -14 -10 -38q20 -6 53 -7q47 0 82 34t35 91.5t-38 90t-104 32.5q-12 0 -47 -6l-32 37l372 313l33 -45l-246 -209q70 -10 121 -57t51 -125z" />
<glyph unicode="&#xb9;" horiz-adv-x="798" d="M510 465l211 -66v-45h-590v45l215 66v717l-211 59v41l350 47l25 -14v-850z" />
<glyph unicode="&#xba;" horiz-adv-x="860" d="M770 995q0 -143 -95 -245.5t-255 -102.5q-156 0 -243 97.5t-87 246.5q0 141 95.5 242.5t254.5 101.5q158 0 244 -95t86 -245zM610 995q0 133 -50 205t-134 72q-80 0 -128 -73t-48 -210q0 -133 51 -206.5t133 -73.5q84 0 130 72.5t46 213.5z" />
<glyph unicode="&#xbb;" horiz-adv-x="1024" d="M954 440l-395 -385l-55 37l246 367l-246 366l55 37l395 -385v-37zM539 440l-396 -385l-53 37l246 367l-246 366l53 37l396 -385v-37z" />
<glyph unicode="&#xbc;" horiz-adv-x="2129" d="M510 465l211 -66v-45h-590v45l215 66v717l-211 59v41l350 47l25 -14v-850zM1669 1311l-530 -768l-521 -781l-79 60l530 768l520 780zM1288 217l406 592l170 -12v-561h151v-111h-151v-188l135 -50v-45h-453v47l166 48v192h-393zM1718 229v447h-35l-280 -447h315z" />
<glyph unicode="&#xbd;" horiz-adv-x="2129" d="M510 465l211 -66v-45h-590v45l215 66v717l-211 59v41l350 47l25 -14v-850zM1659 1311l-531 -768l-520 -781l-80 60l531 768l520 780zM1507 -4l9 -21h370l101 162l41 -10l-46 -285h-583l-25 129q182 150 293 269q90 96 125 157.5t35 126.5q0 68 -44 112t-114 44 q-147 0 -207 -188l-59 16q20 139 105 221t210 82q127 0 201 -74.5t74 -185.5q0 -123 -102.5 -239.5t-383.5 -315.5z" />
<glyph unicode="&#xbe;" horiz-adv-x="2129" d="M303 772v78q162 53 218.5 102t56.5 127q0 51 -40 87t-108 36q-131 0 -223 -147l-53 28q43 109 133 174.5t205 65.5q111 0 177 -57.5t66 -149.5q0 -172 -209 -231v-29q250 -41 250 -238q0 -127 -100.5 -210.5t-247.5 -83.5q-129 0 -213 48t-84 117q0 43 26.5 72t67.5 29 q57 0 88 -44t17 -118q49 -33 114 -33q76 0 125 44t49 124q0 189 -315 209zM1679 1311l-530 -768l-520 -781l-80 60l530 768l520 780zM1288 217l406 592l170 -12v-561h151v-111h-151v-188l135 -50v-45h-453v47l166 48v192h-393zM1718 229v447h-35l-280 -447h315z" />
<glyph unicode="&#xbf;" horiz-adv-x="839" d="M584 694q0 -51 -38 -89t-89 -38t-89 38t-38 89t38 89t89 38t89 -38t38 -89zM750 -350q0 -86 -89.5 -140.5t-222.5 -54.5q-164 0 -270.5 85t-106.5 214q0 98 56.5 160.5t191.5 134.5q117 61 154 96t37 80q0 41 -33 66.5t-86 25.5q-59 0 -119 -18l-18 51q84 47 174 47 q100 0 169.5 -51t69.5 -143q0 -82 -54 -140.5t-183 -125.5q-109 -57 -153 -103.5t-44 -124.5q0 -82 55.5 -133t147.5 -51q74 0 117 35q-31 51 -31 96q0 53 33 87t84 34t86 -36t35 -91z" />
<glyph unicode="&#xc0;" horiz-adv-x="1382" d="M733 1493l-41 -29l-75 74l-77 78l-57 60q-31 34 -45 55q-25 41 -18.5 77.5t39.5 59.5q33 20 69.5 10t61.5 -47q43 -66 143 -338zM1214 113l166 -50v-63h-575v61l201 39l-127 357h-480l-123 -344l156 -52v-61h-434v63l166 56l457 1198h137zM846 547l-201 555h-16 l-199 -555h416z" />
<glyph unicode="&#xc1;" horiz-adv-x="1382" d="M874 1868q33 -23 39.5 -59.5t-18.5 -77.5q-14 -20 -45 -55l-56 -60l-78 -78l-75 -74l-41 29q102 281 141 338q27 37 63.5 47t69.5 -10zM1214 113l166 -50v-63h-575v61l201 39l-127 357h-480l-123 -344l156 -52v-61h-434v63l166 56l457 1198h137zM846 547l-201 555h-16 l-199 -555h416z" />
<glyph unicode="&#xc2;" horiz-adv-x="1382" d="M686 1653l-221 -221l-45 38l242 363h63l225 -363l-45 -38zM1214 113l166 -50v-63h-575v61l201 39l-127 357h-480l-123 -344l156 -52v-61h-434v63l166 56l457 1198h137zM846 547l-201 555h-16l-199 -555h416z" />
<glyph unicode="&#xc3;" horiz-adv-x="1382" d="M385 1487q25 131 64.5 189.5t113.5 58.5q55 0 156.5 -49.5t130.5 -49.5q27 0 45 26t51 99l60 -14q-25 -131 -65 -189.5t-114 -58.5q-55 0 -156.5 49t-129.5 49q-27 0 -45.5 -25.5t-51.5 -98.5zM1214 113l166 -50v-63h-575v61l201 39l-127 357h-480l-123 -344l156 -52v-61 h-434v63l166 56l457 1198h137zM846 547l-201 555h-16l-199 -555h416z" />
<glyph unicode="&#xc4;" horiz-adv-x="1382" d="M887 1495q-49 0 -81 33t-32 82q0 51 36 88t89 37q49 0 80 -33t31 -82q0 -51 -35 -88t-88 -37zM502 1495q-49 0 -80 33t-31 82q0 51 35 88t88 37q49 0 81 -33t32 -82q0 -51 -36 -88t-89 -37zM1214 113l166 -50v-63h-575v61l201 39l-127 357h-480l-123 -344l156 -52v-61 h-434v63l166 56l457 1198h137zM846 547l-201 555h-16l-199 -555h416z" />
<glyph unicode="&#xc5;" horiz-adv-x="1382" d="M1214 113l166 -50v-63h-575v61l201 39l-127 357h-480l-123 -344l156 -52v-61h-434v63l166 56l444 1165q-61 20 -97 73.5t-36 121.5q0 80 62.5 142t154.5 62t148.5 -59t56.5 -145q0 -59 -36 -111.5t-93 -77.5zM561 1477q0 -74 37 -116t90 -42q51 0 86 42t35 117.5 t-36 115.5t-89 40t-88 -40.5t-35 -116.5zM629 1102l-199 -555h416l-201 555h-16z" />
<glyph unicode="&#xc6;" horiz-adv-x="1986" d="M483 514l-243 -401l163 -50v-63h-448v63l166 56l661 1073l-211 51v62h1198l50 -347l-39 -14l-131 162q-53 66 -94.5 84t-133.5 18h-270v-508h121q94 0 136 35t71 142l18 67h51v-571h-51l-18 63q-31 106 -73 142t-134 36h-121v-516h365q90 0 127.5 16.5t76.5 73.5l152 215 l41 -8l-55 -395h-1131v63l223 39v412h-467zM950 604v608h-43l-370 -608h413z" />
<glyph unicode="&#xc7;" horiz-adv-x="1390" d="M324 666q0 -293 142 -450t372 -157q92 0 161 31l220 272l43 -14l-39 -270q-174 -94 -351 -107l-151 -127q72 -10 123 -57t51 -125q0 -90 -67.5 -147.5t-165.5 -57.5q-74 0 -117 27t-43 63q0 66 61 66q27 0 44.5 -18.5t17.5 -43.5q0 -14 -11 -38q18 -6 54 -7q47 0 81.5 34 t34.5 91.5t-37.5 90t-103.5 32.5q-12 0 -47 -6l-33 37l219 184q-309 4 -499.5 187.5t-190.5 488.5q0 303 202 496.5t484 193.5q168 0 316 -65l63 71h57l17 -438l-57 -4q-96 180 -195.5 268t-235.5 88q-184 0 -301.5 -161.5t-117.5 -427.5z" />
<glyph unicode="&#xc8;" horiz-adv-x="1323" d="M758 1483l-41 -29l-75 74l-78 78l-56 60q-31 34 -45 54q-25 41 -18.5 78t38.5 60q33 20 70 10t61 -47q44 -66 144 -338zM1106 1305l49 -347l-39 -14l-131 162q-53 66 -94 84t-133 18h-271v-508h121q94 0 136 35t71 142l19 67h51v-571h-51l-19 63q-31 106 -73 142t-134 36 h-121v-516h365q90 0 128 16.5t77 73.5l151 215l41 -8l-55 -395h-1131v63l224 39v1100l-224 39v64h1043z" />
<glyph unicode="&#xc9;" horiz-adv-x="1323" d="M825 1858q33 -23 39 -60t-18 -78q-14 -20 -45 -54l-57 -60l-77 -78l-75 -74l-41 29q102 281 141 338q27 37 63.5 47t69.5 -10zM1106 1305l49 -347l-39 -14l-131 162q-53 66 -94 84t-133 18h-271v-508h121q94 0 136 35t71 142l19 67h51v-571h-51l-19 63q-31 106 -73 142 t-134 36h-121v-516h365q90 0 128 16.5t77 73.5l151 215l41 -8l-55 -395h-1131v63l224 39v1100l-224 39v64h1043z" />
<glyph unicode="&#xca;" horiz-adv-x="1323" d="M662 1659l-222 -221l-45 39l242 362h63l226 -362l-45 -39zM1106 1305l49 -347l-39 -14l-131 162q-53 66 -94 84t-133 18h-271v-508h121q94 0 136 35t71 142l19 67h51v-571h-51l-19 63q-31 106 -73 142t-134 36h-121v-516h365q90 0 128 16.5t77 73.5l151 215l41 -8 l-55 -395h-1131v63l224 39v1100l-224 39v64h1043z" />
<glyph unicode="&#xcb;" horiz-adv-x="1323" d="M842 1485q-49 0 -81 32.5t-32 81.5q0 51 36 88t89 37q49 0 80 -32.5t31 -81.5q0 -51 -35 -88t-88 -37zM457 1485q-49 0 -80 32.5t-31 81.5q0 51 35 88t88 37q49 0 81 -32.5t32 -81.5q0 -51 -36 -88t-89 -37zM1106 1305l49 -347l-39 -14l-131 162q-53 66 -94 84t-133 18 h-271v-508h121q94 0 136 35t71 142l19 67h51v-571h-51l-19 63q-31 106 -73 142t-134 36h-121v-516h365q90 0 128 16.5t77 73.5l151 215l41 -8l-55 -395h-1131v63l224 39v1100l-224 39v64h1043z" />
<glyph unicode="&#xcc;" horiz-adv-x="835" d="M498 1493l-41 -29l-75 74l-78 78l-56 60q-31 34 -45 55q-25 41 -19 77.5t39 59.5q33 20 70 10t61 -47q44 -66 144 -338zM518 102l230 -39v-63h-662v63l231 39v1100l-231 39v64h662v-64l-230 -39v-1100z" />
<glyph unicode="&#xcd;" horiz-adv-x="835" d="M592 1868q33 -23 39 -59.5t-19 -77.5q-14 -20 -45 -55l-56 -60l-78 -78l-75 -74l-41 29q102 281 142 338q27 37 63.5 47t69.5 -10zM518 102l230 -39v-63h-662v63l231 39v1100l-231 39v64h662v-64l-230 -39v-1100z" />
<glyph unicode="&#xce;" horiz-adv-x="835" d="M422 1673l-221 -221l-45 39l241 362h64l225 -362l-45 -39zM518 102l230 -39v-63h-662v63l231 39v1100l-231 39v64h662v-64l-230 -39v-1100z" />
<glyph unicode="&#xcf;" horiz-adv-x="835" d="M608 1495q-49 0 -80.5 33t-31.5 82q0 51 35.5 88t89.5 37q49 0 79.5 -33t30.5 -82q0 -51 -35 -88t-88 -37zM223 1495q-49 0 -79.5 33t-30.5 82q0 51 34.5 88t88.5 37q49 0 80.5 -33t31.5 -82q0 -51 -36 -88t-89 -37zM518 102l230 -39v-63h-662v63l231 39v1100l-231 39v64 h662v-64l-230 -39v-1100z" />
<glyph unicode="&#xd0;" horiz-adv-x="1523" d="M1432 653q0 -281 -203 -467t-520 -186h-635v63l225 39v525h-197v100h197v475l-225 39v64h647q328 0 519.5 -183.5t191.5 -468.5zM1200 653q0 293 -141 426t-379 133h-184v-485h260v-100h-260v-535h229q475 0 475 561z" />
<glyph unicode="&#xd1;" horiz-adv-x="1566" d="M487 1487q25 131 65 189.5t114 58.5q55 0 156.5 -49.5t129.5 -49.5q27 0 45.5 26t51.5 99l59 -14q-25 -131 -64.5 -189.5t-113.5 -58.5q-55 0 -156.5 49t-130.5 49q-27 0 -45 -25.5t-51 -98.5zM276 121v1061l-182 55v68h428l148 -209l514 -731h22v819l-202 57v64h491v-64 l-182 -57v-1196h-103l-147 209l-655 919h-25v-995l203 -58v-63h-492v63z" />
<glyph unicode="&#xd2;" horiz-adv-x="1462" d="M778 1493l-41 -29l-74 74l-78 78l-57 60q-31 34 -45 55q-25 41 -18.5 77.5t39.5 59.5q33 20 69.5 10t61.5 -47q43 -66 143 -338zM1366 653q0 -287 -178 -485.5t-465 -198.5q-297 0 -464 195.5t-167 488.5q0 285 178.5 483.5t464.5 198.5q297 0 464 -195.5t167 -486.5z M1135 653q0 291 -129 451t-299 160q-162 0 -272.5 -143.5t-110.5 -467.5q0 -168 36.5 -291.5t101 -191.5t136.5 -98.5t154 -30.5q156 0 269.5 158.5t113.5 453.5z" />
<glyph unicode="&#xd3;" horiz-adv-x="1462" d="M895 1868q33 -23 39 -59.5t-19 -77.5q-14 -20 -45 -55l-56 -60l-78 -78l-74 -74l-41 29q102 281 141 338q27 37 63.5 47t69.5 -10zM1366 653q0 -287 -178 -485.5t-465 -198.5q-297 0 -464 195.5t-167 488.5q0 285 178.5 483.5t464.5 198.5q297 0 464 -195.5t167 -486.5z M1135 653q0 291 -129 451t-299 160q-162 0 -272.5 -143.5t-110.5 -467.5q0 -168 36.5 -291.5t101 -191.5t136.5 -98.5t154 -30.5q156 0 269.5 158.5t113.5 453.5z" />
<glyph unicode="&#xd4;" horiz-adv-x="1462" d="M725 1673l-221 -221l-45 39l241 362h64l225 -362l-45 -39zM1366 653q0 -287 -178 -485.5t-465 -198.5q-297 0 -464 195.5t-167 488.5q0 285 178.5 483.5t464.5 198.5q297 0 464 -195.5t167 -486.5zM1135 653q0 291 -129 451t-299 160q-162 0 -272.5 -143.5t-110.5 -467.5 q0 -168 36.5 -291.5t101 -191.5t136.5 -98.5t154 -30.5q156 0 269.5 158.5t113.5 453.5z" />
<glyph unicode="&#xd5;" horiz-adv-x="1462" d="M420 1487q25 131 64.5 189.5t113.5 58.5q55 0 156.5 -49.5t130.5 -49.5q27 0 45 26t51 99l59 -14q-25 -131 -64.5 -189.5t-113.5 -58.5q-55 0 -156.5 49t-130.5 49q-27 0 -45 -25.5t-51 -98.5zM1366 653q0 -287 -178 -485.5t-465 -198.5q-297 0 -464 195.5t-167 488.5 q0 285 178.5 483.5t464.5 198.5q297 0 464 -195.5t167 -486.5zM1135 653q0 291 -129 451t-299 160q-162 0 -272.5 -143.5t-110.5 -467.5q0 -168 36.5 -291.5t101 -191.5t136.5 -98.5t154 -30.5q156 0 269.5 158.5t113.5 453.5z" />
<glyph unicode="&#xd6;" horiz-adv-x="1462" d="M911 1495q-49 0 -80.5 33t-31.5 82q0 51 35.5 88t89.5 37q49 0 79.5 -33t30.5 -82q0 -51 -35 -88t-88 -37zM526 1495q-49 0 -79.5 33t-30.5 82q0 51 34.5 88t88.5 37q49 0 80.5 -33t31.5 -82q0 -51 -36 -88t-89 -37zM1366 653q0 -287 -178 -485.5t-465 -198.5 q-297 0 -464 195.5t-167 488.5q0 285 178.5 483.5t464.5 198.5q297 0 464 -195.5t167 -486.5zM1135 653q0 291 -129 451t-299 160q-162 0 -272.5 -143.5t-110.5 -467.5q0 -168 36.5 -291.5t101 -191.5t136.5 -98.5t154 -30.5q156 0 269.5 158.5t113.5 453.5z" />
<glyph unicode="&#xd7;" d="M606 625l289 -295l-80 -78l-283 295l-282 -295l-80 78l289 295l-289 295l80 77l282 -295l283 295l80 -77z" />
<glyph unicode="&#xd8;" horiz-adv-x="1462" d="M1366 653q0 -287 -178 -485.5t-465 -198.5q-233 0 -404 144l-153 -179l-55 46l157 184q-176 195 -176 489q0 285 178.5 483.5t464.5 198.5q236 0 404 -145l153 180l58 -47l-158 -186q174 -191 174 -484zM383 301l649 764q-61 98 -147 148.5t-178 50.5 q-162 0 -272.5 -143.5t-110.5 -467.5q0 -211 59 -352zM1071 995l-653 -766q115 -188 334 -188q156 0 269.5 158.5t113.5 453.5q-1 195 -64 342z" />
<glyph unicode="&#xd9;" horiz-adv-x="1531" d="M920 1493l-41 -29l-75 74l-78 78l-56 60q-31 34 -45 55q-25 41 -19 77.5t39 59.5q33 20 70 10t61 -47q44 -66 144 -338zM1184 1184l-183 57v64h469v-64l-182 -57v-729q0 -213 -135 -351.5t-373 -138.5q-252 0 -388 117t-136 348v772l-203 39v64h631v-64l-223 -39v-741 q0 -385 379 -385q164 0 254 107.5t90 281.5v719z" />
<glyph unicode="&#xda;" horiz-adv-x="1531" d="M1030 1868q33 -23 39 -59.5t-18 -77.5q-14 -20 -45 -55l-57 -60l-78 -78l-74 -74l-41 29q102 281 141 338q27 37 63.5 47t69.5 -10zM1184 1184l-183 57v64h469v-64l-182 -57v-729q0 -213 -135 -351.5t-373 -138.5q-252 0 -388 117t-136 348v772l-203 39v64h631v-64 l-223 -39v-741q0 -385 379 -385q164 0 254 107.5t90 281.5v719z" />
<glyph unicode="&#xdb;" horiz-adv-x="1531" d="M844 1673l-221 -221l-45 39l241 362h64l225 -362l-45 -39zM1184 1184l-183 57v64h469v-64l-182 -57v-729q0 -213 -135 -351.5t-373 -138.5q-252 0 -388 117t-136 348v772l-203 39v64h631v-64l-223 -39v-741q0 -385 379 -385q164 0 254 107.5t90 281.5v719z" />
<glyph unicode="&#xdc;" horiz-adv-x="1531" d="M1018 1495q-49 0 -81 33t-32 82q0 51 36 88t89 37q49 0 80 -33t31 -82q0 -51 -35 -88t-88 -37zM633 1495q-49 0 -80 33t-31 82q0 51 35 88t88 37q49 0 81 -33t32 -82q0 -51 -36 -88t-89 -37zM1184 1184l-183 57v64h469v-64l-182 -57v-729q0 -213 -135 -351.5t-373 -138.5 q-252 0 -388 117t-136 348v772l-203 39v64h631v-64l-223 -39v-741q0 -385 379 -385q164 0 254 107.5t90 281.5v719z" />
<glyph unicode="&#xdd;" horiz-adv-x="1347" d="M958 1868q33 -23 39.5 -59.5t-18.5 -77.5q-14 -20 -45 -55l-56 -60l-78 -78l-75 -74l-41 29q102 281 141 338q27 37 63.5 47t69.5 -10zM1192 1184l-401 -606v-476l237 -39v-63h-676v63l238 39v441l-412 651l-184 47v64h594v-64l-187 -37l340 -559l330 545l-180 51v64h469 v-64z" />
<glyph unicode="&#xde;" horiz-adv-x="1239" d="M1143 666q0 -170 -125 -283t-322 -113q-94 0 -213 19v-187l230 -39v-63h-654v63l224 39v1100l-224 39v64h656v-64l-232 -39v-186q98 16 176 16q225 0 354.5 -100t129.5 -266zM922 657q0 147 -79 220t-218 73q-80 0 -142 -12v-569q61 -10 142 -11q297 0 297 299z" />
<glyph unicode="&#xdf;" horiz-adv-x="1896" d="M1800 295q0 -156 -106.5 -241t-254 -85t-270.5 58l-43 -62h-57l-10 373l61 10q90 -174 169 -244.5t175 -70.5q88 0 140.5 49t52.5 131q0 72 -43 114t-137 83l-82 29q-59 22 -90 36q-100 43 -154.5 99.5t-54.5 152.5q0 147 96 230t233 83q117 0 209 -57l52 64h55l18 -334 l-61 -6q-147 270 -289 270q-76 0 -120 -43t-44 -117q0 -72 40 -111.5t130 -74.5q29 -12 88.5 -32.5t83.5 -31.5q100 -43 156.5 -104.5t56.5 -167.5zM852 295q0 -156 -106.5 -241t-254 -85t-270.5 58l-43 -62h-57l-10 373l61 10q90 -174 169 -244.5t175 -70.5q88 0 140.5 49 t52.5 131q0 72 -43 114t-138 83l-82 29q-59 22 -90 36q-100 43 -154.5 99.5t-54.5 152.5q0 147 96.5 230t233.5 83q117 0 209 -57l51 64h56l18 -334l-61 -6q-147 270 -289 270q-76 0 -120 -43t-44 -117q0 -72 40 -111.5t130 -74.5q29 -12 88 -32.5t84 -31.5 q100 -43 156.5 -104.5t56.5 -167.5z" />
<glyph unicode="&#xe0;" horiz-adv-x="1112" d="M629 1174l-41 -29l-75 74l-78 77l-56 61q-31 34 -45 54q-25 41 -18.5 78t38.5 59q33 20 70 10t61 -47q44 -65 144 -337zM309 338l-84 -227l137 -60v-51h-376v53l133 60l364 917h142l356 -934l129 -43v-53h-481v51l162 41l-91 246h-391zM672 416l-160 436h-18l-158 -436 h336z" />
<glyph unicode="&#xe1;" horiz-adv-x="1112" d="M729 1548q33 -23 39 -59.5t-18 -77.5q-14 -20 -45 -54l-57 -61l-78 -77l-74 -74l-41 29q102 281 141 337q27 37 63.5 47t69.5 -10zM309 338l-84 -227l137 -60v-51h-376v53l133 60l364 917h142l356 -934l129 -43v-53h-481v51l162 41l-91 246h-391zM672 416l-160 436h-18 l-158 -436h336z" />
<glyph unicode="&#xe2;" horiz-adv-x="1112" d="M557 1354l-221 -221l-45 38l241 363h64l225 -363l-45 -38zM309 338l-84 -227l137 -60v-51h-376v53l133 60l364 917h142l356 -934l129 -43v-53h-481v51l162 41l-91 246h-391zM672 416l-160 436h-18l-158 -436h336z" />
<glyph unicode="&#xe3;" horiz-adv-x="1112" d="M246 1167q25 131 64.5 189.5t113.5 58.5q55 0 156.5 -49t130.5 -49q27 0 45 25.5t51 99.5l59 -15q-25 -131 -64.5 -189t-113.5 -58q-55 0 -156.5 49t-130.5 49q-27 0 -45 -25.5t-51 -99.5zM309 338l-84 -227l137 -60v-51h-376v53l133 60l364 917h142l356 -934l129 -43 v-53h-481v51l162 41l-91 246h-391zM672 416l-160 436h-18l-158 -436h336z" />
<glyph unicode="&#xe4;" horiz-adv-x="1112" d="M741 1176q-49 0 -80.5 32.5t-31.5 81.5q0 51 35.5 88t89.5 37q49 0 79.5 -32.5t30.5 -82.5q0 -51 -35 -87.5t-88 -36.5zM356 1176q-49 0 -79.5 32.5t-30.5 81.5q0 51 34.5 88t88.5 37q49 0 80.5 -32.5t31.5 -82.5q0 -51 -36 -87.5t-89 -36.5zM309 338l-84 -227l137 -60 v-51h-376v53l133 60l364 917h142l356 -934l129 -43v-53h-481v51l162 41l-91 246h-391zM672 416l-160 436h-18l-158 -436h336z" />
<glyph unicode="&#xe5;" horiz-adv-x="1112" d="M471 999q-61 20 -96 72.5t-35 120.5q0 80 61.5 143.5t153.5 63.5t148.5 -59.5t56.5 -147.5q0 -57 -34 -109.5t-91 -76.5l346 -910l129 -43v-53h-481v51l162 41l-91 246h-391l-84 -227l137 -60v-51h-376v53l133 60zM674 1192q0 76 -37 117t-90 41q-51 0 -87 -42t-36 -118 q0 -74 38 -115t89 -41t87 41t36 117zM672 416l-160 436h-18l-158 -436h336z" />
<glyph unicode="&#xe6;" horiz-adv-x="1564" d="M1493 322l-41 -322h-903v53l166 35v293h-355l-159 -275l151 -55v-51h-411v53l145 60l483 794l-166 49v54h1016l33 -293l-45 -8l-94 131q-35 47 -77 66.5t-116 19.5h-227v-373h70q129 0 182 115l24 59h45v-424h-45l-24 57q-57 119 -182 119h-70v-395h270q119 0 168 74 l117 172zM715 457v465h-39l-273 -465h312z" />
<glyph unicode="&#xe7;" horiz-adv-x="1116" d="M631 -31h-8q-246 2 -394.5 140.5t-148.5 379.5q0 240 163 395.5t388 155.5q131 0 246 -55l51 62h49l27 -365l-66 -4q-82 162 -155.5 226.5t-170.5 64.5q-135 0 -230 -121t-95 -340q0 -227 104.5 -343t270.5 -116q82 0 141 33l166 289l51 -17l-39 -295q-133 -68 -256 -84 l-154 -131q70 -10 121 -57t51 -125q0 -90 -67.5 -147.5t-165.5 -57.5q-74 0 -117 27t-43 63q0 66 62 66q27 0 44 -18.5t17 -43.5q0 -14 -10 -38q20 -6 53 -7q47 0 82 34t35 91.5t-38 90t-103 32.5q-12 0 -48 -6l-32 37z" />
<glyph unicode="&#xe8;" horiz-adv-x="1089" d="M674 1174l-41 -29l-75 74l-78 77l-56 61q-31 34 -45 54q-25 41 -18.5 78t38.5 59q33 20 70 10t61 -47q44 -65 144 -337zM944 1010l33 -293l-45 -8l-94 131q-35 47 -77 66.5t-116 19.5h-225v-373h67q129 0 183 115l24 59h45v-424h-45l-24 57q-57 119 -183 119h-67v-395 h268q119 0 168 74l117 172l45 -8l-41 -322h-905v53l166 35v832l-166 34v56h872z" />
<glyph unicode="&#xe9;" horiz-adv-x="1089" d="M698 1548q33 -23 39 -59.5t-18 -77.5q-14 -20 -45 -54l-57 -61l-77 -77l-75 -74l-41 29q102 281 141 337q27 37 63.5 47t69.5 -10zM944 1010l33 -293l-45 -8l-94 131q-35 47 -77 66.5t-116 19.5h-225v-373h67q129 0 183 115l24 59h45v-424h-45l-24 57q-57 119 -183 119 h-67v-395h268q119 0 168 74l117 172l45 -8l-41 -322h-905v53l166 35v832l-166 34v56h872z" />
<glyph unicode="&#xea;" horiz-adv-x="1089" d="M551 1354l-221 -221l-45 38l241 363h64l225 -363l-45 -38zM944 1010l33 -293l-45 -8l-94 131q-35 47 -77 66.5t-116 19.5h-225v-373h67q129 0 183 115l24 59h45v-424h-45l-24 57q-57 119 -183 119h-67v-395h268q119 0 168 74l117 172l45 -8l-41 -322h-905v53l166 35v832 l-166 34v56h872z" />
<glyph unicode="&#xeb;" horiz-adv-x="1089" d="M731 1176q-49 0 -81 32.5t-32 81.5q0 51 36 88t89 37q49 0 80 -32.5t31 -82.5q0 -51 -35 -87.5t-88 -36.5zM346 1176q-49 0 -79.5 32.5t-30.5 81.5q0 51 34.5 88t87.5 37q49 0 81 -32.5t32 -82.5q0 -51 -36 -87.5t-89 -36.5zM944 1010l33 -293l-45 -8l-94 131 q-35 47 -77 66.5t-116 19.5h-225v-373h67q129 0 183 115l24 59h45v-424h-45l-24 57q-57 119 -183 119h-67v-395h268q119 0 168 74l117 172l45 -8l-41 -322h-905v53l166 35v832l-166 34v56h872z" />
<glyph unicode="&#xec;" horiz-adv-x="714" d="M442 1174l-41 -29l-74 74l-78 77l-56 61q-31 34 -46 54q-25 41 -18.5 78t39.5 59q33 20 69.5 10t61.5 -47q43 -65 143 -337zM449 88l172 -35v-53h-527v53l172 35v832l-172 34v56h527v-56l-172 -34v-832z" />
<glyph unicode="&#xed;" horiz-adv-x="714" d="M535 1548q33 -23 39 -59.5t-19 -77.5q-14 -20 -45 -54l-56 -61l-78 -77l-75 -74l-41 29q102 281 141 337q27 37 64 47t70 -10zM449 88l172 -35v-53h-527v53l172 35v832l-172 34v56h527v-56l-172 -34v-832z" />
<glyph unicode="&#xee;" horiz-adv-x="714" d="M358 1354l-221 -221l-45 38l242 363h63l226 -363l-45 -38zM449 88l172 -35v-53h-527v53l172 35v832l-172 34v56h527v-56l-172 -34v-832z" />
<glyph unicode="&#xef;" horiz-adv-x="714" d="M543 1176q-49 0 -81 32.5t-32 81.5q0 51 36 88t89 37q49 0 80 -32.5t31 -82.5q0 -51 -35 -87.5t-88 -36.5zM158 1176q-49 0 -80 32.5t-31 81.5q0 51 35 88t88 37q49 0 81 -32.5t32 -82.5q0 -51 -36 -87.5t-89 -36.5zM449 88l172 -35v-53h-527v53l172 35v832l-172 34v56 h527v-56l-172 -34v-832z" />
<glyph unicode="&#xf0;" horiz-adv-x="1226" d="M248 481h-150v84h150v355l-168 34v56h516q256 0 403.5 -139.5t147.5 -362.5q0 -217 -153.5 -362.5t-411.5 -145.5h-502v53l168 35v393zM426 565h201v-84h-201v-401h166q348 0 348 424q0 223 -102.5 324.5t-274.5 101.5h-137v-365z" />
<glyph unicode="&#xf1;" horiz-adv-x="1275" d="M330 1167q25 131 64.5 189.5t113.5 58.5q55 0 156.5 -49t130.5 -49q27 0 45 25.5t51 99.5l59 -15q-25 -131 -64.5 -189t-113.5 -58q-55 0 -156.5 49t-130.5 49q-27 0 -45 -25.5t-51 -99.5zM227 102v803l-141 45v60h348l111 -164l413 -572h17v631l-156 49v56h400v-56 l-146 -49v-915h-133l-133 192l-463 645h-18v-725l157 -49v-53h-399v53z" />
<glyph unicode="&#xf2;" horiz-adv-x="1189" d="M676 1174l-41 -29l-75 74l-78 77l-56 61q-31 34 -45 54q-25 41 -18.5 78t38.5 59q33 20 70 10t61 -47q44 -65 144 -337zM1110 504q0 -223 -141.5 -379t-378.5 -156q-246 0 -378 153.5t-132 381.5q0 225 141 380.5t379 155.5q244 0 377 -153.5t133 -382.5zM903 504 q0 223 -95 347t-228 124q-125 0 -209 -113.5t-84 -357.5t93 -357.5t230 -113.5q121 0 207 125t86 346z" />
<glyph unicode="&#xf3;" horiz-adv-x="1189" d="M770 1548q33 -23 39 -59.5t-18 -77.5q-14 -20 -46 -54l-56 -61l-78 -77l-74 -74l-41 29q102 281 141 337q27 37 63.5 47t69.5 -10zM1110 504q0 -223 -141.5 -379t-378.5 -156q-246 0 -378 153.5t-132 381.5q0 225 141 380.5t379 155.5q244 0 377 -153.5t133 -382.5z M903 504q0 223 -95 347t-228 124q-125 0 -209 -113.5t-84 -357.5t93 -357.5t230 -113.5q121 0 207 125t86 346z" />
<glyph unicode="&#xf4;" horiz-adv-x="1189" d="M596 1354l-221 -221l-45 38l241 363h64l225 -363l-45 -38zM1110 504q0 -223 -141.5 -379t-378.5 -156q-246 0 -378 153.5t-132 381.5q0 225 141 380.5t379 155.5q244 0 377 -153.5t133 -382.5zM903 504q0 223 -95 347t-228 124q-125 0 -209 -113.5t-84 -357.5t93 -357.5 t230 -113.5q121 0 207 125t86 346z" />
<glyph unicode="&#xf5;" horiz-adv-x="1189" d="M285 1167q25 131 64.5 189.5t113.5 58.5q55 0 156.5 -49t130.5 -49q27 0 45 25.5t51 99.5l59 -15q-25 -131 -64.5 -189t-113.5 -58q-55 0 -156.5 49t-130.5 49q-27 0 -45 -25.5t-51 -99.5zM1110 504q0 -223 -141.5 -379t-378.5 -156q-246 0 -378 153.5t-132 381.5 q0 225 141 380.5t379 155.5q244 0 377 -153.5t133 -382.5zM903 504q0 223 -95 347t-228 124q-125 0 -209 -113.5t-84 -357.5t93 -357.5t230 -113.5q121 0 207 125t86 346z" />
<glyph unicode="&#xf6;" horiz-adv-x="1189" d="M780 1176q-49 0 -80.5 32.5t-31.5 81.5q0 51 35.5 88t89.5 37q49 0 79.5 -32.5t30.5 -82.5q0 -51 -35 -87.5t-88 -36.5zM395 1176q-49 0 -79.5 32.5t-30.5 81.5q0 51 34.5 88t88.5 37q49 0 80.5 -32.5t31.5 -82.5q0 -51 -36 -87.5t-89 -36.5zM1110 504 q0 -223 -141.5 -379t-378.5 -156q-246 0 -378 153.5t-132 381.5q0 225 141 380.5t379 155.5q244 0 377 -153.5t133 -382.5zM903 504q0 223 -95 347t-228 124q-125 0 -209 -113.5t-84 -357.5t93 -357.5t230 -113.5q121 0 207 125t86 346z" />
<glyph unicode="&#xf7;" d="M530.5 1059q49.5 0 84 -35t34.5 -84t-34.5 -84t-84 -35t-84 35t-34.5 84t34.5 84t84 35zM967 575h-871v105h871v-105zM530.5 434q49.5 0 84 -34.5t34.5 -84t-34.5 -84t-84 -34.5t-84 34.5t-34.5 84t34.5 84t84 34.5z" />
<glyph unicode="&#xf8;" horiz-adv-x="1189" d="M217 117q-137 150 -137 387q0 225 141 380.5t379 155.5q195 0 322 -102l104 123l55 -41l-108 -127q137 -150 137 -389q0 -223 -141.5 -379t-378.5 -156q-197 0 -324 103l-106 -125l-56 41zM328 246l497 579q-92 150 -245 150q-125 0 -209 -113.5t-84 -357.5 q0 -154 41 -258zM858 760l-500 -582q86 -145 252 -145q121 0 207 125t86 346q0 150 -45 256z" />
<glyph unicode="&#xf9;" horiz-adv-x="1255" d="M772 1174l-41 -29l-75 74l-77 77l-57 61q-31 34 -45 54q-25 41 -18.5 78t39.5 59q33 20 69.5 10t61.5 -47q43 -65 143 -337zM954 905l-143 49v56h381v-56l-143 -49v-557q0 -172 -107.5 -275.5t-302.5 -103.5q-205 0 -316.5 93.5t-111.5 277.5v580l-150 34v56h494v-56 l-158 -34v-564q0 -147 78 -217.5t211 -70.5q127 0 197.5 78.5t70.5 207.5v551z" />
<glyph unicode="&#xfa;" horiz-adv-x="1255" d="M883 1548q33 -23 39 -59.5t-19 -77.5q-14 -20 -45 -54l-56 -61l-78 -77l-75 -74l-41 29q102 281 142 337q27 37 63.5 47t69.5 -10zM954 905l-143 49v56h381v-56l-143 -49v-557q0 -172 -107.5 -275.5t-302.5 -103.5q-205 0 -316.5 93.5t-111.5 277.5v580l-150 34v56h494 v-56l-158 -34v-564q0 -147 78 -217.5t211 -70.5q127 0 197.5 78.5t70.5 207.5v551z" />
<glyph unicode="&#xfb;" horiz-adv-x="1255" d="M680 1354l-221 -221l-45 38l241 363h64l225 -363l-45 -38zM954 905l-143 49v56h381v-56l-143 -49v-557q0 -172 -107.5 -275.5t-302.5 -103.5q-205 0 -316.5 93.5t-111.5 277.5v580l-150 34v56h494v-56l-158 -34v-564q0 -147 78 -217.5t211 -70.5q127 0 197.5 78.5 t70.5 207.5v551z" />
<glyph unicode="&#xfc;" horiz-adv-x="1255" d="M864 1176q-49 0 -80.5 32.5t-31.5 81.5q0 51 35.5 88t89.5 37q49 0 79.5 -32.5t30.5 -82.5q0 -51 -35 -87.5t-88 -36.5zM479 1176q-49 0 -79.5 32.5t-30.5 81.5q0 51 34.5 88t88.5 37q49 0 80.5 -32.5t31.5 -82.5q0 -51 -36 -87.5t-89 -36.5zM954 905l-143 49v56h381v-56 l-143 -49v-557q0 -172 -107.5 -275.5t-302.5 -103.5q-205 0 -316.5 93.5t-111.5 277.5v580l-150 34v56h494v-56l-158 -34v-564q0 -147 78 -217.5t211 -70.5q127 0 197.5 78.5t70.5 207.5v551z" />
<glyph unicode="&#xfd;" horiz-adv-x="1089" d="M838 1548q33 -23 39 -59.5t-19 -77.5q-14 -20 -45 -54l-56 -61l-78 -77l-75 -74l-41 29q102 281 142 337q27 37 63.5 47t69.5 -10zM944 901l-301 -465v-346l176 -37v-53h-532v53l174 37v324l-305 495l-142 45v56h486v-54l-148 -36l250 -410l227 395l-137 51v54h389v-56z " />
<glyph unicode="&#xfe;" horiz-adv-x="1030" d="M965 530q0 -133 -112 -225t-278 -92q-84 0 -155 12v-137l178 -35v-53h-526v53l166 35v832l-166 34v56h526v-54l-178 -36v-107q49 10 125 10q195 0 307.5 -81t112.5 -212zM760 528q0 111 -61.5 168.5t-174.5 57.5q-66 0 -104 -6v-461q41 -4 102 -4q113 0 175.5 64 t62.5 181z" />
<glyph unicode="&#xff;" horiz-adv-x="1089" d="M784 1176q-49 0 -80.5 32.5t-31.5 81.5q0 51 35.5 88t89.5 37q49 0 79.5 -32.5t30.5 -82.5q0 -51 -35 -87.5t-88 -36.5zM399 1176q-49 0 -79.5 32.5t-30.5 81.5q0 51 34.5 88t88.5 37q49 0 80.5 -32.5t31.5 -82.5q0 -51 -36 -87.5t-89 -36.5zM944 901l-301 -465v-346 l176 -37v-53h-532v53l174 37v324l-305 495l-142 45v56h486v-54l-148 -36l250 -410l227 395l-137 51v54h389v-56z" />
<glyph unicode="&#x152;" horiz-adv-x="2062" d="M1989 395l-56 -395h-1130q-328 0 -519.5 184.5t-191.5 468.5q0 279 203 465.5t520 186.5h1030l49 -347l-39 -14l-131 162q-53 66 -94 84t-133 18h-270v-508h121q94 0 136 35t70 142l19 67h51v-571h-51l-19 63q-31 106 -72.5 142t-133.5 36h-121v-516h364q90 0 128 16.5 t77 73.5l152 215zM324 653.5q0 -288.5 142 -423t380 -134.5h180v1112h-227q-219 0 -347 -133t-128 -421.5z" />
<glyph unicode="&#x153;" horiz-adv-x="1650" d="M1579 322l-41 -322h-907q-256 0 -403.5 139.5t-147.5 362.5q0 217 153.5 362.5t411.5 145.5h860l33 -293l-45 -8l-94 131q-35 47 -77 66.5t-116 19.5h-225v-373h68q129 0 182 115l24 59h45v-424h-45l-24 57q-57 119 -182 119h-68v-395h268q119 0 168 74l117 172zM799 82 v846h-164q-348 0 -348 -422q0 -221 102.5 -322.5t274.5 -101.5h135z" />
<glyph unicode="&#x178;" horiz-adv-x="1347" d="M918 1495q-49 0 -81 33t-32 82q0 51 36 88t89 37q49 0 79.5 -33t30.5 -82q0 -51 -34.5 -88t-87.5 -37zM532 1495q-49 0 -79.5 33t-30.5 82q0 51 35 88t88 37q49 0 80.5 -33t31.5 -82q0 -51 -36 -88t-89 -37zM1192 1184l-401 -606v-476l237 -39v-63h-676v63l238 39v441 l-412 651l-184 47v64h594v-64l-187 -37l340 -559l330 545l-180 51v64h469v-64z" />
<glyph unicode="&#x2c6;" horiz-adv-x="612" d="M307 1292l-221 -221l-45 39l242 363h63l225 -363l-45 -39z" />
<glyph unicode="&#x2dc;" horiz-adv-x="677" d="M29 1106q25 131 64.5 189.5t113.5 58.5q55 0 156.5 -49.5t130.5 -49.5q27 0 45 26t51 99l59 -14q-25 -131 -64.5 -189.5t-113.5 -58.5q-55 0 -156.5 49.5t-130.5 49.5q-27 0 -45 -26t-51 -99z" />
<glyph unicode="&#x3bc;" d="M606 625l289 -295l-80 -78l-283 295l-282 -295l-80 78l289 295l-289 295l80 77l282 -295l283 295l80 -77z" />
<glyph unicode="&#x2000;" horiz-adv-x="940" />
<glyph unicode="&#x2001;" horiz-adv-x="1880" />
<glyph unicode="&#x2002;" horiz-adv-x="940" />
<glyph unicode="&#x2003;" horiz-adv-x="1880" />
<glyph unicode="&#x2004;" horiz-adv-x="626" />
<glyph unicode="&#x2005;" horiz-adv-x="468" />
<glyph unicode="&#x2006;" horiz-adv-x="313" />
<glyph unicode="&#x2007;" horiz-adv-x="313" />
<glyph unicode="&#x2008;" horiz-adv-x="233" />
<glyph unicode="&#x2009;" horiz-adv-x="374" />
<glyph unicode="&#x200a;" horiz-adv-x="104" />
<glyph unicode="&#x2010;" horiz-adv-x="749" d="M641 408h-532v145h532v-145z" />
<glyph unicode="&#x2011;" horiz-adv-x="749" d="M641 408h-532v145h532v-145z" />
<glyph unicode="&#x2012;" horiz-adv-x="749" d="M641 408h-532v145h532v-145z" />
<glyph unicode="&#x2013;" horiz-adv-x="1105" d="M997 449h-888v112h888v-112z" />
<glyph unicode="&#x2014;" horiz-adv-x="1617" d="M1509 449h-1400v112h1400v-112z" />
<glyph unicode="&#x2018;" horiz-adv-x="473" d="M367 909q0 -53 -37 -91t-90 -38q-68 0 -107 45t-39 119q0 227 291 404l37 -41q-190 -145 -213 -295l12 -6l4 2q18 10 49 10q39 0 66 -31t27 -78z" />
<glyph unicode="&#x2019;" horiz-adv-x="473" d="M379 1171q0 -225 -291 -405l-37 41q190 145 213 297l-12 6l-4 -2q-18 -10 -49 -10q-41 0 -67 30.5t-26 77.5q0 53 37 91t90 38q68 0 107 -45t39 -119z" />
<glyph unicode="&#x201a;" horiz-adv-x="473" d="M379 57q0 -225 -291 -405l-37 41q190 145 213 297l-12 6l-4 -2q-18 -10 -49 -10q-41 0 -67 30.5t-26 77.5q0 53 37 91t90 38q68 0 107 -45t39 -119z" />
<glyph unicode="&#x201c;" horiz-adv-x="884" d="M778 909q0 -53 -36.5 -91t-90.5 -38q-68 0 -106.5 45t-38.5 119q0 227 291 404l37 -41q-190 -145 -213 -295l12 -6l4 2q18 10 49 10q39 0 65.5 -31t26.5 -78zM367 909q0 -53 -37 -91t-90 -38q-68 0 -107 45t-39 119q0 227 291 404l37 -41q-190 -145 -213 -295l12 -6l4 2 q18 10 49 10q39 0 66 -31t27 -78z" />
<glyph unicode="&#x201d;" horiz-adv-x="884" d="M791 1171q0 -225 -291 -405l-37 41q190 145 213 297l-12 6l-5 -2q-18 -10 -49 -10q-41 0 -66.5 30.5t-25.5 77.5q0 53 37 91t90 38q68 0 107 -45t39 -119zM379 1171q0 -225 -291 -405l-37 41q190 145 213 297l-12 6l-4 -2q-18 -10 -49 -10q-41 0 -67 30.5t-26 77.5 q0 53 37 91t90 38q68 0 107 -45t39 -119z" />
<glyph unicode="&#x201e;" horiz-adv-x="843" d="M791 57q0 -225 -291 -405l-37 41q190 145 213 297l-12 6l-5 -2q-18 -10 -49 -10q-41 0 -66.5 30.5t-25.5 77.5q0 53 37 91t90 38q68 0 107 -45t39 -119zM379 57q0 -225 -291 -405l-37 41q190 145 213 297l-12 6l-4 -2q-18 -10 -49 -10q-41 0 -67 30.5t-26 77.5 q0 53 37 91t90 38q68 0 107 -45t39 -119z" />
<glyph unicode="&#x2022;" horiz-adv-x="1003" d="M782 653q0 -119 -82 -200.5t-200 -81.5q-117 0 -199 82t-82 200q0 117 82 199t199 82q119 0 200.5 -82t81.5 -199z" />
<glyph unicode="&#x2026;" horiz-adv-x="1378" d="M1270 94q0 -53 -37 -90t-90 -37t-91 37t-38 90t38 90t91 37t90 -37t37 -90zM817 94q0 -53 -38 -90t-89 -37q-53 0 -91 37t-38 90t38 90t91 37q51 0 89 -37t38 -90zM365 94q0 -53 -37 -90t-90.5 -37t-91 37t-37.5 90t37.5 90t91 37t90.5 -37t37 -90z" />
<glyph unicode="&#x202f;" horiz-adv-x="374" />
<glyph unicode="&#x2039;" horiz-adv-x="614" d="M274 459l250 -369l-53 -35l-399 385v37l399 385l53 -37z" />
<glyph unicode="&#x203a;" horiz-adv-x="614" d="M543 477v-37l-400 -385l-53 37l250 367l-250 366l53 37z" />
<glyph unicode="&#x205f;" horiz-adv-x="468" />
<glyph unicode="&#x2122;" horiz-adv-x="1679" d="M1509 1245v-469l90 -28v-31h-282v31l74 28v457h-19l-198 -516h-56l-203 516h-22v-451l70 -34v-31h-213v31l77 34v459l-77 31v33h260l34 -103l125 -321h13l123 327l30 97h264v-33zM680 1110l-25 -4l-65 84q-29 41 -46.5 53t-47.5 12h-54v-479l95 -28v-31h-306v31l95 28 v479h-60q-31 0 -48 -12t-46 -53l-68 -84l-24 4l26 195h547z" />
<glyph unicode="&#xe000;" horiz-adv-x="1010" d="M0 1010h1010v-1010h-1010v1010z" />
<glyph unicode="&#xfb01;" horiz-adv-x="1732" d="M1466 88l172 -35v-53h-526v53l172 35v832l-172 34v56h526v-56l-172 -34v-832zM958 711l-40 -11l-95 140q-61 86 -190 86h-213v-396h74q127 0 176 115l26 60h43v-424h-43l-26 57q-53 119 -176 119h-74v-369l178 -35v-53h-526v53l166 35v832l-166 34v56h860z" />
<glyph unicode="&#xfb02;" horiz-adv-x="2043" d="M1978 377l-43 -377h-845v53l165 35v832l-165 34v56h524v-56l-176 -34v-836h188q68 0 97.5 18.5t68.5 71.5l152 211zM958 711l-40 -11l-95 140q-61 86 -190 86h-213v-396h74q127 0 176 115l26 60h43v-424h-43l-26 57q-53 119 -176 119h-74v-369l178 -35v-53h-526v53 l166 35v832l-166 34v56h860z" />
<glyph unicode="&#xfb03;" horiz-adv-x="2750" d="M2485 88l172 -35v-53h-527v53l172 35v832l-172 34v56h527v-56l-172 -34v-832zM1976 711l-40 -11l-95 140q-61 86 -190 86h-213v-396h74q127 0 176 115l26 60h43v-424h-43l-26 57q-53 119 -176 119h-74v-369l178 -35v-53h-526v53l166 35v832l-166 34v56h860zM958 711 l-40 -11l-95 140q-61 86 -190 86h-213v-396h74q127 0 176 115l26 60h43v-424h-43l-26 57q-53 119 -176 119h-74v-369l178 -35v-53h-526v53l166 35v832l-166 34v56h860z" />
<glyph unicode="&#xfb04;" horiz-adv-x="3061" d="M2997 377l-43 -377h-846v53l166 35v832l-166 34v56h524v-56l-176 -34v-836h188q68 0 97.5 18.5t68.5 71.5l152 211zM1976 711l-40 -11l-95 140q-61 86 -190 86h-213v-396h74q127 0 176 115l26 60h43v-424h-43l-26 57q-53 119 -176 119h-74v-369l178 -35v-53h-526v53 l166 35v832l-166 34v56h860zM958 711l-40 -11l-95 140q-61 86 -190 86h-213v-396h74q127 0 176 115l26 60h43v-424h-43l-26 57q-53 119 -176 119h-74v-369l178 -35v-53h-526v53l166 35v832l-166 34v56h860z" />
</font>
</defs>
</svg>
