<?xml version="1.0" standalone="no"?>
<!DOCTYPE svg PUBLIC "-//W3C//DTD SVG 1.1//EN" "http://www.w3.org/Graphics/SVG/1.1/DTD/svg11.dtd" >
<svg xmlns="http://www.w3.org/2000/svg">
<metadata>
This is a custom SVG webfont generated by Font Squirrel.
Copyright   : Copyright C 19962005 Hoefler  FrereJones Inc wwwtypographycom
</metadata>
<defs>
<font id="webfontICV39kUy" horiz-adv-x="1034" >
<font-face units-per-em="2048" ascent="1638" descent="-410" />
<missing-glyph horiz-adv-x="471" />
<glyph unicode=" "  horiz-adv-x="471" />
<glyph unicode="&#x09;" horiz-adv-x="471" />
<glyph unicode="&#xa0;" horiz-adv-x="471" />
<glyph unicode="!" horiz-adv-x="548" d="M391 1206q0 -98 -92 -848h-45q-92 750 -92 848q0 61 31.5 95t83 34t83 -34t31.5 -95zM397 92q0 -51 -35.5 -87t-87 -36t-87 36t-35.5 87t35.5 87t87 36t87 -36t35.5 -87z" />
<glyph unicode="&#x22;" horiz-adv-x="641" d="M588 1268q0 -25 -8 -43q-12 -29 -115 -197l-80 -131l-25 10l31 150q39 182 53 221q25 57 70 57q27 0 50.5 -18t23.5 -49zM326 1268q0 -25 -9 -43q-18 -41 -114 -197l-80 -131l-25 10l33 150q37 180 51 221q25 57 70 57q27 0 50.5 -18t23.5 -49z" />
<glyph unicode="#" horiz-adv-x="1189" d="M1098 762h-254l-43 -146l-39 -141h272v-67h-291l-84 -314l-71 21l86 293h-281l-84 -314l-71 21l86 293h-2h-3h-2h-2h-2h-2h-2h-2h-2h-2h-2h-2h-2h-2h-2h-2h-2h-2h-2h-2h-2h-2h-3h-2h-2h-2h-2h-4h-2h-2h-2h-2h-4h-2h-2h-4h-2h-2h-4h-3h-2h-4h-2h-4h-2h-4h-2h-2h-4h-2h-4 h-2h-4h-5h-2h-4h-2h-4h-4h-2h-4h-2h-4h-4h-2h-4h-5h-4h-2h-4h-4h-4h-2h-4h-4h-4h-2h-21v67h252l47 158l35 129h-270v67h288l93 330l69 -20l-92 -310h281l92 330l69 -20l-92 -310h234v-67zM776 762h-282l-43 -146l-39 -141h282l47 158z" />
<glyph unicode="$" horiz-adv-x="1120" d="M977 375q0 -180 -119 -289t-313 -117l-10 -172l-76 8l14 164q-180 6 -332 74l-20 350l35 4q55 -147 140 -238t181 -120q2 0 37 442l6 64q-57 23 -76 30l-69 32q-51 24 -71 39l-55 45q-36 30 -50.5 57.5t-26.5 67.5t-12 85q0 162 112.5 270.5t296.5 114.5l11 146l75 -11 l-12 -137q174 -10 272 -49l9 -309l-35 -6q-111 231 -252 286l-37 -454q188 -80 254 -129q123 -96 123 -248zM565 1225q-100 10 -165.5 -44.5t-65.5 -164.5q0 -84 53 -137.5t150 -98.5zM801 283q0 88 -56.5 140t-162.5 97l-33 -493q119 -2 185.5 65.5t66.5 190.5z" />
<glyph unicode="%" horiz-adv-x="1527" d="M748 942q0 -143 -94.5 -245.5t-254.5 -102.5q-158 0 -243.5 96t-85.5 248q0 143 94 244.5t256 101.5q158 0 243 -95t85 -247zM258 -25l481 668l471 674l60 -43l-482 -666l-471 -674zM1458 315q0 -143 -94 -245.5t-254 -102.5q-158 0 -243 96.5t-85 247.5 q0 143 94.5 244.5t253.5 101.5q158 0 243 -95t85 -247zM588 942q0 147 -49.5 225t-132.5 78q-80 0 -129.5 -80t-49.5 -229q0 -147 51.5 -225t133.5 -78q176 0 176 309zM940 309q0 -147 51 -225t133 -78q84 0 130 79t46 230q0 147 -49 225t-135 78q-80 0 -128 -79.5 t-48 -229.5z" />
<glyph unicode="&#x26;" horiz-adv-x="1423" d="M1399 696v-26l-137 -52l-273 -362q82 -98 138.5 -132t127.5 -34q37 0 107 4l8 -22q-141 -102 -266 -103q-127 0 -254 168q-104 -88 -188 -128t-189 -40q-178 0 -291.5 98.5t-113.5 247.5q0 121 73.5 217.5t192.5 155.5l74 37q-119 141 -119 274q0 129 101.5 208t236.5 79 q139 0 219 -75.5t80 -174.5q0 -143 -219 -282l-62 -39l313 -416l177 317l-109 60v20h373zM758 1047q0 82 -43 136t-111 54q-66 0 -104.5 -47t-38.5 -131q0 -88 94 -219l66 -90q137 145 137 297zM821 172l-387 522l-37 -37q-133 -133 -133 -292q0 -117 84 -186.5t217 -69.5 q123 0 256 63z" />
<glyph unicode="'" horiz-adv-x="378" d="M326 1268q0 -25 -9 -43q-18 -41 -114 -197l-80 -131l-25 10l33 150q37 180 51 221q25 57 70 57q27 0 50.5 -18t23.5 -49z" />
<glyph unicode="(" horiz-adv-x="698" d="M272 578q0 -317 135.5 -562t356.5 -344l-12 -32q-256 84 -443.5 341t-187.5 597t187.5 597t443.5 343l12 -33q-223 -100 -357.5 -344t-134.5 -563z" />
<glyph unicode=")" horiz-adv-x="698" d="M578 578q0 -340 -187.5 -597t-443.5 -341l-13 32q221 98 356.5 343t135.5 563q0 319 -134 562.5t-358 344.5l13 33q256 -86 443.5 -343t187.5 -597z" />
<glyph unicode="*" horiz-adv-x="706" d="M635 868l-10 -20q-59 -16 -111 12q-49 27 -129 111l-8 -4q33 -100 33 -166q0 -59 -43 -103h-25q-45 41 -45 103q0 66 33 166l-8 4q-74 -80 -129 -111q-51 -31 -109 -12l-12 20q12 57 65 88q61 35 162 56v10q-109 25 -162 55q-51 29 -65 88l12 23q57 18 109 -14 q59 -35 129 -111l8 4q-33 113 -33 168q0 59 45 100h25q43 -39 43 -100q0 -63 -33 -168l8 -4q74 80 129 111q53 31 109 14l12 -23q-14 -59 -66 -88q-53 -31 -159 -55v-10q98 -20 159 -56q54 -31 66 -88z" />
<glyph unicode="+" d="M950 582h-385v-389h-94v389h-387v92h387v383h94v-383h385v-92z" />
<glyph unicode="," horiz-adv-x="475" d="M379 43q0 -80 -62.5 -159t-183.5 -138l-20 25q141 119 170 223l-4 2l-35 -8q-10 -4 -31 -4q-43 0 -70.5 29.5t-27.5 74.5q0 51 35.5 88t87.5 37q66 0 103.5 -47t37.5 -123z" />
<glyph unicode="-" horiz-adv-x="688" d="M586 422h-484v117h484v-117z" />
<glyph unicode="." horiz-adv-x="432" d="M340 90q0 -51 -36 -87t-87 -36t-88 36t-37 87t37 87t88 36t87 -36t36 -87z" />
<glyph unicode="/" horiz-adv-x="788" d="M879 1489l-422 -957l-410 -962l-67 31l421 954l410 963z" />
<glyph unicode="0" horiz-adv-x="1150" d="M1067 627q0 -283 -136 -470.5t-364 -187.5q-236 0 -360.5 183.5t-124.5 474.5q0 285 136 472t364 187q236 0 360.5 -184t124.5 -475zM854 627q0 303 -85 456.5t-212 153.5q-262 0 -262 -610.5t297 -610.5q113 0 187.5 155t74.5 456z" />
<glyph unicode="1" horiz-adv-x="786" d="M500 100l227 -67v-33h-639v33l227 67v996l-229 84v24l403 68l11 -6v-1166z" />
<glyph unicode="2" horiz-adv-x="1050" d="M674 866q0 117 -61.5 188.5t-168.5 71.5q-156 0 -303 -147l-16 22q59 131 172 208t227 77q166 0 261.5 -102.5t95.5 -263.5q0 -147 -144.5 -341t-435.5 -411l4 -6h443l178 184l20 -6l-82 -340h-811l-12 25q274 203 442 403q191 233 191 438z" />
<glyph unicode="3" horiz-adv-x="989" d="M881 362q0 -162 -129 -277.5t-312 -115.5q-160 0 -259 55.5t-99 139.5q0 51 31.5 84t81.5 33q68 0 104.5 -58.5t17.5 -148.5q66 -53 154 -54q102 0 166.5 72t64.5 184q0 289 -417 320v25q211 74 289.5 154.5t78.5 180.5q0 80 -59 129.5t-160 49.5q-123 0 -291 -107 l-20 23q182 236 397 235q150 0 229.5 -78t79.5 -182q0 -98 -69.5 -179t-188.5 -134v-15q154 -33 232 -126t78 -210z" />
<glyph unicode="4" horiz-adv-x="1118" d="M1036 393h-252v-293l213 -67v-33h-612v33l217 67v293h-516l-16 37l688 854l26 -12v-748h252v-131zM602 524v463h-4l-373 -463h377z" />
<glyph unicode="5" horiz-adv-x="1009" d="M903 401q0 -180 -134 -306t-320 -126q-156 0 -255.5 55.5t-99.5 139.5q0 51 32 84t81 33q68 0 104.5 -58.5t18.5 -148.5q66 -53 157 -54q98 0 167 77t69 216q0 135 -95.5 222.5t-252.5 87.5q-96 0 -199 -31l-10 8l74 653h528l84 86l22 -6l-43 -252h-546l-39 -301l8 -6 q104 16 180 17q221 0 345 -104t124 -286z" />
<glyph unicode="6" horiz-adv-x="1058" d="M973 440q0 -201 -121 -336t-317 -135q-184 0 -313.5 124t-129.5 353q0 342 248 578q227 215 532 285l11 -35q-215 -94 -342 -221q-131 -131 -207 -324l10 -2q119 90 258 90q170 0 270.5 -112.5t100.5 -264.5zM788 352q0 162 -73.5 260.5t-218.5 98.5q-90 0 -177 -37 q-35 -100 -34 -228q0 -170 77.5 -300t196.5 -130q109 0 169 92t60 244z" />
<glyph unicode="7" horiz-adv-x="966" d="M799 1081h-570l-104 -120l-21 6l56 329l18 7l47 -50h717l8 -14l-624 -1270h-156l295 500z" />
<glyph unicode="8" horiz-adv-x="1015" d="M893 991q0 -197 -264 -315q150 -86 217 -166t67 -176q0 -166 -115.5 -265.5t-299.5 -99.5q-176 0 -280.5 84t-104.5 209q0 109 76.5 197t197.5 135q-123 78 -183.5 159t-60.5 191q0 145 117 243.5t268 98.5q172 0 268.5 -86t96.5 -209zM319 1028q0 -104 60.5 -175 t210.5 -155q129 143 129 310q0 96 -52.5 162.5t-144.5 66.5q-88 0 -145.5 -57.5t-57.5 -151.5zM733 242q0 180 -313 331q-131 -117 -131 -286q0 -115 68.5 -193t181.5 -78q84 0 139 63t55 163z" />
<glyph unicode="9" horiz-adv-x="1056" d="M965 807q0 -344 -246 -578q-119 -113 -246 -180t-305 -102l-10 33q225 86 360 221q127 127 213 344l-10 2q-106 -90 -242 -90q-168 0 -280.5 103.5t-112.5 268.5q0 193 121 325t317.5 132t318.5 -129t122 -350zM772 809q0 176 -74.5 302t-187.5 126q-109 0 -172.5 -92 t-63.5 -242q0 -158 77 -249t224 -91q80 0 168 37q29 92 29 209z" />
<glyph unicode=":" horiz-adv-x="432" d="M338 698.5q0 -51.5 -36 -87.5t-87 -36t-87 36t-36 87.5t36 87t87 35.5t87 -35.5t36 -87zM338 90q0 -51 -36 -87t-87 -36t-87 36t-36 87t36 87t87 36t87 -36t36 -87z" />
<glyph unicode=";" horiz-adv-x="475" d="M377 698.5q0 -51.5 -36 -87.5t-87 -36t-87 36t-36 87.5t36 87t87 35.5t87 -35.5t36 -87zM377 43q0 -80 -62.5 -159t-183.5 -138l-20 25q141 119 170 223l-5 2l-34 -8q-10 -4 -31 -4q-43 0 -70.5 29.5t-27.5 74.5q0 51 35.5 88t87.5 37q66 0 103.5 -47t37.5 -123z" />
<glyph unicode="&#x3c;" d="M881 319l-21 -90l-717 371v55l717 371l21 -90l-611 -309z" />
<glyph unicode="=" d="M950 848v-90h-866v90h866zM950 406h-866v90h866v-90z" />
<glyph unicode="&#x3e;" d="M154 936l20 90l717 -371v-55l-717 -371l-20 90l610 310z" />
<glyph unicode="?" horiz-adv-x="804" d="M756 1001q0 -98 -58.5 -168.5t-187.5 -134.5q-109 -53 -146.5 -88t-37.5 -86q0 -47 34.5 -76.5t90.5 -29.5q45 0 112 14l10 -22q-55 -55 -163 -56q-98 0 -169 54.5t-71 142.5q0 84 51 144.5t170 127.5q106 59 155.5 116.5t49.5 141.5q0 88 -54.5 146.5t-146.5 58.5 q-76 0 -119 -45q29 -49 29 -102q0 -51 -31.5 -85t-81 -34t-83 35t-33.5 88q0 84 87 138t220 54q162 0 267.5 -98.5t105.5 -235.5zM487 92q0 -51 -35.5 -87t-87 -36t-87 36t-35.5 87t35.5 87t87 36t87 -36t35.5 -87z" />
<glyph unicode="@" horiz-adv-x="1679" d="M1479 584q0 236 -169 413t-449.5 177t-461 -205t-180.5 -545q0 -285 186.5 -469t507.5 -184q248 0 465 106l13 -16q-219 -188 -537 -189q-326 0 -552 204t-226 562q0 328 247.5 569.5t602.5 241.5q301 0 489.5 -189.5t188.5 -441.5q0 -233 -144.5 -402t-333.5 -169 q-86 0 -136 41t-50 100l-6 5q-106 -129 -232 -130q-86 0 -147 75t-61 208q0 197 147 361.5t348 164.5q63 0 127 -34l70 59l10 -6l-117 -631q-29 -156 82 -156q145 0 231.5 130.5t86.5 349.5zM1030 713q-74 84 -160 84q-88 0 -160.5 -122t-72.5 -292q0 -100 42 -160.5 t118 -60.5q70 0 151 74z" />
<glyph unicode="A" horiz-adv-x="1288" d="M1153 82l166 -47v-35h-584v35l203 37l-152 407h-448l-148 -395l148 -49v-35h-371v35l146 55l471 1227h96zM760 547l-197 528h-4l-197 -528h398z" />
<glyph unicode="B" horiz-adv-x="1282" d="M1196 375q0 -158 -126 -266.5t-339 -108.5h-659v35l204 37v1161l-204 37v35h606q207 0 319.5 -82t112.5 -211q0 -109 -73.5 -192t-221.5 -113v-11q186 -20 283.5 -110t97.5 -211zM481 709h168q117 0 182.5 72.5t65.5 205.5q0 135 -76 199.5t-186 64.5q-94 0 -154 -12 v-530zM963 358q0 137 -79 215t-243 78h-160v-583q68 -14 168 -15q314 0 314 305z" />
<glyph unicode="C" horiz-adv-x="1341" d="M1243 348l-39 -270q-106 -57 -199.5 -83t-224.5 -26q-311 0 -504.5 184.5t-193.5 485.5q0 289 200.5 492.5t501.5 203.5q180 0 301 -63l89 69h22l16 -438l-32 -4q-102 205 -213 291t-267 86q-152 0 -266.5 -152.5t-114.5 -449.5q0 -301 146.5 -468t368.5 -167 q94 0 159 29l232 288z" />
<glyph unicode="D" horiz-adv-x="1497" d="M276 1233l-202 37v35h628q328 0 520.5 -184.5t192.5 -467.5q0 -281 -203.5 -467t-521.5 -186h-616v35l202 37v1161zM1180 653q0 301 -141.5 442.5t-376.5 141.5h-181v-1169h226q219 0 346 140t127 445z" />
<glyph unicode="E" horiz-adv-x="1312" d="M1100 1305l49 -351l-19 -14l-157 174q-6 6 -22.5 24.5t-21.5 23.5l-20 20q-14 14 -20 17t-20.5 12.5t-24.5 11.5t-26.5 7t-34 6t-38.5 1h-264v-551h109q90 0 134 42t73 151l18 67h31v-575h-31l-18 63q-29 109 -73 152t-134 43h-109v-559h359q84 0 119.5 22.5t84.5 85.5 l179 230l20 -9l-55 -399h-1114v35l202 37v1161l-202 37v35h1026z" />
<glyph unicode="F" horiz-adv-x="1198" d="M1151 954l-21 -14l-157 174q-4 6 -19.5 22.5t-19.5 21.5t-17.5 17.5t-18.5 16.5l-17 13q-12 9 -21 13l-21 8q-13 5 -26.5 6t-31 3t-36.5 2h-262v-559h121q90 0 134 43t73 151l18 68h31v-575h-31l-18 63q-29 109 -73 151t-134 42h-121v-549l215 -37v-35h-624v35l202 37 v1161l-202 37v35h1028z" />
<glyph unicode="G" horiz-adv-x="1404" d="M1204 903l-33 -4q-100 199 -210.5 288t-247.5 89q-164 0 -280 -151.5t-116 -450.5q0 -303 132.5 -463t351.5 -160q115 0 233 60v376l-176 37v35h531v-35l-150 -37v-503l-20 -9l-152 99q-158 -104 -346 -105q-281 0 -460 187.5t-179 482.5q0 289 200.5 492.5t499.5 203.5 q174 0 295 -63l90 69h23z" />
<glyph unicode="H" horiz-adv-x="1667" d="M1186 711v522l-203 37v35h610v-35l-202 -37v-1161l202 -37v-35h-610v35l203 37v571h-705v-571l203 -37v-35h-610v35l202 37v1161l-202 37v35h610v-35l-203 -37v-522h705z" />
<glyph unicode="I" horiz-adv-x="819" d="M512 72l209 -37v-35h-625v35l211 37v1161l-211 37v35h625v-35l-209 -37v-1161z" />
<glyph unicode="J" horiz-adv-x="1019" d="M768 451q0 -133 -22.5 -214t-83.5 -147q-121 -127 -334 -127q-145 0 -213 52.5t-68 125.5q0 53 39 88t90 35q68 0 110 -67.5t42 -184.5q147 31 190 112t43 247v862l-209 37v35h619v-35l-203 -37v-782z" />
<glyph unicode="K" horiz-adv-x="1413" d="M745 743l515 -649l172 -59v-35h-555v35l139 49l-416 553h-119v-565l205 -37v-35h-612v35l202 37v1161l-202 37v35h612v-35l-205 -37v-528h140l452 501l-153 64v35h444v-35l-184 -74z" />
<glyph unicode="L" horiz-adv-x="1249" d="M1192 399l-53 -399h-1065v35l202 37v1161l-202 37v35h612v-35l-203 -37v-1163h308q84 0 119.5 22.5t84.5 85.5l179 230z" />
<glyph unicode="M" horiz-adv-x="1871" d="M1595 72l203 -37v-35h-610v35l203 37v1128h-15l-479 -1200h-49l-500 1200h-14v-1110l162 -55v-35h-392v35l162 55v1139l-162 41v35h431l79 -211l328 -809h10l320 809l76 211h450v-35l-203 -37v-1161z" />
<glyph unicode="N" horiz-adv-x="1525" d="M266 90v1127l-162 53v35h385l154 -209l545 -719h12v837l-162 56v35h394v-35l-162 -56v-1226h-58l-153 209l-711 933h-14v-1040l162 -55v-35h-392v35z" />
<glyph unicode="O" horiz-adv-x="1445" d="M1360 653q0 -287 -179.5 -485.5t-465.5 -198.5q-297 0 -465 196.5t-168 487.5q0 285 179 483.5t466 198.5q297 0 465 -195.5t168 -486.5zM1124 653q0 299 -129 467t-297 168q-162 0 -271.5 -151.5t-109.5 -483.5q0 -172 37 -300t100.5 -198.5t135.5 -104.5t153 -34 q154 0 267.5 167t113.5 470z" />
<glyph unicode="P" horiz-adv-x="1212" d="M1135 946q0 -152 -115 -265.5t-324 -113.5q-96 0 -215 19v-514l203 -37v-35h-610v35l202 37v1161l-202 37v35h592q225 0 347 -100.5t122 -258.5zM905 940q0 147 -73.5 229t-208.5 82q-80 0 -142 -12v-604q61 -10 137 -10q287 0 287 315z" />
<glyph unicode="Q" horiz-adv-x="1445" d="M1360 653q0 -256 -146.5 -446.5t-388.5 -229.5q127 -203 238 -276q102 -72 244 -98l-4 -31h-158q-221 0 -311 66q-53 41 -144 192l-86 147q-248 37 -385 225.5t-137 450.5q0 285 179 483.5t466 198.5q297 0 465 -195.5t168 -486.5zM1124 653q0 299 -129 467t-297 168 q-162 0 -271.5 -151.5t-109.5 -483.5q0 -172 37 -300t100.5 -198.5t135.5 -104.5t153 -34q154 0 267.5 167t113.5 470z" />
<glyph unicode="R" horiz-adv-x="1347" d="M1161 971q0 -117 -97 -204t-271 -122v-10q145 -47 231 -221q8 -18 27.5 -54t27.5 -53.5t24.5 -47.5t26.5 -46l24 -37q13 -20 25.5 -34.5t24.5 -24.5q49 -39 85 -56.5t97 -25.5v-35h-237q-59 0 -96 9t-68 43t-46 62.5t-50 102.5l-113 236q-47 96 -94 126.5t-123 30.5h-78 v-538l203 -37v-35h-610v35l202 37v1161l-202 37v35h594q231 0 362 -91t131 -243zM932 960.5q0 139.5 -88 215t-221 75.5q-80 0 -142 -12v-571h142q131 0 220 76.5t89 216z" />
<glyph unicode="S" horiz-adv-x="1075" d="M971 393q0 -135 -70 -234.5t-165 -144.5t-195 -45q-174 0 -301 64l-82 -70h-31l-25 449l33 4q94 -215 195.5 -301t220.5 -86q113 0 183.5 68.5t70.5 183.5q0 96 -51.5 153.5t-196.5 118.5q-145 57 -201 84q-209 102 -209 321q0 182 123 279.5t281 97.5q113 0 217 -63 l84 69h29l34 -393l-32 -4q-86 174 -175.5 253t-193.5 79q-86 0 -143.5 -60.5t-57.5 -160.5q0 -78 42 -135.5t149 -102.5l106 -45q78 -33 121 -53q125 -59 182.5 -137t57.5 -189z" />
<glyph unicode="T" horiz-adv-x="1361" d="M1319 936l-23 -12l-125 157q-78 96 -120.5 126t-118.5 30h-137v-1165l217 -37v-35h-639v35l217 37v1165h-152q-76 0 -119 -29.5t-120 -126.5l-125 -157l-21 12l72 369h1120z" />
<glyph unicode="U" horiz-adv-x="1507" d="M1212 1214l-161 56v35h391v-35l-162 -56v-794q0 -197 -143.5 -326t-360.5 -129q-250 0 -385 112.5t-135 336.5v819l-203 37v35h615v-35l-203 -37v-776q0 -211 97 -301t302 -90q174 0 261 111.5t87 287.5v749z" />
<glyph unicode="V" horiz-adv-x="1372" d="M1225 1212l-484 -1224h-69l-488 1235l-180 47v35h598v-35l-203 -37l373 -991l373 970l-146 58v35h375v-35z" />
<glyph unicode="W" horiz-adv-x="1953" d="M1122 1233l312 -973h4l282 952l-145 58v35h375v-35l-150 -58l-393 -1224h-70l-336 977h-4l-356 -977h-72l-385 1235l-180 47v35h586v-35l-191 -37l275 -969h4l283 817l-48 142l-168 47v35h568v-35z" />
<glyph unicode="X" horiz-adv-x="1464" d="M1196 1214l-379 -501l109 -158l213 -315l108 -158l180 -47v-35h-598v35l179 37q-309 494 -312 493l-334 -481l150 -49v-35h-432v35l168 55l403 535l-403 598l-180 47v35h598v-35l-179 -37l285 -457l309 445l-149 49v35h432v-35z" />
<glyph unicode="Y" horiz-adv-x="1296" d="M1159 1214l-385 -616v-526l209 -37v-35h-623v35l209 37v491l-393 660l-180 47v35h598v-35l-176 -37l309 -584l324 572l-150 49v35h420v-35z" />
<glyph unicode="Z" horiz-adv-x="1306" d="M1217 399l-54 -399h-1077l-8 20l835 1217h-366q-20 0 -37.5 -1t-34 -6t-27 -7t-24.5 -11.5t-20.5 -12.5t-20.5 -17l-19 -20q-5 -5 -21.5 -23.5t-23.5 -24.5l-157 -174l-19 14l50 351h989l8 -21l-836 -1214h461q84 0 120 22.5t85 85.5l178 230z" />
<glyph unicode="[" horiz-adv-x="620" d="M696 1464h-348v-1771h348v-53h-516v1878h516v-54z" />
<glyph unicode="\" horiz-adv-x="788" d="M47 1518l410 -963l422 -954l-68 -31l-410 962l-421 957z" />
<glyph unicode="]" horiz-adv-x="620" d="M272 1464h-348v54h516v-1878h-516v53h348v1771z" />
<glyph unicode="^" horiz-adv-x="612" d="M307 1237l-231 -203l-25 21l248 362h31l231 -362l-24 -21z" />
<glyph unicode="_" horiz-adv-x="901" d="M901 68v-68h-901v68h901z" />
<glyph unicode="`" horiz-adv-x="487" d="M348 1061l-26 -17l-92 98l-95 100q-39 42 -53 65q-23 33 -19.5 66.5t29.5 51.5q29 16 60.5 5t52.5 -44q18 -29 67 -150.5t76 -174.5z" />
<glyph unicode="a" horiz-adv-x="1071" d="M287 350l-103 -280l121 -39v-31h-309v31l113 43l372 956h101l362 -962l131 -37v-31h-477v31l150 28l-105 291h-356zM623 410l-154 428h-4l-156 -428h314z" />
<glyph unicode="b" horiz-adv-x="1062" d="M967 287q0 -133 -96.5 -210t-290.5 -77h-523v29l154 30v891l-154 31v29h490q371 0 371 -226q0 -195 -269 -241v-8q156 -12 237 -82t81 -166zM399 549h117q96 0 149.5 56.5t53.5 156.5q0 98 -59.5 148.5t-145.5 50.5q-59 0 -115 -7v-405zM768 276q0 104 -65.5 165 t-196.5 61h-107v-445q61 -12 129 -12q117 0 178.5 61t61.5 170z" />
<glyph unicode="c" horiz-adv-x="1091" d="M1004 326l-41 -279q-156 -78 -342 -78q-248 0 -397.5 143.5t-149.5 381.5q0 229 156.5 387.5t400.5 158.5q141 0 243 -53l68 57h19l16 -360l-31 -2q-74 156 -162 230.5t-204 74.5q-123 0 -209 -116.5t-86 -348.5q0 -229 105.5 -361t273.5 -132q57 0 106 16l215 287z" />
<glyph unicode="d" horiz-adv-x="1191" d="M211 950l-154 31v29h502q258 0 407.5 -142.5t149.5 -361.5q0 -217 -157.5 -361.5t-409.5 -144.5h-492v29l154 30v891zM907 506q0 229 -103.5 336.5t-277.5 109.5h-127v-897h164q344 5 344 451z" />
<glyph unicode="e" horiz-adv-x="1079" d="M926 1010l32 -322l-22 -14l-133 176q-47 61 -83 81.5t-116 20.5h-205v-409h80q63 0 102.5 32.5t59.5 108.5l16 61h31v-456h-31l-16 57q-23 78 -61.5 112t-100.5 34h-80v-435h246q74 0 106.5 18.5t73.5 74.5l148 200l22 -8l-39 -342h-899v29l154 30v891l-154 31v29h869z " />
<glyph unicode="f" horiz-adv-x="989" d="M942 686l-20 -12l-131 180q-41 57 -78 77.5t-111 20.5h-203v-432h86q66 0 104 33t58 111l17 59h32v-455h-32l-17 58q-23 78 -59.5 110.5t-102.5 32.5h-86v-410l168 -30v-29h-510v29l154 30v891l-154 31v29h852z" />
<glyph unicode="g" horiz-adv-x="1140" d="M969 666l-31 -4q-88 174 -174 251.5t-184 77.5q-119 0 -207 -120.5t-88 -348.5q0 -215 100 -349t260 -134q76 0 154 43v305l-133 31v28h430v-28l-109 -31v-403l-20 -7l-136 74q-137 -82 -276 -82q-215 0 -348 146.5t-133 378.5q0 225 156.5 385.5t394.5 160.5 q135 0 239 -55l66 57h24z" />
<glyph unicode="h" horiz-adv-x="1298" d="M899 553v397l-154 31v29h496v-29l-154 -31v-891l154 -30v-29h-496v29l154 30v435h-500v-435l154 -30v-29h-496v29l154 30v891l-154 31v29h496v-29l-154 -31v-397h500z" />
<glyph unicode="i" horiz-adv-x="634" d="M412 59l161 -30v-29h-512v29l162 30v891l-162 31v29h512v-29l-161 -31v-891z" />
<glyph unicode="j" horiz-adv-x="851" d="M670 410q0 -119 -20.5 -191t-76.5 -133q-106 -115 -299 -115q-125 0 -183 45t-58 109q0 47 33.5 77.5t78.5 30.5q61 0 97.5 -58t36.5 -159q129 27 166.5 100.5t37.5 221.5v610l-168 35v27h504v-27l-149 -33v-540z" />
<glyph unicode="k" horiz-adv-x="1128" d="M616 586l383 -510l127 -49v-27h-444v27l100 39l-295 415h-88v-422l146 -30v-29h-488v29l154 30v891l-154 31v29h488v-29l-146 -31v-409h103l336 391l-146 51v27h402v-27l-154 -57z" />
<glyph unicode="l" horiz-adv-x="1001" d="M934 358l-47 -358h-830v29l154 30v891l-154 31v29h498v-29l-156 -31v-889h174q53 0 87 13.5t50.5 29t47.5 56.5l160 207z" />
<glyph unicode="m" horiz-adv-x="1468" d="M1257 59l154 -30v-29h-496v29l154 30v865h-12l-361 -930h-43l-385 930h-12v-850l135 -45v-29h-325v29l131 45v872l-131 35v29h374l64 -164l229 -592h12l224 592l59 164h383v-29l-154 -31v-891z" />
<glyph unicode="n" horiz-adv-x="1191" d="M197 74v864l-131 43v29h323l127 -172l416 -549h14v647l-135 45v29h326v-29l-131 -45v-952h-80l-127 176l-529 698h-14v-784l135 -45v-29h-325v29z" />
<glyph unicode="o" horiz-adv-x="1179" d="M1104 506q0 -229 -140.5 -383t-379.5 -154q-246 0 -377 151.5t-131 385.5q0 229 140 381.5t378 152.5q246 0 378 -150.5t132 -383.5zM895 506q0 240 -92 367.5t-230 127.5q-289 0 -288 -495q0 -262 88 -381t231 -119q127 0 209 129t82 371z" />
<glyph unicode="p" horiz-adv-x="983" d="M926 717q0 -125 -94.5 -215t-262.5 -90q-80 0 -170 14v-367l160 -30v-29h-502v29l154 30v891l-154 31v29h492q186 0 281.5 -82t95.5 -211zM725 713q0 117 -56.5 182.5t-160.5 65.5q-72 0 -109 -5v-487q37 -4 109 -4q217 0 217 248z" />
<glyph unicode="q" horiz-adv-x="1179" d="M1104 506q0 -203 -112.5 -349.5t-307.5 -179.5q86 -131 172 -190q88 -61 199 -78l-4 -24h-144q-178 0 -250 53q-41 31 -114 153l-49 84q-203 29 -310.5 174.5t-107.5 356.5q0 229 140 381.5t378 152.5q246 0 378 -150.5t132 -383.5zM895 506q0 240 -92 367.5t-230 127.5 q-289 0 -288 -495q0 -262 88 -381t231 -119q127 0 209 129t82 371z" />
<glyph unicode="r" horiz-adv-x="1085" d="M946 754q0 -205 -303 -258v-11q86 -23 132 -62.5t75 -111.5q74 -176 125 -223q45 -43 123 -57v-31h-174q-96 0 -135 35t-82 135l-78 176q-31 72 -68 94.5t-110 22.5h-52v-404l154 -30v-29h-496v29l154 30v891l-154 31v29h518q180 0 275.5 -68.5t95.5 -187.5zM745 737 q0 104 -66.5 162.5t-168.5 58.5q-61 0 -111 -6v-442h101q109 0 177 60.5t68 166.5z" />
<glyph unicode="s" horiz-adv-x="927" d="M831 293q0 -145 -109.5 -234.5t-250.5 -89.5q-139 0 -246 51l-65 -55h-29l-20 363l34 4q86 -172 166 -245t170 -73q92 0 148.5 51.5t56.5 129.5q0 86 -52 133t-151 86q-12 4 -82.5 30.5t-105.5 42.5q-168 84 -168 246q0 137 105.5 222t242.5 85q113 0 203 -53l63 60h31 l25 -332l-37 -4q-94 156 -162 218t-149 62q-76 0 -125.5 -47t-49.5 -119q0 -70 42 -111.5t122 -74.5q29 -12 93.5 -34.5t97.5 -37.5q96 -43 149 -105.5t53 -168.5z" />
<glyph unicode="t" horiz-adv-x="1110" d="M1057 659l-21 -8l-96 135q-70 98 -111 131t-106 33h-70v-891l162 -30v-29h-512v29l162 30v891h-86q-63 0 -104.5 -32.5t-110.5 -131.5l-96 -135l-21 8l62 351h886z" />
<glyph unicode="u" horiz-adv-x="1189" d="M958 934l-122 47v29h303v-29l-121 -47v-588q0 -170 -108.5 -273.5t-297.5 -103.5q-203 0 -313.5 93.5t-110.5 269.5v618l-153 31v29h491v-29l-153 -31v-577q0 -164 76.5 -238t232.5 -74q137 0 206.5 86t69.5 226v561z" />
<glyph unicode="v" horiz-adv-x="1105" d="M987 932l-387 -942h-65l-388 952l-133 39v29h484v-29l-148 -31l281 -745l276 725l-108 51v29h297v-29z" />
<glyph unicode="w" horiz-adv-x="1556" d="M768 817l-43 125l-117 39v29h443v-29l-136 -31l226 -719h4l196 701l-114 49v29h305v-29l-113 -47l-305 -944h-65l-248 731h-4l-275 -731h-65l-293 952l-135 39v29h465v-29l-136 -31l197 -719h4z" />
<glyph unicode="x" horiz-adv-x="1163" d="M625 598l237 340l-127 43v29h367v-29l-135 -47l-305 -379l339 -492l146 -34v-29h-490v29l131 28l-247 385l-262 -370l127 -43v-29h-365v29l133 47l328 409l-316 461l-145 35v29h489v-29l-131 -29z" />
<glyph unicode="y" horiz-adv-x="1038" d="M918 932l-291 -465v-408l161 -30v-29h-512v29l162 30v373l-295 504l-141 45v29h492v-29l-138 -39l232 -428l227 418l-115 49v29h340v-29z" />
<glyph unicode="z" horiz-adv-x="1046" d="M958 336l-45 -336h-839l-8 16l636 934h-245q-66 0 -102 -21.5t-91 -82.5l-131 -146l-18 15l41 295h782l6 -17l-633 -934h307q72 0 102 18.5t73 74.5l147 192z" />
<glyph unicode="{" horiz-adv-x="681" d="M469 963q0 -203 -66.5 -276t-222.5 -101v-4q156 -27 222.5 -100.5t66.5 -274.5v-266q0 -137 47 -188.5t182 -74.5v-38q-209 10 -305 80.5t-96 273.5v280q0 150 -61.5 213.5t-212.5 79.5v33q152 18 213 81.5t61 213.5v268q0 106 26.5 175t83 106t123 53t168.5 21v-41 q-135 -23 -182 -74t-47 -189v-251z" />
<glyph unicode="|" horiz-adv-x="548" d="M311 -494h-73l6 965l-6 965h73l-6 -965z" />
<glyph unicode="}" horiz-adv-x="681" d="M387 895q0 -150 60.5 -213.5t211.5 -81.5v-33q-152 -16 -212 -79.5t-60 -213.5v-280q0 -106 -26.5 -176t-83 -107t-124 -52t-169.5 -19v38q135 23 183 74t48 189v266q0 201 66.5 274.5t222.5 100.5v4q-156 29 -222.5 101.5t-66.5 275.5v251q0 137 -48 188.5t-183 74.5v41 q209 -10 306 -81t97 -274v-268z" />
<glyph unicode="~" horiz-adv-x="739" d="M248 754q55 0 149.5 -36t130.5 -36q70 0 103 86l26 -12q-31 -203 -163 -203q-53 0 -149.5 36t-133.5 36q-66 0 -102 -84l-27 10q33 203 166 203z" />
<glyph unicode="&#xa1;" horiz-adv-x="548" d="M397 698.5q0 -51.5 -35.5 -87.5t-87 -36t-87 36t-35.5 87.5t35.5 87t87 35.5t87 -35.5t35.5 -87zM250 432h45q92 -750 92 -848q0 -61 -31.5 -95t-83 -34t-83 34t-31.5 95q0 98 92 848z" />
<glyph unicode="&#xa2;" horiz-adv-x="966" d="M528 104q33 -8 78 -8q141 0 287 76l12 -27q-176 -188 -387 -174l-12 -168l-72 9l17 165q-164 31 -266.5 158t-102.5 309q0 197 130 339.5t318 162.5l13 152l69 -8l-12 -140q141 -2 221 -64.5t80 -144.5q0 -63 -30.5 -99t-82.5 -36q-88 0 -109.5 86t40.5 158 q-41 41 -123 47l-41 -453zM268 483q0 -123 51.5 -218t143.5 -138l31 324l32 440q-104 -23 -181 -127.5t-77 -280.5z" />
<glyph unicode="&#xa3;" horiz-adv-x="1122" d="M858 674v-82h-278q2 -12 2 -39q0 -106 -59.5 -198.5t-168.5 -147.5l2 -14q78 8 257.5 -6.5t209.5 -14.5q82 0 123 47t64 150l45 -2q-14 -168 -88 -283t-195 -115q-141 0 -453 152q-27 -70 -73.5 -111t-95.5 -41q-98 0 -99 86q0 57 58.5 96t175.5 46q104 129 104 270 q0 66 -27 125h-268v82h232q-45 92 -45 184q0 176 144 302t327 126q133 0 190 -47t57 -100q0 -49 -32.5 -84t-81.5 -35q-59 0 -111.5 54t-71.5 151q-106 -25 -161.5 -104t-55.5 -189q0 -123 74 -258h299z" />
<glyph unicode="&#xa4;" horiz-adv-x="1118" d="M152 715h-125v67h137q55 227 216 365.5t357 138.5q125 0 204 -53t79 -131q0 -53 -32 -88t-79 -35q-86 0 -110.5 84t39.5 160q-39 8 -86 8q-137 0 -246 -112.5t-141 -336.5h540v-67h-547q-4 -57 -4 -90q0 -51 6 -97h545v-67h-532q41 -174 158.5 -274.5t269.5 -100.5 q115 0 229 49l12 -24q-131 -141 -331.5 -141.5t-361.5 129.5t-197 362h-125v67h116q-2 18 -2 58q1 61 11 129z" />
<glyph unicode="&#xa5;" horiz-adv-x="1318" d="M213 639h313l-317 532l-168 48v34h580v-34l-179 -37l275 -518l291 505l-150 50v34h418v-34l-160 -56l-334 -524h320v-70h-346v-135h346v-69h-346v-293l211 -37v-35h-619v35l209 37v293h-344v69h344v135h-344v70z" />
<glyph unicode="&#xa6;" horiz-adv-x="548" d="M311 592h-73l6 422l-6 422h73l-6 -422zM311 -494h-73l6 422l-6 422h73l-6 -422z" />
<glyph unicode="&#xa7;" horiz-adv-x="972" d="M850 299q0 -209 -129 -354.5t-307 -145.5q-133 0 -215 58.5t-82 140.5q0 49 32.5 83t79.5 34t77 -31t30 -76q0 -43 -27 -94q55 -66 148 -66q88 0 159.5 61.5t104.5 162.5q-598 395 -598 800q0 213 128 357.5t306 144.5q133 0 215 -59.5t82 -138.5q0 -51 -33 -85t-78 -34 q-47 0 -76.5 30.5t-29.5 75.5q0 49 25 97q-53 63 -148 63q-90 0 -164 -63.5t-104 -169.5q604 -385 604 -791zM229 961q0 -63 16.5 -128t59.5 -143t75 -129t110 -147l114 -138l131 -151q8 35 8 88q0 76 -30.5 161t-67.5 152.5t-120 172t-132 160.5l-157 177q-7 -36 -7 -75z " />
<glyph unicode="&#xa8;" horiz-adv-x="659" d="M498 1139q-43 0 -71 28.5t-28 71.5q0 45 32 78t79 33q43 0 70.5 -29t27.5 -72q0 -45 -31.5 -77.5t-78.5 -32.5zM150 1139q-43 0 -71 28.5t-28 71.5q0 45 32 78t79 33q43 0 70.5 -29t27.5 -72q0 -45 -31.5 -77.5t-78.5 -32.5z" />
<glyph unicode="&#xa9;" horiz-adv-x="1503" d="M1436 653q0 -285 -201 -484.5t-483.5 -199.5t-483 200t-200.5 484q0 283 200.5 482.5t483 199.5t483.5 -199.5t201 -482.5zM1384 653q0 262 -185 448.5t-447.5 186.5t-447.5 -186.5t-185 -448.5q0 -264 185 -450.5t447.5 -186.5t447.5 186.5t185 450.5zM553 664 q0 -154 68.5 -239t179.5 -85q49 0 73 12l127 162l21 -4l-23 -168q-109 -51 -227 -51q-166 0 -268.5 97t-102.5 257q0 154 107.5 261.5t267.5 107.5q92 0 158 -33l37 37h24l13 -248l-29 -2q-92 203 -234 203q-80 0 -136 -75.5t-56 -231.5z" />
<glyph unicode="&#xaa;" horiz-adv-x="811" d="M137 1161q0 72 97.5 123t207.5 51q193 0 193 -196v-375q0 -63 119 -57l4 -21q-74 -39 -158 -39q-92 0 -98 101l-8 2q-106 -102 -218 -103q-76 0 -119.5 39t-43.5 105q0 186 381 221v114q0 141 -154 142q-45 0 -100 -19q51 -39 51 -90q0 -31 -21.5 -52.5t-54.5 -21.5 q-35 0 -56.5 22.5t-21.5 53.5zM258 834q0 -47 28.5 -74t75.5 -27q51 0 132 43v195q-236 -6 -236 -137z" />
<glyph unicode="&#xab;" horiz-adv-x="964" d="M618 459l244 -367l-37 -31l-401 388v20l401 387l37 -33zM256 459l244 -367l-37 -31l-402 388v20l402 387l37 -33z" />
<glyph unicode="&#xac;" d="M950 580h-866v96h866v-96z" />
<glyph unicode="&#xad;" horiz-adv-x="688" d="M586 422h-484v117h484v-117z" />
<glyph unicode="&#xae;" horiz-adv-x="770" d="M385 721q-131 0 -219 88t-88 219t88 219t219 88t219 -88t88 -219t-88 -219t-219 -88zM385 754q115 0 191.5 78.5t76.5 195.5t-76.5 196t-191.5 79t-191.5 -79t-76.5 -196t76.5 -195.5t191.5 -78.5zM516 1112q0 -66 -88 -80v-8q41 -8 61 -51q23 -51 35 -62q16 -14 43 -16 v-18h-61q-27 0 -39 10t-25 43l-22 53q-12 31 -55 31h-17v-107l53 -12v-18h-170v18l56 12v250l-56 14v19h175q53 0 81.5 -22.5t28.5 -55.5zM451 1104q0 61 -72 61h-31v-127h23q80 0 80 66z" />
<glyph unicode="&#xaf;" horiz-adv-x="657" d="M586 1190v-86h-514v86h514z" />
<glyph unicode="&#xb0;" horiz-adv-x="786" d="M709 1030q0 -121 -89.5 -215t-232.5 -94q-141 0 -225 91t-84 216q0 121 89 214t234 93q141 0 224.5 -90t83.5 -215zM567 1030q0 115 -48 186.5t-128 71.5q-78 0 -125 -72.5t-47 -189.5q0 -113 49 -185.5t127 -72.5q80 0 126 72.5t46 189.5z" />
<glyph unicode="&#xb1;" horiz-adv-x="1024" d="M51 -410v2048h922v-2048h-922z" />
<glyph unicode="&#xb2;" horiz-adv-x="1024" d="M51 -410v2048h922v-2048h-922z" />
<glyph unicode="&#xb3;" horiz-adv-x="1024" d="M51 -410v2048h922v-2048h-922z" />
<glyph unicode="&#xb4;" horiz-adv-x="487" d="M369 1425q27 -18 30.5 -52t-18.5 -66q-14 -23 -54 -65l-97 -99q-56 -57 -91 -99l-24 17q23 49 52 124l52 127q23 52 37 74q23 33 53.5 44t59.5 -5z" />
<glyph unicode="&#xb5;" d="M578 627l292 -299l-67 -64l-287 297l-287 -297l-67 64l293 299l-291 297l67 63l285 -295l285 295l67 -63z" />
<glyph unicode="&#xb6;" horiz-adv-x="1468" d="M1192 -98l225 -37v-35h-434q-416 0 -638 211t-222 567q0 352 233.5 565t638.5 213h422v-32l-225 -39v-1413zM965 1319v-1421l159 4v1413z" />
<glyph unicode="&#xb7;" horiz-adv-x="432" d="M340 651q0 -51 -36 -87t-87 -36t-88 36t-37 87t37 87t88 36t87 -36t36 -87z" />
<glyph unicode="&#xb8;" horiz-adv-x="577" d="M346 -328q0 -84 -61.5 -137t-155.5 -53q-68 0 -105.5 26.5t-37.5 67.5q0 29 16 47.5t43 18.5q55 0 55 -62q0 -27 -20 -47q25 -14 55 -14q100 0 101 119q0 55 -30 88.5t-87 33.5q-25 0 -60 -10l-30 35l366 307l27 -39l-244 -205q76 -10 122 -57t46 -119z" />
<glyph unicode="&#xb9;" horiz-adv-x="1024" d="M51 -410v2048h922v-2048h-922z" />
<glyph unicode="&#xba;" horiz-adv-x="827" d="M752 995q0 -143 -94.5 -245.5t-254.5 -102.5q-158 0 -242.5 96.5t-84.5 247.5q0 141 94 242.5t254 101.5q158 0 243 -94t85 -246zM594 995q0 147 -49 225t-135 78q-80 0 -128.5 -79.5t-48.5 -229.5q0 -147 51.5 -225t133.5 -78q84 0 130 78.5t46 230.5z" />
<glyph unicode="&#xbb;" horiz-adv-x="964" d="M903 449l-401 -388l-37 31l244 367l-244 364l37 33l401 -387v-20zM541 449l-402 -388l-37 31l244 367l-244 364l37 33l402 -387v-20z" />
<glyph unicode="&#xbc;" horiz-adv-x="1024" d="M51 -410v2048h922v-2048h-922z" />
<glyph unicode="&#xbd;" horiz-adv-x="1024" d="M51 -410v2048h922v-2048h-922z" />
<glyph unicode="&#xbe;" horiz-adv-x="1024" d="M51 -410v2048h922v-2048h-922z" />
<glyph unicode="&#xbf;" horiz-adv-x="753" d="M571 698.5q0 -51.5 -35.5 -87.5t-87 -36t-87 36t-35.5 87.5t35.5 87t87 35.5t87 -35.5t35.5 -87zM737 -352q0 -84 -87 -138.5t-220 -54.5q-162 0 -267.5 98.5t-105.5 235.5q0 98 58.5 169t187.5 134q109 53 146.5 88t37.5 86q0 47 -34.5 77t-90.5 30q-45 0 -112 -15 l-10 23q55 55 163 55q98 0 169 -52t71 -138q0 -84 -52 -148.5t-169 -130.5q-106 -59 -155.5 -116.5t-49.5 -141.5q0 -88 54.5 -146.5t146.5 -58.5q76 0 119 45q-29 49 -29 103q0 51 31.5 85t81 34t83 -35t33.5 -88z" />
<glyph unicode="&#xc0;" horiz-adv-x="1288" d="M666 1442l-27 -17l-91 98l-95 100q-39 42 -54 65q-23 33 -19.5 66.5t30.5 51.5q29 16 60.5 5t51.5 -44q18 -29 67.5 -150.5t76.5 -174.5zM1153 82l166 -47v-35h-584v35l203 37l-152 407h-448l-148 -395l148 -49v-35h-371v35l146 55l471 1227h96zM760 547l-197 528h-4 l-197 -528h398z" />
<glyph unicode="&#xc1;" horiz-adv-x="1288" d="M788 1806q27 -18 31 -52t-18 -66q-14 -23 -55 -65l-96 -99q-56 -57 -91 -99l-24 17q23 49 52 124l52 127q23 52 37 74q23 33 53 44t59 -5zM1153 82l166 -47v-35h-584v35l203 37l-152 407h-448l-148 -395l148 -49v-35h-371v35l146 55l471 1227h96zM760 547l-197 528h-4 l-197 -528h398z" />
<glyph unicode="&#xc2;" horiz-adv-x="1288" d="M629 1577l-232 -203l-24 21l248 362h30l232 -362l-25 -21zM1157 82l166 -47v-35h-584v35l203 37l-151 407h-449l-147 -395l147 -49v-35h-371v35l146 55l471 1227h96zM764 547l-197 528h-4l-196 -528h397z" />
<glyph unicode="&#xc3;" horiz-adv-x="1288" d="M350 1470q33 203 166 203q53 0 149.5 -35.5t131.5 -35.5q70 0 102 86l27 -13q-31 -203 -164 -202q-53 0 -149.5 35.5t-133.5 35.5q-66 0 -102 -84zM1153 82l166 -47v-35h-584v35l203 37l-152 407h-448l-148 -395l148 -49v-35h-371v35l146 55l471 1227h96zM760 547 l-197 528h-4l-197 -528h398z" />
<glyph unicode="&#xc4;" horiz-adv-x="1288" d="M811 1520q-43 0 -70.5 28.5t-27.5 71.5q0 45 31.5 78t78.5 33q43 0 71 -29t28 -72q0 -45 -32 -77.5t-79 -32.5zM463 1520q-43 0 -70.5 28.5t-27.5 71.5q0 45 31.5 78t78.5 33q43 0 70.5 -29t27.5 -72q0 -45 -31.5 -77.5t-78.5 -32.5zM1153 82l166 -47v-35h-584v35l203 37 l-152 407h-448l-148 -395l148 -49v-35h-371v35l146 55l471 1227h96zM760 547l-197 528h-4l-197 -528h398z" />
<glyph unicode="&#xc5;" horiz-adv-x="1288" d="M1153 82l166 -47v-35h-584v35l203 37l-152 407h-448l-148 -395l148 -49v-35h-371v35l146 55l465 1213q-61 14 -98.5 63t-37.5 115q0 72 54.5 127t138.5 55q82 0 132 -52t50 -130q0 -57 -37 -106.5t-96 -67.5zM532 1479q0 -70 27 -108t72 -38q94 0 94 148q0 145 -98 145 q-95 0 -95 -147zM559 1075l-197 -528h398l-197 528h-4z" />
<glyph unicode="&#xc6;" horiz-adv-x="1888" d="M461 537l-287 -453l150 -49v-35h-398v35l146 55l747 1127l-196 53v35h1054l49 -351l-20 -14l-158 174q-6 6 -22.5 24.5t-21.5 23.5l-19 20q-14 14 -20.5 17t-20.5 12.5t-24.5 11.5t-27 7t-34 6t-37.5 1h-264v-551h108q90 0 134 42t73 151l19 67h30v-575h-30l-19 63 q-29 109 -73 152t-134 43h-108v-559h358q84 0 120 22.5t85 85.5l180 230l19 -9l-56 -399h-1114v35l203 37v465h-391zM852 604v541h-4l-344 -541h348z" />
<glyph unicode="&#xc7;" horiz-adv-x="1341" d="M319 674q0 -301 146.5 -468t368.5 -167q94 0 159 29l232 288l18 -8l-39 -270q-174 -92 -336 -105l-149 -125q76 -10 122 -57t46 -119q0 -84 -61.5 -137t-155.5 -53q-68 0 -106 26.5t-38 67.5q0 29 16.5 47.5t43.5 18.5q55 0 55 -62q0 -27 -20 -47q25 -14 55 -14 q100 0 100 119q0 55 -29.5 88.5t-87.5 33.5q-25 0 -59 -10l-31 35l222 184q-317 -2 -513 182.5t-196 487.5q0 289 200.5 492.5t501.5 203.5q180 0 301 -63l89 69h22l16 -438l-32 -4q-102 205 -213 291t-267 86q-152 0 -266.5 -152.5t-114.5 -449.5z" />
<glyph unicode="&#xc8;" horiz-adv-x="1312" d="M739 1442l-26 -17l-91 98l-96 100q-39 42 -53 65q-23 33 -19.5 66.5t29.5 51.5q29 16 60.5 5t52.5 -44q18 -29 67 -150.5t76 -174.5zM1100 1305l49 -351l-19 -14l-157 174q-6 6 -22.5 24.5t-21.5 23.5l-20 20q-14 14 -20 17t-20.5 12.5t-24.5 11.5t-26.5 7t-34 6t-38.5 1 h-264v-551h109q90 0 134 42t73 151l18 67h31v-575h-31l-18 63q-29 109 -73 152t-134 43h-109v-559h359q84 0 119.5 22.5t84.5 85.5l179 230l20 -9l-55 -399h-1114v35l202 37v1161l-202 37v35h1026z" />
<glyph unicode="&#xc9;" horiz-adv-x="1312" d="M809 1806q27 -18 31 -52t-19 -66q-14 -23 -54 -65l-96 -99q-56 -57 -91 -99l-25 17q23 49 52 124l52 127q23 52 37 74q23 33 53.5 44t59.5 -5zM1100 1305l49 -351l-19 -14l-157 174q-6 6 -22.5 24.5t-21.5 23.5l-20 20q-14 14 -20 17t-20.5 12.5t-24.5 11.5t-26.5 7 t-34 6t-38.5 1h-264v-551h109q90 0 134 42t73 151l18 67h31v-575h-31l-18 63q-29 109 -73 152t-134 43h-109v-559h359q84 0 119.5 22.5t84.5 85.5l179 230l20 -9l-55 -399h-1114v35l202 37v1161l-202 37v35h1026z" />
<glyph unicode="&#xca;" horiz-adv-x="1312" d="M653 1614l-231 -203l-25 21l248 362h31l231 -362l-24 -21zM1100 1305l49 -351l-19 -14l-157 174q-6 6 -22.5 24.5t-21.5 23.5l-20 20q-14 14 -20 17t-20.5 12.5t-24.5 11.5t-26.5 7t-34 6t-38.5 1h-264v-551h109q90 0 134 42t73 151l18 67h31v-575h-31l-18 63 q-29 109 -73 152t-134 43h-109v-559h359q84 0 119.5 22.5t84.5 85.5l179 230l20 -9l-55 -399h-1114v35l202 37v1161l-202 37v35h1026z" />
<glyph unicode="&#xcb;" horiz-adv-x="1312" d="M815 1520q-43 0 -70.5 28.5t-27.5 71.5q0 45 31.5 78t78.5 33q43 0 71 -29t28 -72q0 -45 -32 -77.5t-79 -32.5zM467 1520q-43 0 -70.5 28.5t-27.5 71.5q0 45 31.5 78t78.5 33q43 0 71 -29t28 -72q0 -45 -32 -77.5t-79 -32.5zM1100 1305l49 -351l-19 -14l-157 174 q-6 6 -22.5 24.5t-21.5 23.5l-20 20q-14 14 -20 17t-20.5 12.5t-24.5 11.5t-26.5 7t-34 6t-38.5 1h-264v-551h109q90 0 134 42t73 151l18 67h31v-575h-31l-18 63q-29 109 -73 152t-134 43h-109v-559h359q84 0 119.5 22.5t84.5 85.5l179 230l20 -9l-55 -399h-1114v35l202 37 v1161l-202 37v35h1026z" />
<glyph unicode="&#xcc;" horiz-adv-x="819" d="M479 1442l-26 -17l-92 98l-95 100q-39 42 -53 65q-23 33 -19.5 66.5t29.5 51.5q29 16 60.5 5t52.5 -44q18 -29 67 -150.5t76 -174.5zM512 72l209 -37v-35h-625v35l211 37v1161l-211 37v35h625v-35l-209 -37v-1161z" />
<glyph unicode="&#xcd;" horiz-adv-x="819" d="M575 1806q27 -18 31 -52t-18 -66q-14 -23 -54 -65l-97 -99q-56 -57 -91 -99l-24 17q23 49 52 124l52 127q23 52 37 74q23 33 53 44t59 -5zM512 72l209 -37v-35h-625v35l211 37v1161l-211 37v35h625v-35l-209 -37v-1161z" />
<glyph unicode="&#xce;" horiz-adv-x="819" d="M414 1618l-232 -203l-24 21l248 362h30l232 -362l-25 -21zM512 72l209 -37v-35h-625v35l211 37v1161l-211 37v35h625v-35l-209 -37v-1161z" />
<glyph unicode="&#xcf;" horiz-adv-x="819" d="M582 1520q-43 0 -71 28.5t-28 71.5q0 45 32 78t79 33q43 0 70.5 -29t27.5 -72q0 -45 -31.5 -77.5t-78.5 -32.5zM233 1520q-43 0 -70.5 28.5t-27.5 71.5q0 45 32 78t79 33q43 0 70.5 -29t27.5 -72q0 -45 -32 -77.5t-79 -32.5zM512 72l209 -37v-35h-625v35l211 37v1161 l-211 37v35h625v-35l-209 -37v-1161z" />
<glyph unicode="&#xd0;" horiz-adv-x="1497" d="M1415 653q0 -281 -203.5 -467t-521.5 -186h-616v35l202 37v571h-174v68h174v522l-202 37v35h628q328 0 520.5 -184.5t192.5 -467.5zM1180 653q0 301 -141.5 442.5t-376.5 141.5h-181v-526h238v-68h-238v-575h226q219 0 346 140t127 445z" />
<glyph unicode="&#xd1;" horiz-adv-x="1525" d="M489 1470q33 203 166 203q53 0 149.5 -35.5t131.5 -35.5q70 0 102 86l27 -13q-31 -203 -164 -202q-53 0 -149.5 35.5t-133.5 35.5q-66 0 -102 -84zM266 90v1127l-162 53v35h385l154 -209l545 -719h12v837l-162 56v35h394v-35l-162 -56v-1226h-58l-153 209l-711 933h-14 v-1040l162 -55v-35h-392v35z" />
<glyph unicode="&#xd2;" horiz-adv-x="1445" d="M760 1442l-27 -17l-91 98l-95 100q-39 42 -53 65q-23 33 -20 66.5t30 51.5q29 16 60.5 5t51.5 -44q18 -29 67.5 -150.5t76.5 -174.5zM1360 653q0 -287 -179.5 -485.5t-465.5 -198.5q-297 0 -465 196.5t-168 487.5q0 285 179 483.5t466 198.5q297 0 465 -195.5t168 -486.5 zM1124 653q0 299 -129 467t-297 168q-162 0 -271.5 -151.5t-109.5 -483.5q0 -172 37 -300t100.5 -198.5t135.5 -104.5t153 -34q154 0 267.5 167t113.5 470z" />
<glyph unicode="&#xd3;" horiz-adv-x="1445" d="M879 1806q27 -18 30.5 -52t-18.5 -66q-14 -23 -54 -65l-97 -99q-56 -57 -91 -99l-24 17q23 49 52 124l52 127q23 52 37 74q23 33 53.5 44t59.5 -5zM1360 653q0 -287 -179.5 -485.5t-465.5 -198.5q-297 0 -465 196.5t-168 487.5q0 285 179 483.5t466 198.5 q297 0 465 -195.5t168 -486.5zM1124 653q0 299 -129 467t-297 168q-162 0 -271.5 -151.5t-109.5 -483.5q0 -172 37 -300t100.5 -198.5t135.5 -104.5t153 -34q154 0 267.5 167t113.5 470z" />
<glyph unicode="&#xd4;" horiz-adv-x="1445" d="M700 1618l-231 -203l-25 21l248 362h31l231 -362l-24 -21zM1360 653q0 -287 -179.5 -485.5t-465.5 -198.5q-297 0 -465 196.5t-168 487.5q0 285 179 483.5t466 198.5q297 0 465 -195.5t168 -486.5zM1124 653q0 299 -129 467t-297 168q-162 0 -271.5 -151.5t-109.5 -483.5 q0 -172 37 -300t100.5 -198.5t135.5 -104.5t153 -34q154 0 267.5 167t113.5 470z" />
<glyph unicode="&#xd5;" horiz-adv-x="1445" d="M434 1470q33 203 166 203q55 0 149.5 -35.5t131.5 -35.5q70 0 102 86l27 -13q-31 -203 -164 -202q-53 0 -149.5 35.5t-133.5 35.5q-66 0 -102 -84zM1360 653q0 -287 -179.5 -485.5t-465.5 -198.5q-297 0 -465 196.5t-168 487.5q0 285 179 483.5t466 198.5 q297 0 465 -195.5t168 -486.5zM1124 653q0 299 -129 467t-297 168q-162 0 -271.5 -151.5t-109.5 -483.5q0 -172 37 -300t100.5 -198.5t135.5 -104.5t153 -34q154 0 267.5 167t113.5 470z" />
<glyph unicode="&#xd6;" horiz-adv-x="1445" d="M862 1520q-43 0 -70.5 28.5t-27.5 71.5q0 45 31.5 78t78.5 33q43 0 71 -29t28 -72q0 -45 -32 -77.5t-79 -32.5zM514 1520q-43 0 -70.5 28.5t-27.5 71.5q0 45 31.5 78t78.5 33q43 0 71 -29t28 -72q0 -45 -32 -77.5t-79 -32.5zM1360 653q0 -287 -179.5 -485.5 t-465.5 -198.5q-297 0 -465 196.5t-168 487.5q0 285 179 483.5t466 198.5q297 0 465 -195.5t168 -486.5zM1124 653q0 299 -129 467t-297 168q-162 0 -271.5 -151.5t-109.5 -483.5q0 -172 37 -300t100.5 -198.5t135.5 -104.5t153 -34q154 0 267.5 167t113.5 470z" />
<glyph unicode="&#xd7;" d="M578 627l292 -299l-67 -64l-287 297l-287 -297l-67 64l293 299l-291 297l67 63l285 -295l285 295l67 -63z" />
<glyph unicode="&#xd8;" horiz-adv-x="1445" d="M1360 653q0 -287 -179.5 -485.5t-465.5 -198.5q-242 0 -408 140l-153 -175l-52 41l158 179q-178 195 -178 499q0 285 179 483.5t466 198.5q264 0 434 -164l127 146l51 -43l-133 -152q154 -180 154 -469zM377 287l667 753q-61 121 -153 184.5t-193 63.5 q-162 0 -271.5 -151.5t-109.5 -483.5q1 -219 60 -366zM1073 973q-664 -750 -665 -750q117 -207 335 -207q154 0 267.5 167t113.5 470q0 183 -51 320z" />
<glyph unicode="&#xd9;" horiz-adv-x="1507" d="M909 1442l-26 -17l-91 98l-96 100q-39 42 -53 65q-23 33 -19.5 66.5t29.5 51.5q29 16 60.5 5t52.5 -44q18 -29 67 -150.5t76 -174.5zM1212 1214l-161 56v35h391v-35l-162 -56v-794q0 -197 -143.5 -326t-360.5 -129q-250 0 -385 112.5t-135 336.5v819l-203 37v35h615v-35 l-203 -37v-776q0 -211 97 -301t302 -90q174 0 261 111.5t87 287.5v749z" />
<glyph unicode="&#xda;" horiz-adv-x="1507" d="M1022 1806q27 -18 31 -52t-19 -66q-14 -23 -54 -65l-96 -99q-56 -57 -91 -99l-25 17q23 49 52 124l52 127q23 52 37 74q23 33 53.5 44t59.5 -5zM1212 1214l-161 56v35h391v-35l-162 -56v-794q0 -197 -143.5 -326t-360.5 -129q-250 0 -385 112.5t-135 336.5v819l-203 37 v35h615v-35l-203 -37v-776q0 -211 97 -301t302 -90q174 0 261 111.5t87 287.5v749z" />
<glyph unicode="&#xdb;" horiz-adv-x="1507" d="M854 1618l-231 -203l-25 21l248 362h31l231 -362l-25 -21zM1212 1214l-161 56v35h391v-35l-162 -56v-794q0 -197 -143.5 -326t-360.5 -129q-250 0 -385 112.5t-135 336.5v819l-203 37v35h615v-35l-203 -37v-776q0 -211 97 -301t302 -90q174 0 261 111.5t87 287.5v749z " />
<glyph unicode="&#xdc;" horiz-adv-x="1507" d="M999 1520q-43 0 -70.5 28.5t-27.5 71.5q0 45 32 78t79 33q43 0 70.5 -29t27.5 -72q0 -45 -32 -77.5t-79 -32.5zM651 1520q-43 0 -70.5 28.5t-27.5 71.5q0 45 31.5 78t79.5 33q43 0 70.5 -29t27.5 -72q0 -45 -32 -77.5t-79 -32.5zM1212 1214l-161 56v35h391v-35l-162 -56 v-794q0 -197 -143.5 -326t-360.5 -129q-250 0 -385 112.5t-135 336.5v819l-203 37v35h615v-35l-203 -37v-776q0 -211 97 -301t302 -90q174 0 261 111.5t87 287.5v749z" />
<glyph unicode="&#xdd;" horiz-adv-x="1296" d="M946 1806q27 -18 31 -52t-19 -66q-14 -23 -54 -65l-96 -99q-56 -57 -91 -99l-25 17q23 49 52 124l53 127q23 52 37 74q23 33 53 44t59 -5zM1159 1214l-385 -616v-526l209 -37v-35h-623v35l209 37v491l-393 660l-180 47v35h598v-35l-176 -37l309 -584l324 572l-150 49v35 h420v-35z" />
<glyph unicode="&#xde;" horiz-adv-x="1212" d="M1135 662q0 -152 -115 -265.5t-324 -113.5q-84 0 -215 16v-229l203 -37v-35h-610v35l202 37v1161l-202 37v35h610v-35l-203 -37v-230q102 18 185 19q225 0 347 -100t122 -258zM905 653q0 147 -73.5 230.5t-208.5 83.5q-70 0 -142 -15v-602q61 -10 137 -10q287 0 287 313z " />
<glyph unicode="&#xdf;" horiz-adv-x="1855" d="M1759 293q0 -145 -109.5 -234.5t-250.5 -89.5q-139 0 -246 51l-66 -55h-28l-21 363l35 4q86 -172 166 -245t170 -73q92 0 148.5 51.5t56.5 129.5q0 86 -52.5 133t-150.5 86q-12 4 -83 30.5t-105 42.5q-168 84 -168 246q0 137 105.5 222t242.5 85q113 0 203 -53l63 60h31 l24 -332l-36 -4q-94 156 -162 218t-150 62q-76 0 -125 -47t-49 -119q0 -70 42 -111.5t122 -74.5q29 -12 93.5 -34.5t96.5 -37.5q96 -43 149.5 -105.5t53.5 -168.5zM831 293q0 -145 -109.5 -234.5t-250.5 -89.5q-139 0 -246 51l-65 -55h-29l-20 363l34 4q86 -172 166 -245 t170 -73q92 0 148.5 51.5t56.5 129.5q0 86 -52 133t-151 86q-12 4 -82.5 30.5t-105.5 42.5q-168 84 -168 246q0 137 105.5 222t242.5 85q113 0 203 -53l63 60h31l25 -332l-37 -4q-94 156 -162 218t-149 62q-76 0 -125.5 -47t-49.5 -119q0 -70 42 -111.5t122 -74.5 q29 -12 93.5 -34.5t97.5 -37.5q96 -43 149 -105.5t53 -168.5z" />
<glyph unicode="&#xe0;" horiz-adv-x="1071" d="M618 1149l-26 -16l-91 97l-95 100q-39 42 -54 65q-23 33 -19.5 66.5t29.5 51.5q29 16 61 5t52 -43q18 -29 67 -151t76 -175zM287 350l-103 -280l121 -39v-31h-309v31l113 43l372 956h101l362 -962l131 -37v-31h-477v31l150 28l-105 291h-356zM623 410l-154 428h-4 l-156 -428h314z" />
<glyph unicode="&#xe1;" horiz-adv-x="1071" d="M700 1513q27 -18 31 -52t-18 -66q-14 -23 -55 -65l-96 -99q-56 -57 -91 -98l-25 16q23 49 53 124l52 127q23 52 37 75q23 33 53 43.5t59 -5.5zM287 350l-103 -280l121 -39v-31h-309v31l113 43l372 956h101l362 -962l131 -37v-31h-477v31l150 28l-105 291h-356zM623 410 l-154 428h-4l-156 -428h314z" />
<glyph unicode="&#xe2;" horiz-adv-x="1071" d="M530 1325l-231 -203l-25 21l248 362h31l231 -362l-24 -21zM287 350l-103 -280l121 -39v-31h-309v31l113 43l372 956h101l362 -962l131 -37v-31h-477v31l150 28l-105 291h-356zM623 410l-154 428h-4l-156 -428h314z" />
<glyph unicode="&#xe3;" horiz-adv-x="1071" d="M252 1178q33 203 166 202q53 0 149.5 -35.5t130.5 -35.5q70 0 103 86l26 -13q-31 -203 -163 -202q-53 0 -149.5 35.5t-133.5 35.5q-66 0 -102 -84zM287 350l-103 -280l121 -39v-31h-309v31l113 43l372 956h101l362 -962l131 -37v-31h-477v31l150 28l-105 291h-356z M623 410l-154 428h-4l-156 -428h314z" />
<glyph unicode="&#xe4;" horiz-adv-x="1071" d="M713 1227q-43 0 -71 28.5t-28 71.5q0 45 32 78t79 33q43 0 70.5 -29t27.5 -72q0 -45 -31.5 -77.5t-78.5 -32.5zM365 1227q-43 0 -71 28.5t-28 71.5q0 45 32 78t79 33q43 0 70.5 -29t27.5 -72q0 -45 -31.5 -77.5t-78.5 -32.5zM287 350l-103 -280l121 -39v-31h-309v31 l113 43l372 956h101l362 -962l131 -37v-31h-477v31l150 28l-105 291h-356zM623 410l-154 428h-4l-156 -428h314z" />
<glyph unicode="&#xe5;" horiz-adv-x="1071" d="M471 1006q-61 14 -97 62t-36 114q0 72 54 127t138 55q82 0 132.5 -52t50.5 -130q0 -55 -34 -102.5t-89 -67.5l354 -944l131 -37v-31h-477v31l150 28l-105 291h-356l-103 -280l121 -39v-31h-309v31l113 43zM621 1182q0 145 -99 145q-94 0 -94 -147q0 -70 26.5 -108 t71.5 -38q95 1 95 148zM623 410l-154 428h-4l-156 -428h314z" />
<glyph unicode="&#xe6;" horiz-adv-x="1517" d="M1434 342l-39 -342h-899v29l153 30v328h-309l-195 -315l111 -45v-27h-313v27l114 49l557 858l-145 49v27h895l33 -322l-23 -14l-133 176q-47 61 -83 81.5t-116 20.5h-204v-409h80q63 0 102 32.5t59 108.5l17 61h30v-456h-30l-17 57q-23 78 -61.5 112t-99.5 34h-80v-435 h245q74 0 107 18.5t74 74.5l147 200zM649 446v435h-4l-268 -435h272z" />
<glyph unicode="&#xe7;" horiz-adv-x="1091" d="M625 -31h-4q-248 0 -397.5 143.5t-149.5 381.5q0 229 156.5 387.5t400.5 158.5q141 0 243 -53l68 57h19l16 -360l-31 -2q-74 156 -162 230.5t-204 74.5q-123 0 -209 -116.5t-86 -348.5q0 -229 105.5 -361t273.5 -132q57 0 106 16l215 287l19 -6l-41 -279 q-129 -61 -258 -74l-150 -125q76 -10 122 -57t46 -119q0 -84 -61.5 -137t-155.5 -53q-68 0 -106 26.5t-38 67.5q0 29 16.5 47.5t43.5 18.5q55 0 55 -62q0 -27 -20 -47q25 -14 55 -14q100 0 100 119q0 55 -29.5 88.5t-86.5 33.5q-25 0 -60 -10l-30 35z" />
<glyph unicode="&#xe8;" horiz-adv-x="1079" d="M623 1149l-27 -16l-91 97l-95 100q-39 42 -54 65q-23 33 -19.5 66.5t30.5 51.5q29 16 60.5 5t51.5 -43q18 -29 67.5 -151t76.5 -175zM926 1010l32 -322l-22 -14l-133 176q-47 61 -83 81.5t-116 20.5h-205v-409h80q63 0 102.5 32.5t59.5 108.5l16 61h31v-456h-31l-16 57 q-23 78 -61.5 112t-100.5 34h-80v-435h246q74 0 106.5 18.5t73.5 74.5l148 200l22 -8l-39 -342h-899v29l154 30v891l-154 31v29h869z" />
<glyph unicode="&#xe9;" horiz-adv-x="1079" d="M684 1513q27 -18 31 -52t-19 -66q-14 -23 -54 -65l-96 -99q-56 -57 -91 -98l-25 16q23 49 52 124l53 127q23 52 36 75q23 33 53.5 43.5t59.5 -5.5zM926 1010l32 -322l-22 -14l-133 176q-47 61 -83 81.5t-116 20.5h-205v-409h80q63 0 102.5 32.5t59.5 108.5l16 61h31v-456 h-31l-16 57q-23 78 -61.5 112t-100.5 34h-80v-435h246q74 0 106.5 18.5t73.5 74.5l148 200l22 -8l-39 -342h-899v29l154 30v891l-154 31v29h869z" />
<glyph unicode="&#xea;" horiz-adv-x="1079" d="M541 1325l-232 -203l-24 21l247 362h31l232 -362l-25 -21zM926 1010l32 -322l-22 -14l-133 176q-47 61 -83 81.5t-116 20.5h-205v-409h80q63 0 102.5 32.5t59.5 108.5l16 61h31v-456h-31l-16 57q-23 78 -61.5 112t-100.5 34h-80v-435h246q74 0 106.5 18.5t73.5 74.5 l148 200l22 -8l-39 -342h-899v29l154 30v891l-154 31v29h869z" />
<glyph unicode="&#xeb;" horiz-adv-x="1079" d="M707 1227q-43 0 -71 28.5t-28 71.5q0 45 32 78t79 33q43 0 70.5 -29t27.5 -72q0 -45 -31.5 -77.5t-78.5 -32.5zM358 1227q-43 0 -70.5 28.5t-27.5 71.5q0 45 32 78t79 33q43 0 70.5 -29t27.5 -72q0 -45 -32 -77.5t-79 -32.5zM926 1010l32 -322l-22 -14l-133 176 q-47 61 -83 81.5t-116 20.5h-205v-409h80q63 0 102.5 32.5t59.5 108.5l16 61h31v-456h-31l-16 57q-23 78 -61.5 112t-100.5 34h-80v-435h246q74 0 106.5 18.5t73.5 74.5l148 200l22 -8l-39 -342h-899v29l154 30v891l-154 31v29h869z" />
<glyph unicode="&#xec;" horiz-adv-x="634" d="M387 1149l-27 -16l-91 97l-95 100q-39 42 -53 65q-23 33 -20 66.5t30 51.5q29 16 60.5 5t52.5 -43q18 -29 67 -151t76 -175zM412 59l161 -30v-29h-512v29l162 30v891l-162 31v29h512v-29l-161 -31v-891z" />
<glyph unicode="&#xed;" horiz-adv-x="634" d="M489 1513q27 -18 31 -52t-18 -66q-14 -23 -55 -65l-96 -99q-56 -57 -91 -98l-24 16q23 49 52 124l52 127q23 52 37 75q23 33 53 43.5t59 -5.5zM412 59l161 -30v-29h-512v29l162 30v891l-162 31v29h512v-29l-161 -31v-891z" />
<glyph unicode="&#xee;" horiz-adv-x="634" d="M319 1325l-231 -203l-25 21l248 362h31l231 -362l-24 -21zM412 59l161 -30v-29h-512v29l162 30v891l-162 31v29h512v-29l-161 -31v-891z" />
<glyph unicode="&#xef;" horiz-adv-x="634" d="M485 1227q-43 0 -70.5 28.5t-27.5 71.5q0 45 32 78t79 33q43 0 70.5 -29t27.5 -72q0 -45 -32 -77.5t-79 -32.5zM137 1227q-43 0 -70.5 28.5t-27.5 71.5q0 45 31.5 78t79.5 33q43 0 70.5 -29t27.5 -72q0 -45 -32 -77.5t-79 -32.5zM412 59l161 -30v-29h-512v29l162 30v891 l-162 31v29h512v-29l-161 -31v-891z" />
<glyph unicode="&#xf0;" horiz-adv-x="1208" d="M211 489h-127v68h127v393l-154 31v29h502q258 0 407.5 -142.5t149.5 -361.5q0 -217 -157.5 -361.5t-409.5 -144.5h-492v29l154 30v430zM399 557h197v-68h-197v-434h164q344 4 344 451q0 229 -103.5 336.5t-277.5 109.5h-127v-395z" />
<glyph unicode="&#xf1;" horiz-adv-x="1191" d="M322 1178q33 203 165 202q53 0 149.5 -35.5t131.5 -35.5q70 0 102 86l27 -13q-31 -203 -164 -202q-53 0 -149.5 35.5t-132.5 35.5q-66 0 -103 -84zM197 74v864l-131 43v29h323l127 -172l416 -549h14v647l-135 45v29h326v-29l-131 -45v-952h-80l-127 176l-529 698h-14 v-784l135 -45v-29h-325v29z" />
<glyph unicode="&#xf2;" horiz-adv-x="1179" d="M639 1149l-27 -16l-91 97l-95 100q-39 42 -53 65q-23 33 -20 66.5t30 51.5q29 16 60.5 5t52.5 -43q18 -29 67 -151t76 -175zM1104 506q0 -229 -140.5 -383t-379.5 -154q-246 0 -377 151.5t-131 385.5q0 229 140 381.5t378 152.5q246 0 378 -150.5t132 -383.5zM895 506 q0 240 -92 367.5t-230 127.5q-289 0 -288 -495q0 -262 88 -381t231 -119q127 0 209 129t82 371z" />
<glyph unicode="&#xf3;" horiz-adv-x="1179" d="M756 1513q27 -18 31 -52t-19 -66q-14 -23 -54 -65l-97 -99q-56 -57 -91 -98l-24 16q23 49 52 124l52 127q23 52 37 75q23 33 53.5 43.5t59.5 -5.5zM1104 506q0 -229 -140.5 -383t-379.5 -154q-246 0 -377 151.5t-131 385.5q0 229 140 381.5t378 152.5q246 0 378 -150.5 t132 -383.5zM895 506q0 240 -92 367.5t-230 127.5q-289 0 -288 -495q0 -262 88 -381t231 -119q127 0 209 129t82 371z" />
<glyph unicode="&#xf4;" horiz-adv-x="1179" d="M573 1325l-231 -203l-25 21l248 362h31l231 -362l-24 -21zM1104 506q0 -229 -140.5 -383t-379.5 -154q-246 0 -377 151.5t-131 385.5q0 229 140 381.5t378 152.5q246 0 378 -150.5t132 -383.5zM895 506q0 240 -92 367.5t-230 127.5q-289 0 -288 -495q0 -262 88 -381 t231 -119q127 0 209 129t82 371z" />
<glyph unicode="&#xf5;" horiz-adv-x="1179" d="M297 1178q33 203 166 202q53 0 149.5 -35.5t130.5 -35.5q70 0 103 86l26 -13q-31 -203 -163 -202q-53 0 -149.5 35.5t-133.5 35.5q-66 0 -102 -84zM1104 506q0 -229 -140.5 -383t-379.5 -154q-246 0 -377 151.5t-131 385.5q0 229 140 381.5t378 152.5q246 0 378 -150.5 t132 -383.5zM895 506q0 240 -92 367.5t-230 127.5q-289 0 -288 -495q0 -262 88 -381t231 -119q127 0 209 129t82 371z" />
<glyph unicode="&#xf6;" horiz-adv-x="1179" d="M739 1227q-43 0 -70.5 28.5t-27.5 71.5q0 45 32 78t79 33q43 0 70.5 -29t27.5 -72q0 -45 -32 -77.5t-79 -32.5zM391 1227q-43 0 -70.5 28.5t-27.5 71.5q0 45 31.5 78t78.5 33q43 0 71 -29t28 -72q0 -45 -32 -77.5t-79 -32.5zM1104 506q0 -229 -140.5 -383t-379.5 -154 q-246 0 -377 151.5t-131 385.5q0 229 140 381.5t378 152.5q246 0 378 -150.5t132 -383.5zM895 506q0 240 -92 367.5t-230 127.5q-289 0 -288 -495q0 -262 88 -381t231 -119q127 0 209 129t82 371z" />
<glyph unicode="&#xf7;" d="M516 1055q45 0 79 -34t34 -79t-34 -79t-79 -34t-79 34t-34 79t34 79t79 34zM950 582h-866v92h866v-92zM516 426q45 0 79 -33t34 -80t-34 -79.5t-79 -32.5t-79 32.5t-34 79.5t34 80t79 33z" />
<glyph unicode="&#xf8;" horiz-adv-x="1179" d="M215 111q-139 150 -139 395q0 229 140 381.5t378 152.5q209 0 340 -114l98 110l51 -43l-102 -116q123 -143 123 -371q0 -229 -140.5 -383t-379.5 -154q-188 0 -320 99l-117 -134l-51 41zM322 231l514 582q-86 188 -263 188q-289 0 -288 -495q0 -158 37 -275zM864 743 l-514 -579q84 -158 254 -158q127 0 209 129t82 371q0 128 -31 237z" />
<glyph unicode="&#xf9;" horiz-adv-x="1189" d="M709 1149l-27 -16l-91 97l-95 100q-39 42 -54 65q-23 33 -19.5 66.5t30.5 51.5q29 16 60.5 5t51.5 -43q18 -29 67.5 -151t76.5 -175zM958 934l-122 47v29h303v-29l-121 -47v-588q0 -170 -108.5 -273.5t-297.5 -103.5q-203 0 -313.5 93.5t-110.5 269.5v618l-153 31v29h491 v-29l-153 -31v-577q0 -164 76.5 -238t232.5 -74q137 0 206.5 86t69.5 226v561z" />
<glyph unicode="&#xfa;" horiz-adv-x="1189" d="M856 1513q27 -18 31 -52t-19 -66q-14 -23 -54 -65l-96 -99q-56 -57 -91 -98l-25 16q23 49 52 124l53 127q23 52 36 75q23 33 53.5 43.5t59.5 -5.5zM958 934l-122 47v29h303v-29l-121 -47v-588q0 -170 -108.5 -273.5t-297.5 -103.5q-203 0 -313.5 93.5t-110.5 269.5v618 l-153 31v29h491v-29l-153 -31v-577q0 -164 76.5 -238t232.5 -74q137 0 206.5 86t69.5 226v561z" />
<glyph unicode="&#xfb;" horiz-adv-x="1189" d="M664 1325l-232 -203l-24 21l247 362h31l232 -362l-25 -21zM958 934l-122 47v29h303v-29l-121 -47v-588q0 -170 -108.5 -273.5t-297.5 -103.5q-203 0 -313.5 93.5t-110.5 269.5v618l-153 31v29h491v-29l-153 -31v-577q0 -164 76.5 -238t232.5 -74q137 0 206.5 86t69.5 226 v561z" />
<glyph unicode="&#xfc;" horiz-adv-x="1189" d="M827 1227q-43 0 -70.5 28.5t-27.5 71.5q0 45 32 78t79 33q43 0 70.5 -29t27.5 -72q0 -45 -32 -77.5t-79 -32.5zM479 1227q-43 0 -70.5 28.5t-27.5 71.5q0 45 31.5 78t79.5 33q43 0 70.5 -29t27.5 -72q0 -45 -32 -77.5t-79 -32.5zM958 934l-122 47v29h303v-29l-121 -47 v-588q0 -170 -108.5 -273.5t-297.5 -103.5q-203 0 -313.5 93.5t-110.5 269.5v618l-153 31v29h491v-29l-153 -31v-577q0 -164 76.5 -238t232.5 -74q137 0 206.5 86t69.5 226v561z" />
<glyph unicode="&#xfd;" horiz-adv-x="1038" d="M795 1513q27 -18 30.5 -52t-18.5 -66q-14 -23 -54 -65l-97 -99q-56 -57 -91 -98l-24 16q23 49 52 124l52 127q23 52 37 75q23 33 53.5 43.5t59.5 -5.5zM918 932l-291 -465v-408l161 -30v-29h-512v29l162 30v373l-295 504l-141 45v29h492v-29l-138 -39l232 -428l227 418 l-115 49v29h340v-29z" />
<glyph unicode="&#xfe;" horiz-adv-x="995" d="M926 512q0 -125 -94.5 -215t-262.5 -90q-80 0 -170 14v-162l160 -30v-29h-502v29l154 30v891l-154 31v29h502v-29l-160 -31v-155q90 14 170 14q166 0 261.5 -83t95.5 -214zM725 508q0 117 -56.5 182.5t-160.5 65.5q-72 0 -109 -4v-488q37 -4 109 -4q217 0 217 248z" />
<glyph unicode="&#xff;" horiz-adv-x="1038" d="M766 1227q-43 0 -70.5 28.5t-27.5 71.5q0 45 31.5 78t78.5 33q43 0 71 -29t28 -72q0 -45 -32 -77.5t-79 -32.5zM418 1227q-43 0 -71 28.5t-28 71.5q0 45 32 78t79 33q43 0 70.5 -29t27.5 -72q0 -45 -31.5 -77.5t-78.5 -32.5zM918 932l-291 -465v-408l161 -30v-29h-512v29 l162 30v373l-295 504l-141 45v29h492v-29l-138 -39l232 -428l227 418l-115 49v29h340v-29z" />
<glyph unicode="&#x152;" horiz-adv-x="2052" d="M1982 399l-55 -399h-1132q-328 0 -520.5 184.5t-192.5 468.5q0 279 203.5 465.5t521.5 186.5h1034l49 -351l-20 -14l-158 174q-6 6 -22.5 24.5t-21.5 23.5l-19 20q-14 14 -20.5 17t-21 12.5t-24.5 11.5t-26.5 7t-34 6t-37.5 1h-264v-551h108q92 0 135 41t74 152l18 67h31 v-575h-33l-16 63q-31 111 -74 153t-135 42h-108v-559h360q84 0 120 22.5t85 85.5l178 230zM317 653q0 -303 142.5 -444t378.5 -141h178v1169h-225q-219 0 -346.5 -140.5t-127.5 -443.5z" />
<glyph unicode="&#x153;" horiz-adv-x="1660" d="M1577 342l-39 -342h-905q-258 0 -407.5 142.5t-149.5 361.5q0 217 157.5 361.5t409.5 144.5h864l33 -322l-22 -14l-134 176q-47 61 -82.5 81.5t-115.5 20.5h-205v-409h80q63 0 102 32.5t60 108.5l16 61h31v-456h-31l-16 57q-23 78 -62 112t-100 34h-80v-435h246 q74 0 106.5 18.5t73.5 74.5l147 200zM793 57v897h-164q-160 0 -252 -109.5t-92 -340.5q0 -229 104.5 -338t276.5 -109h127z" />
<glyph unicode="&#x178;" horiz-adv-x="1296" d="M899 1520q-43 0 -70.5 28.5t-27.5 71.5q0 45 31.5 78t78.5 33q43 0 71 -29t28 -72q0 -45 -32 -77.5t-79 -32.5zM551 1520q-43 0 -70.5 28.5t-27.5 71.5q0 45 31.5 78t78.5 33q43 0 71 -29t28 -72q0 -45 -32 -77.5t-79 -32.5zM1159 1214l-385 -616v-526l209 -37v-35h-623 v35l209 37v491l-393 660l-180 47v35h598v-35l-176 -37l309 -584l324 572l-150 49v35h420v-35z" />
<glyph unicode="&#x2c6;" horiz-adv-x="612" d="M307 1237l-231 -203l-25 21l248 362h31l231 -362l-24 -21z" />
<glyph unicode="&#x2dc;" horiz-adv-x="677" d="M51 1090q33 203 166 202q53 0 149.5 -35.5t131.5 -35.5q70 0 102 86l27 -13q-31 -203 -164 -202q-53 0 -149.5 35.5t-133.5 35.5q-66 0 -102 -84z" />
<glyph unicode="&#x3bc;" d="M578 627l292 -299l-67 -64l-287 297l-287 -297l-67 64l293 299l-291 297l67 63l285 -295l285 295l67 -63z" />
<glyph unicode="&#x2000;" horiz-adv-x="907" />
<glyph unicode="&#x2001;" horiz-adv-x="1814" />
<glyph unicode="&#x2002;" horiz-adv-x="907" />
<glyph unicode="&#x2003;" horiz-adv-x="1814" />
<glyph unicode="&#x2004;" horiz-adv-x="604" />
<glyph unicode="&#x2005;" horiz-adv-x="452" />
<glyph unicode="&#x2006;" horiz-adv-x="301" />
<glyph unicode="&#x2007;" horiz-adv-x="301" />
<glyph unicode="&#x2008;" horiz-adv-x="225" />
<glyph unicode="&#x2009;" horiz-adv-x="362" />
<glyph unicode="&#x200a;" horiz-adv-x="100" />
<glyph unicode="&#x2010;" horiz-adv-x="688" d="M586 422h-484v117h484v-117z" />
<glyph unicode="&#x2011;" horiz-adv-x="688" d="M586 422h-484v117h484v-117z" />
<glyph unicode="&#x2012;" horiz-adv-x="688" d="M586 422h-484v117h484v-117z" />
<glyph unicode="&#x2013;" horiz-adv-x="1105" d="M1004 471h-902v68h902v-68z" />
<glyph unicode="&#x2014;" horiz-adv-x="1617" d="M1516 471h-1414v68h1414v-68z" />
<glyph unicode="&#x2018;" horiz-adv-x="450" d="M354 1008q0 -51 -35.5 -88t-87.5 -37q-66 0 -104.5 47t-38.5 123q0 80 62.5 158.5t183.5 138.5l20 -25q-137 -117 -170 -223l4 -2l35 8q10 4 31 4q45 0 72.5 -29.5t27.5 -74.5z" />
<glyph unicode="&#x2019;" horiz-adv-x="450" d="M360 1165q0 -80 -62 -157.5t-183 -139.5l-21 25q141 121 170 223l-4 2l-35 -8q-10 -4 -30 -4q-43 0 -71 29.5t-28 74.5q0 51 36 88t87 37q66 0 103.5 -47t37.5 -123z" />
<glyph unicode="&#x201a;" horiz-adv-x="450" d="M360 43q0 -80 -62 -158t-183 -139l-21 25q141 121 170 223l-4 2l-35 -8q-10 -4 -30 -4q-43 0 -71 29.5t-28 74.5q0 51 36 88t87 37q66 0 103.5 -47t37.5 -123z" />
<glyph unicode="&#x201c;" horiz-adv-x="759" d="M664 1026q0 -49 -34 -85t-83 -36q-61 0 -98 45t-37 117q0 76 59 150.5t174 132.5l21 -23q-133 -113 -162 -213l4 -2l33 8q10 4 28 4q41 0 68 -28.5t27 -69.5zM340 1026q0 -49 -34 -85t-83 -36q-61 0 -98 45t-37 117q0 76 59.5 150.5t174.5 132.5l18 -23 q-135 -115 -160 -213l2 -2l33 8q10 4 31 4q41 0 67.5 -28.5t26.5 -69.5z" />
<glyph unicode="&#x201d;" horiz-adv-x="761" d="M674 1176q0 -76 -59.5 -152t-174.5 -133l-20 24q133 113 162 213l-4 2l-33 -10q-20 -4 -29 -4q-41 0 -67.5 29t-26.5 72q0 49 33.5 83.5t83.5 34.5q61 0 98 -43.5t37 -115.5zM348 1176q0 -78 -58.5 -153t-174.5 -132l-19 24q133 113 162 213l-4 2l-33 -10q-20 -4 -31 -4 q-39 0 -66.5 30t-27.5 71q0 49 35 83.5t84 34.5q61 0 97 -43.5t36 -115.5z" />
<glyph unicode="&#x201e;" horiz-adv-x="761" d="M674 53q0 -76 -59.5 -151.5t-174.5 -132.5l-20 24q133 113 162 213l-4 2l-33 -10q-20 -4 -29 -4q-41 0 -67.5 28.5t-26.5 71.5q0 49 33.5 84t83.5 35q61 0 98 -44t37 -116zM348 53q0 -78 -58.5 -152.5t-174.5 -131.5l-19 24q133 113 162 213l-4 2l-33 -10q-20 -4 -31 -4 q-39 0 -66.5 29.5t-27.5 70.5q0 49 35 84t84 35q61 0 97 -44t36 -116z" />
<glyph unicode="&#x2022;" horiz-adv-x="962" d="M756 653.5q0 -114.5 -81 -195.5t-195.5 -81t-194.5 81t-80 195q0 113 80 194t194.5 81t195.5 -80t81 -194.5z" />
<glyph unicode="&#x2026;" horiz-adv-x="1296" d="M1204 90q0 -51 -35.5 -87t-87 -36t-88.5 36t-37 87t37 87t88.5 36t87 -36t35.5 -87zM772 90q0 -51 -36 -87t-87 -36t-88 36t-37 87t37 87t88 36t87 -36t36 -87zM340 90q0 -51 -36 -87t-87 -36t-88 36t-37 87t37 87t88 36t87 -36t36 -87z" />
<glyph unicode="&#x202f;" horiz-adv-x="362" />
<glyph unicode="&#x2039;" horiz-adv-x="602" d="M256 459l244 -367l-37 -31l-402 388v20l402 387l37 -33z" />
<glyph unicode="&#x203a;" horiz-adv-x="602" d="M541 469v-20l-402 -388l-37 31l244 367l-244 364l37 33z" />
<glyph unicode="&#x205f;" horiz-adv-x="452" />
<glyph unicode="&#x2122;" horiz-adv-x="1044" d="M936 1268v-291l53 -19v-18h-186v18l49 19v280h-6l-123 -317h-41l-127 317h-8v-276l47 -23v-18h-133v18l45 23v285l-45 20v19h164l24 -64l74 -190h6l70 190l22 64h168v-19zM422 1178l-14 -2l-43 55q-31 41 -64 41h-22v-295l53 -19v-18h-193v18l56 19v295h-27 q-33 0 -64 -41l-43 -55l-14 2l19 127h337z" />
<glyph unicode="&#xe000;" horiz-adv-x="1010" d="M0 1010h1010v-1010h-1010v1010z" />
<glyph unicode="&#xfb01;" horiz-adv-x="1624" d="M1401 59l162 -30v-29h-512v29l161 30v891l-161 31v29h512v-29l-162 -31v-891zM942 686l-20 -12l-131 180q-41 57 -78 77.5t-111 20.5h-203v-432h86q66 0 104 33t58 111l17 59h32v-455h-32l-17 58q-23 78 -59.5 110.5t-102.5 32.5h-86v-410l168 -30v-29h-510v29l154 30 v891l-154 31v29h852z" />
<glyph unicode="&#xfb02;" horiz-adv-x="1990" d="M1923 358l-47 -358h-829v29l153 30v891l-153 31v29h497v-29l-155 -31v-889h174q51 0 85.5 13.5t51 29t47.5 56.5l160 207zM942 686l-20 -12l-131 180q-41 57 -78 77.5t-111 20.5h-203v-432h86q66 0 104 33t58 111l17 59h32v-455h-32l-17 58q-23 78 -59.5 110.5 t-102.5 32.5h-86v-410l168 -30v-29h-510v29l154 30v891l-154 31v29h852z" />
<glyph unicode="&#xfb03;" horiz-adv-x="2613" d="M2390 59l161 -30v-29h-512v29l162 30v891l-162 31v29h512v-29l-161 -31v-891zM1931 686l-20 -12l-131 180q-41 57 -78 77.5t-111 20.5h-203v-432h86q66 0 104 33t58 111l17 59h32v-455h-32l-17 58q-23 78 -59.5 110.5t-102.5 32.5h-86v-410l168 -30v-29h-510v29l154 30 v891l-154 31v29h852zM942 686l-20 -12l-131 180q-41 57 -78 77.5t-111 20.5h-203v-432h86q66 0 104 33t58 111l17 59h32v-455h-32l-17 58q-23 78 -59.5 110.5t-102.5 32.5h-86v-410l168 -30v-29h-510v29l154 30v891l-154 31v29h852z" />
<glyph unicode="&#xfb04;" horiz-adv-x="2979" d="M2912 358l-47 -358h-830v29l154 30v891l-154 31v29h498v-29l-156 -31v-889h174q53 0 87 13.5t50.5 29t47.5 56.5l160 207zM1931 686l-20 -12l-131 180q-41 57 -78 77.5t-111 20.5h-203v-432h86q66 0 104 33t58 111l17 59h32v-455h-32l-17 58q-23 78 -59.5 110.5 t-102.5 32.5h-86v-410l168 -30v-29h-510v29l154 30v891l-154 31v29h852zM942 686l-20 -12l-131 180q-41 57 -78 77.5t-111 20.5h-203v-432h86q66 0 104 33t58 111l17 59h32v-455h-32l-17 58q-23 78 -59.5 110.5t-102.5 32.5h-86v-410l168 -30v-29h-510v29l154 30v891 l-154 31v29h852z" />
</font>
</defs>
</svg>
