<?xml version="1.0" standalone="no"?>
<!DOCTYPE svg PUBLIC "-//W3C//DTD SVG 1.1//EN" "http://www.w3.org/Graphics/SVG/1.1/DTD/svg11.dtd" >
<svg xmlns="http://www.w3.org/2000/svg">
<metadata>
This is a custom SVG webfont generated by Font Squirrel.
Copyright   : Copyright C 19962005 Hoefler  FrereJones Inc wwwtypographycom
</metadata>
<defs>
<font id="webfontmXIvFQD6" horiz-adv-x="1034" >
<font-face units-per-em="2048" ascent="1638" descent="-410" />
<missing-glyph horiz-adv-x="409" />
<glyph unicode=" "  horiz-adv-x="409" />
<glyph unicode="&#x09;" horiz-adv-x="409" />
<glyph unicode="&#xa0;" horiz-adv-x="409" />
<glyph unicode="!" horiz-adv-x="555" d="M281 371l-56 10q2 109 4 311.5t6.5 327.5t12.5 180q23 137 131 137q133 0 133 -135q0 -55 -33 -177t-101 -340zM211 -33q-55 0 -95 40t-40 95.5t40 94.5t95 39t94 -39t39 -94.5t-39 -95.5t-94 -40z" />
<glyph unicode="&#x22;" horiz-adv-x="679" d="M438 891l-24 12l51 156q55 166 78 213q33 63 86 63q35 0 56.5 -21.5t21.5 -52t-17 -55.5q-23 -41 -141 -186zM170 891l-25 12l48 152q55 172 77 217q29 63 86 63q35 0 56.5 -21.5t21.5 -53.5q0 -29 -16 -54q-20 -41 -139 -186z" />
<glyph unicode="#" horiz-adv-x="1185" d="M326 92l-86 27l84 280h-222v82h244l47 156l33 117h-260v82h283l90 325l86 -26l-90 -299h262l92 325l84 -26l-88 -299h225v-82h-250l-43 -142l-35 -131h265v-82h-287l-84 -307l-86 27l82 280h-262zM430 481h266l47 156l31 117h-264l-43 -142z" />
<glyph unicode="$" horiz-adv-x="1056" d="M420 -205l-74 15q35 164 35 165q-197 18 -328 88l53 357l37 4q86 -313 254 -373l99 471q-162 90 -213 140q-96 92 -97 219q0 174 131.5 289.5t323.5 111.5l27 150l75 -15l-30 -141q156 -18 258 -86l-41 -299l-39 -4q-84 260 -195 309l-92 -446q8 -4 62.5 -35t68.5 -40 l57 -38q42 -29 57 -49l39 -52q24 -32 32 -68t8 -79q0 -180 -137.5 -300t-335.5 -118zM547 782l80 432q-94 12 -161 -51t-67 -168q1 -121 148 -213zM467 39q113 -10 181.5 53.5t68.5 173.5q0 74 -43 126t-123 100z" />
<glyph unicode="%" horiz-adv-x="1411" d="M375 621q-119 0 -185.5 67.5t-66.5 192.5q0 160 106.5 282.5t262.5 122.5q119 0 185 -67.5t66 -192.5q0 -160 -106 -282.5t-262 -122.5zM207 -59l-57 45l542 657l537 670l57 -47l-543 -658zM946 -33q-119 0 -185.5 67.5t-66.5 192.5q0 160 106.5 283t262.5 123 q119 0 185.5 -67.5t66.5 -192.5q0 -160 -106.5 -283t-262.5 -123zM405.5 670q53.5 0 94.5 62.5t58 144t17 163.5q0 94 -30.5 145.5t-83.5 51.5q-80 0 -125 -118t-45 -253q0 -94 30.5 -145t84 -51zM977 16q53 0 94 62.5t58.5 144.5t17.5 164q0 94 -31 145.5t-84 51.5 q-80 0 -125 -118t-45 -253q0 -94 31 -145.5t84 -51.5z" />
<glyph unicode="&#x26;" horiz-adv-x="1361" d="M408 -23q-156 0 -258.5 83t-102.5 219q0 133 102.5 232t286.5 144v9q-109 33 -165 100t-56 162q0 145 145.5 256.5t325.5 111.5q100 0 154.5 -40t54.5 -93q0 -47 -33 -78.5t-90 -31.5q-59 0 -114.5 44t-88.5 126q-57 -29 -93 -103t-36 -162q0 -100 61.5 -162.5 t170.5 -80.5l250 102l170 191l43 -13l-41 -233h247l-18 -105h-248l-65 -374q-20 -113 18 -146q37 -31 143 -31q47 0 115 7v-29q-188 -106 -315 -107q-100 0 -143.5 42t-41.5 130l-8 5q-159 -175 -370 -175zM551 133q119 0 240 76l77 446h-286q-133 -31 -204 -116.5 t-71 -188.5q0 -217 244 -217z" />
<glyph unicode="'" horiz-adv-x="407" d="M168 891l-25 12l50 154q53 164 77 215q33 63 86 63q35 0 56.5 -21.5t21.5 -52t-16 -55.5q-27 -49 -139 -186z" />
<glyph unicode="(" horiz-adv-x="708" d="M627 -360q-231 100 -370.5 313t-139.5 487q0 365 221 663t588 415l8 -39q-195 -80 -338 -257.5t-212 -393.5t-69 -445q0 -236 87 -421t249 -284z" />
<glyph unicode=")" horiz-adv-x="708" d="M-225 -360l-11 38q291 119 456 430.5t165 665.5q0 236 -87 421t-249 284l23 39q233 -100 371.5 -313.5t138.5 -487.5q0 -367 -220 -663.5t-587 -413.5z" />
<glyph unicode="*" horiz-adv-x="704" d="M375 686l-27 4q-45 41 -33 111q8 63 66 162l-8 8q-84 -78 -146 -101q-63 -25 -114 11l-11 24q14 63 80 86q59 23 172 23l2 10q-106 35 -157 76q-55 43 -49 106l18 21q51 14 111 -27q51 -41 108 -139l10 4q-25 111 -12 176q8 70 64 94l28 -4q45 -41 33 -110 q-12 -74 -66 -162l9 -8q78 72 143 100q63 25 117 -10l10 -27q-18 -59 -80 -84q-57 -20 -174 -24l-2 -11q111 -33 158 -75q55 -43 51 -103l-17 -22q-57 -18 -114 26q-49 41 -109 140l-8 -5q23 -121 12 -174q-10 -69 -65 -96z" />
<glyph unicode="+" d="M948 575h-373l-61 -378h-106l61 378h-377l17 105h376l58 373h106l-57 -373h373z" />
<glyph unicode="," horiz-adv-x="468" d="M61 -274l-20 26q154 133 184 244l-4 4l-39 -10q-10 -4 -32 -4q-47 0 -78 32.5t-31 79.5q0 55 40 96.5t95 41.5q70 0 112 -51.5t42 -133.5q-1 -202 -269 -325z" />
<glyph unicode="-" horiz-adv-x="684" d="M70 416l24 141h484l-23 -141h-485z" />
<glyph unicode="." horiz-adv-x="436" d="M180 -33q-57 0 -96 40t-39 95.5t39 94.5t96 39q55 0 94 -39t39 -94.5t-39 -95.5t-94 -40z" />
<glyph unicode="/" horiz-adv-x="714" d="M-137 -432l-70 37l572 954l563 961l67 -35l-571 -959z" />
<glyph unicode="0" horiz-adv-x="1128" d="M477 -33q-197 0 -300 138.5t-103 351.5q0 336 170 582.5t428 246.5q197 0 300 -138t103 -351q0 -334 -170 -582t-428 -248zM512 35q92 0 168 130t115 316.5t39 372.5q0 170 -49.5 268.5t-147.5 98.5q-92 0 -168 -131.5t-115 -317.5t-39 -373q0 -364 197 -364z" />
<glyph unicode="1" horiz-adv-x="790" d="M-8 0l4 33l237 80l156 970l-209 97l4 24l443 68l6 -6l-182 -1153l208 -80l-6 -33h-661z" />
<glyph unicode="2" horiz-adv-x="1001" d="M-33 0l-6 41q270 203 475 424q227 244 228 436q0 96 -53.5 150.5t-149.5 54.5q-135 0 -293 -131l-16 24q180 287 430 287q145 0 233 -88t88 -221q0 -170 -151.5 -344t-497.5 -426l4 -10h438l183 184l22 -6l-123 -375h-811z" />
<glyph unicode="3" horiz-adv-x="944" d="M350 -33q-166 0 -263 65.5t-97 162.5q0 59 38 99t91 40q88 0 119.5 -80t-7.5 -170q66 -51 150 -51q104 0 172 69.5t68 186.5q0 113 -82 196.5t-256 122.5l2 23q215 70 293.5 149.5t78.5 171.5q0 76 -46 120t-134 44q-131 0 -293 -112l-18 22q178 260 424 260 q131 0 207.5 -72.5t76.5 -179.5q0 -207 -294 -332v-14q125 -47 188 -132t63 -183q0 -162 -136 -284t-345 -122z" />
<glyph unicode="4" horiz-adv-x="1079" d="M266 0l6 33l220 80l40 249h-501l-11 35l846 889l31 -16l-121 -754h215l-24 -154h-215l-39 -249l194 -80l-4 -33h-637zM213 516h344l70 436h-4z" />
<glyph unicode="5" horiz-adv-x="962" d="M395 -33q-156 0 -261 68.5t-105 167.5q0 63 37.5 103t93.5 40q90 0 120.5 -80t-14.5 -176q74 -57 156 -57q98 0 159.5 72.5t61.5 193.5q0 137 -109.5 223t-373.5 121l135 610h532l84 90l21 -8l-58 -286h-550l-50 -218q299 -39 440.5 -148.5t141.5 -289.5 q0 -168 -130 -297t-331 -129z" />
<glyph unicode="6" horiz-adv-x="1019" d="M467 -29q-190 0 -292.5 123t-102.5 320q0 195 97 375t302 323t483 197l11 -41q-406 -172 -576 -496l8 -8q96 51 205 51q150 0 243 -97t93 -251q0 -195 -133 -345.5t-338 -150.5zM485 27q98 0 159 121.5t61 273.5q0 143 -58.5 222t-171.5 79q-66 0 -115 -18 q-61 -145 -61 -314q0 -164 51 -264t135 -100z" />
<glyph unicode="7" horiz-adv-x="917" d="M49 -31l361 500l397 580h-537l-116 -121l-23 6l100 377l19 6l41 -64h706l11 -18l-752 -1266h-207z" />
<glyph unicode="8" horiz-adv-x="980" d="M438 -33q-176 0 -284.5 85t-108.5 216q0 113 83 203t232 133q-88 66 -138 138.5t-50 175.5q0 152 113.5 261t287.5 109q160 0 261.5 -82t101.5 -202q0 -229 -299 -318q109 -80 169 -158.5t60 -189.5q0 -154 -121 -262.5t-307 -108.5zM598 715q154 125 154 311 q0 90 -51.5 146.5t-135.5 56.5q-82 0 -136 -61.5t-54 -153.5q0 -63 34.5 -121.5t74.5 -92.5t114 -85zM457 25q84 0 138 56t54 155q0 76 -41 142t-83 101t-132 101q-152 -125 -151 -312q0 -106 57.5 -174.5t157.5 -68.5z" />
<glyph unicode="9" horiz-adv-x="1019" d="M98 -53l-10 41q422 188 582 514l-8 8q-100 -53 -201 -53q-152 0 -248 96t-96 250q0 190 131 335.5t336 145.5q193 0 295 -121t102 -321q0 -186 -97.5 -363.5t-302 -323t-483.5 -208.5zM584 551q70 0 112 16q57 145 58 310q0 156 -47.5 254t-131.5 98q-100 0 -163.5 -119 t-63.5 -276q0 -135 60.5 -209t175.5 -74z" />
<glyph unicode=":" horiz-adv-x="466" d="M266 586q-55 0 -94 39t-39 94t39 94t94 39q57 0 96 -39t39 -94t-39 -94t-96 -39zM168 -33q-55 0 -94 40t-39 95.5t39 94.5t94 39q57 0 96 -39t39 -94.5t-39 -95.5t-96 -40z" />
<glyph unicode=";" horiz-adv-x="477" d="M270 586q-57 0 -96 39t-39 94t39 94t96 39q55 0 94 -39t39 -94t-39 -94t-94 -39zM53 -274l-20 26q147 129 184 244l-4 4l-39 -10q-10 -4 -33 -4q-47 0 -77.5 32.5t-30.5 79.5q0 55 39 96.5t94 41.5q72 0 114 -51.5t42 -133.5q-1 -202 -269 -325z" />
<glyph unicode="&#x3c;" d="M799 231l-645 363l10 68l762 366l6 -106l-639 -301l545 -295z" />
<glyph unicode="=" d="M141 758l17 102h803l-17 -102h-803zM84 391l16 105h803l-16 -105h-803z" />
<glyph unicode="&#x3e;" d="M147 231l-6 105l637 301l-542 295l38 96l646 -364l-11 -68z" />
<glyph unicode="?" horiz-adv-x="823" d="M395 356q-104 0 -174.5 55.5t-70.5 154t63 155.5t199 123q127 59 184 109.5t57 125.5q0 86 -52 137.5t-144 51.5q-57 0 -99 -27q20 -43 21 -90q0 -61 -36 -103t-91 -42q-51 0 -89 35.5t-38 95.5q0 88 85 143t226 55q170 0 282.5 -94t112.5 -242q0 -131 -74.5 -199.5 t-211.5 -119.5q-80 -31 -117 -49.5t-63.5 -47t-26.5 -65.5q0 -59 54 -85.5t145 -22.5l4 -23q-62 -31 -146 -31zM276.5 -33q-55.5 0 -95.5 40t-40 95.5t40 94.5t95.5 39t94.5 -39t39 -94.5t-39 -95.5t-94.5 -40z" />
<glyph unicode="@" horiz-adv-x="1736" d="M885 -328q-154 0 -292 48.5t-246.5 137.5t-173 233.5t-64.5 322.5q0 342 254.5 587.5t609.5 245.5q305 0 489.5 -183t184.5 -431q0 -229 -141.5 -401.5t-350.5 -172.5q-86 0 -137 37t-55 103l-9 4q-102 -129 -225 -129q-90 0 -150.5 70.5t-60.5 193.5q0 188 151.5 354 t342.5 166q72 0 129 -33l86 49l12 -4l-102 -579q-29 -156 84 -156q123 0 200.5 125t77.5 330q0 242 -154.5 413t-433.5 171q-274 0 -456.5 -204t-182.5 -530q0 -305 189.5 -483t492.5 -178q250 0 465 112l17 -24q-232 -195 -551 -195zM831 190q57 0 136 64l73 434 q-61 86 -141 86q-84 0 -143.5 -126t-59.5 -269q0 -90 34.5 -139.5t100.5 -49.5z" />
<glyph unicode="A" horiz-adv-x="1294" d="M-96 0l6 35l151 61l656 1221h106l271 -1229l157 -53l-6 -35h-608l4 35l188 43l-73 379h-394l-180 -365l148 -57l-6 -35h-420zM399 530h342l-96 496h-2z" />
<glyph unicode="B" horiz-adv-x="1265" d="M-20 0l6 35l196 43l183 1149l-183 43l6 35h557q451 0 451 -281q0 -131 -101.5 -217t-277.5 -109l-2 -10q178 -25 261 -107.5t83 -205.5q0 -162 -147.5 -268.5t-399.5 -106.5h-632zM532 713h97q152 0 231.5 85t79.5 226q0 215 -215 217q-88 0 -109 -4zM571 59 q152 0 236 95.5t84 246.5q0 246 -273 246h-94l-90 -573q65 -15 137 -15z" />
<glyph unicode="C" horiz-adv-x="1318" d="M731 -31q-276 0 -459.5 157t-183.5 441q0 313 212 540.5t523 227.5q203 0 342 -73l103 79h30l-57 -456l-41 -4q-78 219 -163 306t-216 87q-197 0 -326.5 -224.5t-129.5 -523.5q0 -233 114.5 -357t276.5 -124q78 0 139 21l266 340l25 -9l-64 -344q-174 -84 -391 -84z" />
<glyph unicode="D" horiz-adv-x="1439" d="M-20 0l6 35l196 43l183 1149l-183 43l6 35h560q293 0 468 -146.5t175 -404.5q0 -324 -225.5 -539t-624.5 -215h-561zM432 72l131 4q143 6 254 69.5t175.5 167t96 225t31.5 257.5q0 197 -97 315.5t-294 122.5l-113 2z" />
<glyph unicode="E" horiz-adv-x="1292" d="M-20 0l6 35l196 43l183 1149l-183 43l6 35h1026l-8 -396l-32 -12l-138 199q-55 80 -96 106.5t-133 28.5l-191 4l-86 -545h62q98 0 157.5 44t110.5 149l27 57h37l-93 -571h-32l-11 63q-16 102 -62 144t-142 42h-64l-88 -546l270 6q82 2 133.5 28.5t114.5 92.5l213 223 l29 -12l-105 -410h-1107z" />
<glyph unicode="F" horiz-adv-x="1218" d="M-20 0l6 35l196 43l183 1149l-183 43l6 35h1026l-8 -396l-32 -12l-138 199q-55 78 -96 105.5t-131 29.5l-193 4l-88 -565h80q98 0 157.5 44t111.5 150l28 58h35l-90 -572h-35l-8 64q-14 100 -61.5 142t-143.5 42h-86l-82 -520l195 -43l-4 -35h-645z" />
<glyph unicode="G" horiz-adv-x="1402" d="M625 -33q-238 0 -386.5 160t-148.5 418q0 319 214 554.5t525 235.5q195 0 340 -75l105 81h33l-64 -469l-43 -4q-76 213 -166 309.5t-217 96.5q-190 0 -320 -218t-130 -509q0 -229 107.5 -350t273.5 -121q94 0 157 33l76 413l-178 47l6 33h561l-6 -33l-143 -45l-86 -536 l-29 -8l-154 102q-159 -115 -327 -115z" />
<glyph unicode="H" horiz-adv-x="1597" d="M-20 0l6 35l196 43l183 1149l-183 43l6 35h623l-6 -35l-189 -43l-81 -510h575l80 510l-174 43l6 35h623l-7 -35l-196 -43l-182 -1149l182 -43l-6 -35h-623l6 35l189 43l88 559h-574l-88 -559l174 -43l-6 -35h-622z" />
<glyph unicode="I" horiz-adv-x="823" d="M2 0l6 35l201 43l182 1149l-186 43l4 35h639l-6 -35l-201 -43l-182 -1149l186 -43l-4 -35h-639z" />
<glyph unicode="J" horiz-adv-x="1046" d="M276 -39q-156 0 -230.5 62.5t-74.5 148.5q0 68 40 113t102 45q100 0 136 -92q14 -35 14 -74q0 -61 -36 -127q147 6 210 81t91 259l136 850l-193 43l6 35h639l-6 -35l-197 -43l-122 -770q-23 -139 -59 -224.5t-101 -144.5q-144 -127 -355 -127z" />
<glyph unicode="K" horiz-adv-x="1398" d="M-20 0l6 35l196 43l183 1149l-183 43l6 35h623l-6 -35l-189 -43l-86 -537h125l453 506l-131 82l4 27h483l-6 -35l-205 -80l-448 -445l362 -645l146 -65l-4 -35h-555l6 35l129 51l-266 522h-105l-84 -530l172 -43l-4 -35h-622z" />
<glyph unicode="L" horiz-adv-x="1218" d="M-20 0l6 35l196 43l183 1149l-183 43l6 35h637l-6 -35l-203 -45l-184 -1153l227 4q84 2 136.5 30.5t113.5 98.5l207 227l27 -12l-94 -420h-1069z" />
<glyph unicode="M" horiz-adv-x="1843" d="M2 0l4 35l178 61l178 1127l-159 47l6 35h481l43 -211l158 -736h10l389 736l111 211h489l-6 -35l-196 -43l-183 -1149l183 -43l-7 -35h-622l6 35l188 43l174 1100h-12l-633 -1178h-55l-278 1176h-15l-170 -1080l156 -61l-4 -35h-414z" />
<glyph unicode="N" horiz-adv-x="1499" d="M1090 -12l-127 211l-531 866h-14l-154 -965l160 -65l-4 -35h-418l4 35l178 65l176 1106l-151 64l6 35h377l123 -211l424 -711h14l131 821l-160 66l4 35h418l-4 -35l-180 -66l-193 -1216h-79z" />
<glyph unicode="O" horiz-adv-x="1427" d="M657 -31q-252 0 -408.5 163t-156.5 425q0 317 202 547.5t501 230.5q250 0 406.5 -162.5t156.5 -422.5q0 -207 -89 -385.5t-252 -287t-360 -108.5zM655 29q123 0 224.5 128t153.5 310t52 367q0 203 -75.5 322.5t-212.5 119.5q-125 0 -226.5 -128t-153.5 -310.5t-52 -366.5 q0 -203 75.5 -322.5t214.5 -119.5z" />
<glyph unicode="P" horiz-adv-x="1239" d="M-20 0l6 35l196 43l183 1149l-183 43l6 35h570q244 0 358.5 -95.5t114.5 -242.5q0 -186 -145.5 -304t-362.5 -118q-94 0 -213 20l-76 -487l193 -43l-6 -35h-641zM633 623q162 2 248 100t86 256q0 119 -62.5 188.5t-175.5 71.5q-96 0 -113 -4l-94 -608q19 -4 111 -4z" />
<glyph unicode="Q" horiz-adv-x="1427" d="M926 -389q-205 0 -279 67q-49 39 -100 191l-41 119q-190 47 -302 198.5t-112 370.5q0 317 202 547.5t501 230.5q250 0 406.5 -162.5t156.5 -422.5q0 -289 -169 -511.5t-431 -261.5q72 -184 141 -237q86 -70 215 -98l-6 -31h-182zM655 29q123 0 224.5 128t153.5 310 t52 367q0 203 -75.5 322.5t-212.5 119.5q-125 0 -226.5 -128t-153.5 -310.5t-52 -366.5q0 -203 75.5 -322.5t214.5 -119.5z" />
<glyph unicode="R" horiz-adv-x="1339" d="M-20 0l6 35l196 43l183 1149l-183 43l6 35h586q242 0 353.5 -84t111.5 -222q0 -154 -117.5 -245.5t-312.5 -120.5l-2 -10q104 -25 156.5 -81.5t85.5 -166.5q59 -203 104 -252q33 -39 64.5 -57.5t87.5 -30.5l-7 -35h-231q-117 0 -161 46t-81 167l-65 223q-31 100 -70 131 t-123 31h-51l-82 -520l180 -43l-6 -35h-628zM526 662l119 4q158 4 242 94t84 241q0 104 -64.5 170t-185.5 68q-88 0 -105 -4z" />
<glyph unicode="S" horiz-adv-x="1083" d="M57 -29l37 461l47 4q78 -225 166 -311t211 -86q111 0 175.5 65.5t64.5 163.5q0 53 -16.5 93t-58.5 76t-76 56.5t-107 59.5q-78 43 -120 69.5t-90 70.5t-68.5 98.5t-20.5 126.5q0 182 131 299.5t301 117.5q152 0 250 -71l86 69h37l-25 -411l-41 -7q-78 201 -142.5 276 t-164.5 75q-90 0 -153.5 -64.5t-63.5 -159.5q0 -51 15 -90t58 -74.5t76 -55.5l107 -60q78 -41 118.5 -67.5t89 -70.5t70 -98.5t21.5 -124.5q0 -197 -143.5 -314.5t-315.5 -117.5q-199 0 -326 84l-92 -82h-37z" />
<glyph unicode="T" horiz-adv-x="1306" d="M238 0l6 35l207 43l184 1157h-76q-74 -2 -120 -33t-124 -117l-178 -204l-31 10l113 414h1096l-2 -414l-35 -10l-121 204q-51 86 -90 117t-109 33h-73l-185 -1157l197 -43l-6 -35h-653z" />
<glyph unicode="U" horiz-adv-x="1460" d="M698 -33q-276 0 -396 134q-89 100 -89 268q0 57 10 123l117 735l-182 43l6 35h635l-4 -35l-201 -43l-119 -752q-9 -59 -9 -109q0 -282 294 -282q166 0 263 101.5t122 260.5l123 762l-146 62l6 35h390l-7 -35l-165 -62l-127 -805q-31 -188 -173.5 -312t-347.5 -124z" />
<glyph unicode="V" horiz-adv-x="1312" d="M543 -12l-287 1229l-162 53l6 35h613l-4 -35l-185 -43l181 -922l471 901l-132 64l7 35h393l-6 -35l-154 -70l-672 -1212h-69z" />
<glyph unicode="W" horiz-adv-x="1878" d="M442 -12l-186 1229l-162 53l4 35h598l-6 -35l-170 -43l103 -897l370 719l-35 168l-141 53l6 35h568l-7 -35l-170 -43l140 -897l379 874l-129 66l6 35h391l-6 -35l-154 -72l-579 -1210h-72l-176 942l-504 -942h-68z" />
<glyph unicode="X" horiz-adv-x="1411" d="M-31 0l6 35l166 55l475 528l-299 605l-155 47l6 35h602l-4 -35l-168 -41l188 -441l342 429l-143 53l6 35h451l-6 -35l-166 -56l-447 -497l316 -635l155 -47l-6 -35h-602l4 35l168 41q-205 475 -207 475l-368 -463l143 -53l-6 -35h-451z" />
<glyph unicode="Y" horiz-adv-x="1300" d="M248 0l6 35l201 51l77 496l-278 628l-158 60l6 35h611l-6 -35l-168 -49l213 -553l372 544l-133 60l6 33h426l-6 -37l-164 -62l-467 -608l-81 -512l186 -51l-4 -35h-639z" />
<glyph unicode="Z" horiz-adv-x="1273" d="M-23 0l-4 20l969 1207l-309 -2q-80 -2 -134.5 -30t-136.5 -108l-172 -169l-24 12l98 375h1004l4 -21l-965 -1208l377 4q80 0 131 27.5t111 95.5l194 217l25 -12l-103 -408h-1065z" />
<glyph unicode="[" horiz-adv-x="628" d="M25 -360l299 1878h542l-10 -66h-344l-279 -1747h347l-13 -65h-542z" />
<glyph unicode="\" horiz-adv-x="765" d="M764 -432l-408 960l-422 957l74 33l410 -961l420 -954z" />
<glyph unicode="]" horiz-adv-x="628" d="M-236 -360l11 65h344l278 1747h-344l10 66h543l-299 -1878h-543z" />
<glyph unicode="^" horiz-adv-x="641" d="M150 1036l-25 25l326 369h36l187 -369l-31 -25l-209 176z" />
<glyph unicode="_" horiz-adv-x="909" d="M-31 0v80h901v-80h-901z" />
<glyph unicode="`" horiz-adv-x="495" d="M453 1055l-62 69l-66 76l-47 58.5t-40 58.5q-23 39 -14 80t46 61q35 20 72 6t53 -53q20 -49 84 -340z" />
<glyph unicode="a" horiz-adv-x="1011" d="M307 -23q-111 0 -186.5 88.5t-75.5 235.5q0 154 85 305.5t227.5 249.5t293.5 98q80 0 158 -39l109 60l14 -8l-135 -768q-3 -16 -3 -29q0 -40 23 -56q31 -22 166 -26l4 -14q-152 -96 -276.5 -96.5t-128.5 155.5l-11 6q-129 -162 -264 -162zM426 125q74 0 168 78l92 536 q-76 109 -172 109q-68 0 -125 -77t-89 -189.5t-32 -227.5q0 -109 42 -169t116 -60z" />
<glyph unicode="b" horiz-adv-x="1003" d="M362 -23q-82 0 -160.5 29t-123.5 70l207 1239l-129 84v20l360 103l8 -6l-114 -691l8 -8q143 137 280 137q113 0 188 -88t75 -239q0 -233 -189 -441.5t-410 -208.5zM483 84q109 0 182.5 154.5t73.5 334.5q0 233 -176 234q-84 0 -162 -49l-98 -565q80 -109 180 -109z" />
<glyph unicode="c" horiz-adv-x="847" d="M418 -23q-170 0 -266.5 106.5t-96.5 266.5q0 240 163 422t378 182q115 0 180.5 -55t65.5 -129q0 -55 -32 -92t-81 -37q-59 0 -94 39t-35 104q0 61 23 119q-133 -4 -241 -160.5t-108 -355.5q0 -137 64.5 -204.5t171.5 -67.5q125 0 246 96l16 -18q-61 -100 -156.5 -158 t-197.5 -58z" />
<glyph unicode="d" horiz-adv-x="1026" d="M315 -23q-115 0 -192.5 89.5t-77.5 238.5q0 236 189.5 442.5t424.5 206.5q41 0 74 -8l62 369l-129 84v20l360 103l8 -6l-221 -1317q-2 -16 -2 -30q0 -43 25 -58q33 -20 163 -23l5 -14q-152 -96 -279 -96.5t-127 155.5l-10 6q-68 -82 -129.5 -122t-143.5 -40zM440 125 q74 0 168 78l92 536q-80 109 -178 109q-72 0 -132 -77t-91 -187.5t-31 -225.5q0 -113 45 -173t127 -60z" />
<glyph unicode="e" horiz-adv-x="868" d="M276 455q-3 -33 -2 -64q0 -278 238 -278q125 0 250 104l14 -18q-55 -98 -158.5 -160t-218.5 -62q-166 0 -258 104.5t-92 260.5q0 238 162 425t387 187q113 0 179.5 -57t66.5 -141q0 -125 -136 -215q-130 -86 -406 -87q-13 1 -26 1zM283 510h23q163 0 247 82q90 88 90 199 q0 45 -21.5 71.5t-62.5 26.5q-94 0 -172.5 -114.5t-103.5 -264.5z" />
<glyph unicode="f" horiz-adv-x="626" d="M-72 -449q-80 0 -130 38t-50 92q0 47 33 78.5t84 31.5q119 0 188 -139q51 82 86 328l117 833h-217l6 37l229 80l7 41q43 270 217 426q133 121 288 121q82 0 135.5 -40t53.5 -96q0 -51 -33 -83.5t-88 -32.5t-110.5 43t-90.5 123q-61 -51 -98 -145.5t-70 -311.5l-8 -57h250 l-18 -105h-246l-84 -608q-29 -207 -79 -332t-142 -217q-103 -105 -230 -105z" />
<glyph unicode="g" horiz-adv-x="952" d="M348 -449q-205 0 -323.5 76t-118.5 185q0 98 86 163.5t231 90.5l70 219q-98 27 -154.5 99.5t-56.5 172.5q0 158 126 277.5t304 119.5q162 0 246 -94q111 133 203 133q53 0 83.5 -29.5t30.5 -74.5q0 -47 -26.5 -79t-69.5 -32q-33 0 -57.5 22.5t-28.5 59.5l-113 -26 q49 -72 49 -166q0 -158 -124.5 -277t-303.5 -119h-28q-4 -20 -5 -34q0 -21 9 -31q14 -18 76 -41q211 -74 283.5 -139.5t72.5 -159.5q0 -127 -127 -221.5t-334 -94.5zM432 332q59 0 103.5 59.5t63.5 137t19 155.5q0 92 -34.5 149.5t-102.5 57.5q-59 0 -103 -59.5 t-63.5 -137.5t-19.5 -155q0 -92 35.5 -149.5t101.5 -57.5zM428 -379q94 0 146.5 38t52.5 109.5t-95.5 133t-304.5 123.5q-111 -63 -110 -183q0 -90 88 -155.5t223 -65.5z" />
<glyph unicode="h" horiz-adv-x="1052" d="M762 -23q-131 0 -131 121q0 47 14 109l66 354q13 58 12 102q0 40 -10 68q-23 59 -111 60q-84 0 -209 -70l-121 -721h-206l219 1315l-129 84v20l360 103l8 -6l-121 -738l9 -4q201 180 342 180q119 0 158 -91q23 -53 24 -127q0 -53 -12 -118l-80 -419q-3 -17 -4 -32 q0 -39 25 -55q34 -22 165 -24l4 -14q-151 -97 -272 -97z" />
<glyph unicode="i" horiz-adv-x="563" d="M387 1112q-45 0 -76.5 33t-31.5 86q0 72 44 128t109 56q45 0 75 -31.5t30 -87.5q0 -70 -42 -127t-108 -57zM242 -23q-132 0 -133 129q0 30 8 68l106 586l-133 84v20l369 103l8 -6l-137 -760q-3 -18 -4 -34q0 -40 24 -55q33 -22 168 -24l4 -14q-155 -97 -280 -97z" />
<glyph unicode="j" horiz-adv-x="550" d="M399 1112q-45 0 -76.5 33t-31.5 86q0 72 44 128t109 56q45 0 75 -31.5t30 -87.5q0 -70 -42 -127t-108 -57zM-96 -449q-76 0 -123 38t-49 92q0 47 31.5 78.5t82.5 31.5q125 0 189 -139q53 80 90 332l113 776l-132 84v20l359 103l8 -6l-108 -760q-31 -209 -73 -324 t-132 -207q-119 -119 -256 -119z" />
<glyph unicode="k" horiz-adv-x="954" d="M721 -23q-63 0 -99 34t-55 112q-49 203 -87 261t-130 73l-78 -457h-206l221 1315l-131 84v20l360 103l8 -6l-166 -1002q229 57 334 166q-41 59 -41 123q0 66 37 110.5t90 44.5q57 0 88 -39.5t31 -95.5q0 -92 -82 -166.5t-291 -138.5v-8q68 -10 107 -35.5t69 -77.5 q41 -70 78 -227q10 -47 48 -63.5t151 -18.5l4 -14q-137 -97 -260 -97z" />
<glyph unicode="l" horiz-adv-x="550" d="M236 -23q-133 0 -133 136q0 28 6 61l192 1141l-131 84v20l362 103l9 -6l-219 -1315q-2 -16 -3 -31q0 -43 24 -58q32 -22 165 -24l4 -14q-151 -97 -276 -97z" />
<glyph unicode="m" horiz-adv-x="1576" d="M1286 -23q-129 0 -129 121q0 47 14 109l66 354q14 66 14 113q0 37 -9 61q-19 55 -99 56q-76 0 -201 -70l-121 -721h-207l95 561q14 70 14 117q0 34 -7 57q-17 55 -95 56q-76 0 -201 -70l-121 -721h-209l129 760l-129 84v20l348 103l8 -6l-28 -191l8 -6q209 190 350 190 q80 0 120 -51t42 -135l8 -6q209 193 354 192q104 0 142 -89q20 -49 20 -117q0 -58 -14 -130l-80 -419q-2 -15 -2 -28q0 -41 25 -58q33 -23 163 -25l7 -14q-156 -97 -275 -97z" />
<glyph unicode="n" horiz-adv-x="1077" d="M786 -23q-131 0 -131 121q0 47 15 109l67 354q13 56 13 100q0 41 -12 70q-24 59 -111 60q-82 0 -207 -70l-121 -721h-207l127 760l-129 84v20l348 103l8 -6l-28 -191l8 -6q209 190 352 190q119 0 159 -91q23 -53 23 -127q0 -53 -12 -118l-80 -419q-3 -17 -3 -32 q0 -39 25 -55q34 -22 165 -24l4 -14q-152 -97 -273 -97z" />
<glyph unicode="o" horiz-adv-x="989" d="M410 -23q-164 0 -259.5 98.5t-95.5 278.5q0 229 153.5 414.5t375.5 185.5q164 0 257 -97t93 -279q0 -231 -151.5 -416t-372.5 -185zM457 49q80 0 139 91t85 210t26 234q0 139 -45.5 219t-126.5 80q-80 0 -139.5 -91.5t-85 -209t-25.5 -232.5q0 -141 44 -221t128 -80z" />
<glyph unicode="p" horiz-adv-x="1026" d="M-119 -426l6 27l146 63l186 1096l-129 84v20l348 103l8 -6l-24 -168l6 -7q137 168 293 168q113 0 187.5 -88t74.5 -239.5t-87 -303t-227.5 -249t-283.5 -97.5q-43 0 -90 11l-55 -324l155 -63l-4 -27h-510zM506 84q72 0 132 77t91 187.5t31 224.5q0 113 -44 173.5 t-128 60.5q-74 0 -166 -70l-94 -544q80 -109 178 -109z" />
<glyph unicode="q" horiz-adv-x="989" d="M346 -426l6 27l166 63l78 455l-8 6q-141 -147 -277 -148q-113 0 -189.5 89.5t-76.5 238.5q0 236 189.5 442.5t424.5 206.5q82 0 162 -39l109 60l16 -8l-221 -1303l129 -63l-4 -27h-504zM442 125q76 0 164 65l92 549q-80 109 -176 109q-109 0 -181.5 -154.5t-72.5 -335.5 q0 -113 45 -173t129 -60z" />
<glyph unicode="r" horiz-adv-x="788" d="M92 0l127 760l-129 84v20l350 103l9 -6l-39 -234l8 -6q57 104 130 169.5t144 65.5q61 0 98 -33.5t37 -87t-36.5 -93.5t-88.5 -40q-80 0 -139 80q-82 -27 -153 -114l-111 -668h-207z" />
<glyph unicode="s" horiz-adv-x="788" d="M315 -23q-131 0 -216 59.5t-85 147.5q0 59 34 96t81 37q66 0 93 -63q14 -31 14 -71q0 -41 -15 -91q72 -45 160 -45q66 0 102.5 35t36.5 98q0 88 -127 170l-88 58q-92 57 -135 113.5t-43 135.5q0 117 100.5 207t255.5 90q117 0 183.5 -51t66.5 -123q0 -49 -28.5 -78.5 t-71.5 -29.5q-57 0 -95 53t-46 139q-39 20 -78 21q-55 0 -86 -36t-31 -89q0 -90 121 -162l102 -63q176 -109 176 -246q0 -127 -103.5 -219.5t-277.5 -92.5z" />
<glyph unicode="t" horiz-adv-x="665" d="M307 -18q-121 0 -162 63q-26 40 -25 106q0 40 9 89l96 573h-147l4 31l209 155l166 191l37 -10l-45 -262h260l-19 -105h-258l-90 -526q-6 -39 -6 -68q0 -58 24 -78q37 -31 156 -30q49 0 113 6v-29q-191 -106 -322 -106z" />
<glyph unicode="u" horiz-adv-x="1093" d="M311 -23q-123 0 -165 94q-25 55 -25 130q0 51 12 112l84 447l-131 84v20l363 103l8 -6l-111 -590q-13 -55 -12 -98q0 -41 11 -69q24 -58 112 -59q92 0 213 72l98 543l-133 84v20l364 103l9 -6l-138 -762q-3 -18 -3 -33q0 -38 23 -53q32 -20 167 -25l4 -14 q-152 -96 -268 -97q-131 0 -131 148q0 17 2 35l-11 6q-195 -189 -342 -189z" />
<glyph unicode="v" horiz-adv-x="968" d="M346 -45l-49 25l35 98q-29 453 -92 633q-23 76 -74 75q-35 0 -129 -30l-10 14q150 184 270 184q88 0 133 -96q29 -66 53.5 -244t32.5 -393l8 -6q201 233 254 408q-74 96 -73 182q0 66 35.5 107.5t88.5 41.5q55 0 88 -44t33 -115q0 -273 -604 -840z" />
<glyph unicode="w" horiz-adv-x="1415" d="M344 -45l-49 25l37 102q-29 449 -88 629q-12 41 -28.5 58t-45.5 17q-35 0 -131 -30l-10 14q150 184 268 184q90 0 131 -96q31 -66 55.5 -251t28.5 -388l8 -6q133 174 221 358l-49 308l191 82h16q35 -311 94 -744l8 -4q178 215 228 408q-82 88 -82 184q-2 68 32.5 108.5 t90 40.5t88.5 -44q35 -47 35 -126q0 -292 -559 -829l-48 25l35 102l-59 358q-162 -243 -418 -485z" />
<glyph unicode="x" horiz-adv-x="995" d="M125 -27q-59 0 -99 35t-40 90q0 51 33.5 88t86.5 37q76 0 130 -69q76 49 184 262q-76 215 -131 313q-33 63 -70 81q-27 13 -92 13q-23 0 -51 -2l-6 17q145 117 239 116q86 0 140.5 -84t105.5 -276l8 -2q76 195 148.5 280.5t156.5 85.5q59 0 98.5 -34.5t39.5 -89.5 q0 -51 -34 -88t-85 -37q-78 0 -129 69q-82 -61 -170 -252q74 -219 129 -323q33 -63 70 -81q28 -13 94 -13q23 0 51 2l4 -15q-139 -119 -244 -119q-86 0 -139 84t-104 289l-9 2q-153 -379 -315 -379z" />
<glyph unicode="y" horiz-adv-x="983" d="M139 -449q-78 0 -126 49.5t-48 118.5q0 53 30 90t81 37q63 0 99 -58q32 -52 32 -129v-17q141 78 262 301q-94 475 -215 770q-31 74 -82 73q-43 0 -127 -30l-12 16q147 182 256 182q51 0 84 -24.5t59 -77.5q41 -76 90 -261t80 -386h10q119 381 185 766h16l188 -90 l-108 -253q-92 -216 -131 -300l-117 -242q-78 -158 -143.5 -254t-130.5 -160q-126 -121 -232 -121z" />
<glyph unicode="z" horiz-adv-x="878" d="M612 -23q-76 0 -221 54l-180 61l-172 -94l-31 27l633 692q-270 68 -389 67q-47 0 -76 -14l-2 -8q133 -35 133 -133q0 -45 -26.5 -75t-69.5 -30q-55 0 -91 39t-36 94q0 100 84 193q98 109 223 108q68 0 189 -38l168 -35l143 76l33 -31l-623 -676l295 -64q25 -6 47 -5 q31 0 55 12q41 20 111 92l16 -8q-63 -182 -108.5 -243t-104.5 -61z" />
<glyph unicode="{" horiz-adv-x="694" d="M580 -360q-229 23 -319.5 97.5t-59.5 270.5l41 266q23 152 -21.5 213.5t-189.5 83.5l6 39q152 14 216 74.5t87 212.5l43 268q20 135 86 211t159 104.5t251 37.5l-11 -48q-137 -25 -195.5 -82t-78.5 -196l-37 -234q-29 -182 -110.5 -264t-233.5 -106v-4 q143 -29 197.5 -113t25.5 -266l-35 -234q-20 -139 18 -197.5t167 -86.5z" />
<glyph unicode="|" horiz-adv-x="559" d="M236 -494l6 965l-6 965h88l-7 -965l7 -965h-88z" />
<glyph unicode="}" horiz-adv-x="694" d="M-170 -360l8 47q137 23 195.5 80t81.5 196l37 242q29 182 110.5 263t233.5 107v5q-143 29 -197.5 112.5t-26.5 265.5l35 228q20 137 -18.5 196.5t-165.5 87.5l6 48q229 -23 319.5 -99t59.5 -270l-41 -260q-23 -152 22.5 -214.5t190.5 -82.5l-6 -39q-152 -14 -216.5 -74.5 t-88.5 -212.5l-43 -274q-33 -197 -146.5 -267.5t-349.5 -84.5z" />
<glyph unicode="~" horiz-adv-x="747" d="M150 537l-33 10q35 217 174 217q53 0 145 -36t129 -36q68 0 101 84l32 -10q-23 -217 -170 -217q-55 0 -149 36t-131 36q-61 0 -98 -84z" />
<glyph unicode="&#xa1;" horiz-adv-x="540" d="M303 586q-55 0 -94 39t-39 94t39 94t94 39t94 -39t39 -94t-39 -94t-94 -39zM135 -516q-133 0 -133 135q0 55 33 177t101 340l97 315l56 -11q-2 -109 -5 -312.5t-6.5 -328.5t-11.5 -178q-22 -137 -131 -137z" />
<glyph unicode="&#xa2;" horiz-adv-x="901" d="M391 -186l-69 6l28 162q-141 16 -222 114.5t-81 245.5q0 211 135 387t324 217l26 160l70 -8l-24 -144h18q123 0 192.5 -57t69.5 -137q0 -55 -31.5 -90t-81.5 -35q-86 0 -115.5 82t11.5 180q-39 6 -74 0l-75 -444l-54 -338q29 -6 60 -6q141 0 252 98l18 -23 q-49 -82 -148.5 -143t-201.5 -64zM375 137l57 324l64 413q-102 -53 -168 -194t-66 -295q0 -182 113 -248z" />
<glyph unicode="&#xa3;" horiz-adv-x="1101" d="M84 -31q-53 0 -82 28t-29 69q0 66 75 109.5t212 49.5q117 123 117 258q0 57 -12 109h-3h-2h-2h-2h-2h-2h-2h-2h-2h-2h-2h-2h-2h-2h-2h-2h-2h-2h-2h-2h-5h-2h-2h-2h-2h-2h-2h-2h-2h-4h-2h-2h-2h-4h-2h-2h-2h-4h-3h-2h-4h-2h-2h-4h-2h-4h-2h-2h-4h-2h-4h-2h-4h-3h-4h-2h-4 h-2h-4h-4h-2h-4h-2h-4h-4h-2h-5h-4h-2h-4h-4h-2h-4h-4h-4h-2h-4h-4h-5h-2h-4h-4h-4h-4h-16l14 90h219q-16 90 -16 143q0 184 154.5 322.5t373.5 138.5q98 0 151.5 -38t53.5 -103q0 -49 -32 -82t-91 -33q-61 0 -118.5 49t-94.5 133q-162 -70 -162 -315q0 -53 25 -215h299 l-12 -90h-279v-21q0 -106 -68.5 -197t-195.5 -153v-14q78 8 235.5 -4.5t186.5 -12.5q82 0 122 44.5t80 152.5l43 -2q-53 -416 -315 -416q-156 0 -397 164q-37 -74 -92.5 -119t-112.5 -45z" />
<glyph unicode="&#xa4;" horiz-adv-x="1144" d="M627 -31q-205 0 -327 134.5t-132 347.5h-143l12 79h129q2 78 27 175h-132l15 79h141q80 217 254 358.5t369 141.5q137 0 203.5 -63.5t66.5 -145.5q0 -61 -36 -101t-91 -40q-92 0 -127 80t8 207q-154 -4 -266.5 -125t-163.5 -312h481l-12 -79h-487q-16 -98 -17 -175h480 l-13 -79h-465q16 -152 97.5 -236t206.5 -84q174 0 323 129l23 -27q-154 -264 -424 -264z" />
<glyph unicode="&#xa5;" horiz-adv-x="1275" d="M217 0l6 35l215 51l41 260h-352l12 82h353l22 135h-352l12 82h315l-221 514l-159 60l4 34h606l-6 -34l-185 -50l181 -507l366 499l-147 60l4 32h440l-4 -34l-178 -70l-402 -504h326l-12 -82h-354l-23 -135h354l-12 -82h-354l-41 -260l200 -51l-6 -35h-649z" />
<glyph unicode="&#xa6;" horiz-adv-x="550" d="M319 582h-88l7 426l-7 428h88l-6 -428zM319 -494h-88l7 428l-7 426h88l-6 -426z" />
<glyph unicode="&#xa7;" horiz-adv-x="944" d="M381 -201q-164 0 -270.5 82t-106.5 191q0 63 35 103t92 40q84 0 112.5 -83t-16.5 -177q66 -88 209 -88q84 0 148.5 54t93.5 157q-272 164 -407.5 324.5t-135.5 383.5q0 238 141.5 413t374.5 175q139 0 219 -61.5t80 -147.5q0 -51 -31.5 -84.5t-80.5 -33.5 q-63 0 -106.5 54t-43.5 161q-49 37 -125 36q-78 0 -154.5 -61t-109.5 -174q270 -162 407.5 -332t137.5 -393q0 -225 -127 -382t-336 -157zM688 133q10 55 10 105q0 186 -101 360t-310 410q-8 -57 -8 -95q0 -188 101 -368.5t308 -411.5z" />
<glyph unicode="&#xa8;" horiz-adv-x="708" d="M623 1100q-51 0 -86 34.5t-35 88.5q0 55 39 96t94 41q51 0 86 -36t35 -89t-39 -94t-94 -41zM266 1100q-53 0 -88 34.5t-35 88.5q0 55 39 96t97 41q51 0 84.5 -36t33.5 -89t-39 -94t-92 -41z" />
<glyph unicode="&#xa9;" horiz-adv-x="1511" d="M770 -31q-283 0 -483.5 200t-200.5 484q0 283 200.5 482.5t483.5 199.5t483.5 -199.5t200.5 -482.5q0 -285 -200.5 -484.5t-483.5 -199.5zM770 31q254 0 434 183t180 439t-180 438.5t-434 182.5t-435 -182.5t-181 -438.5t181 -439t435 -183zM786 291q-168 0 -270 95 t-102 259q0 154 108.5 261.5t272.5 107.5q94 0 159 -33l33 37h27l14 -262l-33 -2q-86 213 -219 213q-80 0 -132 -73t-52 -230q0 -152 60.5 -236t164.5 -84q41 0 72 10l129 170l22 -4l-22 -184q-103 -45 -232 -45z" />
<glyph unicode="&#xaa;" horiz-adv-x="808" d="M301 649q-82 0 -139.5 62.5t-57.5 167.5q0 166 137.5 311t309.5 145q59 0 121 -30l88 43l10 -5l-98 -532q-8 -49 14.5 -63.5t118.5 -16.5l4 -12q-115 -70 -207 -70q-49 0 -74.5 30t-23.5 81l-10 4q-91 -115 -193 -115zM397 760q49 0 113 57l63 363q-51 76 -120 75 q-72 0 -123 -106.5t-51 -228.5q-1 -160 118 -160z" />
<glyph unicode="&#xab;" horiz-adv-x="985" d="M745 61l-333 390l4 20l452 387l41 -45l-288 -350l172 -365zM375 61l-334 390l4 20l453 387l41 -45l-289 -350l174 -365z" />
<glyph unicode="&#xac;" d="M948 573h-856l17 109h856z" />
<glyph unicode="&#xad;" horiz-adv-x="684" d="M70 416l24 141h484l-23 -141h-485z" />
<glyph unicode="&#xae;" horiz-adv-x="770" d="M459 719q-131 0 -220 89t-89 220t89 220t220 89t220 -89t89 -220t-89 -220t-220 -89zM458.5 752q114.5 0 192.5 78.5t78 197.5t-78 198t-192.5 79t-192.5 -79t-78 -198t78 -197.5t192.5 -78.5zM598 1114q0 -66 -86 -80v-10q51 -8 66 -55q16 -39 28 -54q16 -16 41 -18v-20 h-69q-29 0 -43.5 12t-24.5 45l-18 47q-12 31 -54 31h-10v-101l49 -14v-20h-180v20l55 14v244l-55 14v23h188q53 0 83 -22.5t30 -55.5zM520 1102q0 61 -63 61l-29 2v-127h25q67 1 67 64z" />
<glyph unicode="&#xaf;" horiz-adv-x="663" d="M164 1120l18 113h529l-19 -113h-528z" />
<glyph unicode="&#xb0;" horiz-adv-x="802" d="M414 721q-115 0 -181.5 61.5t-66.5 173.5q0 145 99.5 262t254.5 117q117 0 182.5 -61.5t65.5 -171.5q0 -147 -99 -264t-255 -117zM440 770q76 0 117 107.5t41 234.5q0 174 -104 174q-53 0 -90 -57.5t-52.5 -131t-15.5 -153.5q0 -174 104 -174z" />
<glyph unicode="&#xb1;" horiz-adv-x="1024" d="M51 -410v2048h922v-2048h-922z" />
<glyph unicode="&#xb2;" horiz-adv-x="1024" d="M51 -410v2048h922v-2048h-922z" />
<glyph unicode="&#xb3;" horiz-adv-x="1024" d="M51 -410v2048h922v-2048h-922z" />
<glyph unicode="&#xb4;" horiz-adv-x="495" d="M197 1053l-25 18l46 95l50 101l41 75q25 44 45 69q31 41 74 55.5t76 -8.5q31 -20 28.5 -64t-36.5 -85q-27 -31 -72 -70l-119 -98z" />
<glyph unicode="&#xb5;" d="M596 616l225 -303l-88 -65l-217 303l-326 -264l-61 78l332 266l-225 303l86 65l219 -303l323 265l62 -78z" />
<glyph unicode="&#xb6;" horiz-adv-x="1456" d="M897 -170q-375 0 -581.5 197.5t-206.5 492.5q0 371 284.5 618.5t714.5 247.5h453l-5 -32l-227 -39l-225 -1413l221 -37l-4 -35h-424zM838 -102l184 4l225 1413l-182 4z" />
<glyph unicode="&#xb7;" horiz-adv-x="460" d="M246 516q-57 0 -96 39t-39 96q0 55 38.5 94t96.5 39q55 0 94 -38.5t39 -94.5q0 -57 -39 -96t-94 -39z" />
<glyph unicode="&#xb8;" horiz-adv-x="585" d="M33 -526q-74 0 -118 31.5t-44 76.5q0 33 18.5 54.5t49 21.5t48 -20.5t17.5 -51.5q0 -33 -24 -57q25 -10 51 -10q45 0 72.5 31.5t27.5 87t-30.5 88t-84.5 32.5q-37 0 -61 -8l-29 29l371 319l33 -41l-232 -196q78 -16 122 -64.5t44 -122.5q0 -86 -65.5 -143t-165.5 -57z " />
<glyph unicode="&#xb9;" horiz-adv-x="1024" d="M51 -410v2048h922v-2048h-922z" />
<glyph unicode="&#xba;" horiz-adv-x="798" d="M399 647q-123 0 -195.5 73t-72.5 198q0 170 111.5 292.5t271.5 122.5q123 0 194.5 -71.5t71.5 -196.5q0 -170 -110.5 -294t-270.5 -124zM424 702q80 0 128 122t48 259q0 197 -111 197q-82 0 -130 -122t-48 -259q0 -197 113 -197z" />
<glyph unicode="&#xbb;" horiz-adv-x="985" d="M451 61l-39 45l286 351l-172 364l49 37l332 -389l-4 -20zM80 61l-39 45l287 351l-172 364l49 37l332 -389l-5 -20z" />
<glyph unicode="&#xbc;" horiz-adv-x="1024" d="M51 -410v2048h922v-2048h-922z" />
<glyph unicode="&#xbd;" horiz-adv-x="1024" d="M51 -410v2048h922v-2048h-922z" />
<glyph unicode="&#xbe;" horiz-adv-x="1024" d="M51 -410v2048h922v-2048h-922z" />
<glyph unicode="&#xbf;" horiz-adv-x="755" d="M483 852q57 0 96 -39t39 -94t-38.5 -94t-96.5 -39q-55 0 -94 39t-39 94t39 94t94 39zM365 465q104 0 174.5 -55.5t70.5 -153.5t-63.5 -155.5t-198.5 -123.5q-125 -59 -183.5 -109t-58.5 -126q0 -86 52.5 -137t144.5 -54q53 0 98 29q-20 41 -20 90q0 61 36 102.5t91 41.5 q51 0 89 -36t38 -95q0 -86 -85 -141.5t-226 -55.5q-170 0 -282 94t-112 240q0 131 75 199.5t212 121.5q80 33 116 50.5t62.5 46t26.5 65.5q0 115 -199 109l-4 22q62 31 146 31z" />
<glyph unicode="&#xc0;" horiz-adv-x="1294" d="M848 1436l-62 69l-66 76l-47 58.5t-40 58.5q-23 39 -13.5 80t46.5 61q35 20 71.5 6t53.5 -53q20 -49 83 -340zM-96 0l6 35l151 61l656 1221h106l271 -1229l157 -53l-6 -35h-608l4 35l188 43l-73 379h-394l-180 -365l148 -57l-6 -35h-420zM399 530h342l-96 496h-2z" />
<glyph unicode="&#xc1;" horiz-adv-x="1294" d="M762 1434l-25 18l46 95l51 101l40 75q25 44 46 69q31 41 73.5 55.5t75.5 -8.5q31 -20 29 -64t-37 -85q-27 -31 -72 -70l-119 -98zM-96 0l6 35l151 61l656 1221h106l271 -1229l157 -53l-6 -35h-608l4 35l188 43l-73 379h-394l-180 -365l148 -57l-6 -35h-420zM399 530h342 l-96 496h-2z" />
<glyph unicode="&#xc2;" horiz-adv-x="1294" d="M535 1413l-27 27l328 366h34l187 -370l-29 -23l-209 178zM-96 0l6 35l151 61l656 1221h106l271 -1229l157 -53l-6 -35h-608l4 35l188 43l-73 379h-394l-180 -365l148 -57l-6 -35h-420zM399 530h342l-96 496h-2z" />
<glyph unicode="&#xc3;" horiz-adv-x="1294" d="M535 1464l-37 13q41 240 186 239q59 0 154.5 -39t136.5 -39q70 0 110 93l39 -13q-43 -240 -188 -239q-59 0 -155.5 38.5t-135.5 38.5q-69 0 -110 -92zM-96 0l6 35l151 61l656 1221h106l271 -1229l157 -53l-6 -35h-608l4 35l188 43l-73 379h-394l-180 -365l148 -57l-6 -35 h-420zM399 530h342l-96 496h-2z" />
<glyph unicode="&#xc4;" horiz-adv-x="1294" d="M987 1481q-51 0 -86 34.5t-35 88.5q0 55 39 96t94 41q51 0 86 -36t35 -89t-39 -94t-94 -41zM631 1481q-53 0 -88 34.5t-35 88.5q0 55 39 96t96 41q51 0 85 -36t34 -89t-39 -94t-92 -41zM-96 0l6 35l151 61l656 1221h106l271 -1229l157 -53l-6 -35h-608l4 35l188 43 l-73 379h-394l-180 -365l148 -57l-6 -35h-420zM399 530h342l-96 496h-2z" />
<glyph unicode="&#xc5;" horiz-adv-x="1294" d="M-96 0l6 35l151 61l646 1200q-115 37 -115 156q0 86 60.5 150.5t158.5 64.5q80 0 127 -46t47 -118q0 -70 -42 -129t-116 -80l267 -1206l157 -53l-6 -35h-608l4 35l188 43l-73 379h-394l-180 -365l148 -57l-6 -35h-420zM772 1329q49 0 73.5 58.5t24.5 128.5q0 111 -63 110 q-51 0 -75.5 -59.5t-24.5 -128.5q-1 -109 65 -109zM399 530h342l-96 496h-2z" />
<glyph unicode="&#xc6;" horiz-adv-x="1888" d="M-125 0l6 35l154 61l893 1121l-178 53l4 35h1054l-8 -396l-31 -12l-139 199q-55 80 -96 106.5t-133 28.5l-189 4l-88 -545h62q98 0 156.5 43t111.5 150l29 57h35l-91 -571h-34l-11 63q-14 100 -60 143t-142 43h-66l-88 -546l270 6q82 2 134.5 28.5t113.5 92.5l215 223 l27 -12l-103 -410h-1108l5 35l198 43l68 436h-371l-317 -424l143 -55l-6 -35h-420zM528 584h330l88 553h-4z" />
<glyph unicode="&#xc7;" horiz-adv-x="1318" d="M545 -526q-74 0 -118 31.5t-44 76.5q0 33 19.5 54.5t48.5 21.5q31 0 48 -20.5t17 -51.5q0 -33 -24 -57q25 -10 51 -10q45 0 72.5 31.5t27.5 87t-30.5 88t-84.5 32.5q-37 0 -61 -8l-29 29l226 194q-250 18 -413 172t-163 422q0 313 212 540.5t523 227.5q203 0 342 -73 l103 79h30l-57 -456l-41 -4q-78 219 -163 306t-216 87q-197 0 -326.5 -224.5t-129.5 -523.5q0 -233 114.5 -357t276.5 -124q78 0 139 21l266 340l25 -9l-64 -344q-168 -80 -383 -84l-129 -108q78 -16 122 -64.5t44 -122.5q0 -86 -65.5 -143t-165.5 -57z" />
<glyph unicode="&#xc8;" horiz-adv-x="1292" d="M831 1436l-61 69l-67 76l-46.5 58.5t-40.5 58.5q-23 39 -13.5 80t46.5 61q35 20 72 6t53 -53q20 -49 84 -340zM-20 0l6 35l196 43l183 1149l-183 43l6 35h1026l-8 -396l-32 -12l-138 199q-55 80 -96 106.5t-133 28.5l-191 4l-86 -545h62q98 0 157.5 44t110.5 149l27 57 h37l-93 -571h-32l-11 63q-16 102 -62 144t-142 42h-64l-88 -546l270 6q82 2 133.5 28.5t114.5 92.5l213 223l29 -12l-105 -410h-1107z" />
<glyph unicode="&#xc9;" horiz-adv-x="1292" d="M719 1434l-25 18l46 95l51 101l40 75q25 44 46 69q31 41 73.5 55.5t75.5 -8.5q31 -20 29 -64t-37 -85q-27 -31 -72 -70l-119 -98zM-20 0l6 35l196 43l183 1149l-183 43l6 35h1026l-8 -396l-32 -12l-138 199q-55 80 -96 106.5t-133 28.5l-191 4l-86 -545h62q98 0 157.5 44 t110.5 149l27 57h37l-93 -571h-32l-11 63q-16 102 -62 144t-142 42h-64l-88 -546l270 6q82 2 133.5 28.5t114.5 92.5l213 223l29 -12l-105 -410h-1107z" />
<glyph unicode="&#xca;" horiz-adv-x="1292" d="M547 1434l-27 26l328 367h35l186 -371l-29 -22l-209 178zM-20 0l6 35l196 43l183 1149l-183 43l6 35h1026l-8 -396l-32 -12l-138 199q-55 80 -96 106.5t-133 28.5l-191 4l-86 -545h62q98 0 157.5 44t110.5 149l27 57h37l-93 -571h-32l-11 63q-16 102 -62 144t-142 42h-64 l-88 -546l270 6q82 2 133.5 28.5t114.5 92.5l213 223l29 -12l-105 -410h-1107z" />
<glyph unicode="&#xcb;" horiz-adv-x="1292" d="M981 1481q-51 0 -86 34.5t-35 88.5q0 55 39 96t94 41q51 0 86 -36t35 -89t-39 -94t-94 -41zM624.5 1481q-53.5 0 -88 34.5t-34.5 88.5q0 55 39 96t96 41q51 0 85 -36t34 -89t-39 -94t-92.5 -41zM-20 0l6 35l196 43l183 1149l-183 43l6 35h1026l-8 -396l-32 -12l-138 199 q-55 80 -96 106.5t-133 28.5l-191 4l-86 -545h62q98 0 157.5 44t110.5 149l27 57h37l-93 -571h-32l-11 63q-16 102 -62 144t-142 42h-64l-88 -546l270 6q82 2 133.5 28.5t114.5 92.5l213 223l29 -12l-105 -410h-1107z" />
<glyph unicode="&#xcc;" horiz-adv-x="823" d="M553 1436l-61 69l-67 76l-47 58.5t-40 58.5q-23 39 -13.5 80t46.5 61q35 20 71.5 6t53.5 -53q20 -49 84 -340zM2 0l6 35l201 43l182 1149l-186 43l4 35h639l-6 -35l-201 -43l-182 -1149l186 -43l-4 -35h-639z" />
<glyph unicode="&#xcd;" horiz-adv-x="823" d="M489 1434l-24 18l46 95l50 101l41 75q25 44 45 69q31 41 74 55.5t76 -8.5q31 -20 28.5 -64t-37.5 -85q-27 -31 -71 -70l-119 -98zM2 0l6 35l201 43l182 1149l-186 43l4 35h639l-6 -35l-201 -43l-182 -1149l186 -43l-4 -35h-639z" />
<glyph unicode="&#xce;" horiz-adv-x="823" d="M303 1434l-27 26l328 367h35l186 -371l-28 -22l-209 178zM2 0l6 35l201 43l182 1149l-186 43l4 35h639l-6 -35l-201 -43l-182 -1149l186 -43l-4 -35h-639z" />
<glyph unicode="&#xcf;" horiz-adv-x="823" d="M752 1481q-51 0 -86 34.5t-35 88.5q0 55 39 96t94 41q51 0 86 -36t35 -89t-39 -94t-94 -41zM395.5 1481q-53.5 0 -88.5 34.5t-35 88.5q0 55 39 96t97 41q51 0 84.5 -36t33.5 -89t-38.5 -94t-92 -41zM2 0l6 35l201 43l182 1149l-186 43l4 35h639l-6 -35l-201 -43 l-182 -1149l186 -43l-4 -35h-639z" />
<glyph unicode="&#xd0;" horiz-adv-x="1439" d="M-20 0l6 35l196 43l88 555h-174l8 82h179l82 512l-183 43l6 35h560q293 0 468 -146.5t175 -404.5q0 -324 -225.5 -539t-624.5 -215h-561zM432 72l131 4q143 6 254 69.5t175.5 167t96 225t31.5 257.5q0 197 -97 315.5t-294 122.5l-113 2l-81 -520h235l-8 -82h-240z" />
<glyph unicode="&#xd1;" horiz-adv-x="1499" d="M614 1464l-36 13q41 240 186 239q59 0 154.5 -39t136.5 -39q70 0 110 93l39 -13q-43 -240 -188 -239q-59 0 -155.5 38.5t-135.5 38.5q-70 0 -111 -92zM1090 -12l-127 211l-531 866h-14l-154 -965l160 -65l-4 -35h-418l4 35l178 65l176 1106l-151 64l6 35h377l123 -211 l424 -711h14l131 821l-160 66l4 35h418l-4 -35l-180 -66l-193 -1216h-79z" />
<glyph unicode="&#xd2;" horiz-adv-x="1427" d="M872 1436l-61 69l-67 76l-46.5 58.5t-40.5 58.5q-23 39 -13.5 80t46.5 61q35 20 72 6t53 -53q20 -49 84 -340zM657 -31q-252 0 -408.5 163t-156.5 425q0 317 202 547.5t501 230.5q250 0 406.5 -162.5t156.5 -422.5q0 -207 -89 -385.5t-252 -287t-360 -108.5zM655 29 q123 0 224.5 128t153.5 310t52 367q0 203 -75.5 322.5t-212.5 119.5q-125 0 -226.5 -128t-153.5 -310.5t-52 -366.5q0 -203 75.5 -322.5t214.5 -119.5z" />
<glyph unicode="&#xd3;" horiz-adv-x="1427" d="M782 1434l-24 18l46 95l50 101l41 75q25 44 45 69q31 41 74 55.5t76 -8.5q31 -20 28.5 -64t-37.5 -85q-27 -31 -71 -70l-119 -98zM657 -31q-252 0 -408.5 163t-156.5 425q0 317 202 547.5t501 230.5q250 0 406.5 -162.5t156.5 -422.5q0 -207 -89 -385.5t-252 -287 t-360 -108.5zM655 29q123 0 224.5 128t153.5 310t52 367q0 203 -75.5 322.5t-212.5 119.5q-125 0 -226.5 -128t-153.5 -310.5t-52 -366.5q0 -203 75.5 -322.5t214.5 -119.5z" />
<glyph unicode="&#xd4;" horiz-adv-x="1427" d="M582 1434l-27 26l328 367h35l186 -371l-29 -22l-209 178zM657 -31q-252 0 -408.5 163t-156.5 425q0 317 202 547.5t501 230.5q250 0 406.5 -162.5t156.5 -422.5q0 -207 -89 -385.5t-252 -287t-360 -108.5zM655 29q123 0 224.5 128t153.5 310t52 367q0 203 -75.5 322.5 t-212.5 119.5q-125 0 -226.5 -128t-153.5 -310.5t-52 -366.5q0 -203 75.5 -322.5t214.5 -119.5z" />
<glyph unicode="&#xd5;" horiz-adv-x="1427" d="M565 1464l-37 13q41 240 187 239q59 0 154.5 -39t136.5 -39q70 0 110 93l39 -13q-43 -240 -188 -239q-59 0 -155.5 38.5t-135.5 38.5q-70 0 -111 -92zM657 -31q-252 0 -408.5 163t-156.5 425q0 317 202 547.5t501 230.5q250 0 406.5 -162.5t156.5 -422.5 q0 -207 -89 -385.5t-252 -287t-360 -108.5zM655 29q123 0 224.5 128t153.5 310t52 367q0 203 -75.5 322.5t-212.5 119.5q-125 0 -226.5 -128t-153.5 -310.5t-52 -366.5q0 -203 75.5 -322.5t214.5 -119.5z" />
<glyph unicode="&#xd6;" horiz-adv-x="1427" d="M1012 1481q-51 0 -86 34.5t-35 88.5q0 55 39 96t94 41q51 0 86 -36t35 -89t-39 -94t-94 -41zM655.5 1481q-53.5 0 -88.5 34.5t-35 88.5q0 55 39 96t97 41q51 0 84.5 -36t33.5 -89t-38.5 -94t-92 -41zM657 -31q-252 0 -408.5 163t-156.5 425q0 317 202 547.5t501 230.5 q250 0 406.5 -162.5t156.5 -422.5q0 -207 -89 -385.5t-252 -287t-360 -108.5zM655 29q123 0 224.5 128t153.5 310t52 367q0 203 -75.5 322.5t-212.5 119.5q-125 0 -226.5 -128t-153.5 -310.5t-52 -366.5q0 -203 75.5 -322.5t214.5 -119.5z" />
<glyph unicode="&#xd7;" d="M596 616l225 -303l-88 -65l-217 303l-326 -264l-61 78l332 266l-225 303l86 65l219 -303l323 265l62 -78z" />
<glyph unicode="&#xd8;" horiz-adv-x="1427" d="M160 -74l-58 47l138 168q-147 160 -148 416q0 317 202 547.5t501 230.5q199 0 340 -106l137 168l57 -49l-137 -166q166 -160 166 -432q0 -207 -89 -385.5t-252 -287t-360 -108.5q-217 0 -362 121zM385 315l649 793q-74 168 -237 168q-125 0 -226.5 -128t-153.5 -310.5 t-52 -366.5q0 -86 20 -156zM655 29q123 0 224.5 128t153.5 310t52 367q0 102 -22 188l-657 -797q69 -196 249 -196z" />
<glyph unicode="&#xd9;" horiz-adv-x="1460" d="M971 1436l-62 69l-66 76l-47 58.5t-40 58.5q-23 39 -13.5 80t45.5 61q35 20 72 6t53 -53q20 -49 84 -340zM698 -33q-276 0 -396 134.5t-79 390.5l117 735l-182 43l6 35h635l-4 -35l-201 -43l-119 -752q-61 -391 285 -391q166 0 263 101.5t122 260.5l123 762l-146 62l6 35 h390l-7 -35l-165 -62l-127 -805q-31 -188 -173.5 -312t-347.5 -124z" />
<glyph unicode="&#xda;" horiz-adv-x="1460" d="M893 1434l-25 18l46 95l51 101l41 75q25 44 45 69q31 41 73.5 55.5t75.5 -8.5q31 -20 29 -64t-37 -85q-27 -31 -72 -70l-119 -98zM698 -33q-276 0 -396 134.5t-79 390.5l117 735l-182 43l6 35h635l-4 -35l-201 -43l-119 -752q-61 -391 285 -391q166 0 263 101.5 t122 260.5l123 762l-146 62l6 35h390l-7 -35l-165 -62l-127 -805q-31 -188 -173.5 -312t-347.5 -124z" />
<glyph unicode="&#xdb;" horiz-adv-x="1460" d="M713 1434l-27 26l328 367h35l186 -371l-29 -22l-209 178zM698 -33q-276 0 -396 134.5t-79 390.5l117 735l-182 43l6 35h635l-4 -35l-201 -43l-119 -752q-61 -391 285 -391q166 0 263 101.5t122 260.5l123 762l-146 62l6 35h390l-7 -35l-165 -62l-127 -805 q-31 -188 -173.5 -312t-347.5 -124z" />
<glyph unicode="&#xdc;" horiz-adv-x="1460" d="M1124 1481q-51 0 -85.5 34.5t-34.5 88.5q0 55 38.5 96t94.5 41q51 0 85.5 -36t34.5 -89t-39 -94t-94 -41zM768 1481q-53 0 -88 34.5t-35 88.5q0 55 39 96t96 41q51 0 85 -36t34 -89t-39 -94t-92 -41zM698 -33q-276 0 -396 134.5t-79 390.5l117 735l-182 43l6 35h635 l-4 -35l-201 -43l-119 -752q-61 -391 285 -391q166 0 263 101.5t122 260.5l123 762l-146 62l6 35h390l-7 -35l-165 -62l-127 -805q-31 -188 -173.5 -312t-347.5 -124z" />
<glyph unicode="&#xdd;" horiz-adv-x="1300" d="M807 1434l-25 18l46 95l51 101l41 75q25 44 45 69q31 41 73.5 55.5t75.5 -8.5q31 -20 29 -64t-37 -85q-27 -31 -72 -70l-119 -98zM248 0l6 35l201 51l77 496l-278 628l-158 60l6 35h611l-6 -35l-168 -49l213 -553l372 544l-133 60l6 33h426l-6 -37l-164 -62l-467 -608 l-81 -512l186 -51l-4 -35h-639z" />
<glyph unicode="&#xde;" horiz-adv-x="1224" d="M-20 0l6 35l196 43l183 1149l-185 43l6 35h643l-4 -35l-211 -43l-32 -211q90 14 166 14q211 0 322.5 -97t111.5 -243q0 -184 -145.5 -302t-362.5 -118q-102 0 -209 19l-33 -211l197 -43l-6 -35h-643zM586 348q160 2 247 98.5t87 251.5q0 117 -62.5 187.5t-177.5 72.5 q-94 0 -109 -2l-96 -606q19 -2 111 -2z" />
<glyph unicode="&#xdf;" horiz-adv-x="1042" d="M-145 -449q-80 0 -130.5 38t-50.5 92q0 47 32 78.5t83 31.5q121 0 191 -139q53 88 86 328l129 931q23 170 70.5 283t152.5 209q129 115 291 115q152 0 236.5 -77t84.5 -198q0 -127 -93 -234.5t-269 -217.5q328 -264 327 -490q0 -131 -89 -227.5t-224 -96.5 q-127 0 -203 53.5t-76 139.5q0 53 31 86t76 33q66 0 95.5 -58.5t2.5 -152.5q47 -31 100.5 -31t84 36t30.5 99q0 211 -342 500v20q342 270 342 551q0 199 -145 199q-201 0 -268 -477l-107 -770q-29 -207 -79 -332t-140 -217q-102 -105 -229 -105z" />
<glyph unicode="&#xe0;" horiz-adv-x="1011" d="M666 1055l-62 69l-66 76l-47 58.5t-40 58.5q-23 39 -14 80t46 61q35 20 72 6t53 -53q20 -49 84 -340zM307 -23q-111 0 -186.5 88.5t-75.5 235.5q0 154 85 305.5t227.5 249.5t293.5 98q80 0 158 -39l109 60l14 -8l-135 -768q-10 -63 20.5 -85t165.5 -26l4 -14 q-152 -96 -276.5 -96.5t-128.5 155.5l-11 6q-129 -162 -264 -162zM426 125q74 0 168 78l92 536q-76 109 -172 109q-68 0 -125 -77t-89 -189.5t-32 -227.5q0 -109 42 -169t116 -60z" />
<glyph unicode="&#xe1;" horiz-adv-x="1011" d="M559 1053l-24 18l46 95l50 101l41 75q25 44 45 69q31 41 74 55.5t75 -8.5q31 -20 29 -64t-37 -85q-27 -31 -72 -70l-118 -98zM307 -23q-111 0 -186.5 88.5t-75.5 235.5q0 154 85 305.5t227.5 249.5t293.5 98q80 0 158 -39l109 60l14 -8l-135 -768q-10 -63 20.5 -85 t165.5 -26l4 -14q-152 -96 -276.5 -96.5t-128.5 155.5l-11 6q-129 -162 -264 -162zM426 125q74 0 168 78l92 536q-76 109 -172 109q-68 0 -125 -77t-89 -189.5t-32 -227.5q0 -109 42 -169t116 -60z" />
<glyph unicode="&#xe2;" horiz-adv-x="1011" d="M410 1053l-27 26l328 367h34l187 -371l-29 -22l-209 178zM307 -23q-111 0 -186.5 88.5t-75.5 235.5q0 154 85 305.5t227.5 249.5t293.5 98q80 0 158 -39l109 60l14 -8l-135 -768q-10 -63 20.5 -85t165.5 -26l4 -14q-152 -96 -276.5 -96.5t-128.5 155.5l-11 6 q-129 -162 -264 -162zM426 125q74 0 168 78l92 536q-76 109 -172 109q-68 0 -125 -77t-89 -189.5t-32 -227.5q0 -109 42 -169t116 -60z" />
<glyph unicode="&#xe3;" horiz-adv-x="1011" d="M391 1083l-37 13q41 240 187 239q59 0 154.5 -39t135.5 -39q70 0 111 93l39 -13q-43 -240 -188 -239q-59 0 -155.5 39t-135.5 39q-70 -1 -111 -93zM307 -23q-111 0 -186.5 88.5t-75.5 235.5q0 154 85 305.5t227.5 249.5t293.5 98q80 0 158 -39l109 60l14 -8l-135 -768 q-10 -63 20.5 -85t165.5 -26l4 -14q-152 -96 -276.5 -96.5t-128.5 155.5l-11 6q-129 -162 -264 -162zM426 125q74 0 168 78l92 536q-76 109 -172 109q-68 0 -125 -77t-89 -189.5t-32 -227.5q0 -109 42 -169t116 -60z" />
<glyph unicode="&#xe4;" horiz-adv-x="1011" d="M836 1100q-51 0 -86 34.5t-35 88.5q0 55 39 96t94 41q51 0 86 -36t35 -89t-39 -94t-94 -41zM479 1100q-53 0 -88 34.5t-35 88.5q0 55 39 96t97 41q51 0 84.5 -36t33.5 -89t-39 -94t-92 -41zM307 -23q-111 0 -186.5 88.5t-75.5 235.5q0 154 85 305.5t227.5 249.5t293.5 98 q80 0 158 -39l109 60l14 -8l-135 -768q-10 -63 20.5 -85t165.5 -26l4 -14q-152 -96 -276.5 -96.5t-128.5 155.5l-11 6q-129 -162 -264 -162zM426 125q74 0 168 78l92 536q-76 109 -172 109q-68 0 -125 -77t-89 -189.5t-32 -227.5q0 -109 42 -169t116 -60z" />
<glyph unicode="&#xe5;" horiz-adv-x="1011" d="M643 1044q-80 0 -127 47.5t-47 118.5q0 84 60.5 149.5t158.5 65.5q80 0 127 -47t47 -118q0 -86 -60.5 -151t-158.5 -65zM307 -23q-111 0 -186.5 88.5t-75.5 235.5q0 154 85 305.5t227.5 249.5t293.5 98q80 0 158 -39l109 60l14 -8l-135 -768q-10 -63 20.5 -85t165.5 -26 l4 -14q-152 -96 -276.5 -96.5t-128.5 155.5l-11 6q-129 -162 -264 -162zM649 1087q49 0 74 58.5t25 128.5q0 109 -66 108q-49 0 -73.5 -58t-24.5 -128q-1 -109 65 -109zM426 125q74 0 168 78l92 536q-76 109 -172 109q-68 0 -125 -77t-89 -189.5t-32 -227.5q0 -109 42 -169 t116 -60z" />
<glyph unicode="&#xe6;" horiz-adv-x="1384" d="M604 166h-10q-123 -188 -289 -189q-117 0 -192.5 80t-75.5 217q0 147 88 306t234.5 266.5t297.5 107.5q125 0 197 -77q123 78 260 77q113 0 179.5 -57t66.5 -141q0 -125 -136.5 -215t-430.5 -86q-29 -342 235 -342q125 0 250 104l14 -18q-55 -98 -158.5 -160t-218.5 -62 q-223 1 -311 189zM799 510q180 -6 270 82t90 199q0 45 -21.5 71.5t-62.5 26.5q-94 0 -172.5 -114.5t-103.5 -264.5zM705 739q-80 113 -164 113q-119 0 -199 -168t-80 -354q0 -98 43 -150.5t117 -52.5q80 0 166 82q-20 61 -21 133q1 221 138 397z" />
<glyph unicode="&#xe7;" horiz-adv-x="847" d="M309 -526q-74 0 -118 31.5t-44 76.5q0 33 18.5 54.5t49.5 21.5t48.5 -20.5t17.5 -51.5q0 -35 -27 -57q25 -10 53 -10q43 0 71 31.5t28 87t-31 88t-82 32.5q-37 0 -64 -8l-28 29l231 198h-20q-166 2 -261.5 107.5t-95.5 265.5q0 240 163 422t378 182q115 0 180.5 -55 t65.5 -129q0 -55 -32 -92t-81 -37q-59 0 -94 39t-35 104q0 61 23 119q-133 -4 -241 -160.5t-108 -355.5q0 -137 64.5 -204.5t171.5 -67.5q125 0 246 96l16 -18q-84 -141 -233 -195l-164 -137q78 -16 122 -64.5t44 -122.5q0 -86 -66 -143t-166 -57z" />
<glyph unicode="&#xe8;" horiz-adv-x="868" d="M586 1055l-62 69l-66 76l-47 58.5t-40 58.5q-23 39 -13.5 80t45.5 61q35 20 72 6t53 -53q20 -49 84 -340zM276 455q-29 -342 236 -342q125 0 250 104l14 -18q-55 -98 -158.5 -160t-218.5 -62q-166 0 -258 104.5t-92 260.5q0 238 162 425t387 187q113 0 179.5 -57 t66.5 -141q0 -125 -136.5 -215t-431.5 -86zM283 510q180 -6 270 82t90 199q0 45 -21.5 71.5t-62.5 26.5q-94 0 -172.5 -114.5t-103.5 -264.5z" />
<glyph unicode="&#xe9;" horiz-adv-x="868" d="M487 1053l-24 18l46 95l50 101l41 75q25 44 45 69q31 41 74 55.5t76 -8.5q31 -20 28.5 -64t-37.5 -85q-27 -31 -71 -70l-119 -98zM276 455q-29 -342 236 -342q125 0 250 104l14 -18q-55 -98 -158.5 -160t-218.5 -62q-166 0 -258 104.5t-92 260.5q0 238 162 425t387 187 q113 0 179.5 -57t66.5 -141q0 -125 -136.5 -215t-431.5 -86zM283 510q180 -6 270 82t90 199q0 45 -21.5 71.5t-62.5 26.5q-94 0 -172.5 -114.5t-103.5 -264.5z" />
<glyph unicode="&#xea;" horiz-adv-x="868" d="M324 1053l-27 26l328 367h34l187 -371l-29 -22l-209 178zM276 455q-29 -342 236 -342q125 0 250 104l14 -18q-55 -98 -158.5 -160t-218.5 -62q-166 0 -258 104.5t-92 260.5q0 238 162 425t387 187q113 0 179.5 -57t66.5 -141q0 -125 -136.5 -215t-431.5 -86zM283 510 q180 -6 270 82t90 199q0 45 -21.5 71.5t-62.5 26.5q-94 0 -172.5 -114.5t-103.5 -264.5z" />
<glyph unicode="&#xeb;" horiz-adv-x="868" d="M750 1100q-51 0 -86 34.5t-35 88.5q0 55 39 96t94 41q51 0 86 -36t35 -89t-39 -94t-94 -41zM393 1100q-53 0 -88 34.5t-35 88.5q0 55 39 96t97 41q51 0 84.5 -36t33.5 -89t-39 -94t-92 -41zM276 455q-29 -342 236 -342q125 0 250 104l14 -18q-55 -98 -158.5 -160 t-218.5 -62q-166 0 -258 104.5t-92 260.5q0 238 162 425t387 187q113 0 179.5 -57t66.5 -141q0 -125 -136.5 -215t-431.5 -86zM283 510q180 -6 270 82t90 199q0 45 -21.5 71.5t-62.5 26.5q-94 0 -172.5 -114.5t-103.5 -264.5z" />
<glyph unicode="&#xec;" horiz-adv-x="563" d="M397 1055l-61 69l-67 76l-46.5 58.5t-40.5 58.5q-23 39 -13.5 80t46.5 61q35 20 72 6t53 -53q20 -49 84 -340zM242 -23q-164 0 -125 197l106 586l-133 84v20l369 103l8 -6l-137 -760q-12 -68 20.5 -89.5t167.5 -23.5l4 -14q-155 -97 -280 -97z" />
<glyph unicode="&#xed;" horiz-adv-x="563" d="M262 1053l-24 18l46 95l50 101l41 75q25 44 45 69q31 41 74 55.5t75 -8.5q31 -20 29 -64t-37 -85q-27 -31 -72 -70l-118 -98zM242 -23q-164 0 -125 197l106 586l-133 84v20l369 103l8 -6l-137 -760q-12 -68 20.5 -89.5t167.5 -23.5l4 -14q-155 -97 -280 -97z" />
<glyph unicode="&#xee;" horiz-adv-x="563" d="M102 1053l-26 26l327 367h35l187 -371l-29 -22l-209 178zM242 -23q-164 0 -125 197l106 586l-133 84v20l369 103l8 -6l-137 -760q-12 -68 20.5 -89.5t167.5 -23.5l4 -14q-155 -97 -280 -97z" />
<glyph unicode="&#xef;" horiz-adv-x="563" d="M547 1100q-51 0 -86 34.5t-35 88.5q0 55 39 96t94 41q51 0 86 -36t35 -89t-39 -94t-94 -41zM190.5 1100q-53.5 0 -88 34.5t-34.5 88.5q0 55 38.5 96t96.5 41q51 0 85 -36t34 -89t-39 -94t-92.5 -41zM242 -23q-164 0 -125 197l106 586l-133 84v20l369 103l8 -6l-137 -760 q-12 -68 20.5 -89.5t167.5 -23.5l4 -14q-155 -97 -280 -97z" />
<glyph unicode="&#xf0;" horiz-adv-x="974" d="M377 -23q-139 0 -233.5 94.5t-94.5 258.5q0 238 181.5 426t408.5 196q-55 135 -139 230l-45 -33l-90 -68l-48 -32l-45 65l172 127q-96 96 -270 201l14 33q213 -57 361 -156l178 131l45 -66l-151 -112q313 -240 313 -619q0 -137 -52.5 -271t-136.5 -222 q-167 -183 -368 -183zM446 68q109 0 185 157.5t76 358.5q0 129 -48.5 200.5t-119.5 71.5q-109 0 -184.5 -158.5t-75.5 -357.5q0 -131 46.5 -201.5t120.5 -70.5z" />
<glyph unicode="&#xf1;" horiz-adv-x="1077" d="M346 1083l-37 13q41 240 187 239q59 0 154 -39t136 -39q70 0 111 93l39 -13q-43 -240 -188 -239q-59 0 -155.5 39t-135.5 39q-70 -1 -111 -93zM786 -23q-131 0 -131 121q0 47 15 109l67 354q25 111 1.5 170.5t-111.5 59.5q-82 0 -207 -70l-121 -721h-207l127 760l-129 84 v20l348 103l8 -6l-28 -191l8 -6q209 190 352 190q119 0 159 -91t11 -245l-80 -419q-12 -66 22 -87.5t165 -23.5l4 -14q-152 -97 -273 -97z" />
<glyph unicode="&#xf2;" horiz-adv-x="989" d="M604 1055l-61 69l-67 76l-47 58.5t-40 58.5q-23 39 -13.5 80t46.5 61q35 20 71.5 6t53.5 -53q20 -49 84 -340zM410 -23q-164 0 -259.5 98.5t-95.5 278.5q0 229 153.5 414.5t375.5 185.5q164 0 257 -97t93 -279q0 -231 -151.5 -416t-372.5 -185zM457 49q80 0 139 91 t85 210t26 234q0 139 -45.5 219t-126.5 80q-80 0 -139.5 -91.5t-85 -209t-25.5 -232.5q0 -141 44 -221t128 -80z" />
<glyph unicode="&#xf3;" horiz-adv-x="989" d="M524 1053l-24 18l46 95l50 101l41 75q25 44 45 69q31 41 74 55.5t75 -8.5q31 -20 29 -64t-37 -85q-27 -31 -71 -70l-119 -98zM410 -23q-164 0 -259.5 98.5t-95.5 278.5q0 229 153.5 414.5t375.5 185.5q164 0 257 -97t93 -279q0 -231 -151.5 -416t-372.5 -185zM457 49 q80 0 139 91t85 210t26 234q0 139 -45.5 219t-126.5 80q-80 0 -139.5 -91.5t-85 -209t-25.5 -232.5q0 -141 44 -221t128 -80z" />
<glyph unicode="&#xf4;" horiz-adv-x="989" d="M334 1053l-27 26l328 367h35l186 -371l-29 -22l-209 178zM410 -23q-164 0 -259.5 98.5t-95.5 278.5q0 229 153.5 414.5t375.5 185.5q164 0 257 -97t93 -279q0 -231 -151.5 -416t-372.5 -185zM457 49q80 0 139 91t85 210t26 234q0 139 -45.5 219t-126.5 80 q-80 0 -139.5 -91.5t-85 -209t-25.5 -232.5q0 -141 44 -221t128 -80z" />
<glyph unicode="&#xf5;" horiz-adv-x="989" d="M338 1083l-37 13q41 240 186 239q59 0 154.5 -39t136.5 -39q70 0 111 93l39 -13q-43 -240 -189 -239q-59 0 -155.5 39t-134.5 39q-70 -1 -111 -93zM410 -23q-164 0 -259.5 98.5t-95.5 278.5q0 229 153.5 414.5t375.5 185.5q164 0 257 -97t93 -279q0 -231 -151.5 -416 t-372.5 -185zM457 49q80 0 139 91t85 210t26 234q0 139 -45.5 219t-126.5 80q-80 0 -139.5 -91.5t-85 -209t-25.5 -232.5q0 -141 44 -221t128 -80z" />
<glyph unicode="&#xf6;" horiz-adv-x="989" d="M797 1100q-51 0 -86 34.5t-35 88.5q0 55 39 96t94 41q51 0 86 -36t35 -89t-39 -94t-94 -41zM440.5 1100q-53.5 0 -88.5 34.5t-35 88.5q0 55 39 96t97 41q51 0 84.5 -36t33.5 -89t-38.5 -94t-92 -41zM410 -23q-164 0 -259.5 98.5t-95.5 278.5q0 229 153.5 414.5 t375.5 185.5q164 0 257 -97t93 -279q0 -231 -151.5 -416t-372.5 -185zM457 49q80 0 139 91t85 210t26 234q0 139 -45.5 219t-126.5 80q-80 0 -139.5 -91.5t-85 -209t-25.5 -232.5q0 -141 44 -221t128 -80z" />
<glyph unicode="&#xf7;" d="M581.5 827q-51.5 0 -87 35t-35.5 86t35.5 87t87 36t86 -36t34.5 -87t-34.5 -86t-86 -35zM948 575h-856l17 105h856zM479 184q-53 0 -88 35t-35 88q0 51 36 86t87 35t86 -35t35 -86t-35 -87t-86 -36z" />
<glyph unicode="&#xf8;" horiz-adv-x="989" d="M109 -84l-56 47l92 117q-90 100 -90 274q0 229 153.5 414.5t375.5 185.5q127 0 209 -57l92 115l55 -49q-90 -113 -90 -115q84 -100 84 -270q0 -231 -151.5 -416t-372.5 -185q-123 0 -207 56zM289 262l393 496q-39 125 -147 125q-80 0 -140.5 -91.5t-86 -209t-25.5 -230.5 q0 -47 6 -90zM455 49q61 0 111 52.5t80 134t46.5 172t16.5 172.5q0 43 -7 84l-393 -496q42 -119 146 -119z" />
<glyph unicode="&#xf9;" horiz-adv-x="1093" d="M627 1055l-62 69l-66 76l-47 58.5t-40 58.5q-23 39 -13.5 80t45.5 61q35 20 72 6t53 -53q20 -49 84 -340zM311 -23q-123 0 -165 93.5t-13 242.5l84 447l-131 84v20l363 103l8 -6l-111 -590q-25 -109 -1 -167.5t112 -58.5q92 0 213 72l98 543l-133 84v20l364 103l9 -6 l-138 -762q-12 -66 20 -86.5t167 -24.5l4 -14q-152 -96 -268 -97q-145 0 -129 183l-11 6q-195 -189 -342 -189z" />
<glyph unicode="&#xfa;" horiz-adv-x="1093" d="M547 1053l-25 18l46 95l50 101l41 75q25 44 46 69q31 41 73.5 55.5t75.5 -8.5q31 -20 29 -64t-37 -85q-27 -31 -72 -70l-119 -98zM311 -23q-123 0 -165 93.5t-13 242.5l84 447l-131 84v20l363 103l8 -6l-111 -590q-25 -109 -1 -167.5t112 -58.5q92 0 213 72l98 543 l-133 84v20l364 103l9 -6l-138 -762q-12 -66 20 -86.5t167 -24.5l4 -14q-152 -96 -268 -97q-145 0 -129 183l-11 6q-195 -189 -342 -189z" />
<glyph unicode="&#xfb;" horiz-adv-x="1093" d="M369 1053l-27 26l328 367h35l186 -371l-29 -22l-209 178zM311 -23q-123 0 -165 93.5t-13 242.5l84 447l-131 84v20l363 103l8 -6l-111 -590q-25 -109 -1 -167.5t112 -58.5q92 0 213 72l98 543l-133 84v20l364 103l9 -6l-138 -762q-12 -66 20 -86.5t167 -24.5l4 -14 q-152 -96 -268 -97q-145 0 -129 183l-11 6q-195 -189 -342 -189z" />
<glyph unicode="&#xfc;" horiz-adv-x="1093" d="M799 1100q-51 0 -86 34.5t-35 88.5q0 55 39 96t94 41q51 0 86 -36t35 -89t-39 -94t-94 -41zM442.5 1100q-53.5 0 -88.5 34.5t-35 88.5q0 55 39 96t97 41q51 0 84.5 -36t33.5 -89t-38.5 -94t-92 -41zM311 -23q-123 0 -165 93.5t-13 242.5l84 447l-131 84v20l363 103l8 -6 l-111 -590q-25 -109 -1 -167.5t112 -58.5q92 0 213 72l98 543l-133 84v20l364 103l9 -6l-138 -762q-12 -66 20 -86.5t167 -24.5l4 -14q-152 -96 -268 -97q-145 0 -129 183l-11 6q-195 -189 -342 -189z" />
<glyph unicode="&#xfd;" horiz-adv-x="983" d="M563 1053l-24 18l46 95l50 101l41 75q25 44 45 69q31 41 74 55.5t75 -8.5q31 -20 29 -64t-37 -85q-27 -31 -71 -70l-119 -98zM139 -449q-78 0 -126 49.5t-48 118.5q0 53 30 90t81 37q63 0 99 -58t32 -146q141 78 262 301q-94 475 -215 770q-31 74 -82 73q-43 0 -127 -30 l-12 16q147 182 256 182q51 0 84 -24.5t59 -77.5q41 -76 90 -261t80 -386h10q119 381 185 766h16l188 -90l-108 -253q-92 -216 -131 -300l-117 -242q-78 -158 -143.5 -254t-130.5 -160q-126 -121 -232 -121z" />
<glyph unicode="&#xfe;" horiz-adv-x="1001" d="M-143 -426l6 27l145 63l279 1651l-131 84v20l362 103l8 -6l-114 -691l6 -8q143 137 278 137q113 0 187.5 -88t74.5 -239.5t-87 -303t-227 -249t-284 -97.5q-43 0 -90 11l-55 -324l156 -63l-4 -27h-510zM481 86q72 0 132.5 76t91 186.5t30.5 224.5q0 113 -44 174.5 t-128 61.5q-82 0 -162 -51l-98 -565q78 -107 178 -107z" />
<glyph unicode="&#xff;" horiz-adv-x="983" d="M762 1100q-51 0 -86 34.5t-35 88.5q0 55 39 96t94 41q51 0 86 -36t35 -89t-39 -94t-94 -41zM405.5 1100q-53.5 0 -88 34.5t-34.5 88.5q0 55 38.5 96t96.5 41q51 0 85 -36t34 -89t-39 -94t-92.5 -41zM139 -449q-78 0 -126 49.5t-48 118.5q0 53 30 90t81 37q63 0 99 -58 t32 -146q141 78 262 301q-94 475 -215 770q-31 74 -82 73q-43 0 -127 -30l-12 16q147 182 256 182q51 0 84 -24.5t59 -77.5q41 -76 90 -261t80 -386h10q119 381 185 766h16l188 -90l-108 -253q-92 -216 -131 -300l-117 -242q-78 -158 -143.5 -254t-130.5 -160 q-126 -121 -232 -121z" />
<glyph unicode="&#x152;" horiz-adv-x="1972" d="M731 0q-293 0 -468 146.5t-175 404.5q0 326 225.5 540t624.5 214h954l-8 -396l-31 -12l-139 199q-55 80 -96 106.5t-133 28.5l-189 4l-88 -545h62q98 0 157.5 43t110.5 150l27 57h37l-91 -571h-34l-11 63q-14 100 -60 143t-142 43h-66l-88 -546l270 6q82 2 134.5 28.5 t113.5 92.5l215 223l27 -12l-103 -410h-1036zM748 72l112 -2l184 1163l-129 -4q-190 -6 -320 -117t-183.5 -264.5t-53.5 -335.5q0 -199 96.5 -317.5t293.5 -122.5z" />
<glyph unicode="&#x153;" horiz-adv-x="1505" d="M864 772q158 182 375 182q109 0 176.5 -57t67.5 -141q0 -125 -136.5 -215t-431.5 -86q-29 -342 236 -342q125 0 250 104l14 -18q-55 -98 -158.5 -160t-214.5 -62q-205 0 -290 168q-141 -168 -346 -168q-162 0 -256.5 98.5t-94.5 278.5q0 229 153.5 414.5t373.5 185.5 q206 0 282 -182zM922 510q180 -6 270 82t90 199q0 45 -21.5 71.5t-62.5 26.5q-94 0 -172.5 -114.5t-103.5 -264.5zM457 49q80 0 139 91t85 210t26 234q0 139 -45.5 219t-126.5 80q-80 0 -139.5 -91.5t-85 -209t-25.5 -232.5q0 -141 44 -221t128 -80z" />
<glyph unicode="&#x178;" horiz-adv-x="1300" d="M1040 1481q-51 0 -85.5 34.5t-34.5 88.5q0 55 38.5 96t94.5 41q51 0 86 -36t35 -89t-39.5 -94t-94.5 -41zM684 1481q-53 0 -88 34.5t-35 88.5q0 55 39 96t96 41q51 0 85 -36t34 -89t-39 -94t-92 -41zM248 0l6 35l201 51l77 496l-278 628l-158 60l6 35h611l-6 -35 l-168 -49l213 -553l372 544l-133 60l6 33h426l-6 -37l-164 -62l-467 -608l-81 -512l186 -51l-4 -35h-639z" />
<glyph unicode="&#x2c6;" horiz-adv-x="641" d="M145 1053l-26 26l327 367h35l187 -371l-29 -22l-209 178z" />
<glyph unicode="&#x2dc;" horiz-adv-x="706" d="M180 1083l-37 13q41 240 187 239q59 0 154.5 -39t136.5 -39q70 0 110 93l39 -13q-43 -240 -188 -239q-59 0 -155.5 39t-135.5 39q-70 -1 -111 -93z" />
<glyph unicode="&#x3bc;" d="M596 616l225 -303l-88 -65l-217 303l-326 -264l-61 78l332 266l-225 303l86 65l219 -303l323 265l62 -78z" />
<glyph unicode="&#x2000;" horiz-adv-x="925" />
<glyph unicode="&#x2001;" horiz-adv-x="1851" />
<glyph unicode="&#x2002;" horiz-adv-x="925" />
<glyph unicode="&#x2003;" horiz-adv-x="1851" />
<glyph unicode="&#x2004;" horiz-adv-x="616" />
<glyph unicode="&#x2005;" horiz-adv-x="462" />
<glyph unicode="&#x2006;" horiz-adv-x="307" />
<glyph unicode="&#x2007;" horiz-adv-x="307" />
<glyph unicode="&#x2008;" horiz-adv-x="231" />
<glyph unicode="&#x2009;" horiz-adv-x="368" />
<glyph unicode="&#x200a;" horiz-adv-x="102" />
<glyph unicode="&#x2010;" horiz-adv-x="684" d="M70 416l24 141h484l-23 -141h-485z" />
<glyph unicode="&#x2011;" horiz-adv-x="684" d="M70 416l24 141h484l-23 -141h-485z" />
<glyph unicode="&#x2012;" horiz-adv-x="684" d="M70 416l24 141h484l-23 -141h-485z" />
<glyph unicode="&#x2013;" horiz-adv-x="1103" d="M80 471l12 80h905l-14 -80h-903z" />
<glyph unicode="&#x2014;" horiz-adv-x="1615" d="M80 471l12 80h1417l-14 -80h-1415z" />
<glyph unicode="&#x2018;" horiz-adv-x="436" d="M295 842q-70 0 -112 51t-42 133q0 201 267 324l22 -27q-154 -133 -184 -244l4 -2l37 10q25 4 35 5q47 0 77.5 -33t30.5 -82q0 -55 -39 -95t-96 -40z" />
<glyph unicode="&#x2019;" horiz-adv-x="436" d="M186 827l-20 27q152 133 184 242l-4 4l-39 -10q-10 -4 -33 -5q-47 0 -77.5 33t-30.5 80q0 55 40 96t95 41q70 0 112 -51t42 -133q-1 -201 -269 -324z" />
<glyph unicode="&#x201a;" horiz-adv-x="468" d="M61 -274l-20 26q154 133 184 244l-4 4l-39 -10q-10 -4 -32 -4q-47 0 -78 32.5t-31 79.5q0 55 40 96.5t95 41.5q70 0 112 -51.5t42 -133.5q-1 -202 -269 -325z" />
<glyph unicode="&#x201c;" horiz-adv-x="761" d="M629 864q-68 0 -108 49.5t-40 126.5q0 190 256 310l21 -25q-145 -125 -176 -233l4 -2l37 10q20 4 30 4q45 0 74 -31t29 -78q0 -53 -37 -92t-90 -39zM289 864q-68 0 -108 49.5t-40 126.5q0 190 256 310l19 -25q-147 -129 -174 -233l2 -2l37 10q20 4 32 4q45 0 74 -31 t29 -78q0 -53 -37 -92t-90 -39z" />
<glyph unicode="&#x201d;" horiz-adv-x="763" d="M528 850l-20 27q145 125 174 231l-2 4l-37 -12q-20 -4 -33 -4q-43 0 -72.5 31.5t-29.5 76.5q0 53 37 92t92 39q68 0 106.5 -48t38.5 -128q0 -190 -254 -309zM186 850l-18 27q145 125 174 231l-2 4l-37 -12q-20 -4 -33 -4q-43 0 -72.5 31.5t-29.5 76.5q0 53 37 92t92 39 q66 0 105.5 -49t39.5 -127q0 -190 -256 -309z" />
<glyph unicode="&#x201e;" horiz-adv-x="784" d="M401 -250l-20 25q145 125 176 233l-2 4l-39 -12q-20 -4 -31 -4q-43 0 -72.5 31.5t-29.5 76.5q0 53 37 92.5t90 39.5q68 0 107.5 -48.5t39.5 -128.5q0 -190 -256 -309zM61 -250l-20 25q145 125 176 233l-4 4l-37 -12q-20 -4 -33 -4q-43 0 -72.5 31.5t-29.5 76.5 q0 53 37 92.5t92 39.5q68 0 106.5 -48.5t38.5 -128.5q0 -192 -254 -309z" />
<glyph unicode="&#x2022;" horiz-adv-x="970" d="M500 348q-127 0 -216 89t-89 216t89 215t216 88t215 -89t88 -214q0 -127 -88 -216t-215 -89z" />
<glyph unicode="&#x2026;" horiz-adv-x="1316" d="M1059 -33q-57 0 -96 40t-39 95.5t38.5 94.5t96.5 39q55 0 94 -39t39 -94.5t-39 -95.5t-94 -40zM618.5 -33q-55.5 0 -95.5 40t-40 95.5t40 94.5t95.5 39t94.5 -39t39 -94.5t-39 -95.5t-94.5 -40zM180 -33q-57 0 -96 40t-39 95.5t39 94.5t96 39q55 0 94 -39t39 -94.5 t-39 -95.5t-94 -40z" />
<glyph unicode="&#x202f;" horiz-adv-x="368" />
<glyph unicode="&#x2039;" horiz-adv-x="614" d="M375 61l-334 390l4 20l453 387l41 -45l-289 -350l174 -365z" />
<glyph unicode="&#x203a;" horiz-adv-x="614" d="M80 61l-39 45l287 351l-172 364l49 37l332 -389l-5 -20z" />
<glyph unicode="&#x205f;" horiz-adv-x="462" />
<glyph unicode="&#x2122;" horiz-adv-x="1089" d="M584 930v20l49 25v289l-49 18v23h178l22 -64l70 -182h4l68 182l20 64h178v-23l-53 -18v-295l53 -19v-20h-192v20l45 19v286h-8l-123 -325h-37l-131 325h-8v-280l51 -25v-20h-137zM240 930v20l53 19v307h-19q-33 -2 -61 -41l-51 -70l-17 2l19 138h354l14 -138l-16 -2 l-49 70q-31 39 -61 41h-17v-307l51 -19v-20h-200z" />
<glyph unicode="&#xe000;" horiz-adv-x="960" d="M0 960h960v-960h-960v960z" />
<glyph unicode="&#xfb01;" horiz-adv-x="1124" d="M-72 -449q-80 0 -130 38t-50 92q0 47 33 78.5t84 31.5q117 0 190 -139q49 84 84 328l117 833h-217l6 37l229 80l7 41q47 291 215 436q125 111 301 111q141 0 214.5 -64.5t73.5 -138.5q0 -49 -32.5 -82t-83.5 -33q-68 0 -114 62.5t-46 179.5q-16 8 -39 8 q-113 0 -181.5 -116.5t-103.5 -358.5l-8 -57h391l152 49l8 -6l-137 -760q-12 -68 20.5 -89.5t169.5 -23.5l4 -14q-158 -96 -280 -97q-164 0 -127 197l119 639h-334l-84 -608q-29 -207 -79 -332t-142 -217q-103 -105 -230 -105z" />
<glyph unicode="&#xfb02;" horiz-adv-x="1124" d="M-72 -449q-80 0 -130 38t-50 92q0 47 33 78.5t84 31.5q117 0 190 -139q49 84 84 328l117 833h-217l6 37l229 80l7 41q45 285 215 430q129 117 295 117q92 0 159 -41l154 45l8 -6l-217 -1315q-12 -68 19.5 -89.5t166.5 -23.5l4 -14q-152 -96 -278 -97q-158 0 -125 197 l106 639h-325l-84 -608q-29 -207 -79 -332t-142 -217q-103 -105 -230 -105zM477 918h330l53 319q-96 49 -96 199q-18 6 -27 6q-94 -6 -154.5 -109.5t-97.5 -357.5z" />
<glyph unicode="&#xfb03;" horiz-adv-x="1816" d="M1640 1112q-45 0 -76.5 33t-31.5 86q0 72 44 128t109 56q45 0 75 -31.5t30 -87.5q0 -70 -42 -127t-108 -57zM1495 -23q-132 0 -133 129q0 30 8 68l106 586l-133 84v20l369 103l8 -6l-137 -760q-3 -18 -4 -34q0 -40 24 -55q33 -22 168 -24l4 -14q-155 -97 -280 -97z M555 -449q-80 0 -130 38t-50 92q0 47 33 78.5t84 31.5q119 0 188 -139q51 82 86 328l117 833h-217l6 37l229 80l7 41q43 270 217 426q133 121 288 121q82 0 135.5 -40t53.5 -96q0 -51 -33 -83.5t-88 -32.5t-110.5 43t-90.5 123q-61 -51 -98 -145.5t-70 -311.5l-8 -57h250 l-18 -105h-246l-84 -608q-29 -207 -79 -332t-142 -217q-103 -105 -230 -105zM-72 -449q-80 0 -130 38t-50 92q0 47 33 78.5t84 31.5q119 0 188 -139q51 82 86 328l117 833h-217l6 37l229 80l7 41q43 270 217 426q133 121 288 121q82 0 135.5 -40t53.5 -96q0 -51 -33 -83.5 t-88 -32.5t-110.5 43t-90.5 123q-61 -51 -98 -145.5t-70 -311.5l-8 -57h250l-18 -105h-246l-84 -608q-29 -207 -79 -332t-142 -217q-103 -105 -230 -105z" />
<glyph unicode="&#xfb04;" horiz-adv-x="1804" d="M1489 -23q-133 0 -133 136q0 28 6 61l192 1141l-131 84v20l362 103l9 -6l-219 -1315q-2 -16 -3 -31q0 -43 24 -58q32 -22 165 -24l4 -14q-151 -97 -276 -97zM555 -449q-80 0 -130 38t-50 92q0 47 33 78.5t84 31.5q119 0 188 -139q51 82 86 328l117 833h-217l6 37l229 80 l7 41q43 270 217 426q133 121 288 121q82 0 135.5 -40t53.5 -96q0 -51 -33 -83.5t-88 -32.5t-110.5 43t-90.5 123q-61 -51 -98 -145.5t-70 -311.5l-8 -57h250l-18 -105h-246l-84 -608q-29 -207 -79 -332t-142 -217q-103 -105 -230 -105zM-72 -449q-80 0 -130 38t-50 92 q0 47 33 78.5t84 31.5q119 0 188 -139q51 82 86 328l117 833h-217l6 37l229 80l7 41q43 270 217 426q133 121 288 121q82 0 135.5 -40t53.5 -96q0 -51 -33 -83.5t-88 -32.5t-110.5 43t-90.5 123q-61 -51 -98 -145.5t-70 -311.5l-8 -57h250l-18 -105h-246l-84 -608 q-29 -207 -79 -332t-142 -217q-103 -105 -230 -105z" />
</font>
</defs>
</svg>
