<?xml version="1.0" standalone="no"?>
<!DOCTYPE svg PUBLIC "-//W3C//DTD SVG 1.1//EN" "http://www.w3.org/Graphics/SVG/1.1/DTD/svg11.dtd" >
<svg xmlns="http://www.w3.org/2000/svg">
<metadata>
This is a custom SVG webfont generated by Font Squirrel.
Copyright   : Copyright C 19962005 Hoefler  FrereJones Inc wwwtypographycom
</metadata>
<defs>
<font id="webfonteW5rB8HM" horiz-adv-x="1064" >
<font-face units-per-em="2048" ascent="1638" descent="-410" />
<missing-glyph horiz-adv-x="438" />
<glyph unicode=" "  horiz-adv-x="438" />
<glyph unicode="&#x09;" horiz-adv-x="438" />
<glyph unicode="&#xa0;" horiz-adv-x="438" />
<glyph unicode="!" horiz-adv-x="595" d="M465 1157q0 -100 -127 -739h-80l-35 178l-36 186q-11 57 -26.5 146.5t-21.5 141.5t-6 87q0 82 43 130t123 48t123 -48t43 -130zM467 125q0 -68 -50 -112t-120 -44t-119 44t-49 112q0 66 49 108.5t119 42.5q72 0 121 -42.5t49 -108.5z" />
<glyph unicode="&#x22;" horiz-adv-x="864" d="M809 1217q0 -41 -21 -80q-27 -53 -122 -193l-113 -153l-68 30l31 197q33 188 45 219q35 98 125 98q47 0 85 -34.5t38 -83.5zM420 1217q0 -45 -19 -80q-29 -59 -125 -193l-112 -153l-66 30l29 197q31 180 45 219q39 98 125 98q47 0 85 -34.5t38 -83.5z" />
<glyph unicode="#" horiz-adv-x="1300" d="M1208 788h-243l-52 -170l-47 -172h250v-116h-282l-86 -303l-125 34l82 269h-277l-86 -303l-125 34l80 269h-205v116h238l59 195l41 147h-248v115h281l92 326l125 -33l-88 -293h276l93 326l124 -33l-86 -293h209v-115zM838 788h-281l-51 -170l-47 -172h278l60 195z" />
<glyph unicode="$" horiz-adv-x="1167" d="M1055 367q0 -168 -126 -276.5t-345 -119.5l-17 -215l-118 8l16 209q-160 16 -338 76l-16 361l69 4q70 -152 135.5 -230t169.5 -110l37 458q-207 72 -296 154t-89 221q0 162 125 269.5t328 109.5l14 187l119 -11l-14 -180q129 -10 284 -53l6 -318l-71 -10 q-49 119 -102.5 184.5t-133.5 92.5l-33 -418q217 -76 306.5 -163t89.5 -230zM590 1190q-102 -4 -161.5 -56.5t-59.5 -136.5q0 -74 44 -122t146 -82zM821 281q0 82 -48 133t-155 86l-32 -434q104 4 169.5 62.5t65.5 152.5z" />
<glyph unicode="%" horiz-adv-x="1667" d="M748 954q0 -139 -97.5 -239.5t-249.5 -100.5q-150 0 -238.5 94.5t-88.5 239.5q0 137 98 236.5t250 99.5q150 0 238 -93.5t88 -236.5zM297 6l487 639l486 666l100 -68l-487 -635l-488 -667zM1593 303q0 -137 -98 -237.5t-247.5 -100.5t-238.5 94.5t-89 237.5 q0 137 98 237.5t250 100.5q147 0 236 -94.5t89 -237.5zM555 952q0 123 -39 186.5t-108 63.5q-66 0 -105 -65.5t-39 -190.5q0 -121 41 -185.5t109 -64.5q141 0 141 256zM1110 297q0 -123 41 -186.5t109 -63.5q141 0 141 256q0 123 -40 186.5t-108 63.5q-143 0 -143 -256z" />
<glyph unicode="&#x26;" horiz-adv-x="1468" d="M1450 721v-57l-133 -52l-293 -331q80 -102 137.5 -136t147.5 -34q55 0 94 6l10 -62q-135 -86 -293 -86q-96 0 -162.5 36t-140.5 124q-94 -84 -177 -122t-189 -38q-168 0 -283 97.5t-115 248.5q0 123 68.5 207t197.5 146l60 26q-111 150 -111 273q0 139 109.5 229 t275.5 90q158 0 246 -71.5t88 -184.5q0 -164 -233 -297l-52 -28l263 -347l170 252l-119 58v53h434zM774 1032q0 76 -34.5 120t-96.5 44q-59 0 -95 -40t-36 -107q0 -92 100 -224l47 -61q115 129 115 268zM762 201l-332 430l-27 -25q-100 -94 -100 -213q0 -109 78 -182.5 t190 -73.5q99 1 191 64z" />
<glyph unicode="'" horiz-adv-x="479" d="M422 1217q0 -45 -19 -80q-29 -59 -124 -193l-115 -153l-66 30l29 197q31 178 47 219q35 98 123 98q49 0 87 -34.5t38 -83.5z" />
<glyph unicode="(" horiz-adv-x="761" d="M358 577.5q0 -317.5 112 -540.5t321 -332l-31 -67q-283 104 -468.5 347.5t-185.5 592t185.5 592t468.5 348.5l31 -68q-209 -109 -321 -332t-112 -540.5z" />
<glyph unicode=")" horiz-adv-x="761" d="M655 577.5q0 -348.5 -185 -592t-468 -347.5l-31 67q209 109 320.5 332t111.5 540.5t-111.5 540.5t-320.5 332l31 68q283 -104 468 -348t185 -592.5z" />
<glyph unicode="*" horiz-adv-x="897" d="M82 1075l61 123l250 -182l21 8l-37 305h145l-37 -305l19 -8l252 182l59 -123l-272 -123v-20l272 -123l-59 -125l-252 182l-19 -6l37 -307h-145l37 307l-21 6l-250 -182l-61 125l274 123v20z" />
<glyph unicode="+" d="M967 565h-367v-375h-133v375h-371v125h371v369h133v-369h367v-125z" />
<glyph unicode="," horiz-adv-x="497" d="M420 94q0 -272 -342 -465l-43 49q203 176 227 308l-14 12l-10 -2q-12 -4 -35 -4q-53 0 -87 40t-34 97q0 68 46 118t112 50q84 0 132 -53.5t48 -149.5z" />
<glyph unicode="-" horiz-adv-x="735" d="M647 387h-559v203h559v-203z" />
<glyph unicode="." horiz-adv-x="497" d="M416 133q0 -70 -49.5 -118t-116.5 -48q-70 0 -119 48t-49 118q0 68 49 116t119 48q68 0 117 -48t49 -116z" />
<glyph unicode="/" horiz-adv-x="831" d="M862 1468l-418 -944l-403 -956l-123 51l418 942l403 957z" />
<glyph unicode="0" horiz-adv-x="1196" d="M1124 627q0 -291 -147.5 -474.5t-386.5 -183.5q-246 0 -383 180.5t-137 477.5q0 293 147.5 476t386.5 183q246 0 383 -180t137 -479zM827 627q0 285 -68.5 424t-178.5 139q-213 0 -213 -563q0 -561 247 -561q96 0 154.5 139t58.5 422z" />
<glyph unicode="1" horiz-adv-x="839" d="M571 152l220 -82v-70h-711v70l219 82v897l-221 94v61l454 68l39 -23v-1097z" />
<glyph unicode="2" horiz-adv-x="1048" d="M629 852q0 106 -58.5 167.5t-156.5 61.5q-68 0 -125.5 -28.5t-134.5 -96.5l-58 43q158 287 416 287q178 0 280.5 -103.5t102.5 -263t-114.5 -303t-436.5 -391.5l8 -20l402 6l155 186l49 -14l-73 -383h-846l-10 86q246 199 401 369q109 117 154 206t45 191z" />
<glyph unicode="3" horiz-adv-x="1044" d="M944 362q0 -170 -135 -281.5t-338 -111.5q-184 0 -298 61.5t-114 155.5q0 63 40 103.5t98 40.5q84 0 122.5 -62.5t18.5 -163.5q66 -33 129 -32q100 0 161.5 56t61.5 159q0 123 -102.5 196.5t-331.5 98.5v71q215 76 300 142.5t85 154.5q0 72 -51 115t-150 43 q-127 0 -284 -109l-50 52q182 236 443 235q160 0 253 -74.5t93 -189.5q0 -203 -281 -305v-25q330 -72 330 -330z" />
<glyph unicode="4" horiz-adv-x="1171" d="M1090 346h-213v-203l213 -73v-70h-689v70l220 73v203h-560l-18 86l596 852l238 -12v-768h213v-158zM625 504v518h-31l-354 -518h385z" />
<glyph unicode="5" horiz-adv-x="1058" d="M956 399q0 -186 -136 -308t-341 -122q-172 0 -284.5 62.5t-112.5 156.5q0 61 37 101.5t92 40.5q82 0 120 -59.5t23 -159.5q61 -39 135 -39q102 0 169 65.5t67 184.5q0 127 -82 193.5t-227 66.5q-100 0 -211 -35l-55 24l69 682h545l88 109l63 -16l-36 -324h-564l-26 -229 l10 -9q100 18 180 19q238 0 357.5 -107t119.5 -297z" />
<glyph unicode="6" horiz-adv-x="1134" d="M1047 440q0 -213 -136.5 -342t-347.5 -129q-209 0 -343 126t-134 368q0 332 252 571q205 197 547 275l20 -78q-184 -86 -297 -191q-129 -121 -200 -284l16 -8q117 78 252 77q178 0 274.5 -108.5t96.5 -276.5zM772 367q0 156 -58.5 237.5t-170.5 81.5q-72 0 -154 -39 q-25 -82 -24 -194q0 -172 59 -281t162 -109q88 0 137 81.5t49 222.5z" />
<glyph unicode="7" horiz-adv-x="1005" d="M772 1018h-510l-112 -141l-60 16l55 422l62 16l51 -78h698l33 -36l-573 -1248h-256l301 500z" />
<glyph unicode="8" horiz-adv-x="1105" d="M729 692q154 -74 220.5 -157.5t66.5 -200.5q0 -160 -135.5 -262.5t-335.5 -102.5q-195 0 -321 90.5t-126 227.5q0 209 273 323q-236 117 -236 320q0 152 123 254t311 102q186 0 297 -82t111 -207q0 -196 -248 -305zM641 733q123 123 123 260q0 92 -54.5 148.5 t-148.5 56.5q-84 0 -136 -53t-52 -135q0 -88 59 -148.5t209 -128.5zM449 578q-125 -121 -125 -273q0 -115 65.5 -181.5t171.5 -66.5q90 0 146.5 56.5t56.5 142.5q0 98 -68.5 170t-246.5 152z" />
<glyph unicode="9" horiz-adv-x="1134" d="M1049 793q0 -328 -250 -568q-215 -207 -563 -278l-19 78q199 88 309 190q74 70 117 128t82 149l-18 8q-113 -78 -250 -78q-176 0 -272.5 108.5t-96.5 280.5q0 217 134 346t347 129q209 0 344.5 -127.5t135.5 -365.5zM770 803q0 176 -59.5 282.5t-163.5 106.5 q-86 0 -136.5 -81t-50.5 -226q0 -158 59.5 -241t170.5 -83q78 0 155 41q25 80 25 201z" />
<glyph unicode=":" horiz-adv-x="518" d="M424 702.5q0 -67.5 -48 -114.5t-115.5 -47t-116 47t-48.5 114.5t48.5 114.5t116 47t115.5 -47t48 -114.5zM424 131q0 -68 -48 -116t-115.5 -48t-116 47t-48.5 117q0 66 48.5 114t115.5 48q66 0 115 -48t49 -114z" />
<glyph unicode=";" horiz-adv-x="518" d="M426 702.5q0 -67.5 -48 -114.5t-115.5 -47t-116 47t-48.5 114.5t48.5 114.5t116 47t115.5 -47t48 -114.5zM428 94q0 -270 -342 -465l-45 49q203 176 227 308l-14 12l-10 -2q-12 -4 -35 -4q-53 0 -87 40t-34 97q0 68 46 118t112 50q84 0 133 -53.5t49 -149.5z" />
<glyph unicode="&#x3c;" d="M899 319l-33 -124l-729 383v102l729 381l33 -123l-612 -307z" />
<glyph unicode="=" d="M942 891v-129h-819v129h819zM942 362h-819v130h819v-130z" />
<glyph unicode="&#x3e;" d="M776 627l-610 311l31 125l729 -383v-102l-729 -381l-31 125z" />
<glyph unicode="?" horiz-adv-x="952" d="M887 985q0 -117 -61.5 -188.5t-182.5 -139.5q-127 -70 -156.5 -113.5t-17.5 -125.5h-107q-76 127 -75 203q0 63 43 112t133 107q92 59 128 103t36 114q0 78 -51.5 125t-135.5 47q-61 0 -106 -23q25 -49 24 -110q0 -63 -41 -107.5t-102 -44.5q-63 0 -108.5 43t-45.5 109 q0 100 107.5 169.5t286.5 69.5q186 0 309 -98t123 -252zM586 125q0 -68 -50.5 -112t-120 -44t-118.5 44t-49 112q0 66 49 108.5t118.5 42.5t120 -42.5t50.5 -108.5z" />
<glyph unicode="@" horiz-adv-x="1888" d="M1645 629q0 258 -186.5 436t-485.5 178q-309 0 -514 -215t-205 -565q0 -315 210 -515t558 -200q240 0 489 137l35 -49q-250 -201 -590 -201q-172 0 -326.5 54.5t-273 156t-188.5 258t-70 349.5q0 238 126 440.5t343 322t471 119.5q324 0 538 -197.5t214 -469.5 q0 -248 -142.5 -413t-347.5 -165q-221 0 -268 154l-22 4q-72 -78 -132.5 -113t-134.5 -35q-94 0 -153.5 63.5t-59.5 168.5q0 229 170 402t347 173q80 0 167 -41l91 76l49 -14l-115 -522q-25 -106 1 -167t101 -61q123 0 213.5 123t90.5 328zM1100 715q-63 88 -129 88 q-59 0 -111.5 -70.5t-81 -165t-28.5 -172.5q0 -141 104 -141q68 0 162 80z" />
<glyph unicode="A" horiz-adv-x="1456" d="M1290 127l162 -55v-72h-645v63l168 46l-109 311h-452l-105 -299l137 -58v-63h-450v72l160 63l462 1182h224zM827 526l-182 510h-18l-176 -510h376z" />
<glyph unicode="B" horiz-adv-x="1357" d="M1270 362q0 -164 -126 -263t-353 -99h-734v72l195 45v1071l-195 45v72h680q233 0 351 -81t118 -208q0 -240 -342 -307v-29q406 -48 406 -318zM553 723l100 4q119 4 185.5 67.5t66.5 182.5q0 229 -258 235q-80 0 -94 -2v-487zM944 356.5q0 266.5 -305 276.5l-86 2v-533 q49 -12 121 -12q270 0 270 266.5z" />
<glyph unicode="C" horiz-adv-x="1425" d="M1311 403l-41 -342q-207 -92 -455 -92q-324 0 -523.5 178.5t-199.5 493.5q0 295 204 494.5t511 199.5q174 0 321 -63l68 69h66l24 -501l-82 -4q-100 215 -195.5 304t-220.5 89q-158 0 -256 -145.5t-98 -411.5q0 -281 122 -433.5t323 -152.5q68 0 135 23l235 305z" />
<glyph unicode="D" horiz-adv-x="1552" d="M252 1188l-193 45v72h658q340 0 541.5 -175.5t201.5 -465.5q0 -297 -209 -480.5t-549 -183.5h-643v72l193 45v1071zM1118 653q0 524 -446 543l-109 2v-1092l152 5q195 6 299 130.5t104 411.5z" />
<glyph unicode="E" horiz-adv-x="1357" d="M1186 1305l37 -408l-54 -12l-139 178q-59 76 -107.5 102.5t-144.5 28.5l-215 6v-498h90q84 0 118 30t69 136l22 66h60v-559h-60l-22 59q-35 104 -70 136t-117 32h-90v-496l291 9q88 2 135 28.5t98 92.5l150 186l53 -8l-45 -414h-1186v72l193 45v1071l-193 45v72h1127z " />
<glyph unicode="F" horiz-adv-x="1280" d="M1225 897l-54 -12l-141 178q-61 78 -105 103.5t-139 27.5l-223 6v-518h88q86 0 123 33t72 133l22 65h60v-561h-60l-22 62q-39 100 -74 132t-121 32h-88v-461l207 -45v-72h-711v72l193 45v1071l-193 45v72h1129z" />
<glyph unicode="G" horiz-adv-x="1474" d="M1276 866l-82 -4q-104 195 -199.5 281t-212.5 86q-156 0 -252 -137.5t-96 -397.5q0 -289 118 -439.5t325 -150.5q68 0 133 33v359l-183 49v69h611v-69l-142 -49v-508l-65 -8l-144 94q-182 -106 -368 -107q-272 0 -449.5 187.5t-177.5 482.5t202 495.5t507 200.5 q180 0 313 -61l68 69h75z" />
<glyph unicode="H" horiz-adv-x="1675" d="M1112 737v451l-174 45v72h678v-72l-193 -45v-1071l193 -45v-72h-678v72l174 45v499h-549v-499l174 -45v-72h-678v72l193 45v1071l-193 45v72h678v-72l-174 -45v-451h549z" />
<glyph unicode="I" horiz-adv-x="864" d="M588 117l194 -45v-72h-702v72l196 45v1071l-196 45v72h702v-72l-194 -45v-1071z" />
<glyph unicode="J" horiz-adv-x="1120" d="M885 487q0 -145 -32 -236t-108 -159q-145 -129 -378 -129q-158 0 -246 60.5t-88 158.5q0 70 49 118t115 48q182 0 182 -269v-18q195 16 194 306v821l-194 45v72h694v-72l-188 -45v-701z" />
<glyph unicode="K" horiz-adv-x="1515" d="M887 766l454 -627l168 -67v-72h-614v57l117 49l-332 488h-117v-477l168 -45v-72h-672v72l193 45v1071l-193 45v72h672v-72l-168 -45v-473h133l365 450l-152 82v58h541v-72l-195 -74z" />
<glyph unicode="L" horiz-adv-x="1292" d="M1231 461l-49 -461h-1123v72l193 45v1071l-193 45v72h703v-72l-199 -45v-1082l209 7q88 2 139.5 34.5t114.5 118.5l156 201z" />
<glyph unicode="M" horiz-adv-x="2009" d="M1755 117l195 -45v-72h-676v72l178 45v989h-29l-395 -1106h-186l-416 1106h-25v-971l177 -63v-72h-508v72l180 63v1051l-180 47v72h604l71 -215l252 -721h29l250 721l74 215h600v-72l-195 -45v-1071z" />
<glyph unicode="N" horiz-adv-x="1605" d="M256 139v1028l-170 66v72h524l144 -211l442 -643h23v714l-185 68v72h514v-72l-176 -68v-1177h-221l-145 211l-574 811h-24v-871l184 -67v-72h-512v72z" />
<glyph unicode="O" horiz-adv-x="1525" d="M1434 653q0 -289 -183.5 -486.5t-494.5 -197.5q-319 0 -491.5 194.5t-172.5 489.5q0 289 182.5 485.5t493.5 196.5q322 0 494 -194.5t172 -487.5zM1094 653q0 283 -98.5 435.5t-250.5 152.5q-313 0 -313 -587.5t348 -587.5q139 0 226.5 151t87.5 436z" />
<glyph unicode="P" horiz-adv-x="1310" d="M1243 928q0 -188 -134 -292t-359 -104q-100 0 -187 13v-428l213 -45v-72h-717v72l193 45v1071l-193 45v72h666q242 0 380 -99.5t138 -277.5zM920 926q0 266 -269 276h-88v-559q29 -4 82 -4q275 0 275 287z" />
<glyph unicode="Q" horiz-adv-x="1525" d="M1434 653q0 -246 -134.5 -423t-363.5 -232q92 -143 201 -219q98 -70 264 -90l-15 -68h-258q-221 0 -307 68q-57 45 -135 192l-59 107q-258 41 -396.5 221t-138.5 444q0 289 182.5 485.5t493.5 196.5q322 0 494 -194.5t172 -487.5zM1094 653q0 283 -98.5 435.5 t-250.5 152.5q-313 0 -313 -587.5t348 -587.5q139 0 226.5 151t87.5 436z" />
<glyph unicode="R" horiz-adv-x="1427" d="M1264 981q0 -127 -96.5 -213t-286.5 -119v-28q211 -41 282 -226q66 -170 129 -241q55 -59 156 -84v-70h-256q-115 0 -169 46t-112 179l-88 207q-35 84 -85 115t-136 31h-39v-461l191 -45v-72h-695v72l193 45v1071l-193 45v72h729q223 0 349.5 -85t126.5 -239zM948 948 q0 242 -278 252q-100 0 -107 -2v-518l113 2q127 4 199.5 69.5t72.5 196.5z" />
<glyph unicode="S" horiz-adv-x="1146" d="M1055 395q0 -193 -137.5 -309.5t-339.5 -116.5q-172 0 -320 72l-55 -70h-76l-25 457l82 4q86 -205 177.5 -283.5t211.5 -78.5q104 0 166 56t62 146q0 84 -51.5 135.5t-190.5 110.5q-158 63 -194 82q-229 113 -230 344q0 172 123 281.5t303 109.5q150 0 266 -67l56 69h78 l34 -405l-84 -4q-82 168 -157.5 237.5t-175.5 69.5q-84 0 -135.5 -48t-51.5 -128q0 -76 43 -125t150 -96q31 -14 108.5 -44t118.5 -51q244 -117 244 -348z" />
<glyph unicode="T" horiz-adv-x="1433" d="M1382 846l-57 -10l-141 192q-76 104 -120 138t-118 36l-69 2v-1087l202 -45v-72h-717v72l203 45v1087l-76 -2q-72 -2 -117.5 -38t-119.5 -136l-141 -192l-58 10l64 459h1202z" />
<glyph unicode="U" horiz-adv-x="1546" d="M1180 1169l-160 64v72h481v-72l-168 -64v-708q0 -225 -140 -359.5t-390 -134.5q-573 0 -574 500v721l-186 45v72h692v-72l-194 -45v-721q0 -354 329 -354q145 0 227.5 95t82.5 253v708z" />
<glyph unicode="V" horiz-adv-x="1460" d="M1313 1155l-479 -1167h-179l-481 1190l-170 55v72h701v-72l-191 -45l322 -862l311 835l-158 72v72h477v-72z" />
<glyph unicode="W" horiz-adv-x="2099" d="M1278 1188l262 -811h12l232 790l-139 72v66h458v-72l-161 -78l-396 -1167h-170l-303 870h-12l-332 -870h-170l-377 1190l-178 55v72h658v-66l-156 -43l231 -825h6l261 690l-43 125l-142 53v66h613v-66z" />
<glyph unicode="X" horiz-adv-x="1509" d="M1276 1176l-381 -463l420 -594l158 -47v-72h-676v63l164 41l-261 412l-282 -399l139 -54v-63h-502v72l174 55l394 481l-402 578l-162 47v72h684v-64l-168 -39l244 -397l271 381l-140 55v64h506v-72z" />
<glyph unicode="Y" horiz-adv-x="1452" d="M1278 1169l-377 -598v-444l203 -55v-72h-715v72l201 55v399l-383 643l-180 64v72h669v-66l-153 -51l293 -508l270 494l-133 65v66h469v-72z" />
<glyph unicode="Z" horiz-adv-x="1343" d="M1255 467l-41 -467h-1142l-9 55l820 1135l-314 -4q-82 0 -133 -32t-119 -120l-124 -160l-56 13l39 418h1073l8 -56l-813 -1136l390 4q76 0 124 31.5t99 109.5l147 217z" />
<glyph unicode="[" horiz-adv-x="737" d="M780 1425h-348v-1693h348v-94h-581v1882h581v-95z" />
<glyph unicode="\" horiz-adv-x="831" d="M90 1518l406 -957l417 -942l-122 -51l-406 956l-418 946z" />
<glyph unicode="]" horiz-adv-x="737" d="M307 1425h-350v95h582v-1882h-582v94h350v1693z" />
<glyph unicode="^" horiz-adv-x="638" d="M319 1235l-247 -184l-56 49l252 385h117l238 -385l-56 -49z" />
<glyph unicode="_" horiz-adv-x="901" d="M905 113v-113h-909v113h909z" />
<glyph unicode="`" horiz-adv-x="487" d="M410 1098l-56 -37q-211 166 -268 248q-39 57 -33 111.5t53 84.5q47 29 100.5 11.5t88.5 -72.5q41 -72 115 -346z" />
<glyph unicode="a" horiz-adv-x="1032" d="M877 672v-475q0 -55 32.5 -84t116.5 -31l6 -55q-125 -47 -231 -47q-141 0 -164 135l-27 4q-143 -137 -288 -137q-113 0 -181.5 59t-68.5 164q0 281 549 319v109q0 115 -48.5 160t-164.5 45q-55 0 -101 -19q55 -45 55 -108q0 -51 -33.5 -85t-90.5 -34q-55 0 -92 37t-37 90 q0 102 135 169.5t305 67.5q168 0 248 -67t80 -217zM621 180v275q-297 -14 -297 -187q0 -141 145 -141q70 0 152 53z" />
<glyph unicode="b" horiz-adv-x="1161" d="M1087 489q0 -215 -147 -368.5t-389 -153.5q-203 0 -410 66v1243l-143 88v57l377 97l37 -23v-661l26 -5q141 127 285 127q152 0 258 -129t106 -338zM803 428q0 354 -246 354q-66 0 -145 -37v-581q82 -100 188 -101q88 0 145.5 90.5t57.5 274.5z" />
<glyph unicode="c" horiz-adv-x="991" d="M930 733q0 -63 -40 -105t-99 -42q-68 0 -108 45t-40 114q0 49 23 109q-25 4 -35 4q-121 -4 -203 -105.5t-82 -273.5q0 -166 90 -255t236 -89q100 0 233 55l25 -53q-168 -170 -385 -170q-203 0 -340 132t-137 341q0 217 151.5 366.5t378.5 149.5q150 0 241 -64.5 t91 -158.5z" />
<glyph unicode="d" horiz-adv-x="1185" d="M1022 188l129 -86v-55l-350 -84l-39 23l12 131l-24 4l-2 -2q-156 -152 -312 -152q-150 0 -256 129t-106 334q0 221 146.5 374.5t389.5 153.5q72 0 140 -18v336l-142 88v57l375 97l39 -23v-1307zM360 494q0 -352 238 -353q68 0 152 45v570q-78 106 -189 106 q-88 0 -144.5 -90t-56.5 -278z" />
<glyph unicode="e" horiz-adv-x="1036" d="M973 469h-635q6 -342 305 -342q125 0 293 63l27 -49q-211 -174 -414 -174q-219 0 -350 131t-131 346q0 217 146 364.5t343 147.5q219 0 322 -136q95 -126 94 -320q1 -15 0 -31zM340 547l371 18q-6 305 -172 305q-84 0 -137.5 -85.5t-61.5 -237.5z" />
<glyph unicode="f" horiz-adv-x="737" d="M737 788h-256v-677l162 -48v-63h-563v63l131 48v677h-184v62l184 78v82q0 281 195 417q131 90 292 91q104 0 165 -47.5t61 -112.5q0 -59 -35 -93t-92 -34q-127 0 -197 178q-63 -39 -91 -115.5t-28 -222.5v-149h256v-134z" />
<glyph unicode="g" d="M901 641q0 -133 -110.5 -219t-292.5 -86q-92 0 -148 18q-37 -47 -37 -88q0 -78 136 -78l247 -4q324 -6 324 -237q0 -156 -154.5 -264.5t-400.5 -108.5q-223 0 -336 57.5t-113 151.5q0 119 199 194l-2 21q-119 39 -119 137t178 234v12q-84 41 -134 110.5t-50 155.5 q0 141 117 225t297 84q172 0 295 -88l155 88h119v-180h-45l-164 35l-4 -18q43 -76 43 -152zM653 655q0 227 -161 228q-158 0 -158 -236q0 -131 42 -183t126 -52q70 0 110.5 63t40.5 180zM838 -158q0 63 -53.5 93t-172.5 32l-325 4q-47 -57 -47 -133q0 -176 297 -176 q125 0 213 53t88 127z" />
<glyph unicode="h" horiz-adv-x="1206" d="M788 582q0 195 -155 194q-86 0 -189 -57v-608l109 -48v-63h-510v63l129 48v1165l-141 88v57l375 97l38 -23v-686l21 -4q170 152 332 151q127 0 195.5 -75.5t68.5 -204.5v-565l129 -48v-63h-512v63l110 48v471z" />
<glyph unicode="i" horiz-adv-x="618" d="M145 1310.5q0 71.5 50.5 126t126.5 54.5q74 0 122 -48t48 -120t-51.5 -125t-127.5 -53q-72 0 -120 47t-48 118.5zM184 737l-129 86v58l367 82l35 -21v-831l127 -48v-63h-535v63l135 48v626z" />
<glyph unicode="j" horiz-adv-x="600" d="M141 1310.5q0 71.5 51.5 126t126.5 54.5q74 0 121 -48t47 -120t-51 -125t-127 -53q-72 0 -120 47t-48 118.5zM453 61q0 -145 -22.5 -225t-78.5 -139q-113 -121 -321 -121q-96 0 -152.5 44t-56.5 101q0 51 32.5 83t84.5 32q119 0 157 -164q51 27 67.5 80t16.5 168v817 l-129 86v58l367 82l35 -21v-881z" />
<glyph unicode="k" horiz-adv-x="1146" d="M684 561l350 -452l103 -46v-63h-463v57l76 39l-234 318h-72v-303l103 -48v-63h-504v63l129 48v1165l-141 88v57l375 97l38 -23v-969h78l244 275l-113 69v56h441v-66l-131 -51z" />
<glyph unicode="l" horiz-adv-x="610" d="M449 111l126 -48v-63h-534v63l135 48v1165l-141 88v57l375 97l39 -23v-1384z" />
<glyph unicode="m" horiz-adv-x="1777" d="M1364 584q0 193 -145 192q-66 0 -179 -61v-604l111 -48v-63h-479v63l100 48v473q0 190 -145 190q-74 0 -176 -55v-608l106 -48v-63h-506v63l129 48v626l-129 86v58l352 82l37 -25l-14 -147l27 -5q182 170 335 170q180 0 234 -165l25 -5q180 170 333 170 q123 0 187.5 -74.5t64.5 -205.5v-565l131 -48v-63h-499v63l100 48v473z" />
<glyph unicode="n" horiz-adv-x="1206" d="M1059 676v-565l131 -48v-63h-512v63l110 48v471q0 195 -153 194q-74 0 -182 -57v-608l108 -48v-63h-510v63l129 48v626l-129 86v58l355 82l38 -25l-14 -147l25 -5q184 170 344 170q125 0 192.5 -75.5t67.5 -204.5z" />
<glyph unicode="o" horiz-adv-x="1136" d="M1069 465q0 -201 -138 -349.5t-376 -148.5q-233 0 -360 140.5t-127 355.5q0 201 139 347t374.5 146t361.5 -139t126 -352zM776 465q0 190 -54 292.5t-157 102.5q-98 0 -151.5 -104.5t-53.5 -294.5q0 -188 55.5 -291.5t156 -103.5t152.5 103t52 296z" />
<glyph unicode="p" horiz-adv-x="1185" d="M1112 494q0 -215 -145.5 -371t-384.5 -156q-70 0 -146 17v-297l154 -49v-64h-557v64l131 49v1048l-129 88v56l354 84l37 -25l-12 -129l24 -4q156 152 307 151q154 0 260.5 -128.5t106.5 -333.5zM825 432q0 350 -239 350q-66 0 -150 -45v-569q80 -104 189 -105 q86 0 143 90.5t57 278.5z" />
<glyph unicode="q" horiz-adv-x="1161" d="M1153 -426h-557v64l154 49v401l-25 4l-2 -2q-147 -123 -281 -123q-154 0 -261 129t-107 338q0 215 148.5 368.5t387.5 153.5q117 0 252 -41l99 93l61 -13v-1308l131 -49v-64zM602 141q70 0 148 39v578q-74 102 -187 102q-86 0 -144.5 -89t-58.5 -275q0 -355 242 -355z " />
<glyph unicode="r" horiz-adv-x="927" d="M901 795q0 -70 -43 -118t-106 -48q-57 0 -94 36.5t-48 92.5q-86 -20 -157 -117v-530l145 -48v-63h-547v63l129 48v626l-129 86v58l355 82l38 -25l-24 -197l26 -6q68 111 135.5 167t153.5 56q74 0 120 -44.5t46 -118.5z" />
<glyph unicode="s" horiz-adv-x="886" d="M819 291q0 -145 -111.5 -233.5t-283.5 -88.5q-190 0 -336 56l-4 274l68 4q84 -139 148.5 -192.5t145.5 -53.5q70 0 111 34t41 95q0 57 -48 95t-177 90q-141 53 -212 115.5t-71 175.5q0 125 105.5 210.5t279.5 85.5q158 0 279 -38l6 -246l-64 -8q-74 117 -129 160.5 t-123 43.5q-63 0 -100 -33.5t-37 -82.5q0 -55 42 -89t153 -75q172 -63 244.5 -125.5t72.5 -173.5z" />
<glyph unicode="t" horiz-adv-x="780" d="M762 66q-59 -37 -157.5 -65t-184.5 -28q-246 0 -246 246v569h-156v60l197 137l152 232h77v-287h312v-142h-312v-471q0 -123 56 -159q43 -31 143 -31q53 0 117 6z" />
<glyph unicode="u" horiz-adv-x="1196" d="M1026 182l129 -80v-55l-354 -82l-39 23l14 147l-24 4q-182 -170 -344 -170q-125 0 -193 78t-68 205v489l-129 86v54l361 82l39 -25v-592q0 -195 153 -194q78 0 183 55v534l-129 86v54l362 82l39 -25v-756z" />
<glyph unicode="v" horiz-adv-x="1099" d="M418 815l207 -545h12l92 242l96 289l-118 63v62h409v-66l-137 -69l-350 -814h-158l-354 832l-127 51v66h553v-62z" />
<glyph unicode="w" horiz-adv-x="1656" d="M997 819l177 -547h10l190 533l-114 63v58h409v-66l-141 -67l-354 -816h-121l-207 545l-268 -545h-123l-326 834l-125 49v66h512v-58l-106 -49l188 -559h10l183 399l-60 160l-104 49v58h493v-58z" />
<glyph unicode="x" horiz-adv-x="1112" d="M606 565l170 256l-96 51v54h389v-66l-139 -59l-258 -305l301 -387l121 -46v-63h-539v53l119 43l-174 269l-183 -263l101 -49v-53h-385v63l133 60l264 313l-291 381l-121 43v66h535v-54l-115 -43z" />
<glyph unicode="y" horiz-adv-x="1089" d="M973 791l-369 -889q-76 -180 -157.5 -254t-200.5 -74q-88 0 -136.5 40t-48.5 101q0 53 39 89t95 36q92 0 161 -112q63 57 107 145l35 72l-383 864l-125 51v66h553v-62l-125 -53l209 -543h10l186 533l-123 63v62h402v-66z" />
<glyph unicode="z" horiz-adv-x="1019" d="M971 877l-596 -773h325l189 244l67 -12l-28 -336h-871l-14 51l596 770h-305l-172 -243l-66 12l21 336h841z" />
<glyph unicode="{" horiz-adv-x="817" d="M557 938q0 -164 -66.5 -239.5t-214.5 -102.5v-25q147 -27 214 -101.5t67 -238.5v-182q0 -166 56.5 -231.5t217.5 -98.5v-75q-291 14 -406.5 102t-115.5 301v207q0 143 -58 203.5t-210 79.5v96q152 16 210 76.5t58 205.5v199q0 213 116 301t406 103v-78 q-162 -31 -218 -97.5t-56 -232.5v-172z" />
<glyph unicode="|" horiz-adv-x="610" d="M373 -494h-137l8 965l-8 965h137l-6 -965z" />
<glyph unicode="}" horiz-adv-x="817" d="M508 915q0 -145 59.5 -205.5t210.5 -76.5v-96q-154 -18 -212 -79t-58 -204v-207q0 -213 -116 -301t-406 -102v75q162 33 218 98.5t56 231.5v182q0 164 67.5 239t213.5 101v25q-145 27 -213 102.5t-68 239.5v172q0 166 -56.5 232.5t-217.5 97.5v78q291 -14 406.5 -102.5 t115.5 -301.5v-199z" />
<glyph unicode="~" horiz-adv-x="839" d="M276 807q61 0 168 -50t142 -50q31 0 51 25.5t47 92.5l82 -12q-18 -166 -64.5 -237.5t-136.5 -71.5q-61 0 -167.5 50t-143.5 50q-29 0 -48.5 -25.5t-47.5 -93.5l-84 13q20 166 66 237.5t136 71.5z" />
<glyph unicode="&#xa1;" horiz-adv-x="595" d="M467 707q0 -66 -50 -110t-120 -44t-119 44t-49 110q0 68 49 110.5t119 42.5q72 0 121 -42.5t49 -110.5zM258 414h80l35 -181l36 -186l26 -147q15 -86 21.5 -139.5t6.5 -86.5q0 -82 -44 -131t-122 -49t-122 49t-44 131q0 97 127 740z" />
<glyph unicode="&#xa2;" horiz-adv-x="1021" d="M561 135q47 -10 101 -10q104 0 247 72l31 -54q-172 -168 -385 -174l-12 -202l-101 8l17 200q-164 29 -272.5 154t-108.5 303q0 184 124 327.5t318 170.5l12 182l99 -6l-13 -172q143 -2 237.5 -68.5t94.5 -152.5q0 -59 -33.5 -97t-89.5 -38q-78 0 -112.5 66.5t-14.5 180.5 q-31 14 -96 15l-24 -377zM330 471q0 -219 147 -299l21 297l22 352q-94 -35 -142 -128t-48 -222z" />
<glyph unicode="&#xa3;" horiz-adv-x="1175" d="M918 698v-120h-279q2 -12 2 -37q0 -100 -49 -169t-164 -134l8 -23q78 6 213 -4t172 -10q82 0 123 43t66 149l80 -2q-16 -422 -295 -422q-164 0 -406 160q-92 -160 -213 -160q-59 0 -96 33t-37 84q0 74 70.5 120t199.5 38q61 96 62 207q0 63 -23 127h-272v120h225 q-39 104 -39 176q0 176 146.5 294t341.5 118q152 0 227.5 -55t75.5 -121q0 -55 -35 -94t-96 -39q-152 0 -205 211q-82 -14 -128 -77.5t-46 -154.5q0 -37 7 -76.5t13 -60t22.5 -64.5t20.5 -57h308z" />
<glyph unicode="&#xa4;" horiz-adv-x="1247" d="M215 692h-166v109h184q57 219 219 352t384 133q154 0 241.5 -55t87.5 -152q0 -55 -40 -91t-93 -36q-76 0 -126 56.5t-56 175.5q-10 4 -35 4q-109 -4 -205 -100.5t-121 -286.5h504v-109h-512q-2 -12 -2 -33q0 -61 10 -127h504v-108h-477q92 -274 373 -274q125 0 252 57 l30 -53q-164 -184 -399 -185q-215 0 -360.5 122t-188.5 333h-174v108h162q-2 18 -2 56q0 51 6 104z" />
<glyph unicode="&#xa5;" horiz-adv-x="1349" d="M184 653h310l-306 465l-157 64v71h649v-71l-174 -49l242 -428l249 415l-145 62v71h465v-71l-162 -72l-313 -457h317v-98h-350v-160h350v-100h-350v-170l211 -53v-72h-694v72l209 53v170h-351v100h351v160h-351v98z" />
<glyph unicode="&#xa6;" horiz-adv-x="610" d="M373 600h-137l8 418l-8 418h137l-6 -418zM373 -494h-137l8 418l-8 418h137l-6 -418z" />
<glyph unicode="&#xa7;" horiz-adv-x="1124" d="M1016 362q0 -248 -153.5 -405.5t-397.5 -157.5q-172 0 -263 56.5t-91 146.5q0 55 36.5 91t88.5 36q63 0 102 -37t39 -102q0 -20 -12 -66q57 -35 137 -35q90 0 161.5 56.5t106.5 154.5q-319 92 -497.5 273.5t-178.5 437.5q0 248 153.5 405.5t397.5 157.5q172 0 263 -56 t91 -147q0 -55 -36.5 -91t-88.5 -36q-63 0 -102 37t-39 103q0 20 12 65q-57 35 -137 35q-90 0 -161.5 -56.5t-106.5 -154.5q319 -92 497.5 -273.5t178.5 -437.5zM313 901q0 -412 475 -721q8 57 9 92q0 412 -475 721q-9 -39 -9 -92z" />
<glyph unicode="&#xa8;" horiz-adv-x="710" d="M557 1085q-61 0 -102 43t-41 106.5t46 112t111 48.5q63 0 104.5 -42t41.5 -105.5t-46 -113t-114 -49.5zM129 1085q-63 0 -104 43t-41 106.5t46 112t113 48.5q63 0 103.5 -42t40.5 -105.5t-46 -113t-112 -49.5z" />
<glyph unicode="&#xa9;" horiz-adv-x="1613" d="M1526 655q0 -299 -210 -508.5t-509 -209.5q-297 0 -508 209.5t-211 508.5q0 297 211 506t508 209q299 0 509 -209t210 -506zM1446 655q0 266 -187.5 455.5t-451.5 189.5t-450.5 -189t-186.5 -456q0 -268 186.5 -457.5t450.5 -189.5t451.5 189.5t187.5 457.5zM631 670 q0 -152 66.5 -234t172.5 -82q41 0 68 8l129 179l51 -6l-22 -216q-119 -53 -258 -53q-190 0 -306 101.5t-116 281.5q0 168 116.5 284t298.5 116q98 0 175 -35l32 43h54l16 -299l-64 -4q-53 119 -105 166t-120 47q-82 0 -135 -73.5t-53 -223.5z" />
<glyph unicode="&#xaa;" horiz-adv-x="851" d="M125 1155q0 78 109.5 129t230.5 51q104 0 160.5 -50t56.5 -146v-334q0 -43 22.5 -64.5t88.5 -23.5l4 -47q-100 -31 -170 -31q-100 0 -117 90l-16 2q-96 -90 -215 -90q-84 0 -135.5 46t-51.5 116q0 100 102.5 158.5t303.5 62.5v88q0 66 -35 99.5t-127 33.5q-8 0 -19.5 -1 t-24.5 -3t-22 -2q35 -41 35 -86q0 -35 -24.5 -59.5t-65.5 -24.5t-65.5 25.5t-24.5 60.5zM285 838q0 -92 100 -93q59 0 113 33v191q-213 -6 -213 -131z" />
<glyph unicode="&#xab;" horiz-adv-x="1093" d="M778 459l209 -367l-61 -45l-414 385v53l414 385l61 -47zM332 459l209 -367l-64 -45l-411 385v53l411 385l64 -47z" />
<glyph unicode="&#xac;" d="M950 561h-833v133h833v-133z" />
<glyph unicode="&#xad;" horiz-adv-x="735" d="M647 387h-559v203h559v-203z" />
<glyph unicode="&#xae;" horiz-adv-x="856" d="M428 590q-168 0 -277.5 107.5t-109.5 275.5t109.5 276.5t277.5 108.5t277.5 -108.5t109.5 -276.5t-109.5 -275.5t-277.5 -107.5zM428 637q147 0 240.5 94t93.5 241.5t-93.5 243t-240.5 95.5t-240.5 -95.5t-93.5 -243t93.5 -241.5t240.5 -94zM608 1079q0 -80 -114 -100 v-16q45 -6 64.5 -19.5t27.5 -46.5q16 -49 30 -63q12 -16 43 -19v-31h-86q-37 0 -52 13.5t-32 56.5l-18 55q-16 41 -63 41h-25v-121l59 -14v-31h-221v31l64 14v304l-64 14v31h234q153 -1 153 -99zM504 1065q0 66 -84 70l-37 2v-146h41q37 0 58.5 19.5t21.5 54.5z" />
<glyph unicode="&#xaf;" horiz-adv-x="655" d="M631 1296v-180h-604v180h604z" />
<glyph unicode="&#xb0;" horiz-adv-x="833" d="M752 1018q0 -129 -92.5 -226.5t-249.5 -97.5q-156 0 -242 93.5t-86 228.5q0 127 92 223t250 96t243 -92t85 -225zM567 1018q0 113 -41 176t-112 63q-68 0 -108 -65.5t-40 -177.5q0 -111 42 -176.5t110 -65.5q72 0 110.5 65.5t38.5 180.5z" />
<glyph unicode="&#xb1;" horiz-adv-x="1024" d="M51 -410v2048h922v-2048h-922z" />
<glyph unicode="&#xb2;" horiz-adv-x="798" d="M213 549l10 -29l352 4l107 148l45 -10l-49 -308h-592l-25 172q162 125 261 228q86 90 119.5 151.5t33.5 122.5q0 59 -37 95t-98 36q-125 0 -213 -162l-55 25q90 301 348 301q123 0 195.5 -74.5t72.5 -179.5q0 -131 -104.5 -241.5t-370.5 -278.5z" />
<glyph unicode="&#xb3;" horiz-adv-x="798" d="M227 770v92q154 51 203 96.5t49 112.5q0 45 -35.5 77t-97.5 32q-115 0 -213 -123l-53 39q49 104 140 165.5t206 61.5q119 0 192.5 -58.5t73.5 -148.5q0 -80 -49 -133t-160 -86v-29q246 -51 246 -245q0 -133 -102.5 -216t-255.5 -83q-145 0 -230.5 47t-85.5 125 q0 49 33 80.5t78 31.5q66 0 94.5 -49t15.5 -127q35 -23 89 -22q72 0 112.5 41t40.5 114q0 84 -67.5 134.5t-223.5 70.5z" />
<glyph unicode="&#xb4;" horiz-adv-x="487" d="M383 1505q47 -33 52 -86t-32 -110q-53 -78 -270 -248l-53 37q74 274 115 346q35 55 87 72.5t101 -11.5z" />
<glyph unicode="&#xb5;" d="M616 625l285 -291l-90 -86l-279 289l-278 -289l-90 86l285 291l-285 290l90 86l278 -288l279 288l90 -86z" />
<glyph unicode="&#xb6;" horiz-adv-x="1347" d="M653 383q-258 4 -412.5 114.5t-154.5 323.5q0 209 152.5 326t425.5 117h632v-70l-190 -61v-1338h-139v1344h-172v-1344h-142v588zM653 508v633q-137 0 -210.5 -80t-73.5 -225q-1 -301 284 -328z" />
<glyph unicode="&#xb7;" horiz-adv-x="497" d="M416 651.5q0 -67.5 -49.5 -117t-116.5 -49.5q-70 0 -119 49.5t-49 117t49 116.5t119 49q68 0 117 -49t49 -116.5z" />
<glyph unicode="&#xb8;" horiz-adv-x="577" d="M381 -334q0 -94 -72.5 -155.5t-181.5 -61.5q-90 0 -145.5 29.5t-55.5 79.5q0 31 20.5 52t51.5 21t50.5 -22.5t19.5 -50.5q0 -23 -9 -39q23 -8 58 -8q45 0 78.5 28.5t33.5 86t-37.5 88t-101.5 30.5q-20 0 -53 -6l-39 41l383 317l41 -49l-229 -192q82 -12 135 -61.5 t53 -127.5z" />
<glyph unicode="&#xb9;" horiz-adv-x="798" d="M539 473l196 -70v-49h-624v49l202 70v690l-192 74v47l377 49l41 -22v-838z" />
<glyph unicode="&#xba;" horiz-adv-x="860" d="M788 989q0 -145 -103 -246.5t-265 -101.5t-255 96.5t-93 251.5q0 145 102 245.5t264 100.5t256 -96t94 -250zM580 989q0 272 -152 273q-72 0 -110.5 -72t-38.5 -201t38.5 -201.5t112.5 -72.5q150 0 150 274z" />
<glyph unicode="&#xbb;" horiz-adv-x="1093" d="M1030 432l-414 -385l-63 47l211 365l-211 366l63 45l414 -385v-53zM582 432l-412 -385l-64 47l209 365l-209 366l64 45l412 -385v-53z" />
<glyph unicode="&#xbc;" horiz-adv-x="2129" d="M539 473l196 -70v-49h-624v49l202 70v690l-192 74v47l377 49l41 -22v-838zM1679 1298l-532 -766l-516 -778l-103 76l531 766l516 776zM1284 236l365 571l235 -14v-549h148v-133h-148v-156l123 -57v-56h-494v58l160 55v160h-354zM1683 236v405h-41l-231 -405h272z" />
<glyph unicode="&#xbd;" horiz-adv-x="2129" d="M539 473l196 -70v-49h-624v49l202 70v690l-192 74v47l377 49l41 -22v-838zM1669 1298l-532 -766l-516 -778l-103 76l531 766l516 776zM1524 37l10 -29l352 4l107 148l45 -10l-49 -308h-592l-25 172q162 125 260 228q86 90 120 151.5t34 122.5q0 59 -37 95t-98 36 q-125 0 -213 -162l-56 25q90 301 349 301q123 0 195.5 -74.5t72.5 -179.5q0 -131 -104.5 -241.5t-370.5 -278.5z" />
<glyph unicode="&#xbe;" horiz-adv-x="2129" d="M289 770v92q154 51 203 96.5t49 112.5q0 45 -36 77t-97 32q-115 0 -213 -123l-54 39q49 104 140.5 165.5t205.5 61.5q119 0 193 -58.5t74 -148.5q0 -80 -49.5 -133t-159.5 -86v-29q246 -51 246 -245q0 -133 -102.5 -216t-256.5 -83q-145 0 -230 47t-85 125 q0 49 32.5 80.5t77.5 31.5q66 0 94.5 -49t16.5 -127q35 -23 88 -22q72 0 113 41t41 114q0 84 -67.5 134.5t-223.5 70.5zM1690 1298l-533 -766l-516 -778l-102 76l530 766l516 776zM1284 236l365 571l235 -14v-549h148v-133h-148v-156l123 -57v-56h-494v58l160 55v160h-354z M1683 236v405h-41l-231 -405h272z" />
<glyph unicode="&#xbf;" horiz-adv-x="903" d="M356 707q0 68 50.5 110.5t120 42.5t118.5 -43t49 -110q0 -66 -49 -110t-118.5 -44t-120 44t-50.5 110zM55 -154q0 117 60.5 187.5t183.5 138.5q127 70 156.5 114t17.5 128h107q76 -129 75 -205q0 -61 -43 -109.5t-133 -109.5q-90 -57 -127 -101.5t-37 -113.5 q0 -78 51.5 -126t135.5 -48q61 0 106 22q-25 53 -24 111q0 63 41 108t102 45q66 0 110 -44t44 -107q0 -102 -107.5 -172t-286.5 -70q-184 0 -308 99t-124 253z" />
<glyph unicode="&#xc0;" horiz-adv-x="1456" d="M780 1479l-55 -37q-211 166 -268 248q-39 57 -33 111t53 85q47 29 100.5 11.5t88.5 -72.5q40 -72 114 -346zM1290 127l162 -55v-72h-645v63l168 46l-109 311h-452l-105 -299l137 -58v-63h-450v72l160 63l462 1182h224zM827 526l-182 510h-18l-176 -510h376z" />
<glyph unicode="&#xc1;" horiz-adv-x="1456" d="M944 1886q47 -33 52 -86t-31 -110q-53 -78 -271 -248l-53 37q74 274 115 346q35 55 87 72.5t101 -11.5zM1290 127l162 -55v-72h-645v63l168 46l-109 311h-452l-105 -299l137 -58v-63h-450v72l160 63l462 1182h224zM827 526l-182 510h-18l-176 -510h376z" />
<glyph unicode="&#xc2;" horiz-adv-x="1456" d="M721 1614l-248 -209l-55 51l246 391h129l231 -391l-55 -51zM1290 127l162 -55v-72h-645v63l168 46l-109 311h-452l-105 -299l137 -58v-63h-450v72l160 63l462 1182h224zM827 526l-182 510h-18l-176 -510h376z" />
<glyph unicode="&#xc3;" horiz-adv-x="1456" d="M387 1466q20 166 66.5 238t136.5 72q61 0 167.5 -50.5t141.5 -50.5q31 0 51.5 25.5t46.5 93.5l82 -12q-18 -166 -64 -239t-136 -73q-61 0 -168 50.5t-142 50.5q-31 0 -51 -25.5t-47 -93.5zM1290 127l162 -55v-72h-645v63l168 46l-109 311h-452l-105 -299l137 -58v-63 h-450v72l160 63l462 1182h224zM827 526l-182 510h-18l-176 -510h376z" />
<glyph unicode="&#xc4;" horiz-adv-x="1456" d="M950 1466q-61 0 -102 43t-41 106.5t46 112t112 48.5q63 0 104 -42t41 -105.5t-46 -113t-114 -49.5zM522 1466q-63 0 -104 43t-41 106.5t46 112t114 48.5q63 0 103 -42t40 -105.5t-46 -113t-112 -49.5zM1290 127l162 -55v-72h-645v63l168 46l-109 311h-452l-105 -299 l137 -58v-63h-450v72l160 63l462 1182h224zM827 526l-182 510h-18l-176 -510h376z" />
<glyph unicode="&#xc5;" horiz-adv-x="1456" d="M1290 127l162 -55v-72h-645v63l168 46l-109 311h-452l-105 -299l137 -58v-63h-450v72l160 63l446 1141q-117 51 -117 190q0 90 70 153.5t174 63.5q106 0 171 -60t65 -155q0 -125 -111 -184zM614 1464q0 -72 32 -112.5t79 -40.5q49 0 80 42t31 115.5t-32 113.5t-83 40 q-47 0 -77 -42t-30 -116zM627 1036l-176 -510h376l-182 510h-18z" />
<glyph unicode="&#xc6;" horiz-adv-x="2037" d="M479 473l-198 -344l145 -63v-66h-479v72l155 63l637 1049l-204 49v72h1333l35 -408l-54 -12l-139 178q-59 76 -106.5 102.5t-145.5 28.5l-213 6v-498h88q84 0 118 30t71 136l22 66h60v-559h-62l-20 59q-37 104 -72 136t-117 32h-88v-496l289 9q88 2 135 28.5t100 92.5 l148 186l53 -8l-45 -414h-1186v72l195 45v356h-455zM934 580v614h-41l-354 -614h395z" />
<glyph unicode="&#xc7;" horiz-adv-x="1425" d="M434 672q0 -281 122 -433.5t323 -152.5q68 0 135 23l235 305l62 -11l-41 -342q-174 -80 -373 -90l-139 -116q82 -12 134 -61.5t52 -127.5q0 -94 -71.5 -155.5t-180.5 -61.5q-90 0 -145 29.5t-55 79.5q0 31 19 52t50 21t50.5 -22.5t19.5 -50.5q0 -23 -8 -39q25 -8 57 -8 q45 0 79 28.5t34 86t-38 88t-102 30.5q-18 0 -51 -6l-39 41l232 190q-315 6 -509 184.5t-194 487.5q0 295 204 494.5t511 199.5q174 0 321 -63l68 69h66l24 -501l-82 -4q-100 215 -195.5 304t-220.5 89q-158 0 -256 -145.5t-98 -411.5z" />
<glyph unicode="&#xc8;" horiz-adv-x="1357" d="M795 1475l-56 -37q-211 166 -268 248q-39 57 -33 111t54 85q47 29 100 11.5t88 -72.5q41 -72 115 -346zM1186 1305l37 -408l-54 -12l-139 178q-59 76 -107.5 102.5t-144.5 28.5l-215 6v-498h90q84 0 118 30t69 136l22 66h60v-559h-60l-22 59q-35 104 -70 136t-117 32h-90 v-496l291 9q88 2 135 28.5t98 92.5l150 186l53 -8l-45 -414h-1186v72l193 45v1071l-193 45v72h1127z" />
<glyph unicode="&#xc9;" horiz-adv-x="1357" d="M885 1882q47 -33 52 -86t-32 -110q-53 -78 -270 -248l-53 37q74 274 114 346q35 55 87.5 72.5t101.5 -11.5zM1186 1305l37 -408l-54 -12l-139 178q-59 76 -107.5 102.5t-144.5 28.5l-215 6v-498h90q84 0 118 30t69 136l22 66h60v-559h-60l-22 59q-35 104 -70 136t-117 32 h-90v-496l291 9q88 2 135 28.5t98 92.5l150 186l53 -8l-45 -414h-1186v72l193 45v1071l-193 45v72h1127z" />
<glyph unicode="&#xca;" horiz-adv-x="1357" d="M692 1638l-248 -208l-55 51l246 391h129l231 -391l-55 -51zM1186 1305l37 -408l-54 -12l-139 178q-59 76 -107.5 102.5t-144.5 28.5l-215 6v-498h90q84 0 118 30t69 136l22 66h60v-559h-60l-22 59q-35 104 -70 136t-117 32h-90v-496l291 9q88 2 135 28.5t98 92.5l150 186 l53 -8l-45 -414h-1186v72l193 45v1071l-193 45v72h1127z" />
<glyph unicode="&#xcb;" horiz-adv-x="1357" d="M893 1462q-61 0 -102 43t-41 106.5t46 112t111 48.5q63 0 104.5 -42t41.5 -105.5t-46 -113t-114 -49.5zM465 1462q-63 0 -104.5 43t-41.5 106.5t46.5 112t113.5 48.5q63 0 103.5 -42t40.5 -105.5t-46 -113t-112 -49.5zM1186 1305l37 -408l-54 -12l-139 178 q-59 76 -107.5 102.5t-144.5 28.5l-215 6v-498h90q84 0 118 30t69 136l22 66h60v-559h-60l-22 59q-35 104 -70 136t-117 32h-90v-496l291 9q88 2 135 28.5t98 92.5l150 186l53 -8l-45 -414h-1186v72l193 45v1071l-193 45v72h1127z" />
<glyph unicode="&#xcc;" horiz-adv-x="864" d="M537 1479l-56 -37q-211 166 -268 248q-39 57 -33 111t53 85q47 29 100.5 11.5t88.5 -72.5q41 -72 115 -346zM588 117l194 -45v-72h-702v72l196 45v1071l-196 45v72h702v-72l-194 -45v-1071z" />
<glyph unicode="&#xcd;" horiz-adv-x="864" d="M635 1886q47 -33 52 -86t-32 -110q-53 -78 -270 -248l-53 37q74 274 114 346q35 55 87.5 72.5t101.5 -11.5zM588 117l194 -45v-72h-702v72l196 45v1071l-196 45v72h702v-72l-194 -45v-1071z" />
<glyph unicode="&#xce;" horiz-adv-x="864" d="M436 1647l-248 -209l-55 51l246 391h129l231 -391l-55 -51zM588 117l194 -45v-72h-702v72l196 45v1071l-196 45v72h702v-72l-194 -45v-1071z" />
<glyph unicode="&#xcf;" horiz-adv-x="864" d="M645 1466q-61 0 -102 43t-41 106.5t46 112t111 48.5q63 0 104.5 -42t41.5 -105.5t-46 -113t-114 -49.5zM217 1466q-63 0 -104 43t-41 106.5t46 112t113 48.5q63 0 103.5 -42t40.5 -105.5t-46 -113t-112 -49.5zM588 117l194 -45v-72h-702v72l196 45v1071l-196 45v72h702 v-72l-194 -45v-1071z" />
<glyph unicode="&#xd0;" horiz-adv-x="1562" d="M1470 664q0 -297 -208.5 -480.5t-548.5 -183.5h-643v72l196 45v499h-184v121h184v451l-196 45v72h657q340 0 541.5 -175t201.5 -466zM1128 653q0 524 -446 543l-111 2v-461h248v-121h-248v-510l154 5q195 6 299 130.5t104 411.5z" />
<glyph unicode="&#xd1;" horiz-adv-x="1605" d="M487 1466q20 166 66.5 238t136.5 72q59 0 166 -50.5t143 -50.5q31 0 51.5 25.5t47.5 93.5l82 -12q-18 -166 -64.5 -239t-136.5 -73q-61 0 -167.5 50.5t-141.5 50.5q-31 0 -51.5 -25.5t-47.5 -93.5zM256 139v1028l-170 66v72h524l144 -211l442 -643h23v714l-185 68v72h514 v-72l-176 -68v-1177h-221l-145 211l-574 811h-24v-871l184 -67v-72h-512v72z" />
<glyph unicode="&#xd2;" horiz-adv-x="1525" d="M813 1485l-55 -37q-211 166 -269 248q-39 57 -32.5 111.5t53.5 84.5q47 29 100.5 11.5t87.5 -72.5q41 -72 115 -346zM1434 653q0 -289 -183.5 -486.5t-494.5 -197.5q-319 0 -491.5 194.5t-172.5 489.5q0 289 182.5 485.5t493.5 196.5q322 0 494 -194.5t172 -487.5z M1094 653q0 283 -98.5 435.5t-250.5 152.5q-313 0 -313 -587.5t348 -587.5q139 0 226.5 151t87.5 436z" />
<glyph unicode="&#xd3;" horiz-adv-x="1525" d="M987 1892q47 -33 52 -86t-31 -110q-53 -78 -271 -248l-53 37q74 274 115 346q35 55 87 72.5t101 -11.5zM1434 653q0 -289 -183.5 -486.5t-494.5 -197.5q-319 0 -491.5 194.5t-172.5 489.5q0 289 182.5 485.5t493.5 196.5q322 0 494 -194.5t172 -487.5zM1094 653 q0 283 -98.5 435.5t-250.5 152.5q-313 0 -313 -587.5t348 -587.5q139 0 226.5 151t87.5 436z" />
<glyph unicode="&#xd4;" horiz-adv-x="1525" d="M764 1647l-248 -209l-55 51l246 391h129l231 -391l-55 -51zM1434 653q0 -289 -183.5 -486.5t-494.5 -197.5q-319 0 -491.5 194.5t-172.5 489.5q0 289 182.5 485.5t493.5 196.5q322 0 494 -194.5t172 -487.5zM1094 653q0 283 -98.5 435.5t-250.5 152.5q-313 0 -313 -587.5 t348 -587.5q139 0 226.5 151t87.5 436z" />
<glyph unicode="&#xd5;" horiz-adv-x="1525" d="M420 1466q20 166 66 238t137 72q61 0 167.5 -50.5t141.5 -50.5q31 0 51.5 25.5t46.5 93.5l82 -12q-18 -166 -64.5 -239t-136.5 -73q-61 0 -167.5 50.5t-141.5 50.5q-31 0 -51.5 -25.5t-46.5 -93.5zM1434 653q0 -289 -183.5 -486.5t-494.5 -197.5q-319 0 -491.5 194.5 t-172.5 489.5q0 289 182.5 485.5t493.5 196.5q322 0 494 -194.5t172 -487.5zM1094 653q0 283 -98.5 435.5t-250.5 152.5q-313 0 -313 -587.5t348 -587.5q139 0 226.5 151t87.5 436z" />
<glyph unicode="&#xd6;" horiz-adv-x="1525" d="M977 1466q-61 0 -102 43t-41 106.5t46 112t111 48.5q63 0 104.5 -42t41.5 -105.5t-46 -113t-114 -49.5zM549 1466q-63 0 -104.5 43t-41.5 106.5t46.5 112t113.5 48.5q63 0 103.5 -42t40.5 -105.5t-46 -113t-112 -49.5zM1434 653q0 -289 -183.5 -486.5t-494.5 -197.5 q-319 0 -491.5 194.5t-172.5 489.5q0 289 182.5 485.5t493.5 196.5q322 0 494 -194.5t172 -487.5zM1094 653q0 283 -98.5 435.5t-250.5 152.5q-313 0 -313 -587.5t348 -587.5q139 0 226.5 151t87.5 436z" />
<glyph unicode="&#xd7;" d="M616 625l285 -291l-90 -86l-279 289l-278 -289l-90 86l285 291l-285 290l90 86l278 -288l279 288l90 -86z" />
<glyph unicode="&#xd8;" horiz-adv-x="1525" d="M1434 653q0 -289 -183.5 -486.5t-494.5 -197.5q-242 0 -412 131l-145 -166l-78 58l151 172q-180 197 -180 489q0 289 182.5 485.5t493.5 196.5q238 0 414 -133l145 168l78 -59l-152 -174q181 -193 181 -484zM461 367l563 669q-94 205 -279 205q-317 0 -317 -588 q0 -161 33 -286zM1061 930l-567 -672q88 -193 286 -192q139 0 228.5 151.5t89.5 435.5q0 152 -37 277z" />
<glyph unicode="&#xd9;" horiz-adv-x="1546" d="M946 1479l-55 -37q-211 166 -268 248q-39 57 -33 111t53 85q47 29 100.5 11.5t87.5 -72.5q41 -72 115 -346zM1180 1169l-160 64v72h481v-72l-168 -64v-708q0 -225 -140 -359.5t-390 -134.5q-573 0 -574 500v721l-186 45v72h692v-72l-194 -45v-721q0 -354 329 -354 q145 0 227.5 95t82.5 253v708z" />
<glyph unicode="&#xda;" horiz-adv-x="1546" d="M1053 1886q47 -33 52 -86t-32 -110q-53 -78 -270 -248l-53 37q74 274 114 346q35 55 87.5 72.5t101.5 -11.5zM1180 1169l-160 64v72h481v-72l-168 -64v-708q0 -225 -140 -359.5t-390 -134.5q-573 0 -574 500v721l-186 45v72h692v-72l-194 -45v-721q0 -354 329 -354 q145 0 227.5 95t82.5 253v708z" />
<glyph unicode="&#xdb;" horiz-adv-x="1546" d="M844 1647l-248 -209l-55 51l245 391h129l232 -391l-55 -51zM1180 1169l-160 64v72h481v-72l-168 -64v-708q0 -225 -140 -359.5t-390 -134.5q-573 0 -574 500v721l-186 45v72h692v-72l-194 -45v-721q0 -354 329 -354q145 0 227.5 95t82.5 253v708z" />
<glyph unicode="&#xdc;" horiz-adv-x="1546" d="M1051 1466q-61 0 -102.5 43t-41.5 106.5t46 112t112 48.5q63 0 104 -42t41 -105.5t-45.5 -113t-113.5 -49.5zM623 1466q-63 0 -104.5 43t-41.5 106.5t46 112t114 48.5q63 0 103 -42t40 -105.5t-45.5 -113t-111.5 -49.5zM1180 1169l-160 64v72h481v-72l-168 -64v-708 q0 -225 -140 -359.5t-390 -134.5q-573 0 -574 500v721l-186 45v72h692v-72l-194 -45v-721q0 -354 329 -354q145 0 227.5 95t82.5 253v708z" />
<glyph unicode="&#xdd;" horiz-adv-x="1452" d="M1042 1886q47 -33 52.5 -86t-31.5 -110q-53 -78 -270 -248l-54 37q74 274 115 346q35 55 87 72.5t101 -11.5zM1278 1169l-377 -598v-444l203 -55v-72h-715v72l201 55v399l-383 643l-180 64v72h669v-66l-153 -51l293 -508l270 494l-133 65v66h469v-72z" />
<glyph unicode="&#xde;" horiz-adv-x="1320" d="M1241 668q0 -188 -134 -293t-357 -105q-74 0 -189 13v-166l213 -45v-72h-715v72l193 45v1071l-193 45v72h715v-72l-213 -45v-156q78 12 164 12q240 0 378 -100t138 -276zM918 664q0 268 -269 278q-80 0 -88 -2v-557q14 -2 84 -2q273 0 273 283z" />
<glyph unicode="&#xdf;" horiz-adv-x="1345" d="M1280 317q0 -150 -99.5 -249t-256.5 -99q-125 0 -193.5 51.5t-68.5 131.5q0 51 32.5 87.5t81.5 36.5q80 0 107.5 -67.5t-6.5 -145.5q25 -10 61 -10q55 0 92 44t37 118q0 111 -103.5 204t-334.5 199v41q129 154 174 256.5t45 225.5q0 113 -52.5 180.5t-136.5 67.5 q-178 0 -178 -279v-1004l90 -49v-57h-491v63l131 48v677h-184v62l184 78v30q0 266 195 433q150 127 344 127q162 0 264 -91.5t102 -234.5q0 -111 -60.5 -201t-185.5 -196v-19q213 -106 311.5 -211t98.5 -248z" />
<glyph unicode="&#xe0;" horiz-adv-x="1032" d="M629 1098l-56 -37q-211 166 -268 248q-39 57 -32.5 111.5t53.5 84.5q47 29 100 11.5t88 -72.5q41 -72 115 -346zM877 672v-475q0 -55 32.5 -84t116.5 -31l6 -55q-125 -47 -231 -47q-141 0 -164 135l-27 4q-143 -137 -288 -137q-113 0 -181.5 59t-68.5 164q0 281 549 319 v109q0 115 -48.5 160t-164.5 45q-55 0 -101 -19q55 -45 55 -108q0 -51 -33.5 -85t-90.5 -34q-55 0 -92 37t-37 90q0 102 135 169.5t305 67.5q168 0 248 -67t80 -217zM621 180v275q-297 -14 -297 -187q0 -141 145 -141q70 0 152 53z" />
<glyph unicode="&#xe1;" horiz-adv-x="1032" d="M705 1505q47 -33 52 -86t-32 -110q-53 -78 -270 -248l-54 37q74 274 115 346q35 55 87.5 72.5t101.5 -11.5zM877 672v-475q0 -55 32.5 -84t116.5 -31l6 -55q-125 -47 -231 -47q-141 0 -164 135l-27 4q-143 -137 -288 -137q-113 0 -181.5 59t-68.5 164q0 281 549 319v109 q0 115 -48.5 160t-164.5 45q-55 0 -101 -19q55 -45 55 -108q0 -51 -33.5 -85t-90.5 -34q-55 0 -92 37t-37 90q0 102 135 169.5t305 67.5q168 0 248 -67t80 -217zM621 180v275q-297 -14 -297 -187q0 -141 145 -141q70 0 152 53z" />
<glyph unicode="&#xe2;" horiz-adv-x="1032" d="M524 1266l-248 -209l-55 51l246 391h129l231 -391l-55 -51zM877 672v-475q0 -55 32.5 -84t116.5 -31l6 -55q-125 -47 -231 -47q-141 0 -164 135l-27 4q-143 -137 -288 -137q-113 0 -181.5 59t-68.5 164q0 281 549 319v109q0 115 -48.5 160t-164.5 45q-55 0 -101 -19 q55 -45 55 -108q0 -51 -33.5 -85t-90.5 -34q-55 0 -92 37t-37 90q0 102 135 169.5t305 67.5q168 0 248 -67t80 -217zM621 180v275q-297 -14 -297 -187q0 -141 145 -141q70 0 152 53z" />
<glyph unicode="&#xe3;" horiz-adv-x="1032" d="M172 1085q20 166 66.5 238t136.5 72q59 0 165.5 -50.5t143.5 -50.5q31 0 51.5 26t46.5 93l82 -12q-18 -166 -64 -238.5t-136 -72.5q-61 0 -168 50t-142 50q-31 0 -51 -25.5t-47 -93.5zM877 672v-475q0 -55 32.5 -84t116.5 -31l6 -55q-125 -47 -231 -47q-141 0 -164 135 l-27 4q-143 -137 -288 -137q-113 0 -181.5 59t-68.5 164q0 281 549 319v109q0 115 -48.5 160t-164.5 45q-55 0 -101 -19q55 -45 55 -108q0 -51 -33.5 -85t-90.5 -34q-55 0 -92 37t-37 90q0 102 135 169.5t305 67.5q168 0 248 -67t80 -217zM621 180v275q-297 -14 -297 -187 q0 -141 145 -141q70 0 152 53z" />
<glyph unicode="&#xe4;" horiz-adv-x="1032" d="M719 1085q-61 0 -102.5 43t-41.5 106.5t46.5 112t111.5 48.5q63 0 104.5 -42t41.5 -105.5t-46 -113t-114 -49.5zM291 1085q-63 0 -104.5 43t-41.5 106.5t46.5 112t113.5 48.5q63 0 103.5 -42t40.5 -105.5t-46 -113t-112 -49.5zM877 672v-475q0 -55 32.5 -84t116.5 -31 l6 -55q-125 -47 -231 -47q-141 0 -164 135l-27 4q-143 -137 -288 -137q-113 0 -181.5 59t-68.5 164q0 281 549 319v109q0 115 -48.5 160t-164.5 45q-55 0 -101 -19q55 -45 55 -108q0 -51 -33.5 -85t-90.5 -34q-55 0 -92 37t-37 90q0 102 135 169.5t305 67.5q168 0 248 -67 t80 -217zM621 180v275q-297 -14 -297 -187q0 -141 145 -141q70 0 152 53z" />
<glyph unicode="&#xe5;" horiz-adv-x="1032" d="M756 1290q0 -90 -70 -155.5t-176 -65.5q-104 0 -170 62.5t-66 156.5q0 90 70 153.5t176.5 63.5t171 -60.5t64.5 -154.5zM877 672v-475q0 -55 32.5 -84t116.5 -31l6 -55q-125 -47 -231 -47q-141 0 -164 135l-27 4q-143 -137 -288 -137q-113 0 -181.5 59t-68.5 164 q0 281 549 319v109q0 115 -48.5 160t-164.5 45q-55 0 -101 -19q55 -45 55 -108q0 -51 -33.5 -85t-90.5 -34q-55 0 -92 37t-37 90q0 102 135 169.5t305 67.5q168 0 248 -67t80 -217zM627 1290q0 72 -33 113t-82 41q-47 0 -78 -42t-31 -116q0 -72 33 -112.5t80 -40.5 q49 0 80 40.5t31 116.5zM621 180v275q-297 -14 -297 -187q0 -141 145 -141q70 0 152 53z" />
<glyph unicode="&#xe6;" horiz-adv-x="1587" d="M1524 469h-635q6 -342 303 -342q125 0 295 63l24 -49q-211 -174 -413 -174q-244 0 -375 164h-23q-182 -150 -358 -149q-121 0 -195.5 58t-74.5 165q0 281 549 319v107q0 115 -48.5 160t-164.5 45q-61 0 -101 -17q55 -49 55 -110q0 -51 -33.5 -84t-90.5 -33q-55 0 -92 37 t-37 88q0 104 134 171.5t308 67.5q199 0 262 -131q125 131 291 131q221 0 324.5 -136t95.5 -351zM1090 870q-86 0 -138.5 -85t-60.5 -238l369 18q-2 305 -170 305zM678 197q-57 106 -57 258q-297 -14 -297 -187q0 -66 43 -103.5t116 -37.5q93 0 195 70z" />
<glyph unicode="&#xe7;" horiz-adv-x="991" d="M346 479q0 -166 90 -255t236 -89q100 0 233 55l25 -53q-113 -113 -242 -149l-160 -133q82 -12 134.5 -60.5t52.5 -128.5q0 -94 -71 -155.5t-179 -61.5q-90 0 -145.5 29.5t-55.5 79.5q0 31 19.5 52t50.5 21t49 -22.5t18 -50.5q0 -20 -6 -39q23 -8 58 -8q45 0 78.5 28.5 t33.5 86t-38 88t-101 30.5q-20 0 -53 -6l-37 41l225 188h-16q-203 0 -340 132t-137 341q0 217 151.5 366.5t378.5 149.5q150 0 241 -64.5t91 -158.5q0 -63 -40 -105t-99 -42q-68 0 -108 45t-40 114q0 49 23 109q-25 4 -35 4q-121 -4 -203 -105.5t-82 -273.5z" />
<glyph unicode="&#xe8;" horiz-adv-x="1036" d="M633 1104l-55 -37q-211 166 -269 248q-39 57 -32.5 111.5t53.5 84.5q47 29 100 11.5t88 -72.5q41 -72 115 -346zM973 469h-635q6 -342 305 -342q125 0 293 63l27 -49q-211 -174 -414 -174q-219 0 -350 131t-131 346q0 217 146 364.5t343 147.5q219 0 321.5 -136 t94.5 -351zM340 547l371 18q-6 305 -172 305q-84 0 -137.5 -85.5t-61.5 -237.5z" />
<glyph unicode="&#xe9;" horiz-adv-x="1036" d="M750 1511q47 -33 52 -86t-32 -110q-53 -78 -270 -248l-54 37q74 274 115 346q35 55 87.5 72.5t101.5 -11.5zM973 469h-635q6 -342 305 -342q125 0 293 63l27 -49q-211 -174 -414 -174q-219 0 -350 131t-131 346q0 217 146 364.5t343 147.5q219 0 321.5 -136t94.5 -351z M340 547l371 18q-6 305 -172 305q-84 0 -137.5 -85.5t-61.5 -237.5z" />
<glyph unicode="&#xea;" horiz-adv-x="1036" d="M553 1266l-248 -209l-55 51l246 391h129l231 -391l-55 -51zM973 469h-635q6 -342 305 -342q125 0 293 63l27 -49q-211 -174 -414 -174q-219 0 -350 131t-131 346q0 217 146 364.5t343 147.5q219 0 321.5 -136t94.5 -351zM340 547l371 18q-6 305 -172 305 q-84 0 -137.5 -85.5t-61.5 -237.5z" />
<glyph unicode="&#xeb;" horiz-adv-x="1036" d="M766 1085q-61 0 -102 43t-41 106.5t46 112t111 48.5q63 0 104.5 -42t41.5 -105.5t-46 -113t-114 -49.5zM338 1085q-63 0 -104 43t-41 106.5t46 112t113 48.5q63 0 103.5 -42t40.5 -105.5t-46 -113t-112 -49.5zM973 469h-635q6 -342 305 -342q125 0 293 63l27 -49 q-211 -174 -414 -174q-219 0 -350 131t-131 346q0 217 146 364.5t343 147.5q219 0 321.5 -136t94.5 -351zM340 547l371 18q-6 305 -172 305q-84 0 -137.5 -85.5t-61.5 -237.5z" />
<glyph unicode="&#xec;" horiz-adv-x="618" d="M420 1098l-55 -37q-211 166 -269 248q-39 57 -32.5 111.5t53.5 84.5q47 29 100 11.5t88 -72.5q41 -72 115 -346zM184 111v626l-129 86v58l367 82l35 -21v-831l127 -48v-63h-535v63z" />
<glyph unicode="&#xed;" horiz-adv-x="618" d="M500 1505q47 -33 52 -86t-32 -110q-53 -78 -270 -248l-53 37q74 274 114 346q35 55 87.5 72.5t101.5 -11.5zM184 111v626l-129 86v58l367 82l35 -21v-831l127 -48v-63h-535v63z" />
<glyph unicode="&#xee;" horiz-adv-x="618" d="M303 1266l-248 -209l-55 51l246 391h129l231 -391l-55 -51zM184 111v626l-129 86v58l367 82l35 -21v-831l127 -48v-63h-535v63z" />
<glyph unicode="&#xef;" horiz-adv-x="618" d="M518 1085q-61 0 -102 43t-41 106.5t46 112t111 48.5q63 0 104.5 -42t41.5 -105.5t-46 -113t-114 -49.5zM90 1085q-63 0 -104 43t-41 106.5t46 112t113 48.5q63 0 103.5 -42t40.5 -105.5t-46 -113t-112 -49.5zM184 111v626l-129 86v58l367 82l35 -21v-831l127 -48v-63 h-535v63z" />
<glyph unicode="&#xf0;" horiz-adv-x="1142" d="M1061 594q0 -289 -146.5 -457t-375.5 -168q-203 0 -334 136.5t-131 365.5q0 207 118.5 348.5t303.5 141.5q106 0 219 -76l18 10q-39 160 -151 291l-201 -86l-41 100l162 68q-102 100 -254 180l33 74q217 -70 381 -185l237 101l41 -99l-180 -77q301 -265 301 -668z M776 532q0 152 -24 250q-74 37 -156 37q-113 0 -178.5 -96t-65.5 -277q0 -182 60.5 -280t150.5 -98q102 0 157.5 119.5t55.5 344.5z" />
<glyph unicode="&#xf1;" horiz-adv-x="1206" d="M268 1085q20 166 66.5 238t136.5 72q61 0 167.5 -50.5t141.5 -50.5q31 0 51.5 26t47.5 93l82 -12q-18 -166 -64.5 -238.5t-136.5 -72.5q-61 0 -168 50t-141 50q-31 0 -51.5 -25.5t-47.5 -93.5zM1059 676v-565l131 -48v-63h-512v63l110 48v471q0 195 -153 194 q-74 0 -182 -57v-608l108 -48v-63h-510v63l129 48v626l-129 86v58l355 82l38 -25l-14 -147l25 -5q184 170 344 170q125 0 192.5 -75.5t67.5 -204.5z" />
<glyph unicode="&#xf2;" horiz-adv-x="1136" d="M668 1104l-56 -37q-211 166 -268 248q-39 57 -33 111.5t54 84.5q47 29 100 11.5t88 -72.5q41 -72 115 -346zM1069 465q0 -201 -138 -349.5t-376 -148.5q-233 0 -360 140.5t-127 355.5q0 201 139 347t374.5 146t361.5 -139t126 -352zM776 465q0 190 -54 292.5t-157 102.5 q-98 0 -151.5 -104.5t-53.5 -294.5q0 -188 55.5 -291.5t156 -103.5t152.5 103t52 296z" />
<glyph unicode="&#xf3;" horiz-adv-x="1136" d="M768 1511q47 -33 52 -86t-32 -110q-53 -78 -270 -248l-53 37q74 274 115 346q35 55 87 72.5t101 -11.5zM1069 465q0 -201 -138 -349.5t-376 -148.5q-233 0 -360 140.5t-127 355.5q0 201 139 347t374.5 146t361.5 -139t126 -352zM776 465q0 190 -54 292.5t-157 102.5 q-98 0 -151.5 -104.5t-53.5 -294.5q0 -188 55.5 -291.5t156 -103.5t152.5 103t52 296z" />
<glyph unicode="&#xf4;" horiz-adv-x="1136" d="M567 1266l-248 -209l-55 51l246 391h129l231 -391l-55 -51zM1069 465q0 -201 -138 -349.5t-376 -148.5q-233 0 -360 140.5t-127 355.5q0 201 139 347t374.5 146t361.5 -139t126 -352zM776 465q0 190 -54 292.5t-157 102.5q-98 0 -151.5 -104.5t-53.5 -294.5 q0 -188 55.5 -291.5t156 -103.5t152.5 103t52 296z" />
<glyph unicode="&#xf5;" horiz-adv-x="1136" d="M221 1085q20 166 66.5 238t136.5 72q59 0 165.5 -50.5t143.5 -50.5q31 0 51.5 26t46.5 93l82 -12q-18 -166 -64 -238.5t-136 -72.5q-61 0 -168 50t-142 50q-31 0 -51 -25.5t-47 -93.5zM1069 465q0 -201 -138 -349.5t-376 -148.5q-233 0 -360 140.5t-127 355.5 q0 201 139 347t374.5 146t361.5 -139t126 -352zM776 465q0 190 -54 292.5t-157 102.5q-98 0 -151.5 -104.5t-53.5 -294.5q0 -188 55.5 -291.5t156 -103.5t152.5 103t52 296z" />
<glyph unicode="&#xf6;" horiz-adv-x="1136" d="M780 1085q-61 0 -102 43t-41 106.5t46 112t112 48.5q63 0 104 -42t41 -105.5t-46 -113t-114 -49.5zM352 1085q-63 0 -104 43t-41 106.5t46 112t114 48.5q63 0 103 -42t40 -105.5t-46 -113t-112 -49.5zM1069 465q0 -201 -138 -349.5t-376 -148.5q-233 0 -360 140.5 t-127 355.5q0 201 139 347t374.5 146t361.5 -139t126 -352zM776 465q0 190 -54 292.5t-157 102.5q-98 0 -151.5 -104.5t-53.5 -294.5q0 -188 55.5 -291.5t156 -103.5t152.5 103t52 296z" />
<glyph unicode="&#xf7;" d="M532 1075q53 0 92.5 -39t39.5 -94q0 -53 -39 -92t-93 -39q-55 0 -94 39t-39 92q0 55 39 94t94 39zM958 567h-854v121h854v-121zM532 444q53 0 92.5 -38.5t39.5 -92.5q0 -55 -39 -94t-93 -39q-55 0 -94 39t-39 94q0 53 39 92t94 39z" />
<glyph unicode="&#xf8;" horiz-adv-x="1136" d="M944 807q125 -141 125 -342t-138 -349.5t-376 -148.5q-166 0 -289 86l-98 -108l-70 57l99 113q-129 139 -129 348q0 201 139 347t375 146q170 0 290 -86l91 103l77 -60zM739 731q-57 133 -174 133q-100 0 -156.5 -106.5t-56.5 -296.5q0 -100 17 -164zM784 465 q0 92 -14 156l-371 -428q55 -131 172 -132q102 0 157.5 105.5t55.5 298.5z" />
<glyph unicode="&#xf9;" horiz-adv-x="1196" d="M680 1098l-55 -37q-211 166 -269 248q-39 57 -32.5 111.5t53.5 84.5q47 29 100 11.5t88 -72.5q41 -72 115 -346zM1026 182l129 -80v-55l-354 -82l-39 23l14 147l-24 4q-182 -170 -344 -170q-125 0 -193 78t-68 205v489l-129 86v54l361 82l39 -25v-592q0 -195 153 -194 q78 0 183 55v534l-129 86v54l362 82l39 -25v-756z" />
<glyph unicode="&#xfa;" horiz-adv-x="1196" d="M780 1505q47 -33 52.5 -86t-31.5 -110q-53 -78 -271 -248l-53 37q74 274 115 346q35 55 87 72.5t101 -11.5zM1026 182l129 -80v-55l-354 -82l-39 23l14 147l-24 4q-182 -170 -344 -170q-125 0 -193 78t-68 205v489l-129 86v54l361 82l39 -25v-592q0 -195 153 -194 q78 0 183 55v534l-129 86v54l362 82l39 -25v-756z" />
<glyph unicode="&#xfb;" horiz-adv-x="1196" d="M584 1266l-248 -209l-55 51l245 391h129l232 -391l-56 -51zM1026 182l129 -80v-55l-354 -82l-39 23l14 147l-24 4q-182 -170 -344 -170q-125 0 -193 78t-68 205v489l-129 86v54l361 82l39 -25v-592q0 -195 153 -194q78 0 183 55v534l-129 86v54l362 82l39 -25v-756z" />
<glyph unicode="&#xfc;" horiz-adv-x="1196" d="M788 1085q-61 0 -102 43t-41 106.5t46 112t112 48.5q63 0 104 -42t41 -105.5t-46 -113t-114 -49.5zM360 1085q-63 0 -104 43t-41 106.5t46 112t114 48.5q63 0 103 -42t40 -105.5t-46 -113t-112 -49.5zM1026 182l129 -80v-55l-354 -82l-39 23l14 147l-24 4 q-182 -170 -344 -170q-125 0 -193 78t-68 205v489l-129 86v54l361 82l39 -25v-592q0 -195 153 -194q78 0 183 55v534l-129 86v54l362 82l39 -25v-756z" />
<glyph unicode="&#xfd;" horiz-adv-x="1089" d="M809 1505q47 -33 52 -86t-32 -110q-53 -78 -270 -248l-53 37q74 274 115 346q35 55 87 72.5t101 -11.5zM973 791l-369 -889q-76 -180 -157.5 -254t-200.5 -74q-88 0 -136.5 40t-48.5 101q0 53 39 89t95 36q92 0 161 -112q63 57 107 145l35 72l-383 864l-125 51v66h553 v-62l-125 -53l209 -543h10l186 533l-123 63v62h402v-66z" />
<glyph unicode="&#xfe;" horiz-adv-x="1161" d="M1087 489q0 -215 -146 -368.5t-386 -153.5q-66 0 -143 17v-297l155 -49v-64h-557v64l131 49v1589l-143 88v57l377 97l37 -23v-661l26 -5q141 127 285 127q152 0 258 -129t106 -338zM803 428q0 354 -246 354q-66 0 -145 -37v-581q82 -100 188 -101q88 0 145.5 90.5 t57.5 274.5z" />
<glyph unicode="&#xff;" horiz-adv-x="1089" d="M807 1085q-61 0 -102 43t-41 106.5t46 112t111 48.5q63 0 104.5 -42t41.5 -105.5t-46 -113t-114 -49.5zM379 1085q-63 0 -104.5 43t-41.5 106.5t46.5 112t113.5 48.5q63 0 103.5 -42t40.5 -105.5t-46 -113t-112 -49.5zM973 791l-369 -889q-76 -180 -157.5 -254 t-200.5 -74q-88 0 -136.5 40t-48.5 101q0 53 39 89t95 36q92 0 161 -112q63 57 107 145l35 72l-383 864l-125 51v66h553v-62l-125 -53l209 -543h10l186 533l-123 63v62h402v-66z" />
<glyph unicode="&#x152;" horiz-adv-x="2093" d="M2025 414l-45 -414h-1144q-340 0 -542 175t-202 466q0 297 209 480.5t549 183.5h1071l37 -408l-53 -12l-140 178q-59 76 -107 102.5t-145 28.5l-215 6v-498h91q84 0 117.5 30t68.5 136l22 66h60v-559h-60l-22 59q-35 104 -70 136t-116 32h-91v-496l291 9q88 2 135.5 28.5 t98.5 92.5l149 186zM434 651q0 -524 447 -542l108 -3v1090l-151 -4q-195 -6 -299.5 -131t-104.5 -410z" />
<glyph unicode="&#x153;" horiz-adv-x="1746" d="M1049 469q4 -342 303 -342q125 0 295 63l24 -49q-211 -174 -405 -174q-223 0 -355 160q-145 -160 -364 -160q-229 0 -354 141.5t-125 354.5q0 201 137 347t368 146q227 0 363 -163q143 164 338 163q213 0 315.5 -136t93.5 -351h-634zM1051 547l368 18q-2 305 -170 305 q-86 0 -138 -84.5t-60 -238.5zM776 465q0 190 -54 292.5t-157 102.5q-98 0 -151.5 -104.5t-53.5 -294.5q0 -188 55.5 -291.5t156 -103.5t152.5 103t52 296z" />
<glyph unicode="&#x178;" horiz-adv-x="1452" d="M1024 1466q-61 0 -102 43t-41 106.5t46 112t111 48.5q63 0 104.5 -42t41.5 -105.5t-46 -113t-114 -49.5zM596 1466q-63 0 -104 43t-41 106.5t46 112t113 48.5q63 0 103.5 -42t40.5 -105.5t-46 -113t-112 -49.5zM1278 1169l-377 -598v-444l203 -55v-72h-715v72l201 55v399 l-383 643l-180 64v72h669v-66l-153 -51l293 -508l270 494l-133 65v66h469v-72z" />
<glyph unicode="&#x2c6;" horiz-adv-x="638" d="M319 1266l-247 -209l-56 51l246 391h129l232 -391l-56 -51z" />
<glyph unicode="&#x2dc;" horiz-adv-x="704" d="M8 1085q20 166 66.5 238t136.5 72q59 0 165.5 -50.5t143.5 -50.5q31 0 51.5 26t46.5 93l82 -12q-18 -166 -64 -238.5t-136 -72.5q-61 0 -168 50t-142 50q-31 0 -51 -25.5t-47 -93.5z" />
<glyph unicode="&#x3bc;" d="M616 625l285 -291l-90 -86l-279 289l-278 -289l-90 86l285 291l-285 290l90 86l278 -288l279 288l90 -86z" />
<glyph unicode="&#x2000;" horiz-adv-x="954" />
<glyph unicode="&#x2001;" horiz-adv-x="1908" />
<glyph unicode="&#x2002;" horiz-adv-x="954" />
<glyph unicode="&#x2003;" horiz-adv-x="1908" />
<glyph unicode="&#x2004;" horiz-adv-x="634" />
<glyph unicode="&#x2005;" horiz-adv-x="477" />
<glyph unicode="&#x2006;" horiz-adv-x="317" />
<glyph unicode="&#x2007;" horiz-adv-x="317" />
<glyph unicode="&#x2008;" horiz-adv-x="237" />
<glyph unicode="&#x2009;" horiz-adv-x="380" />
<glyph unicode="&#x200a;" horiz-adv-x="104" />
<glyph unicode="&#x2010;" horiz-adv-x="735" d="M647 387h-559v203h559v-203z" />
<glyph unicode="&#x2011;" horiz-adv-x="735" d="M647 387h-559v203h559v-203z" />
<glyph unicode="&#x2012;" horiz-adv-x="735" d="M647 387h-559v203h559v-203z" />
<glyph unicode="&#x2013;" horiz-adv-x="1095" d="M1008 440h-920v146h920v-146z" />
<glyph unicode="&#x2014;" horiz-adv-x="1607" d="M1520 440h-1432v146h1432v-146z" />
<glyph unicode="&#x2018;" horiz-adv-x="497" d="M410 848q0 -66 -46.5 -118t-111.5 -52q-84 0 -132 54t-48 153q0 270 342 465l43 -50q-203 -180 -228 -307l15 -14l10 2q12 4 35 4q53 0 87 -40t34 -97z" />
<glyph unicode="&#x2019;" horiz-adv-x="497" d="M428 1130q0 -133 -90 -252.5t-252 -213.5l-45 51q203 176 227 307l-14 14l-10 -2q-18 -6 -35 -6q-53 0 -87 40t-34 97q0 68 46 119t112 51q84 0 133 -54.5t49 -150.5z" />
<glyph unicode="&#x201a;" horiz-adv-x="497" d="M420 94q0 -272 -342 -465l-43 49q203 176 227 308l-14 12l-10 -2q-12 -4 -35 -4q-53 0 -87 40t-34 97q0 68 46 118t112 50q84 0 132 -53.5t48 -149.5z" />
<glyph unicode="&#x201c;" horiz-adv-x="954" d="M866 848q0 -66 -46 -118t-111 -52q-84 0 -132.5 54t-48.5 153q0 268 342 465l45 -50q-203 -178 -229 -307l14 -14l11 2q12 4 34 4q53 0 87 -40t34 -97zM410 848q0 -66 -46.5 -118t-111.5 -52q-84 0 -132 54t-48 153q0 270 342 465l43 -50q-203 -180 -228 -307l15 -14 l10 2q12 4 35 4q53 0 87 -40t34 -97z" />
<glyph unicode="&#x201d;" horiz-adv-x="954" d="M885 1130q0 -133 -90 -252.5t-252 -213.5l-45 51q203 176 227 307l-14 14l-11 -2q-18 -6 -34 -6q-53 0 -87 40t-34 97q0 68 47 119t113 51q82 0 131 -54.5t49 -150.5zM428 1130q0 -133 -90 -252.5t-252 -213.5l-45 51q203 176 227 307l-14 14l-10 -2q-18 -6 -35 -6 q-53 0 -87 40t-34 97q0 68 46 119t112 51q84 0 133 -54.5t49 -150.5z" />
<glyph unicode="&#x201e;" horiz-adv-x="933" d="M879 94q0 -270 -342 -465l-45 49q203 176 227 308l-14 12l-11 -2q-12 -4 -35 -4q-53 0 -86.5 40t-33.5 97q0 68 46 118t111 50q84 0 133.5 -53.5t49.5 -149.5zM420 94q0 -272 -342 -465l-43 49q203 176 227 308l-14 12l-10 -2q-12 -4 -35 -4q-53 0 -87 40t-34 97 q0 68 46 118t112 50q84 0 132 -53.5t48 -149.5z" />
<glyph unicode="&#x2022;" horiz-adv-x="1015" d="M840 653q0 -139 -97.5 -236.5t-236.5 -97.5t-236.5 97.5t-97.5 236.5q0 137 97.5 234.5t236.5 97.5t236.5 -97.5t97.5 -234.5z" />
<glyph unicode="&#x2026;" horiz-adv-x="1472" d="M1391 129q0 -68 -48.5 -115t-113.5 -47q-68 0 -116 47t-48 115q0 66 48 114t116 48q66 0 114 -48t48 -114zM899 129q0 -68 -48 -115t-114 -47q-68 0 -116 47t-48 115q0 66 49.5 114t115 48t113.5 -48t48 -114zM408 129q0 -68 -48.5 -115t-113.5 -47q-68 0 -116 47 t-48 115q0 66 49 114t114.5 48t114 -48t48.5 -114z" />
<glyph unicode="&#x202f;" horiz-adv-x="380" />
<glyph unicode="&#x2039;" horiz-adv-x="649" d="M332 459l211 -367l-64 -45l-413 385v53l413 385l64 -47z" />
<glyph unicode="&#x203a;" horiz-adv-x="649" d="M584 485v-53l-414 -385l-64 47l211 365l-211 366l64 45z" />
<glyph unicode="&#x205f;" horiz-adv-x="477" />
<glyph unicode="&#x2122;" horiz-adv-x="1785" d="M1616 1225v-428l90 -29v-51h-324v51l74 29v436h-18l-185 -516h-110l-176 516h-21v-430l70 -35v-51h-234v51l78 35v418l-78 30v54h324l29 -103l100 -313h12l107 317l26 99h326v-54zM719 1094l-43 -7l-68 93q-29 41 -46 53t-48 12h-33v-448l94 -29v-51h-346v51l95 29v448 h-41q-31 0 -47.5 -12t-47.5 -53l-67 -93l-41 7l26 211h586z" />
<glyph unicode="&#xe000;" horiz-adv-x="925" d="M0 925h925v-925h-925v925z" />
<glyph unicode="&#xfb01;" horiz-adv-x="1259" d="M481 788v-677l125 -48v-63h-526v63l131 48v677h-184v62l184 78v28q0 295 205 451q147 111 350 111q131 0 210 -59.5t79 -139.5q0 -63 -38 -101t-97 -38q-164 0 -189 239q-250 -29 -250 -393v-104h408l174 41l35 -21v-831l127 -48v-63h-516v63l116 48v677h-344z" />
<glyph unicode="&#xfb02;" horiz-adv-x="1259" d="M1098 111l127 -48v-63h-516v63l116 48v677h-344v-677l125 -48v-63h-526v63l131 48v677h-184v62l184 78v28q0 295 205 451q147 111 350 111q102 0 174 -39l119 39l39 -23v-1384zM825 922v288q-76 51 -94 209q-250 -29 -250 -393v-104h344z" />
<glyph unicode="&#xfb03;" horiz-adv-x="2093" d="M1620 1310.5q0 71.5 50.5 126t126.5 54.5q74 0 122 -48t48 -120t-51.5 -125t-127.5 -53q-72 0 -120 47t-48 118.5zM1659 737l-129 86v58l367 82l35 -21v-831l127 -48v-63h-535v63l135 48v626zM1474 788h-256v-677l162 -48v-63h-563v63l131 48v677h-184v62l184 78v82 q0 281 195 417q131 90 292 91q104 0 165 -47.5t61 -112.5q0 -59 -35 -93t-92 -34q-127 0 -197 178q-63 -39 -91 -115.5t-28 -222.5v-149h256v-134zM737 788h-256v-677l162 -48v-63h-563v63l131 48v677h-184v62l184 78v82q0 281 195 417q131 90 292 91q104 0 165 -47.5 t61 -112.5q0 -59 -35 -93t-92 -34q-127 0 -197 178q-63 -39 -91 -115.5t-28 -222.5v-149h256v-134z" />
<glyph unicode="&#xfb04;" horiz-adv-x="2084" d="M1924 111l126 -48v-63h-534v63l135 48v1165l-141 88v57l375 97l39 -23v-1384zM1474 788h-256v-677l162 -48v-63h-563v63l131 48v677h-184v62l184 78v82q0 281 195 417q131 90 292 91q104 0 165 -47.5t61 -112.5q0 -59 -35 -93t-92 -34q-127 0 -197 178 q-63 -39 -91 -115.5t-28 -222.5v-149h256v-134zM737 788h-256v-677l162 -48v-63h-563v63l131 48v677h-184v62l184 78v82q0 281 195 417q131 90 292 91q104 0 165 -47.5t61 -112.5q0 -59 -35 -93t-92 -34q-127 0 -197 178q-63 -39 -91 -115.5t-28 -222.5v-149h256v-134z" />
</font>
</defs>
</svg>
