<?xml version="1.0" standalone="no"?>
<!DOCTYPE svg PUBLIC "-//W3C//DTD SVG 1.1//EN" "http://www.w3.org/Graphics/SVG/1.1/DTD/svg11.dtd" >
<svg xmlns="http://www.w3.org/2000/svg">
<metadata>
This is a custom SVG webfont generated by Font Squirrel.
Copyright   : Copyright C 19962005 Hoefler  FrereJones Inc wwwtypographycom
</metadata>
<defs>
<font id="webfontrsTO2nBU" horiz-adv-x="925" >
<font-face units-per-em="2048" ascent="1638" descent="-410" />
<missing-glyph horiz-adv-x="430" />
<glyph unicode=" "  horiz-adv-x="430" />
<glyph unicode="&#x09;" horiz-adv-x="430" />
<glyph unicode="&#xa0;" horiz-adv-x="430" />
<glyph unicode="!" horiz-adv-x="565" d="M264 354l-43 6q20 729 41 861q18 115 109 114q111 0 110 -129q0 -94 -217 -852zM203 -31q-51 0 -87 36t-36 87t36 87t87 36t87 -36t36 -87t-36 -87t-87 -36z" />
<glyph unicode="&#x22;" horiz-adv-x="698" d="M424 897l-23 10l56 150q68 186 88 221q31 59 78 59q29 0 46 -16t17 -41q0 -29 -16 -55q-14 -27 -146 -197zM162 897l-23 10l56 150q68 186 88 221q31 59 77 59q29 0 46.5 -16t17.5 -41q0 -29 -16 -55q-14 -27 -146 -197z" />
<glyph unicode="#" horiz-adv-x="1206" d="M317 94l-71 21l86 293h-2h-2h-2h-2h-2h-3h-2h-2h-2h-2h-2h-2h-2h-2h-2h-2h-2h-2h-2h-2h-2h-2h-2h-2h-2h-2h-3h-4h-2h-2h-2h-2h-4h-2h-2h-4h-2h-2h-4h-2h-2h-4h-3h-4h-2h-4h-2h-2h-4h-2h-4h-2h-4h-4h-2h-4h-3h-4h-4h-2h-4h-2h-4h-4h-2h-4h-4h-4h-2h-5h-4h-4h-2h-4h-4h-4 h-2h-21v67h252l47 158l35 129h-270v67h289l92 330l69 -20l-92 -310h281l92 330l70 -20l-93 -310h234v-67h-254l-43 -146l-39 -141h272v-67h-290l-84 -314l-72 21l86 293h-281zM420 475h282l48 158l34 129h-282l-43 -146z" />
<glyph unicode="$" horiz-adv-x="1034" d="M422 -203l-76 8q29 164 29 166q-180 12 -324 90l47 332l31 6q90 -319 258 -364l90 508q-74 39 -108.5 61.5t-87 65.5t-75 96t-22.5 121q0 168 122 278.5t286 118.5l22 148l76 -11l-24 -141q172 -14 262 -76l-39 -282l-33 -7q-45 137 -92 208t-111 91l-84 -489l43 -23 q35 -18 45 -24l42 -25q32 -18 43 -27l36 -29q25 -19 34 -33.5t25.5 -37t23.5 -44t12.5 -49t5.5 -56.5q0 -174 -132.5 -283.5t-297.5 -122.5zM510 758l74 469q-90 0 -160 -66.5t-70 -175.5q0 -131 156 -227zM457 27q113 0 182.5 67.5t69.5 179.5q0 80 -45.5 134.5 t-131.5 103.5z" />
<glyph unicode="%" horiz-adv-x="1400" d="M356 623q-109 0 -174 67.5t-65 188.5q0 158 101 282.5t263 124.5q109 0 174.5 -67.5t65.5 -188.5q0 -158 -101.5 -282.5t-263.5 -124.5zM236 -63l-54 40l498 668l489 674l54 -43l-498 -666zM924 -31q-109 0 -174.5 67.5t-65.5 188.5q0 158 101.5 283t263.5 125 q109 0 174 -67.5t65 -188.5q0 -158 -101 -283t-263 -125zM395 666q88 0 134 116.5t46 241.5q0 96 -33.5 157.5t-99.5 61.5q-88 0 -134 -116.5t-46 -241.5q0 -96 33.5 -157.5t99.5 -61.5zM963 12q88 0 134 117t46 242q0 96 -34 157.5t-99 61.5q-88 0 -134.5 -117t-46.5 -242 q0 -96 34 -157.5t100 -61.5z" />
<glyph unicode="&#x26;" horiz-adv-x="1351" d="M432 -23q-150 0 -256 86.5t-106 225.5q0 127 99 227t271 152v8q-111 27 -166 95.5t-55 156.5q0 145 147.5 255.5t299.5 110.5q78 0 123 -33.5t45 -80.5q0 -41 -29 -70t-80 -29q-53 0 -100 39t-78 109q-68 -27 -110 -104.5t-42 -174.5q0 -106 75 -167.5t208 -71.5l244 100 l125 176l45 -12l-39 -225h250l-15 -82h-248l-69 -406q-20 -117 24 -149q33 -25 146 -25q72 0 114 4v-20q-170 -94 -278 -95q-100 0 -142 42t-38 131l-9 4q-155 -177 -356 -177zM547 119q125 0 258 84l76 465h-275q-168 -23 -250 -110t-82 -210q1 -229 273 -229z" />
<glyph unicode="'" horiz-adv-x="436" d="M162 897l-23 10l56 150q68 186 88 221q31 59 77 59q29 0 46.5 -16t17.5 -41q0 -29 -16 -55q-14 -27 -146 -197z" />
<glyph unicode="(" horiz-adv-x="694" d="M629 -360q-242 111 -375 329.5t-133 483.5q0 160 49 315.5t145.5 298.5t254 262t358.5 189l8 -33q-315 -131 -489.5 -427t-174.5 -634q0 -233 97.5 -435t279.5 -317z" />
<glyph unicode=")" horiz-adv-x="694" d="M-283 -360l-8 32q315 131 489.5 427t174.5 634q0 233 -97.5 435t-279.5 317l20 33q242 -111 375 -330t133 -483q0 -160 -49 -316t-145.5 -299t-254 -261.5t-358.5 -188.5z" />
<glyph unicode="*" horiz-adv-x="722" d="M360 702l-24 5q-37 51 -27 106q10 63 58 160l-9 6q-88 -72 -143 -90q-57 -20 -111 4l-8 22q23 55 78 78q57 23 168 31l2 8q-98 37 -151 80q-47 39 -52 98l17 19q57 8 106 -31q47 -37 109 -129l10 4q-16 104 -6 170q8 55 57 92l25 -2q37 -49 26 -108q-12 -72 -57 -160 l8 -6q78 63 144 90q57 23 110 -4l10 -23q-8 -18 -14 -27.5t-22.5 -24.5t-42.5 -26q-55 -23 -168 -28v-10q102 -41 149 -80t51 -97l-14 -20q-59 -8 -107 31q-49 39 -110 129l-8 -2q14 -117 6 -170q-11 -62 -60 -95z" />
<glyph unicode="+" horiz-adv-x="1034" d="M932 582h-375l-61 -379h-95l62 379h-377l14 92h377l58 373h94l-58 -373h375z" />
<glyph unicode="," horiz-adv-x="491" d="M90 -254l-20 25q141 119 170 223l-4 2l-35 -8q-20 -4 -31 -4q-43 0 -70.5 29.5t-27.5 74.5q0 51 35.5 88t87.5 37q66 0 103.5 -47t37.5 -123q0 -80 -62.5 -159t-183.5 -138z" />
<glyph unicode="-" horiz-adv-x="704" d="M74 422l18 117h459l-19 -117h-458z" />
<glyph unicode="." horiz-adv-x="448" d="M205 -33q-51 0 -88 36t-37 87t37 87t88 36t87 -36t36 -87t-36 -87t-87 -36z" />
<glyph unicode="/" horiz-adv-x="716" d="M-145 -430l-58 31l570 954l567 963l55 -29l-569 -957z" />
<glyph unicode="0" horiz-adv-x="1120" d="M446 -31q-180 0 -276 142.5t-96 347.5q0 348 172 587.5t424 239.5q182 0 278 -142.5t96 -348.5q0 -348 -173 -587t-425 -239zM504 25q133 0 238.5 216t105.5 556q0 115 -21.5 209t-77 159.5t-137.5 65.5q-131 0 -236.5 -217t-105.5 -557q0 -182 57.5 -307t176.5 -125z " />
<glyph unicode="1" horiz-adv-x="782" d="M-4 0l4 33l238 67l159 996l-217 84l4 24l410 68l6 -6l-184 -1166l217 -67l-6 -33h-631z" />
<glyph unicode="2" horiz-adv-x="1005" d="M-37 0l-8 25q303 217 481 417q252 279 252 476q0 96 -53 155.5t-158 59.5q-131 0 -301 -142l-16 25q76 131 187.5 200.5t230.5 69.5q139 0 225 -88t86 -215q0 -170 -160 -355.5t-506 -459.5l2 -6h451l188 184l21 -6l-117 -340h-805z" />
<glyph unicode="3" horiz-adv-x="948" d="M313 -31q-143 0 -236 63.5t-93 149.5q0 57 32.5 91t81.5 34q74 0 101.5 -67.5t-9.5 -157.5q88 -59 166 -59q109 0 181.5 72.5t72.5 205.5q0 115 -78.5 197t-250.5 108l2 23q377 125 376 344q0 78 -44 123t-132 45q-129 0 -288 -113l-19 23q186 236 402 235 q119 0 189.5 -72.5t70.5 -171.5q0 -106 -69 -186t-220 -158l-2 -14q119 -45 180 -132t61 -190q0 -150 -133 -271.5t-342 -121.5z" />
<glyph unicode="4" horiz-adv-x="1085" d="M289 0l4 33l209 67l47 293h-496l-12 37l799 854l26 -12l-118 -748h237l-20 -131h-238l-47 -293l201 -67l-4 -33h-588zM205 524h364l76 473h-4z" />
<glyph unicode="5" horiz-adv-x="923" d="M350 -31q-143 0 -239.5 65.5t-96.5 151.5q0 55 32 89t81 34q74 0 102.5 -66.5t-8.5 -156.5q88 -63 166 -63q111 0 177.5 75.5t66.5 206.5q0 135 -117 229.5t-364 127.5l133 591h489l78 78l16 -6l-49 -248h-516l-59 -252q266 -33 411.5 -146.5t145.5 -293.5 q0 -164 -127 -290t-322 -126z" />
<glyph unicode="6" horiz-adv-x="999" d="M440 -31q-164 0 -263 121t-99 313q0 311 241.5 573.5t622.5 332.5l8 -35q-399 -172 -585 -502l4 -8q102 49 200 49q141 0 234.5 -96t93.5 -252q0 -195 -137.5 -345.5t-319.5 -150.5zM467 16q109 0 174.5 119t65.5 271q0 154 -61.5 243.5t-178.5 89.5q-82 0 -129 -20 q-72 -150 -72 -320q0 -160 55.5 -271.5t145.5 -111.5z" />
<glyph unicode="7" horiz-adv-x="901" d="M31 -31l358 500l414 612h-533l-114 -120l-21 6l88 340l19 6l43 -60h684l6 -14l-789 -1270h-155z" />
<glyph unicode="8" horiz-adv-x="962" d="M408 -31q-154 0 -262.5 82t-108.5 215q0 109 83 200t228 138q-180 121 -180 299q0 156 113.5 269.5t279.5 113.5q145 0 244.5 -79t99.5 -199q0 -240 -307 -334q227 -150 227 -334q0 -160 -122.5 -265.5t-294.5 -105.5zM561 698q178 129 178 332q0 96 -53 151.5t-141 55.5 q-92 0 -154.5 -70.5t-62.5 -173.5q0 -68 36.5 -125t77.5 -89t119 -81zM446 16q88 0 148.5 56.5t60.5 163.5q0 80 -42 146.5t-90 103t-146 100.5q-168 -115 -168 -316q0 -115 65.5 -184.5t171.5 -69.5z" />
<glyph unicode="9" horiz-adv-x="999" d="M74 -53l-8 33q426 207 589 524l-4 6q-106 -51 -190 -51q-145 0 -243.5 96t-98.5 252q0 193 135 336t319 143q166 0 267.5 -116.5t101.5 -317.5q0 -285 -243.5 -548t-624.5 -357zM555 535q82 0 125 18q70 156 70 328q0 145 -46.5 252.5t-138.5 107.5q-113 0 -184.5 -117.5 t-71.5 -285.5q0 -141 64.5 -222t181.5 -81z" />
<glyph unicode=":" horiz-adv-x="489" d="M268 575q-51 0 -87 36t-36 87.5t36 87t87 35.5t87 -35.5t36 -87t-36 -87.5t-87 -36zM172 -33q-51 0 -87 36t-36 87t36 87t87 36t87 -36t36 -87t-36 -87t-87 -36z" />
<glyph unicode=";" horiz-adv-x="489" d="M268 575q-51 0 -87 36t-36 87.5t36 87t87 35.5t87 -35.5t36 -87t-36 -87.5t-87 -36zM68 -254l-21 25q137 117 170 223l-4 2l-35 -8q-20 -4 -31 -4q-45 0 -72.5 29.5t-27.5 74.5q0 51 36 88t87 37q66 0 103.5 -47t37.5 -123q0 -80 -61 -159t-182 -138z" />
<glyph unicode="&#x3c;" horiz-adv-x="1034" d="M809 229l-657 371l8 55l776 371l6 -94l-659 -309l561 -308z" />
<glyph unicode="=" horiz-adv-x="1034" d="M154 758l14 90h739l-14 -90h-739zM98 406l15 90h739l-14 -90h-740z" />
<glyph unicode="&#x3e;" horiz-adv-x="1034" d="M127 229l-6 95l659 309l-561 307l35 86l657 -371l-8 -55z" />
<glyph unicode="?" horiz-adv-x="821" d="M393 346q-86 0 -159.5 54.5t-73.5 154.5q0 88 64.5 145.5t197.5 120.5q129 61 189.5 113.5t60.5 128.5q0 94 -57.5 155.5t-147.5 63.5q-55 0 -96 -27q14 -37 14 -77q0 -57 -33 -93t-78 -36q-47 0 -79.5 32.5t-32.5 87.5q0 70 77.5 118t202.5 48q162 0 264.5 -93 t102.5 -236q0 -127 -73.5 -198t-217.5 -130q-84 -35 -118.5 -52.5t-62.5 -46t-28 -63.5q0 -68 59.5 -93.5t143.5 -19.5l6 -22q-45 -35 -125 -35zM260 -31q-51 0 -88 36t-37 87t37 87t88 36t87 -36t36 -87t-36 -87t-87 -36z" />
<glyph unicode="@" horiz-adv-x="1777" d="M903 -328q-326 0 -552 204t-226 562q0 328 248 569.5t602 241.5q301 0 489.5 -189.5t188.5 -441.5q0 -233 -144.5 -402t-332.5 -169q-86 0 -136.5 41t-50.5 100l-6 5q-106 -129 -231 -130q-86 0 -147.5 75t-61.5 208q0 197 147.5 361.5t347.5 164.5q63 0 127 -34l70 59 l10 -6l-117 -631q-29 -156 82 -156q145 0 231.5 130.5t86.5 349.5q0 236 -169 413t-449.5 177t-461 -205t-180.5 -545q0 -285 186.5 -469t508.5 -184q248 0 464 106l13 -16q-220 -189 -537 -189zM846 162q70 0 151 74l82 477q-74 84 -159 84q-88 0 -161 -122t-73 -292 q0 -100 42 -160.5t118 -60.5z" />
<glyph unicode="A" horiz-adv-x="1284" d="M-104 0l6 35l153 55l647 1227h82l273 -1235l160 -47l-7 -35h-577l4 35l209 37l-82 407h-410l-190 -395l141 -49l-6 -35h-403zM385 547h365l-107 530h-2q-254 -530 -256 -530z" />
<glyph unicode="B" horiz-adv-x="1228" d="M-18 0l4 35l209 37l184 1161l-197 37l6 35h555q201 0 293 -76t92 -199q0 -121 -89 -206t-248 -117l-3 -11q315 -39 316 -311q0 -154 -150.5 -269.5t-363.5 -115.5h-608zM494 709h110q158 0 238 87t80 224q0 231 -215 231q-68 0 -129 -12zM532 53q170 0 263.5 96.5 t93.5 239.5q0 262 -289 262h-115l-92 -583q67 -15 139 -15z" />
<glyph unicode="C" horiz-adv-x="1337" d="M700 -31q-262 0 -436 164t-174 432q0 299 202 534.5t496 235.5q201 0 351 -82l112 88h25l-55 -438l-33 -4q-115 389 -393 389q-190 0 -338 -213t-148 -545q0 -219 124 -358t292 -139q102 0 166 26l254 310l18 -9l-57 -299q-193 -92 -406 -92z" />
<glyph unicode="D" horiz-adv-x="1437" d="M-18 0l4 35l209 37l184 1161l-199 37l6 35h549q295 0 464 -150.5t169 -398.5q0 -315 -221 -535.5t-608 -220.5h-557zM393 68h158q193 0 332 101t202.5 259t63.5 350q0 211 -110.5 335t-333.5 124h-127z" />
<glyph unicode="E" horiz-adv-x="1269" d="M-20 0l6 35l209 37l184 1161l-197 37l4 35h983l-6 -351l-22 -14l-129 174q-57 78 -82 94q-43 29 -127 29h-225l-89 -551h91q92 0 149 43t102 150l29 67h31l-92 -575h-31l-8 63q-14 109 -55 152t-136 43h-88l-88 -559h295q57 0 97 14t60.5 31.5t63.5 62.5l215 230l19 -9 l-101 -399h-1062z" />
<glyph unicode="F" horiz-adv-x="1202" d="M-20 0l6 35l209 37l184 1161l-197 37l4 35h994l-6 -351l-23 -14l-129 174q-57 78 -84 94q-43 29 -125 29h-235l-89 -559h123q94 0 149.5 43t102.5 151l29 68h31l-90 -575h-33l-6 63q-10 106 -54.5 149.5t-136.5 43.5h-125l-86 -549l209 -37l-4 -35h-618z" />
<glyph unicode="G" horiz-adv-x="1388" d="M610 -31q-223 0 -371.5 170t-148.5 426q0 299 202 534.5t496 235.5q195 0 345 -82l112 88h25l-56 -438l-32 -4q-115 389 -387 389q-190 0 -338 -210t-148 -535q0 -223 101.5 -353.5t265.5 -130.5q143 0 248 62l77 407l-180 39l6 35h525l-6 -35l-156 -37l-88 -546l-21 -9 l-143 105q-168 -111 -328 -111z" />
<glyph unicode="H" horiz-adv-x="1603" d="M-20 0l6 35l209 37l184 1161l-197 37l4 35h607l-7 -35l-208 -37l-84 -522h630l84 522l-198 37l6 35h604l-4 -35l-209 -37l-184 -1161l196 -37l-6 -35h-604l6 35l209 37l90 571h-631l-90 -571l197 -37l-6 -35h-604z" />
<glyph unicode="I" horiz-adv-x="835" d="M4 0l6 35l215 37l185 1161l-203 37l4 35h618l-6 -35l-215 -37l-184 -1161l203 -37l-4 -35h-619z" />
<glyph unicode="J" horiz-adv-x="1017" d="M240 -37q-145 0 -212 55.5t-67 131.5q0 57 33 95t86 38q84 0 116 -78q13 -32 13 -68q0 -51 -27 -110q166 4 239 90t99 254l135 862l-202 37l6 35h610l-6 -35l-207 -37l-125 -782q-20 -135 -55 -218t-103 -143q-145 -127 -333 -127z" />
<glyph unicode="K" horiz-adv-x="1390" d="M-20 0l6 35l209 37l184 1161l-197 37l4 35h607l-7 -35l-208 -37l-89 -547h140l485 516l-141 76l4 27h446l-6 -35l-192 -74l-477 -477l374 -625l164 -59l-4 -35h-543l6 35l150 49l-297 534h-119l-86 -546l197 -37l-4 -35h-606z" />
<glyph unicode="L" horiz-adv-x="1216" d="M-20 0l6 35l209 37l184 1161l-197 37l4 35h607l-7 -35l-208 -37l-185 -1163h283q57 0 97 14t60.5 31.5t63.5 62.5l215 230l18 -9l-100 -399h-1050z" />
<glyph unicode="M" horiz-adv-x="1845" d="M12 0l6 35l170 55l181 1139l-154 41l4 35h424l43 -211l176 -809h10l433 809l112 211h447l-6 -35l-209 -37l-185 -1161l197 -37l-6 -35h-604l6 35l209 37l178 1128h-12l-652 -1200h-49l-285 1200h-14l-176 -1110l154 -55l-7 -35h-391z" />
<glyph unicode="N" horiz-adv-x="1495" d="M1075 -12l-117 209l-528 907h-12l-162 -1014l152 -55l-5 -35h-393l6 35l170 55l181 1127l-154 53l6 35h344l117 -209l428 -754h14l140 872l-154 56l6 35h391l-4 -35l-172 -56l-194 -1226h-60z" />
<glyph unicode="O" horiz-adv-x="1425" d="M639 -31q-248 0 -398.5 168t-150.5 428q0 193 85 369t247 288.5t358 112.5q246 0 396.5 -168t150.5 -426q0 -193 -85 -368.5t-245.5 -289.5t-357.5 -114zM635 16q180 0 326.5 216.5t146.5 555.5q0 133 -33 243t-108.5 183.5t-184.5 73.5q-180 0 -326.5 -216t-146.5 -556 q0 -131 32 -240.5t108.5 -184.5t185.5 -75z" />
<glyph unicode="P" horiz-adv-x="1218" d="M-20 0l6 35l207 37l186 1161l-199 37l6 35h555q213 0 323 -98.5t110 -237.5q0 -166 -136.5 -286t-361.5 -120q-102 0 -203 23l-80 -514l197 -37l-6 -35h-604zM610 625q164 0 255 95t91 247q0 123 -69.5 203.5t-190.5 80.5q-57 0 -118 -12l-95 -604q61 -10 127 -10z" />
<glyph unicode="Q" horiz-adv-x="1425" d="M967 -428q-113 0 -173.5 14.5t-107.5 51.5q-49 39 -117 192l-67 156q-190 45 -301 202.5t-111 376.5q0 193 85 369t247 288.5t358 112.5q246 0 396.5 -168t150.5 -426q0 -180 -75.5 -348t-219 -283.5t-321.5 -136.5q86 -203 176 -272q92 -72 219 -96l-6 -33h-133zM635 16 q180 0 326.5 216.5t146.5 555.5q0 133 -33 243t-108.5 183.5t-184.5 73.5q-180 0 -326.5 -216t-146.5 -556q0 -131 32 -240.5t108.5 -184.5t185.5 -75z" />
<glyph unicode="R" horiz-adv-x="1298" d="M-20 0l6 35l209 37l184 1161l-197 37l4 35h568q213 0 318.5 -86t105.5 -211q0 -139 -106.5 -235.5t-295.5 -133.5l-2 -10q70 -25 110 -78t68 -137q4 -14 14.5 -43t14.5 -42.5t13 -37.5l15 -38l13 -34q8 -20 15 -33l16 -26q8 -14 16 -24.5t16 -18.5q41 -39 74 -56.5 t94 -25.5l-6 -35h-229q-47 0 -80 9t-52.5 20.5t-37 46.5t-26.5 57.5t-27 83.5l-76 236q-33 100 -63.5 128.5t-100.5 28.5h-76l-86 -538l197 -37l-6 -35h-604zM487 668h129q158 0 249 93t91 236q0 113 -67.5 183.5t-190.5 70.5q-59 0 -120 -12z" />
<glyph unicode="S" horiz-adv-x="1062" d="M53 -37l45 449l35 4q57 -215 145.5 -301t206.5 -86q113 0 185.5 71.5t72.5 186.5q0 45 -16 83t-34.5 63.5t-60.5 54t-68 41.5l-79 42q-70 37 -107.5 60.5t-85.5 66.5t-70.5 98.5t-22.5 127.5q0 172 120.5 291.5t288.5 119.5q121 0 217 -63l95 69h28l-26 -393l-33 -4 q-66 186 -123 259t-156 73q-90 0 -162.5 -69.5t-72.5 -180.5q0 -57 19.5 -101t64.5 -81t77.5 -56.5t100.5 -54.5q70 -37 105.5 -59.5t85 -64.5t71 -95t21.5 -121q0 -193 -142.5 -308.5t-304.5 -115.5q-180 0 -297 64l-94 -70h-29z" />
<glyph unicode="T" horiz-adv-x="1277" d="M223 0l4 35l224 37l184 1165h-117q-76 0 -121 -28.5t-135 -127.5l-143 -157l-21 12l115 369h1063l14 -369l-22 -12l-101 157q-63 98 -100 127t-115 29h-118l-185 -1165l211 -37l-6 -35h-631z" />
<glyph unicode="U" horiz-adv-x="1480" d="M684 -35q-258 0 -373 127q-85 94 -84 256q0 58 11 125l120 760l-196 37l6 35h606l-4 -35l-209 -37l-123 -776q-8 -53 -8 -99q0 -123 60 -189q83 -91 247 -91q176 0 279.5 106.5t132.5 280.5l119 749l-154 56l6 35h391l-6 -35l-170 -56l-127 -794q-33 -199 -177 -327 t-347 -128z" />
<glyph unicode="V" horiz-adv-x="1290" d="M524 -12l-272 1235l-172 47l6 35h590l-4 -35l-209 -37l194 -991l510 970l-137 58l4 35h375l-4 -35l-158 -58l-659 -1224h-64z" />
<glyph unicode="W" horiz-adv-x="1869" d="M434 -12l-182 1235l-172 47l4 35h580l-7 -35l-194 -37l112 -975l412 823l-26 142l-160 47l6 35h555l-4 -35l-197 -37l156 -979l430 958l-135 58l4 35h375l-6 -35l-156 -58l-584 -1224h-63l-174 983l-510 -983h-64z" />
<glyph unicode="X" horiz-adv-x="1406" d="M-35 0l6 35l176 55l478 535l-297 598l-172 47l6 35h577l-4 -35l-184 -37l33 -76l64 -147l73 -166l27 -68l368 445l-141 49l6 35h432l-6 -35l-176 -56l-445 -503l316 -629l172 -47l-6 -35h-578l4 35l185 37q-217 494 -220 493l-397 -481l141 -49l-6 -35h-432z" />
<glyph unicode="Y" horiz-adv-x="1306" d="M246 0l6 35l215 37l80 508l-281 643l-172 47l6 35h578l-6 -35l-183 -37l224 -582l401 570l-141 49l6 35h420l-6 -35l-170 -56l-473 -616l-84 -526l202 -37l-4 -35h-618z" />
<glyph unicode="Z" horiz-adv-x="1284" d="M-2 0l-4 20l977 1217h-359q-80 0 -126 -21.5t-115 -85.5l-187 -174l-16 15l98 334h973l4 -21l-979 -1214h430q84 0 124 16t91 72l207 221l21 -12l-107 -367h-1032z" />
<glyph unicode="[" horiz-adv-x="595" d="M-14 -360l299 1878h516l-8 -54h-349l-282 -1771h350l-10 -53h-516z" />
<glyph unicode="\" horiz-adv-x="804" d="M819 -430l-409 962l-422 957l67 29l410 -963l422 -954z" />
<glyph unicode="]" horiz-adv-x="595" d="M-233 -360l8 53h348l283 1771h-349l9 54h516l-299 -1878h-516z" />
<glyph unicode="^" horiz-adv-x="628" d="M147 1034l-20 21l305 362h29l176 -362l-27 -21l-196 203z" />
<glyph unicode="_" horiz-adv-x="917" d="M8 0v68h901v-68h-901z" />
<glyph unicode="`" horiz-adv-x="503" d="M424 1061q-29 41 -76 101l-79 104q-32 43 -44 65q-16 31 -8 62.5t37 48t56.5 6.5t43.5 -41q12 -23 27 -76l35 -129q20 -76 35 -123z" />
<glyph unicode="a" horiz-adv-x="950" d="M313 -23q-104 0 -181 89.5t-77 240.5q0 242 175.5 442.5t404.5 200.5q70 0 149 -41l84 72l13 -8l-150 -803q-6 -35 0 -50.5t49 -27.5t135 -14l5 -15q-137 -86 -244 -86q-102 0 -103 150l-8 6q-133 -156 -252 -156zM399 96q86 0 183 88l100 574q-86 100 -182 100 q-100 0 -186.5 -148.5t-86.5 -357.5q0 -111 47 -183.5t125 -72.5z" />
<glyph unicode="b" horiz-adv-x="956" d="M338 -23q-147 0 -254 97l209 1255l-133 64v20l313 107l8 -7l-114 -690l8 -6q147 133 270 133q106 0 181 -90t75 -250q0 -227 -178 -430t-385 -203zM446.5 70q106.5 0 194.5 145t88 350q0 121 -50 193.5t-142 72.5q-94 0 -177 -57l-106 -604q86 -100 192.5 -100z" />
<glyph unicode="c" horiz-adv-x="813" d="M393 -23q-158 0 -248 104.5t-90 258.5q0 231 161 420.5t372 189.5q104 0 159.5 -51t55.5 -115q0 -49 -26.5 -81.5t-69.5 -32.5q-51 0 -81 34.5t-30 92.5q0 59 22 112q-162 -2 -275.5 -166.5t-113.5 -365.5q0 -145 66.5 -213t177.5 -68q133 0 246 109l14 -19 q-47 -90 -142.5 -149.5t-197.5 -59.5z" />
<glyph unicode="d" horiz-adv-x="970" d="M324 -23q-106 0 -187.5 91.5t-81.5 248.5q0 236 178.5 434.5t417.5 198.5q47 0 80 -10l66 389l-133 64v20l311 107l8 -7l-227 -1343q-2 -13 -3 -24q0 -36 26 -49q34 -17 161 -19l4 -15q-139 -86 -248 -86q-102 0 -102 150l-8 6q-133 -156 -262 -156zM420 96q86 0 182 88 l100 574q-86 100 -192.5 100t-194.5 -145.5t-88 -350.5q0 -121 50.5 -193.5t142.5 -72.5z" />
<glyph unicode="e" horiz-adv-x="825" d="M236 469q-6 -48 -7 -90q0 -113 44 -186q60 -100 192 -101q63 0 130 31t112 82l14 -19q-45 -90 -142.5 -149.5t-191.5 -59.5q-156 0 -245 101.5t-89 257.5q0 143 61.5 282.5t182.5 235.5t272 96q106 0 169 -55t63 -133q0 -121 -142 -212q-127 -82 -368 -82q-26 0 -55 1z M244 520q38 -5 72 -4q58 0 109 12q81 20 127 63.5t69.5 92.5t23.5 98q0 53 -25.5 86t-72.5 33q-106 0 -188 -113.5t-115 -267.5z" />
<glyph unicode="f" horiz-adv-x="606" d="M-76 -449q-66 0 -105.5 33t-39.5 76q0 39 28.5 64.5t77.5 25.5q96 0 164 -110q68 106 96 313l123 870h-215l6 37l224 58l10 71q25 168 76 264.5t151 176.5q111 88 242 88q78 0 123 -34t45 -81q0 -41 -29 -69.5t-80 -28.5q-53 0 -100 38.5t-78 108.5q-74 -55 -118 -153.5 t-72 -303.5l-13 -88h232l-15 -84h-229l-90 -645q-33 -227 -73 -332.5t-130 -195.5q-94 -99 -211 -99z" />
<glyph unicode="g" horiz-adv-x="899" d="M334 -449q-188 0 -300 77t-112 188q0 100 88 171.5t223 98.5l50 197q-88 29 -137.5 101.5t-49.5 166.5q0 154 117 276.5t295 122.5q135 0 211 -86q117 111 196 111q51 0 81 -27.5t30 -68.5q0 -43 -23.5 -73t-62.5 -30q-33 0 -55.5 24.5t-20.5 61.5l-125 -22 q51 -74 52 -174q0 -154 -116 -276t-294 -122h-14q-8 -24 -8 -43q0 -45 44 -59q211 -70 292 -137.5t81 -165.5q0 -121 -118.5 -216.5t-323.5 -95.5zM424 319q90 0 147.5 101.5t57.5 241.5q0 98 -44 167.5t-120 69.5q-90 0 -147.5 -101.5t-57.5 -240.5q0 -98 44 -168t120 -70z M389 -387q104 0 172 45t68 127q0 74 -88 137.5t-308 124.5q-152 -70 -151 -209q0 -88 88 -156.5t219 -68.5z" />
<glyph unicode="h" horiz-adv-x="1011" d="M739 -23q-109 0 -108 103q0 37 14 108l68 383q10 57 9 101q0 49 -12 80q-24 57 -112 57q-59 0 -107.5 -18.5t-140.5 -65.5l-121 -725h-157l221 1329l-133 64v20l313 107l8 -7l-123 -743l9 -4q221 184 348 184q109 0 149 -87q24 -51 24 -125q0 -52 -11 -115l-84 -453 q-2 -12 -3 -22q0 -34 27 -49q35 -19 160 -21l6 -15q-140 -86 -244 -86z" />
<glyph unicode="i" horiz-adv-x="522" d="M373 1137q-37 0 -62.5 25.5t-25.5 70.5q0 61 35.5 109.5t91.5 48.5q37 0 61.5 -25t24.5 -70q0 -63 -35 -111t-90 -48zM217 -23q-61 0 -88 43q-19 31 -19 71q0 15 3 32l112 649l-133 64v20l314 107l8 -7l-133 -786q-2 -13 -3 -23q0 -36 27 -50q35 -17 160 -19l4 -15 q-137 -86 -252 -86z" />
<glyph unicode="j" horiz-adv-x="507" d="M383 1137q-39 0 -64.5 25.5t-25.5 70.5q0 61 36 109.5t91 48.5q37 0 61.5 -25t24.5 -70q0 -63 -35 -111t-88 -48zM-100 -449q-66 0 -105 32q-41 34 -41 82q0 35 26 60q28 26 77 25q100 0 168 -110q68 113 96 313l119 819l-136 64v20l312 107l8 -7l-111 -778 q-33 -225 -73.5 -331.5t-128.5 -196.5q-94 -99 -211 -99z" />
<glyph unicode="k" horiz-adv-x="913" d="M713 -23q-121 0 -152 127q-55 217 -97 285t-155 84l-80 -473h-157l223 1329l-135 64v20l313 107l8 -7l-164 -983q127 31 222.5 78t134.5 92q-35 55 -35 113q0 59 33 100t73 41q49 0 74 -34.5t25 -90.5q0 -190 -365 -290v-9q59 -12 91 -34.5t63 -69.5q51 -78 84 -256 q10 -51 53 -70.5t170 -21.5l4 -15q-137 -86 -231 -86z" />
<glyph unicode="l" horiz-adv-x="522" d="M219 -23q-63 0 -90 42q-19 30 -19 71q0 16 3 33l204 1206l-133 64v20l314 107l8 -7l-223 -1343q-2 -13 -3 -24q0 -36 26 -49q34 -17 161 -19l4 -15q-135 -86 -252 -86z" />
<glyph unicode="m" horiz-adv-x="1531" d="M1260 -23q-109 0 -109 103q0 37 14 108l68 383q17 74 17 126q0 30 -6 52q-15 60 -99 60q-90 0 -248 -84l-121 -725h-158l97 571q10 53 13 84q2 23 2 48v17q-1 34 -11 50t-32.5 27.5t-59.5 11.5q-59 0 -107.5 -18.5t-140.5 -65.5l-121 -725h-158l131 772l-133 64v20 l299 107l9 -7l-19 -186l8 -4q113 96 194 140t154 44q156 0 156 -184l8 -6q215 190 355 190q106 0 137 -88q15 -43 15 -100q0 -61 -17 -139l-84 -453q-2 -12 -3 -22q0 -34 27 -49q35 -19 160 -21l6 -15q-139 -86 -243 -86z" />
<glyph unicode="n" horiz-adv-x="1040" d="M768 -23q-109 0 -109 103q0 47 13 108l69 383q11 59 11 103q0 48 -13 78q-25 57 -112 57q-59 0 -107.5 -18.5t-140.5 -65.5l-121 -725h-158l131 772l-133 64v20l299 107l9 -7l-21 -186l10 -4q113 96 194 140t154 44q109 0 150 -87q24 -51 24 -125q0 -52 -12 -115 l-84 -453q-2 -12 -2 -22q0 -34 27 -49q35 -19 160 -21l4 -15q-138 -86 -242 -86z" />
<glyph unicode="o" d="M369 -23q-139 0 -226.5 96.5t-87.5 268.5q0 225 141.5 416.5t366.5 191.5q139 0 223 -95t84 -269q0 -143 -56 -279.5t-174.5 -233t-270.5 -96.5zM430 39q68 0 122 54t84 136t45 164t15 154q0 90 -17 162.5t-64.5 126t-118.5 53.5q-68 0 -121 -54.5t-83 -135.5 t-45.5 -163.5t-15.5 -152.5q0 -143 47.5 -243.5t151.5 -100.5z" />
<glyph unicode="p" horiz-adv-x="985" d="M-113 -428l7 27l143 49l194 1124l-133 64v20l299 107l9 -7l-15 -153l6 -6q133 154 277 153q106 0 181 -90t75 -250q0 -227 -179.5 -430t-385.5 -203q-57 0 -111 17l-59 -346l159 -49l-4 -27h-463zM475.5 70q106.5 0 193.5 145t87 350q0 119 -50.5 192.5t-140.5 73.5 q-86 0 -184 -86l-98 -575q86 -100 192.5 -100z" />
<glyph unicode="q" horiz-adv-x="923" d="M344 -428l4 27l164 49l82 479l-8 6q-133 -156 -264 -156q-106 0 -186.5 91.5t-80.5 248.5q0 236 178.5 434.5t417.5 198.5q68 0 148 -41l84 72l14 -8l-227 -1325l127 -49l-4 -27h-449zM420 96q86 0 182 88l98 574q-86 100 -190 100q-109 0 -196 -145.5t-87 -350.5 q0 -121 50.5 -193.5t142.5 -72.5z" />
<glyph unicode="r" horiz-adv-x="745" d="M100 0l131 772l-133 64v20l301 107l9 -7l-25 -206l8 -7q51 94 124 152.5t136 58.5q53 0 87 -27.5t34 -72.5t-30.5 -74.5t-73.5 -29.5q-68 0 -131 61q-80 -25 -164 -119l-115 -692h-158z" />
<glyph unicode="s" horiz-adv-x="743" d="M297 -23q-125 0 -202 55.5t-77 135.5q0 55 30 90t71 35q63 0 85 -63q9 -26 9 -56q0 -43 -18 -96q66 -39 155 -39q70 0 111 43t41 113q0 92 -125 178l-92 63q-82 55 -118 109.5t-36 128.5q0 106 91 191t229 85q104 0 162.5 -49t58.5 -106q0 -41 -22.5 -65.5t-61.5 -24.5 q-96 0 -131 174q-41 10 -68 10q-59 0 -92 -37t-33 -94q0 -98 119 -176l117 -78q143 -96 143 -228q0 -121 -97 -210t-249 -89z" />
<glyph unicode="t" horiz-adv-x="628" d="M299 -16q-109 0 -151 52q-29 36 -29 101q0 28 6 62l106 624h-141l4 29l176 117l125 176l47 -12l-39 -226h250l-14 -84h-250l-94 -557q-7 -38 -7 -66q0 -60 29 -81q35 -27 148 -27q51 0 115 6v-20q-170 -94 -281 -94z" />
<glyph unicode="u" horiz-adv-x="1032" d="M311 -23q-111 0 -156 89q-28 54 -29 132q0 49 11 107l84 467l-133 64v20l313 107l9 -7l-107 -598q-10 -59 -10 -103q0 -49 12 -79q23 -57 111 -57q59 0 108 18.5t140 67.5l96 567l-133 64v20l311 107l8 -7l-133 -786q-2 -12 -2 -23q0 -35 26 -49q34 -18 160 -20l4 -15 q-137 -86 -225 -86q-78 0 -101 49q-19 38 -19 98q0 16 1 34l-8 6q-199 -187 -338 -187z" />
<glyph unicode="v" horiz-adv-x="931" d="M328 -35l-43 23l39 108q-33 508 -91 662q-20 59 -69 59q-33 0 -111 -24l-10 14q47 55 109.5 99t111.5 44q37 0 63.5 -16t37 -33.5t26.5 -52.5q31 -70 53.5 -268.5t24.5 -384.5l8 -5q225 279 273 445q-51 109 -52 174q0 68 30 104.5t75 36.5t72.5 -42t27.5 -107 q0 -277 -575 -836z" />
<glyph unicode="w" horiz-adv-x="1353" d="M328 -35l-43 23l41 108q-35 508 -90 662q-10 33 -25.5 46t-44.5 13q-35 0 -113 -24l-10 14q47 55 109.5 99t111.5 44q39 0 65.5 -16t37 -33.5t26.5 -52.5q31 -68 52.5 -265.5t25.5 -387.5l8 -5q141 205 240 431q-33 213 -39 260l145 82h11l104 -768l8 -5q178 236 230 445 q-55 109 -56 183q0 61 26 95q28 37 73 37q47 0 73.5 -41t30.5 -108v-12q0 -149 -144 -368q-151 -228 -378 -456l-43 23l37 108q-49 340 -58 393q-178 -299 -411 -524z" />
<glyph unicode="x" horiz-adv-x="970" d="M119 -27q-53 0 -87 28t-34 73t29.5 74.5t72.5 29.5q63 0 121 -55q80 57 211 283q-106 268 -156 352q-23 37 -37 52t-53 27.5t-108 12.5l-4 16l44 26l42 24q12 7 33.5 17.5t39 13.5t35.5 3q84 0 145.5 -104.5t116.5 -286.5l9 -2q86 215 161.5 306t157.5 91q51 0 85 -27.5 t34 -72.5t-29.5 -74.5t-73.5 -29.5q-61 0 -114 55q-109 -96 -205 -305q84 -219 143 -330q29 -53 65 -71.5t136 -20.5l2 -15q-8 -6 -31.5 -20t-33 -18.5t-27.5 -14.5t-27.5 -14t-25 -9t-28.5 -7.5t-28 -2.5q-82 0 -136 95.5t-109 281.5l-11 2q-171 -383 -325 -383z" />
<glyph unicode="y" d="M98 -449q-68 0 -109.5 45.5t-41.5 106.5q0 51 25.5 84t70.5 33q55 0 86 -58q27 -51 27 -120v-19q82 45 162.5 143.5t138.5 210.5q-45 240 -108.5 475.5t-96.5 305.5q-27 59 -76 59q-35 0 -108 -24l-11 14q43 57 98.5 100t102.5 43q53 0 82 -25.5t55 -76.5 q41 -78 92.5 -272.5t69.5 -362.5h10q133 391 207 750h8l154 -82q-43 -92 -140 -324l-161 -374q-63 -142 -155.5 -299.5t-172.5 -227.5q-123 -105 -209 -105z" />
<glyph unicode="z" horiz-adv-x="837" d="M600 -23q-55 0 -213 50l-197 63l-143 -96l-27 22l625 740q-262 55 -387 55q-55 0 -86 -23v-8q57 -12 87 -46t30 -72.5t-20.5 -64.5t-55.5 -26q-47 0 -82 36t-35 87q0 94 88 170q102 86 217 86q31 0 80 -8l246 -39l102 64l33 -27l-618 -723l344 -70q17 -4 32 -3 q28 0 51 12q36 18 91 71l12 -6q-45 -137 -84 -190.5t-90 -53.5z" />
<glyph unicode="{" horiz-adv-x="698" d="M551 -360q-102 4 -167 19t-115 52t-65.5 106.5t1.5 176.5l47 299q25 150 -25.5 213t-199.5 82l6 33q154 16 225.5 80.5t93.5 213.5l37 248q31 203 139.5 273.5t321.5 81.5l-8 -41q-139 -23 -195.5 -74t-77.5 -189l-34 -233q-31 -201 -110 -274.5t-239 -100.5l-2 -4 q49 -10 83 -20.5t67 -28.5t51 -44t29.5 -64.5t10.5 -92t-11 -125.5l-45 -286q-20 -137 18.5 -188.5t169.5 -74.5z" />
<glyph unicode="|" horiz-adv-x="565" d="M246 -494l6 965l-6 965h73l-6 -965l6 -965h-73z" />
<glyph unicode="}" horiz-adv-x="698" d="M-158 -360l6 38q139 23 195.5 74t77.5 189l39 247q31 201 108.5 274t239.5 101v4q-152 29 -207 101.5t-22 273.5l45 272q23 137 -17.5 188.5t-171.5 74.5l6 41q207 -10 293 -82t53 -273l-47 -286q-25 -150 26.5 -214.5t201.5 -80.5l-6 -33q-154 -16 -224.5 -81 t-95.5 -214l-41 -260q-31 -203 -139.5 -273.5t-319.5 -80.5z" />
<glyph unicode="~" horiz-adv-x="755" d="M158 541l-27 10q33 203 166 203q55 0 149.5 -36t131.5 -36q70 0 102 86l27 -12q-31 -203 -164 -203q-53 0 -149.5 36t-133.5 36q-65 0 -102 -84z" />
<glyph unicode="&#xa1;" horiz-adv-x="534" d="M291 575q-51 0 -87 36t-36 87.5t36 87t87 35.5t87 -35.5t36 -87t-36 -87.5t-87 -36zM123 -545q-111 0 -111 129q0 94 217 852l43 -6q-20 -729 -41 -860q-18 -115 -108 -115z" />
<glyph unicode="&#xa2;" horiz-adv-x="915" d="M387 -186l-70 6l29 162q-133 18 -206.5 116.5t-73.5 241.5q0 190 128 373.5t308 226.5l26 166l70 -8l-25 -148h19q113 0 175 -53t62 -129q0 -49 -25.5 -83t-68.5 -34q-78 0 -105.5 71t19.5 171q-43 8 -86 2l-76 -442l-55 -353q29 -4 45 -4q66 0 140.5 30t119.5 79l15 -19 q-43 -86 -142.5 -145t-195.5 -64zM369 119l59 342l64 413q-115 -53 -183.5 -199.5t-68.5 -297.5q0 -192 129 -258z" />
<glyph unicode="&#xa3;" horiz-adv-x="1087" d="M51 -31q-96 0 -96 80q0 55 70.5 98t195.5 50q152 154 152 288q0 57 -13 107h-2h-2h-2h-2h-2h-2h-2h-2h-2h-2h-2h-2h-2h-2h-2h-2h-2h-2h-2h-3h-4h-2h-2h-2h-2h-2h-2h-2h-2h-4h-2h-2h-2h-4h-2h-2h-2h-5h-2h-2h-4h-2h-2h-4h-2h-4h-2h-2h-4h-2h-4h-2h-5h-2h-4h-2h-4h-2h-4h-4 h-2h-4h-2h-4h-4h-3h-4h-4h-2h-4h-4h-2h-4h-4h-4h-2h-4h-5h-4h-2h-4h-4h-4h-4h-16l12 82h221q-16 82 -16 141q0 186 152.5 328.5t365.5 142.5q86 0 131 -36t45 -87q0 -49 -27.5 -77.5t-83 -28.5t-104.5 45t-80 121q-111 -49 -157 -133t-46 -218q0 -35 4 -66.5t12.5 -72.5 t10.5 -59h297l-12 -82h-277v-25q0 -94 -69.5 -196.5t-194.5 -163.5v-14q80 8 242.5 -6.5t193.5 -14.5q80 0 116 43t79 154l45 -2q-31 -180 -114 -289t-208 -109q-117 0 -403 152q-37 -70 -91.5 -111t-101.5 -41z" />
<glyph unicode="&#xa4;" horiz-adv-x="1146" d="M614 -31q-199 0 -317.5 138.5t-130.5 353.5h-131l10 67h119q2 90 29 187h-121l12 67h131q78 215 250 359.5t360 144.5q129 0 186.5 -57.5t57.5 -128.5q0 -57 -32.5 -96t-80.5 -39q-90 0 -120.5 82.5t14.5 185.5q-174 -2 -292 -131t-169 -320h535l-11 -67h-540 q-16 -102 -17 -187h531l-10 -67h-517q20 -164 112.5 -256t207.5 -92q193 0 330 125l18 -21q-61 -121 -172 -184.5t-242 -63.5z" />
<glyph unicode="&#xa5;" horiz-adv-x="1259" d="M205 0l4 35l215 37l47 293h-344l10 69h344l21 135h-342l10 70h313l-221 532l-172 48l6 34h580l-6 -34l-185 -37l187 -529l377 516l-142 50l6 34h418l-4 -34l-170 -56l-414 -524h316l-12 -70h-345l-22 -135h346l-12 -69h-344l-45 -293l202 -37l-6 -35h-616z" />
<glyph unicode="&#xa6;" horiz-adv-x="548" d="M311 592h-73l6 422l-6 422h73l-6 -422zM311 -494h-73l6 422l-6 422h73l-6 -422z" />
<glyph unicode="&#xa7;" horiz-adv-x="944" d="M360 -201q-152 0 -249 76t-97 172q0 59 32 97t87 38q76 0 102.5 -73.5t-14.5 -167.5q66 -88 199 -88q80 0 148.5 59t99.5 170q-260 166 -386 334t-126 381q0 236 136 406.5t355 170.5q125 0 192.5 -57t67.5 -135q0 -47 -26.5 -79t-73.5 -32q-61 0 -101 52.5t-40 150.5 q-47 39 -113 39q-74 0 -154 -71t-116 -187q516 -328 516 -723q0 -225 -120 -379t-319 -154zM678 129q10 57 10 111q0 72 -22.5 149.5t-49 135t-89 147.5t-99.5 137l-123 156q-23 27 -33 41q-10 -51 -10 -99q0 -176 99.5 -348t316.5 -430z" />
<glyph unicode="&#xa8;" horiz-adv-x="675" d="M578 1126q-43 0 -71 29t-28 72t32 76.5t77 33.5q43 0 70.5 -28.5t27.5 -71.5t-31.5 -77t-76.5 -34zM256 1126q-43 0 -71.5 29t-28.5 72q0 45 31.5 77.5t78.5 32.5q43 0 71 -28.5t28 -71.5t-32 -77t-77 -34z" />
<glyph unicode="&#xa9;" horiz-adv-x="1519" d="M759.5 -31q-282.5 0 -483 200t-200.5 484q0 283 200.5 482.5t483 199.5t483.5 -199.5t201 -482.5q0 -285 -201 -484.5t-483.5 -199.5zM760 16q262 0 447.5 186.5t185.5 450.5q0 262 -185.5 448.5t-447.5 186.5t-447.5 -186.5t-185.5 -448.5q0 -264 185.5 -450.5 t447.5 -186.5zM780 291q-166 0 -268 97t-102 257q0 154 107.5 261.5t266.5 107.5q92 0 158 -33l37 37h25l12 -248l-29 -2q-92 203 -233 203q-80 0 -136.5 -76t-56.5 -231q0 -154 68.5 -239t179.5 -85q49 0 74 12l127 162l20 -4l-22 -168q-109 -51 -228 -51z" />
<glyph unicode="&#xaa;" horiz-adv-x="827" d="M324 651q-80 0 -143.5 64.5t-63.5 175.5q0 164 136 304t314 140q45 0 115 -37l70 58l10 -4l-113 -566q-4 -14 -3 -26t12.5 -19.5t40 -12.5t81.5 -5l4 -12q-109 -59 -182 -60q-82 0 -82 105l-6 4q-100 -109 -190 -109zM395 735q66 0 133 76l72 389q-63 70 -137 70 q-80 0 -142.5 -102.5t-62.5 -245.5q0 -84 34.5 -135.5t102.5 -51.5z" />
<glyph unicode="&#xab;" horiz-adv-x="980" d="M733 63l-332 388l5 20l450 387l35 -39l-293 -356l176 -369zM354 63l-331 388l4 20l450 387l35 -39l-293 -356l178 -369z" />
<glyph unicode="&#xac;" horiz-adv-x="1034" d="M932 582h-846l14 92h846z" />
<glyph unicode="&#xad;" horiz-adv-x="704" d="M74 422l18 117h459l-19 -117h-458z" />
<glyph unicode="&#xae;" horiz-adv-x="770" d="M446.5 721q-131.5 0 -219.5 88t-88 219t88 219t219.5 88t219.5 -88t88 -219t-88 -219t-219.5 -88zM446.5 754q114.5 0 191.5 78.5t77 195.5t-77 196t-191.5 79t-191.5 -79t-77 -196t77 -195.5t191.5 -78.5zM578 1112q0 -66 -89 -80v-8q41 -8 62 -51q23 -51 35 -62 q16 -14 43 -16v-18h-62q-27 0 -39 10t-24 43l-23 53q-12 31 -55 31h-16v-107l53 -12v-18h-170v18l55 12v250l-55 14v19h174q53 0 82 -22.5t29 -55.5zM512 1104q0 61 -72 61h-30v-127h22q80 0 80 66z" />
<glyph unicode="&#xaf;" horiz-adv-x="673" d="M182 1124l15 86h489l-12 -86h-492z" />
<glyph unicode="&#xb0;" horiz-adv-x="802" d="M393 721q-113 0 -178 60.5t-65 170.5q0 143 98 264t258 121q115 0 179.5 -60t64.5 -171q0 -143 -97.5 -264t-259.5 -121zM426 762q66 0 109 59.5t57 127t14 132.5q0 213 -133 213q-66 0 -108.5 -59t-56 -126t-13.5 -132q0 -215 131 -215z" />
<glyph unicode="&#xb1;" horiz-adv-x="1024" d="M51 -410v2048h922v-2048h-922z" />
<glyph unicode="&#xb2;" horiz-adv-x="1024" d="M51 -410v2048h922v-2048h-922z" />
<glyph unicode="&#xb3;" horiz-adv-x="1024" d="M51 -410v2048h922v-2048h-922z" />
<glyph unicode="&#xb4;" horiz-adv-x="503" d="M184 1061l-22 18q35 55 99.5 174t88.5 150q27 33 61.5 45t61.5 -6.5t25 -53t-31 -69.5q-25 -31 -129.5 -121t-153.5 -137z" />
<glyph unicode="&#xb5;" horiz-adv-x="1034" d="M571 616l228 -307l-76 -55l-221 307l-328 -268l-53 65l336 273l-228 307l76 55l221 -307l328 268l53 -65z" />
<glyph unicode="&#xb6;" horiz-adv-x="1415" d="M887 -170q-375 0 -582 197.5t-207 492.5q0 371 285 618.5t715 247.5h407l-4 -32l-219 -39l-225 -1413l219 -37l-4 -35h-385zM827 -102l160 4l225 1413l-157 4z" />
<glyph unicode="&#xb7;" horiz-adv-x="448" d="M225 528q-51 0 -88 36t-37 87t37 87t88 36t87 -36t36 -87t-36 -87t-87 -36z" />
<glyph unicode="&#xb8;" horiz-adv-x="593" d="M20 -508q-68 0 -105.5 26.5t-37.5 67.5q0 29 16.5 47.5t43.5 18.5q55 0 55 -62q0 -27 -21 -47q25 -14 56 -14q98 0 98 119q0 123 -115 123q-25 0 -59 -11l-33 35l367 307l28 -39l-243 -204q76 -10 122 -57.5t46 -118.5q0 -84 -62 -137.5t-156 -53.5z" />
<glyph unicode="&#xb9;" horiz-adv-x="1024" d="M51 -410v2048h922v-2048h-922z" />
<glyph unicode="&#xba;" horiz-adv-x="843" d="M383 651q-104 0 -172 68.5t-68 187.5q0 168 106.5 298t278.5 130q104 0 169 -67.5t65 -188.5q0 -170 -104.5 -299t-274.5 -129zM422 694q51 0 91 38t62.5 95.5t34 115.5t11.5 108q0 240 -138 239q-94 0 -145 -118.5t-51 -235.5q0 -242 135 -242z" />
<glyph unicode="&#xbb;" horiz-adv-x="980" d="M434 63l-35 39l293 357l-178 368l43 31l332 -387l-4 -20zM55 63l-35 39l293 357l-176 368l41 31l332 -387l-4 -20z" />
<glyph unicode="&#xbc;" horiz-adv-x="1024" d="M51 -410v2048h922v-2048h-922z" />
<glyph unicode="&#xbd;" horiz-adv-x="1024" d="M51 -410v2048h922v-2048h-922z" />
<glyph unicode="&#xbe;" horiz-adv-x="1024" d="M51 -410v2048h922v-2048h-922z" />
<glyph unicode="&#xbf;" horiz-adv-x="729" d="M473 821q51 0 88 -35.5t37 -87t-37 -87.5t-88 -36t-87 36t-36 87.5t36 87t87 35.5zM340 444q86 0 159.5 -54t73.5 -154q0 -88 -64.5 -145.5t-197.5 -121.5q-129 -61 -189.5 -113.5t-60.5 -127.5q0 -94 57.5 -155.5t147.5 -64.5q55 0 96 27q-14 37 -14 78q0 57 33 93 t78 36q47 0 79.5 -33t32.5 -88q0 -70 -77.5 -118t-202.5 -48q-162 0 -264.5 93.5t-102.5 236.5q0 127 74 197.5t217 130.5q84 35 119 52t62.5 46t27.5 63q0 68 -59.5 93.5t-143.5 19.5l-6 23q45 34 125 34z" />
<glyph unicode="&#xc0;" horiz-adv-x="1284" d="M805 1442q-29 41 -76 101l-79 104q-32 43 -44 65q-16 31 -8 62.5t37 48t56.5 6.5t43.5 -41q12 -23 27 -76l35 -129q20 -76 34 -123zM-104 0l6 35l153 55l647 1227h82l273 -1235l160 -47l-7 -35h-577l4 35l209 37l-82 407h-410l-190 -395l141 -49l-6 -35h-403zM385 547 h365l-107 530h-2q-254 -530 -256 -530z" />
<glyph unicode="&#xc1;" horiz-adv-x="1284" d="M741 1442l-22 18q35 55 99.5 174t88.5 150q27 33 62 45t61.5 -6.5t24.5 -53t-31 -69.5q-25 -31 -129.5 -121t-153.5 -137zM-104 0l6 35l153 55l647 1227h82l273 -1235l160 -47l-7 -35h-577l4 35l209 37l-82 407h-410l-190 -395l141 -49l-6 -35h-403zM385 547h365 l-107 530h-2q-254 -530 -256 -530z" />
<glyph unicode="&#xc2;" horiz-adv-x="1284" d="M522 1415l-20 21l305 362h29l176 -362l-27 -21l-197 203zM-104 0l6 35l153 55l647 1227h82l273 -1235l160 -47l-7 -35h-577l4 35l209 37l-82 407h-410l-190 -395l141 -49l-6 -35h-403zM385 547h365l-107 530h-2q-254 -530 -256 -530z" />
<glyph unicode="&#xc3;" horiz-adv-x="1284" d="M520 1481l-31 10q31 203 166 203q53 0 148.5 -36t132.5 -36q66 0 98 86l31 -12q-33 -203 -166 -203q-55 0 -149.5 36t-131.5 36q-65 0 -98 -84zM-104 0l6 35l153 55l647 1227h82l273 -1235l160 -47l-7 -35h-577l4 35l209 37l-82 407h-410l-190 -395l141 -49l-6 -35h-403z M385 547h365l-107 530h-2q-254 -530 -256 -530z" />
<glyph unicode="&#xc4;" horiz-adv-x="1284" d="M954 1507q-43 0 -70.5 29t-27.5 72t32 76.5t77 33.5q43 0 70.5 -28.5t27.5 -71.5t-32 -77t-77 -34zM633 1507q-43 0 -72 29t-29 72q0 45 32 77.5t79 32.5q43 0 70.5 -28.5t27.5 -71.5t-31.5 -77t-76.5 -34zM-104 0l6 35l153 55l647 1227h82l273 -1235l160 -47l-7 -35 h-577l4 35l209 37l-82 407h-410l-190 -395l141 -49l-6 -35h-403zM385 547h365l-107 530h-2q-254 -530 -256 -530z" />
<glyph unicode="&#xc5;" horiz-adv-x="1284" d="M-104 0l6 35l153 55l639 1210q-53 12 -83.5 52.5t-30.5 97.5q0 82 60 147.5t151 65.5q68 0 110.5 -43t42.5 -110.5t-44 -128t-114 -78.5l271 -1221l160 -47l-7 -35h-577l4 35l209 37l-82 407h-410l-190 -395l141 -49l-6 -35h-403zM743 1329q53 0 80 58.5t27 119.5 q0 123 -68 123q-53 0 -79.5 -58.5t-26.5 -121.5q-1 -121 67 -121zM385 547h365l-107 530h-2q-254 -530 -256 -530z" />
<glyph unicode="&#xc6;" horiz-adv-x="1839" d="M-135 0l4 35l156 55l888 1127l-188 53l4 35h1010l-6 -351l-23 -14l-131 174q-4 6 -20.5 27.5t-20.5 25.5t-17.5 19.5t-20.5 19.5l-22 13q-15 8 -29 10l-33 5q-19 3 -44 3h-225l-88 -551h90q92 0 146.5 42t103.5 151l31 67h30l-92 -575h-33l-6 63q-10 106 -54 150.5 t-136 44.5h-88l-90 -559h294q59 0 99.5 14t61 31.5t63.5 62.5l215 230l16 -9l-98 -399h-1063l4 35l209 37l74 465h-365l-340 -453l141 -49l-4 -35h-403zM522 604h324l86 539h-4z" />
<glyph unicode="&#xc7;" horiz-adv-x="1337" d="M545 -508q-68 0 -106 26.5t-38 67.5q0 29 16.5 47.5t43.5 18.5q55 0 55 -62q0 -27 -20 -47q25 -14 55 -14q98 0 98 119q0 123 -114 123q-25 0 -60 -11l-33 35l211 176q-246 16 -404.5 177t-158.5 417q0 299 202 534.5t496 235.5q201 0 351 -82l112 88h25l-55 -438l-33 -4 q-115 389 -393 389q-190 0 -338 -213t-148 -545q0 -219 124 -358t292 -139q102 0 166 26l254 310l18 -9l-57 -299q-182 -86 -379 -92l-133 -110q76 -10 122 -57.5t46 -118.5q0 -84 -61.5 -137.5t-155.5 -53.5z" />
<glyph unicode="&#xc8;" horiz-adv-x="1269" d="M801 1442q-29 41 -76 101l-79 104q-32 43 -44 65q-16 31 -8 62.5t36.5 48t56.5 6.5t44 -41q12 -23 27 -76l35 -129q20 -76 34 -123zM-20 0l6 35l209 37l184 1161l-197 37l4 35h983l-6 -351l-22 -14l-129 174q-57 78 -82 94q-43 29 -127 29h-225l-89 -551h91q92 0 149 43 t102 150l29 67h31l-92 -575h-31l-8 63q-14 109 -55 152t-136 43h-88l-88 -559h295q57 0 97 14t60.5 31.5t63.5 62.5l215 230l19 -9l-101 -399h-1062z" />
<glyph unicode="&#xc9;" horiz-adv-x="1269" d="M705 1442l-23 18q35 55 99.5 174t88.5 150q27 33 62 45t61.5 -6.5t24.5 -53t-31 -69.5q-25 -31 -129 -121t-153 -137zM-20 0l6 35l209 37l184 1161l-197 37l4 35h983l-6 -351l-22 -14l-129 174q-57 78 -82 94q-43 29 -127 29h-225l-89 -551h91q92 0 149 43t102 150l29 67 h31l-92 -575h-31l-8 63q-14 109 -55 152t-136 43h-88l-88 -559h295q57 0 97 14t60.5 31.5t63.5 62.5l215 230l19 -9l-101 -399h-1062z" />
<glyph unicode="&#xca;" horiz-adv-x="1269" d="M537 1436l-21 20l305 363h29l176 -363l-27 -20l-196 202zM-20 0l6 35l209 37l184 1161l-197 37l4 35h983l-6 -351l-22 -14l-129 174q-57 78 -82 94q-43 29 -127 29h-225l-89 -551h91q92 0 149 43t102 150l29 67h31l-92 -575h-31l-8 63q-14 109 -55 152t-136 43h-88 l-88 -559h295q57 0 97 14t60.5 31.5t63.5 62.5l215 230l19 -9l-101 -399h-1062z" />
<glyph unicode="&#xcb;" horiz-adv-x="1269" d="M942 1507q-43 0 -70.5 29t-27.5 72t31.5 76.5t76.5 33.5q43 0 71 -28.5t28 -71.5t-32 -77t-77 -34zM621 1507q-43 0 -72 29t-29 72q0 45 32 77.5t79 32.5q43 0 70.5 -28.5t27.5 -71.5t-31.5 -77t-76.5 -34zM-20 0l6 35l209 37l184 1161l-197 37l4 35h983l-6 -351l-22 -14 l-129 174q-57 78 -82 94q-43 29 -127 29h-225l-89 -551h91q92 0 149 43t102 150l29 67h31l-92 -575h-31l-8 63q-14 109 -55 152t-136 43h-88l-88 -559h295q57 0 97 14t60.5 31.5t63.5 62.5l215 230l19 -9l-101 -399h-1062z" />
<glyph unicode="&#xcc;" horiz-adv-x="835" d="M535 1442q-29 41 -76 101l-79 104q-32 43 -44 65q-16 31 -8 62.5t36.5 48t56.5 6.5t44 -41q12 -23 27 -76l34 -129q20 -76 35 -123zM4 0l6 35l215 37l185 1161l-203 37l4 35h618l-6 -35l-215 -37l-184 -1161l203 -37l-4 -35h-619z" />
<glyph unicode="&#xcd;" horiz-adv-x="835" d="M487 1442l-22 18q35 55 99.5 174t88.5 150q27 33 62 45t61.5 -6.5t24.5 -53t-31 -69.5q-25 -31 -129.5 -121t-153.5 -137zM4 0l6 35l215 37l185 1161l-203 37l4 35h618l-6 -35l-215 -37l-184 -1161l203 -37l-4 -35h-619z" />
<glyph unicode="&#xce;" horiz-adv-x="835" d="M307 1436l-20 20l305 363h29l176 -363l-27 -20l-197 202zM4 0l6 35l215 37l185 1161l-203 37l4 35h618l-6 -35l-215 -37l-184 -1161l203 -37l-4 -35h-619z" />
<glyph unicode="&#xcf;" horiz-adv-x="835" d="M725 1507q-43 0 -70.5 29t-27.5 72t31.5 76.5t76.5 33.5q43 0 71 -28.5t28 -71.5t-32 -77t-77 -34zM403 1507q-43 0 -71.5 29t-28.5 72q0 45 32 77.5t79 32.5q43 0 70.5 -28.5t27.5 -71.5t-32 -77t-77 -34zM4 0l6 35l215 37l185 1161l-203 37l4 35h618l-6 -35l-215 -37 l-184 -1161l203 -37l-4 -35h-619z" />
<glyph unicode="&#xd0;" horiz-adv-x="1437" d="M-18 0l4 35l209 37l90 571h-174v68h184l84 522l-199 37l6 35h549q295 0 464 -150.5t169 -398.5q0 -315 -221 -535.5t-608 -220.5h-557zM393 68h158q193 0 332 101t202.5 259t63.5 350q0 211 -110.5 335t-333.5 124h-127q-82 -526 -84 -526h233v-68h-244l-22 -143 l-45 -287z" />
<glyph unicode="&#xd1;" horiz-adv-x="1495" d="M614 1481l-30 10q31 203 166 203q53 0 148 -36t132 -36q66 0 98 86l31 -12q-33 -203 -166 -203q-55 0 -149 36t-131 36q-66 0 -99 -84zM1075 -12l-117 209l-528 907h-12l-162 -1014l152 -55l-5 -35h-393l6 35l170 55l181 1127l-154 53l6 35h344l117 -209l428 -754h14 l140 872l-154 56l6 35h391l-4 -35l-172 -56l-194 -1226h-60z" />
<glyph unicode="&#xd2;" horiz-adv-x="1425" d="M846 1442q-29 41 -76 101l-79 104q-32 43 -44 65q-16 31 -8 62.5t37 48t56.5 6.5t43.5 -41q12 -23 27 -76l35 -129q20 -76 34 -123zM639 -31q-248 0 -398.5 168t-150.5 428q0 193 85 369t247 288.5t358 112.5q246 0 396.5 -168t150.5 -426q0 -193 -85 -368.5 t-245.5 -289.5t-357.5 -114zM635 16q180 0 326.5 216.5t146.5 555.5q0 133 -33 243t-108.5 183.5t-184.5 73.5q-180 0 -326.5 -216t-146.5 -556q0 -131 32 -240.5t108.5 -184.5t185.5 -75z" />
<glyph unicode="&#xd3;" horiz-adv-x="1425" d="M774 1442l-22 18q35 55 99 174t89 150q27 33 61.5 45t61.5 -6.5t24.5 -53t-30.5 -69.5q-25 -31 -129.5 -121t-153.5 -137zM639 -31q-248 0 -398.5 168t-150.5 428q0 193 85 369t247 288.5t358 112.5q246 0 396.5 -168t150.5 -426q0 -193 -85 -368.5t-245.5 -289.5 t-357.5 -114zM635 16q180 0 326.5 216.5t146.5 555.5q0 133 -33 243t-108.5 183.5t-184.5 73.5q-180 0 -326.5 -216t-146.5 -556q0 -131 32 -240.5t108.5 -184.5t185.5 -75z" />
<glyph unicode="&#xd4;" horiz-adv-x="1425" d="M578 1436l-21 20l305 363h29l176 -363l-27 -20l-196 202zM639 -31q-248 0 -398.5 168t-150.5 428q0 193 85 369t247 288.5t358 112.5q246 0 396.5 -168t150.5 -426q0 -193 -85 -368.5t-245.5 -289.5t-357.5 -114zM635 16q180 0 326.5 216.5t146.5 555.5q0 133 -33 243 t-108.5 183.5t-184.5 73.5q-180 0 -326.5 -216t-146.5 -556q0 -131 32 -240.5t108.5 -184.5t185.5 -75z" />
<glyph unicode="&#xd5;" horiz-adv-x="1425" d="M565 1481l-30 10q31 203 165 203q53 0 148.5 -36t132.5 -36q66 0 98 86l31 -12q-33 -203 -166 -203q-55 0 -149.5 36t-130.5 36q-66 0 -99 -84zM639 -31q-248 0 -398.5 168t-150.5 428q0 193 85 369t247 288.5t358 112.5q246 0 396.5 -168t150.5 -426q0 -193 -85 -368.5 t-245.5 -289.5t-357.5 -114zM635 16q180 0 326.5 216.5t146.5 555.5q0 133 -33 243t-108.5 183.5t-184.5 73.5q-180 0 -326.5 -216t-146.5 -556q0 -131 32 -240.5t108.5 -184.5t185.5 -75z" />
<glyph unicode="&#xd6;" horiz-adv-x="1425" d="M967 1507q-43 0 -71 29t-28 72t32 76.5t77 33.5q43 0 70.5 -28.5t27.5 -71.5t-31.5 -77t-76.5 -34zM645 1507q-43 0 -71.5 29t-28.5 72q0 45 31.5 77.5t78.5 32.5q43 0 71 -28.5t28 -71.5t-32 -77t-77 -34zM639 -31q-248 0 -398.5 168t-150.5 428q0 193 85 369t247 288.5 t358 112.5q246 0 396.5 -168t150.5 -426q0 -193 -85 -368.5t-245.5 -289.5t-357.5 -114zM635 16q180 0 326.5 216.5t146.5 555.5q0 133 -33 243t-108.5 183.5t-184.5 73.5q-180 0 -326.5 -216t-146.5 -556q0 -131 32 -240.5t108.5 -184.5t185.5 -75z" />
<glyph unicode="&#xd7;" horiz-adv-x="1034" d="M571 616l228 -307l-76 -55l-221 307l-328 -268l-53 65l336 273l-228 307l76 55l221 -307l328 268l53 -65z" />
<glyph unicode="&#xd8;" horiz-adv-x="1425" d="M162 -66l-51 41l131 160q-152 164 -152 430q0 193 85 369t247 288.5t358 112.5q205 0 348 -121l127 156l52 -43l-131 -160q152 -162 151 -426q0 -193 -85 -368.5t-245.5 -289.5t-357.5 -114q-203 0 -350 121zM346 262l696 848q-86 178 -260 178q-180 0 -326.5 -216 t-146.5 -556q0 -137 37 -254zM635 16q180 0 326.5 216.5t146.5 555.5q0 137 -37 252l-696 -845q86 -179 260 -179z" />
<glyph unicode="&#xd9;" horiz-adv-x="1480" d="M952 1442l-75 101l-79 104q-32 43 -44 65q-16 31 -8 62.5t36.5 48t56 6.5t44.5 -41q12 -23 26 -76l35 -129q20 -76 35 -123zM684 -35q-258 0 -372.5 127t-73.5 381l120 760l-196 37l6 35h606l-4 -35l-209 -37l-123 -776q-31 -197 52 -288t247 -91q176 0 279.5 106.5 t132.5 280.5l119 749l-154 56l6 35h391l-6 -35l-170 -56l-127 -794q-33 -199 -177 -327t-347 -128z" />
<glyph unicode="&#xda;" horiz-adv-x="1480" d="M893 1442l-23 18q35 55 99.5 174t89.5 150q27 33 61.5 45t61 -6.5t24.5 -53t-30 -69.5q-25 -31 -129.5 -121t-153.5 -137zM684 -35q-258 0 -372.5 127t-73.5 381l120 760l-196 37l6 35h606l-4 -35l-209 -37l-123 -776q-31 -197 52 -288t247 -91q176 0 279.5 106.5 t132.5 280.5l119 749l-154 56l6 35h391l-6 -35l-170 -56l-127 -794q-33 -199 -177 -327t-347 -128z" />
<glyph unicode="&#xdb;" horiz-adv-x="1480" d="M717 1436l-21 20l305 363h29l176 -363l-26 -20l-197 202zM684 -35q-258 0 -372.5 127t-73.5 381l120 760l-196 37l6 35h606l-4 -35l-209 -37l-123 -776q-31 -197 52 -288t247 -91q176 0 279.5 106.5t132.5 280.5l119 749l-154 56l6 35h391l-6 -35l-170 -56l-127 -794 q-33 -199 -177 -327t-347 -128z" />
<glyph unicode="&#xdc;" horiz-adv-x="1480" d="M1098 1507q-43 0 -71 29t-28 72t32 76.5t77 33.5q43 0 70.5 -28.5t27.5 -71.5t-31.5 -77t-76.5 -34zM776 1507q-43 0 -71.5 29t-28.5 72q0 45 31.5 77.5t78.5 32.5q43 0 71 -28.5t28 -71.5t-32 -77t-77 -34zM684 -35q-258 0 -372.5 127t-73.5 381l120 760l-196 37l6 35 h606l-4 -35l-209 -37l-123 -776q-31 -197 52 -288t247 -91q176 0 279.5 106.5t132.5 280.5l119 749l-154 56l6 35h391l-6 -35l-170 -56l-127 -794q-33 -199 -177 -327t-347 -128z" />
<glyph unicode="&#xdd;" horiz-adv-x="1306" d="M803 1442l-23 18q35 55 99.5 174t89.5 150q27 33 61.5 45t61 -6.5t24.5 -53t-31 -69.5q-25 -31 -129 -121t-153 -137zM246 0l6 35l215 37l80 508l-281 643l-172 47l6 35h578l-6 -35l-183 -37l224 -582l401 570l-141 49l6 35h420l-6 -35l-170 -56l-473 -616l-84 -526 l202 -37l-4 -35h-618z" />
<glyph unicode="&#xde;" horiz-adv-x="1187" d="M-23 0l7 33l209 37l184 1163l-199 37l6 35h604l-4 -35l-209 -37l-36 -232q66 18 149 19q215 0 323.5 -98.5t108.5 -239.5q0 -164 -136 -283.5t-361 -119.5q-86 0 -197 20l-35 -229l197 -37l-6 -33h-605zM559 340q164 0 254 95t90 247q0 123 -69.5 204t-190.5 81 q-51 0 -113 -13l-96 -606q74 -8 125 -8z" />
<glyph unicode="&#xdf;" horiz-adv-x="954" d="M-168 -449q-68 0 -106.5 32t-38.5 77q0 39 28.5 64.5t75.5 25.5q98 0 166 -110q68 113 96 313l146 1036q23 152 76 256.5t153 184.5q111 88 242 88q137 0 206.5 -78t69.5 -195q0 -227 -356 -473q135 -111 219 -250t84 -248q0 -121 -79 -209t-204 -88q-121 0 -186.5 53.5 t-65.5 127.5q0 47 28 77.5t67 30.5q57 0 76.5 -55t-9.5 -133q57 -39 111 -39q57 0 91 37t34 96q0 104 -86 242.5t-240 279.5v21q172 119 261 261t89 279q0 211 -147 211q-92 0 -166 -126t-107 -345l-116 -817q-33 -225 -73 -331.5t-128 -196.5q-94 -99 -211 -99z" />
<glyph unicode="&#xe0;" horiz-adv-x="950" d="M631 1061q-29 41 -76 101l-79 104q-32 43 -44 65q-16 31 -8 62.5t36.5 48t56.5 6.5t44 -41q12 -23 27 -76l35 -129q20 -76 34 -123zM313 -23q-104 0 -181 89.5t-77 240.5q0 242 175.5 442.5t404.5 200.5q70 0 149 -41l84 72l13 -8l-150 -803q-6 -35 0 -50.5t49 -27.5 t135 -14l5 -15q-137 -86 -244 -86q-102 0 -103 150l-8 6q-133 -156 -252 -156zM399 96q86 0 183 88l100 574q-86 100 -182 100q-100 0 -186.5 -148.5t-86.5 -357.5q0 -111 47 -183.5t125 -72.5z" />
<glyph unicode="&#xe1;" horiz-adv-x="950" d="M543 1061l-23 18q35 55 99.5 174t89.5 150q27 33 61.5 45t61 -6.5t24.5 -53t-31 -69.5q-25 -31 -129 -121t-153 -137zM313 -23q-104 0 -181 89.5t-77 240.5q0 242 175.5 442.5t404.5 200.5q70 0 149 -41l84 72l13 -8l-150 -803q-6 -35 0 -50.5t49 -27.5t135 -14l5 -15 q-137 -86 -244 -86q-102 0 -103 150l-8 6q-133 -156 -252 -156zM399 96q86 0 183 88l100 574q-86 100 -182 100q-100 0 -186.5 -148.5t-86.5 -357.5q0 -111 47 -183.5t125 -72.5z" />
<glyph unicode="&#xe2;" horiz-adv-x="950" d="M395 1055l-20 20l305 363h29l176 -363l-27 -20l-196 202zM313 -23q-104 0 -181 89.5t-77 240.5q0 242 175.5 442.5t404.5 200.5q70 0 149 -41l84 72l13 -8l-150 -803q-6 -35 0 -50.5t49 -27.5t135 -14l5 -15q-137 -86 -244 -86q-102 0 -103 150l-8 6q-133 -156 -252 -156 zM399 96q86 0 183 88l100 574q-86 100 -182 100q-100 0 -186.5 -148.5t-86.5 -357.5q0 -111 47 -183.5t125 -72.5z" />
<glyph unicode="&#xe3;" horiz-adv-x="950" d="M375 1100l-31 10q31 203 166 203q53 0 148.5 -36t132.5 -36q66 0 98 86l31 -12q-33 -203 -166 -203q-53 0 -149.5 36t-131.5 36q-65 0 -98 -84zM313 -23q-104 0 -181 89.5t-77 240.5q0 242 175.5 442.5t404.5 200.5q70 0 149 -41l84 72l13 -8l-150 -803q-6 -35 0 -50.5 t49 -27.5t135 -14l5 -15q-137 -86 -244 -86q-102 0 -103 150l-8 6q-133 -156 -252 -156zM399 96q86 0 183 88l100 574q-86 100 -182 100q-100 0 -186.5 -148.5t-86.5 -357.5q0 -111 47 -183.5t125 -72.5z" />
<glyph unicode="&#xe4;" horiz-adv-x="950" d="M788 1126q-43 0 -70.5 29t-27.5 72t32 76.5t77 33.5q43 0 70.5 -28.5t27.5 -71.5t-32 -77t-77 -34zM467 1126q-43 0 -71.5 29t-28.5 72q0 45 31.5 77.5t78.5 32.5q43 0 70.5 -28.5t27.5 -71.5t-31.5 -77t-76.5 -34zM313 -23q-104 0 -181 89.5t-77 240.5 q0 242 175.5 442.5t404.5 200.5q70 0 149 -41l84 72l13 -8l-150 -803q-6 -35 0 -50.5t49 -27.5t135 -14l5 -15q-137 -86 -244 -86q-102 0 -103 150l-8 6q-133 -156 -252 -156zM399 96q86 0 183 88l100 574q-86 100 -182 100q-100 0 -186.5 -148.5t-86.5 -357.5 q0 -111 47 -183.5t125 -72.5z" />
<glyph unicode="&#xe5;" horiz-adv-x="950" d="M606 1051q-70 0 -111.5 43t-41.5 110q0 82 60 147.5t151 65.5q68 0 110.5 -43t42.5 -110q0 -82 -59.5 -147.5t-151.5 -65.5zM313 -23q-104 0 -181 89.5t-77 240.5q0 242 175.5 442.5t404.5 200.5q70 0 149 -41l84 72l13 -8l-150 -803q-6 -35 0 -50.5t49 -27.5t135 -14 l5 -15q-137 -86 -244 -86q-102 0 -103 150l-8 6q-133 -156 -252 -156zM616 1083q53 0 80 58.5t27 120.5q0 123 -68 122q-53 0 -79.5 -58t-26.5 -122q-1 -121 67 -121zM399 96q86 0 183 88l100 574q-86 100 -182 100q-100 0 -186.5 -148.5t-86.5 -357.5q0 -111 47 -183.5 t125 -72.5z" />
<glyph unicode="&#xe6;" horiz-adv-x="1304" d="M571 156h-8q-102 -178 -252 -179q-109 0 -186.5 82t-77.5 220q0 143 79 298.5t214 264t278 108.5q117 0 177 -82q119 82 254 82q106 0 168.5 -55t62.5 -133q0 -121 -141.5 -212t-423.5 -81q-23 -176 37.5 -276.5t191.5 -100.5q63 0 130 31t112 82l14 -19 q-45 -90 -142 -149.5t-192 -59.5q-104 0 -180 48.5t-115 130.5zM723 520q193 -25 297 62.5t104 199.5q0 53 -25.5 86t-72.5 33q-106 0 -189 -112.5t-114 -268.5zM678 756q-84 111 -164 110q-117 0 -206 -160.5t-89 -379.5q0 -102 49 -164t125 -62q82 0 164 90 q-25 68 -25 146q1 232 146 420z" />
<glyph unicode="&#xe7;" horiz-adv-x="813" d="M307 -508q-68 0 -105.5 26.5t-37.5 67.5q0 29 16.5 47.5t42.5 18.5q55 0 56 -62q0 -27 -21 -47q25 -14 55 -14q98 0 99 119q0 123 -115 123q-25 0 -59 -11l-33 35l219 185q-10 -2 -31 -3q-158 0 -248 104.5t-90 258.5q0 231 161 420.5t372 189.5q104 0 159.5 -51 t55.5 -115q0 -49 -26.5 -81.5t-69.5 -32.5q-51 0 -81 34.5t-30 92.5q0 59 22 112q-162 -2 -275.5 -166.5t-113.5 -365.5q0 -145 66.5 -213t177.5 -68q133 0 246 109l14 -19q-61 -121 -201 -180l-176 -147q76 -10 122 -57.5t46 -118.5q0 -84 -61.5 -137.5t-155.5 -53.5z" />
<glyph unicode="&#xe8;" horiz-adv-x="825" d="M559 1061q-29 41 -76 101l-79 104q-32 43 -44 65q-16 31 -8 62.5t37 48t56.5 6.5t43.5 -41q12 -23 27 -76l35 -129q20 -76 35 -123zM236 469q-23 -176 37.5 -276.5t191.5 -100.5q63 0 130 31t112 82l14 -19q-45 -90 -142.5 -149.5t-191.5 -59.5q-156 0 -245 101.5 t-89 257.5q0 143 61.5 282.5t182.5 235.5t272 96q106 0 169 -55t63 -133q0 -121 -141 -212t-424 -81zM244 520q100 -12 181 8.5t127 63.5t69.5 92t23.5 98q0 53 -25.5 86t-72.5 33q-106 0 -188 -113.5t-115 -267.5z" />
<glyph unicode="&#xe9;" horiz-adv-x="825" d="M479 1061l-22 18q35 55 99.5 174t88.5 150q27 33 61.5 45t61.5 -6.5t25 -53t-31 -69.5q-25 -31 -129.5 -121t-153.5 -137zM236 469q-23 -176 37.5 -276.5t191.5 -100.5q63 0 130 31t112 82l14 -19q-45 -90 -142.5 -149.5t-191.5 -59.5q-156 0 -245 101.5t-89 257.5 q0 143 61.5 282.5t182.5 235.5t272 96q106 0 169 -55t63 -133q0 -121 -141 -212t-424 -81zM244 520q100 -12 181 8.5t127 63.5t69.5 92t23.5 98q0 53 -25.5 86t-72.5 33q-106 0 -188 -113.5t-115 -267.5z" />
<glyph unicode="&#xea;" horiz-adv-x="825" d="M319 1055l-20 20l305 363h29l176 -363l-27 -20l-196 202zM236 469q-23 -176 37.5 -276.5t191.5 -100.5q63 0 130 31t112 82l14 -19q-45 -90 -142.5 -149.5t-191.5 -59.5q-156 0 -245 101.5t-89 257.5q0 143 61.5 282.5t182.5 235.5t272 96q106 0 169 -55t63 -133 q0 -121 -141 -212t-424 -81zM244 520q100 -12 181 8.5t127 63.5t69.5 92t23.5 98q0 53 -25.5 86t-72.5 33q-106 0 -188 -113.5t-115 -267.5z" />
<glyph unicode="&#xeb;" horiz-adv-x="825" d="M709 1126q-43 0 -71 29t-28 72t32 76.5t77 33.5q43 0 70.5 -28.5t27.5 -71.5t-31.5 -77t-76.5 -34zM387 1126q-43 0 -71.5 29t-28.5 72q0 45 31.5 77.5t78.5 32.5q43 0 71 -28.5t28 -71.5t-32 -77t-77 -34zM236 469q-23 -176 37.5 -276.5t191.5 -100.5q63 0 130 31 t112 82l14 -19q-45 -90 -142.5 -149.5t-191.5 -59.5q-156 0 -245 101.5t-89 257.5q0 143 61.5 282.5t182.5 235.5t272 96q106 0 169 -55t63 -133q0 -121 -141 -212t-424 -81zM244 520q100 -12 181 8.5t127 63.5t69.5 92t23.5 98q0 53 -25.5 86t-72.5 33q-106 0 -188 -113.5 t-115 -267.5z" />
<glyph unicode="&#xec;" horiz-adv-x="522" d="M367 1061q-29 41 -76 101l-79 104q-32 43 -44 65q-16 31 -8 62.5t36.5 48t56.5 6.5t44 -41q12 -23 27 -76l34 -129q20 -76 35 -123zM217 -23q-61 0 -88 43t-16 103l112 649l-133 64v20l314 107l8 -7l-133 -786q-10 -55 24.5 -72.5t159.5 -19.5l4 -15q-137 -86 -252 -86z " />
<glyph unicode="&#xed;" horiz-adv-x="522" d="M250 1061l-23 18q35 55 99.5 174t89.5 150q27 33 61.5 45t61 -6.5t24.5 -53t-31 -69.5q-25 -31 -129 -121t-153 -137zM217 -23q-61 0 -88 43t-16 103l112 649l-133 64v20l314 107l8 -7l-133 -786q-10 -55 24.5 -72.5t159.5 -19.5l4 -15q-137 -86 -252 -86z" />
<glyph unicode="&#xee;" horiz-adv-x="522" d="M94 1055l-20 20l305 363h29l176 -363l-27 -20l-197 202zM217 -23q-61 0 -88 43t-16 103l112 649l-133 64v20l314 107l8 -7l-133 -786q-10 -55 24.5 -72.5t159.5 -19.5l4 -15q-137 -86 -252 -86z" />
<glyph unicode="&#xef;" horiz-adv-x="522" d="M508 1126q-43 0 -70.5 29t-27.5 72t31.5 76.5t76.5 33.5q43 0 70.5 -28.5t27.5 -71.5t-31.5 -77t-76.5 -34zM186 1126q-43 0 -71.5 29t-28.5 72q0 45 32 77.5t79 32.5q43 0 70.5 -28.5t27.5 -71.5t-32 -77t-77 -34zM217 -23q-61 0 -88 43t-16 103l112 649l-133 64v20 l314 107l8 -7l-133 -786q-10 -55 24.5 -72.5t159.5 -19.5l4 -15q-137 -86 -252 -86z" />
<glyph unicode="&#xf0;" horiz-adv-x="935" d="M334 -23q-106 0 -187 91.5t-81 248.5q0 150 77.5 294.5t215 240.5t294.5 98q-55 147 -141 248l-45 -33l-90 -65l-45 -33l-37 51l172 127q-92 92 -283 199l17 33q207 -55 356 -164l166 121l35 -52l-148 -108q283 -240 283 -590q0 -133 -52.5 -275.5t-127.5 -224.5 q-174 -207 -379 -207zM436 72q109 0 196 144t87 349q0 123 -54.5 208t-144.5 85q-106 0 -193 -145.5t-87 -350.5q0 -121 53 -205.5t143 -84.5z" />
<glyph unicode="&#xf1;" horiz-adv-x="1040" d="M348 1100l-31 10q31 203 166 203q53 0 148.5 -36t132.5 -36q66 0 98 86l31 -12q-33 -203 -166 -203q-55 0 -149.5 36t-131.5 36q-65 0 -98 -84zM768 -23q-109 0 -109 103q0 47 13 108l69 383q23 123 -1.5 180.5t-112.5 57.5q-59 0 -107.5 -18.5t-140.5 -65.5l-121 -725 h-158l131 772l-133 64v20l299 107l9 -7l-21 -186l10 -4q113 96 194 140t154 44q109 0 150 -87t12 -240l-84 -453q-10 -51 25 -70.5t160 -21.5l4 -15q-138 -86 -242 -86z" />
<glyph unicode="&#xf2;" d="M563 1061q-29 41 -76 101l-78 104q-32 43 -44 65q-16 31 -8 62.5t36.5 48t56 6.5t44.5 -41q12 -23 26 -76l35 -129q20 -76 35 -123zM369 -23q-139 0 -226.5 96.5t-87.5 268.5q0 225 141.5 416.5t366.5 191.5q139 0 223 -95t84 -269q0 -143 -56 -279.5t-174.5 -233 t-270.5 -96.5zM430 39q68 0 122 54t84 136t45 164t15 154q0 90 -17 162.5t-64.5 126t-118.5 53.5q-68 0 -121 -54.5t-83 -135.5t-45.5 -163.5t-15.5 -152.5q0 -143 47.5 -243.5t151.5 -100.5z" />
<glyph unicode="&#xf3;" d="M500 1061l-23 18q35 55 99.5 174t89.5 150q27 33 61.5 45t61 -6.5t24.5 -53t-31 -69.5q-25 -31 -129 -121t-153 -137zM369 -23q-139 0 -226.5 96.5t-87.5 268.5q0 225 141.5 416.5t366.5 191.5q139 0 223 -95t84 -269q0 -143 -56 -279.5t-174.5 -233t-270.5 -96.5z M430 39q68 0 122 54t84 136t45 164t15 154q0 90 -17 162.5t-64.5 126t-118.5 53.5q-68 0 -121 -54.5t-83 -135.5t-45.5 -163.5t-15.5 -152.5q0 -143 47.5 -243.5t151.5 -100.5z" />
<glyph unicode="&#xf4;" d="M315 1055l-20 20l305 363h29l176 -363l-27 -20l-196 202zM369 -23q-139 0 -226.5 96.5t-87.5 268.5q0 225 141.5 416.5t366.5 191.5q139 0 223 -95t84 -269q0 -143 -56 -279.5t-174.5 -233t-270.5 -96.5zM430 39q68 0 122 54t84 136t45 164t15 154q0 90 -17 162.5 t-64.5 126t-118.5 53.5q-68 0 -121 -54.5t-83 -135.5t-45.5 -163.5t-15.5 -152.5q0 -143 47.5 -243.5t151.5 -100.5z" />
<glyph unicode="&#xf5;" d="M324 1100l-31 10q31 203 166 203q53 0 148 -36t132 -36q66 0 99 86l30 -12q-33 -203 -166 -203q-55 0 -149 36t-131 36q-65 0 -98 -84zM369 -23q-139 0 -226.5 96.5t-87.5 268.5q0 225 141.5 416.5t366.5 191.5q139 0 223 -95t84 -269q0 -143 -56 -279.5t-174.5 -233 t-270.5 -96.5zM430 39q68 0 122 54t84 136t45 164t15 154q0 90 -17 162.5t-64.5 126t-118.5 53.5q-68 0 -121 -54.5t-83 -135.5t-45.5 -163.5t-15.5 -152.5q0 -143 47.5 -243.5t151.5 -100.5z" />
<glyph unicode="&#xf6;" d="M745 1126q-43 0 -70.5 29t-27.5 72t32 76.5t77 33.5q43 0 70.5 -28.5t27.5 -71.5t-32 -77t-77 -34zM424 1126q-43 0 -71.5 29t-28.5 72q0 45 31.5 77.5t78.5 32.5q43 0 70.5 -28.5t27.5 -71.5t-31.5 -77t-76.5 -34zM369 -23q-139 0 -226.5 96.5t-87.5 268.5 q0 225 141.5 416.5t366.5 191.5q139 0 223 -95t84 -269q0 -143 -56 -279.5t-174.5 -233t-270.5 -96.5zM430 39q68 0 122 54t84 136t45 164t15 154q0 90 -17 162.5t-64.5 126t-118.5 53.5q-68 0 -121 -54.5t-83 -135.5t-45.5 -163.5t-15.5 -152.5q0 -143 47.5 -243.5 t151.5 -100.5z" />
<glyph unicode="&#xf7;" horiz-adv-x="1034" d="M567 825q-47 0 -80.5 34t-33.5 81t33.5 81t80.5 34t81 -34t34 -81t-34 -81t-81 -34zM932 582h-846l14 92h846zM467 201q-47 0 -81 33.5t-34 80.5t34 81t81 34t81 -34t34 -81t-34 -80.5t-81 -33.5z" />
<glyph unicode="&#xf8;" d="M100 -66l-51 41l84 109q-78 96 -78 258q0 225 141.5 416.5t366.5 191.5q113 0 187 -61l81 104l52 -43q-84 -109 -84 -110q72 -98 71 -254q0 -143 -56 -279.5t-175 -233t-270 -96.5q-111 0 -189 62zM246 231l411 537q-49 121 -161 121q-68 0 -121 -54.5t-83 -135.5 t-45.5 -163.5t-15.5 -152.5q1 -82 15 -152zM430 39q68 0 122 54t84 136t45 164t15 154q0 80 -14 143l-412 -534q51 -117 160 -117z" />
<glyph unicode="&#xf9;" horiz-adv-x="1032" d="M588 1061q-29 41 -76 101l-79 104q-32 43 -44 65q-16 31 -8 62.5t36.5 48t56.5 6.5t44 -41q12 -23 27 -76l35 -129q20 -76 34 -123zM311 -23q-111 0 -156.5 88.5t-17.5 239.5l84 467l-133 64v20l313 107l9 -7l-107 -598q-20 -125 2.5 -182t110.5 -57q59 0 108 18.5 t140 67.5l96 567l-133 64v20l311 107l8 -7l-133 -786q-10 -53 23.5 -71.5t160.5 -20.5l4 -15q-137 -86 -225 -86q-78 0 -101.5 48.5t-17.5 132.5l-8 6q-199 -187 -338 -187z" />
<glyph unicode="&#xfa;" horiz-adv-x="1032" d="M524 1061l-22 18q35 55 99.5 174t88.5 150q27 33 61.5 45t61.5 -6.5t25 -53t-31 -69.5q-25 -31 -129.5 -121t-153.5 -137zM311 -23q-111 0 -156.5 88.5t-17.5 239.5l84 467l-133 64v20l313 107l9 -7l-107 -598q-20 -125 2.5 -182t110.5 -57q59 0 108 18.5t140 67.5 l96 567l-133 64v20l311 107l8 -7l-133 -786q-10 -53 23.5 -71.5t160.5 -20.5l4 -15q-137 -86 -225 -86q-78 0 -101.5 48.5t-17.5 132.5l-8 6q-199 -187 -338 -187z" />
<glyph unicode="&#xfb;" horiz-adv-x="1032" d="M352 1055l-20 20l305 363h29l176 -363l-27 -20l-197 202zM311 -23q-111 0 -156.5 88.5t-17.5 239.5l84 467l-133 64v20l313 107l9 -7l-107 -598q-20 -125 2.5 -182t110.5 -57q59 0 108 18.5t140 67.5l96 567l-133 64v20l311 107l8 -7l-133 -786q-10 -53 23.5 -71.5 t160.5 -20.5l4 -15q-137 -86 -225 -86q-78 0 -101.5 48.5t-17.5 132.5l-8 6q-199 -187 -338 -187z" />
<glyph unicode="&#xfc;" horiz-adv-x="1032" d="M750 1126q-43 0 -71 29t-28 72t32 76.5t77 33.5q43 0 70.5 -28.5t27.5 -71.5t-31.5 -77t-76.5 -34zM428 1126q-43 0 -71.5 29t-28.5 72q0 45 31.5 77.5t78.5 32.5q43 0 71 -28.5t28 -71.5t-32 -77t-77 -34zM311 -23q-111 0 -156.5 88.5t-17.5 239.5l84 467l-133 64v20 l313 107l9 -7l-107 -598q-20 -125 2.5 -182t110.5 -57q59 0 108 18.5t140 67.5l96 567l-133 64v20l311 107l8 -7l-133 -786q-10 -53 23.5 -71.5t160.5 -20.5l4 -15q-137 -86 -225 -86q-78 0 -101.5 48.5t-17.5 132.5l-8 6q-199 -187 -338 -187z" />
<glyph unicode="&#xfd;" d="M541 1061l-23 18q35 55 99.5 174t89.5 150q27 33 61.5 45t61 -6.5t24.5 -53t-31 -69.5q-25 -31 -129 -121t-153 -137zM98 -449q-68 0 -109.5 45.5t-41.5 106.5q0 51 25.5 84t70.5 33q55 0 86 -57.5t27 -139.5q82 45 162.5 143.5t138.5 210.5q-45 240 -108.5 475.5 t-96.5 305.5q-27 59 -76 59q-35 0 -108 -24l-11 14q43 57 98.5 100t102.5 43q53 0 82 -25.5t55 -76.5q41 -78 92.5 -272.5t69.5 -362.5h10q133 391 207 750h8l154 -82q-43 -92 -140 -324l-161 -374q-63 -142 -155.5 -299.5t-172.5 -227.5q-123 -105 -209 -105z" />
<glyph unicode="&#xfe;" horiz-adv-x="960" d="M-139 -428l6 27l143 49l285 1681l-133 64v20l313 107l8 -4l-114 -691l6 -6q150 131 272 131q104 0 180 -89t76 -249q0 -229 -179 -432t-386 -203q-57 0 -111 17l-59 -346l160 -49l-4 -27h-463zM449 72q106 0 193 144t87 349q0 121 -50 195t-140 74t-179 -60l-104 -604 q84 -98 193 -98z" />
<glyph unicode="&#xff;" d="M713 1126q-43 0 -71 29t-28 72t32 76.5t77 33.5q43 0 70.5 -28.5t27.5 -71.5t-31.5 -77t-76.5 -34zM391 1126q-43 0 -71.5 29t-28.5 72q0 45 31.5 77.5t78.5 32.5q43 0 71 -28.5t28 -71.5t-32 -77t-77 -34zM98 -449q-68 0 -109.5 45.5t-41.5 106.5q0 51 25.5 84t70.5 33 q55 0 86 -57.5t27 -139.5q82 45 162.5 143.5t138.5 210.5q-45 240 -108.5 475.5t-96.5 305.5q-27 59 -76 59q-35 0 -108 -24l-11 14q43 57 98.5 100t102.5 43q53 0 82 -25.5t55 -76.5q41 -78 92.5 -272.5t69.5 -362.5h10q133 391 207 750h8l154 -82q-43 -92 -140 -324 l-161 -374q-63 -142 -155.5 -299.5t-172.5 -227.5q-123 -105 -209 -105z" />
<glyph unicode="&#x152;" horiz-adv-x="1955" d="M723 0q-295 0 -464 151.5t-169 399.5q0 315 221 534.5t609 219.5h935l-6 -351l-22 -14l-131 174q-4 6 -20.5 27.5t-20.5 25.5t-17.5 19.5t-20.5 19.5l-23 13q-15 8 -28 10l-33 5q-19 3 -44 3h-225l-88 -551h88q94 0 150 43t102 150l28 67h31l-90 -575h-33l-6 63 q-10 106 -54 150.5t-137 44.5h-90l-88 -559h295q84 0 123 22.5t100 85.5l215 230l17 -9l-98 -399h-1006zM752 68h127l186 1169h-158q-193 0 -332 -101.5t-202.5 -259t-63.5 -348.5q0 -213 111 -336.5t332 -123.5z" />
<glyph unicode="&#x153;" horiz-adv-x="1452" d="M821 745q154 205 379 205q106 0 169 -55t63 -133q0 -121 -141.5 -212t-424.5 -81q-23 -176 38 -276.5t192 -100.5q63 0 129.5 31t111.5 82l15 -19q-45 -90 -142.5 -149.5t-191.5 -59.5q-109 0 -185.5 50.5t-115.5 138.5q-133 -188 -348 -189q-139 0 -226.5 96.5 t-87.5 268.5q0 225 141.5 416.5t366.5 191.5q94 0 161.5 -53.5t96.5 -151.5zM874 520q100 -12 181.5 8.5t127.5 63.5t69.5 92t23.5 98q0 53 -25.5 86t-72.5 33q-106 0 -188.5 -113.5t-115.5 -267.5zM430 39q68 0 122 54t84 136t45 164t15 154q0 90 -17 162.5t-64.5 126 t-118.5 53.5q-68 0 -121 -54.5t-83 -135.5t-45.5 -163.5t-15.5 -152.5q0 -143 47.5 -243.5t151.5 -100.5z" />
<glyph unicode="&#x178;" horiz-adv-x="1306" d="M1012 1507q-43 0 -71 29t-28 72t32 76.5t77 33.5q43 0 70.5 -28.5t27.5 -71.5t-31.5 -77t-76.5 -34zM690 1507q-43 0 -71.5 29t-28.5 72q0 45 31.5 77.5t78.5 32.5q43 0 71 -28.5t28 -71.5t-32 -77t-77 -34zM246 0l6 35l215 37l80 508l-281 643l-172 47l6 35h578l-6 -35 l-183 -37l224 -582l401 570l-141 49l6 35h420l-6 -35l-170 -56l-473 -616l-84 -526l202 -37l-4 -35h-618z" />
<glyph unicode="&#x2c6;" horiz-adv-x="628" d="M135 1055l-20 20l305 363h29l176 -363l-27 -20l-197 202z" />
<glyph unicode="&#x2dc;" horiz-adv-x="694" d="M172 1100l-31 10q31 203 166 203q53 0 148.5 -36t132.5 -36q66 0 98 86l31 -12q-33 -203 -166 -203q-55 0 -149.5 36t-131.5 36q-65 0 -98 -84z" />
<glyph unicode="&#x3bc;" horiz-adv-x="1034" d="M571 616l228 -307l-76 -55l-221 307l-328 -268l-53 65l336 273l-228 307l76 55l221 -307l328 268l53 -65z" />
<glyph unicode="&#x2000;" horiz-adv-x="915" />
<glyph unicode="&#x2001;" horiz-adv-x="1832" />
<glyph unicode="&#x2002;" horiz-adv-x="915" />
<glyph unicode="&#x2003;" horiz-adv-x="1832" />
<glyph unicode="&#x2004;" horiz-adv-x="610" />
<glyph unicode="&#x2005;" horiz-adv-x="456" />
<glyph unicode="&#x2006;" horiz-adv-x="305" />
<glyph unicode="&#x2007;" horiz-adv-x="305" />
<glyph unicode="&#x2008;" horiz-adv-x="227" />
<glyph unicode="&#x2009;" horiz-adv-x="366" />
<glyph unicode="&#x200a;" horiz-adv-x="100" />
<glyph unicode="&#x2010;" horiz-adv-x="704" d="M74 422l18 117h459l-19 -117h-458z" />
<glyph unicode="&#x2011;" horiz-adv-x="704" d="M74 422l18 117h459l-19 -117h-458z" />
<glyph unicode="&#x2012;" horiz-adv-x="704" d="M74 422l18 117h459l-19 -117h-458z" />
<glyph unicode="&#x2013;" horiz-adv-x="1118" d="M82 471l10 68h873l-13 -68h-870z" />
<glyph unicode="&#x2014;" horiz-adv-x="1630" d="M82 471l10 68h1385l-13 -68h-1382z" />
<glyph unicode="&#x2018;" horiz-adv-x="425" d="M256 883q-66 0 -104.5 47t-38.5 123q0 80 62.5 158.5t182.5 138.5l21 -25q-137 -117 -170 -223l4 -2l35 8q20 4 31 4q45 0 72.5 -29.5t27.5 -74.5q0 -51 -36 -88t-87 -37z" />
<glyph unicode="&#x2019;" horiz-adv-x="425" d="M174 868l-20 25q141 121 170 223l-5 2l-34 -8q-20 -4 -31 -4q-43 0 -70.5 29.5t-27.5 74.5q0 51 35.5 88t87.5 37q66 0 103.5 -47t37.5 -123q0 -80 -62.5 -158t-183.5 -139z" />
<glyph unicode="&#x201a;" horiz-adv-x="491" d="M90 -254l-20 25q141 121 170 223l-4 2l-35 -8q-20 -4 -31 -4q-43 0 -70.5 29.5t-27.5 74.5q0 51 35.5 88t87.5 37q66 0 103.5 -47t37.5 -123q0 -80 -62.5 -158t-183.5 -139z" />
<glyph unicode="&#x201c;" horiz-adv-x="735" d="M571 905q-61 0 -98 45t-37 117q0 76 59.5 150.5t174.5 132.5l20 -23q-133 -113 -162 -213l4 -2l33 8q20 4 29 4q41 0 67.5 -28.5t26.5 -69.5q0 -49 -34 -85t-83 -36zM248 905q-61 0 -98 45t-37 117q0 76 59 150.5t174 132.5l19 -23q-135 -115 -160 -213l2 -2l33 8 q20 4 30 4q41 0 68 -28.5t27 -69.5q0 -49 -34 -85t-83 -36z" />
<glyph unicode="&#x201d;" horiz-adv-x="739" d="M500 891l-21 24q133 113 162 213l-4 2l-33 -10q-20 -4 -29 -4q-41 0 -67.5 29t-26.5 72q0 49 34 83.5t83 34.5q61 0 98 -44t37 -115q0 -76 -59 -152t-174 -133zM174 891l-18 24q133 113 161 213l-4 2l-32 -10q-20 -4 -31 -4q-39 0 -66.5 30t-27.5 71q0 49 34.5 83.5 t83.5 34.5q61 0 97.5 -44t36.5 -115q0 -78 -58.5 -153t-175.5 -132z" />
<glyph unicode="&#x201e;" horiz-adv-x="778" d="M416 -231l-21 24q133 113 162 213l-4 2l-33 -10q-20 -4 -28 -4q-41 0 -68 28.5t-27 71.5q0 49 34 84t83 35q61 0 98 -44t37 -116q0 -76 -59 -151.5t-174 -132.5zM90 -231l-18 24q133 113 161 213l-4 2l-32 -10q-20 -4 -31 -4q-39 0 -66.5 29.5t-27.5 70.5q0 49 34.5 84 t83.5 35q61 0 97.5 -44t36.5 -116q0 -78 -58.5 -152.5t-175.5 -131.5z" />
<glyph unicode="&#x2022;" horiz-adv-x="978" d="M487.5 377q-114.5 0 -194.5 81t-80 195q0 113 80 194t194.5 81t195.5 -80t81 -194.5t-81 -195.5t-195.5 -81z" />
<glyph unicode="&#x2026;" horiz-adv-x="1312" d="M1069 -33q-51 0 -88 36t-37 87t37 87t88 36t87 -36t36 -87t-36 -87t-87 -36zM637 -33q-51 0 -88 36t-37 87t37 87t88 36t87 -36t36 -87t-36 -87t-87 -36zM205 -33q-51 0 -88 36t-37 87t37 87t88 36t87 -36t36 -87t-36 -87t-87 -36z" />
<glyph unicode="&#x202f;" horiz-adv-x="366" />
<glyph unicode="&#x2039;" horiz-adv-x="602" d="M354 63l-331 388l4 20l450 387l35 -39l-293 -356l178 -369z" />
<glyph unicode="&#x203a;" horiz-adv-x="602" d="M55 63l-35 39l293 357l-176 368l41 31l332 -387l-4 -20z" />
<glyph unicode="&#x205f;" horiz-adv-x="456" />
<glyph unicode="&#x2122;" horiz-adv-x="1060" d="M571 940v18l45 23v285l-45 20v19h164l25 -64l74 -190h6l69 190l23 64h168v-19l-53 -18v-291l53 -19v-18h-187v18l50 19v280h-7l-122 -317h-41l-127 317h-9v-276l48 -23v-18h-134zM250 940v18l55 19v295h-26q-33 0 -64 -41l-43 -55l-14 2l18 127h338l18 -127l-14 -2 l-43 55q-31 41 -63 41h-23v-295l53 -19v-18h-192z" />
<glyph unicode="&#xe000;" horiz-adv-x="955" d="M0 955h955v-955h-955v955z" />
<glyph unicode="&#xfb01;" horiz-adv-x="1073" d="M-76 -449q-66 0 -105.5 33t-39.5 76q0 39 28.5 64.5t77.5 25.5q94 0 166 -110q66 109 94 313l123 870h-215l6 37l224 58l10 71q45 315 223 447q109 82 248 82q123 0 191.5 -58.5t68.5 -128.5q0 -43 -26.5 -71.5t-71.5 -28.5q-63 0 -99 57.5t-28 159.5q-20 12 -49 12 q-115 0 -188 -99t-109 -366l-13 -88h353l163 56l9 -7l-134 -786q-10 -53 26 -71.5t161 -20.5l4 -15q-139 -86 -252 -86q-61 0 -89 43t-17 103l122 700h-358l-90 -645q-33 -227 -73 -332.5t-130 -195.5q-94 -99 -211 -99z" />
<glyph unicode="&#xfb02;" horiz-adv-x="1071" d="M-76 -449q-66 0 -105.5 33t-39.5 76q0 39 28.5 64.5t77.5 25.5q94 0 166 -110q66 109 94 313l123 870h-215l6 37l224 58l10 71q45 315 223 447q109 82 248 82q90 0 162 -39l121 41l8 -7l-224 -1343q-10 -55 24 -72.5t161 -19.5l4 -15q-135 -86 -252 -86q-63 0 -90 42 t-16 104l118 700h-352l-90 -645q-33 -227 -73 -332.5t-130 -195.5q-94 -99 -211 -99zM440 907h355l59 348q-70 55 -55 193q-20 12 -49 12q-115 0 -188 -99t-109 -366z" />
<glyph unicode="&#xfb03;" horiz-adv-x="1734" d="M1585 1137q-37 0 -62.5 25.5t-25.5 70.5q0 61 35.5 109.5t91.5 48.5q37 0 61.5 -25t24.5 -70q0 -63 -35 -111t-90 -48zM1429 -23q-61 0 -88 43q-19 31 -19 71q0 15 3 32l112 649l-133 64v20l314 107l8 -7l-133 -786q-2 -13 -3 -23q0 -36 27 -50q35 -17 160 -19l4 -15 q-137 -86 -252 -86zM530 -449q-66 0 -105.5 33t-39.5 76q0 39 28.5 64.5t77.5 25.5q96 0 164 -110q68 106 96 313l123 870h-215l6 37l224 58l10 71q25 168 76 264.5t151 176.5q111 88 242 88q78 0 123 -34t45 -81q0 -41 -29 -69.5t-80 -28.5q-53 0 -100 38.5t-78 108.5 q-74 -55 -118 -153.5t-72 -303.5l-13 -88h232l-15 -84h-229l-90 -645q-33 -227 -73 -332.5t-130 -195.5q-94 -99 -211 -99zM-76 -449q-66 0 -105.5 33t-39.5 76q0 39 28.5 64.5t77.5 25.5q96 0 164 -110q68 106 96 313l123 870h-215l6 37l224 58l10 71q25 168 76 264.5 t151 176.5q111 88 242 88q78 0 123 -34t45 -81q0 -41 -29 -69.5t-80 -28.5q-53 0 -100 38.5t-78 108.5q-74 -55 -118 -153.5t-72 -303.5l-13 -88h232l-15 -84h-229l-90 -645q-33 -227 -73 -332.5t-130 -195.5q-94 -99 -211 -99z" />
<glyph unicode="&#xfb04;" horiz-adv-x="1734" d="M1431 -23q-63 0 -90 42q-19 30 -19 71q0 16 3 33l204 1206l-133 64v20l314 107l8 -7l-223 -1343q-2 -13 -3 -24q0 -36 26 -49q34 -17 161 -19l4 -15q-135 -86 -252 -86zM530 -449q-66 0 -105.5 33t-39.5 76q0 39 28.5 64.5t77.5 25.5q96 0 164 -110q68 106 96 313 l123 870h-215l6 37l224 58l10 71q25 168 76 264.5t151 176.5q111 88 242 88q78 0 123 -34t45 -81q0 -41 -29 -69.5t-80 -28.5q-53 0 -100 38.5t-78 108.5q-74 -55 -118 -153.5t-72 -303.5l-13 -88h232l-15 -84h-229l-90 -645q-33 -227 -73 -332.5t-130 -195.5 q-94 -99 -211 -99zM-76 -449q-66 0 -105.5 33t-39.5 76q0 39 28.5 64.5t77.5 25.5q96 0 164 -110q68 106 96 313l123 870h-215l6 37l224 58l10 71q25 168 76 264.5t151 176.5q111 88 242 88q78 0 123 -34t45 -81q0 -41 -29 -69.5t-80 -28.5q-53 0 -100 38.5t-78 108.5 q-74 -55 -118 -153.5t-72 -303.5l-13 -88h232l-15 -84h-229l-90 -645q-33 -227 -73 -332.5t-130 -195.5q-94 -99 -211 -99z" />
<glyph horiz-adv-x="430" />
</font>
</defs>
</svg>
