<?xml version="1.0" standalone="no"?>
<!DOCTYPE svg PUBLIC "-//W3C//DTD SVG 1.1//EN" "http://www.w3.org/Graphics/SVG/1.1/DTD/svg11.dtd" >
<svg xmlns="http://www.w3.org/2000/svg">
<metadata>
This is a custom SVG webfont generated by Font Squirrel.
Copyright   : HTF Gothama c 2002 The Hoefler Type Foundry Inc Info wwwtypographycom
</metadata>
<defs>
<font id="webfont4GVwAjIu" horiz-adv-x="1024" >
<font-face units-per-em="2048" ascent="1638" descent="-410" />
<missing-glyph horiz-adv-x="614" />
<glyph unicode=" "  horiz-adv-x="614" />
<glyph unicode="&#x09;" horiz-adv-x="614" />
<glyph unicode="&#xa0;" horiz-adv-x="614" />
<glyph unicode="!" horiz-adv-x="514" d="M188 375l215 915l39 144h119l-39 -144l-276 -915h-58zM49 0l47 174h135l-47 -174h-135z" />
<glyph unicode="&#x22;" horiz-adv-x="839" d="M575 913l191 521h129v-11l-260 -510h-60zM207 913l190 521h129v-11l-260 -510h-59z" />
<glyph unicode="#" horiz-adv-x="1388" d="M186 0l133 383h-247l24 96h256l170 484h-272l24 96h281l131 375h98l-131 -375h424l131 375h99l-131 -375h247l-24 -96h-256l-170 -484h272l-24 -96h-281l-133 -383h-98l133 383h-424l-133 -383h-99zM453 479h421l170 484h-423z" />
<glyph unicode="$" horiz-adv-x="1265" d="M389 -201l57 211q-279 43 -448 240l78 67q152 -176 405 -213l158 590q-201 76 -284 155t-83 202q0 164 136.5 273.5t339.5 109.5q33 0 90 -4l32 122h101l-37 -137q207 -39 352 -182l-74 -74q-125 125 -313 164l-149 -557q188 -68 271 -152t83 -208q0 -176 -145.5 -291 t-376.5 -115h-39l-54 -201h-100zM666 797l145 536q-178 25 -304 -57t-126 -215q0 -90 64.5 -148.5t220.5 -115.5zM569 96q184 -6 305 78t121 221q0 86 -61.5 148.5t-210.5 122.5z" />
<glyph unicode="%" horiz-adv-x="1681" d="M471 709q-123 0 -202 85t-79 207q0 176 115 312.5t277 136.5q123 0 201.5 -85t78.5 -208q0 -176 -114.5 -312t-276.5 -136zM133 0l1397 1434h123l-1397 -1434h-123zM1204 -14q-123 0 -201.5 85t-78.5 208q0 176 114.5 312t276.5 136q123 0 201.5 -85t78.5 -208 q0 -176 -114.5 -312t-276.5 -136zM479 797q115 0 199 109.5t84 240.5q0 98 -49 156.5t-140 58.5q-115 0 -198.5 -109.5t-83.5 -240.5q0 -98 49 -156.5t139 -58.5zM1212 74q115 0 199 109.5t84 240.5q0 98 -49 156.5t-139 58.5q-115 0 -199 -109.5t-84 -240.5 q0 -98 49 -156.5t139 -58.5z" />
<glyph unicode="&#x26;" horiz-adv-x="1413" d="M1171 -29l-174 248q-125 -123 -245.5 -181t-278.5 -58q-176 0 -293 96t-117 262q0 174 128 300t374 187q-96 156 -96 273q0 154 111.5 257t265.5 103q152 0 244 -82t92 -215q0 -268 -463 -393l291 -412q119 135 237 342l80 -47q-139 -229 -260 -364l184 -262zM668 842 q410 106 409 315q0 94 -64.5 152.5t-170.5 58.5q-109 0 -189 -79t-80 -189q1 -115 95 -258zM485 74q238 0 457 215l-326 461q-223 -53 -333.5 -160t-110.5 -240q0 -127 85 -201.5t228 -74.5z" />
<glyph unicode="'" horiz-adv-x="471" d="M207 913l190 521h129v-11l-260 -510h-59z" />
<glyph unicode="(" horiz-adv-x="880" d="M559 -287q-356 317 -356 733q0 315 203.5 589t607.5 438l35 -76q-195 -84 -341.5 -194.5t-231.5 -235.5t-126 -254t-41 -264q0 -211 80 -368t227 -308z" />
<glyph unicode=")" horiz-adv-x="880" d="M-96 -285l-35 76q195 84 341 194.5t231 235.5t126 254t41 264q0 211 -79.5 368t-227.5 308l57 60q356 -317 357 -734q0 -315 -204 -588.5t-607 -437.5z" />
<glyph unicode="*" horiz-adv-x="880" d="M553 831l-84 21l86 248l-248 -86l-24 84l264 49l-205 172l64 61l172 -198l49 256l84 -21l-86 -248l247 86l25 -84l-264 -49l205 -172l-64 -61l-172 198z" />
<glyph unicode="+" horiz-adv-x="1308" d="M524 231l119 441h-444l26 98h445l116 440h103l-117 -440h445l-27 -98h-445l-118 -441h-103z" />
<glyph unicode="," horiz-adv-x="473" d="M-66 -217l-14 49q141 49 164 168h-55l47 174h135l-41 -151q-31 -106 -82.5 -158.5t-153.5 -81.5z" />
<glyph unicode="-" horiz-adv-x="837" d="M152 551l30 115h549l-31 -115h-548z" />
<glyph unicode="." horiz-adv-x="473" d="M29 0l47 174h135l-47 -174h-135z" />
<glyph unicode="/" d="M-248 -262l1467 1896h110l-1466 -1896h-111z" />
<glyph unicode="0" horiz-adv-x="1452" d="M649 -25q-229 0 -355 148.5t-126 388.5q0 233 94 450.5t266 356.5t377 139q229 0 355 -148.5t126 -387.5q0 -233 -94 -450.5t-266 -357t-377 -139.5zM655 72q162 0 307.5 125t229.5 320.5t84 404.5q0 193 -98.5 316.5t-278.5 123.5q-162 0 -307.5 -125t-229 -320.5 t-83.5 -404.5q0 -193 98 -316.5t278 -123.5z" />
<glyph unicode="1" horiz-adv-x="684" d="M190 0l355 1321l-301 -94l-4 96l360 121h84l-387 -1444h-107z" />
<glyph unicode="2" horiz-adv-x="1204" d="M-39 0l19 80l856 665q131 102 191 185.5t60 179.5q0 109 -81.5 178.5t-225.5 69.5q-217 0 -409 -205l-76 66q227 236 489 235q182 0 298 -95t116 -247q0 -119 -72.5 -219t-224.5 -217l-741 -574h827l-26 -102h-1000z" />
<glyph unicode="3" horiz-adv-x="1241" d="M512 -25q-178 0 -304 75t-188 206l89 49q121 -233 409 -233q190 0 315 101t125 259q0 135 -107.5 204t-293.5 69h-59l-23 53l639 575h-768l29 101h921l-20 -76l-629 -567q182 -8 303 -99.5t121 -251.5q0 -201 -164 -333t-395 -132z" />
<glyph unicode="4" horiz-adv-x="1320" d="M756 0l94 350h-776l-17 80l1092 1014h98l-268 -1002h233l-24 -92h-234l-94 -350h-104zM203 442h671l224 832z" />
<glyph unicode="5" horiz-adv-x="1230" d="M516 -25q-313 0 -483 256l88 56q147 -219 401 -219q203 0 333 118.5t130 282.5q0 143 -96 225t-248 82q-168 0 -330 -90l-67 53l227 695h774l-28 -103h-680l-177 -526q47 27 132.5 47t148.5 20q209 0 332 -107.5t123 -291.5q0 -207 -162 -352.5t-418 -145.5z" />
<glyph unicode="6" horiz-adv-x="1310" d="M649 -25q-209 0 -340 131q-139 139 -139 396q0 229 79 425.5t208 325.5q205 205 458 205q258 0 418 -190l-78 -68q-143 162 -345.5 162t-370.5 -168q-100 -100 -170 -248.5t-80 -296.5q72 106 185.5 174t260.5 68q209 0 334 -123t125 -295q0 -203 -156 -350.5 t-389 -147.5zM655 70q184 0 306 118.5t122 284.5q0 127 -92 223.5t-262 96.5q-190 0 -314 -116t-124 -265q0 -147 94 -242q100 -100 270 -100z" />
<glyph unicode="7" horiz-adv-x="1183" d="M164 0l964 1331h-825l29 103h950l-22 -78l-973 -1356h-123z" />
<glyph unicode="8" horiz-adv-x="1312" d="M604 -20q-231 0 -376.5 108.5t-145.5 265.5q0 166 123 271.5t315 134.5q-94 35 -156.5 114.5t-62.5 190.5q0 166 147.5 277.5t362.5 111.5q207 0 341 -102.5t134 -264.5q0 -145 -106.5 -244.5t-264.5 -127.5q104 -37 178 -123t74 -201q0 -178 -160.5 -294.5 t-402.5 -116.5zM768 778q190 0 299 91.5t109 212t-101.5 198.5t-263.5 78q-178 0 -288.5 -86t-110.5 -215q0 -119 100 -199t256 -80zM610 76q201 0 324 89t123 230q0 121 -114 208t-300 87q-203 0 -326.5 -94t-123.5 -229q0 -129 114.5 -210t302.5 -81z" />
<glyph unicode="9" horiz-adv-x="1310" d="M498 -27q-262 0 -430 203l77 68q154 -174 359 -174q201 0 368 168q100 98 169 243.5t81 294.5q-170 -252 -450 -252q-209 0 -334 125t-123 301q2 207 159.5 356.5t389.5 149.5q207 0 338 -131q139 -139 139 -395q0 -229 -79 -426t-208 -326q-204 -205 -456 -205zM686 623 q184 0 309 121.5t125 279.5q0 141 -94 236q-102 102 -270 102q-184 0 -306 -122t-124 -290q-2 -131 90 -229t270 -98z" />
<glyph unicode=":" horiz-adv-x="493" d="M272 870l47 174h136l-47 -174h-136zM39 0l47 174h135l-47 -174h-135z" />
<glyph unicode=";" horiz-adv-x="493" d="M272 870l47 174h136l-47 -174h-136zM-55 -217l-15 49q141 49 164 168h-55l47 174h135l-41 -151q-31 -106 -82 -158.5t-153 -81.5z" />
<glyph unicode="&#x3c;" horiz-adv-x="1310" d="M979 186l-819 494l22 82l1084 493l-31 -120l-938 -422l711 -426z" />
<glyph unicode="=" horiz-adv-x="1310" d="M291 899l26 105h930l-26 -105h-930zM166 438l29 105h929l-28 -105h-930z" />
<glyph unicode="&#x3e;" horiz-adv-x="1310" d="M104 186l31 121l938 422l-711 426l29 100l819 -493l-22 -82z" />
<glyph unicode="?" horiz-adv-x="1093" d="M397 375l62 332l14 10q231 16 371.5 115.5t140.5 259.5q0 125 -88 194.5t-223 69.5q-221 0 -402 -180l-65 69q207 207 475 207q188 0 300 -100.5t112 -257.5q0 -193 -154 -311.5t-389 -151.5l-88 -256h-66zM262 0l47 174h135l-47 -174h-135z" />
<glyph unicode="@" horiz-adv-x="2007" d="M995 -330q-391 0 -625.5 220.5t-234.5 582.5q0 260 135.5 487.5t367.5 362.5t503 135q371 0 586 -204.5t215 -518.5q0 -270 -133.5 -427.5t-288.5 -157.5q-106 0 -170 54t-78 150q-162 -209 -381 -209q-137 0 -229.5 93.5t-92.5 246.5q0 219 154 381t344 162 q123 0 202 -62.5t113 -158.5l62 201l96 -27l-154 -496q-33 -111 4 -185.5t140 -74.5q121 0 230.5 135.5t109.5 374.5q0 283 -196.5 470.5t-532.5 187.5q-381 0 -657.5 -274.5t-276.5 -645.5q0 -332 216 -534.5t572 -202.5q221 0 424 92l29 -59q-215 -99 -453 -99zM911 242 q156 0 289 132t133 292q0 117 -71.5 191.5t-190.5 74.5q-160 0 -273.5 -131t-113.5 -312q0 -115 63.5 -181t163.5 -66z" />
<glyph unicode="A" horiz-adv-x="1554" d="M-70 0l1055 1444h102l281 -1444h-108l-74 401h-846l-291 -401h-119zM410 498h755l-153 829z" />
<glyph unicode="B" horiz-adv-x="1468" d="M74 0l385 1434h530q197 0 313.5 -87t116.5 -239t-106.5 -253t-272.5 -134q123 -33 199 -106.5t76 -192.5q0 -186 -162 -304t-434 -118h-645zM387 772h442q217 0 348.5 90t131.5 236q0 117 -87 177t-243 60h-440zM207 98h518q223 0 352 86t129 238q0 121 -104.5 186.5 t-274.5 65.5h-467z" />
<glyph unicode="C" horiz-adv-x="1511" d="M774 -27q-246 0 -416 159t-170 423q0 229 114 438t313.5 337t428.5 128q188 0 322.5 -85t204.5 -224l-92 -49q-74 129 -177.5 195.5t-263.5 66.5q-303 0 -521 -246t-218 -557q0 -223 136 -355t349 -132q152 0 265.5 54t220.5 161l71 -66q-237 -248 -567 -248z" />
<glyph unicode="D" horiz-adv-x="1579" d="M74 0l385 1434h321q365 0 557 -193q158 -158 158 -410q0 -332 -223 -555q-131 -131 -320.5 -203.5t-408.5 -72.5h-469zM207 98h350q389 0 635 246q193 193 192 479q0 221 -133 351q-162 162 -477 161h-235z" />
<glyph unicode="E" horiz-adv-x="1329" d="M74 0l385 1434h1009l-26 -99h-903l-152 -563h811l-27 -98h-811l-153 -576h913l-26 -98h-1020z" />
<glyph unicode="F" horiz-adv-x="1343" d="M74 0l385 1434h1009l-26 -99h-903l-158 -587h811l-27 -99h-811l-174 -649h-106z" />
<glyph unicode="G" horiz-adv-x="1609" d="M811 -27q-270 0 -444 166t-174 439q0 221 112.5 422.5t316 329.5t445.5 128q354 0 524 -266l-84 -55q-72 109 -174 167t-276 58q-209 0 -385 -114.5t-272.5 -293t-96.5 -372.5q0 -238 141.5 -375t372.5 -137q238 0 414 116l131 459h-477l26 98h582l-176 -616 q-236 -154 -506 -154z" />
<glyph unicode="H" horiz-adv-x="1548" d="M74 0l385 1434h106l-178 -664h907l179 664h106l-385 -1434h-107l181 672h-908l-180 -672h-106z" />
<glyph unicode="I" horiz-adv-x="561" d="M88 0l385 1434h107l-385 -1434h-107z" />
<glyph unicode="J" horiz-adv-x="1101" d="M401 -20q-170 0 -271 90t-140 239l94 33q82 -266 313 -266q154 0 260 106q102 102 160 314l252 938h107l-256 -953q-63 -240 -191 -366q-135 -135 -328 -135z" />
<glyph unicode="K" horiz-adv-x="1462" d="M74 0l385 1434h106l-250 -932l1147 932h158l-797 -641l434 -793h-122l-400 731l-459 -373l-96 -358h-106z" />
<glyph unicode="L" horiz-adv-x="1228" d="M74 0l385 1434h106l-358 -1336h842l-27 -98h-948z" />
<glyph unicode="M" horiz-adv-x="1779" d="M74 0l385 1434h88l348 -848l803 848h112l-385 -1434h-106l334 1245l-789 -825h-8l-346 825l-334 -1245h-102z" />
<glyph unicode="N" horiz-adv-x="1609" d="M74 0l385 1434h98l645 -1256l338 1256h102l-385 -1434h-77l-660 1282l-344 -1282h-102z" />
<glyph unicode="O" horiz-adv-x="1732" d="M815 -27q-268 0 -443 177.5t-175 439.5q0 221 109.5 421.5t301 323.5t414.5 123q268 0 443 -177t175 -439q0 -221 -109.5 -422t-301 -324t-414.5 -123zM815 70q197 0 362.5 110.5t259 287.5t93.5 374q0 223 -141.5 371.5t-366.5 148.5q-197 0 -362.5 -110.5t-259 -288 t-93.5 -373.5q0 -223 141.5 -371.5t366.5 -148.5z" />
<glyph unicode="P" horiz-adv-x="1357" d="M74 0l385 1434h446q266 0 395 -129q98 -98 99 -256q0 -242 -190.5 -377t-518.5 -135h-364l-146 -537h-106zM350 633h344q289 0 443.5 107.5t154.5 303.5q0 117 -73 191q-100 100 -316 100h-364z" />
<glyph unicode="Q" horiz-adv-x="1732" d="M1417 -49l-147 174q-211 -152 -455 -152q-268 0 -443 177.5t-175 439.5q0 221 109.5 421.5t301 323.5t414.5 123q268 0 443 -177t175 -439q0 -184 -79.5 -358.5t-219.5 -299.5l154 -168zM815 70q211 0 389 129l-239 266l77 67l234 -274q119 111 186.5 265.5t67.5 318.5 q0 223 -141.5 371.5t-366.5 148.5q-197 0 -362.5 -110.5t-259 -288t-93.5 -373.5q0 -223 141.5 -371.5t366.5 -148.5z" />
<glyph unicode="R" horiz-adv-x="1460" d="M74 0l385 1434h514q223 0 349 -95.5t126 -265.5q0 -172 -127 -299q-139 -139 -422 -170l315 -604h-122l-308 594h-444l-160 -594h-106zM365 690h430q305 0 450 146q96 96 96 231q0 125 -94 196.5t-278 71.5h-430z" />
<glyph unicode="S" horiz-adv-x="1306" d="M612 -20q-377 0 -571 274l82 59q94 -121 213 -179t287 -58q176 0 294.5 89t118.5 224q0 94 -69.5 157.5t-243.5 131.5q-227 88 -318.5 170t-91.5 211q0 166 143.5 280.5t370.5 114.5q156 0 286 -60.5t212 -158.5l-82 -66q-164 188 -426 189q-178 0 -286.5 -86 t-108.5 -205q0 -96 78 -158.5t264 -134.5q205 -78 293 -163t88 -214q0 -176 -152 -296.5t-381 -120.5z" />
<glyph unicode="T" horiz-adv-x="1259" d="M428 0l358 1335h-499l26 99h1106l-26 -99h-500l-358 -1335h-107z" />
<glyph unicode="U" horiz-adv-x="1548" d="M713 -23q-250 0 -383 125t-133 326q0 111 28 221l209 785h107l-222 -834q-18 -74 -18 -164q0 -162 106.5 -262t313.5 -100q203 0 350 147q133 133 201 381l223 832h107l-230 -854q-72 -266 -227 -422q-180 -181 -432 -181z" />
<glyph unicode="V" horiz-adv-x="1462" d="M530 -10l-239 1444h110l203 -1319l914 1319h120l-1013 -1444h-95z" />
<glyph unicode="W" horiz-adv-x="2199" d="M440 -10l-133 1444h111l108 -1276l762 1280h82l78 -1280l793 1276h118l-907 -1444h-86l-86 1245l-754 -1245h-86z" />
<glyph unicode="X" horiz-adv-x="1417" d="M-47 0l749 741l-380 693h114l342 -631l635 631h137l-721 -711l394 -723h-115l-354 662l-664 -662h-137z" />
<glyph unicode="Y" horiz-adv-x="1368" d="M479 0l156 582l-375 852h117l330 -770l745 770h143l-862 -879l-147 -555h-107z" />
<glyph unicode="Z" horiz-adv-x="1355" d="M-39 0l16 59l1303 1278h-926l27 97h1092l-17 -60l-1302 -1278h966l-26 -96h-1133z" />
<glyph unicode="[" horiz-adv-x="880" d="M33 -266l456 1700h560l-23 -78h-465l-414 -1544h465l-20 -78h-559z" />
<glyph unicode="\" d="M754 -262l-453 1896h90l453 -1896h-90z" />
<glyph unicode="]" horiz-adv-x="880" d="M-137 -266l22 78h465l414 1544h-465l20 78h560l-457 -1700h-559z" />
<glyph unicode="^" d="M264 1010l438 430h91l208 -430h-96l-170 342l-354 -342h-117z" />
<glyph unicode="_" horiz-adv-x="1228" d="M-233 -328l24 90h1239l-24 -90h-1239z" />
<glyph unicode="`" d="M754 1219l-162 211l127 61l106 -272h-71z" />
<glyph unicode="a" horiz-adv-x="1169" d="M389 -25q-141 0 -241.5 77t-100.5 216q0 172 131 275.5t340 103.5q184 0 402 -59l8 28q14 53 14 105q0 119 -81 182.5t-234 63.5q-143 0 -303 -56l-19 90q166 59 330 60q190 0 297.5 -87t107.5 -239q0 -59 -20 -137l-160 -598h-98l47 180q-172 -205 -420 -205zM408 68 q154 0 290 97t176 251l25 92q-197 49 -395 49q-156 0 -253 -77t-97 -199q0 -96 68.5 -154.5t185.5 -58.5z" />
<glyph unicode="b" horiz-adv-x="1339" d="M639 -27q-162 0 -266.5 83t-149.5 210l-71 -266h-101l402 1495h100l-178 -655q193 229 434 229q182 0 301 -124t119 -316q0 -274 -176 -465t-414 -191zM635 68q207 0 346 163.5t139 384.5q0 160 -90 259.5t-233 99.5q-197 0 -360 -168t-163 -375q0 -154 101.5 -259 t259.5 -105z" />
<glyph unicode="c" horiz-adv-x="1153" d="M557 -25q-182 0 -318.5 123t-136.5 328q0 258 183.5 450.5t431.5 192.5q150 0 253 -71.5t156 -180.5l-84 -47q-117 205 -331 205q-199 0 -349.5 -164t-150.5 -379q0 -168 103.5 -265t248.5 -97q178 0 338 149l68 -65q-185 -179 -412 -179z" />
<glyph unicode="d" horiz-adv-x="1339" d="M530 -27q-182 0 -300.5 124t-118.5 317q0 274 176 464.5t413 190.5q162 0 266.5 -83t149.5 -210l193 719h100l-399 -1495h-101l54 203q-193 -230 -433 -230zM543 68q197 0 359.5 167.5t162.5 374.5q0 154 -101.5 259.5t-258.5 105.5q-207 0 -346.5 -164t-139.5 -385 q0 -160 90.5 -259t233.5 -99z" />
<glyph unicode="e" horiz-adv-x="1193" d="M215 487q-4 -45 -4 -69q0 -158 96 -253t250 -95q186 0 356 139l60 -72q-195 -162 -416 -162q-201 0 -328 123t-127 316q0 252 178.5 453.5t426.5 201.5q188 0 291.5 -114.5t103.5 -284.5q0 -100 -29 -183h-858zM233 578h758q8 37 8 86q0 135 -74.5 224t-219.5 89 q-168 0 -296.5 -114.5t-175.5 -284.5z" />
<glyph unicode="f" horiz-adv-x="741" d="M113 0l256 952h-152l25 92h151l41 152q80 299 334 299q117 0 209 -49l-25 -90q-104 49 -188 49q-176 0 -236 -231l-34 -130h376l-24 -92h-377l-256 -952h-100z" />
<glyph unicode="g" horiz-adv-x="1339" d="M483 -332q-137 0 -268 52.5t-225 142.5l73 74q184 -174 424 -175q205 0 322 117q92 92 143 275l37 131q-195 -207 -430 -207q-176 0 -306 111.5t-130 293.5q0 252 180 419t412 167q287 0 407 -278l68 253h100l-243 -915q-55 -203 -164 -311q-150 -150 -400 -150zM578 172 q195 0 347 144.5t152 322.5q0 133 -101.5 233.5t-264.5 100.5q-190 0 -335 -137.5t-145 -346.5q0 -150 103 -233.5t244 -83.5z" />
<glyph unicode="h" horiz-adv-x="1247" d="M51 0l402 1495h100l-174 -645q182 219 395 219q156 0 249 -91t93 -241q0 -57 -22 -147l-156 -590h-100l159 598q16 61 17 129q0 117 -72 184.5t-197 67.5q-137 0 -264 -110.5t-172 -278.5l-157 -590h-101z" />
<glyph unicode="i" horiz-adv-x="512" d="M408 1317l36 137h125l-37 -137h-124zM66 0l280 1044h100l-280 -1044h-100z" />
<glyph unicode="j" horiz-adv-x="509" d="M408 1317l36 137h125l-37 -137h-124zM-106 -334q-68 0 -130 21l25 90q57 -16 96 -17q115 0 154 142l307 1142h100l-309 -1150q-29 -109 -92 -168.5t-151 -59.5z" />
<glyph unicode="k" horiz-adv-x="1146" d="M51 0l402 1495h100l-297 -1108l811 657h145l-581 -466l311 -578h-117l-278 516l-328 -262l-67 -254h-101z" />
<glyph unicode="l" horiz-adv-x="512" d="M66 0l401 1495h100l-401 -1495h-100z" />
<glyph unicode="m" horiz-adv-x="1947" d="M51 0l279 1044h100l-51 -194q88 109 173 164t202 55q131 0 208.5 -74.5t96.5 -181.5q156 256 438 256q141 0 233.5 -93t92.5 -239q0 -41 -27 -147l-156 -590h-100l160 598q16 61 16 129q0 115 -67.5 183.5t-180.5 68.5q-127 0 -249.5 -111.5t-165.5 -277.5l-156 -590 h-100l159 598q16 61 17 129q0 115 -67.5 183.5t-180.5 68.5q-127 0 -250 -111.5t-166 -277.5l-157 -590h-101z" />
<glyph unicode="n" horiz-adv-x="1251" d="M51 0l279 1044h100l-51 -194q182 219 395 219q156 0 249 -91t93 -241q0 -57 -22 -147l-156 -590h-100l159 598q16 61 17 129q0 117 -72 184.5t-197 67.5q-137 0 -264 -110.5t-172 -278.5l-157 -590h-101z" />
<glyph unicode="o" horiz-adv-x="1296" d="M569 -25q-207 0 -336 130.5t-129 332.5q0 250 186.5 440.5t434.5 190.5q207 0 336 -130t129 -333q0 -254 -188.5 -442.5t-432.5 -188.5zM580 70q195 0 348 159.5t153 372.5q0 174 -100 273.5t-266 99.5q-199 0 -350.5 -162t-151.5 -371q0 -174 100.5 -273t266.5 -99z" />
<glyph unicode="p" horiz-adv-x="1339" d="M-37 -328l367 1372h100l-55 -204q193 229 434 229q182 0 301 -124t119 -316q0 -274 -176 -465t-414 -191q-162 0 -266.5 83t-149.5 210l-160 -594h-100zM635 68q207 0 346 163.5t139 384.5q0 160 -90 259.5t-233 99.5q-197 0 -360 -168t-163 -375q0 -154 101.5 -259 t259.5 -105z" />
<glyph unicode="q" horiz-adv-x="1339" d="M801 -410l164 615q-193 -231 -435 -232q-182 0 -300.5 124t-118.5 317q0 274 176 464.5t413 190.5q164 0 267.5 -83t148.5 -208l72 266h100l-387 -1454h-100zM543 68q197 0 359.5 169t162.5 375q0 154 -101.5 258.5t-258.5 104.5q-207 0 -346.5 -164t-139.5 -385 q0 -160 90.5 -259t233.5 -99z" />
<glyph unicode="r" horiz-adv-x="811" d="M51 0l279 1044h100l-78 -296q224 314 508 314q14 0 29 -1l-29 -111h-8q-188 0 -355 -141t-231 -381l-114 -428h-101z" />
<glyph unicode="s" horiz-adv-x="1013" d="M444 -23q-262 0 -442 181l72 71q166 -160 383 -159q104 0 187 58t83 148q0 63 -48 110.5t-179 96.5q-156 57 -224.5 120t-68.5 161q0 127 107.5 215t279.5 88q211 0 377 -139l-66 -76q-150 123 -321 123q-125 0 -198 -57.5t-73 -137.5q0 -63 47.5 -106t188.5 -99 q156 -61 220.5 -124.5t64.5 -157.5q0 -135 -115 -225.5t-275 -90.5z" />
<glyph unicode="t" horiz-adv-x="811" d="M422 -18q-111 0 -180.5 52t-69.5 154q0 47 12 101l178 663h-151l25 92h151l90 334h101l-91 -334h361l-25 -92h-360l-178 -665q-10 -45 -11 -88q0 -125 170 -125q66 0 152 32l-27 -98q-71 -26 -147 -26z" />
<glyph unicode="u" horiz-adv-x="1247" d="M473 -25q-156 0 -249 91.5t-93 240.5q0 57 23 148l155 589h101l-160 -598q-16 -61 -17 -129q0 -117 72 -184t197 -67q137 0 264 110.5t172 278.5l158 589h100l-278 -1044h-101l51 195q-182 -220 -395 -220z" />
<glyph unicode="v" horiz-adv-x="1140" d="M367 -8l-185 1052h109l145 -931l641 931h121l-745 -1052h-86z" />
<glyph unicode="w" horiz-adv-x="1730" d="M303 -8l-100 1052h102l76 -909l559 914h80l72 -914l563 909h110l-665 -1052h-88l-72 895l-553 -895h-84z" />
<glyph unicode="x" horiz-adv-x="1144" d="M-59 0l581 541l-276 503h114l230 -440l459 440h135l-549 -512l289 -532h-115l-242 469l-491 -469h-135z" />
<glyph unicode="y" horiz-adv-x="1163" d="M41 -334q-119 0 -221 72l55 82q74 -59 178 -60q82 0 161 56.5t173 189.5l-213 1038h107l182 -933l629 933h120l-743 -1081q-111 -160 -212 -228.5t-216 -68.5z" />
<glyph unicode="z" horiz-adv-x="1118" d="M-35 0l17 57l972 897h-704l24 90h869l-17 -57l-972 -897h739l-25 -90h-903z" />
<glyph unicode="{" horiz-adv-x="983" d="M639 -289q-168 37 -246 129t-78 213q0 74 47 246q18 66 19 113q0 137 -195 137h-53l21 78h53q158 0 230.5 83t115.5 294q43 221 163 332.5t392 127.5l-6 -75q-215 -12 -314.5 -108.5t-136.5 -287.5q-41 -211 -109.5 -299t-203.5 -110q141 -43 141 -170q0 -55 -18 -117 q-45 -154 -45 -236q0 -217 252 -286z" />
<glyph unicode="|" horiz-adv-x="585" d="M289 -262v1896h90v-1896h-90z" />
<glyph unicode="}" horiz-adv-x="983" d="M-90 -289l6 76q215 12 314.5 108.5t136.5 286.5q41 211 109.5 299t203.5 111q-141 43 -141 170q0 55 18 117q45 154 45 235q0 217 -252 287l29 63q168 -37 245.5 -129t77.5 -213q0 -74 -47 -245q-18 -66 -18 -113q0 -137 194 -137h54l-21 -78h-53q-158 0 -230.5 -83 t-115.5 -294q-45 -221 -164 -333t-391 -128z" />
<glyph unicode="~" horiz-adv-x="942" d="M256 502l-78 30q51 102 100.5 149.5t112.5 47.5q41 0 68.5 -16.5t68.5 -55.5q63 -61 99 -61q31 0 56.5 27.5t64.5 95.5l77 -31q-51 -102 -100 -149t-113 -47q-41 0 -68.5 16t-68.5 55q-63 61 -98 62q-31 0 -56.5 -27.5t-64.5 -95.5z" />
<glyph unicode="&#xa1;" horiz-adv-x="514" d="M387 1260l47 174h135l-47 -174h-135zM57 0l39 143l277 916h57l-215 -916l-39 -143h-119z" />
<glyph unicode="&#xa2;" horiz-adv-x="1142" d="M418 215q-121 51 -192.5 159.5t-71.5 246.5q0 266 184 458.5t440 192.5q37 0 56 -2l69 176h103l-78 -193q195 -49 276 -231l-84 -47q-86 156 -233 190l-348 -886q35 -6 73 -7q201 0 367 150l68 -66q-193 -178 -441 -178q-45 0 -96 10l-80 -200h-102zM801 1178h-29 q-211 0 -360.5 -164t-149.5 -391q0 -111 51.5 -196t143.5 -124z" />
<glyph unicode="&#xa3;" horiz-adv-x="1277" d="M-4 0l14 51l187 41l143 533h-176l26 98h177l71 268q55 209 164 318q139 139 334 139q258 0 381 -225l-88 -54q-113 182 -299 183q-145 0 -248 -103q-94 -94 -143 -276l-68 -250h610l-26 -98h-611l-141 -529h766l-27 -96h-1046z" />
<glyph unicode="&#xa4;" horiz-adv-x="1400" d="M762 -25q-211 0 -349.5 142.5t-148.5 384.5h-188l26 98h164q6 133 43 252h-141l27 98h149q92 227 267 367.5t399 140.5q170 0 284.5 -90t163.5 -235l-92 -37q-55 131 -142 198.5t-233 67.5q-168 0 -310 -112.5t-224 -299.5h616l-26 -98h-627q-39 -127 -45 -252h606 l-27 -98h-579q10 -195 112.5 -312.5t276.5 -117.5q231 0 412 200l71 -61q-211 -236 -485 -236z" />
<glyph unicode="&#xa5;" horiz-adv-x="1433" d="M514 0l68 256h-430l24 92h430l53 201h-430l25 92h389l-348 793h121l329 -770l746 770h139l-778 -793h377l-25 -92h-438l-53 -201h438l-25 -92h-438l-67 -256h-107z" />
<glyph unicode="&#xa7;" horiz-adv-x="1294" d="M590 -20q-135 0 -258 48t-195 119l68 76q68 -63 174 -107t225 -44q106 0 178 44t72 115q0 63 -65.5 110.5t-219.5 100.5q-205 72 -295 137.5t-90 161.5q0 119 115 191t291 72q-158 70 -158 196q0 117 106.5 185.5t264.5 68.5q135 0 258 -48t194 -120l-67 -76 q-68 63 -174.5 107.5t-225.5 44.5q-106 0 -177.5 -44t-71.5 -116q0 -63 65.5 -110.5t218.5 -100.5q205 -72 295 -137.5t90 -161.5q0 -119 -114.5 -190.5t-290.5 -71.5q158 -70 158 -197q0 -117 -106.5 -185t-264.5 -68zM803 502q127 0 213 53t86 129q0 59 -62.5 106.5 t-210.5 98.5q-125 43 -239 43q-127 0 -213 -53.5t-86 -128.5q0 -59 62.5 -106.5t209.5 -98.5q123 -43 240 -43z" />
<glyph unicode="&#xa8;" d="M770 1219l45 163h141l-45 -163h-141zM436 1219l45 163h142l-45 -163h-142z" />
<glyph unicode="&#xa9;" horiz-adv-x="1699" d="M899 -25q-309 0 -524 217.5t-215 522.5t217 524t526 219t524 -217t215 -522t-217 -524.5t-526 -219.5zM899 33q289 0 485.5 200.5t196.5 485.5t-194.5 483.5t-483.5 198.5t-485.5 -201t-196.5 -485.5t194.5 -483t483.5 -198.5zM909 340q-158 0 -265 112.5t-107 274.5 q0 160 107.5 274.5t266.5 114.5q158 0 289 -125l-61 -63q-111 106 -230 106q-123 0 -202.5 -89t-79.5 -216t83 -217t201 -90q123 0 236 106l57 -57q-135 -131 -295 -131z" />
<glyph unicode="&#xaa;" horiz-adv-x="798" d="M391 840q-74 0 -124 42t-50 111q0 98 75 157.5t193 59.5q80 0 199 -30l4 12q8 29 8 55q0 119 -159 119q-78 0 -164 -31l-15 72q98 35 193 35q109 0 168 -48t59 -132q0 -27 -12 -80l-88 -330h-82l29 102q-105 -114 -234 -114zM119 600l20 82h500l-21 -82h-499zM412 905 q78 0 153.5 56.5t96.5 132.5l8 28q-102 25 -185 25q-80 0 -131 -41t-51 -105q0 -43 30 -69.5t79 -26.5z" />
<glyph unicode="&#xab;" horiz-adv-x="1054" d="M723 86l-213 428l4 16l442 428l74 -57l-393 -393l170 -377zM305 86l-213 428l4 16l443 428l73 -57l-393 -393l170 -377z" />
<glyph unicode="&#xad;" horiz-adv-x="837" d="M152 551l30 115h549l-31 -115h-548z" />
<glyph unicode="&#xae;" horiz-adv-x="1699" d="M899 -25q-309 0 -524 217.5t-215 522.5t217 524t526 219t524 -217t215 -522t-217 -524.5t-526 -219.5zM899 33q289 0 485.5 200.5t196.5 485.5t-194.5 483.5t-483.5 198.5t-485.5 -201t-196.5 -485.5t194.5 -483t483.5 -198.5zM616 362v750h336q121 0 199 -59.5 t78 -157.5q0 -88 -55.5 -143.5t-149.5 -73.5l250 -316h-115l-237 302h-217v-302h-89zM705 745h233q88 0 143.5 38t55.5 108q0 63 -50.5 100t-138.5 37h-243v-283z" />
<glyph unicode="&#xaf;" d="M389 1229l29 108h614l-28 -108h-615z" />
<glyph unicode="&#xb0;" horiz-adv-x="749" d="M438 842q-113 0 -185.5 73.5t-72.5 184.5q0 137 101.5 240.5t238.5 103.5q113 0 185.5 -74t72.5 -184q0 -137 -101.5 -240.5t-238.5 -103.5zM449 928q94 0 165.5 74.5t71.5 173.5q0 84 -49 133t-127 49q-94 0 -166 -75t-72 -173q0 -84 49.5 -133t127.5 -49z" />
<glyph unicode="&#xb1;" horiz-adv-x="1228" d="M532 -25q-178 0 -312 71t-206 187l92 56q143 -217 433 -217q182 0 297.5 91t115.5 224q0 145 -122.5 217t-319.5 72h-61l24 94h82q254 0 398.5 86t144.5 238q0 121 -94.5 192.5t-241.5 71.5q-209 0 -389 -141l-66 71q203 166 455 166q188 0 318 -95t130 -259 q0 -158 -114.5 -255t-317.5 -130q127 -37 207 -118t80 -206q0 -176 -155 -296t-378 -120z" />
<glyph unicode="&#xb2;" horiz-adv-x="1204" d="M-39 0l19 80l856 665q131 102 191 185.5t60 179.5q0 109 -81.5 178.5t-225.5 69.5q-217 0 -409 -205l-76 66q227 236 489 235q182 0 298 -95t116 -247q0 -119 -72.5 -219t-224.5 -217l-741 -574h827l-26 -102h-1000z" />
<glyph unicode="&#xb3;" horiz-adv-x="1241" d="M512 -25q-178 0 -304 75t-188 206l89 49q121 -233 409 -233q190 0 315 101t125 259q0 135 -107.5 204t-293.5 69h-59l-23 53l639 575h-768l29 101h921l-20 -76l-629 -567q182 -8 303 -99.5t121 -251.5q0 -201 -164 -333t-395 -132z" />
<glyph unicode="&#xb4;" d="M514 1219l254 272l127 -61l-277 -211h-104z" />
<glyph unicode="&#xb5;" horiz-adv-x="1732" d="M1417 -49l-147 174q-211 -152 -455 -152q-268 0 -443 177.5t-175 439.5q0 221 109.5 421.5t301 323.5t414.5 123q268 0 443 -177t175 -439q0 -184 -79.5 -358.5t-219.5 -299.5l154 -168zM815 70q211 0 389 129l-239 266l77 67l234 -274q119 111 186.5 265.5t67.5 318.5 q0 223 -141.5 371.5t-366.5 148.5q-197 0 -362.5 -110.5t-259 -288t-93.5 -373.5q0 -223 141.5 -371.5t366.5 -148.5z" />
<glyph unicode="&#xb6;" horiz-adv-x="995" d="M532 0l144 539q-207 12 -337 102t-130 272q0 244 178 382.5t490 138.5h149l-385 -1434h-109z" />
<glyph unicode="&#xb7;" horiz-adv-x="473" d="M168 522l47 174h135l-47 -174h-135z" />
<glyph unicode="&#xb8;" d="M242 -303l-99 53l256 270h88z" />
<glyph unicode="&#xb9;" horiz-adv-x="684" d="M190 0l355 1321l-301 -94l-4 96l360 121h84l-387 -1444h-107z" />
<glyph unicode="&#xba;" horiz-adv-x="798" d="M502 834q-119 0 -192.5 74.5t-73.5 189.5q0 137 101 241.5t241 104.5q117 0 191.5 -75t74.5 -189q0 -137 -101.5 -241.5t-240.5 -104.5zM123 600l20 82h549l-20 -82h-549zM508 909q100 0 174 80t74 187q0 86 -51.5 139t-133.5 53q-102 0 -175.5 -80t-73.5 -186 q0 -86 52 -139.5t134 -53.5z" />
<glyph unicode="&#xbb;" horiz-adv-x="1054" d="M514 84l-74 57l394 394l-170 376l84 45l213 -428l-5 -16zM96 84l-73 57l393 394l-170 376l84 45l213 -428l-4 -16z" />
<glyph unicode="&#xbc;" horiz-adv-x="3131" d="M2566 0l94 350h-776l-17 80l1092 1014h98l-268 -1002h233l-24 -92h-234l-94 -350h-104zM2013 442h671l224 832zM514 -201l1427 1753h121l-1427 -1753h-121zM190 0l355 1321l-301 -94l-4 96l360 121h84l-387 -1444h-107z" />
<glyph unicode="&#xbd;" horiz-adv-x="3014" d="M1771 0l19 80l856 665q131 102 191 185.5t60 179.5q0 109 -81.5 178.5t-225.5 69.5q-217 0 -409 -205l-76 66q227 236 489 235q182 0 298 -95t116 -247q0 -119 -72.5 -219t-224.5 -217l-741 -574h827l-26 -102h-1000zM514 -201l1427 1753h121l-1427 -1753h-121zM190 0 l355 1321l-301 -94l-4 96l360 121h84l-387 -1444h-107z" />
<glyph unicode="&#xbe;" horiz-adv-x="3688" d="M3123 0l94 350h-776l-17 80l1092 1014h98l-268 -1002h233l-24 -92h-234l-94 -350h-104zM2570 442h671l224 832zM1071 -201l1427 1753h121l-1427 -1753h-121zM512 -25q-178 0 -304 75t-188 206l89 49q121 -233 409 -233q190 0 315 101t125 259q0 135 -107.5 204t-293.5 69 h-59l-23 53l639 575h-768l29 101h921l-20 -76l-629 -567q182 -8 303 -99.5t121 -251.5q0 -201 -164 -333t-395 -132z" />
<glyph unicode="&#xbf;" horiz-adv-x="1093" d="M754 1260l47 174h135l-47 -174h-135zM516 -18q-188 0 -300 100t-112 258q0 193 154 311.5t389 151.5l88 256h66l-62 -332l-14 -10q-231 -16 -371.5 -115.5t-140.5 -259.5q0 -125 88 -194.5t223 -69.5q221 0 402 180l65 -70q-207 -206 -475 -206z" />
<glyph unicode="&#xc0;" horiz-adv-x="1554" d="M-70 0l1055 1444h102l281 -1444h-108l-74 401h-846l-291 -401h-119zM410 498h755l-153 829zM1059 1567l-162 211l127 61l106 -272h-71z" />
<glyph unicode="&#xc1;" horiz-adv-x="1554" d="M-70 0l1055 1444h102l281 -1444h-108l-74 401h-846l-291 -401h-119zM410 498h755l-153 829zM1001 1567l254 272l127 -61l-276 -211h-105z" />
<glyph unicode="&#xc2;" horiz-adv-x="1554" d="M-70 0l1055 1444h102l281 -1444h-108l-74 401h-846l-291 -401h-119zM410 498h755l-153 829zM822 1567l272 249h82l137 -249h-90l-106 139l-197 -139h-98z" />
<glyph unicode="&#xc3;" horiz-adv-x="1554" d="M-70 0l1055 1444h102l281 -1444h-108l-74 401h-846l-291 -401h-119zM410 498h755l-153 829zM852 1563l-78 30q51 102 100.5 149.5t112.5 47.5q41 0 68.5 -16.5t68.5 -55.5q63 -61 99 -61q31 0 56.5 27.5t63.5 95.5l78 -31q-51 -102 -100 -149.5t-113 -47.5 q-41 0 -68.5 16.5t-68.5 55.5q-63 61 -98 62q-31 0 -56.5 -27.5t-64.5 -95.5z" />
<glyph unicode="&#xc4;" horiz-adv-x="1554" d="M-70 0l1055 1444h102l281 -1444h-108l-74 401h-846l-291 -401h-119zM410 498h755l-153 829zM1178 1567l45 163h141l-45 -163h-141zM844 1567l45 163h142l-45 -163h-142z" />
<glyph unicode="&#xc5;" horiz-adv-x="1595" d="M-49 0l1020 1395q-94 45 -94 145q0 86 64.5 147.5t152.5 61.5q86 0 141 -47t55 -121t-48 -131t-122 -74l269 -1376h-109l-74 401h-846l-290 -401h-119zM1073.5 1438q59.5 0 101.5 42t42 101q0 45 -32 73.5t-91.5 28.5t-101.5 -42t-42 -101q0 -45 32 -73.5t91.5 -28.5z M430 498h756l-154 829z" />
<glyph unicode="&#xc6;" horiz-adv-x="2187" d="M-66 0l1252 1434h1108l-27 -99h-883l-151 -563h790l-26 -98h-791l-153 -576h893l-27 -98h-999l108 401h-616l-349 -401h-129zM496 498h557l225 839h-55z" />
<glyph unicode="&#xc7;" horiz-adv-x="1511" d="M766 -27l-211 -276l-98 53l219 232q-213 33 -350.5 185t-137.5 388q0 229 114 438t313.5 337t428.5 128q188 0 322.5 -85t204.5 -224l-92 -49q-74 129 -177.5 195.5t-263.5 66.5q-303 0 -521 -246t-218 -557q0 -223 136 -355t349 -132q152 0 265.5 54t220.5 161l71 -66 q-238 -248 -567 -248h-8z" />
<glyph unicode="&#xc8;" horiz-adv-x="1329" d="M74 0l385 1434h1009l-26 -99h-903l-152 -563h811l-27 -98h-811l-153 -576h913l-26 -98h-1020zM983 1567l-162 211l127 61l107 -272h-72z" />
<glyph unicode="&#xc9;" horiz-adv-x="1329" d="M74 0l385 1434h1009l-26 -99h-903l-152 -563h811l-27 -98h-811l-153 -576h913l-26 -98h-1020zM846 1567l254 272l127 -61l-277 -211h-104z" />
<glyph unicode="&#xca;" horiz-adv-x="1329" d="M74 0l385 1434h1009l-26 -99h-903l-152 -563h811l-27 -98h-811l-153 -576h913l-26 -98h-1020zM727 1567l272 250h82l138 -250h-91l-106 139l-197 -139h-98z" />
<glyph unicode="&#xcb;" horiz-adv-x="1329" d="M74 0l385 1434h1009l-26 -99h-903l-152 -563h811l-27 -98h-811l-153 -576h913l-26 -98h-1020zM1081 1567l45 163h141l-45 -163h-141zM747 1567l45 163h142l-45 -163h-142z" />
<glyph unicode="&#xcc;" horiz-adv-x="561" d="M88 0l385 1434h107l-385 -1434h-107zM541 1567l-162 211l127 61l106 -272h-71z" />
<glyph unicode="&#xcd;" horiz-adv-x="561" d="M88 0l385 1434h107l-385 -1434h-107zM475 1567l254 272l127 -61l-277 -211h-104z" />
<glyph unicode="&#xce;" horiz-adv-x="561" d="M88 0l385 1434h107l-385 -1434h-107zM303 1567l272 250h82l138 -250h-90l-107 139l-197 -139h-98z" />
<glyph unicode="&#xcf;" horiz-adv-x="561" d="M88 0l385 1434h107l-385 -1434h-107zM659 1567l46 164h141l-45 -164h-142zM326 1567l45 164h141l-45 -164h-141z" />
<glyph unicode="&#xd0;" horiz-adv-x="1640" d="M135 0l180 672h-153l26 98h154l178 664h322q365 0 557 -193q158 -158 157 -410q0 -332 -223 -555q-131 -131 -320.5 -203.5t-408.5 -72.5h-469zM268 98h350q389 0 635 246q193 193 193 479q0 221 -133 351q-162 162 -477 161h-236l-151 -565h475l-27 -98h-475z" />
<glyph unicode="&#xd1;" horiz-adv-x="1609" d="M74 0l385 1434h98l645 -1256l338 1256h102l-385 -1434h-77l-660 1282l-344 -1282h-102zM833 1562l-78 31q51 102 100.5 149.5t112.5 47.5q41 0 69 -16.5t69 -55.5q63 -61 98 -61q31 0 56.5 27.5t64.5 95.5l78 -31q-51 -102 -100.5 -149.5t-112.5 -47.5q-41 0 -69 16.5 t-69 55.5q-63 61 -98 61q-31 0 -56.5 -27.5t-64.5 -95.5z" />
<glyph unicode="&#xd2;" horiz-adv-x="1732" d="M815 -27q-268 0 -443 177.5t-175 439.5q0 221 109.5 421.5t301 323.5t414.5 123q268 0 443 -177t175 -439q0 -221 -109.5 -422t-301 -324t-414.5 -123zM815 70q197 0 362.5 110.5t259 287.5t93.5 374q0 223 -141.5 371.5t-366.5 148.5q-197 0 -362.5 -110.5t-259 -288 t-93.5 -373.5q0 -223 141.5 -371.5t366.5 -148.5zM1118 1567l-162 211l127 61l107 -272h-72z" />
<glyph unicode="&#xd3;" horiz-adv-x="1732" d="M815 -27q-268 0 -443 177.5t-175 439.5q0 221 109.5 421.5t301 323.5t414.5 123q268 0 443 -177t175 -439q0 -221 -109.5 -422t-301 -324t-414.5 -123zM815 70q197 0 362.5 110.5t259 287.5t93.5 374q0 223 -141.5 371.5t-366.5 148.5q-197 0 -362.5 -110.5t-259 -288 t-93.5 -373.5q0 -223 141.5 -371.5t366.5 -148.5zM961 1567l253 272l127 -61l-276 -211h-104z" />
<glyph unicode="&#xd4;" horiz-adv-x="1732" d="M815 -27q-268 0 -443 177.5t-175 439.5q0 221 109.5 421.5t301 323.5t414.5 123q268 0 443 -177t175 -439q0 -221 -109.5 -422t-301 -324t-414.5 -123zM815 70q197 0 362.5 110.5t259 287.5t93.5 374q0 223 -141.5 371.5t-366.5 148.5q-197 0 -362.5 -110.5t-259 -288 t-93.5 -373.5q0 -223 141.5 -371.5t366.5 -148.5zM860 1567l273 250h81l138 -250h-90l-107 139l-197 -139h-98z" />
<glyph unicode="&#xd5;" horiz-adv-x="1732" d="M815 -27q-268 0 -443 177.5t-175 439.5q0 221 109.5 421.5t301 323.5t414.5 123q268 0 443 -177t175 -439q0 -221 -109.5 -422t-301 -324t-414.5 -123zM815 70q197 0 362.5 110.5t259 287.5t93.5 374q0 223 -141.5 371.5t-366.5 148.5q-197 0 -362.5 -110.5t-259 -288 t-93.5 -373.5q0 -223 141.5 -371.5t366.5 -148.5zM862 1562l-78 31q51 102 100.5 149.5t112.5 47.5q41 0 69 -16.5t69 -55.5q63 -61 98 -61q31 0 56.5 27.5t64.5 95.5l78 -31q-51 -102 -100.5 -149.5t-112.5 -47.5q-41 0 -69 16.5t-69 55.5q-63 61 -98 61q-31 0 -56.5 -27.5 t-64.5 -95.5z" />
<glyph unicode="&#xd6;" horiz-adv-x="1732" d="M815 -27q-268 0 -443 177.5t-175 439.5q0 221 109.5 421.5t301 323.5t414.5 123q268 0 443 -177t175 -439q0 -221 -109.5 -422t-301 -324t-414.5 -123zM815 70q197 0 362.5 110.5t259 287.5t93.5 374q0 223 -141.5 371.5t-366.5 148.5q-197 0 -362.5 -110.5t-259 -288 t-93.5 -373.5q0 -223 141.5 -371.5t366.5 -148.5zM1196 1567l45 163h141l-45 -163h-141zM862 1567l45 163h142l-45 -163h-142z" />
<glyph unicode="&#xd8;" horiz-adv-x="1732" d="M815 -27q-295 0 -475 211l-234 -194h-141l322 268q-90 152 -90 332q0 221 109.5 421.5t301 323.5t414.5 123q287 0 465 -198l219 184h141l-305 -256q98 -158 98 -346q0 -221 -109.5 -422t-301 -324t-414.5 -123zM369 326l1040 868q-145 168 -387 168 q-197 0 -362.5 -110.5t-259 -288t-93.5 -373.5q1 -147 62 -264zM815 70q197 0 362.5 110.5t259 287.5t93.5 374q0 156 -70 278l-1042 -870q141 -180 397 -180z" />
<glyph unicode="&#xd9;" horiz-adv-x="1548" d="M713 -23q-250 0 -383 125t-133 326q0 111 28 221l209 785h107l-222 -834q-18 -74 -18 -164q0 -162 106.5 -262t313.5 -100q203 0 350 147q133 133 201 381l223 832h107l-230 -854q-72 -266 -227 -422q-180 -181 -432 -181zM1036 1567l-162 211l127 61l107 -272h-72z" />
<glyph unicode="&#xda;" horiz-adv-x="1548" d="M713 -23q-250 0 -383 125t-133 326q0 111 28 221l209 785h107l-222 -834q-18 -74 -18 -164q0 -162 106.5 -262t313.5 -100q203 0 350 147q133 133 201 381l223 832h107l-230 -854q-72 -266 -227 -422q-180 -181 -432 -181zM899 1567l254 272l127 -61l-277 -211h-104z" />
<glyph unicode="&#xdb;" horiz-adv-x="1548" d="M713 -23q-250 0 -383 125t-133 326q0 111 28 221l209 785h107l-222 -834q-18 -74 -18 -164q0 -162 106.5 -262t313.5 -100q203 0 350 147q133 133 201 381l223 832h107l-230 -854q-72 -266 -227 -422q-180 -181 -432 -181zM793 1567l272 250h82l137 -250h-90l-107 139 l-196 -139h-98z" />
<glyph unicode="&#xdc;" horiz-adv-x="1548" d="M713 -23q-250 0 -383 125t-133 326q0 111 28 221l209 785h107l-222 -834q-18 -74 -18 -164q0 -162 106.5 -262t313.5 -100q203 0 350 147q133 133 201 381l223 832h107l-230 -854q-72 -266 -227 -422q-180 -181 -432 -181zM1137 1567l45 164h141l-45 -164h-141zM803 1567 l45 164h141l-45 -164h-141z" />
<glyph unicode="&#xdd;" horiz-adv-x="1368" d="M479 0l156 582l-375 852h117l330 -770l745 770h143l-862 -879l-147 -555h-107zM809 1567l254 272l127 -61l-277 -211h-104z" />
<glyph unicode="&#xde;" horiz-adv-x="1368" d="M74 0l385 1434h104l-67 -260h340q266 0 395 -130q98 -98 98 -256q0 -242 -190.5 -377t-517.5 -135h-365l-76 -276h-106zM281 373h344q289 0 443.5 107.5t154.5 303.5q0 117 -74 191q-100 100 -315 100h-365z" />
<glyph unicode="&#xdf;" horiz-adv-x="1269" d="M451 -4l24 90q266 2 400.5 95t134.5 233q0 219 -371 286l25 93q455 106 454 383q0 106 -75.5 172.5t-206.5 66.5q-150 0 -257.5 -111.5t-160.5 -310.5l-266 -993h-101l275 1024q59 223 178 342q143 143 340 143q166 0 274.5 -93t108.5 -236q0 -311 -434 -432 q326 -86 325 -336q0 -182 -180 -300t-487 -116z" />
<glyph unicode="&#xe0;" horiz-adv-x="1169" d="M389 -25q-141 0 -241.5 77t-100.5 216q0 172 131 275.5t340 103.5q184 0 402 -59l8 28q14 53 14 105q0 119 -81 182.5t-234 63.5q-143 0 -303 -56l-19 90q166 59 330 60q190 0 297.5 -87t107.5 -239q0 -59 -20 -137l-160 -598h-98l47 180q-172 -205 -420 -205zM408 68 q154 0 290 97t176 251l25 92q-197 49 -395 49q-156 0 -253 -77t-97 -199q0 -96 68.5 -154.5t185.5 -58.5zM743 1219l-161 211l127 61l106 -272h-72z" />
<glyph unicode="&#xe1;" horiz-adv-x="1169" d="M389 -25q-141 0 -241.5 77t-100.5 216q0 172 131 275.5t340 103.5q184 0 402 -59l8 28q14 53 14 105q0 119 -81 182.5t-234 63.5q-143 0 -303 -56l-19 90q166 59 330 60q190 0 297.5 -87t107.5 -239q0 -59 -20 -137l-160 -598h-98l47 180q-172 -205 -420 -205zM408 68 q154 0 290 97t176 251l25 92q-197 49 -395 49q-156 0 -253 -77t-97 -199q0 -96 68.5 -154.5t185.5 -58.5zM616 1219l254 272l127 -61l-277 -211h-104z" />
<glyph unicode="&#xe2;" horiz-adv-x="1169" d="M389 -25q-141 0 -241.5 77t-100.5 216q0 172 131 275.5t340 103.5q184 0 402 -59l8 28q14 53 14 105q0 119 -81 182.5t-234 63.5q-143 0 -303 -56l-19 90q166 59 330 60q190 0 297.5 -87t107.5 -239q0 -59 -20 -137l-160 -598h-98l47 180q-172 -205 -420 -205zM408 68 q154 0 290 97t176 251l25 92q-197 49 -395 49q-156 0 -253 -77t-97 -199q0 -96 68.5 -154.5t185.5 -58.5zM504 1219l272 249h82l137 -249h-90l-106 139l-197 -139h-98z" />
<glyph unicode="&#xe3;" horiz-adv-x="1169" d="M389 -25q-141 0 -241.5 77t-100.5 216q0 172 131 275.5t340 103.5q184 0 402 -59l8 28q14 53 14 105q0 119 -81 182.5t-234 63.5q-143 0 -303 -56l-19 90q166 59 330 60q190 0 297.5 -87t107.5 -239q0 -59 -20 -137l-160 -598h-98l47 180q-172 -205 -420 -205zM408 68 q154 0 290 97t176 251l25 92q-197 49 -395 49q-156 0 -253 -77t-97 -199q0 -96 68.5 -154.5t185.5 -58.5zM528 1214l-78 31q51 102 100.5 149.5t112.5 47.5q41 0 69 -16.5t69 -55.5q63 -61 98 -61q31 0 56.5 27.5t64.5 95.5l78 -31q-51 -102 -100.5 -149.5t-112.5 -47.5 q-41 0 -69 16.5t-69 55.5q-63 61 -98 61q-31 0 -56.5 -27.5t-64.5 -95.5z" />
<glyph unicode="&#xe4;" horiz-adv-x="1169" d="M389 -25q-141 0 -241.5 77t-100.5 216q0 172 131 275.5t340 103.5q184 0 402 -59l8 28q14 53 14 105q0 119 -81 182.5t-234 63.5q-143 0 -303 -56l-19 90q166 59 330 60q190 0 297.5 -87t107.5 -239q0 -59 -20 -137l-160 -598h-98l47 180q-172 -205 -420 -205zM408 68 q154 0 290 97t176 251l25 92q-197 49 -395 49q-156 0 -253 -77t-97 -199q0 -96 68.5 -154.5t185.5 -58.5zM842 1219l45 163h141l-45 -163h-141zM508 1219l45 163h141l-45 -163h-141z" />
<glyph unicode="&#xe5;" horiz-adv-x="1169" d="M389 -25q-141 0 -241.5 77t-100.5 216q0 172 131 275.5t340 103.5q184 0 402 -59l8 28q14 53 14 105q0 119 -81 182.5t-234 63.5q-143 0 -303 -56l-19 90q166 59 330 60q190 0 297.5 -87t107.5 -239q0 -59 -20 -137l-160 -598h-98l47 180q-172 -205 -420 -205zM408 68 q154 0 290 97t176 251l25 92q-197 49 -395 49q-156 0 -253 -77t-97 -199q0 -96 68.5 -154.5t185.5 -58.5zM786 1219q-86 0 -141 47t-55 120q0 86 64.5 147.5t152.5 61.5q86 0 141.5 -47t55.5 -121q0 -86 -65 -147t-153 -61zM786.5 1284q59.5 0 101.5 42t42 101q0 45 -32 74 t-91 29t-101 -42t-42 -102q0 -45 31.5 -73.5t91 -28.5z" />
<glyph unicode="&#xe6;" horiz-adv-x="1976" d="M932 231q-246 -256 -522 -256q-158 0 -260.5 80t-102.5 224q0 168 135 268t344 100q199 0 394 -59l8 28q14 53 14 105q0 119 -81 182.5t-234 63.5q-143 0 -303 -56l-19 90q166 59 330 59.5t267.5 -65t129.5 -182.5q86 117 206 186.5t255 69.5q188 0 291.5 -114.5 t103.5 -284.5q0 -100 -28 -183h-859q-4 -45 -4 -69q0 -158 96.5 -253t249.5 -95q186 0 357 139l59 -72q-195 -162 -409 -162q-154 0 -261.5 68.5t-156.5 187.5zM1020 578h758q8 37 8 86q0 135 -75 224t-220 89q-168 0 -296 -114.5t-175 -284.5zM903 510q-166 47 -391 47 q-156 0 -257 -75.5t-101 -190.5q0 -102 69.5 -162.5t194.5 -60.5q252 0 487 256q-8 41 -8 98q0 45 6 88z" />
<glyph unicode="&#xe7;" horiz-adv-x="1142" d="M463 -16q-154 31 -257.5 147.5t-103.5 294.5q0 258 183.5 450.5t431.5 192.5q150 0 253 -71.5t156 -180.5l-84 -47q-117 205 -331 205q-199 0 -349.5 -164t-150.5 -379q0 -168 103.5 -265t248.5 -97q178 0 338 149l68 -65q-184 -178 -412 -179h-6l-211 -278l-98 53z" />
<glyph unicode="&#xe8;" horiz-adv-x="1193" d="M215 487q-4 -45 -4 -69q0 -158 96 -253t250 -95q186 0 356 139l60 -72q-195 -162 -416 -162q-201 0 -328 123t-127 316q0 252 178.5 453.5t426.5 201.5q188 0 291.5 -114.5t103.5 -284.5q0 -100 -29 -183h-858zM233 578h758q8 37 8 86q0 135 -74.5 224t-219.5 89 q-168 0 -296.5 -114.5t-175.5 -284.5zM752 1219l-162 211l127 61l106 -272h-71z" />
<glyph unicode="&#xe9;" horiz-adv-x="1193" d="M215 487q-4 -45 -4 -69q0 -158 96 -253t250 -95q186 0 356 139l60 -72q-195 -162 -416 -162q-201 0 -328 123t-127 316q0 252 178.5 453.5t426.5 201.5q188 0 291.5 -114.5t103.5 -284.5q0 -100 -29 -183h-858zM233 578h758q8 37 8 86q0 135 -74.5 224t-219.5 89 q-168 0 -296.5 -114.5t-175.5 -284.5zM635 1219l254 272l127 -61l-277 -211h-104z" />
<glyph unicode="&#xea;" horiz-adv-x="1193" d="M215 487q-4 -45 -4 -69q0 -158 96 -253t250 -95q186 0 356 139l60 -72q-195 -162 -416 -162q-201 0 -328 123t-127 316q0 252 178.5 453.5t426.5 201.5q188 0 291.5 -114.5t103.5 -284.5q0 -100 -29 -183h-858zM233 578h758q8 37 8 86q0 135 -74.5 224t-219.5 89 q-168 0 -296.5 -114.5t-175.5 -284.5zM500 1219l272 249h82l137 -249h-90l-106 139l-197 -139h-98z" />
<glyph unicode="&#xeb;" horiz-adv-x="1193" d="M215 487q-4 -45 -4 -69q0 -158 96 -253t250 -95q186 0 356 139l60 -72q-195 -162 -416 -162q-201 0 -328 123t-127 316q0 252 178.5 453.5t426.5 201.5q188 0 291.5 -114.5t103.5 -284.5q0 -100 -29 -183h-858zM233 578h758q8 37 8 86q0 135 -74.5 224t-219.5 89 q-168 0 -296.5 -114.5t-175.5 -284.5zM850 1219l45 163h141l-45 -163h-141zM516 1219l45 163h141l-45 -163h-141z" />
<glyph unicode="&#xec;" horiz-adv-x="509" d="M66 0l280 1044h100l-280 -1044h-100zM369 1219l-162 211l127 61l106 -272h-71z" />
<glyph unicode="&#xed;" horiz-adv-x="509" d="M66 0l280 1044h100l-280 -1044h-100zM371 1219l254 272l127 -61l-277 -211h-104z" />
<glyph unicode="&#xee;" horiz-adv-x="509" d="M66 0l280 1044h100l-280 -1044h-100zM178 1219l273 249h81l138 -249h-90l-107 139l-197 -139h-98z" />
<glyph unicode="&#xef;" horiz-adv-x="509" d="M66 0l280 1044h100l-280 -1044h-100zM530 1219l45 163h142l-45 -163h-142zM197 1219l45 163h141l-45 -163h-141z" />
<glyph unicode="&#xf0;" horiz-adv-x="1261" d="M555 -23q-197 0 -328 126t-131 311q0 238 173 408.5t401 170.5q188 0 315 -108l-168 399l-315 -139l-45 82l323 143l-53 125h121l33 -82l227 100l45 -81l-238 -105l150 -377q96 -242 96 -389q0 -229 -174 -406.5t-432 -177.5zM565 72q199 0 343.5 143t144.5 342 q0 145 -103.5 245.5t-277.5 100.5q-190 0 -328.5 -144.5t-138.5 -338.5q0 -160 100 -254t260 -94z" />
<glyph unicode="&#xf1;" horiz-adv-x="1251" d="M51 0l279 1044h100l-51 -194q182 219 395 219q156 0 249 -91t93 -241q0 -57 -22 -147l-156 -590h-100l159 598q16 61 17 129q0 117 -72 184.5t-197 67.5q-137 0 -264 -110.5t-172 -278.5l-157 -590h-101zM569 1214l-78 31q51 102 100.5 149.5t112.5 47.5q41 0 69 -16.5 t69 -55.5q63 -61 98 -61q31 0 56.5 27.5t64.5 95.5l78 -31q-51 -102 -100.5 -149.5t-112.5 -47.5q-41 0 -69 16.5t-69 55.5q-63 61 -98 61q-31 0 -56.5 -27.5t-64.5 -95.5z" />
<glyph unicode="&#xf2;" horiz-adv-x="1296" d="M569 -25q-207 0 -336 130.5t-129 332.5q0 250 186.5 440.5t434.5 190.5q207 0 336 -130t129 -333q0 -254 -188.5 -442.5t-432.5 -188.5zM580 70q195 0 348 159.5t153 372.5q0 174 -100 273.5t-266 99.5q-199 0 -350.5 -162t-151.5 -371q0 -174 100.5 -273t266.5 -99z M774 1219l-162 211l127 61l107 -272h-72z" />
<glyph unicode="&#xf3;" horiz-adv-x="1296" d="M569 -25q-207 0 -336 130.5t-129 332.5q0 250 186.5 440.5t434.5 190.5q207 0 336 -130t129 -333q0 -254 -188.5 -442.5t-432.5 -188.5zM580 70q195 0 348 159.5t153 372.5q0 174 -100 273.5t-266 99.5q-199 0 -350.5 -162t-151.5 -371q0 -174 100.5 -273t266.5 -99z M659 1219l254 272l127 -61l-277 -211h-104z" />
<glyph unicode="&#xf4;" horiz-adv-x="1296" d="M569 -25q-207 0 -336 130.5t-129 332.5q0 250 186.5 440.5t434.5 190.5q207 0 336 -130t129 -333q0 -254 -188.5 -442.5t-432.5 -188.5zM580 70q195 0 348 159.5t153 372.5q0 174 -100 273.5t-266 99.5q-199 0 -350.5 -162t-151.5 -371q0 -174 100.5 -273t266.5 -99z M569 1219l273 249h82l137 -249h-90l-107 139l-196 -139h-99z" />
<glyph unicode="&#xf5;" horiz-adv-x="1296" d="M569 -25q-207 0 -336 130.5t-129 332.5q0 250 186.5 440.5t434.5 190.5q207 0 336 -130t129 -333q0 -254 -188.5 -442.5t-432.5 -188.5zM580 70q195 0 348 159.5t153 372.5q0 174 -100 273.5t-266 99.5q-199 0 -350.5 -162t-151.5 -371q0 -174 100.5 -273t266.5 -99z M577 1214l-78 31q51 102 100.5 149.5t112.5 47.5q41 0 69 -16.5t69 -55.5q63 -61 98 -61q31 0 56.5 27.5t64.5 95.5l78 -31q-51 -102 -100.5 -149.5t-112.5 -47.5q-41 0 -69 16.5t-69 55.5q-63 61 -98 61q-31 0 -56.5 -27.5t-64.5 -95.5z" />
<glyph unicode="&#xf6;" horiz-adv-x="1296" d="M569 -25q-207 0 -336 130.5t-129 332.5q0 250 186.5 440.5t434.5 190.5q207 0 336 -130t129 -333q0 -254 -188.5 -442.5t-432.5 -188.5zM580 70q195 0 348 159.5t153 372.5q0 174 -100 273.5t-266 99.5q-199 0 -350.5 -162t-151.5 -371q0 -174 100.5 -273t266.5 -99z M885 1219l45 163h141l-45 -163h-141zM551 1219l45 163h141l-45 -163h-141z" />
<glyph unicode="&#xf8;" horiz-adv-x="1296" d="M569 -25q-213 0 -346 144l-157 -129h-138l242 196q-66 109 -66 252q0 250 186.5 440.5t434.5 190.5q215 0 346 -141l162 131h137l-246 -201q66 -109 66 -252q0 -254 -188.5 -442.5t-432.5 -188.5zM252 254l743 610q-100 111 -280 111q-199 0 -350.5 -162t-151.5 -371 q0 -104 39 -188zM580 70q195 0 348 159.5t153 372.5q0 104 -39 189l-743 -611q99 -110 281 -110z" />
<glyph unicode="&#xf9;" horiz-adv-x="1247" d="M473 -25q-156 0 -249 91.5t-93 240.5q0 57 23 148l155 589h101l-160 -598q-16 -61 -17 -129q0 -117 72 -184t197 -67q137 0 264 110.5t172 278.5l158 589h100l-278 -1044h-101l51 195q-182 -220 -395 -220zM758 1219l-162 211l127 61l106 -272h-71z" />
<glyph unicode="&#xfa;" horiz-adv-x="1247" d="M473 -25q-156 0 -249 91.5t-93 240.5q0 57 23 148l155 589h101l-160 -598q-16 -61 -17 -129q0 -117 72 -184t197 -67q137 0 264 110.5t172 278.5l158 589h100l-278 -1044h-101l51 195q-182 -220 -395 -220zM676 1219l254 272l127 -61l-277 -211h-104z" />
<glyph unicode="&#xfb;" horiz-adv-x="1247" d="M473 -25q-156 0 -249 91.5t-93 240.5q0 57 23 148l155 589h101l-160 -598q-16 -61 -17 -129q0 -117 72 -184t197 -67q137 0 264 110.5t172 278.5l158 589h100l-278 -1044h-101l51 195q-182 -220 -395 -220zM539 1219l272 249h82l137 -249h-90l-106 139l-197 -139h-98z " />
<glyph unicode="&#xfc;" horiz-adv-x="1247" d="M473 -25q-156 0 -249 91.5t-93 240.5q0 57 23 148l155 589h101l-160 -598q-16 -61 -17 -129q0 -117 72 -184t197 -67q137 0 264 110.5t172 278.5l158 589h100l-278 -1044h-101l51 195q-182 -220 -395 -220zM883 1219l45 163h141l-45 -163h-141zM549 1219l45 163h141 l-45 -163h-141z" />
<glyph unicode="&#xfd;" horiz-adv-x="1163" d="M41 -334q-119 0 -221 72l55 82q74 -59 178 -60q82 0 161 56.5t173 189.5l-213 1038h107l182 -933l629 933h120l-743 -1081q-111 -160 -212 -228.5t-216 -68.5zM604 1219l254 272l127 -61l-276 -211h-105z" />
<glyph unicode="&#xfe;" horiz-adv-x="1339" d="M-37 -328l490 1823h100l-178 -655q193 229 434 229q182 0 301 -124t119 -316q0 -274 -176 -465t-414 -191q-162 0 -266.5 83t-149.5 210l-160 -594h-100zM635 68q207 0 346 163.5t139 384.5q0 160 -90 259.5t-233 99.5q-197 0 -360 -168t-163 -375q0 -154 101.5 -259 t259.5 -105z" />
<glyph unicode="&#xff;" horiz-adv-x="1163" d="M41 -334q-119 0 -221 72l55 82q74 -59 178 -60q82 0 161 56.5t173 189.5l-213 1038h107l182 -933l629 933h120l-743 -1081q-111 -160 -212 -228.5t-216 -68.5zM829 1219l45 163h141l-45 -163h-141zM495 1219l45 163h142l-45 -163h-142z" />
<glyph unicode="&#x152;" horiz-adv-x="2363" d="M903 0q-365 0 -557 193q-158 158 -158 409q0 332 224 555q131 131 320.5 204t408.5 73h1329l-27 -99h-880l-152 -563h789l-27 -98h-789l-153 -576h891l-27 -98h-1192zM909 98h215l332 1237h-330q-389 0 -634 -245q-193 -193 -193 -480q0 -217 133 -350q162 -162 477 -162 z" />
<glyph unicode="&#x153;" horiz-adv-x="2142" d="M1167 487q-4 -45 -4 -69q0 -158 96.5 -253t249.5 -95q186 0 357 139l59 -72q-195 -162 -409 -162q-166 0 -283 87.5t-150 230.5q-84 -139 -217 -228.5t-303 -89.5q-199 0 -329 131.5t-130 331.5q0 250 186.5 440.5t434.5 190.5q172 0 284.5 -94t145.5 -240 q180 334 504 334q188 0 291.5 -114.5t103.5 -284.5q0 -100 -29 -183h-858zM1186 578h758q8 37 8 86q0 135 -75 224t-220 89q-168 0 -296 -114.5t-175 -284.5zM580 70q193 0 347 157.5t154 364.5q0 180 -100 281.5t-266 101.5q-199 0 -350.5 -162t-151.5 -371 q0 -174 100.5 -273t266.5 -99z" />
<glyph unicode="&#x178;" horiz-adv-x="1368" d="M479 0l156 582l-375 852h117l330 -770l745 770h143l-862 -879l-147 -555h-107zM1036 1567l45 164h142l-45 -164h-142zM702 1567l46 164h141l-45 -164h-142z" />
<glyph unicode="&#x2c6;" d="M455 1219l272 249h82l137 -249h-90l-106 139l-197 -139h-98z" />
<glyph unicode="&#x2dc;" d="M477 1214l-78 31q51 102 100.5 149.5t112.5 47.5q41 0 69 -16.5t69 -55.5q63 -61 98 -61q31 0 56.5 27.5t64.5 95.5l78 -31q-51 -102 -100.5 -149.5t-112.5 -47.5q-41 0 -69 16.5t-69 55.5q-63 61 -98 61q-31 0 -56.5 -27.5t-64.5 -95.5z" />
<glyph unicode="&#x3bc;" horiz-adv-x="1732" d="M1417 -49l-147 174q-211 -152 -455 -152q-268 0 -443 177.5t-175 439.5q0 221 109.5 421.5t301 323.5t414.5 123q268 0 443 -177t175 -439q0 -184 -79.5 -358.5t-219.5 -299.5l154 -168zM815 70q211 0 389 129l-239 266l77 67l234 -274q119 111 186.5 265.5t67.5 318.5 q0 223 -141.5 371.5t-366.5 148.5q-197 0 -362.5 -110.5t-259 -288t-93.5 -373.5q0 -223 141.5 -371.5t366.5 -148.5z" />
<glyph unicode="&#x2000;" horiz-adv-x="919" />
<glyph unicode="&#x2001;" horiz-adv-x="1839" />
<glyph unicode="&#x2002;" horiz-adv-x="919" />
<glyph unicode="&#x2003;" horiz-adv-x="1839" />
<glyph unicode="&#x2004;" horiz-adv-x="612" />
<glyph unicode="&#x2005;" horiz-adv-x="458" />
<glyph unicode="&#x2006;" horiz-adv-x="305" />
<glyph unicode="&#x2007;" horiz-adv-x="305" />
<glyph unicode="&#x2008;" horiz-adv-x="229" />
<glyph unicode="&#x2009;" horiz-adv-x="366" />
<glyph unicode="&#x200a;" horiz-adv-x="100" />
<glyph unicode="&#x2010;" horiz-adv-x="837" d="M152 551l30 115h549l-31 -115h-548z" />
<glyph unicode="&#x2011;" horiz-adv-x="837" d="M152 551l30 115h549l-31 -115h-548z" />
<glyph unicode="&#x2012;" horiz-adv-x="837" d="M152 551l30 115h549l-31 -115h-548z" />
<glyph unicode="&#x2013;" horiz-adv-x="1081" d="M152 555l28 107h795l-29 -107h-794z" />
<glyph unicode="&#x2014;" horiz-adv-x="1839" d="M152 555l28 107h1553l-29 -107h-1552z" />
<glyph unicode="&#x2018;" horiz-adv-x="473" d="M301 1051l41 151q29 106 81 158.5t155 81.5l14 -49q-141 -49 -164 -168h55l-47 -174h-135z" />
<glyph unicode="&#x2019;" horiz-adv-x="473" d="M283 1042l-15 50q141 49 164 168h-55l47 174h135l-41 -152q-31 -106 -82 -158.5t-153 -81.5z" />
<glyph unicode="&#x201a;" horiz-adv-x="473" d="M-66 -217l-14 49q141 49 164 168h-55l47 174h135l-41 -151q-31 -106 -82.5 -158.5t-153.5 -81.5z" />
<glyph unicode="&#x201c;" horiz-adv-x="841" d="M668 1051l41 151q29 106 81 158.5t154 81.5l14 -49q-141 -49 -163 -168h55l-47 -174h-135zM299 1051l41 151q29 106 81 158.5t154 81.5l15 -49q-141 -49 -164 -168h55l-47 -174h-135z" />
<glyph unicode="&#x201d;" horiz-adv-x="841" d="M629 1042l-15 50q141 49 164 168h-55l47 174h135l-41 -152q-31 -106 -82 -158.5t-153 -81.5zM260 1042l-14 50q141 49 164 168h-56l47 174h136l-41 -152q-31 -106 -82.5 -158.5t-153.5 -81.5z" />
<glyph unicode="&#x201e;" horiz-adv-x="843" d="M305 -217l-14 49q141 49 164 168h-56l47 174h136l-41 -151q-31 -106 -82.5 -158.5t-153.5 -81.5zM-66 -217l-14 49q141 49 164 168h-55l47 174h135l-41 -151q-31 -106 -82.5 -158.5t-153.5 -81.5z" />
<glyph unicode="&#x2022;" horiz-adv-x="962" d="M475 455q-94 0 -154.5 60t-60.5 163q0 125 87 217t206 92q94 0 154.5 -60.5t60.5 -162.5q0 -125 -87 -217t-206 -92z" />
<glyph unicode="&#x2026;" horiz-adv-x="1398" d="M954 0l47 174h136l-47 -174h-136zM492 0l47 174h135l-47 -174h-135zM29 0l47 174h135l-47 -174h-135z" />
<glyph unicode="&#x202f;" horiz-adv-x="366" />
<glyph unicode="&#x2039;" horiz-adv-x="636" d="M305 86l-213 428l4 16l443 428l73 -57l-393 -393l170 -377z" />
<glyph unicode="&#x203a;" horiz-adv-x="636" d="M96 84l-73 57l393 394l-170 376l84 45l213 -428l-4 -16z" />
<glyph unicode="&#x2044;" horiz-adv-x="1126" d="M-170 -201l1427 1753h121l-1427 -1753h-121z" />
<glyph unicode="&#x205f;" horiz-adv-x="458" />
<glyph unicode="&#x2122;" horiz-adv-x="1413" d="M737 803l181 631h65l147 -375l345 375h84l-181 -631h-71l145 504l-342 -365h-10l-146 365l-145 -504h-72zM315 803l160 561h-207l21 70h485l-20 -70h-207l-160 -561h-72z" />
<glyph unicode="&#xe000;" horiz-adv-x="1045" d="M0 1045h1045v-1045h-1045v1045z" />
<glyph unicode="&#xfb01;" horiz-adv-x="1253" d="M1149 1317l37 137h125l-37 -137h-125zM113 0l256 952h-152l25 92h151l41 152q80 299 334 299q117 0 209 -49l-25 -90q-104 49 -188 49q-176 0 -236 -231l-34 -130h376l-24 -92h-377l-256 -952h-100zM807 0l280 1044h101l-281 -1044h-100z" />
<glyph unicode="&#xfb02;" horiz-adv-x="1253" d="M807 0l401 1495h101l-402 -1495h-100zM113 0l256 952h-152l25 92h151l41 152q80 299 334 299q117 0 209 -49l-25 -90q-104 49 -188 49q-176 0 -236 -231l-34 -130h376l-24 -92h-377l-256 -952h-100z" />
<glyph unicode="&#xfb03;" horiz-adv-x="1994" d="M1891 1317l36 137h125l-37 -137h-124zM1549 0l280 1044h100l-280 -1044h-100zM854 0l256 952h-152l25 92h151l41 152q80 299 334 299q117 0 209 -49l-25 -90q-104 49 -188 49q-176 0 -236 -231l-34 -130h376l-24 -92h-377l-256 -952h-100zM113 0l256 952h-152l25 92h151 l41 152q80 299 334 299q117 0 209 -49l-25 -90q-104 49 -188 49q-176 0 -236 -231l-34 -130h376l-24 -92h-377l-256 -952h-100z" />
<glyph unicode="&#xfb04;" horiz-adv-x="1994" d="M1549 0l401 1495h100l-401 -1495h-100zM854 0l256 952h-152l25 92h151l41 152q80 299 334 299q117 0 209 -49l-25 -90q-104 49 -188 49q-176 0 -236 -231l-34 -130h376l-24 -92h-377l-256 -952h-100zM113 0l256 952h-152l25 92h151l41 152q80 299 334 299q117 0 209 -49 l-25 -90q-104 49 -188 49q-176 0 -236 -231l-34 -130h376l-24 -92h-377l-256 -952h-100z" />
</font>
</defs>
</svg>
