<?xml version="1.0" standalone="no"?>
<!DOCTYPE svg PUBLIC "-//W3C//DTD SVG 1.1//EN" "http://www.w3.org/Graphics/SVG/1.1/DTD/svg11.dtd" >
<svg xmlns="http://www.w3.org/2000/svg">
<metadata>
This is a custom SVG webfont generated by Font Squirrel.
Copyright   : HTF Gothama c 2002 The Hoefler Type Foundry Inc Info wwwtypographycom
</metadata>
<defs>
<font id="webfontwVK01VhW" horiz-adv-x="1712" >
<font-face units-per-em="2048" ascent="1638" descent="-410" />
<missing-glyph horiz-adv-x="614" />
<glyph unicode=" "  horiz-adv-x="614" />
<glyph unicode="&#x09;" horiz-adv-x="614" />
<glyph unicode="&#xa0;" horiz-adv-x="614" />
<glyph unicode="!" horiz-adv-x="620" d="M217 453l166 909l20 72h291l-20 -72l-320 -909h-137zM29 0l73 281h275l-76 -281h-272z" />
<glyph unicode="&#x22;" horiz-adv-x="1009" d="M662 821l178 613h282l-4 -11l-325 -602h-131zM205 821l176 613h283l-2 -11l-326 -602h-131z" />
<glyph unicode="#" horiz-adv-x="1406" d="M113 0l114 330h-190l57 213h209l123 356h-215l57 213h232l112 322h219l-112 -322h336l112 322h217l-110 -322h190l-55 -213h-211l-123 -356h215l-55 -213h-236l-114 -330h-217l114 330h-336l-114 -330h-219zM522 543h334l125 356h-336z" />
<glyph unicode="$" horiz-adv-x="1292" d="M348 -201l64 217q-270 53 -420 244l184 156q127 -145 307 -185l115 400q-176 66 -261 147.5t-85 225.5q0 184 154.5 307t381.5 123q27 0 39 -2l37 120h178l-41 -143q190 -47 326 -184l-170 -168q-106 100 -227 135l-109 -381q170 -63 254 -148t84 -227 q0 -193 -159.5 -314.5t-401.5 -121.5h-12l-60 -201h-178zM672 868l98 346q-119 2 -189.5 -51t-70.5 -133q0 -53 36 -89t126 -73zM643 217q119 4 187.5 56.5t68.5 138.5q0 53 -34 90t-117 73z" />
<glyph unicode="%" horiz-adv-x="1765" d="M483 709q-137 0 -221 86t-84 223q0 168 114 300t281 132q135 0 220.5 -87t85.5 -222q0 -168 -114 -300t-282 -132zM127 0l1382 1434h224l-1385 -1434h-221zM1286 -16q-137 0 -221 87t-84 222q0 170 113.5 301t281.5 131q135 0 220 -86t85 -221q0 -170 -113.5 -302 t-281.5 -132zM494 860q90 0 151.5 85t61.5 188q0 78 -38 121.5t-108 43.5q-90 0 -151.5 -86t-61.5 -186q0 -78 39 -122t107 -44zM1296 135q90 0 152.5 86t62.5 187q0 78 -38.5 122.5t-106.5 44.5q-90 0 -152.5 -86t-62.5 -188q0 -76 38.5 -121t106.5 -45z" />
<glyph unicode="&#x26;" horiz-adv-x="1421" d="M1090 -29l-134 185q-221 -176 -462 -176q-195 0 -319 101t-124 275q0 150 108.5 272t327.5 187q-82 137 -81 256q0 160 121.5 273.5t310.5 113.5q168 0 272 -92t104 -238q0 -266 -409 -395l201 -276q92 100 192 264l158 -107q-117 -182 -234 -311l154 -213zM698 877 q162 53 225.5 109t63.5 128q0 59 -43 102.5t-119 43.5q-84 0 -140 -56.5t-56 -134.5q-1 -83 69 -192zM520 188q160 0 322 127l-252 351q-150 -47 -223.5 -125t-73.5 -168q0 -84 60.5 -134.5t166.5 -50.5z" />
<glyph unicode="'" horiz-adv-x="550" d="M205 821l176 613h283l-2 -11l-326 -602h-131z" />
<glyph unicode="(" horiz-adv-x="901" d="M514 -291q-371 305 -371 725q0 330 210 601.5t601 428.5l90 -184q-319 -143 -483 -366.5t-164 -471.5q0 -295 269 -577z" />
<glyph unicode=")" horiz-adv-x="901" d="M-27 -285l-90 185q319 143 483 366t164 471q0 297 -270 576l154 157q371 -305 370 -725q0 -330 -210 -602t-601 -428z" />
<glyph unicode="*" horiz-adv-x="880" d="M565 776l-139 35l92 236l-237 -93l-39 142l254 37l-199 159l102 103l158 -199l39 248l137 -35l-92 -235l238 92l39 -140l-254 -39l200 -157l-104 -105l-158 199z" />
<glyph unicode="+" horiz-adv-x="1323" d="M459 217l104 391h-393l61 226h394l102 391h236l-105 -391h393l-61 -226h-393l-105 -391h-233z" />
<glyph unicode="," horiz-adv-x="600" d="M-92 -297l-19 104q203 29 236 193h-107l76 281h273l-64 -238q-45 -172 -139 -250t-256 -90z" />
<glyph unicode="-" horiz-adv-x="841" d="M109 506l65 244h606l-65 -244h-606z" />
<glyph unicode="." horiz-adv-x="600" d="M18 0l76 281h273l-76 -281h-273z" />
<glyph unicode="/" horiz-adv-x="1067" d="M-268 -262l1417 1896h237l-1417 -1896h-237z" />
<glyph unicode="0" horiz-adv-x="1482" d="M676 -25q-246 0 -391.5 159t-145.5 419q0 164 54.5 324.5t149.5 289.5t241.5 210t314.5 81q244 0 389.5 -158.5t145.5 -418.5q0 -164 -54.5 -325t-148.5 -290t-240.5 -210t-314.5 -81zM694 203q133 0 247 105.5t173.5 260t59.5 312.5q0 162 -78 256t-217 94 q-133 0 -247 -105.5t-173.5 -260t-59.5 -312.5q0 -162 78 -256t217 -94z" />
<glyph unicode="1" horiz-adv-x="827" d="M193 0l315 1174l-272 -70l-5 217l424 123h174l-387 -1444h-249z" />
<glyph unicode="2" horiz-adv-x="1241" d="M-55 0l55 205l764 549q115 82 168 151.5t53 145.5q0 82 -58.5 129t-158.5 47q-176 0 -362 -187l-158 162q231 252 530 252q209 0 338 -105.5t129 -273.5q0 -129 -73.5 -235.5t-251.5 -233.5l-533 -385h670l-60 -221h-1052z" />
<glyph unicode="3" horiz-adv-x="1239" d="M500 -25q-367 0 -518 275l190 135q121 -182 340 -182q137 0 229.5 71.5t92.5 176.5q0 98 -84 149t-234 51h-78l-16 154l487 409h-610l59 220h955l-51 -189l-512 -418q156 -27 248 -114.5t92 -239.5q0 -213 -171 -355.5t-419 -142.5z" />
<glyph unicode="4" horiz-adv-x="1341" d="M678 0l86 322h-696l-27 186l1020 936h244l-246 -916h205l-56 -206h-204l-86 -322h-240zM362 528h457l154 572z" />
<glyph unicode="5" horiz-adv-x="1243" d="M514 -23q-160 0 -301 73t-215 183l180 146q147 -176 357 -176q147 0 244.5 82t97.5 196q0 98 -77 159.5t-214 61.5q-111 0 -234 -59l-131 107l223 684h842l-63 -224h-613l-108 -329q90 33 184 32q201 0 326 -111.5t125 -295.5q0 -217 -174.5 -373t-448.5 -156z" />
<glyph unicode="6" horiz-adv-x="1314" d="M643 -25q-231 0 -362 131q-145 145 -146 402q0 215 75 410.5t208 328.5q215 211 502 211q264 0 434 -174l-150 -178q-131 125 -305 125q-178 0 -305 -129q-141 -141 -178 -340q55 66 153.5 112t210.5 46q193 0 318 -112t125 -294q0 -215 -169 -377t-411 -162zM645 190 q139 0 230.5 88.5t91.5 206.5q0 98 -69 163t-187 65q-145 0 -237.5 -85t-92.5 -202q0 -98 65 -164q76 -72 199 -72z" />
<glyph unicode="7" horiz-adv-x="1228" d="M61 0l914 1212h-709l60 222h1007l-53 -191l-922 -1243h-297z" />
<glyph unicode="8" horiz-adv-x="1343" d="M610 -20q-229 0 -384.5 111.5t-155.5 283.5q0 160 106.5 260t282.5 137q-86 39 -137.5 115t-51.5 170q0 158 145.5 277.5t385.5 119.5q219 0 358 -106.5t139 -272.5q0 -137 -90 -233.5t-239 -128.5q102 -39 165.5 -120t63.5 -192q0 -174 -164 -297.5t-424 -123.5z M772 829q127 0 207 63.5t80 154.5q2 86 -71 142t-197 56q-121 0 -201 -61.5t-82 -153.5q-2 -86 71.5 -143.5t192.5 -57.5zM625 186q141 0 232 63.5t93 164.5q0 90 -85 151.5t-222 61.5q-143 0 -233.5 -66.5t-90.5 -163.5q-2 -92 83.5 -151.5t222.5 -59.5z" />
<glyph unicode="9" horiz-adv-x="1314" d="M498 -25q-264 0 -459 189l151 178q156 -141 320 -141q176 0 307 133q131 129 174 323q-57 -66 -153.5 -112.5t-210.5 -46.5q-195 0 -319 112.5t-124 298.5q2 227 170 388t412 161q104 0 202.5 -34.5t159.5 -96.5q145 -141 146 -422q0 -207 -76 -396.5t-211 -324.5 q-208 -209 -489 -209zM702 707q141 0 233.5 88t92.5 209q0 100 -65 165q-74 74 -199 74q-141 0 -232.5 -89t-91.5 -216q0 -102 70.5 -166.5t191.5 -64.5z" />
<glyph unicode=":" horiz-adv-x="606" d="M238 801l75 280h273l-76 -280h-272zM23 0l75 281h273l-76 -281h-272z" />
<glyph unicode=";" horiz-adv-x="606" d="M238 801l75 280h273l-76 -280h-272zM-90 -297l-19 104q207 29 236 193h-104l75 281h273l-64 -238q-47 -172 -141 -250t-256 -90z" />
<glyph unicode="&#x3c;" horiz-adv-x="1310" d="M1010 158l-858 452l59 221l1100 453l-68 -248l-819 -325l645 -328z" />
<glyph unicode="=" horiz-adv-x="1310" d="M264 862l62 230h958l-61 -230h-959zM127 350l61 230h959l-62 -230h-958z" />
<glyph unicode="&#x3e;" horiz-adv-x="1310" d="M78 158l67 248l820 325l-646 328l60 225l858 -453l-59 -221z" />
<glyph unicode="?" horiz-adv-x="1107" d="M373 453l47 331l12 11q209 16 324.5 82.5t115.5 177.5q0 80 -55 124t-155 44q-176 0 -326 -140l-135 166q199 203 493 203q201 0 322 -106.5t121 -262.5q0 -184 -139.5 -299.5t-391.5 -152.5l-67 -178h-166zM203 0l76 281h272l-76 -281h-272z" />
<glyph unicode="@" horiz-adv-x="2007" d="M975 -322q-381 0 -618.5 222.5t-237.5 574.5q0 195 78.5 377t212 315t319.5 214t391 81q373 0 596 -205.5t223 -504.5q0 -293 -139 -454t-325 -161q-104 0 -176 46t-99 126q-156 -174 -344 -174q-139 0 -233.5 92t-94.5 252q0 233 157 396t353.5 163t282.5 -168l45 150 l188 -51l-159 -506q-33 -109 3 -172.5t124 -63.5q123 0 229.5 142.5t106.5 382.5q0 268 -202 451t-536 183q-252 0 -465 -125.5t-333.5 -335.5t-120.5 -450q0 -319 215 -520t559 -201q213 0 420 92l32 -67q-214 -101 -452 -101zM934 309q123 0 224.5 107.5t101.5 247.5 q0 90 -56.5 144t-148.5 54q-121 0 -215.5 -105.5t-94.5 -250.5q0 -92 51.5 -144.5t137.5 -52.5z" />
<glyph unicode="A" horiz-adv-x="1562" d="M-102 0l1017 1444h242l244 -1444h-258l-56 346h-677l-240 -346h-272zM563 569h494l-92 580z" />
<glyph unicode="B" horiz-adv-x="1468" d="M39 0l385 1434h549q227 0 348 -95.5t121 -248.5q0 -143 -90 -237.5t-238 -127.5q221 -86 221 -293q0 -195 -161.5 -313.5t-448.5 -118.5h-686zM508 829h356q152 0 238 57.5t86 162.5q0 162 -238 161h-340zM346 223h414q152 0 238.5 59.5t86.5 163.5q0 80 -67.5 125 t-183.5 45h-383z" />
<glyph unicode="C" horiz-adv-x="1495" d="M801 -25q-283 0 -465 166t-182 445q0 227 115.5 427.5t316 322.5t434.5 122q383 0 559 -307l-209 -141q-70 106 -158 161.5t-221 55.5q-229 0 -402 -189.5t-173 -441.5q0 -176 108.5 -282.5t280.5 -106.5q113 0 200 41t181 123l166 -168q-234 -228 -551 -228z" />
<glyph unicode="D" horiz-adv-x="1587" d="M39 0l385 1434h389q373 0 559 -187q158 -156 158 -418q0 -330 -232 -561q-268 -268 -745 -268h-514zM352 229h232q330 0 524 195q160 160 160 395q0 164 -101 264q-121 121 -372 121h-179z" />
<glyph unicode="E" horiz-adv-x="1351" d="M39 0l385 1434h1053l-62 -226h-801l-100 -374h711l-62 -224h-710l-103 -385h813l-61 -225h-1063z" />
<glyph unicode="F" horiz-adv-x="1353" d="M39 0l385 1434h1067l-61 -230h-816l-104 -391h723l-62 -229h-722l-156 -584h-254z" />
<glyph unicode="G" horiz-adv-x="1601" d="M809 -25q-270 0 -463.5 163t-193.5 454q0 221 113.5 419.5t320.5 322.5t454 124q383 0 568 -254l-189 -160q-152 182 -397 183q-254 0 -430 -188.5t-176 -438.5q0 -184 114.5 -289.5t294.5 -105.5q164 0 303 74l89 303h-367l59 219h611l-195 -686q-235 -140 -516 -140z " />
<glyph unicode="H" horiz-adv-x="1548" d="M39 0l385 1434h254l-160 -596h674l160 596h252l-385 -1434h-252l161 604h-673l-162 -604h-254z" />
<glyph unicode="I" horiz-adv-x="649" d="M53 0l385 1434h254l-385 -1434h-254z" />
<glyph unicode="J" horiz-adv-x="1155" d="M389 -20q-147 0 -264 70.5t-184 195.5l184 145q106 -178 274 -178q125 0 213 88q78 76 136 299l223 834h260l-240 -891q-43 -160 -87 -252t-116 -164q-149 -147 -399 -147z" />
<glyph unicode="K" horiz-adv-x="1480" d="M39 0l385 1434h254l-195 -725l840 725h346l-729 -613l367 -821h-279l-289 672l-346 -291l-100 -381h-254z" />
<glyph unicode="L" horiz-adv-x="1265" d="M39 0l385 1434h254l-324 -1205h754l-64 -229h-1005z" />
<glyph unicode="M" horiz-adv-x="1777" d="M39 0l385 1434h256l250 -678l614 678h289l-385 -1434h-256l276 1028l-630 -676h-9l-264 672l-274 -1024h-252z" />
<glyph unicode="N" horiz-adv-x="1609" d="M39 0l385 1434h233l486 -1014l274 1014h248l-385 -1434h-211l-502 1042l-278 -1042h-250z" />
<glyph unicode="O" d="M799 -25q-285 0 -464 179.5t-179 449.5q0 217 107.5 412.5t305 318.5t437.5 123q285 0 465 -179t180 -450q0 -217 -107.5 -412.5t-306 -318.5t-438.5 -123zM825 207q160 0 292 91t202 230.5t70 286.5q0 180 -110 296t-298 116q-160 0 -292 -91.5t-201.5 -230.5 t-69.5 -287q0 -182 109.5 -296.5t297.5 -114.5z" />
<glyph unicode="P" horiz-adv-x="1380" d="M39 0l385 1434h453q295 0 434 -142q106 -106 106 -282q0 -254 -194.5 -399.5t-505.5 -145.5h-299l-125 -465h-254zM477 688h252q199 0 312.5 80t113.5 221q0 86 -55 141q-74 74 -232 74h-254z" />
<glyph unicode="Q" d="M1311 -78l-111 158q-186 -104 -401 -105q-285 0 -464 179.5t-179 449.5q0 217 107.5 412.5t305 318.5t437.5 123q285 0 465 -179t180 -450q0 -170 -69 -329.5t-191 -280.5l125 -158zM825 207q129 0 244 65l-203 254l207 142l172 -246q143 176 144 393q0 180 -110 296 t-298 116q-160 0 -292 -91.5t-201.5 -230.5t-69.5 -287q0 -182 109.5 -296.5t297.5 -114.5z" />
<glyph unicode="R" horiz-adv-x="1480" d="M39 0l385 1434h520q356 0 461 -209q51 -90 51 -191q0 -49 -12 -100q-23 -158 -137.5 -263.5t-313.5 -146.5l267 -524h-289l-246 500h-299l-133 -500h-254zM485 723h326q156 0 258 55.5t121 155.5q15 39 15 75q0 39 -17 74q-43 121 -258 121h-314z" />
<glyph unicode="S" horiz-adv-x="1304" d="M606 -20q-406 0 -608 268l190 158q178 -203 433 -203q121 0 198.5 55t77.5 143q0 66 -56.5 112t-207.5 105q-184 74 -276.5 160t-92.5 226q0 199 158 324.5t393 125.5q332 0 526 -215l-176 -172q-168 164 -368 164q-121 0 -194 -56.5t-73 -132.5q0 -68 58.5 -111.5 t220.5 -107.5q178 -70 267 -156.5t89 -228.5q0 -205 -163 -331.5t-396 -126.5z" />
<glyph unicode="T" horiz-adv-x="1265" d="M356 0l324 1200h-457l64 234h1163l-64 -234h-454l-324 -1200h-252z" />
<glyph unicode="U" horiz-adv-x="1560" d="M707 -23q-250 0 -390.5 127t-140.5 347q0 115 33 227l201 756h252l-211 -791q-20 -78 -21 -158q0 -125 78 -200.5t223 -75.5q160 0 268.5 108.5t157.5 300.5l219 816h252l-229 -854q-74 -274 -223 -424q-178 -179 -469 -179z" />
<glyph unicode="V" horiz-adv-x="1476" d="M469 -10l-203 1444h271l129 -1096l718 1096h285l-977 -1444h-223z" />
<glyph unicode="W" horiz-adv-x="2248" d="M391 -10l-112 1444h262l59 -1063l633 1067h213l70 -1067l626 1063h287l-887 -1444h-231l-74 1018l-619 -1018h-227z" />
<glyph unicode="X" horiz-adv-x="1429" d="M-88 0l711 743l-330 691h282l230 -512l471 512h323l-688 -721l340 -713h-282l-242 535l-491 -535h-324z" />
<glyph unicode="Y" horiz-adv-x="1341" d="M387 0l152 569l-320 865h279l217 -648l567 648h311l-809 -891l-145 -543h-252z" />
<glyph unicode="Z" horiz-adv-x="1394" d="M-39 0l49 186l1096 1024h-793l62 224h1141l-52 -187l-1095 -1024h827l-59 -223h-1176z" />
<glyph unicode="[" horiz-adv-x="929" d="M-4 -266l457 1700h630l-53 -195h-393l-352 -1311h393l-51 -194h-631z" />
<glyph unicode="\" horiz-adv-x="1067" d="M694 -262l-434 1896h207l434 -1896h-207z" />
<glyph unicode="]" horiz-adv-x="929" d="M-131 -266l53 194h393l353 1311h-394l52 195h630l-456 -1700h-631z" />
<glyph unicode="^" horiz-adv-x="1024" d="M201 1010l424 426h174l196 -426h-172l-137 270l-280 -270h-205z" />
<glyph unicode="_" horiz-adv-x="1228" d="M-236 -328l54 193h1237l-51 -193h-1240z" />
<glyph unicode="`" horiz-adv-x="1024" d="M723 1219l-186 235l231 100l125 -335h-170z" />
<glyph unicode="a" horiz-adv-x="1193" d="M356 -23q-141 0 -235 82t-94 215q0 182 133 286t348 104q168 0 323 -54l7 23q12 49 12 86q0 160 -236 160q-150 0 -297 -60l-41 205q180 74 388 74q211 0 322.5 -88t111.5 -248q0 -70 -23 -154l-162 -608h-243l37 141q-154 -164 -351 -164zM453 160q113 0 207 75.5 t120 178.5l13 47q-135 41 -246 41q-123 0 -194.5 -54.5t-71.5 -140.5q0 -70 46 -108.5t126 -38.5z" />
<glyph unicode="b" horiz-adv-x="1368" d="M674 -23q-248 0 -365 216l-51 -193h-248l400 1495h247l-149 -557q166 166 346 166q184 0 303 -126t119 -337q0 -281 -181 -472.5t-421 -191.5zM645 188q152 0 262.5 128t110.5 307q0 123 -69.5 195.5t-186.5 72.5q-152 0 -270.5 -129t-118.5 -299q0 -119 75.5 -197 t196.5 -78z" />
<glyph unicode="c" horiz-adv-x="1148" d="M586 -25q-213 0 -354.5 132.5t-141.5 349.5q0 264 190.5 455.5t448.5 191.5q299 0 438 -246l-192 -131q-49 78 -109.5 120t-156.5 42q-147 0 -259 -129t-112 -301q0 -123 73.5 -197t182.5 -74q139 0 276 121l131 -162q-188 -172 -415 -172z" />
<glyph unicode="d" horiz-adv-x="1368" d="M512 -23q-184 0 -303 126t-119 337q0 281 181.5 472.5t420.5 191.5q248 0 365 -215l162 606h247l-399 -1495h-248l39 143q-166 -166 -346 -166zM606 188q150 0 269.5 130.5t119.5 299.5q0 119 -76.5 196t-197.5 77q-152 0 -262.5 -127t-110.5 -307q0 -123 70.5 -196 t187.5 -73z" />
<glyph unicode="e" horiz-adv-x="1228" d="M326 455q0 -127 72.5 -202t207.5 -75q139 0 277 105l118 -158q-182 -150 -419 -150q-225 0 -358.5 128t-133.5 346q0 162 79 311t228.5 246.5t329.5 97.5q201 0 316.5 -119t115.5 -301q0 -109 -47 -229h-786zM352 618h561q10 31 11 76q0 90 -54.5 148.5t-160.5 58.5 q-123 0 -219.5 -79t-137.5 -204z" />
<glyph unicode="f" horiz-adv-x="811" d="M68 0l233 868h-137l57 213h137l21 88q90 336 412 336q125 0 213 -37l-56 -206q-78 33 -151 32q-137 0 -179 -151l-16 -62h299l-57 -213h-295l-234 -868h-247z" />
<glyph unicode="g" horiz-adv-x="1363" d="M504 -332q-334 0 -555 166l137 172q182 -137 403 -137q168 0 265 96q72 72 112 219l19 66q-176 -164 -371 -164q-170 0 -293 105.5t-123 285.5q0 262 182.5 444.5t415.5 182.5q139 0 221 -59.5t136 -157.5l51 194h248l-238 -893q-39 -145 -80 -226t-104 -142 q-152 -152 -426 -152zM606 289q150 0 263.5 109.5t113.5 252.5q0 104 -71.5 173t-190.5 69q-147 0 -256 -109.5t-109 -263.5q0 -111 70.5 -171t179.5 -60z" />
<glyph unicode="h" horiz-adv-x="1265" d="M10 0l400 1495h247l-147 -553q162 162 328 162q152 0 240.5 -87t88.5 -237q0 -63 -32 -190l-156 -590h-248l160 600q16 55 16 109q0 82 -49 126t-139 44q-102 0 -183 -75t-114 -196l-164 -608h-248z" />
<glyph unicode="i" horiz-adv-x="585" d="M350 1247l64 236h268l-66 -236h-266zM25 0l290 1081h248l-291 -1081h-247z" />
<glyph unicode="j" horiz-adv-x="583" d="M350 1247l64 236h266l-64 -236h-266zM-98 -334q-84 0 -158 19l53 196q53 -12 82 -12q113 0 150 147l286 1065h248l-295 -1095q-85 -320 -366 -320z" />
<glyph unicode="k" horiz-adv-x="1191" d="M10 0l402 1495h247l-233 -874l553 460h328l-545 -440l260 -641h-279l-192 481l-209 -168l-84 -313h-248z" />
<glyph unicode="l" horiz-adv-x="585" d="M25 0l401 1495h248l-402 -1495h-247z" />
<glyph unicode="m" horiz-adv-x="1945" d="M10 0l289 1081h248l-37 -139q158 162 317 162q115 0 191 -59.5t104 -157.5q158 217 406 217q145 0 233 -88t88 -236q0 -55 -34 -190l-158 -590h-248l162 600q14 61 14 109q0 82 -46 126t-130 44q-100 0 -178 -75t-109 -196l-164 -608h-247l161 600q14 61 15 109 q0 82 -46 126t-130 44q-100 0 -178 -74t-111 -197l-164 -608h-248z" />
<glyph unicode="n" horiz-adv-x="1263" d="M10 0l289 1081h248l-37 -139q162 162 328 162q152 0 240.5 -87t88.5 -237q0 -63 -32 -190l-156 -590h-248l160 600q16 55 16 109q0 82 -49 126t-139 44q-102 0 -183 -75t-114 -196l-164 -608h-248z" />
<glyph unicode="o" horiz-adv-x="1323" d="M600 -25q-229 0 -368.5 138.5t-139.5 355.5q0 250 186.5 442.5t444.5 192.5q229 0 368.5 -139.5t139.5 -356.5q0 -250 -187.5 -441.5t-443.5 -191.5zM614 190q152 0 261.5 129.5t109.5 282.5q0 135 -75.5 211t-200.5 76q-154 0 -262.5 -130t-108.5 -282q0 -135 75.5 -211 t200.5 -76z" />
<glyph unicode="p" horiz-adv-x="1368" d="M-78 -328l377 1409h248l-39 -143q166 166 346 166q184 0 303 -126t119 -337q0 -281 -181.5 -472.5t-420.5 -191.5q-248 0 -365 216l-139 -521h-248zM645 188q152 0 262.5 128t110.5 307q0 123 -69.5 195.5t-186.5 72.5q-152 0 -270.5 -129t-118.5 -299q0 -119 75.5 -197 t196.5 -78z" />
<glyph unicode="q" horiz-adv-x="1368" d="M711 -410l147 555q-162 -168 -346 -168t-303 126t-119 337q0 281 181.5 472.5t420.5 191.5q250 0 365 -213l51 190h248l-398 -1491h-247zM606 188q150 0 269.5 130.5t119.5 299.5q0 121 -76.5 197t-197.5 76q-152 0 -262.5 -127t-110.5 -307q0 -123 70.5 -196t187.5 -73z " />
<glyph unicode="r" horiz-adv-x="843" d="M10 0l289 1081h248l-64 -243q184 265 425 265q14 0 28 -1l-70 -262h-14q-170 0 -299 -111t-186 -328l-109 -401h-248z" />
<glyph unicode="s" horiz-adv-x="1019" d="M444 -25q-129 0 -258 50.5t-219 144.5l148 152q152 -152 348 -152q76 0 125 35t49 94q0 39 -37 69.5t-121 65.5q-160 66 -235.5 130.5t-75.5 178.5q0 156 115.5 257.5t308.5 101.5q119 0 230.5 -44t185.5 -108l-138 -159q-150 119 -297 118q-78 0 -121.5 -34.5 t-43.5 -88.5q0 -41 38.5 -71.5t133.5 -69.5q145 -61 221 -127.5t76 -175.5q0 -164 -122.5 -265.5t-310.5 -101.5z" />
<glyph unicode="t" horiz-adv-x="837" d="M401 -18q-129 0 -199.5 57t-70.5 156q0 63 19 124l145 549h-137l57 213h137l80 297h248l-80 -297h289l-58 -213h-288l-140 -522q-8 -41 -8 -61q0 -84 109 -84q76 0 158 35l-58 -216q-86 -38 -203 -38z" />
<glyph unicode="u" horiz-adv-x="1265" d="M428 -23q-152 0 -241 87.5t-89 236.5q0 63 33 191l158 589h248l-162 -600q-14 -57 -15 -108q0 -82 48.5 -126t138.5 -44q102 0 183 74.5t114 195.5l164 608h247l-288 -1081h-248l37 139q-162 -162 -328 -162z" />
<glyph unicode="v" horiz-adv-x="1189" d="M326 -8l-150 1089h256l78 -790l498 790h270l-729 -1089h-223z" />
<glyph unicode="w" horiz-adv-x="1746" d="M248 -8l-60 1089h252l21 -739l438 743h211l41 -743l422 739h250l-647 -1089h-224l-43 739l-442 -739h-219z" />
<glyph unicode="x" horiz-adv-x="1171" d="M-90 0l551 563l-250 518h266l154 -346l319 346h299l-524 -542l256 -539h-266l-162 369l-342 -369h-301z" />
<glyph unicode="y" horiz-adv-x="1198" d="M133 -334q-137 0 -244 74l131 182q66 -47 140 -47q94 0 184 121l-158 1085h254l90 -800l478 800h270l-698 -1112q-109 -166 -211.5 -234.5t-235.5 -68.5z" />
<glyph unicode="z" horiz-adv-x="1134" d="M-49 0l47 170l795 709h-584l53 202h912l-46 -170l-796 -708h612l-55 -203h-938z" />
<glyph unicode="{" horiz-adv-x="997" d="M633 -289q-193 39 -278 119t-85 203q0 70 43 196q27 84 27 138q0 66 -35 96.5t-139 30.5h-64l52 188h61q152 0 214.5 67.5t92.5 266.5q33 227 164 333.5t408 114.5l12 -168q-195 -16 -269.5 -91t-97.5 -244q-27 -207 -101.5 -290t-225.5 -102q80 -14 123 -61t43 -117 q0 -55 -33 -145q-37 -119 -37 -172q0 -76 44 -123t161 -88z" />
<glyph unicode="|" horiz-adv-x="677" d="M276 -262v1896h199v-1896h-199z" />
<glyph unicode="}" horiz-adv-x="997" d="M-72 -289l-12 168q195 16 268.5 91t98.5 245q27 207 101.5 290t225.5 101q-164 31 -164 178q0 61 31 146q37 115 37 172q0 76 -44 123t-161 88l80 151q193 -39 278 -118.5t85 -202.5q0 -68 -41 -197q-29 -80 -29 -137q0 -66 35 -96.5t141 -30.5h62l-52 -188h-61 q-152 0 -215.5 -68t-91.5 -266q-35 -227 -165.5 -334t-406.5 -115z" />
<glyph unicode="~" horiz-adv-x="1013" d="M270 467l-137 65q115 250 283 250q76 0 153 -63q70 -55 107 -55q41 0 70.5 29.5t64.5 90.5l139 -65q-115 -250 -282 -250q-76 0 -156 63q-74 55 -104 56q-68 0 -138 -121z" />
<glyph unicode="&#xa1;" horiz-adv-x="620" d="M338 1153l76 281h272l-76 -281h-272zM18 0l21 72l319 909h138l-166 -909l-21 -72h-291z" />
<glyph unicode="&#xa2;" horiz-adv-x="1183" d="M416 213q-129 59 -202 174t-73 266q0 268 185.5 452.5t455.5 184.5q37 0 54 -2l61 158h180l-76 -193q162 -61 244 -211l-188 -129q-59 96 -146 136l-262 -672h17q156 0 297 115l133 -166q-178 -164 -424 -164q-51 0 -94 6l-72 -180h-180zM760 1075q-158 -8 -265.5 -132 t-107.5 -286q0 -156 119 -233z" />
<glyph unicode="&#xa3;" horiz-adv-x="1306" d="M-20 0l43 160l176 49l96 360h-162l57 213h162l58 215q53 201 163 312q143 143 369 143q289 0 420 -240l-203 -135q-45 72 -99 108t-136 36q-100 0 -172 -72q-66 -66 -101 -195l-49 -172h514l-55 -213h-514l-94 -350h669l-59 -219h-1083z" />
<glyph unicode="&#xa4;" horiz-adv-x="1452" d="M797 -25q-225 0 -371.5 131.5t-167.5 354.5h-201l47 174h156q10 96 33 174h-143l47 174h149q92 215 266 345t402 130q381 0 497 -332l-215 -104q-49 106 -116.5 157.5t-182.5 51.5q-240 0 -370 -248h460l-47 -174h-479q-29 -78 -39 -174h473l-47 -174h-428 q16 -121 91 -189.5t190 -68.5q98 0 173 39t152 123l170 -148q-202 -242 -499 -242z" />
<glyph unicode="&#xa5;" horiz-adv-x="1449" d="M455 0l55 209h-393l49 182h393l39 150h-393l49 182h321l-282 711h272l221 -603l545 603h305l-671 -711h321l-49 -182h-395l-39 -150h395l-49 -182h-395l-56 -209h-243z" />
<glyph unicode="&#xa7;" horiz-adv-x="1294" d="M584 -18q-150 0 -275 49t-198 133l155 143q139 -135 332 -135q78 0 127 28.5t49 73.5q0 41 -50 72t-181 70q-197 59 -291 121.5t-94 173.5q0 106 83 175.5t232 90.5q-98 74 -98 178q0 133 123 217t307 84q150 0 274.5 -49t198.5 -133l-156 -144q-139 135 -331 136 q-78 0 -127.5 -29t-49.5 -74q0 -43 50.5 -72.5t181.5 -68.5q195 -57 290 -120.5t95 -174.5q0 -104 -83 -175t-233 -91q98 -74 99 -178q0 -133 -123 -217t-307 -84zM813 563q76 0 129 37t53 88q0 45 -47 77t-157 66q-131 43 -216 43q-76 0 -129 -36.5t-53 -87.5q0 -45 47 -77 t158 -67q131 -43 215 -43z" />
<glyph unicode="&#xa8;" horiz-adv-x="1024" d="M764 1219l65 241h252l-67 -241h-250zM356 1219l66 241h252l-66 -241h-252z" />
<glyph unicode="&#xa9;" horiz-adv-x="1699" d="M893 -25q-309 0 -524 217.5t-215 522.5t217 524t526 219t524 -217t215 -522t-217 -524.5t-526 -219.5zM893 49q283 0 474.5 195.5t191.5 474t-190.5 472t-471.5 193.5q-283 0 -473.5 -195.5t-190.5 -474t189.5 -472t470.5 -193.5zM903 326q-168 0 -280.5 115.5 t-112.5 283.5t113.5 285.5t285.5 117.5q178 0 303 -120l-96 -111q-102 92 -209 92q-104 0 -172.5 -75.5t-68.5 -186.5q0 -109 69.5 -185.5t173.5 -76.5q109 0 211 96l99 -96q-134 -139 -316 -139z" />
<glyph unicode="&#xaa;" horiz-adv-x="798" d="M387 825q-78 0 -127 45t-49 115q0 100 74.5 159.5t187.5 59.5q84 0 180 -30l4 14q8 25 9 41q0 88 -131 88q-84 0 -160 -31l-25 115q102 41 215 41q117 0 178.5 -48t61.5 -137q0 -31 -12 -88l-91 -331h-141l23 80q-88 -93 -197 -93zM109 578l32 118h531l-33 -118h-530z M444 926q59 0 112.5 42t70.5 101l4 21q-76 23 -133 22q-63 0 -102.5 -30.5t-39.5 -80.5q0 -33 24.5 -54t63.5 -21z" />
<glyph unicode="&#xab;" horiz-adv-x="1239" d="M825 70l-219 450l4 17l473 462l146 -133l-371 -362l166 -342zM311 70l-217 450l4 17l471 462l148 -133l-371 -362l166 -342z" />
<glyph unicode="&#xad;" horiz-adv-x="841" d="M109 506l65 244h606l-65 -244h-606z" />
<glyph unicode="&#xae;" horiz-adv-x="1699" d="M893 -25q-309 0 -524 217.5t-215 522.5t217 524t526 219t524 -217t215 -522t-217 -524.5t-526 -219.5zM893 49q283 0 474.5 195.5t191.5 474t-190.5 472t-471.5 193.5q-283 0 -473.5 -195.5t-190.5 -474t189.5 -472t470.5 -193.5zM596 350v776h346q137 0 218 -66.5 t81 -180.5q0 -92 -48 -151.5t-132 -84.5l211 -293h-176l-191 268h-160v-268h-149zM745 748h191q72 0 114 32.5t42 89.5q0 59 -41 91t-115 32h-191v-245z" />
<glyph unicode="&#xaf;" horiz-adv-x="1024" d="M344 1229l49 182h701l-50 -182h-700z" />
<glyph unicode="&#xb0;" horiz-adv-x="862" d="M487 772q-137 0 -222 84t-85 215q0 152 110.5 265.5t264.5 113.5q139 0 224 -84t85 -215q0 -150 -111.5 -264.5t-265.5 -114.5zM496 911q90 0 151.5 72t61.5 162q0 76 -44 122t-116 46q-88 0 -150.5 -73t-62.5 -161q0 -76 44 -122t116 -46z" />
<glyph unicode="&#xb1;" horiz-adv-x="1259" d="M526 -25q-199 0 -334 76t-206 195l190 139q141 -182 369 -182q139 0 222 66.5t83 158.5q0 190 -295 190h-127l57 211h140q158 0 255 59.5t97 164.5q0 80 -65.5 129t-166.5 49q-170 0 -337 -146l-142 160q215 211 504 211q209 0 338 -103.5t129 -262.5q0 -283 -352 -373 q94 -33 157.5 -110t63.5 -185q0 -190 -162 -318.5t-418 -128.5z" />
<glyph unicode="&#xb2;" horiz-adv-x="1241" d="M-55 0l55 205l764 549q115 82 168 151.5t53 145.5q0 82 -58.5 129t-158.5 47q-176 0 -362 -187l-158 162q231 252 530 252q209 0 338 -105.5t129 -273.5q0 -129 -73.5 -235.5t-251.5 -233.5l-533 -385h670l-60 -221h-1052z" />
<glyph unicode="&#xb3;" horiz-adv-x="1239" d="M500 -25q-367 0 -518 275l190 135q121 -182 340 -182q137 0 229.5 71.5t92.5 176.5q0 98 -84 149t-234 51h-78l-16 154l487 409h-610l59 220h955l-51 -189l-512 -418q156 -27 248 -114.5t92 -239.5q0 -213 -171 -355.5t-419 -142.5z" />
<glyph unicode="&#xb4;" horiz-adv-x="1024" d="M453 1219l307 335l221 -100l-313 -235h-215z" />
<glyph unicode="&#xb5;" d="M1311 -78l-111 158q-186 -104 -401 -105q-285 0 -464 179.5t-179 449.5q0 217 107.5 412.5t305 318.5t437.5 123q285 0 465 -179t180 -450q0 -170 -69 -329.5t-191 -280.5l125 -158zM825 207q129 0 244 65l-203 254l207 142l172 -246q143 176 144 393q0 180 -110 296 t-298 116q-160 0 -292 -91.5t-201.5 -230.5t-69.5 -287q0 -182 109.5 -296.5t297.5 -114.5z" />
<glyph unicode="&#xb6;" horiz-adv-x="1157" d="M575 0l123 465q-240 8 -375 111.5t-135 306.5q0 248 182.5 399.5t522.5 151.5h319l-385 -1434h-252z" />
<glyph unicode="&#xb7;" horiz-adv-x="600" d="M141 487l76 281h275l-76 -281h-275z" />
<glyph unicode="&#xb8;" horiz-adv-x="1024" d="M297 -338l-191 90l254 268h187z" />
<glyph unicode="&#xb9;" horiz-adv-x="827" d="M193 0l315 1174l-272 -70l-5 217l424 123h174l-387 -1444h-249z" />
<glyph unicode="&#xba;" horiz-adv-x="815" d="M504 821q-129 0 -207 77t-78 198q0 139 101.5 243.5t244.5 104.5q127 0 206 -77t79 -198q0 -139 -101.5 -243.5t-244.5 -104.5zM111 578l30 118h564l-31 -118h-563zM510 946q84 0 140.5 66.5t56.5 150.5q0 70 -41 113t-107 43q-84 0 -140.5 -66.5t-56.5 -150.5 q0 -70 41 -113t107 -43z" />
<glyph unicode="&#xbb;" horiz-adv-x="1239" d="M664 70l-146 131l371 364l-166 342l199 90l219 -448l-4 -17zM152 70l-146 131l369 364l-164 342l199 90l219 -448l-4 -17z" />
<glyph unicode="&#xbc;" horiz-adv-x="3252" d="M2589 0l86 322h-696l-27 186l1020 936h244l-246 -916h205l-56 -206h-204l-86 -322h-240zM2273 528h457l154 572zM579 -201l1424 1753h229l-1425 -1753h-228zM193 0l315 1174l-272 -70l-5 217l424 123h174l-387 -1444h-249z" />
<glyph unicode="&#xbd;" horiz-adv-x="3151" d="M1856 0l55 205l764 549q115 82 168 151.5t53 145.5q0 82 -58.5 129t-158.5 47q-176 0 -362 -187l-158 162q231 252 530 252q209 0 338 -105.5t129 -273.5q0 -129 -73.5 -235.5t-251.5 -233.5l-533 -385h670l-60 -221h-1052zM579 -201l1424 1753h229l-1425 -1753h-228z M193 0l315 1174l-272 -70l-5 217l424 123h174l-387 -1444h-249z" />
<glyph unicode="&#xbe;" horiz-adv-x="3663" d="M3000 0l86 322h-696l-27 186l1020 936h244l-246 -916h205l-56 -206h-204l-86 -322h-240zM2684 528h457l154 572zM991 -201l1424 1753h229l-1425 -1753h-228zM500 -25q-367 0 -518 275l190 135q121 -182 340 -182q137 0 229.5 71.5t92.5 176.5q0 98 -84 149t-234 51h-78 l-16 154l487 409h-610l59 220h955l-51 -189l-512 -418q156 -27 248 -114.5t92 -239.5q0 -213 -171 -355.5t-419 -142.5z" />
<glyph unicode="&#xbf;" horiz-adv-x="1107" d="M651 1153l76 281h272l-75 -281h-273zM510 -18q-203 0 -323.5 106.5t-120.5 261.5q0 184 139 300t391 153l68 178h165l-47 -332l-12 -10q-209 -16 -324.5 -83t-115.5 -177q0 -80 55 -124t156 -44q176 0 325 139l135 -166q-198 -202 -491 -202z" />
<glyph unicode="&#xc0;" horiz-adv-x="1562" d="M-102 0l1017 1444h242l244 -1444h-258l-56 346h-677l-240 -346h-272zM563 569h494l-92 580zM981 1553l-186 235l231 100l125 -335h-170z" />
<glyph unicode="&#xc1;" horiz-adv-x="1562" d="M-102 0l1017 1444h242l244 -1444h-258l-56 346h-677l-240 -346h-272zM563 569h494l-92 580zM911 1552l308 336l221 -100l-314 -236h-215z" />
<glyph unicode="&#xc2;" horiz-adv-x="1562" d="M-102 0l1017 1444h242l244 -1444h-258l-56 346h-677l-240 -346h-272zM563 569h494l-92 580zM674 1553l317 299h232l158 -299h-187l-119 137l-196 -137h-205z" />
<glyph unicode="&#xc3;" horiz-adv-x="1562" d="M-102 0l1017 1444h242l244 -1444h-258l-56 346h-677l-240 -346h-272zM563 569h494l-92 580zM793 1542l-138 66q115 250 283 250q72 0 154 -64q70 -55 106 -55q41 0 70.5 29.5t64.5 91.5l140 -66q-115 -250 -285 -250q-76 0 -154 64q-74 55 -104 55q-67 0 -137 -121z" />
<glyph unicode="&#xc4;" horiz-adv-x="1562" d="M-102 0l1017 1444h242l244 -1444h-258l-56 346h-677l-240 -346h-272zM563 569h494l-92 580zM1133 1553l65 241h252l-67 -241h-250zM725 1553l66 241h252l-66 -241h-252z" />
<glyph unicode="&#xc5;" horiz-adv-x="1574" d="M-96 0l993 1411q-66 55 -66 145q0 104 76 179t183 75q98 0 157.5 -57t59.5 -141q0 -72 -37 -130.5t-99 -88.5l236 -1393h-258l-55 346h-678l-240 -346h-272zM1053 1454q59 0 99 47t40 109q0 45 -28.5 73.5t-76.5 28.5q-61 0 -101 -47t-40 -109q0 -45 29 -73.5t78 -28.5z M569 569h494l-92 580z" />
<glyph unicode="&#xc6;" horiz-adv-x="2172" d="M-106 0l1185 1434h1209l-62 -226h-766l-100 -374h676l-62 -224h-676l-102 -385h778l-61 -225h-1028l94 346h-524l-285 -346h-276zM637 569h401l172 645h-43z" />
<glyph unicode="&#xc7;" horiz-adv-x="1495" d="M786 -25l-219 -313l-190 90l233 246q-207 51 -331.5 205.5t-124.5 382t115.5 428t316 322.5t434.5 122q383 0 559 -307l-209 -141q-70 106 -158 161.5t-221 55.5q-229 0 -402 -189.5t-173 -441.5q0 -176 108.5 -282.5t280.5 -106.5q113 0 200 41t181 123l166 -168 q-233 -227 -551 -228h-15z" />
<glyph unicode="&#xc8;" horiz-adv-x="1351" d="M39 0l385 1434h1053l-62 -226h-801l-100 -374h711l-62 -224h-710l-103 -385h813l-61 -225h-1063zM909 1552l-186 236l231 100l125 -336h-170z" />
<glyph unicode="&#xc9;" horiz-adv-x="1351" d="M39 0l385 1434h1053l-62 -226h-801l-100 -374h711l-62 -224h-710l-103 -385h813l-61 -225h-1063zM805 1553l307 335l221 -100l-313 -235h-215z" />
<glyph unicode="&#xca;" horiz-adv-x="1351" d="M39 0l385 1434h1053l-62 -226h-801l-100 -374h711l-62 -224h-710l-103 -385h813l-61 -225h-1063zM618 1552l318 299h231l158 -299h-186l-119 138l-197 -138h-205z" />
<glyph unicode="&#xcb;" horiz-adv-x="1351" d="M39 0l385 1434h1053l-62 -226h-801l-100 -374h711l-62 -224h-710l-103 -385h813l-61 -225h-1063zM1053 1553l65 241h252l-67 -241h-250zM645 1553l66 241h252l-66 -241h-252z" />
<glyph unicode="&#xcc;" horiz-adv-x="649" d="M53 0l385 1434h254l-385 -1434h-254zM530 1552l-186 236l231 100l125 -336h-170z" />
<glyph unicode="&#xcd;" horiz-adv-x="649" d="M53 0l385 1434h254l-385 -1434h-254zM445 1553l307 335l221 -100l-313 -235h-215z" />
<glyph unicode="&#xce;" horiz-adv-x="649" d="M53 0l385 1434h254l-385 -1434h-254zM223 1552l318 299h231l158 -299h-187l-118 138l-197 -138h-205z" />
<glyph unicode="&#xcf;" horiz-adv-x="649" d="M53 0l385 1434h254l-385 -1434h-254zM674 1552l65 242h252l-67 -242h-250zM266 1552l66 242h252l-66 -242h-252z" />
<glyph unicode="&#xd0;" horiz-adv-x="1634" d="M86 0l164 608h-166l61 226h166l160 600h389q373 0 559 -187q158 -156 158 -418q0 -330 -231 -561q-268 -268 -746 -268h-514zM399 229h232q330 0 524 195q160 160 160 395q0 164 -101 264q-121 121 -372 121h-178l-101 -370h346l-61 -226h-346z" />
<glyph unicode="&#xd1;" horiz-adv-x="1609" d="M39 0l385 1434h233l486 -1014l274 1014h248l-385 -1434h-211l-502 1042l-278 -1042h-250zM805 1542l-137 66q115 250 282 250q72 0 154 -64q70 -55 106 -55q41 0 71 29.5t64 91.5l140 -66q-115 -250 -285 -250q-76 0 -154 64q-74 55 -104 55q-67 0 -137 -121z" />
<glyph unicode="&#xd2;" d="M799 -25q-285 0 -464 179.5t-179 449.5q0 217 107.5 412.5t305 318.5t437.5 123q285 0 465 -179t180 -450q0 -217 -107.5 -412.5t-306 -318.5t-438.5 -123zM825 207q160 0 292 91t202 230.5t70 286.5q0 180 -110 296t-298 116q-160 0 -292 -91.5t-201.5 -230.5 t-69.5 -287q0 -182 109.5 -296.5t297.5 -114.5zM1014 1552l-187 236l232 100l125 -336h-170z" />
<glyph unicode="&#xd3;" d="M799 -25q-285 0 -464 179.5t-179 449.5q0 217 107.5 412.5t305 318.5t437.5 123q285 0 465 -179t180 -450q0 -217 -107.5 -412.5t-306 -318.5t-438.5 -123zM825 207q160 0 292 91t202 230.5t70 286.5q0 180 -110 296t-298 116q-160 0 -292 -91.5t-201.5 -230.5 t-69.5 -287q0 -182 109.5 -296.5t297.5 -114.5zM883 1552l307 336l221 -100l-313 -236h-215z" />
<glyph unicode="&#xd4;" d="M799 -25q-285 0 -464 179.5t-179 449.5q0 217 107.5 412.5t305 318.5t437.5 123q285 0 465 -179t180 -450q0 -217 -107.5 -412.5t-306 -318.5t-438.5 -123zM825 207q160 0 292 91t202 230.5t70 286.5q0 180 -110 296t-298 116q-160 0 -292 -91.5t-201.5 -230.5 t-69.5 -287q0 -182 109.5 -296.5t297.5 -114.5zM717 1552l317 299h232l157 -299h-186l-119 138l-196 -138h-205z" />
<glyph unicode="&#xd5;" d="M799 -25q-285 0 -464 179.5t-179 449.5q0 217 107.5 412.5t305 318.5t437.5 123q285 0 465 -179t180 -450q0 -217 -107.5 -412.5t-306 -318.5t-438.5 -123zM825 207q160 0 292 91t202 230.5t70 286.5q0 180 -110 296t-298 116q-160 0 -292 -91.5t-201.5 -230.5 t-69.5 -287q0 -182 109.5 -296.5t297.5 -114.5zM830 1542l-137 66q115 250 282 250q72 0 154 -64q70 -55 106 -55q41 0 71 29.5t64 91.5l140 -66q-115 -250 -285 -250q-76 0 -154 64q-74 55 -104 55q-67 0 -137 -121z" />
<glyph unicode="&#xd6;" d="M799 -25q-285 0 -464 179.5t-179 449.5q0 217 107.5 412.5t305 318.5t437.5 123q285 0 465 -179t180 -450q0 -217 -107.5 -412.5t-306 -318.5t-438.5 -123zM825 207q160 0 292 91t202 230.5t70 286.5q0 180 -110 296t-298 116q-160 0 -292 -91.5t-201.5 -230.5 t-69.5 -287q0 -182 109.5 -296.5t297.5 -114.5zM1157 1553l65 241h252l-67 -241h-250zM749 1553l66 241h252l-66 -241h-252z" />
<glyph unicode="&#xd8;" d="M799 -25q-258 0 -434 154l-160 -139h-252l299 266q-96 152 -96 348q0 217 107.5 412.5t305 318.5t437.5 123q266 0 442 -160l164 146h252l-305 -275q92 -150 92 -340q0 -217 -107.5 -412.5t-306 -318.5t-438.5 -123zM449 422l811 717q-109 96 -279 96 q-242 0 -406.5 -191.5t-164.5 -427.5q0 -110 39 -194zM823 197q162 0 296 93t206 234.5t72 290.5q0 106 -37 189l-805 -715q104 -92 268 -92z" />
<glyph unicode="&#xd9;" horiz-adv-x="1560" d="M707 -23q-250 0 -390.5 127t-140.5 347q0 115 33 227l201 756h252l-211 -791q-20 -78 -21 -158q0 -125 78 -200.5t223 -75.5q160 0 268.5 108.5t157.5 300.5l219 816h252l-229 -854q-74 -274 -223 -424q-178 -179 -469 -179zM975 1552l-187 236l232 100l125 -336h-170z " />
<glyph unicode="&#xda;" horiz-adv-x="1560" d="M707 -23q-250 0 -390.5 127t-140.5 347q0 115 33 227l201 756h252l-211 -791q-20 -78 -21 -158q0 -125 78 -200.5t223 -75.5q160 0 268.5 108.5t157.5 300.5l219 816h252l-229 -854q-74 -274 -223 -424q-178 -179 -469 -179zM869 1553l307 335l221 -100l-313 -235h-215z " />
<glyph unicode="&#xdb;" horiz-adv-x="1560" d="M707 -23q-250 0 -390.5 127t-140.5 347q0 115 33 227l201 756h252l-211 -791q-20 -78 -21 -158q0 -125 78 -200.5t223 -75.5q160 0 268.5 108.5t157.5 300.5l219 816h252l-229 -854q-74 -274 -223 -424q-178 -179 -469 -179zM674 1552l317 299h232l157 -299h-186 l-119 138l-196 -138h-205z" />
<glyph unicode="&#xdc;" horiz-adv-x="1560" d="M707 -23q-250 0 -390.5 127t-140.5 347q0 115 33 227l201 756h252l-211 -791q-20 -78 -21 -158q0 -125 78 -200.5t223 -75.5q160 0 268.5 108.5t157.5 300.5l219 816h252l-229 -854q-74 -274 -223 -424q-178 -179 -469 -179zM1124 1552l66 242h252l-68 -242h-250z M717 1552l65 242h252l-65 -242h-252z" />
<glyph unicode="&#xdd;" horiz-adv-x="1341" d="M387 0l152 569l-320 865h279l217 -648l567 648h311l-809 -891l-145 -543h-252zM758 1553l307 335l221 -100l-313 -235h-215z" />
<glyph unicode="&#xde;" horiz-adv-x="1398" d="M39 0l385 1434h252l-60 -226h201q293 0 434 -139q106 -111 107 -283q0 -256 -194.5 -400t-506.5 -144h-299l-65 -242h-254zM416 463h254q199 0 312.5 80t113.5 223q0 84 -56 139q-74 76 -233 76h-252z" />
<glyph unicode="&#xdf;" horiz-adv-x="1286" d="M461 -4l53 197q205 -2 301 68.5t96 180.5q0 170 -276 207l45 170q336 80 336 297q0 84 -55.5 133t-143.5 49q-104 0 -179 -75.5t-112 -214.5l-268 -1008h-248l277 1028q61 223 178 340q145 141 362 141q195 0 310.5 -104.5t115.5 -265.5q0 -152 -94 -252.5t-258 -151.5 q248 -86 248 -299q0 -203 -176 -325.5t-512 -114.5z" />
<glyph unicode="&#xe0;" horiz-adv-x="1193" d="M356 -23q-141 0 -235 82t-94 215q0 182 133 286t348 104q168 0 323 -54l7 23q12 49 12 86q0 160 -236 160q-150 0 -297 -60l-41 205q180 74 388 74q211 0 322.5 -88t111.5 -248q0 -70 -23 -154l-162 -608h-243l37 141q-154 -164 -351 -164zM453 160q113 0 207 75.5 t120 178.5l13 47q-135 41 -246 41q-123 0 -194.5 -54.5t-71.5 -140.5q0 -70 46 -108.5t126 -38.5zM700 1219l-186 235l231 100l125 -335h-170z" />
<glyph unicode="&#xe1;" horiz-adv-x="1193" d="M356 -23q-141 0 -235 82t-94 215q0 182 133 286t348 104q168 0 323 -54l7 23q12 49 12 86q0 160 -236 160q-150 0 -297 -60l-41 205q180 74 388 74q211 0 322.5 -88t111.5 -248q0 -70 -23 -154l-162 -608h-243l37 141q-154 -164 -351 -164zM453 160q113 0 207 75.5 t120 178.5l13 47q-135 41 -246 41q-123 0 -194.5 -54.5t-71.5 -140.5q0 -70 46 -108.5t126 -38.5zM592 1219l307 335l221 -100l-313 -235h-215z" />
<glyph unicode="&#xe2;" horiz-adv-x="1193" d="M356 -23q-141 0 -235 82t-94 215q0 182 133 286t348 104q168 0 323 -54l7 23q12 49 12 86q0 160 -236 160q-150 0 -297 -60l-41 205q180 74 388 74q211 0 322.5 -88t111.5 -248q0 -70 -23 -154l-162 -608h-243l37 141q-154 -164 -351 -164zM453 160q113 0 207 75.5 t120 178.5l13 47q-135 41 -246 41q-123 0 -194.5 -54.5t-71.5 -140.5q0 -70 46 -108.5t126 -38.5zM408 1219l317 299h231l158 -299h-186l-119 137l-197 -137h-204z" />
<glyph unicode="&#xe3;" horiz-adv-x="1193" d="M356 -23q-141 0 -235 82t-94 215q0 182 133 286t348 104q168 0 323 -54l7 23q12 49 12 86q0 160 -236 160q-150 0 -297 -60l-41 205q180 74 388 74q211 0 322.5 -88t111.5 -248q0 -70 -23 -154l-162 -608h-243l37 141q-154 -164 -351 -164zM453 160q113 0 207 75.5 t120 178.5l13 47q-135 41 -246 41q-123 0 -194.5 -54.5t-71.5 -140.5q0 -70 46 -108.5t126 -38.5zM512 1208l-137 66q115 250 282 250q72 0 154 -64q70 -55 106 -55q41 0 71 29.5t64 91.5l140 -66q-115 -250 -285 -250q-76 0 -154 64q-74 55 -104 55q-67 0 -137 -121z" />
<glyph unicode="&#xe4;" horiz-adv-x="1193" d="M356 -23q-141 0 -235 82t-94 215q0 182 133 286t348 104q168 0 323 -54l7 23q12 49 12 86q0 160 -236 160q-150 0 -297 -60l-41 205q180 74 388 74q211 0 322.5 -88t111.5 -248q0 -70 -23 -154l-162 -608h-243l37 141q-154 -164 -351 -164zM453 160q113 0 207 75.5 t120 178.5l13 47q-135 41 -246 41q-123 0 -194.5 -54.5t-71.5 -140.5q0 -70 46 -108.5t126 -38.5zM840 1219l65 241h252l-67 -241h-250zM432 1219l66 241h252l-66 -241h-252z" />
<glyph unicode="&#xe5;" horiz-adv-x="1193" d="M356 -23q-141 0 -235 82t-94 215q0 182 133 286t348 104q168 0 323 -54l7 23q12 49 12 86q0 160 -236 160q-150 0 -297 -60l-41 205q180 74 388 74q211 0 322.5 -88t111.5 -248q0 -70 -23 -154l-162 -608h-243l37 141q-154 -164 -351 -164zM453 160q113 0 207 75.5 t120 178.5l13 47q-135 41 -246 41q-123 0 -194.5 -54.5t-71.5 -140.5q0 -70 46 -108.5t126 -38.5zM797 1217q-98 0 -157.5 56t-59.5 142q0 104 74.5 179t181.5 75q98 0 157.5 -56.5t59.5 -142.5q0 -104 -75 -178.5t-181 -74.5zM799 1315q59 0 100 46t41 107q0 45 -28.5 74 t-77.5 29q-59 0 -100.5 -46t-41.5 -108q0 -45 29 -73.5t78 -28.5z" />
<glyph unicode="&#xe6;" horiz-adv-x="1941" d="M883 188q-229 -211 -477 -211q-174 0 -276.5 84t-102.5 228q0 176 133 275.5t348 99.5q168 0 323 -54l7 23q12 49 12 86q0 160 -236 160q-150 0 -297 -60l-41 205q180 74 388 74q297 0 374 -185q174 190 410 191q197 0 310.5 -119t113.5 -301q0 -117 -47 -229h-787 q0 -127 73 -202t208 -75q137 0 278 105l117 -158q-172 -150 -418 -150q-294 0 -413 213zM1065 618h563q8 37 8 76q0 90 -53 148.5t-162 58.5q-121 0 -217 -79t-139 -204zM819 453q-139 49 -272 49q-123 0 -194.5 -54.5t-71.5 -140.5q0 -70 50 -108.5t140 -38.5 q84 0 185.5 50t172.5 126q-10 62 -10 117z" />
<glyph unicode="&#xe7;" horiz-adv-x="1144" d="M418 0q-150 47 -239 167t-89 290q0 264 190.5 455.5t448.5 191.5q299 0 438 -246l-192 -131q-49 78 -109.5 120t-156.5 42q-147 0 -259 -129t-112 -301q0 -123 73.5 -197t182.5 -74q139 0 276 121l131 -162q-186 -170 -409 -172h-2l-219 -313l-191 90z" />
<glyph unicode="&#xe8;" horiz-adv-x="1228" d="M326 455q0 -127 72.5 -202t207.5 -75q139 0 277 105l118 -158q-182 -150 -419 -150q-225 0 -358.5 128t-133.5 346q0 162 79 311t228.5 246.5t329.5 97.5q201 0 316.5 -119t115.5 -301q0 -109 -47 -229h-786zM352 618h561q10 31 11 76q0 90 -54.5 148.5t-160.5 58.5 q-123 0 -219.5 -79t-137.5 -204zM713 1219l-187 235l232 100l125 -335h-170z" />
<glyph unicode="&#xe9;" horiz-adv-x="1228" d="M326 455q0 -127 72.5 -202t207.5 -75q139 0 277 105l118 -158q-182 -150 -419 -150q-225 0 -358.5 128t-133.5 346q0 162 79 311t228.5 246.5t329.5 97.5q201 0 316.5 -119t115.5 -301q0 -109 -47 -229h-786zM352 618h561q10 31 11 76q0 90 -54.5 148.5t-160.5 58.5 q-123 0 -219.5 -79t-137.5 -204zM600 1219l307 335l221 -100l-313 -235h-215z" />
<glyph unicode="&#xea;" horiz-adv-x="1228" d="M326 455q0 -127 72.5 -202t207.5 -75q139 0 277 105l118 -158q-182 -150 -419 -150q-225 0 -358.5 128t-133.5 346q0 162 79 311t228.5 246.5t329.5 97.5q201 0 316.5 -119t115.5 -301q0 -109 -47 -229h-786zM352 618h561q10 31 11 76q0 90 -54.5 148.5t-160.5 58.5 q-123 0 -219.5 -79t-137.5 -204zM414 1219l317 299h232l157 -299h-186l-119 137l-197 -137h-204z" />
<glyph unicode="&#xeb;" horiz-adv-x="1228" d="M326 455q0 -127 72.5 -202t207.5 -75q139 0 277 105l118 -158q-182 -150 -419 -150q-225 0 -358.5 128t-133.5 346q0 162 79 311t228.5 246.5t329.5 97.5q201 0 316.5 -119t115.5 -301q0 -109 -47 -229h-786zM352 618h561q10 31 11 76q0 90 -54.5 148.5t-160.5 58.5 q-123 0 -219.5 -79t-137.5 -204zM852 1219l66 241h251l-67 -241h-250zM444 1219l66 241h252l-66 -241h-252z" />
<glyph unicode="&#xec;" horiz-adv-x="585" d="M25 0l290 1081h248l-291 -1081h-247zM408 1219l-187 235l232 100l125 -335h-170z" />
<glyph unicode="&#xed;" horiz-adv-x="585" d="M25 0l290 1081h248l-291 -1081h-247zM324 1219l307 335l221 -100l-313 -235h-215z" />
<glyph unicode="&#xee;" horiz-adv-x="585" d="M25 0l290 1081h248l-291 -1081h-247zM106 1219l318 299h231l158 -299h-186l-119 137l-197 -137h-205z" />
<glyph unicode="&#xef;" horiz-adv-x="585" d="M25 0l290 1081h248l-291 -1081h-247zM547 1219l65 241h252l-67 -241h-250zM139 1219l66 241h252l-66 -241h-252z" />
<glyph unicode="&#xf0;" horiz-adv-x="1292" d="M575 -25q-217 0 -354 131.5t-137 337.5q0 227 163 389t384 162q178 0 311 -116l-145 327l-289 -112l-66 131l293 114l-69 156h252l32 -76l236 92l65 -131l-243 -94l98 -237q92 -217 92 -410q0 -279 -171 -471.5t-452 -192.5zM592 188q150 0 252 107.5t102 249.5 q0 117 -75.5 192.5t-200.5 75.5q-145 0 -245.5 -105.5t-100.5 -248.5q0 -125 74.5 -198t193.5 -73z" />
<glyph unicode="&#xf1;" horiz-adv-x="1263" d="M10 0l289 1081h248l-37 -139q162 162 328 162q152 0 240.5 -87t88.5 -237q0 -63 -32 -190l-156 -590h-248l160 600q16 55 16 109q0 82 -49 126t-139 44q-102 0 -183 -75t-114 -196l-164 -608h-248zM547 1208l-137 66q115 250 282 250q72 0 154 -64q70 -55 106 -55 q41 0 71 29.5t64 91.5l140 -66q-115 -250 -285 -250q-76 0 -154 64q-74 55 -104 55q-67 0 -137 -121z" />
<glyph unicode="&#xf2;" horiz-adv-x="1323" d="M600 -25q-229 0 -368.5 138.5t-139.5 355.5q0 250 186.5 442.5t444.5 192.5q229 0 368.5 -139.5t139.5 -356.5q0 -250 -187.5 -441.5t-443.5 -191.5zM614 190q152 0 261.5 129.5t109.5 282.5q0 135 -75.5 211t-200.5 76q-154 0 -262.5 -130t-108.5 -282q0 -135 75.5 -211 t200.5 -76zM735 1219l-186 235l231 100l125 -335h-170z" />
<glyph unicode="&#xf3;" horiz-adv-x="1323" d="M600 -25q-229 0 -368.5 138.5t-139.5 355.5q0 250 186.5 442.5t444.5 192.5q229 0 368.5 -139.5t139.5 -356.5q0 -250 -187.5 -441.5t-443.5 -191.5zM614 190q152 0 261.5 129.5t109.5 282.5q0 135 -75.5 211t-200.5 76q-154 0 -262.5 -130t-108.5 -282q0 -135 75.5 -211 t200.5 -76zM611 1219l307 335l221 -100l-313 -235h-215z" />
<glyph unicode="&#xf4;" horiz-adv-x="1323" d="M600 -25q-229 0 -368.5 138.5t-139.5 355.5q0 250 186.5 442.5t444.5 192.5q229 0 368.5 -139.5t139.5 -356.5q0 -250 -187.5 -441.5t-443.5 -191.5zM614 190q152 0 261.5 129.5t109.5 282.5q0 135 -75.5 211t-200.5 76q-154 0 -262.5 -130t-108.5 -282q0 -135 75.5 -211 t200.5 -76zM440 1219l318 299h231l158 -299h-186l-119 137l-197 -137h-205z" />
<glyph unicode="&#xf5;" horiz-adv-x="1323" d="M600 -25q-229 0 -368.5 138.5t-139.5 355.5q0 250 186.5 442.5t444.5 192.5q229 0 368.5 -139.5t139.5 -356.5q0 -250 -187.5 -441.5t-443.5 -191.5zM614 190q152 0 261.5 129.5t109.5 282.5q0 135 -75.5 211t-200.5 76q-154 0 -262.5 -130t-108.5 -282q0 -135 75.5 -211 t200.5 -76zM539 1208l-137 66q115 250 282 250q72 0 154 -64q70 -55 106 -55q41 0 71 29.5t64 91.5l140 -66q-115 -250 -285 -250q-76 0 -154 64q-74 55 -104 55q-67 0 -137 -121z" />
<glyph unicode="&#xf6;" horiz-adv-x="1323" d="M600 -25q-229 0 -368.5 138.5t-139.5 355.5q0 250 186.5 442.5t444.5 192.5q229 0 368.5 -139.5t139.5 -356.5q0 -250 -187.5 -441.5t-443.5 -191.5zM614 190q152 0 261.5 129.5t109.5 282.5q0 135 -75.5 211t-200.5 76q-154 0 -262.5 -130t-108.5 -282q0 -135 75.5 -211 t200.5 -76zM868 1219l66 241h252l-68 -241h-250zM461 1219l65 241h252l-65 -241h-252z" />
<glyph unicode="&#xf8;" horiz-adv-x="1323" d="M600 -25q-207 0 -346 119l-119 -104h-233l254 223q-63 115 -64 256q0 250 186.5 442.5t444.5 192.5q203 0 338 -115l119 105h231l-248 -220q68 -113 68 -266q0 -250 -187.5 -441.5t-443.5 -191.5zM346 371l543 473q-72 53 -174 53q-160 0 -272.5 -133t-112.5 -287 q0 -57 16 -106zM608 182q160 0 272.5 132t112.5 288q0 68 -18 117l-547 -479q69 -58 180 -58z" />
<glyph unicode="&#xf9;" horiz-adv-x="1265" d="M428 -23q-152 0 -241 87.5t-89 236.5q0 63 33 191l158 589h248l-162 -600q-14 -57 -15 -108q0 -82 48.5 -126t138.5 -44q102 0 183 74.5t114 195.5l164 608h247l-288 -1081h-248l37 139q-162 -162 -328 -162zM756 1219l-187 235l232 100l125 -335h-170z" />
<glyph unicode="&#xfa;" horiz-adv-x="1265" d="M428 -23q-152 0 -241 87.5t-89 236.5q0 63 33 191l158 589h248l-162 -600q-14 -57 -15 -108q0 -82 48.5 -126t138.5 -44q102 0 183 74.5t114 195.5l164 608h247l-288 -1081h-248l37 139q-162 -162 -328 -162zM631 1219l307 335l221 -100l-313 -235h-215z" />
<glyph unicode="&#xfb;" horiz-adv-x="1265" d="M428 -23q-152 0 -241 87.5t-89 236.5q0 63 33 191l158 589h248l-162 -600q-14 -57 -15 -108q0 -82 48.5 -126t138.5 -44q102 0 183 74.5t114 195.5l164 608h247l-288 -1081h-248l37 139q-162 -162 -328 -162zM442 1219l318 299h231l158 -299h-186l-119 137l-197 -137 h-205z" />
<glyph unicode="&#xfc;" horiz-adv-x="1265" d="M428 -23q-152 0 -241 87.5t-89 236.5q0 63 33 191l158 589h248l-162 -600q-14 -57 -15 -108q0 -82 48.5 -126t138.5 -44q102 0 183 74.5t114 195.5l164 608h247l-288 -1081h-248l37 139q-162 -162 -328 -162zM879 1219l65 241h252l-68 -241h-249zM471 1219l66 241h251 l-65 -241h-252z" />
<glyph unicode="&#xfd;" horiz-adv-x="1198" d="M133 -334q-137 0 -244 74l131 182q66 -47 140 -47q94 0 184 121l-158 1085h254l90 -800l478 800h270l-698 -1112q-109 -166 -211.5 -234.5t-235.5 -68.5zM604 1219l307 335l222 -100l-314 -235h-215z" />
<glyph unicode="&#xfe;" horiz-adv-x="1368" d="M-78 -328l490 1823h247l-151 -557q166 166 346 166q184 0 303 -126t119 -337q0 -281 -181.5 -472.5t-420.5 -191.5q-248 0 -365 216l-139 -521h-248zM645 188q152 0 262.5 128t110.5 307q0 123 -69.5 195.5t-186.5 72.5q-152 0 -270.5 -129t-118.5 -299q0 -119 75.5 -197 t196.5 -78z" />
<glyph unicode="&#xff;" horiz-adv-x="1198" d="M133 -334q-137 0 -244 74l131 182q66 -47 140 -47q94 0 184 121l-158 1085h254l90 -800l478 800h270l-698 -1112q-109 -166 -211.5 -234.5t-235.5 -68.5zM827 1219l65 241h252l-67 -241h-250zM419 1219l66 241h252l-66 -241h-252z" />
<glyph unicode="&#x152;" horiz-adv-x="2244" d="M868 0q-373 0 -567 195q-147 147 -147 409q0 334 231 561q268 268 743 269h1231l-61 -226h-766l-100 -374h675l-61 -224h-674l-104 -385h778l-61 -225h-1117zM889 229h129l262 975h-180q-332 0 -527 -194q-158 -158 -157 -396q0 -166 98 -264q121 -121 375 -121z" />
<glyph unicode="&#x153;" horiz-adv-x="2115" d="M1214 455q0 -127 73 -202t208 -75q137 0 279 105l116 -158q-172 -150 -417 -150q-152 0 -259.5 61.5t-156.5 174.5q-178 -236 -457 -236q-227 0 -367.5 139.5t-140.5 354.5q0 252 185.5 443.5t443.5 191.5q158 0 267.5 -68.5t158.5 -183.5q178 252 469 252 q203 0 317.5 -119t114.5 -301q0 -117 -47 -229h-787zM1241 618h561q10 31 10 76q0 90 -54 148.5t-161 58.5q-121 0 -217 -79t-139 -204zM612 190q156 0 264.5 125t108.5 283q0 133 -75.5 212t-198.5 79q-156 0 -264.5 -127t-108.5 -285q0 -129 75.5 -208t198.5 -79z" />
<glyph unicode="&#x178;" horiz-adv-x="1341" d="M387 0l152 569l-320 865h279l217 -648l567 648h311l-809 -891l-145 -543h-252zM987 1552l66 242h252l-68 -242h-250zM580 1552l65 242h252l-66 -242h-251z" />
<glyph unicode="&#x2c6;" horiz-adv-x="1024" d="M342 1219l317 299h232l158 -299h-187l-119 137l-196 -137h-205z" />
<glyph unicode="&#x2dc;" horiz-adv-x="1024" d="M459 1208l-137 66q115 250 282 250q72 0 154 -64q70 -55 106 -55q41 0 71 29.5t64 91.5l140 -66q-115 -250 -285 -250q-76 0 -154 64q-74 55 -104 55q-67 0 -137 -121z" />
<glyph unicode="&#x3bc;" d="M1311 -78l-111 158q-186 -104 -401 -105q-285 0 -464 179.5t-179 449.5q0 217 107.5 412.5t305 318.5t437.5 123q285 0 465 -179t180 -450q0 -170 -69 -329.5t-191 -280.5l125 -158zM825 207q129 0 244 65l-203 254l207 142l172 -246q143 176 144 393q0 180 -110 296 t-298 116q-160 0 -292 -91.5t-201.5 -230.5t-69.5 -287q0 -182 109.5 -296.5t297.5 -114.5z" />
<glyph unicode="&#x2000;" horiz-adv-x="944" />
<glyph unicode="&#x2001;" horiz-adv-x="1888" />
<glyph unicode="&#x2002;" horiz-adv-x="944" />
<glyph unicode="&#x2003;" horiz-adv-x="1888" />
<glyph unicode="&#x2004;" horiz-adv-x="628" />
<glyph unicode="&#x2005;" horiz-adv-x="471" />
<glyph unicode="&#x2006;" horiz-adv-x="313" />
<glyph unicode="&#x2007;" horiz-adv-x="313" />
<glyph unicode="&#x2008;" horiz-adv-x="235" />
<glyph unicode="&#x2009;" horiz-adv-x="376" />
<glyph unicode="&#x200a;" horiz-adv-x="104" />
<glyph unicode="&#x2010;" horiz-adv-x="841" d="M109 506l65 244h606l-65 -244h-606z" />
<glyph unicode="&#x2011;" horiz-adv-x="841" d="M109 506l65 244h606l-65 -244h-606z" />
<glyph unicode="&#x2012;" horiz-adv-x="841" d="M109 506l65 244h606l-65 -244h-606z" />
<glyph unicode="&#x2013;" horiz-adv-x="1085" d="M109 510l63 235h852l-63 -235h-852z" />
<glyph unicode="&#x2014;" horiz-adv-x="1843" d="M109 510l63 235h1610l-64 -235h-1609z" />
<glyph unicode="&#x2018;" horiz-adv-x="600" d="M223 866l64 238q47 172 141 251t256 89l18 -105q-207 -29 -235 -192h104l-75 -281h-273z" />
<glyph unicode="&#x2019;" horiz-adv-x="600" d="M209 854l-19 107q207 29 236 192h-104l75 281h273l-64 -240q-47 -170 -141 -249t-256 -91z" />
<glyph unicode="&#x201a;" horiz-adv-x="600" d="M-92 -297l-19 104q203 29 236 193h-107l76 281h273l-64 -238q-45 -172 -139 -250t-256 -90z" />
<glyph unicode="&#x201c;" horiz-adv-x="1073" d="M698 864l66 240q45 170 139 249t256 91l19 -107q-207 -29 -236 -190h107l-76 -283h-275zM225 864l64 240q45 170 139 249t256 91l18 -107q-207 -29 -235 -190h106l-75 -283h-273z" />
<glyph unicode="&#x201d;" horiz-adv-x="1073" d="M678 854l-19 107q207 29 236 192h-104l75 281h273l-64 -240q-47 -170 -141 -249t-256 -91zM205 854l-19 107q205 29 236 192h-107l76 281h273l-64 -240q-45 -170 -139 -249t-256 -91z" />
<glyph unicode="&#x201e;" horiz-adv-x="1075" d="M383 -297l-18 104q207 29 235 193h-106l75 281h273l-64 -238q-45 -172 -139 -250t-256 -90zM-92 -297l-19 104q203 29 236 193h-107l76 281h273l-64 -238q-45 -172 -139 -250t-256 -90z" />
<glyph unicode="&#x2022;" horiz-adv-x="1005" d="M496 424q-106 0 -169 62.5t-63 170.5q0 141 95.5 253t234.5 112q106 0 167.5 -63.5t61.5 -170.5q0 -141 -95 -252.5t-232 -111.5z" />
<glyph unicode="&#x2026;" horiz-adv-x="1669" d="M1096 0l75 276h267l-74 -276h-268zM557 0l74 276h268l-74 -276h-268zM18 0l74 276h268l-75 -276h-267z" />
<glyph unicode="&#x202f;" horiz-adv-x="376" />
<glyph unicode="&#x2039;" horiz-adv-x="724" d="M311 70l-217 450l4 17l471 462l148 -133l-371 -362l166 -342z" />
<glyph unicode="&#x203a;" horiz-adv-x="724" d="M152 70l-146 131l369 364l-164 342l199 90l219 -448l-4 -17z" />
<glyph unicode="&#x2044;" horiz-adv-x="1083" d="M-248 -201l1424 1753h229l-1425 -1753h-228z" />
<glyph unicode="&#x205f;" horiz-adv-x="471" />
<glyph unicode="&#x2122;" horiz-adv-x="1427" d="M743 803l175 631h120l109 -299l270 299h135l-174 -631h-116l124 448l-276 -303h-12l-113 303l-125 -448h-117zM293 803l141 520h-192l30 111h508l-28 -111h-195l-143 -520h-121z" />
<glyph unicode="&#xe000;" horiz-adv-x="1080" d="M0 1080h1080v-1080h-1080v1080z" />
<glyph unicode="&#xfb01;" horiz-adv-x="1398" d="M1161 1247l66 236h266l-63 -236h-269zM68 0l233 868h-137l57 213h137l21 88q90 336 412 336q125 0 213 -37l-56 -206q-78 33 -151 32q-137 0 -179 -151l-16 -62h299l-57 -213h-295l-234 -868h-247zM836 0l290 1081h248l-291 -1081h-247z" />
<glyph unicode="&#xfb02;" horiz-adv-x="1398" d="M68 0l233 868h-137l57 213h137l21 88q90 336 412 336q125 0 213 -37l-56 -206q-78 33 -151 32q-137 0 -179 -151l-16 -62h299l-57 -213h-295l-234 -868h-247zM836 0l401 1495h248l-402 -1495h-247z" />
<glyph unicode="&#xfb03;" horiz-adv-x="2207" d="M1972 1247l64 236h268l-66 -236h-266zM1647 0l290 1081h248l-291 -1081h-247zM879 0l233 868h-137l57 213h137l21 88q90 336 412 336q125 0 213 -37l-56 -206q-78 33 -151 32q-137 0 -179 -151l-16 -62h299l-57 -213h-295l-234 -868h-247zM68 0l233 868h-137l57 213h137 l21 88q90 336 412 336q125 0 213 -37l-56 -206q-78 33 -151 32q-137 0 -179 -151l-16 -62h299l-57 -213h-295l-234 -868h-247z" />
<glyph unicode="&#xfb04;" horiz-adv-x="2207" d="M1647 0l401 1495h248l-402 -1495h-247zM879 0l233 868h-137l57 213h137l21 88q90 336 412 336q125 0 213 -37l-56 -206q-78 33 -151 32q-137 0 -179 -151l-16 -62h299l-57 -213h-295l-234 -868h-247zM68 0l233 868h-137l57 213h137l21 88q90 336 412 336q125 0 213 -37 l-56 -206q-78 33 -151 32q-137 0 -179 -151l-16 -62h299l-57 -213h-295l-234 -868h-247z" />
</font>
</defs>
</svg>
