<?xml version="1.0" standalone="no"?>
<!DOCTYPE svg PUBLIC "-//W3C//DTD SVG 1.1//EN" "http://www.w3.org/Graphics/SVG/1.1/DTD/svg11.dtd" >
<svg xmlns="http://www.w3.org/2000/svg">
<metadata>
This is a custom SVG webfont generated by Font Squirrel.
Copyright   : HTF Gothama c 2003 The Hoefler Type Foundry Inc Info wwwtypographycom
</metadata>
<defs>
<font id="webfonts6hxCHer" horiz-adv-x="1724" >
<font-face units-per-em="2048" ascent="1638" descent="-410" />
<missing-glyph horiz-adv-x="573" />
<glyph unicode=" "  horiz-adv-x="573" />
<glyph unicode="&#x09;" horiz-adv-x="573" />
<glyph unicode="&#xa0;" horiz-adv-x="573" />
<glyph unicode="!" horiz-adv-x="397" d="M188 375l-12 837v222h45v-222l-12 -837h-21zM162 0v106h74v-106h-74z" />
<glyph unicode="&#x22;" horiz-adv-x="622" d="M385 913l72 521h51v-4l-98 -517h-25zM123 913l72 521h51v-4l-99 -517h-24z" />
<glyph unicode="#" horiz-adv-x="1351" d="M266 0l70 412h-236v39h242l94 544h-254v39h260l70 400h41l-70 -400h490l69 400h41l-69 -400h235v-39h-241l-93 -544h252v-39h-260l-69 -412h-41l69 412h-489l-70 -412h-41zM383 449h489l95 548h-488z" />
<glyph unicode="$" horiz-adv-x="1273" d="M618 2q-276 23 -481 219l31 31q195 -190 450 -213v676q-221 49 -325.5 131t-104.5 227v4q0 150 120 252.5t310 102.5v120h39v-120q240 -12 418 -168l-28 -33q-176 154 -390 164v-650q240 -53 351.5 -137t111.5 -233v-4q0 -162 -121.5 -266.5t-322.5 -104.5h-19v-201h-39 v203zM618 1395q-172 0 -278.5 -91.5t-106.5 -224.5v-4q0 -129 89.5 -198.5t295.5 -118.5v637zM657 37h21q178 0 287.5 94t109.5 238v4q0 137 -97 206.5t-321 125.5v-668z" />
<glyph unicode="%" horiz-adv-x="1626" d="M428 713q-139 0 -228 108.5t-89 257.5v4q0 150 89 258.5t228 108.5t228 -108.5t89 -258.5v-4q0 -152 -88 -259t-229 -107zM264 0l1053 1434h45l-1053 -1434h-45zM1198 -16q-139 0 -228 108.5t-89 257.5v4q0 150 89 258.5t228 108.5t228.5 -108.5t89.5 -258.5v-4 q0 -152 -88.5 -259t-229.5 -107zM430 752q121 0 195.5 95t74.5 230v4q0 133 -76.5 231.5t-197.5 98.5t-195.5 -96t-74.5 -230v-4q0 -133 76.5 -231t197.5 -98zM1200 23q121 0 195.5 95t74.5 230v4q0 133 -76.5 231.5t-197.5 98.5t-195.5 -96.5t-74.5 -229.5v-4 q0 -133 76.5 -231t197.5 -98z" />
<glyph unicode="&#x26;" horiz-adv-x="1363" d="M1260 -20l-244 264q-211 -264 -486 -264q-184 0 -304 108.5t-120 261.5v4q0 86 31 156t94.5 123t122 86t148.5 76q-193 201 -193 362v4q0 115 88 206t238 91q139 0 228 -87t89 -202v-4q0 -115 -85 -201.5t-296 -181.5l443 -477q111 156 200 402l39 -13 q-94 -254 -213 -418l250 -270zM543 811q207 90 286.5 170t79.5 184v4q0 98 -76.5 174t-197.5 76q-127 0 -205 -78.5t-78 -177.5v-4q1 -155 191 -348zM530 20q260 0 459 252l-457 492q-90 -41 -143 -70.5t-115.5 -80t-92 -114t-29.5 -145.5v-4q0 -135 105 -232.5t273 -97.5z " />
<glyph unicode="'" horiz-adv-x="360" d="M123 913l72 521h51v-4l-99 -517h-24z" />
<glyph unicode="(" horiz-adv-x="798" d="M674 -287q-264 152 -400.5 376t-136.5 498.5t136.5 499t400.5 375.5l20 -32q-250 -141 -380 -359.5t-130 -482.5t130 -482.5t380 -359.5z" />
<glyph unicode=")" horiz-adv-x="798" d="M125 -287l-21 33q250 141 380 359.5t130 482.5t-130 482t-380 360l21 32q264 -152 400.5 -376t136.5 -498.5t-136.5 -498.5t-400.5 -376z" />
<glyph unicode="*" horiz-adv-x="880" d="M418 831l12 287l-242 -155l-24 38l258 134l-258 133l24 39l242 -156l-12 287h45l-12 -287l241 156l25 -39l-258 -133l258 -134l-25 -38l-241 155l12 -287h-45z" />
<glyph unicode="+" horiz-adv-x="1130" d="M545 272v430h-408v37h408v430h41v-430h407v-37h-407v-430h-41z" />
<glyph unicode="," horiz-adv-x="335" d="M129 -166l-14 27q57 27 53 139h-37v106h74v-94q0 -84 -17.5 -122t-58.5 -56z" />
<glyph unicode="-" horiz-adv-x="794" d="M143 588v43h508v-43h-508z" />
<glyph unicode="." horiz-adv-x="335" d="M131 0v106h74v-106h-74z" />
<glyph unicode="/" horiz-adv-x="964" d="M-37 -262l963 1896h47l-963 -1896h-47z" />
<glyph unicode="0" horiz-adv-x="1454" d="M727 -25q-268 0 -427 215.5t-159 524.5v4q0 307 159 523t427 216t427 -215t159 -524v-4q0 -307 -159 -523.5t-427 -216.5zM729 16q166 0 291 98.5t186.5 255t61.5 343.5v4q0 289 -147.5 494.5t-395.5 205.5q-166 0 -291 -98t-186.5 -255t-61.5 -343v-4q0 -289 147.5 -495 t395.5 -206z" />
<glyph unicode="1" horiz-adv-x="645" d="M354 0v1393l-268 -121l-18 39l292 133h37v-1444h-43z" />
<glyph unicode="2" horiz-adv-x="1161" d="M82 0v27l649 628q152 147 204 245.5t52 189.5q0 133 -107.5 228t-271.5 95q-289 0 -446 -289l-39 23q166 307 487 307q184 0 303 -104.5t119 -255.5v-4q0 -104 -54 -206t-220 -261l-602 -582h897v-41h-971z" />
<glyph unicode="3" horiz-adv-x="1099" d="M535 -25q-162 0 -294 70t-221 186l37 29q82 -111 206 -177.5t274 -66.5q174 0 295.5 100.5t121.5 252.5v4q0 182 -141 269t-391 87h-49l-15 29l557 635h-817v41h877v-33l-553 -631q274 -2 425.5 -100.5t151.5 -294.5v-4q0 -170 -135.5 -283t-328.5 -113z" />
<glyph unicode="4" horiz-adv-x="1269" d="M928 0v375h-844l-12 26l862 1043h37v-1028h235v-41h-235v-375h-43zM135 416h793v958z" />
<glyph unicode="5" horiz-adv-x="1210" d="M602 -25q-141 0 -275 65.5t-214 164.5l34 31q80 -96 201 -158t256 -62q197 0 322 114t125 292v4q0 170 -126 276.5t-313 106.5q-203 0 -381 -96l-26 14l43 707h764v-41h-723l-37 -623q166 80 364 80q207 0 343.5 -118t136.5 -304v-4q0 -197 -138.5 -323t-355.5 -126z" />
<glyph unicode="6" horiz-adv-x="1282" d="M672 -25q-213 0 -359 146q-170 170 -170 551v4q0 344 150.5 563t413.5 219q223 0 401 -166l-29 -32q-170 158 -374 157q-240 0 -378.5 -210t-138.5 -531v-4q0 -57 5 -180q16 158 153 272.5t318 114.5q215 0 357 -125t142 -316v-4q0 -186 -142 -322.5t-349 -136.5zM674 16 q184 0 314 125t130 291v4q0 174 -130 288t-326 114q-178 0 -308.5 -119t-130.5 -279v-4q0 -170 132.5 -295t318.5 -125z" />
<glyph unicode="7" horiz-adv-x="1091" d="M283 0l704 1393h-881v41h932v-27l-706 -1407h-49z" />
<glyph unicode="8" horiz-adv-x="1282" d="M641 -20q-240 0 -382 111.5t-142 273.5v4q0 137 106.5 238.5t268.5 131.5q-147 37 -232.5 127t-85.5 217v4q0 156 134 261.5t333 105.5t333 -105.5t134 -261.5v-4q0 -127 -85 -217t-232 -127q162 -35 268 -136t106 -234v-4q0 -162 -142 -273.5t-382 -111.5zM643 760 q178 0 299 89t121 232v4q0 139 -123 233.5t-301 94.5t-299 -92t-121 -231v-5q0 -143 123 -234t301 -91zM643 20q217 0 347 98.5t130 243.5v5q0 152 -140 252t-341 100t-339 -98.5t-138 -249.5v-4q0 -145 132 -246t349 -101z" />
<glyph unicode="9" horiz-adv-x="1282" d="M575 -25q-236 0 -413 179l31 32q174 -170 385 -170q240 0 378 210t138 532v4q0 76 -4 174q-16 -164 -152.5 -278.5t-319.5 -114.5q-215 0 -357 125t-142 321v4q0 195 143.5 330t347.5 135q213 0 359 -145q170 -170 170 -551v-4q0 -344 -151 -563.5t-413 -219.5zM621 584 q178 0 308 118.5t130 284.5v4q0 178 -131 302t-320 124q-182 0 -313 -125t-131 -297v-4q0 -180 130 -293.5t327 -113.5z" />
<glyph unicode=":" horiz-adv-x="344" d="M135 918v106h74v-106h-74zM135 0v106h74v-106h-74z" />
<glyph unicode=";" horiz-adv-x="344" d="M135 918v106h74v-106h-74zM133 -166l-14 27q57 27 53 139h-37v106h74v-94q0 -84 -17.5 -122t-58.5 -56z" />
<glyph unicode="&#x3c;" horiz-adv-x="1228" d="M1059 229l-942 482v20l942 481v-47l-877 -444l877 -445v-47z" />
<glyph unicode="=" horiz-adv-x="1228" d="M190 942v41h848v-41h-848zM190 461v41h848v-41h-848z" />
<glyph unicode="&#x3e;" horiz-adv-x="1228" d="M170 229v47l877 445l-877 444v47l942 -481v-20z" />
<glyph unicode="?" horiz-adv-x="1021" d="M436 375l-16 321l6 6q197 14 320.5 109.5t123.5 251.5v4q0 145 -108.5 244.5t-278.5 99.5q-123 0 -227 -65.5t-170 -174.5l-37 25q160 256 436 256q190 0 310 -110.5t120 -272.5v-4q0 -174 -130 -277.5t-314 -121.5l-14 -291h-21zM410 0v106h73v-106h-73z" />
<glyph unicode="@" horiz-adv-x="1943" d="M1001 -334q-371 0 -620.5 243t-249.5 628q0 180 64.5 348t176 294t272.5 202.5t341 76.5q350 0 588.5 -234.5t238.5 -557.5q0 -244 -105 -372t-232 -128q-113 0 -167.5 72.5t-50.5 175.5q-53 -111 -150 -179.5t-208 -68.5q-147 0 -242.5 91t-95.5 247q0 201 128 340 t298 139q119 0 206 -68.5t107 -181.5l37 203l41 -8l-71 -391q-10 -51 -11 -115q0 -219 179 -219q113 0 205 117.5t92 343.5q0 311 -227.5 534t-561.5 223q-229 0 -417.5 -123.5t-291 -325.5t-102.5 -433q0 -371 238.5 -603.5t593.5 -232.5q270 0 475 137l22 -33 q-211 -141 -500 -141zM899 207q156 0 267.5 132t111.5 300q0 129 -83 216t-208 87q-154 0 -267.5 -127t-113.5 -309q0 -139 81 -219t212 -80z" />
<glyph unicode="A" horiz-adv-x="1570" d="M76 0l690 1444h39l690 -1444h-49l-205 430h-913l-205 -430h-47zM348 471h873l-437 913z" />
<glyph unicode="B" horiz-adv-x="1484" d="M213 0v1434h588q254 0 377 -123q92 -92 92 -238v-4q0 -129 -76 -219t-201 -119q152 -23 252.5 -119t100.5 -237v-4q0 -176 -134.5 -273.5t-377.5 -97.5h-621zM258 745h576q170 0 280.5 82t110.5 240v4q0 147 -114 234.5t-312 87.5h-541v-648zM258 41h576q221 0 343.5 86 t122.5 242v4q0 156 -122.5 244t-309.5 88h-610v-664z" />
<glyph unicode="C" horiz-adv-x="1486" d="M850 -25q-299 0 -499.5 215.5t-200.5 522.5v4q0 307 200.5 524t503.5 217q186 0 307 -57.5t238 -169.5l-31 -31q-104 100 -223 158.5t-293 58.5q-281 0 -469 -205.5t-188 -492.5v-4q0 -289 189 -494t468 -205q305 0 522 234l33 -31q-231 -244 -557 -244z" />
<glyph unicode="D" horiz-adv-x="1585" d="M213 0v1434h461q334 0 548 -205t214 -510v-4q0 -305 -214 -510t-548 -205h-461zM258 41h418q313 0 514 193.5t201 478.5v4q0 287 -203 481.5t-516 194.5h-414v-1352z" />
<glyph unicode="E" horiz-adv-x="1353" d="M213 0v1434h1001v-41h-956v-652h868v-41h-868v-659h967v-41h-1012z" />
<glyph unicode="F" horiz-adv-x="1277" d="M213 0v1434h991v-41h-946v-666h858v-41h-858v-686h-45z" />
<glyph unicode="G" horiz-adv-x="1595" d="M856 -25q-326 0 -516 213t-190 525v4q0 195 83.5 361.5t248.5 273t376 106.5q156 0 269.5 -45t228.5 -139l-29 -35q-109 88 -217.5 133t-253.5 45q-291 0 -476 -210t-185 -488v-4q0 -291 180 -495t483 -204q279 0 510 197v461h-528v45h573v-522q-244 -222 -557 -222z" />
<glyph unicode="H" horiz-adv-x="1540" d="M213 0v1434h45v-691h1024v691h45v-1434h-45v702h-1024v-702h-45z" />
<glyph unicode="I" horiz-adv-x="499" d="M227 0v1434h45v-1434h-45z" />
<glyph unicode="J" horiz-adv-x="1093" d="M471 -23q-135 0 -245.5 76t-164.5 211l41 19q49 -125 147.5 -195t225.5 -70q166 0 272.5 119t106.5 350v947h45v-940q0 -266 -135 -402q-115 -115 -293 -115z" />
<glyph unicode="K" horiz-adv-x="1443" d="M213 0v1434h45v-969l991 969h64l-623 -605l645 -829h-55l-621 799l-401 -391v-408h-45z" />
<glyph unicode="L" horiz-adv-x="1196" d="M213 0v1434h45v-1393h881v-41h-926z" />
<glyph unicode="M" horiz-adv-x="1759" d="M213 0v1434h43l625 -889l624 889h41v-1434h-45v1358l-620 -885h-2l-621 885v-1358h-45z" />
<glyph unicode="N" horiz-adv-x="1597" d="M213 0v1434h39l1089 -1360v1360h43v-1434h-38l-1090 1360v-1360h-43z" />
<glyph unicode="O" d="M862.5 -25q-315.5 0 -514 218.5t-198.5 521.5v4q0 303 198.5 521t514 218t514 -218t198.5 -521v-4q0 -303 -198.5 -521.5t-514 -218.5zM864 16q293 0 479.5 206t186.5 491v4q0 285 -189.5 492.5t-480.5 207.5q-293 0 -479 -205.5t-186 -490.5v-4q0 -285 189 -493 t480 -208z" />
<glyph unicode="P" horiz-adv-x="1368" d="M211 0v1434h504q262 0 406.5 -114t144.5 -316v-5q0 -207 -148.5 -321.5t-410.5 -114.5h-451v-563h-45zM256 604h451q242 0 378 102.5t136 290.5v4q0 184 -135.5 288t-374.5 104h-455v-789z" />
<glyph unicode="Q" d="M1556 -18l-208 182q-203 -188 -486 -189q-315 0 -513.5 218.5t-198.5 521.5v4q0 303 198.5 521t514 218t514 -218t198.5 -521v-4q0 -305 -197 -520l207 -181zM864 16q264 0 451 177l-318 276l29 33l320 -279q184 201 184 490v4q0 285 -189.5 492.5t-480.5 207.5 q-293 0 -479 -205.5t-186 -490.5v-4q0 -285 189 -493t480 -208z" />
<glyph unicode="R" horiz-adv-x="1482" d="M213 0v1434h586q276 0 411 -136q102 -102 103 -266v-4q0 -178 -128 -283.5t-341 -117.5l477 -627h-55l-475 625h-7h-526v-625h-45zM258 666h518q240 0 366 100t126 260v4q0 170 -125 266.5t-348 96.5h-537v-727z" />
<glyph unicode="S" horiz-adv-x="1314" d="M688 -20q-326 0 -567 229l33 33q227 -221 538 -222q199 0 320 95.5t121 242.5v4q0 135 -101.5 213t-368 131.5t-378 139.5t-111.5 237v4q0 152 133 259.5t334 107.5q274 0 487 -164l-28 -37q-211 160 -463 160q-182 0 -300 -96t-118 -227v-5q0 -133 101.5 -208.5 t361.5 -128.5q274 -55 385 -144.5t111 -238.5v-5q0 -164 -133.5 -272t-356.5 -108z" />
<glyph unicode="T" horiz-adv-x="1191" d="M573 0v1393h-518v41h1082v-41h-519v-1393h-45z" />
<glyph unicode="U" horiz-adv-x="1540" d="M770 -23q-264 0 -422 168t-158 490v799h46v-799q0 -301 145 -459t391 -158q248 0 390.5 157t142.5 458v801h45v-799q0 -322 -157 -490t-423 -168z" />
<glyph unicode="V" horiz-adv-x="1488" d="M727 -10l-651 1444h49l620 -1381l621 1381h47l-651 -1444h-35z" />
<glyph unicode="W" horiz-adv-x="2082" d="M567 -10l-477 1444h47l451 -1373l436 1377h35l438 -1379l451 1375h45l-477 -1444h-39l-437 1364l-434 -1364h-39z" />
<glyph unicode="X" horiz-adv-x="1376" d="M76 0l586 729l-566 705h54l538 -674l537 674h55l-565 -705l585 -729h-53l-559 700l-557 -700h-55z" />
<glyph unicode="Y" horiz-adv-x="1345" d="M651 0v600l-606 834h53l578 -795l571 795h53l-604 -834v-600h-45z" />
<glyph unicode="Z" horiz-adv-x="1388" d="M135 0v27l1039 1366h-1004v41h1067v-27l-1038 -1366h1032v-41h-1096z" />
<glyph unicode="[" horiz-adv-x="839" d="M201 -266v1700h538v-35h-493v-1630h493v-35h-538z" />
<glyph unicode="\" horiz-adv-x="964" d="M954 -262l-962 1896h47l962 -1896h-47z" />
<glyph unicode="]" horiz-adv-x="839" d="M100 -266v35h494v1630h-494v35h539v-1700h-539z" />
<glyph unicode="^" horiz-adv-x="1024" d="M180 1012l320 428h24l320 -428h-35l-297 374l-297 -374h-35z" />
<glyph unicode="_" horiz-adv-x="1126" d="M-4 -305v41h1134v-41h-1134z" />
<glyph unicode="`" horiz-adv-x="1024" d="M571 1219l-219 229l51 25l197 -254h-29z" />
<glyph unicode="a" horiz-adv-x="1159" d="M487 -25q-160 0 -271.5 81t-111.5 227v4q0 156 128 240.5t329 84.5q209 0 385 -63v86q0 182 -101.5 273t-285.5 91q-162 0 -340 -86l-16 37q184 90 358 90q215 0 328 -112q100 -100 100 -291v-637h-43v242q-37 -104 -158 -185.5t-301 -81.5zM489 16q199 0 328 107.5 t129 251.5v131q-174 66 -383 65q-182 0 -297.5 -73.5t-115.5 -208.5v-4q0 -129 98 -199t241 -70z" />
<glyph unicode="b" horiz-adv-x="1341" d="M707 -25q-174 0 -301 95.5t-173 246.5v-317h-43v1495h43v-788q45 152 172 247t302 95q221 0 366.5 -155t145.5 -380v-4q0 -225 -145.5 -380t-366.5 -155zM705 16q207 0 338 141.5t131 350.5v4q0 209 -131.5 352.5t-337.5 143.5q-205 0 -339.5 -144.5t-134.5 -349.5v-4 q0 -203 135.5 -348.5t338.5 -145.5z" />
<glyph unicode="c" horiz-adv-x="1148" d="M641 -25q-219 0 -370.5 158t-151.5 377v4q0 221 151.5 378t372.5 157q229 0 410 -191l-31 -29q-168 178 -381 179q-203 0 -340 -144.5t-137 -347.5v-4q0 -201 140 -348.5t339 -147.5q217 0 385 191l31 -29q-174 -203 -418 -203z" />
<glyph unicode="d" horiz-adv-x="1341" d="M635 -25q-221 0 -366.5 155t-145.5 380v4q0 225 145.5 380t366.5 155q174 0 301 -95.5t172 -246.5v788h43v-1495h-43v317q-45 -152 -172 -247t-301 -95zM637 16q205 0 339 144.5t134 349.5v4q0 203 -135 348.5t-338 145.5q-207 0 -338 -141.5t-131 -350.5v-4 q0 -209 131 -352.5t338 -143.5z" />
<glyph unicode="e" horiz-adv-x="1193" d="M631 -25q-217 0 -364.5 147.5t-147.5 389.5v4q0 227 139 380t352 153q225 0 348 -164t123 -377v-8h-915q6 -217 140 -350.5t327 -133.5q113 0 213 58.5t166 148.5l35 -24q-70 -100 -178.5 -162t-237.5 -62zM166 539h868q-6 188 -119.5 328.5t-306.5 140.5 q-188 0 -311 -133t-131 -336z" />
<glyph unicode="f" horiz-adv-x="665" d="M262 0v985h-162v39h162v147q0 174 84 259q72 72 195 71q80 0 143 -28v-43q-61 29 -143 28q-236 0 -236 -295v-139h375v-39h-375v-985h-43z" />
<glyph unicode="g" horiz-adv-x="1323" d="M635 -334q-252 0 -465 158l27 35q199 -152 438 -152q209 0 332 118t123 339v209q-57 -133 -182.5 -215t-278.5 -82q-209 0 -357.5 142t-148.5 341v4q0 201 148.5 343.5t357.5 142.5q154 0 278.5 -82t182.5 -215v272h43v-868q0 -227 -131 -358.5t-367 -131.5zM630.5 117 q190.5 0 327 130t136.5 310v4q0 180 -136.5 313.5t-326.5 133.5q-193 0 -327 -130t-134 -313v-4q0 -184 135 -314t325.5 -130z" />
<glyph unicode="h" horiz-adv-x="1245" d="M190 0v1495h43v-752q31 113 138.5 209.5t273.5 96.5q205 0 317.5 -127t112.5 -342v-580h-43v575q0 197 -101.5 315t-289.5 118q-170 0 -289 -128t-119 -313v-567h-43z" />
<glyph unicode="i" horiz-adv-x="448" d="M193 1317v117h63v-117h-63zM203 0v1024h43v-1024h-43z" />
<glyph unicode="j" horiz-adv-x="452" d="M197 1317v117h63v-117h-63zM47 -342q-41 0 -74 8v41q27 -8 74 -8q72 0 116 52t44 147v1126h43v-1122q0 -119 -54.5 -181.5t-148.5 -62.5z" />
<glyph unicode="k" horiz-adv-x="1112" d="M190 0v1495h43v-1137l711 666h57l-487 -453l520 -571h-53l-494 545l-254 -236v-309h-43z" />
<glyph unicode="l" horiz-adv-x="448" d="M203 0v1495h43v-1495h-43z" />
<glyph unicode="m" horiz-adv-x="1890" d="M190 0v1024h43v-262q25 109 125.5 198t229.5 89q158 0 250 -85t123 -221q31 119 133 212.5t233 93.5q176 0 280.5 -115t104.5 -328v-606h-43v602q0 195 -94 300.5t-250 105.5q-137 0 -244.5 -120t-107.5 -290v-598h-43v602q0 195 -94.5 300.5t-249.5 105.5 q-137 0 -245 -120t-108 -290v-598h-43z" />
<glyph unicode="n" horiz-adv-x="1245" d="M190 0v1024h43v-281q31 113 138.5 209.5t273.5 96.5q205 0 317.5 -127t112.5 -342v-580h-43v575q0 197 -101.5 315t-289.5 118q-170 0 -289 -128t-119 -313v-567h-43z" />
<glyph unicode="o" horiz-adv-x="1298" d="M649 -25q-233 0 -382.5 156t-149.5 377v4q0 221 148.5 379t383.5 158q233 0 383 -156t150 -377v-4q0 -221 -148.5 -379t-384.5 -158zM651 16q213 0 349.5 144.5t136.5 349.5v4q0 205 -139.5 349.5t-350.5 144.5q-213 0 -349 -144.5t-136 -349.5v-4q0 -205 139 -349.5 t350 -144.5z" />
<glyph unicode="p" horiz-adv-x="1341" d="M190 -328v1352h43v-317q45 152 172 247t302 95q221 0 366.5 -155t145.5 -380v-4q0 -225 -145.5 -380t-366.5 -155q-174 0 -301 95.5t-173 246.5v-645h-43zM705 16q207 0 338 141.5t131 350.5v4q0 209 -131.5 352.5t-337.5 143.5q-205 0 -339.5 -144.5t-134.5 -349.5v-4 q0 -203 135.5 -348.5t338.5 -145.5z" />
<glyph unicode="q" horiz-adv-x="1341" d="M1108 -328v645q-45 -152 -172 -247t-301 -95q-221 0 -366.5 155t-145.5 380v4q0 225 145.5 380t366.5 155q174 0 301 -95.5t172 -246.5v317h43v-1352h-43zM637 16q205 0 339 144.5t134 349.5v4q0 203 -135 348.5t-338 145.5q-207 0 -338 -141.5t-131 -350.5v-4 q0 -209 131 -352.5t338 -143.5z" />
<glyph unicode="r" horiz-adv-x="686" d="M190 0v1024h43v-328q39 143 152 249q110 103 264 104h6v-41h-10q-178 0 -295 -156t-117 -322v-530h-43z" />
<glyph unicode="s" horiz-adv-x="1003" d="M504 -18q-233 0 -414 151l27 35q174 -145 389 -145q139 0 231 64.5t92 162.5v4q0 45 -21.5 82t-46 59.5t-80.5 46t-87 32.5l-100 30q-186 53 -272.5 108.5t-86.5 165.5v4q0 111 99.5 185.5t257.5 74.5q193 0 356 -114l-25 -37q-156 111 -331 110q-137 0 -224.5 -62 t-87.5 -155v-4q0 -92 82 -141t244 -94q72 -20 118 -34.5t98 -40.5t82 -53.5t50 -68.5t20 -92v-4q0 -119 -104 -194.5t-266 -75.5z" />
<glyph unicode="t" horiz-adv-x="763" d="M508 -18q-127 0 -194.5 72.5t-67.5 207.5v723h-162v39h162v354h43v-354h379v-39h-379v-719q0 -117 55 -180t164 -63q82 0 156 36v-45q-72 -32 -156 -32z" />
<glyph unicode="u" horiz-adv-x="1245" d="M600 -25q-205 0 -317.5 127t-112.5 342v580h43v-575q0 -197 101.5 -315t289.5 -118q170 0 289 128t119 313v567h43v-1024h-43v281q-31 -113 -138.5 -209.5t-273.5 -96.5z" />
<glyph unicode="v" horiz-adv-x="1146" d="M559 -8l-475 1032h47l444 -979l443 979h45l-471 -1032h-33z" />
<glyph unicode="w" horiz-adv-x="1646" d="M457 -8l-359 1032h45l330 -967l334 973h35l332 -973l331 967h43l-358 -1032h-35l-332 975l-331 -975h-35z" />
<glyph unicode="x" horiz-adv-x="1085" d="M70 0l448 520l-432 504h51l406 -477l407 477h49l-432 -504l449 -520h-51l-422 494l-424 -494h-49z" />
<glyph unicode="y" horiz-adv-x="1165" d="M283 -334q-102 0 -193 55l21 35q86 -51 172 -51q92 0 153.5 58.5t143.5 236.5l-494 1024h47l467 -979l440 979h45l-475 -1044q-86 -188 -154.5 -251t-172.5 -63z" />
<glyph unicode="z" horiz-adv-x="997" d="M74 0v25l780 960h-756v39h820v-25l-781 -960h785v-39h-848z" />
<glyph unicode="{" horiz-adv-x="901" d="M760 -289q-88 16 -151.5 39t-104.5 54.5t-64.5 61.5t-35 79t-14.5 87t-3 101v164q0 117 -62.5 193.5t-193.5 76.5h-41v41h41q131 0 193.5 77t62.5 194v163q0 63 3 101.5t14.5 87.5t35 78.5t64.5 61.5t104.5 54.5t151.5 38.5l8 -39q-117 -23 -187.5 -56.5t-101 -87.5 t-39 -102.5t-8.5 -136.5v-163q0 -121 -57.5 -200t-169.5 -91q113 -12 170 -91t57 -200v-164q0 -88 8.5 -136t39 -102.5t101 -88t187.5 -56.5z" />
<glyph unicode="|" horiz-adv-x="526" d="M244 -262v1896h39v-1896h-39z" />
<glyph unicode="}" horiz-adv-x="901" d="M141 -289l-8 39q117 23 187.5 56.5t101.5 88t39 102.5t8 136v164q0 121 57.5 199.5t169.5 91.5q-113 12 -170 91t-57 200v163q0 88 -8 136.5t-39 102.5t-101.5 88t-187.5 56l8 39q88 -16 151.5 -38.5t104.5 -54.5t64.5 -61.5t35 -78.5t14.5 -87t3 -102v-163 q0 -117 62.5 -194t193.5 -77h41v-41h-41q-131 0 -193.5 -76.5t-62.5 -193.5v-164q0 -63 -3 -101t-14.5 -87t-35 -79t-64.5 -61.5t-104.5 -54.5t-151.5 -39z" />
<glyph unicode="~" horiz-adv-x="901" d="M199 518l-27 6q35 164 147 164q43 0 138.5 -59.5t128.5 -59.5q78 0 116 129l27 -6q-35 -164 -147 -164q-43 0 -138.5 59.5t-128.5 59.5q-77 0 -116 -129z" />
<glyph unicode="&#xa1;" horiz-adv-x="397" d="M162 1327v107h74v-107h-74zM176 0v221l12 838h21l12 -838v-221h-45z" />
<glyph unicode="&#xa2;" horiz-adv-x="1148" d="M475 -12l43 221q-168 45 -273.5 189.5t-105.5 326.5v4q0 217 153.5 376t371.5 159q37 0 59 -2l37 184h41l-37 -191q166 -33 309 -182l-29 -29q-139 143 -288 173l-193 -979q61 -8 92 -9q231 0 396 189l28 -25q-172 -203 -426 -203q-43 0 -98 11l-41 -213h-39zM526 248 l191 975q-18 2 -55 2q-201 0 -340.5 -146.5t-139.5 -347.5v-4q0 -164 96 -299t248 -180z" />
<glyph unicode="&#xa3;" horiz-adv-x="1226" d="M133 0v27l186 16v610h-186v41h186v240q0 264 138 401q119 119 299 119q242 0 391 -227l-37 -25q-139 211 -356 211q-160 0 -267 -106q-123 -123 -122 -367v-246h618v-41h-618v-612h768v-41h-1000z" />
<glyph unicode="&#xa4;" horiz-adv-x="1474" d="M868 -25q-221 0 -376.5 153t-200.5 404h-191v41h185q-8 90 -9 140v4q0 90 15 164h-191v41h197q51 238 202.5 387t354.5 149q311 0 489 -291l-38 -22q-166 272 -451 272q-188 0 -326.5 -138t-187.5 -357h639v-41h-647q-14 -94 -15 -164v-4q0 -49 9 -140h653v-41h-645 q45 -233 188.5 -374.5t345.5 -141.5q268 0 443 289l37 -20q-187 -310 -480 -310z" />
<glyph unicode="&#xa5;" horiz-adv-x="1263" d="M610 0v246h-422v41h422v307h-422v41h398l-135 201l-271 397l-135 201h57l533 -795l530 795h54l-541 -799h397v-41h-420v-307h420v-41h-420v-246h-45z" />
<glyph unicode="&#xa7;" horiz-adv-x="1294" d="M645 -20q-117 0 -231.5 40.5t-182.5 98.5l29 35q63 -53 172 -93.5t213 -40.5q150 0 239 56.5t89 144.5v4q0 96 -105.5 154.5t-324.5 99.5q-393 72 -393 262v4q0 100 106 167t289 57q-266 68 -266 239v4q0 102 101 172t271 70q117 0 231.5 -41t182.5 -98l-29 -35 q-63 53 -171.5 93t-213.5 40q-150 0 -238.5 -56.5t-88.5 -144.5v-4q0 -96 105.5 -154.5t324.5 -99.5q393 -72 393 -262v-4q0 -100 -106.5 -166.5t-288.5 -56.5q266 -68 266 -240v-4q0 -102 -101.5 -171.5t-271.5 -69.5zM791 498q129 0 220 53t91 133v4q0 82 -86 135.5 t-271 87.5q-125 25 -239 25q-129 0 -220 -53.5t-91 -132.5v-5q0 -82 86 -135t270 -88q125 -24 240 -24z" />
<glyph unicode="&#xa8;" horiz-adv-x="1024" d="M616 1257v107h74v-107h-74zM334 1257v107h74v-107h-74z" />
<glyph unicode="&#xa9;" horiz-adv-x="1699" d="M850 -25q-307 0 -524 217.5t-217 522.5v4q0 305 217 522t524 217t524 -217t217 -522v-4q0 -305 -217 -522.5t-524 -217.5zM850 10q291 0 497.5 207t206.5 498v4q0 291 -206.5 497.5t-497.5 206.5t-498 -206.5t-207 -497.5v-4q0 -291 207 -498t498 -207zM864 336 q-158 0 -264 113.5t-106 273.5v4q0 162 106.5 275.5t265.5 113.5q164 0 289 -121l-29 -28q-113 113 -262 112q-141 0 -235 -103.5t-94 -246.5q-2 -2 0 -4q0 -143 95 -247.5t236 -104.5q152 0 264 121l29 -27q-123 -131 -295 -131z" />
<glyph unicode="&#xaa;" horiz-adv-x="860" d="M387 848q-88 0 -151.5 45t-63.5 127v4q0 86 69.5 133t182.5 47q106 0 203 -30v38q0 190 -205 191q-84 0 -182 -47l-15 33q102 49 199 49q121 0 184 -64q55 -55 56 -160v-354h-37v117q-70 -129 -240 -129zM168 651v31h506v-31h-506zM389 883q102 0 170 55t68 133v70 q-104 31 -205 30q-94 0 -151.5 -38.5t-57.5 -106.5v-4q0 -66 51 -102.5t125 -36.5z" />
<glyph unicode="&#xab;" horiz-adv-x="946" d="M799 96l-361 420v12l361 420l24 -20l-336 -406l336 -405zM451 96l-361 420v12l361 420l24 -20l-336 -406l336 -405z" />
<glyph unicode="&#xad;" horiz-adv-x="794" d="M143 588v43h508v-43h-508z" />
<glyph unicode="&#xae;" horiz-adv-x="1699" d="M850 -25q-307 0 -524 217.5t-217 522.5v4q0 305 217 522t524 217t524 -217t217 -522v-4q0 -305 -217 -522.5t-524 -217.5zM850 10q291 0 497.5 207t206.5 498v4q0 291 -206.5 497.5t-497.5 206.5t-498 -206.5t-207 -497.5v-4q0 -291 207 -498t498 -207zM584 362v750h311 q141 0 213 -72q55 -55 55 -137v-4q0 -92 -61.5 -147.5t-167.5 -67.5l248 -322h-49l-244 318h-8h-256v-318h-41zM625 717h264q111 0 173 48t62 132v4q0 82 -62.5 128t-170.5 46h-266v-358z" />
<glyph unicode="&#xaf;" horiz-adv-x="1024" d="M236 1272v39h552v-39h-552z" />
<glyph unicode="&#xb0;" horiz-adv-x="880" d="M440.5 872q-118.5 0 -206 84t-87.5 201v4q0 117 87.5 201t206 84t205.5 -84t87 -201v-4q0 -117 -87 -201t-205.5 -84zM440.5 909q102.5 0 177 74t74.5 174v4q0 100 -74.5 174t-177 74t-177.5 -73.5t-75 -174.5v-4q0 -100 75 -174t177.5 -74z" />
<glyph unicode="&#xb1;" horiz-adv-x="1146" d="M575 -25q-322 0 -518 263l39 26q82 -113 207 -180.5t275 -67.5q180 0 305 98.5t125 260.5v4q0 166 -127 246t-340 80h-160v40h162q188 0 308 92.5t120 243.5v4q0 137 -117 234.5t-293 97.5q-270 0 -438 -252l-37 25q82 121 205 194.5t272 73.5q197 0 325 -108.5 t128 -262.5v-4q0 -143 -95.5 -238t-234.5 -116q162 -23 264.5 -107.5t102.5 -240.5v-4q0 -174 -140.5 -288t-337.5 -114z" />
<glyph unicode="&#xb2;" horiz-adv-x="1161" d="M82 0v27l649 628q152 147 204 245.5t52 189.5q0 133 -107.5 228t-271.5 95q-289 0 -446 -289l-39 23q166 307 487 307q184 0 303 -104.5t119 -255.5v-4q0 -104 -54 -206t-220 -261l-602 -582h897v-41h-971z" />
<glyph unicode="&#xb3;" horiz-adv-x="1099" d="M535 -25q-162 0 -294 70t-221 186l37 29q82 -111 206 -177.5t274 -66.5q174 0 295.5 100.5t121.5 252.5v4q0 182 -141 269t-391 87h-49l-15 29l557 635h-817v41h877v-33l-553 -631q274 -2 425.5 -100.5t151.5 -294.5v-4q0 -170 -135.5 -283t-328.5 -113z" />
<glyph unicode="&#xb4;" horiz-adv-x="1024" d="M424 1219l197 254l51 -25l-219 -229h-29z" />
<glyph unicode="&#xb5;" d="M1571 -207l-320 295q-170 -113 -389 -113q-315 0 -513.5 218.5t-198.5 521.5v4q0 303 198.5 521t514 218t514 -218t198.5 -521v-4q0 -182 -77 -342t-214 -262l332 -312v-6h-45zM864 16q293 0 479.5 206t186.5 491v4q0 285 -189.5 492.5t-480.5 207.5q-293 0 -479 -205.5 t-186 -490.5v-4q0 -285 189 -493t480 -208z" />
<glyph unicode="&#xb6;" horiz-adv-x="937" d="M680 0v567h-23q-238 0 -394.5 116t-156.5 316v5q0 199 145.5 314.5t375.5 115.5h98v-1434h-45z" />
<glyph unicode="&#xb7;" horiz-adv-x="335" d="M131 545v106h74v-106h-74z" />
<glyph unicode="&#xb8;" horiz-adv-x="1024" d="M403 -289l-45 23l179 276h28z" />
<glyph unicode="&#xb9;" horiz-adv-x="645" d="M354 0v1393l-268 -121l-18 39l292 133h37v-1444h-43z" />
<glyph unicode="&#xba;" horiz-adv-x="862" d="M430 848q-127 0 -210 87t-83 208v4q0 123 84 210t211 87t210 -86t83 -209v-4q0 -121 -84 -209t-211 -88zM147 651v31h568v-31h-568zM434.5 885q108.5 0 179 74.5t70.5 183.5v4q0 109 -72.5 184.5t-181 75.5t-180.5 -75t-72 -183v-4q0 -109 74 -184.5t182.5 -75.5z" />
<glyph unicode="&#xbb;" horiz-adv-x="946" d="M496 96l-25 21l336 405l-336 406l25 20l360 -420v-12zM147 96l-24 21l336 405l-336 406l24 20l361 -420v-12z" />
<glyph unicode="&#xbc;" horiz-adv-x="2740" d="M2398 0v375h-844l-12 26l862 1043h37v-1028h235v-41h-235v-375h-43zM1605 416h793v958zM553 -201l962 1755h48l-963 -1755h-47zM354 0v1393l-268 -121l-18 39l292 133h37v-1444h-43z" />
<glyph unicode="&#xbd;" horiz-adv-x="2631" d="M1552 0v27l649 628q152 147 204 245.5t52 189.5q0 133 -107.5 228t-271.5 95q-289 0 -446 -289l-39 23q166 307 487 307q184 0 303 -104.5t119 -255.5v-4q0 -104 -54 -206t-220 -261l-602 -582h897v-41h-971zM553 -201l962 1755h48l-963 -1755h-47zM354 0v1393l-268 -121 l-18 39l292 133h37v-1444h-43z" />
<glyph unicode="&#xbe;" horiz-adv-x="3194" d="M2853 0v375h-844l-12 26l862 1043h37v-1028h235v-41h-235v-375h-43zM2060 416h793v958zM1008 -201l962 1755h48l-963 -1755h-47zM535 -25q-162 0 -294 70t-221 186l37 29q82 -111 206 -177.5t274 -66.5q174 0 295.5 100.5t121.5 252.5v4q0 182 -141 269t-391 87h-49 l-15 29l557 635h-817v41h877v-33l-553 -631q274 -2 425.5 -100.5t151.5 -294.5v-4q0 -170 -135.5 -283t-328.5 -113z" />
<glyph unicode="&#xbf;" horiz-adv-x="1021" d="M539 1327v107h73v-107h-73zM537 -18q-190 0 -310.5 110.5t-120.5 272.5v4q0 174 130.5 277.5t314.5 121.5l14 291h21l16 -322l-6 -6q-197 -14 -320.5 -109.5t-123.5 -250.5v-4q0 -145 108.5 -244.5t278.5 -99.5q123 0 227 65.5t170 173.5l37 -24q-160 -256 -436 -256z " />
<glyph unicode="&#xc0;" horiz-adv-x="1570" d="M76 0l690 1444h39l690 -1444h-49l-205 430h-913l-205 -430h-47zM348 471h873l-437 913zM786 1567l-219 229l51 25l197 -254h-29z" />
<glyph unicode="&#xc1;" horiz-adv-x="1570" d="M76 0l690 1444h39l690 -1444h-49l-205 430h-913l-205 -430h-47zM348 471h873l-437 913zM762 1567l196 254l52 -25l-219 -229h-29z" />
<glyph unicode="&#xc2;" horiz-adv-x="1570" d="M76 0l690 1444h39l690 -1444h-49l-205 430h-913l-205 -430h-47zM348 471h873l-437 913zM555 1567l217 250h25l217 -250h-35l-195 196l-194 -196h-35z" />
<glyph unicode="&#xc3;" horiz-adv-x="1570" d="M76 0l690 1444h39l690 -1444h-49l-205 430h-913l-205 -430h-47zM348 471h873l-437 913zM532 1579l-26 6q35 164 147 164q43 0 138.5 -59.5t128.5 -59.5q78 0 116 129l27 -6q-35 -164 -148 -164q-43 0 -138 59.5t-128 59.5q-78 0 -117 -129z" />
<glyph unicode="&#xc4;" horiz-adv-x="1570" d="M76 0l690 1444h39l690 -1444h-49l-205 430h-913l-205 -430h-47zM348 471h873l-437 913zM891 1606v106h74v-106h-74zM608 1606v106h74v-106h-74z" />
<glyph unicode="&#xc5;" horiz-adv-x="1570" d="M76 0l659 1380q-63 18 -106 68.5t-43 114.5v4q0 76 59.5 132t139 56t139 -56.5t59.5 -131.5v-4q0 -63 -42 -113.5t-105 -67.5l659 -1382h-49l-205 430h-913l-205 -430h-47zM784.5 1407q65.5 0 113.5 46t48 110v4q0 63 -48 109t-113.5 46t-113.5 -46t-48 -109v-4 q0 -63 48 -109.5t113.5 -46.5zM348 471h873l-437 913z" />
<glyph unicode="&#xc6;" horiz-adv-x="2076" d="M0 0l920 1434h1017v-41h-925v-652h837v-41h-837v-659h936v-41h-981v430h-643l-275 -430h-49zM350 471h617v922h-25z" />
<glyph unicode="&#xc7;" horiz-adv-x="1486" d="M719 -289l-45 23l155 241q-293 8 -486 221.5t-193 516.5v4q0 307 200.5 524t503.5 217q186 0 307 -57.5t238 -169.5l-31 -31q-104 100 -223 158.5t-293 58.5q-281 0 -469 -205.5t-188 -492.5v-4q0 -289 189 -494t468 -205q305 0 522 234l33 -31q-227 -238 -545 -244z" />
<glyph unicode="&#xc8;" horiz-adv-x="1353" d="M213 0v1434h1001v-41h-956v-652h868v-41h-868v-659h967v-41h-1012zM752 1567l-220 229l52 25l196 -254h-28z" />
<glyph unicode="&#xc9;" horiz-adv-x="1353" d="M213 0v1434h1001v-41h-956v-652h868v-41h-868v-659h967v-41h-1012zM649 1567l197 254l51 -25l-219 -229h-29z" />
<glyph unicode="&#xca;" horiz-adv-x="1353" d="M213 0v1434h1001v-41h-956v-652h868v-41h-868v-659h967v-41h-1012zM485 1567l217 250h25l217 -250h-35l-194 196l-195 -196h-35z" />
<glyph unicode="&#xcb;" horiz-adv-x="1353" d="M213 0v1434h1001v-41h-956v-652h868v-41h-868v-659h967v-41h-1012zM819 1606v106h74v-106h-74zM537 1606v106h73v-106h-73z" />
<glyph unicode="&#xcc;" horiz-adv-x="499" d="M227 0v1434h45v-1434h-45zM254 1567l-219 229l51 25l197 -254h-29z" />
<glyph unicode="&#xcd;" horiz-adv-x="499" d="M227 0v1434h45v-1434h-45zM221 1567l197 254l51 -25l-219 -229h-29z" />
<glyph unicode="&#xce;" horiz-adv-x="499" d="M227 0v1434h45v-1434h-45zM20 1567l218 250h24l217 -250h-35l-194 196l-195 -196h-35z" />
<glyph unicode="&#xcf;" horiz-adv-x="499" d="M227 0v1434h45v-1434h-45zM354 1606v106h74v-106h-74zM72 1606v106h73v-106h-73z" />
<glyph unicode="&#xd0;" horiz-adv-x="1646" d="M274 0v700h-153v41h153v693h461q334 0 548 -205t214 -510v-4q0 -305 -214 -510t-548 -205h-461zM319 41h418q313 0 514 193.5t201 478.5v4q0 287 -202.5 481.5t-516.5 194.5h-414v-652h517v-41h-517v-659z" />
<glyph unicode="&#xd1;" horiz-adv-x="1597" d="M213 0v1434h39l1089 -1360v1360h43v-1434h-38l-1090 1360v-1360h-43zM547 1579l-27 6q35 164 148 164q43 0 138 -59.5t128 -59.5q78 0 117 129l26 -6q-35 -164 -147 -164q-43 0 -138.5 59.5t-127.5 59.5q-78 0 -117 -129z" />
<glyph unicode="&#xd2;" d="M862.5 -25q-315.5 0 -514 218.5t-198.5 521.5v4q0 303 198.5 521t514 218t514 -218t198.5 -521v-4q0 -303 -198.5 -521.5t-514 -218.5zM864 16q293 0 479.5 206t186.5 491v4q0 285 -189.5 492.5t-480.5 207.5q-293 0 -479 -205.5t-186 -490.5v-4q0 -285 189 -493 t480 -208zM850 1567l-219 229l51 25l197 -254h-29z" />
<glyph unicode="&#xd3;" d="M862.5 -25q-315.5 0 -514 218.5t-198.5 521.5v4q0 303 198.5 521t514 218t514 -218t198.5 -521v-4q0 -303 -198.5 -521.5t-514 -218.5zM864 16q293 0 479.5 206t186.5 491v4q0 285 -189.5 492.5t-480.5 207.5q-293 0 -479 -205.5t-186 -490.5v-4q0 -285 189 -493 t480 -208zM848 1567l196 254l52 -25l-219 -229h-29z" />
<glyph unicode="&#xd4;" d="M862.5 -25q-315.5 0 -514 218.5t-198.5 521.5v4q0 303 198.5 521t514 218t514 -218t198.5 -521v-4q0 -303 -198.5 -521.5t-514 -218.5zM864 16q293 0 479.5 206t186.5 491v4q0 285 -189.5 492.5t-480.5 207.5q-293 0 -479 -205.5t-186 -490.5v-4q0 -285 189 -493 t480 -208zM633 1567l217 250h24l218 -250h-35l-195 196l-194 -196h-35z" />
<glyph unicode="&#xd5;" d="M862.5 -25q-315.5 0 -514 218.5t-198.5 521.5v4q0 303 198.5 521t514 218t514 -218t198.5 -521v-4q0 -303 -198.5 -521.5t-514 -218.5zM864 16q293 0 479.5 206t186.5 491v4q0 285 -189.5 492.5t-480.5 207.5q-293 0 -479 -205.5t-186 -490.5v-4q0 -285 189 -493 t480 -208zM610 1579l-26 6q35 164 147 164q43 0 138.5 -59.5t127.5 -59.5q78 0 117 129l27 -6q-35 -164 -148 -164q-43 0 -138 59.5t-128 59.5q-78 0 -117 -129z" />
<glyph unicode="&#xd6;" d="M862.5 -25q-315.5 0 -514 218.5t-198.5 521.5v4q0 303 198.5 521t514 218t514 -218t198.5 -521v-4q0 -303 -198.5 -521.5t-514 -218.5zM864 16q293 0 479.5 206t186.5 491v4q0 285 -189.5 492.5t-480.5 207.5q-293 0 -479 -205.5t-186 -490.5v-4q0 -285 189 -493 t480 -208zM969 1606v106h73v-106h-73zM686 1606v106h74v-106h-74z" />
<glyph unicode="&#xd8;" d="M862 -25q-287 0 -487 191l-164 -176h-53l190 205q-199 215 -198 520v4q0 303 198.5 521t513.5 218q287 0 488 -190l163 176h54l-191 -205q199 -215 199 -520v-4q0 -303 -199 -521.5t-514 -218.5zM377 225l944 1012q-184 180 -461 180q-293 0 -479 -205.5t-186 -490.5v-4 q0 -293 182 -492zM864 16q293 0 479.5 206t186.5 491v4q0 293 -182 491l-945 -1011q185 -181 461 -181z" />
<glyph unicode="&#xd9;" horiz-adv-x="1540" d="M770 -23q-264 0 -422 168t-158 490v799h46v-799q0 -301 145 -459t391 -158q248 0 390.5 157t142.5 458v801h45v-799q0 -322 -157 -490t-423 -168zM788 1567l-219 229l52 25l196 -254h-29z" />
<glyph unicode="&#xda;" horiz-adv-x="1540" d="M770 -23q-264 0 -422 168t-158 490v799h46v-799q0 -301 145 -459t391 -158q248 0 390.5 157t142.5 458v801h45v-799q0 -322 -157 -490t-423 -168zM723 1567l197 254l51 -25l-219 -229h-29z" />
<glyph unicode="&#xdb;" horiz-adv-x="1540" d="M770 -23q-264 0 -422 168t-158 490v799h46v-799q0 -301 145 -459t391 -158q248 0 390.5 157t142.5 458v801h45v-799q0 -322 -157 -490t-423 -168zM541 1567l217 250h24l217 -250h-34l-195 196l-195 -196h-34z" />
<glyph unicode="&#xdc;" horiz-adv-x="1540" d="M770 -23q-264 0 -422 168t-158 490v799h46v-799q0 -301 145 -459t391 -158q248 0 390.5 157t142.5 458v801h45v-799q0 -322 -157 -490t-423 -168zM874 1585v107h74v-107h-74zM592 1585v107h74v-107h-74z" />
<glyph unicode="&#xdd;" horiz-adv-x="1345" d="M651 0v600l-606 834h53l578 -795l571 795h53l-604 -834v-600h-45zM666 1567l196 254l51 -25l-219 -229h-28z" />
<glyph unicode="&#xde;" horiz-adv-x="1368" d="M211 0v1434h45v-277h459q262 0 406.5 -113.5t144.5 -316.5v-4q0 -207 -148.5 -321.5t-410.5 -114.5h-451v-287h-45zM256 328h451q242 0 378 102t136 291v4q0 184 -135.5 287.5t-374.5 103.5h-455v-788z" />
<glyph unicode="&#xdf;" horiz-adv-x="1169" d="M539 -6v41q209 4 339 98t130 260v4q0 152 -126 239t-343 99v39q170 43 274.5 137.5t104.5 239.5v4q0 125 -95.5 218t-236.5 93q-172 0 -262.5 -118.5t-90.5 -313.5v-1034h-43v1038q0 213 102.5 341t295.5 128q162 0 268.5 -103.5t106.5 -246.5v-4q0 -139 -90.5 -237.5 t-247.5 -151.5q193 -25 310.5 -120t117.5 -245v-4q0 -184 -144.5 -292.5t-369.5 -108.5z" />
<glyph unicode="&#xe0;" horiz-adv-x="1159" d="M487 -25q-160 0 -271.5 81t-111.5 227v4q0 156 128 240.5t329 84.5q209 0 385 -63v86q0 182 -101.5 273t-285.5 91q-162 0 -340 -86l-16 37q184 90 358 90q215 0 328 -112q100 -100 100 -291v-637h-43v242q-37 -104 -158 -185.5t-301 -81.5zM489 16q199 0 328 107.5 t129 251.5v131q-174 66 -383 65q-182 0 -297.5 -73.5t-115.5 -208.5v-4q0 -129 98 -199t241 -70zM571 1219l-219 229l51 25l197 -254h-29z" />
<glyph unicode="&#xe1;" horiz-adv-x="1159" d="M487 -25q-160 0 -271.5 81t-111.5 227v4q0 156 128 240.5t329 84.5q209 0 385 -63v86q0 182 -101.5 273t-285.5 91q-162 0 -340 -86l-16 37q184 90 358 90q215 0 328 -112q100 -100 100 -291v-637h-43v242q-37 -104 -158 -185.5t-301 -81.5zM489 16q199 0 328 107.5 t129 251.5v131q-174 66 -383 65q-182 0 -297.5 -73.5t-115.5 -208.5v-4q0 -129 98 -199t241 -70zM532 1219l197 254l51 -25l-219 -229h-29z" />
<glyph unicode="&#xe2;" horiz-adv-x="1159" d="M487 -25q-160 0 -271.5 81t-111.5 227v4q0 156 128 240.5t329 84.5q209 0 385 -63v86q0 182 -101.5 273t-285.5 91q-162 0 -340 -86l-16 37q184 90 358 90q215 0 328 -112q100 -100 100 -291v-637h-43v242q-37 -104 -158 -185.5t-301 -81.5zM489 16q199 0 328 107.5 t129 251.5v131q-174 66 -383 65q-182 0 -297.5 -73.5t-115.5 -208.5v-4q0 -129 98 -199t241 -70zM362 1219l218 249h24l217 -249h-35l-194 196l-195 -196h-35z" />
<glyph unicode="&#xe3;" horiz-adv-x="1159" d="M487 -25q-160 0 -271.5 81t-111.5 227v4q0 156 128 240.5t329 84.5q209 0 385 -63v86q0 182 -101.5 273t-285.5 91q-162 0 -340 -86l-16 37q184 90 358 90q215 0 328 -112q100 -100 100 -291v-637h-43v242q-37 -104 -158 -185.5t-301 -81.5zM489 16q199 0 328 107.5 t129 251.5v131q-174 66 -383 65q-182 0 -297.5 -73.5t-115.5 -208.5v-4q0 -129 98 -199t241 -70zM338 1231l-27 6q35 164 148 164q43 0 138 -59.5t128 -59.5q78 0 117 129l26 -6q-35 -164 -147 -164q-43 0 -138.5 59.5t-127.5 59.5q-78 0 -117 -129z" />
<glyph unicode="&#xe4;" horiz-adv-x="1159" d="M487 -25q-160 0 -271.5 81t-111.5 227v4q0 156 128 240.5t329 84.5q209 0 385 -63v86q0 182 -101.5 273t-285.5 91q-162 0 -340 -86l-16 37q184 90 358 90q215 0 328 -112q100 -100 100 -291v-637h-43v242q-37 -104 -158 -185.5t-301 -81.5zM489 16q199 0 328 107.5 t129 251.5v131q-174 66 -383 65q-182 0 -297.5 -73.5t-115.5 -208.5v-4q0 -129 98 -199t241 -70zM694 1257v107h74v-107h-74zM412 1257v107h73v-107h-73z" />
<glyph unicode="&#xe5;" horiz-adv-x="1159" d="M487 -25q-160 0 -271.5 81t-111.5 227v4q0 156 128 240.5t329 84.5q209 0 385 -63v86q0 182 -101.5 273t-285.5 91q-162 0 -340 -86l-16 37q184 90 358 90q215 0 328 -112q100 -100 100 -291v-637h-43v242q-37 -104 -158 -185.5t-301 -81.5zM489 16q199 0 328 107.5 t129 251.5v131q-174 66 -383 65q-182 0 -297.5 -73.5t-115.5 -208.5v-4q0 -129 98 -199t241 -70zM584 1217q-80 0 -139.5 56t-59.5 132v4q0 76 59.5 132t139.5 56t139 -56t59 -132v-4q0 -76 -59 -132t-139 -56zM583.5 1249q65.5 0 113.5 46t48 110v4q0 63 -48 109.5 t-113.5 46.5t-113.5 -46t-48 -110v-4q0 -63 48 -109.5t113.5 -46.5z" />
<glyph unicode="&#xe6;" horiz-adv-x="2007" d="M512 -25q-180 0 -294 80t-114 228v4q0 156 128 240.5t329 84.5q207 0 375 -61q10 82 12 88q-4 182 -105.5 271t-283.5 89q-162 0 -340 -86l-16 37q184 90 358 90q362 0 414 -305q55 143 174 228.5t274 85.5q225 0 348 -164t123 -377v-8h-915q6 -215 139 -349.5 t324 -134.5q244 0 385 189l33 -25q-150 -205 -420 -205q-139 0 -256 69t-183 189q-61 -102 -192 -180t-297 -78zM979 539h868q-6 188 -119.5 328.5t-306.5 140.5q-188 0 -311 -133t-131 -336zM514 16q152 0 282 76t187 182q-47 104 -47 236q-168 61 -373 61 q-182 0 -297.5 -73.5t-115.5 -208.5v-4q0 -131 100 -200t264 -69z" />
<glyph unicode="&#xe7;" horiz-adv-x="1148" d="M516 -289l-45 23l156 241q-213 6 -360.5 162t-147.5 373v4q0 221 151.5 378t372.5 157q229 0 410 -191l-31 -29q-168 178 -381 179q-203 0 -340 -144.5t-137 -347.5v-4q0 -201 140 -348.5t339 -147.5q217 0 385 191l31 -29q-170 -195 -400 -203z" />
<glyph unicode="&#xe8;" horiz-adv-x="1193" d="M631 -25q-217 0 -364.5 147.5t-147.5 389.5v4q0 227 139 380t352 153q225 0 348 -164t123 -377v-8h-915q6 -217 140 -350.5t327 -133.5q113 0 213 58.5t166 148.5l35 -24q-70 -100 -178.5 -162t-237.5 -62zM166 539h868q-6 188 -119.5 328.5t-306.5 140.5 q-188 0 -311 -133t-131 -336zM612 1219l-219 229l51 25l197 -254h-29z" />
<glyph unicode="&#xe9;" horiz-adv-x="1193" d="M631 -25q-217 0 -364.5 147.5t-147.5 389.5v4q0 227 139 380t352 153q225 0 348 -164t123 -377v-8h-915q6 -217 140 -350.5t327 -133.5q113 0 213 58.5t166 148.5l35 -24q-70 -100 -178.5 -162t-237.5 -62zM166 539h868q-6 188 -119.5 328.5t-306.5 140.5 q-188 0 -311 -133t-131 -336zM543 1219l196 254l52 -25l-220 -229h-28z" />
<glyph unicode="&#xea;" horiz-adv-x="1193" d="M631 -25q-217 0 -364.5 147.5t-147.5 389.5v4q0 227 139 380t352 153q225 0 348 -164t123 -377v-8h-915q6 -217 140 -350.5t327 -133.5q113 0 213 58.5t166 148.5l35 -24q-70 -100 -178.5 -162t-237.5 -62zM166 539h868q-6 188 -119.5 328.5t-306.5 140.5 q-188 0 -311 -133t-131 -336zM377 1219l217 249h24l218 -249h-35l-195 196l-194 -196h-35z" />
<glyph unicode="&#xeb;" horiz-adv-x="1193" d="M631 -25q-217 0 -364.5 147.5t-147.5 389.5v4q0 227 139 380t352 153q225 0 348 -164t123 -377v-8h-915q6 -217 140 -350.5t327 -133.5q113 0 213 58.5t166 148.5l35 -24q-70 -100 -178.5 -162t-237.5 -62zM166 539h868q-6 188 -119.5 328.5t-306.5 140.5 q-188 0 -311 -133t-131 -336zM711 1257v107h73v-107h-73zM428 1257v107h74v-107h-74z" />
<glyph unicode="&#xec;" horiz-adv-x="448" d="M203 0v1024h43v-1024h-43zM223 1219l-219 229l51 25l197 -254h-29z" />
<glyph unicode="&#xed;" horiz-adv-x="448" d="M203 0v1024h43v-1024h-43zM199 1219l196 254l51 -25l-219 -229h-28z" />
<glyph unicode="&#xee;" horiz-adv-x="448" d="M203 0v1024h43v-1024h-43zM-6 1219l217 249h25l217 -249h-35l-195 196l-194 -196h-35z" />
<glyph unicode="&#xef;" horiz-adv-x="448" d="M203 0v1024h43v-1024h-43zM328 1257v107h73v-107h-73zM45 1257v107h74v-107h-74z" />
<glyph unicode="&#xf0;" horiz-adv-x="1241" d="M631 -25q-215 0 -365.5 145.5t-150.5 354.5v4q0 207 147.5 354.5t355.5 147.5q188 0 322 -115l-315 463l-299 -160l-25 35l299 160l-88 131h53l74 -111l219 119l25 -35l-219 -118l344 -506q43 -63 78.5 -157.5t35.5 -176.5v-4q0 -231 -138 -381t-353 -150zM631 16 q190 0 318 137.5t128 342.5v4q0 188 -133 314t-326 126q-190 0 -324 -135t-134 -326v-4q0 -190 137 -324.5t334 -134.5z" />
<glyph unicode="&#xf1;" horiz-adv-x="1245" d="M190 0v1024h43v-281q31 113 138.5 209.5t273.5 96.5q205 0 317.5 -127t112.5 -342v-580h-43v575q0 197 -101.5 315t-289.5 118q-170 0 -289 -128t-119 -313v-567h-43zM383 1231l-27 6q35 164 148 164q43 0 138 -59.5t128 -59.5q78 0 117 129l26 -6q-35 -164 -147 -164 q-43 0 -138.5 59.5t-127.5 59.5q-78 0 -117 -129z" />
<glyph unicode="&#xf2;" horiz-adv-x="1298" d="M649 -25q-233 0 -382.5 156t-149.5 377v4q0 221 148.5 379t383.5 158q233 0 383 -156t150 -377v-4q0 -221 -148.5 -379t-384.5 -158zM651 16q213 0 349.5 144.5t136.5 349.5v4q0 205 -139.5 349.5t-350.5 144.5q-213 0 -349 -144.5t-136 -349.5v-4q0 -205 139 -349.5 t350 -144.5zM647 1219l-219 229l51 25l197 -254h-29z" />
<glyph unicode="&#xf3;" horiz-adv-x="1298" d="M649 -25q-233 0 -382.5 156t-149.5 377v4q0 221 148.5 379t383.5 158q233 0 383 -156t150 -377v-4q0 -221 -148.5 -379t-384.5 -158zM651 16q213 0 349.5 144.5t136.5 349.5v4q0 205 -139.5 349.5t-350.5 144.5q-213 0 -349 -144.5t-136 -349.5v-4q0 -205 139 -349.5 t350 -144.5zM623 1219l196 254l51 -25l-219 -229h-28z" />
<glyph unicode="&#xf4;" horiz-adv-x="1298" d="M649 -25q-233 0 -382.5 156t-149.5 377v4q0 221 148.5 379t383.5 158q233 0 383 -156t150 -377v-4q0 -221 -148.5 -379t-384.5 -158zM651 16q213 0 349.5 144.5t136.5 349.5v4q0 205 -139.5 349.5t-350.5 144.5q-213 0 -349 -144.5t-136 -349.5v-4q0 -205 139 -349.5 t350 -144.5zM420 1219l217 249h25l217 -249h-35l-195 196l-194 -196h-35z" />
<glyph unicode="&#xf5;" horiz-adv-x="1298" d="M649 -25q-233 0 -382.5 156t-149.5 377v4q0 221 148.5 379t383.5 158q233 0 383 -156t150 -377v-4q0 -221 -148.5 -379t-384.5 -158zM651 16q213 0 349.5 144.5t136.5 349.5v4q0 205 -139.5 349.5t-350.5 144.5q-213 0 -349 -144.5t-136 -349.5v-4q0 -205 139 -349.5 t350 -144.5zM397 1231l-26 6q35 164 147 164q43 0 138.5 -59.5t127.5 -59.5q78 0 117 129l27 -6q-35 -164 -148 -164q-43 0 -138 59.5t-128 59.5q-78 0 -117 -129z" />
<glyph unicode="&#xf6;" horiz-adv-x="1298" d="M649 -25q-233 0 -382.5 156t-149.5 377v4q0 221 148.5 379t383.5 158q233 0 383 -156t150 -377v-4q0 -221 -148.5 -379t-384.5 -158zM651 16q213 0 349.5 144.5t136.5 349.5v4q0 205 -139.5 349.5t-350.5 144.5q-213 0 -349 -144.5t-136 -349.5v-4q0 -205 139 -349.5 t350 -144.5zM754 1257v107h73v-107h-73zM471 1257v107h74v-107h-74z" />
<glyph unicode="&#xf8;" horiz-adv-x="1298" d="M649 -25q-211 0 -358 134l-115 -119h-51l137 145q-145 152 -145 373v4q0 221 148.5 379t383.5 158q213 0 361 -136l137 146h51l-162 -170q145 -156 146 -373v-4q0 -221 -148.5 -379t-384.5 -158zM293 166l686 717q-135 125 -332 125q-213 0 -349 -144.5t-136 -349.5v-4 q0 -201 131 -344zM651 16q213 0 349.5 144.5t136.5 349.5v4q0 201 -131 342l-687 -717q139 -123 332 -123z" />
<glyph unicode="&#xf9;" horiz-adv-x="1245" d="M600 -25q-205 0 -317.5 127t-112.5 342v580h43v-575q0 -197 101.5 -315t289.5 -118q170 0 289 128t119 313v567h43v-1024h-43v281q-31 -113 -138.5 -209.5t-273.5 -96.5zM672 1219l-219 229l51 25l196 -254h-28z" />
<glyph unicode="&#xfa;" horiz-adv-x="1245" d="M600 -25q-205 0 -317.5 127t-112.5 342v580h43v-575q0 -197 101.5 -315t289.5 -118q170 0 289 128t119 313v567h43v-1024h-43v281q-31 -113 -138.5 -209.5t-273.5 -96.5zM535 1219l196 254l51 -25l-219 -229h-28z" />
<glyph unicode="&#xfb;" horiz-adv-x="1245" d="M600 -25q-205 0 -317.5 127t-112.5 342v580h43v-575q0 -197 101.5 -315t289.5 -118q170 0 289 128t119 313v567h43v-1024h-43v281q-31 -113 -138.5 -209.5t-273.5 -96.5zM383 1219l217 249h25l217 -249h-35l-195 196l-194 -196h-35z" />
<glyph unicode="&#xfc;" horiz-adv-x="1245" d="M600 -25q-205 0 -317.5 127t-112.5 342v580h43v-575q0 -197 101.5 -315t289.5 -118q170 0 289 128t119 313v567h43v-1024h-43v281q-31 -113 -138.5 -209.5t-273.5 -96.5zM717 1247v107h74v-107h-74zM434 1247v107h74v-107h-74z" />
<glyph unicode="&#xfd;" horiz-adv-x="1165" d="M283 -334q-102 0 -193 55l21 35q86 -51 172 -51q92 0 153.5 58.5t143.5 236.5l-494 1024h47l467 -979l440 979h45l-475 -1044q-86 -188 -154.5 -251t-172.5 -63zM602 1219l197 254l51 -25l-219 -229h-29z" />
<glyph unicode="&#xfe;" horiz-adv-x="1341" d="M190 -328v1823h43v-788q45 152 172 247t302 95q221 0 366.5 -155t145.5 -380v-4q0 -225 -145.5 -380t-366.5 -155q-174 0 -301 95.5t-173 246.5v-645h-43zM705 16q207 0 338 141.5t131 350.5v4q0 209 -131.5 352.5t-337.5 143.5q-205 0 -339.5 -144.5t-134.5 -349.5v-4 q0 -203 135.5 -348.5t338.5 -145.5z" />
<glyph unicode="&#xff;" horiz-adv-x="1165" d="M283 -334q-102 0 -193 55l21 35q86 -51 172 -51q92 0 153.5 58.5t143.5 236.5l-494 1024h47l467 -979l440 979h45l-475 -1044q-86 -188 -154.5 -251t-172.5 -63zM700 1247v107h74v-107h-74zM418 1247v107h74v-107h-74z" />
<glyph unicode="&#x152;" horiz-adv-x="2385" d="M911 0q-334 0 -547.5 205t-213.5 510v4q0 305 214 510t547 205h1336v-41h-926v-652h838v-41h-838v-659h936v-41h-1346zM913 41h363v1352h-367q-313 0 -513.5 -193.5t-200.5 -478.5v-4q0 -287 202.5 -481.5t515.5 -194.5z" />
<glyph unicode="&#x153;" horiz-adv-x="2205" d="M649 -25q-233 0 -382.5 156t-149.5 377v4q0 221 148.5 379t383.5 158q190 0 327.5 -106.5t178.5 -280.5q37 176 165 281.5t302 105.5q225 0 348 -164t123 -377v-8h-915q6 -215 139 -349.5t323 -134.5q244 0 385 189l33 -25q-150 -205 -420 -205q-176 0 -311 104.5 t-172 289.5q-39 -176 -176 -285t-330 -109zM1178 539h868q-6 188 -120 328.5t-306 140.5q-188 0 -311 -133t-131 -336zM651 16q213 0 349.5 144.5t136.5 349.5v4q0 205 -139.5 349.5t-350.5 144.5q-213 0 -349 -144.5t-136 -349.5v-4q0 -205 139 -349.5t350 -144.5z" />
<glyph unicode="&#x178;" horiz-adv-x="1345" d="M651 0v600l-606 834h53l578 -795l571 795h53l-604 -834v-600h-45zM776 1585v107h74v-107h-74zM494 1585v107h73v-107h-73z" />
<glyph unicode="&#x2c6;" horiz-adv-x="1024" d="M283 1219l217 249h24l217 -249h-34l-195 196l-195 -196h-34z" />
<glyph unicode="&#x2dc;" horiz-adv-x="1024" d="M260 1231l-27 6q35 164 148 164q43 0 138 -59.5t128 -59.5q78 0 117 129l27 -6q-35 -164 -148 -164q-43 0 -138 59.5t-128 59.5q-78 0 -117 -129z" />
<glyph unicode="&#x3bc;" d="M1571 -207l-320 295q-170 -113 -389 -113q-315 0 -513.5 218.5t-198.5 521.5v4q0 303 198.5 521t514 218t514 -218t198.5 -521v-4q0 -182 -77 -342t-214 -262l332 -312v-6h-45zM864 16q293 0 479.5 206t186.5 491v4q0 285 -189.5 492.5t-480.5 207.5q-293 0 -479 -205.5 t-186 -490.5v-4q0 -285 189 -493t480 -208z" />
<glyph unicode="&#x2000;" horiz-adv-x="909" />
<glyph unicode="&#x2001;" horiz-adv-x="1820" />
<glyph unicode="&#x2002;" horiz-adv-x="909" />
<glyph unicode="&#x2003;" horiz-adv-x="1820" />
<glyph unicode="&#x2004;" horiz-adv-x="606" />
<glyph unicode="&#x2005;" horiz-adv-x="454" />
<glyph unicode="&#x2006;" horiz-adv-x="303" />
<glyph unicode="&#x2007;" horiz-adv-x="303" />
<glyph unicode="&#x2008;" horiz-adv-x="227" />
<glyph unicode="&#x2009;" horiz-adv-x="362" />
<glyph unicode="&#x200a;" horiz-adv-x="100" />
<glyph unicode="&#x2010;" horiz-adv-x="794" d="M143 588v43h508v-43h-508z" />
<glyph unicode="&#x2011;" horiz-adv-x="794" d="M143 588v43h508v-43h-508z" />
<glyph unicode="&#x2012;" horiz-adv-x="794" d="M143 588v43h508v-43h-508z" />
<glyph unicode="&#x2013;" horiz-adv-x="1101" d="M143 588v41h815v-41h-815z" />
<glyph unicode="&#x2014;" horiz-adv-x="1830" d="M143 588v41h1545v-41h-1545z" />
<glyph unicode="&#x2018;" horiz-adv-x="335" d="M131 1167v95q0 84 17.5 121.5t58.5 56.5l14 -27q-57 -27 -53 -139h37v-107h-74z" />
<glyph unicode="&#x2019;" horiz-adv-x="335" d="M129 1161l-14 27q57 27 53 139h-37v107h74v-95q0 -84 -17.5 -122t-58.5 -56z" />
<glyph unicode="&#x201a;" horiz-adv-x="335" d="M129 -166l-14 27q57 27 53 139h-37v106h74v-94q0 -84 -17.5 -122t-58.5 -56z" />
<glyph unicode="&#x201c;" horiz-adv-x="520" d="M315 1167v95q0 84 17.5 121.5t58.5 56.5l15 -27q-57 -27 -54 -139h37v-107h-74zM131 1167v95q0 84 17.5 121.5t58.5 56.5l14 -27q-57 -27 -53 -139h37v-107h-74z" />
<glyph unicode="&#x201d;" horiz-adv-x="520" d="M313 1161l-14 27q57 27 53 139h-37v107h74v-95q0 -84 -17.5 -122t-58.5 -56zM129 1161l-14 27q57 27 53 139h-37v107h74v-95q0 -84 -17.5 -122t-58.5 -56z" />
<glyph unicode="&#x201e;" horiz-adv-x="520" d="M313 -166l-14 27q57 27 53 139h-37v106h74v-94q0 -84 -17.5 -122t-58.5 -56zM129 -166l-14 27q57 27 53 139h-37v106h74v-94q0 -84 -17.5 -122t-58.5 -56z" />
<glyph unicode="&#x2022;" horiz-adv-x="880" d="M442 508q-90 0 -153.5 62.5t-63.5 150.5v4q0 88 63.5 150.5t153.5 62.5t153.5 -62.5t63.5 -150.5v-4q0 -88 -63.5 -150.5t-153.5 -62.5z" />
<glyph unicode="&#x2026;" horiz-adv-x="991" d="M786 0v106h74v-106h-74zM459 0v106h73v-106h-73zM131 0v106h74v-106h-74z" />
<glyph unicode="&#x202f;" horiz-adv-x="362" />
<glyph unicode="&#x2039;" horiz-adv-x="598" d="M451 96l-361 420v12l361 420l24 -20l-336 -406l336 -405z" />
<glyph unicode="&#x203a;" horiz-adv-x="598" d="M147 96l-24 21l336 405l-336 406l24 20l361 -420v-12z" />
<glyph unicode="&#x2044;" horiz-adv-x="825" d="M-92 -201l962 1755h48l-963 -1755h-47z" />
<glyph unicode="&#x205f;" horiz-adv-x="454" />
<glyph unicode="&#x2122;" horiz-adv-x="1343" d="M655 803v631h29l264 -381l266 381h29v-631h-31v571l-264 -375h-2l-260 375v-571h-31zM260 803v600h-225v31h481v-31h-225v-600h-31z" />
<glyph unicode="&#xe000;" horiz-adv-x="1025" d="M0 1025h1025v-1025h-1025v1025z" />
<glyph unicode="&#xfb01;" horiz-adv-x="1114" d="M858 1317v117h64v-117h-64zM262 0v985h-162v39h162v147q0 174 84 259q72 72 195 71q80 0 143 -28v-43q-61 29 -143 28q-236 0 -236 -295v-139h375v-39h-375v-985h-43zM868 0v1024h43v-1024h-43z" />
<glyph unicode="&#xfb02;" horiz-adv-x="1114" d="M262 0v985h-162v39h162v147q0 174 84 259q72 72 195 71q80 0 143 -28v-43q-61 29 -143 28q-236 0 -236 -295v-139h375v-39h-375v-985h-43zM868 0v1495h43v-1495h-43z" />
<glyph unicode="&#xfb03;" horiz-adv-x="1779" d="M1524 1317v117h63v-117h-63zM1534 0v1024h43v-1024h-43zM928 0v985h-162v39h162v147q0 174 84 259q72 72 195 71q80 0 143 -28v-43q-61 29 -143 28q-236 0 -236 -295v-139h375v-39h-375v-985h-43zM262 0v985h-162v39h162v147q0 174 84 259q72 72 195 71q80 0 143 -28v-43 q-61 29 -143 28q-236 0 -236 -295v-139h375v-39h-375v-985h-43z" />
<glyph unicode="&#xfb04;" horiz-adv-x="1779" d="M1534 0v1495h43v-1495h-43zM928 0v985h-162v39h162v147q0 174 84 259q72 72 195 71q80 0 143 -28v-43q-61 29 -143 28q-236 0 -236 -295v-139h375v-39h-375v-985h-43zM262 0v985h-162v39h162v147q0 174 84 259q72 72 195 71q80 0 143 -28v-43q-61 29 -143 28 q-236 0 -236 -295v-139h375v-39h-375v-985h-43z" />
</font>
</defs>
</svg>
