<?xml version="1.0" standalone="no"?>
<!DOCTYPE svg PUBLIC "-//W3C//DTD SVG 1.1//EN" "http://www.w3.org/Graphics/SVG/1.1/DTD/svg11.dtd" >
<svg xmlns="http://www.w3.org/2000/svg">
<metadata>
This is a custom SVG webfont generated by Font Squirrel.
Copyright   : HTF Gothama c 2002 The Hoefler Type Foundry Inc Info wwwtypographycom
</metadata>
<defs>
<font id="webfontucKSnJs7" horiz-adv-x="1724" >
<font-face units-per-em="2048" ascent="1638" descent="-410" />
<missing-glyph horiz-adv-x="614" />
<glyph unicode=" "  horiz-adv-x="614" />
<glyph unicode="&#x09;" horiz-adv-x="614" />
<glyph unicode="&#xa0;" horiz-adv-x="614" />
<glyph unicode="!" horiz-adv-x="555" d="M199 406l196 911l33 117h184l-30 -117l-293 -911h-90zM41 0l57 215h189l-58 -215h-188z" />
<glyph unicode="&#x22;" horiz-adv-x="905" d="M608 877l187 557h188l-2 -11l-285 -546h-88zM205 877l186 557h189l-2 -11l-285 -546h-88z" />
<glyph unicode="#" horiz-adv-x="1396" d="M158 0l127 362h-226l35 142h240l151 434h-249l36 141h263l122 355h146l-125 -355h391l123 355h145l-125 -355h228l-37 -141h-238l-153 -434h252l-37 -142h-264l-125 -362h-146l127 362h-391l-125 -362h-145zM479 504h387l154 434h-389z" />
<glyph unicode="$" horiz-adv-x="1275" d="M373 -201l61 213q-276 45 -438 242l119 100q141 -166 368 -200l140 516q-190 74 -274.5 152.5t-84.5 209.5q0 172 143.5 287t356.5 115q12 0 35.5 -1t34.5 -1l34 120h129l-36 -139q197 -43 342 -184l-113 -109q-117 117 -279 152l-135 -488q182 -66 265 -150.5t83 -215.5 q0 -182 -150.5 -300t-385.5 -118h-29l-55 -201h-131zM668 823l127 465q-156 14 -260.5 -56.5t-104.5 -182.5q0 -76 54.5 -126.5t183.5 -99.5zM598 143q160 -4 260 68t100 190q0 74 -51 127.5t-174 102.5z" />
<glyph unicode="%" horiz-adv-x="1714" d="M475 709q-127 0 -208 86t-81 213q0 174 114 308t278 134q129 0 209.5 -86t80.5 -213q0 -174 -114.5 -308t-278.5 -134zM131 0l1391 1434h161l-1390 -1434h-162zM1235 -14q-127 0 -208 85t-81 214q0 172 115 307t278 135q127 0 208 -86t81 -213q0 -174 -114.5 -308 t-278.5 -134zM485 821q104 0 180 100.5t76 219.5q0 90 -46 143t-126 53q-104 0 -180 -100t-76 -219q0 -90 45 -143.5t127 -53.5zM1245 98q104 0 180 100.5t76 219.5q0 90 -46 143t-126 53q-104 0 -180 -100t-76 -221q0 -88 46 -141.5t126 -53.5z" />
<glyph unicode="&#x26;" horiz-adv-x="1417" d="M1141 -29l-160 224q-117 -111 -235.5 -163t-264.5 -52q-184 0 -303 98t-119 268q0 164 120 287t356 188q-90 152 -91 266q0 156 115 263.5t283 107.5q160 0 256 -86t96 -223q0 -268 -442 -395l256 -359q115 129 221 312l108 -70q-127 -209 -250 -344l175 -244zM680 856 q362 100 362 285q0 82 -56 133t-150 51q-100 0 -170 -69.5t-70 -168.5q0 -104 84 -231zM500 119q207 0 403 180l-297 418q-195 -49 -291 -144.5t-96 -214.5q0 -111 76 -175t205 -64z" />
<glyph unicode="'" horiz-adv-x="501" d="M205 877l186 557h189l-2 -11l-285 -546h-88z" />
<glyph unicode="(" horiz-adv-x="888" d="M541 -289q-360 313 -361 731q0 319 206 592t605 434l56 -116q-356 -156 -530.5 -396.5t-174.5 -509.5q0 -193 77 -343t216 -293z" />
<glyph unicode=")" horiz-adv-x="888" d="M-70 -285l-55 119q356 156 529.5 395.5t173.5 509.5q0 193 -77 342.5t-216 294.5l96 97q360 -313 360 -730q0 -322 -206 -595t-605 -433z" />
<glyph unicode="*" horiz-adv-x="880" d="M557 809l-104 27l88 243l-244 -88l-31 105l260 45l-202 168l79 77l166 -198l45 252l105 -27l-88 -242l243 89l31 -107l-260 -43l203 -168l-80 -78l-166 199z" />
<glyph unicode="+" horiz-adv-x="1314" d="M500 225l112 422h-424l39 148h424l113 422h154l-113 -422h424l-39 -148h-424l-115 -422h-151z" />
<glyph unicode="," horiz-adv-x="522" d="M-76 -248l-16 70q168 43 192 178h-75l59 215h186l-49 -184q-37 -131 -104.5 -193.5t-192.5 -85.5z" />
<glyph unicode="-" horiz-adv-x="839" d="M135 532l43 166h572l-43 -166h-572z" />
<glyph unicode="." horiz-adv-x="522" d="M25 0l59 215h186l-57 -215h-188z" />
<glyph unicode="/" horiz-adv-x="1040" d="M-256 -262l1448 1896h160l-1448 -1896h-160z" />
<glyph unicode="0" horiz-adv-x="1464" d="M659 -25q-236 0 -368.5 153t-132.5 400q0 170 55 337t151.5 298t237.5 213t301 82q236 0 369 -153.5t133 -399.5q0 -170 -55.5 -337t-151.5 -298t-237.5 -213t-301.5 -82zM670 123q152 0 284.5 116.5t207.5 297t75 368.5q0 180 -91 293t-255 113q-152 0 -284 -117 t-206.5 -297t-74.5 -369q0 -180 90 -292.5t254 -112.5z" />
<glyph unicode="1" horiz-adv-x="739" d="M193 0l337 1264l-290 -84l-4 141l385 123h120l-387 -1444h-161z" />
<glyph unicode="2" horiz-adv-x="1218" d="M-45 0l33 127l821 623q125 94 182.5 171.5t57.5 165.5q0 98 -73 159t-200 61q-201 0 -393 -197l-107 102q227 242 506 242q193 0 314 -99.5t121 -256.5q0 -123 -74 -226.5t-234 -222.5l-661 -502h766l-39 -147h-1020z" />
<glyph unicode="3" horiz-adv-x="1239" d="M508 -25q-182 0 -309 74t-193 205l127 82q121 -213 383 -213q170 0 282.5 90t112.5 227q0 121 -98 182.5t-272 61.5h-66l-20 92l579 512h-706l41 146h934l-33 -119l-584 -510q172 -14 282.5 -105.5t110.5 -246.5q0 -205 -166.5 -341.5t-404.5 -136.5z" />
<glyph unicode="4" horiz-adv-x="1329" d="M725 0l92 340h-745l-21 121l1063 983h156l-260 -969h223l-37 -135h-223l-90 -340h-158zM264 475h590l197 731z" />
<glyph unicode="5" horiz-adv-x="1234" d="M514 -25q-166 0 -293 71t-203 185l125 93q147 -203 383 -203q182 0 299 104.5t117 247.5q0 127 -88 201t-233 74q-150 0 -293 -78l-92 73l225 691h801l-43 -150h-654l-151 -450q115 55 245 55q205 0 329 -109.5t124 -294.5q0 -211 -167 -360.5t-431 -149.5z" />
<glyph unicode="6" horiz-adv-x="1312" d="M647 -25q-221 0 -348 131q-141 141 -141 398q0 223 76.5 419.5t207.5 327.5q207 207 476 207q260 0 423 -184l-106 -111q-137 147 -330 148q-195 0 -346 -152q-86 -86 -146.5 -212t-74.5 -255q66 90 173 149.5t241 59.5q205 0 328.5 -117.5t123.5 -294.5 q0 -209 -160.5 -361.5t-396.5 -152.5zM651 117q166 0 276.5 106.5t110.5 253.5q0 117 -83 201t-234 84q-172 0 -283.5 -103.5t-111.5 -240.5q0 -131 84 -211q87 -90 241 -90z" />
<glyph unicode="7" horiz-adv-x="1200" d="M125 0l944 1286h-780l41 148h973l-35 -121l-955 -1313h-188z" />
<glyph unicode="8" horiz-adv-x="1325" d="M606 -20q-229 0 -378.5 109.5t-149.5 273t115.5 266t302.5 135.5q-92 37 -149.5 115.5t-57.5 181.5q0 164 146.5 278.5t371.5 114.5q213 0 348 -104.5t135 -266.5q0 -141 -99 -239.5t-255 -130.5q102 -37 173 -121t71 -197q0 -176 -162 -295.5t-412 -119.5zM770 799 q166 0 263 79.5t97 188.5t-90 178.5t-237 69.5q-156 0 -255 -77t-99 -191q0 -106 90 -177t231 -71zM616 119q178 0 288 78.5t112 205.5q0 109 -103.5 186t-269.5 77q-180 0 -290.5 -84t-110.5 -203q-2 -115 101 -187.5t273 -72.5z" />
<glyph unicode="9" horiz-adv-x="1312" d="M498 -27q-262 0 -441 199l107 111q150 -162 342 -162t346 153q86 84 145.5 207t73.5 250q-63 -90 -169.5 -153.5t-246.5 -63.5q-205 0 -328.5 120t-123.5 300q2 215 162.5 368.5t398.5 153.5q215 0 348 -129q141 -145 141 -407q0 -219 -77.5 -414t-208.5 -326 q-211 -207 -469 -207zM692 655q168 0 279.5 108.5t111.5 252.5q0 127 -82 209q-92 92 -241 92q-168 0 -278.5 -109.5t-110.5 -261.5q-2 -121 81.5 -206t239.5 -85z" />
<glyph unicode=":" horiz-adv-x="536" d="M258 844l59 215h189l-60 -215h-188zM33 0l57 215h189l-58 -215h-188z" />
<glyph unicode=";" horiz-adv-x="536" d="M258 844l59 215h189l-60 -215h-188zM-68 -248l-16 70q166 43 190 178h-73l57 215h189l-50 -184q-37 -131 -104.5 -193.5t-192.5 -85.5z" />
<glyph unicode="&#x3c;" horiz-adv-x="1310" d="M991 176l-835 477l37 135l1091 478l-45 -170l-893 -385l686 -387z" />
<glyph unicode="=" horiz-adv-x="1310" d="M281 885l41 151h940l-39 -151h-942zM152 406l41 151h940l-41 -151h-940z" />
<glyph unicode="&#x3e;" horiz-adv-x="1310" d="M94 176l45 170l891 385l-684 387l41 148l834 -478l-37 -135z" />
<glyph unicode="?" horiz-adv-x="1099" d="M387 406l57 331l13 11q223 16 354 102t131 227q0 106 -75.5 167t-196.5 61q-205 0 -373 -164l-92 106q205 205 481 205q193 0 308.5 -103.5t115.5 -258.5q0 -190 -147.5 -307t-389.5 -152l-81 -225h-105zM240 0l57 215h188l-57 -215h-188z" />
<glyph unicode="@" horiz-adv-x="2007" d="M987 -326q-387 0 -622.5 220.5t-235.5 580.5q0 260 134 486.5t365.5 362.5t504.5 136q371 0 590 -205.5t219 -513.5q0 -279 -136.5 -437.5t-304.5 -158.5q-106 0 -171.5 51.5t-84.5 141.5q-162 -197 -366 -197q-139 0 -232.5 92.5t-93.5 249.5q0 225 155.5 387t348.5 162 q219 0 301 -201l55 181l133 -35l-155 -500q-35 -109 2 -179.5t133 -70.5q121 0 230.5 137.5t109.5 376.5q0 276 -200 463t-533 187q-250 0 -465 -127t-339 -338t-124 -451q0 -328 215 -529.5t567 -201.5q223 0 422 92l31 -63q-215 -99 -453 -99zM920 268q143 0 264 122 t121 276q0 106 -65.5 172.5t-174.5 66.5q-145 0 -250.5 -120.5t-105.5 -288.5q0 -106 58.5 -167t152.5 -61z" />
<glyph unicode="A" horiz-adv-x="1558" d="M-82 0l1040 1444h156l266 -1444h-166l-65 379h-782l-271 -379h-178zM469 524h653l-129 736z" />
<glyph unicode="B" horiz-adv-x="1468" d="M61 0l385 1434h537q209 0 326.5 -90.5t117.5 -243.5q0 -147 -99 -245.5t-259 -131.5q254 -78 254 -297q0 -188 -162 -307t-440 -119h-660zM434 795h408q193 0 306.5 77.5t113.5 206.5q0 100 -76 154.5t-217 54.5h-404zM260 145h479q195 0 307.5 77t112.5 210 q0 106 -90 162.5t-240 56.5h-434z" />
<glyph unicode="C" horiz-adv-x="1505" d="M784 -27q-260 0 -435 162t-175 432q0 229 114.5 434t314.5 331t431 126q190 0 327.5 -83t213.5 -224l-139 -86q-72 121 -169.5 182.5t-246.5 61.5q-274 0 -475 -223.5t-201 -512.5q0 -205 125 -326.5t324 -121.5q244 0 444 194l109 -106q-240 -240 -562 -240z" />
<glyph unicode="D" horiz-adv-x="1583" d="M61 0l385 1434h347q365 0 559 -191q156 -156 155 -412q0 -330 -225 -559q-272 -272 -735 -272h-486zM264 150h303q367 0 592 225q180 180 180 446q0 201 -120 318q-145 145 -437 145h-213z" />
<glyph unicode="E" horiz-adv-x="1337" d="M61 0l385 1434h1027l-41 -148h-865l-131 -489h772l-41 -148h-770l-135 -502h875l-39 -147h-1037z" />
<glyph unicode="F" horiz-adv-x="1347" d="M61 0l385 1434h1031l-39 -150h-871l-137 -512h778l-41 -147h-776l-168 -625h-162z" />
<glyph unicode="G" horiz-adv-x="1605" d="M811 -27q-270 0 -452.5 165t-182.5 446q0 221 113.5 421.5t318.5 326.5t449 126q367 0 540 -262l-122 -96q-72 100 -171.5 155.5t-261.5 55.5q-193 0 -354.5 -104.5t-251.5 -270.5t-90 -346q0 -217 131 -342t344 -125q209 0 371 100l113 398h-433l39 145h592l-182 -643 q-240 -150 -510 -150z" />
<glyph unicode="H" horiz-adv-x="1548" d="M61 0l385 1434h162l-170 -637h817l170 637h164l-385 -1434h-164l174 645h-817l-174 -645h-162z" />
<glyph unicode="I" horiz-adv-x="595" d="M76 0l385 1434h162l-385 -1434h-162z" />
<glyph unicode="J" horiz-adv-x="1122" d="M397 -20q-162 0 -269.5 82.5t-156.5 222.5l129 75q90 -231 299 -231q139 0 242 98q92 94 150 310l241 897h164l-250 -928q-68 -260 -194 -387q-140 -139 -355 -139z" />
<glyph unicode="K" horiz-adv-x="1470" d="M61 0l385 1434h162l-227 -852l1028 852h229l-770 -631l408 -803h-182l-357 709l-415 -342l-99 -367h-162z" />
<glyph unicode="L" horiz-adv-x="1243" d="M61 0l385 1434h162l-344 -1284h807l-41 -150h-969z" />
<glyph unicode="M" horiz-adv-x="1779" d="M61 0l385 1434h152l309 -783l731 783h181l-385 -1434h-164l311 1161l-727 -768h-8l-314 766l-311 -1159h-160z" />
<glyph unicode="N" horiz-adv-x="1609" d="M61 0l385 1434h150l584 -1164l313 1164h158l-385 -1434h-129l-598 1190l-320 -1190h-158z" />
<glyph unicode="O" d="M809 -27q-274 0 -451.5 178.5t-177.5 444.5q0 221 108.5 418.5t303 320.5t424.5 123q274 0 451.5 -178t177.5 -442q0 -221 -109 -420t-303.5 -322t-423.5 -123zM819 123q182 0 335 102.5t237 265t84 340.5q0 207 -129 342.5t-340 135.5q-182 0 -335 -102.5t-237 -265.5 t-84 -341q0 -207 129 -342t340 -135z" />
<glyph unicode="P" horiz-adv-x="1366" d="M61 0l385 1434h449q274 0 410 -134q102 -106 102 -266q0 -246 -192.5 -385t-514.5 -139h-340l-137 -510h-162zM399 653h310q254 0 392 97.5t138 273.5q0 104 -65 170q-90 90 -285 90h-322z" />
<glyph unicode="Q" d="M1376 -59l-133 168q-201 -135 -434 -136q-274 0 -451.5 178.5t-177.5 444.5q0 221 108.5 418.5t303 320.5t424.5 123q274 0 451.5 -178t177.5 -442q0 -180 -76 -348t-209 -293l143 -162zM819 123q182 0 332 104l-223 262l127 97l209 -264q211 215 211 509 q0 207 -129 342.5t-340 135.5q-182 0 -335 -102.5t-237 -265.5t-84 -341q0 -207 129 -342t340 -135z" />
<glyph unicode="R" horiz-adv-x="1468" d="M61 0l385 1434h517q205 0 326.5 -79t142.5 -222q6 -36 6 -72q0 -119 -70 -225q-102 -211 -432 -263l295 -573h-187l-282 557h-389l-150 -557h-162zM412 702h389q154 0 264.5 45.5t159.5 124.5q59 78 59 169q0 16 -2 32q-8 100 -91 155.5t-237 55.5h-385z" />
<glyph unicode="S" horiz-adv-x="1304" d="M610 -20q-389 0 -585 272l122 96q182 -223 474 -223q156 0 259 75.5t103 192.5q0 82 -64.5 139.5t-230.5 122.5q-211 84 -302 167t-91 216q0 178 148.5 297t379.5 119q322 0 508 -217l-119 -107q-162 178 -403 179q-156 0 -250 -75t-94 -177q0 -84 69.5 -139.5 t247.5 -124.5q193 -74 282 -160t89 -219q0 -188 -156 -311t-387 -123z" />
<glyph unicode="T" horiz-adv-x="1261" d="M401 0l344 1284h-483l41 150h1129l-41 -150h-484l-344 -1284h-162z" />
<glyph unicode="U" horiz-adv-x="1552" d="M711 -23q-250 0 -386.5 126t-136.5 333q0 113 31 223l205 775h164l-217 -818q-20 -72 -21 -161q0 -147 95.5 -237.5t279.5 -90.5q186 0 319 131q125 129 183 350l223 826h162l-230 -854q-74 -272 -225 -424q-178 -179 -446 -179z" />
<glyph unicode="V" horiz-adv-x="1468" d="M506 -10l-225 1444h172l176 -1233l837 1233h185l-1000 -1444h-145z" />
<glyph unicode="W" horiz-adv-x="2217" d="M422 -10l-125 1444h168l90 -1194l711 1198h133l76 -1198l729 1194h182l-899 -1444h-141l-82 1157l-703 -1157h-139z" />
<glyph unicode="X" horiz-adv-x="1421" d="M-63 0l735 741l-361 693h178l299 -586l572 586h209l-709 -715l373 -719h-178l-312 612l-596 -612h-210z" />
<glyph unicode="Y" horiz-adv-x="1357" d="M442 0l156 578l-354 856h180l287 -723l675 723h207l-839 -883l-148 -551h-164z" />
<glyph unicode="Z" horiz-adv-x="1370" d="M-39 0l29 109l1222 1179h-874l41 146h1110l-29 -109l-1224 -1180h913l-39 -145h-1149z" />
<glyph unicode="[" horiz-adv-x="899" d="M18 -266l457 1700h586l-33 -123h-438l-389 -1454h436l-33 -123h-586z" />
<glyph unicode="\" horiz-adv-x="1040" d="M731 -262l-446 1896h135l446 -1896h-135z" />
<glyph unicode="]" horiz-adv-x="899" d="M-135 -266l35 123h438l389 1454h-438l33 123h587l-456 -1700h-588z" />
<glyph unicode="^" horiz-adv-x="1024" d="M240 1010l432 428h123l204 -428h-125l-157 315l-326 -315h-151z" />
<glyph unicode="_" horiz-adv-x="1228" d="M-233 -328l34 129h1239l-36 -129h-1237z" />
<glyph unicode="`" horiz-adv-x="1024" d="M741 1219l-170 221l166 76l115 -297h-111z" />
<glyph unicode="a" horiz-adv-x="1179" d="M375 -23q-141 0 -238.5 79t-97.5 214q0 176 131 279.5t340 103.5q172 0 377 -57l6 25q14 53 14 98q0 215 -286 215q-139 0 -299 -55l-27 131q170 63 350 63q199 0 307.5 -87t108.5 -241q0 -68 -23 -145l-159 -600h-154l45 166q-164 -189 -395 -189zM424 100 q137 0 258 89.5t158 226.5l20 73q-164 47 -344 48q-141 0 -229 -70t-88 -178q0 -84 61.5 -136.5t163.5 -52.5z" />
<glyph unicode="b" horiz-adv-x="1349" d="M653 -25q-285 0 -397 263l-63 -238h-158l401 1495h158l-168 -618q182 205 401 204q182 0 301 -123.5t119 -324.5q0 -276 -178 -467t-416 -191zM639 115q186 0 314 149.5t128 353.5q0 147 -81.5 235.5t-217.5 88.5q-178 0 -324.5 -152.5t-146.5 -345.5q0 -139 92.5 -234 t235.5 -95z" />
<glyph unicode="c" horiz-adv-x="1150" d="M567 -25q-195 0 -332 126t-137 337q0 260 185.5 451.5t437.5 191.5q156 0 260 -69.5t162 -177.5l-127 -80q-113 188 -305 188q-180 0 -315.5 -150.5t-135.5 -349.5q0 -150 92 -238.5t223 -88.5q160 0 314 139l92 -102q-187 -177 -414 -177z" />
<glyph unicode="d" horiz-adv-x="1349" d="M522 -25q-182 0 -301 125t-119 324q0 276 178.5 466.5t415.5 190.5q289 0 398 -262l180 676h158l-400 -1495h-158l48 180q-181 -205 -400 -205zM567 115q178 0 324.5 153.5t146.5 345.5q0 139 -92 233.5t-235 94.5q-186 0 -314.5 -149.5t-128.5 -354.5q0 -145 83 -234 t216 -89z" />
<glyph unicode="e" horiz-adv-x="1206" d="M258 475q-2 -14 -2 -43q0 -145 86 -232t233 -87q172 0 326 125l82 -105q-186 -158 -416 -158q-211 0 -340 125t-129 326q0 252 179.5 453.5t437.5 201.5q193 0 301 -115.5t108 -289.5q0 -100 -37 -201h-829zM281 594h680q10 31 10 82q0 117 -67.5 194.5t-196.5 77.5 q-152 0 -266.5 -101t-159.5 -253z" />
<glyph unicode="f" horiz-adv-x="768" d="M94 0l248 920h-145l36 139h146l35 127q82 313 362 313q125 0 211 -45l-37 -135q-92 43 -174 43q-160 0 -213 -201l-26 -102h346l-39 -139h-344l-248 -920h-158z" />
<glyph unicode="g" horiz-adv-x="1349" d="M492 -332q-145 0 -282.5 49.5t-236.5 135.5l99 110q186 -160 417 -160q193 0 297 109q84 82 134 254l28 106q-186 -190 -405 -190q-176 0 -303 108.5t-127 290.5q0 256 181 428t413 172q270 0 389 -254l61 232h158l-242 -907q-61 -223 -172 -334q-149 -150 -409 -150z M588 217q178 0 315 131t137 295q0 123 -89 211t-236 88q-174 0 -305 -127t-131 -313q0 -135 90 -210t219 -75z" />
<glyph unicode="h" horiz-adv-x="1255" d="M35 0l401 1495h158l-164 -608q172 195 369 194q154 0 246 -89t92 -238q0 -61 -27 -164l-156 -590h-157l159 600q16 55 17 119q0 104 -63.5 162.5t-174.5 58.5q-123 0 -232.5 -96t-150.5 -246l-159 -598h-158z" />
<glyph unicode="i" horiz-adv-x="540" d="M385 1290l47 174h180l-47 -174h-180zM49 0l285 1059h158l-285 -1059h-158z" />
<glyph unicode="j" horiz-adv-x="538" d="M385 1290l47 174h180l-47 -174h-180zM-102 -334q-78 0 -142 19l37 133q47 -14 90 -15q113 0 152 144l299 1112h158l-304 -1129q-73 -264 -290 -264z" />
<glyph unicode="k" horiz-adv-x="1163" d="M35 0l401 1495h158l-272 -1018l712 582h215l-567 -457l291 -602h-178l-246 502l-283 -226l-73 -276h-158z" />
<glyph unicode="l" horiz-adv-x="540" d="M49 0l402 1495h157l-401 -1495h-158z" />
<glyph unicode="m" horiz-adv-x="1945" d="M35 0l282 1059h158l-45 -172q84 94 165 144t187 50q125 0 201 -68.5t100 -170.5q156 240 426 239q143 0 233.5 -90t90.5 -237q0 -35 -29 -164l-157 -590h-158l162 600q14 61 14 119q0 102 -58.5 161.5t-160.5 59.5q-117 0 -222.5 -97.5t-144.5 -244.5l-157 -598h-158 l160 600q16 55 16 119q0 102 -59.5 161.5t-161.5 59.5q-117 0 -222.5 -97.5t-144.5 -244.5l-159 -598h-158z" />
<glyph unicode="n" horiz-adv-x="1255" d="M35 0l282 1059h158l-45 -172q172 195 369 194q154 0 246 -89t92 -238q0 -61 -27 -164l-156 -590h-157l159 600q16 55 17 119q0 104 -63.5 162.5t-174.5 58.5q-123 0 -232.5 -96t-150.5 -246l-159 -598h-158z" />
<glyph unicode="o" horiz-adv-x="1306" d="M582 -25q-215 0 -348.5 133.5t-133.5 342.5q0 250 185.5 440t437.5 190q217 0 350 -133t133 -340q0 -254 -187 -443.5t-437 -189.5zM592 117q178 0 315 148.5t137 336.5q0 160 -91 250t-240 90q-180 0 -316.5 -150.5t-136.5 -336.5q0 -158 91 -248t241 -90z" />
<glyph unicode="p" horiz-adv-x="1349" d="M-53 -328l370 1387h158l-49 -182q182 205 401 204q182 0 301 -123.5t119 -324.5q0 -276 -178 -467t-416 -191q-285 0 -397 263l-152 -566h-157zM639 115q186 0 314 149.5t128 353.5q0 147 -81.5 235.5t-217.5 88.5q-178 0 -324.5 -152.5t-146.5 -345.5q0 -139 92.5 -234 t235.5 -95z" />
<glyph unicode="q" horiz-adv-x="1349" d="M766 -410l158 592q-184 -207 -402 -207q-182 0 -301 125t-119 324q0 276 178.5 466.5t415.5 190.5q152 0 251.5 -72.5t146.5 -187.5l63 238h158l-391 -1469h-158zM567 115q178 0 324.5 153.5t146.5 345.5q0 139 -92 233.5t-235 94.5q-186 0 -314.5 -149.5t-128.5 -354.5 q0 -145 83 -234t216 -89z" />
<glyph unicode="r" horiz-adv-x="823" d="M35 0l282 1059h158l-72 -277q206 296 476 296q14 0 28 -1l-45 -170h-10q-182 0 -333.5 -129t-213.5 -360l-112 -418h-158z" />
<glyph unicode="s" horiz-adv-x="1015" d="M444 -23q-272 0 -456 185l102 102q162 -156 369 -155q94 0 163.5 49t69.5 127q0 53 -44 95t-156 85q-156 61 -227.5 123.5t-71.5 167.5q0 139 110.5 232t290.5 93q111 0 215 -42t176 -103l-92 -109q-152 123 -313 123q-106 0 -168 -49t-62 -119q0 -53 44 -93t167 -87 q152 -61 220.5 -126.5t68.5 -164.5q0 -145 -117 -239.5t-289 -94.5z" />
<glyph unicode="t" horiz-adv-x="821" d="M414 -18q-117 0 -187.5 54t-70.5 154q0 53 14 111l166 619h-146l37 139h148l86 319h155l-86 -319h334l-37 -139h-333l-164 -611q-8 -49 -8 -78q0 -109 145 -108q70 0 154 33l-39 -144q-76 -30 -168 -30z" />
<glyph unicode="u" horiz-adv-x="1255" d="M455 -23q-154 0 -245 89.5t-91 238.5q0 61 26 164l156 590h158l-162 -600q-14 -61 -14 -119q0 -104 62.5 -162.5t172.5 -58.5q125 0 234.5 97t148.5 247l160 596h158l-283 -1059h-158l47 172q-171 -195 -370 -195z" />
<glyph unicode="v" horiz-adv-x="1159" d="M350 -8l-170 1067h166l119 -879l586 879h178l-740 -1067h-139z" />
<glyph unicode="w" horiz-adv-x="1736" d="M281 -8l-84 1067h159l56 -844l512 848h131l59 -848l510 844h164l-660 -1067h-139l-61 835l-510 -835h-137z" />
<glyph unicode="x" horiz-adv-x="1155" d="M-72 0l570 549l-267 510h175l200 -404l404 404h198l-538 -524l276 -535h-174l-211 430l-434 -430h-199z" />
<glyph unicode="y" horiz-adv-x="1175" d="M78 -334q-125 0 -232 74l86 119q68 -53 162 -54q137 0 277 197l-193 1057h164l147 -883l570 883h178l-725 -1094q-111 -162 -212 -230.5t-222 -68.5z" />
<glyph unicode="z" horiz-adv-x="1124" d="M-41 0l29 100l903 826h-658l37 133h885l-29 -101l-905 -825h692l-36 -133h-918z" />
<glyph unicode="{" horiz-adv-x="989" d="M637 -289q-176 37 -258 125t-82 209q0 76 47 227q20 63 21 121q0 68 -41 100.5t-146 32.5h-57l33 123h57q154 0 223.5 77t106.5 282q39 223 163.5 333.5t397.5 122.5l2 -112q-209 -12 -299 -100.5t-119 -270.5q-37 -211 -107.5 -296t-211.5 -107q150 -37 149 -172 q0 -61 -22 -130q-43 -129 -43 -210q0 -94 53 -157t182 -99z" />
<glyph unicode="|" horiz-adv-x="620" d="M285 -262v1896h131v-1896h-131z" />
<glyph unicode="}" horiz-adv-x="989" d="M-82 -289l-2 113q207 12 297 100t121 271q37 211 107.5 295.5t211.5 107.5q-152 37 -151 172q0 55 24 129q43 143 43 211q0 94 -53 156.5t-182 99.5l49 98q338 -70 338 -334q0 -72 -45 -227q-23 -72 -23 -121q0 -68 42 -100.5t147 -32.5h55l-31 -123h-57 q-154 0 -223.5 -76.5t-108.5 -281.5q-39 -223 -163 -334t-396 -123z" />
<glyph unicode="~" horiz-adv-x="968" d="M262 487l-102 45q104 217 241 218q70 0 144 -68q39 -37 57.5 -48t42.5 -11q35 0 62.5 28.5t64.5 91.5l100 -43q-100 -217 -239 -217q-31 0 -56.5 9.5t-42 21.5t-45.5 37q-66 59 -100.5 59t-62 -28.5t-64.5 -94.5z" />
<glyph unicode="&#xa1;" horiz-adv-x="555" d="M369 1219l57 215h188l-59 -215h-186zM43 0l31 117l293 911h88l-195 -911l-33 -117h-184z" />
<glyph unicode="&#xa2;" horiz-adv-x="1159" d="M418 215q-125 53 -196.5 163.5t-71.5 254.5q0 266 184 456.5t446 190.5q37 0 54 -2l67 168h131l-76 -191q180 -59 265 -225l-125 -80q-78 133 -199 172l-315 -805q33 -4 51 -4q184 0 340 136l92 -105q-186 -172 -434 -172q-55 0 -96 8l-76 -192h-131zM784 1139h-10 q-193 0 -329 -149.5t-136 -354.5q0 -96 44 -171t122 -116z" />
<glyph unicode="&#xa3;" horiz-adv-x="1288" d="M-10 0l24 94l183 43l127 467h-172l38 141h170l68 248q55 211 164 316q137 141 346 141q268 0 397 -231l-133 -86q-51 84 -114.5 125.5t-159.5 41.5q-129 0 -219 -90q-84 -84 -127 -245l-60 -220h574l-39 -141h-574l-123 -461h730l-39 -143h-1061z" />
<glyph unicode="&#xa4;" horiz-adv-x="1421" d="M774 -25q-215 0 -356.5 138.5t-155.5 371.5h-194l34 129h162q6 117 39 222h-143l35 127h149q92 223 267 359t401 136q182 0 298.5 -89t168.5 -239l-140 -63q-53 121 -132 182.5t-214 61.5q-150 0 -273.5 -95.5t-197.5 -252.5h557l-35 -127h-571q-35 -125 -41 -222h555 l-35 -129h-520q10 -166 102.5 -264t243.5 -98q211 0 379 184l109 -94q-207 -238 -492 -238z" />
<glyph unicode="&#xa5;" horiz-adv-x="1439" d="M492 0l63 238h-416l33 127h416l47 180h-416l35 127h362l-323 762h180l289 -705l668 705h202l-737 -762h356l-34 -127h-422l-47 -180h421l-34 -127h-422l-62 -238h-159z" />
<glyph unicode="&#xa7;" horiz-adv-x="1294" d="M588 -20q-141 0 -265 49t-196 125l102 102q66 -63 164.5 -104t208.5 -41q94 0 157.5 37.5t63.5 99.5q0 55 -59 95t-205 89q-201 68 -293 132.5t-92 164.5q0 113 102.5 184.5t268.5 79.5q-135 74 -135 191q0 121 113.5 196.5t281.5 75.5q139 0 263 -49t196 -125l-101 -102 q-154 145 -375 145q-94 0 -157.5 -38t-63.5 -99q0 -55 60.5 -96t203.5 -88q201 -68 293.5 -132.5t92.5 -164.5q0 -113 -102.5 -184.5t-268.5 -80.5q135 -72 135 -190q0 -121 -113.5 -196.5t-279.5 -75.5zM807 526q106 0 180 47.5t74 112.5q0 55 -56.5 96t-189.5 84 q-131 43 -231 43q-106 0 -180 -47t-74 -112q0 -55 56 -96.5t189 -84.5q123 -43 232 -43z" />
<glyph unicode="&#xa8;" horiz-adv-x="1024" d="M768 1219l53 194h183l-54 -194h-182zM406 1219l53 194h184l-53 -194h-184z" />
<glyph unicode="&#xa9;" horiz-adv-x="1699" d="M897 -25q-309 0 -524 217.5t-215 522.5t217 524t526 219t524 -217t215 -522t-217 -524.5t-526 -219.5zM897 39q287 0 481.5 198.5t194.5 481t-193.5 479.5t-478.5 197q-287 0 -481.5 -199t-194.5 -481.5t193.5 -479t478.5 -196.5zM907 334q-162 0 -271.5 114.5 t-109.5 278.5t109.5 278.5t273.5 114.5q168 0 295 -123l-74 -82q-106 102 -221 103q-117 0 -192.5 -84t-75.5 -205t78 -206t190 -85q115 0 228 103l73 -72q-135 -135 -303 -135z" />
<glyph unicode="&#xaa;" horiz-adv-x="798" d="M389 834q-76 0 -125 43t-49 112q0 100 75 159.5t191 59.5q76 0 191 -30l4 12q8 29 8 49q0 109 -147 109q-82 0 -164 -31l-19 88q96 37 203 37q111 0 171 -48t60 -134q0 -29 -12 -82l-88 -332h-104l24 94q-96 -106 -219 -106zM115 592l24 96h512l-24 -96h-512zM424 913 q72 0 138.5 50.5t84.5 119.5l8 27q-82 23 -166 23q-74 0 -119.5 -37t-45.5 -95q0 -39 27.5 -63.5t72.5 -24.5z" />
<glyph unicode="&#xab;" horiz-adv-x="1126" d="M762 80l-215 436l4 16l455 443l102 -86l-385 -383l168 -363zM307 80l-215 436l4 16l455 443l102 -86l-385 -383l168 -363z" />
<glyph unicode="&#xad;" horiz-adv-x="839" d="M135 532l43 166h572l-43 -166h-572z" />
<glyph unicode="&#xae;" horiz-adv-x="1699" d="M897 -25q-309 0 -524 217.5t-215 522.5t217 524t526 219t524 -217t215 -522t-217 -524.5t-526 -219.5zM897 39q287 0 481.5 198.5t194.5 481t-193.5 479.5t-478.5 197q-287 0 -481.5 -199t-194.5 -481.5t193.5 -479t478.5 -196.5zM608 358v760h340q127 0 206 -62.5 t79 -166.5q0 -180 -195 -225l234 -306h-137l-220 287h-194v-287h-113zM721 745h217q80 0 130 36t50 102q0 63 -46 98t-128 35h-223v-271z" />
<glyph unicode="&#xaf;" horiz-adv-x="1024" d="M373 1229l35 137h649l-37 -137h-647z" />
<glyph unicode="&#xb0;" horiz-adv-x="792" d="M457 815q-123 0 -200 78t-77 197q0 143 104.5 249.5t250.5 106.5q121 0 198.5 -78t77.5 -194q0 -143 -104.5 -251t-249.5 -108zM467 922q92 0 159.5 73.5t67.5 167.5q0 80 -47 128t-123 48q-92 0 -159.5 -73.5t-67.5 -167.5q0 -80 47 -128t123 -48z" />
<glyph unicode="&#xb1;" horiz-adv-x="1241" d="M530 -25q-186 0 -319 73t-207 190l129 88q139 -203 408 -203q164 0 268 82t104 198q0 125 -105.5 187.5t-279.5 62.5h-88l37 140h105q217 0 343 75.5t126 208.5q0 106 -83 169t-212 63q-197 0 -371 -144l-94 107q211 184 475 184q197 0 326 -99.5t129 -260.5 q0 -150 -105.5 -246t-296.5 -133q115 -37 188.5 -116t73.5 -198q0 -182 -157.5 -305t-393.5 -123z" />
<glyph unicode="&#xb2;" horiz-adv-x="1218" d="M-45 0l33 127l821 623q125 94 182.5 171.5t57.5 165.5q0 98 -73 159t-200 61q-201 0 -393 -197l-107 102q227 242 506 242q193 0 314 -99.5t121 -256.5q0 -123 -74 -226.5t-234 -222.5l-661 -502h766l-39 -147h-1020z" />
<glyph unicode="&#xb3;" horiz-adv-x="1239" d="M508 -25q-182 0 -309 74t-193 205l127 82q121 -213 383 -213q170 0 282.5 90t112.5 227q0 121 -98 182.5t-272 61.5h-66l-20 92l579 512h-706l41 146h934l-33 -119l-584 -510q172 -14 282.5 -105.5t110.5 -246.5q0 -205 -166.5 -341.5t-404.5 -136.5z" />
<glyph unicode="&#xb4;" horiz-adv-x="1024" d="M489 1219l275 297l164 -76l-291 -221h-148z" />
<glyph unicode="&#xb5;" d="M1376 -59l-133 168q-201 -135 -434 -136q-274 0 -451.5 178.5t-177.5 444.5q0 221 108.5 418.5t303 320.5t424.5 123q274 0 451.5 -178t177.5 -442q0 -180 -76 -348t-209 -293l143 -162zM819 123q182 0 332 104l-223 262l127 97l209 -264q211 215 211 509 q0 207 -129 342.5t-340 135.5q-182 0 -335 -102.5t-237 -265.5t-84 -341q0 -207 129 -342t340 -135z" />
<glyph unicode="&#xb6;" horiz-adv-x="1058" d="M549 0l135 510q-219 10 -351 105.5t-132 285.5q0 246 180 389.5t502 143.5h215l-385 -1434h-164z" />
<glyph unicode="&#xb7;" horiz-adv-x="522" d="M158 508l59 215h186l-57 -215h-188z" />
<glyph unicode="&#xb8;" horiz-adv-x="1024" d="M264 -317l-135 69l256 268h125z" />
<glyph unicode="&#xb9;" horiz-adv-x="739" d="M193 0l337 1264l-290 -84l-4 141l385 123h120l-387 -1444h-161z" />
<glyph unicode="&#xba;" horiz-adv-x="804" d="M502 829q-121 0 -197 75t-76 194q0 139 101.5 242.5t242.5 103.5q121 0 197 -76t76 -192q0 -139 -101.5 -243t-242.5 -104zM119 592l24 96h553l-24 -96h-553zM508 924q94 0 161.5 75.5t67.5 171.5q0 80 -47 129.5t-123 49.5q-94 0 -161.5 -75t-67.5 -173q0 -80 47 -129 t123 -49z" />
<glyph unicode="&#xbb;" horiz-adv-x="1126" d="M571 78l-100 86l383 383l-168 362l129 64l215 -436l-4 -17zM119 78l-103 86l383 383l-168 362l129 64l215 -436l-4 -17z" />
<glyph unicode="&#xbc;" horiz-adv-x="3178" d="M2574 0l92 340h-745l-21 121l1063 983h156l-260 -969h223l-37 -135h-223l-90 -340h-158zM2113 475h590l197 731zM538 -201l1428 1753h162l-1428 -1753h-162zM193 0l337 1264l-290 -84l-4 141l385 123h120l-387 -1444h-161z" />
<glyph unicode="&#xbd;" horiz-adv-x="3067" d="M1804 0l33 127l821 623q125 94 182.5 171.5t57.5 165.5q0 98 -73 159t-200 61q-201 0 -393 -197l-107 102q227 242 506 242q193 0 314 -99.5t121 -256.5q0 -123 -74 -226.5t-234 -222.5l-661 -502h766l-39 -147h-1020zM538 -201l1428 1753h162l-1428 -1753h-162zM193 0 l337 1264l-290 -84l-4 141l385 123h120l-387 -1444h-161z" />
<glyph unicode="&#xbe;" horiz-adv-x="3678" d="M3074 0l92 340h-745l-21 121l1063 983h156l-260 -969h223l-37 -135h-223l-90 -340h-158zM2613 475h590l197 731zM1038 -201l1428 1753h162l-1428 -1753h-162zM508 -25q-182 0 -309 74t-193 205l127 82q121 -213 383 -213q170 0 282.5 90t112.5 227q0 121 -98 182.5 t-272 61.5h-66l-20 92l579 512h-706l41 146h934l-33 -119l-584 -510q172 -14 282.5 -105.5t110.5 -246.5q0 -205 -166.5 -341.5t-404.5 -136.5z" />
<glyph unicode="&#xbf;" horiz-adv-x="1099" d="M715 1219l57 215h189l-58 -215h-188zM514 -18q-193 0 -308.5 103t-115.5 259q0 190 147.5 307t389.5 152l82 225h102l-55 -332l-15 -10q-221 -16 -352 -102t-131 -228q0 -106 76 -166.5t196 -60.5q201 0 373 164l92 -107q-205 -204 -481 -204z" />
<glyph unicode="&#xc0;" horiz-adv-x="1558" d="M-82 0l1040 1444h156l266 -1444h-166l-65 379h-782l-271 -379h-178zM469 524h653l-129 736zM1028 1561l-170 221l166 76l115 -297h-111z" />
<glyph unicode="&#xc1;" horiz-adv-x="1558" d="M-82 0l1040 1444h156l266 -1444h-166l-65 379h-782l-271 -379h-178zM469 524h653l-129 736zM967 1561l274 297l164 -76l-291 -221h-147z" />
<glyph unicode="&#xc2;" horiz-adv-x="1558" d="M-82 0l1040 1444h156l266 -1444h-166l-65 379h-782l-271 -379h-178zM469 524h653l-129 736zM766 1561l288 268h140l145 -268h-127l-110 137l-197 -137h-139z" />
<glyph unicode="&#xc3;" horiz-adv-x="1558" d="M-82 0l1040 1444h156l266 -1444h-166l-65 379h-782l-271 -379h-178zM469 524h653l-129 736zM827 1554l-100 43q104 217 240 218q45 0 73.5 -15.5t71.5 -52.5q61 -53 86 -57q6 -2 14 -2q35 0 63 28.5t64 93.5l101 -45q-104 -217 -240 -217q-66 0 -143 68q-66 59 -103 59 q-57 0 -127 -121z" />
<glyph unicode="&#xc4;" horiz-adv-x="1558" d="M-82 0l1040 1444h156l266 -1444h-166l-65 379h-782l-271 -379h-178zM469 524h653l-129 736zM1161 1561l53 194h183l-54 -194h-182zM799 1561l53 194h184l-53 -194h-184z" />
<glyph unicode="&#xc5;" horiz-adv-x="1587" d="M-68 0l1010 1401q-82 47 -82 145q0 94 67.5 161t164.5 67q90 0 147 -51.5t57 -129.5q0 -72 -44 -129t-111 -82l256 -1382h-168l-66 379h-780l-272 -379h-179zM1065 1444q59 0 100 43t41 104q0 45 -30.5 74t-83.5 29q-61 0 -102.5 -43t-41.5 -105q0 -45 31 -73.5t86 -28.5 zM483 524h656l-131 736z" />
<glyph unicode="&#xc6;" horiz-adv-x="2181" d="M-82 0l1227 1434h1147l-41 -148h-838l-131 -489h746l-39 -148h-746l-135 -502h848l-39 -147h-1010l103 379h-582l-324 -379h-186zM549 524h498l204 766h-51z" />
<glyph unicode="&#xc7;" horiz-adv-x="1505" d="M774 -27l-215 -290l-133 69l225 236q-211 39 -344 193.5t-133 385.5q0 229 114.5 434t314.5 331t431 126q190 0 327.5 -83t213.5 -224l-139 -86q-72 121 -169.5 182.5t-246.5 61.5q-274 0 -475 -223.5t-201 -512.5q0 -205 125 -326.5t324 -121.5q244 0 444 194l109 -106 q-240 -240 -562 -240h-10z" />
<glyph unicode="&#xc8;" horiz-adv-x="1337" d="M61 0l385 1434h1027l-41 -148h-865l-131 -489h772l-41 -148h-770l-135 -502h875l-39 -147h-1037zM954 1561l-170 221l166 76l115 -297h-111z" />
<glyph unicode="&#xc9;" horiz-adv-x="1337" d="M61 0l385 1434h1027l-41 -148h-865l-131 -489h772l-41 -148h-770l-135 -502h875l-39 -147h-1037zM829 1561l275 297l164 -76l-291 -221h-148z" />
<glyph unicode="&#xca;" horiz-adv-x="1337" d="M61 0l385 1434h1027l-41 -148h-865l-131 -489h772l-41 -148h-770l-135 -502h875l-39 -147h-1037zM686 1561l289 268h139l146 -268h-127l-111 137l-197 -137h-139z" />
<glyph unicode="&#xcb;" horiz-adv-x="1337" d="M61 0l385 1434h1027l-41 -148h-865l-131 -489h772l-41 -148h-770l-135 -502h875l-39 -147h-1037zM1071 1561l53 194h183l-54 -194h-182zM709 1561l53 194h184l-53 -194h-184z" />
<glyph unicode="&#xcc;" horiz-adv-x="595" d="M76 0l385 1434h162l-385 -1434h-162zM537 1561l-170 221l165 76l115 -297h-110z" />
<glyph unicode="&#xcd;" horiz-adv-x="595" d="M76 0l385 1434h162l-385 -1434h-162zM462 1561l275 297l164 -76l-291 -221h-148z" />
<glyph unicode="&#xce;" horiz-adv-x="595" d="M76 0l385 1434h162l-385 -1434h-162zM272 1561l289 268h139l146 -268h-127l-111 137l-196 -137h-140z" />
<glyph unicode="&#xcf;" horiz-adv-x="595" d="M76 0l385 1434h162l-385 -1434h-162zM666 1561l53 194h182l-53 -194h-182zM303 1561l53 194h185l-54 -194h-184z" />
<glyph unicode="&#xd0;" horiz-adv-x="1638" d="M117 0l174 647h-160l41 148h158l172 639h348q367 0 557 -191q158 -158 158 -412q0 -332 -228 -559q-272 -272 -735 -272h-485zM319 150h304q365 0 594 225q178 178 178 446q0 199 -119 318q-150 145 -438 145h-213l-131 -489h424l-39 -148h-426z" />
<glyph unicode="&#xd1;" horiz-adv-x="1609" d="M61 0l385 1434h150l584 -1164l313 1164h158l-385 -1434h-129l-598 1190l-320 -1190h-158zM821 1554l-100 43q104 217 239 218q45 0 74 -15.5t72 -52.5q61 -53 86 -57q6 -2 14 -2q35 0 62.5 28.5t64.5 93.5l100 -45q-104 -217 -239 -217q-66 0 -144 68q-66 59 -102 59 q-57 0 -127 -121z" />
<glyph unicode="&#xd2;" d="M809 -27q-274 0 -451.5 178.5t-177.5 444.5q0 221 108.5 418.5t303 320.5t424.5 123q274 0 451.5 -178t177.5 -442q0 -221 -109 -420t-303.5 -322t-423.5 -123zM819 123q182 0 335 102.5t237 265t84 340.5q0 207 -129 342.5t-340 135.5q-182 0 -335 -102.5t-237 -265.5 t-84 -341q0 -207 129 -342t340 -135zM1077 1561l-170 221l166 76l115 -297h-111z" />
<glyph unicode="&#xd3;" d="M809 -27q-274 0 -451.5 178.5t-177.5 444.5q0 221 108.5 418.5t303 320.5t424.5 123q274 0 451.5 -178t177.5 -442q0 -221 -109 -420t-303.5 -322t-423.5 -123zM819 123q182 0 335 102.5t237 265t84 340.5q0 207 -129 342.5t-340 135.5q-182 0 -335 -102.5t-237 -265.5 t-84 -341q0 -207 129 -342t340 -135zM930 1561l274 297l164 -76l-291 -221h-147z" />
<glyph unicode="&#xd4;" d="M809 -27q-274 0 -451.5 178.5t-177.5 444.5q0 221 108.5 418.5t303 320.5t424.5 123q274 0 451.5 -178t177.5 -442q0 -221 -109 -420t-303.5 -322t-423.5 -123zM819 123q182 0 335 102.5t237 265t84 340.5q0 207 -129 342.5t-340 135.5q-182 0 -335 -102.5t-237 -265.5 t-84 -341q0 -207 129 -342t340 -135zM805 1561l289 268h139l145 -268h-127l-110 137l-197 -137h-139z" />
<glyph unicode="&#xd5;" d="M809 -27q-274 0 -451.5 178.5t-177.5 444.5q0 221 108.5 418.5t303 320.5t424.5 123q274 0 451.5 -178t177.5 -442q0 -221 -109 -420t-303.5 -322t-423.5 -123zM819 123q182 0 335 102.5t237 265t84 340.5q0 207 -129 342.5t-340 135.5q-182 0 -335 -102.5t-237 -265.5 t-84 -341q0 -207 129 -342t340 -135zM848 1554l-100 43q104 217 239 218q45 0 74 -15.5t72 -52.5q61 -53 86 -57q6 -2 14 -2q35 0 62.5 28.5t64.5 93.5l100 -45q-104 -217 -239 -217q-66 0 -144 68q-66 59 -102 59q-57 0 -127 -121z" />
<glyph unicode="&#xd6;" d="M809 -27q-274 0 -451.5 178.5t-177.5 444.5q0 221 108.5 418.5t303 320.5t424.5 123q274 0 451.5 -178t177.5 -442q0 -221 -109 -420t-303.5 -322t-423.5 -123zM819 123q182 0 335 102.5t237 265t84 340.5q0 207 -129 342.5t-340 135.5q-182 0 -335 -102.5t-237 -265.5 t-84 -341q0 -207 129 -342t340 -135zM1182 1561l53 194h183l-54 -194h-182zM820 1561l53 194h184l-53 -194h-184z" />
<glyph unicode="&#xd8;" d="M809 -27q-283 0 -459 191l-205 -174h-184l313 268q-94 147 -94 338q0 221 108.5 418.5t303 320.5t424.5 123q279 0 457 -184l196 170h184l-305 -264q96 -152 97 -342q0 -221 -109 -420t-303.5 -322t-423.5 -123zM399 362l953 812q-129 139 -346 139q-274 0 -467 -218 t-193 -495q0 -132 53 -238zM819 119q274 0 467 218t193 494q0 133 -58 244l-950 -811q129 -145 348 -145z" />
<glyph unicode="&#xd9;" horiz-adv-x="1552" d="M711 -23q-250 0 -386.5 126t-136.5 333q0 113 31 223l205 775h164l-217 -818q-20 -72 -21 -161q0 -147 95.5 -237.5t279.5 -90.5q186 0 319 131q125 129 183 350l223 826h162l-230 -854q-74 -272 -225 -424q-178 -179 -446 -179zM1012 1561l-170 221l166 76l114 -297 h-110z" />
<glyph unicode="&#xda;" horiz-adv-x="1552" d="M711 -23q-250 0 -386.5 126t-136.5 333q0 113 31 223l205 775h164l-217 -818q-20 -72 -21 -161q0 -147 95.5 -237.5t279.5 -90.5q186 0 319 131q125 129 183 350l223 826h162l-230 -854q-74 -272 -225 -424q-178 -179 -446 -179zM886 1561l275 297l164 -76l-291 -221 h-148z" />
<glyph unicode="&#xdb;" horiz-adv-x="1552" d="M711 -23q-250 0 -386.5 126t-136.5 333q0 113 31 223l205 775h164l-217 -818q-20 -72 -21 -161q0 -147 95.5 -237.5t279.5 -90.5q186 0 319 131q125 129 183 350l223 826h162l-230 -854q-74 -272 -225 -424q-178 -179 -446 -179zM748 1561l288 268h140l145 -268h-127 l-111 137l-196 -137h-139z" />
<glyph unicode="&#xdc;" horiz-adv-x="1552" d="M711 -23q-250 0 -386.5 126t-136.5 333q0 113 31 223l205 775h164l-217 -818q-20 -72 -21 -161q0 -147 95.5 -237.5t279.5 -90.5q186 0 319 131q125 129 183 350l223 826h162l-230 -854q-74 -272 -225 -424q-178 -179 -446 -179zM1133 1561l53 194h182l-53 -194h-182z M770 1561l53 194h185l-54 -194h-184z" />
<glyph unicode="&#xdd;" horiz-adv-x="1357" d="M442 0l156 578l-354 856h180l287 -723l675 723h207l-839 -883l-148 -551h-164zM788 1561l275 297l164 -76l-291 -221h-148z" />
<glyph unicode="&#xde;" horiz-adv-x="1380" d="M61 0l385 1434h160l-63 -246h284q276 0 412 -133q100 -104 100 -269q0 -248 -191.5 -386t-512.5 -138h-340l-72 -262h-162zM334 408h309q252 0 391.5 97t139.5 271q0 106 -68 172q-90 90 -283 90h-321z" />
<glyph unicode="&#xdf;" horiz-adv-x="1275" d="M455 -4l34 131q242 0 362 85t120 212q0 203 -334 256l33 123q410 96 409 350q0 96 -68.5 156.5t-183.5 60.5q-131 0 -225 -97t-141 -274l-268 -999h-158l276 1026q57 223 178 340q139 143 349 143q176 0 287.5 -98t111.5 -248q0 -305 -401 -420q295 -86 294 -321 q0 -190 -178 -310t-497 -116z" />
<glyph unicode="&#xe0;" horiz-adv-x="1179" d="M375 -23q-141 0 -238.5 79t-97.5 214q0 176 131 279.5t340 103.5q172 0 377 -57l6 25q14 53 14 98q0 215 -286 215q-139 0 -299 -55l-27 131q170 63 350 63q199 0 307.5 -87t108.5 -241q0 -68 -23 -145l-159 -600h-154l45 166q-164 -189 -395 -189zM424 100 q137 0 258 89.5t158 226.5l20 73q-164 47 -344 48q-141 0 -229 -70t-88 -178q0 -84 61.5 -136.5t163.5 -52.5zM727 1219l-170 221l166 76l115 -297h-111z" />
<glyph unicode="&#xe1;" horiz-adv-x="1179" d="M375 -23q-141 0 -238.5 79t-97.5 214q0 176 131 279.5t340 103.5q172 0 377 -57l6 25q14 53 14 98q0 215 -286 215q-139 0 -299 -55l-27 131q170 63 350 63q199 0 307.5 -87t108.5 -241q0 -68 -23 -145l-159 -600h-154l45 166q-164 -189 -395 -189zM424 100 q137 0 258 89.5t158 226.5l20 73q-164 47 -344 48q-141 0 -229 -70t-88 -178q0 -84 61.5 -136.5t163.5 -52.5zM606 1219l275 297l164 -76l-291 -221h-148z" />
<glyph unicode="&#xe2;" horiz-adv-x="1179" d="M375 -23q-141 0 -238.5 79t-97.5 214q0 176 131 279.5t340 103.5q172 0 377 -57l6 25q14 53 14 98q0 215 -286 215q-139 0 -299 -55l-27 131q170 63 350 63q199 0 307.5 -87t108.5 -241q0 -68 -23 -145l-159 -600h-154l45 166q-164 -189 -395 -189zM424 100 q137 0 258 89.5t158 226.5l20 73q-164 47 -344 48q-141 0 -229 -70t-88 -178q0 -84 61.5 -136.5t163.5 -52.5zM467 1219l289 268h139l145 -268h-127l-110 137l-197 -137h-139z" />
<glyph unicode="&#xe3;" horiz-adv-x="1179" d="M375 -23q-141 0 -238.5 79t-97.5 214q0 176 131 279.5t340 103.5q172 0 377 -57l6 25q14 53 14 98q0 215 -286 215q-139 0 -299 -55l-27 131q170 63 350 63q199 0 307.5 -87t108.5 -241q0 -68 -23 -145l-159 -600h-154l45 166q-164 -189 -395 -189zM424 100 q137 0 258 89.5t158 226.5l20 73q-164 47 -344 48q-141 0 -229 -70t-88 -178q0 -84 61.5 -136.5t163.5 -52.5zM520 1212l-100 43q104 217 239 218q45 0 74 -15.5t72 -52.5q61 -53 86 -57q6 -2 14 -2q35 0 62.5 28.5t64.5 93.5l100 -45q-104 -217 -239 -217q-66 0 -144 68 q-66 59 -102 59q-57 0 -127 -121z" />
<glyph unicode="&#xe4;" horiz-adv-x="1179" d="M375 -23q-141 0 -238.5 79t-97.5 214q0 176 131 279.5t340 103.5q172 0 377 -57l6 25q14 53 14 98q0 215 -286 215q-139 0 -299 -55l-27 131q170 63 350 63q199 0 307.5 -87t108.5 -241q0 -68 -23 -145l-159 -600h-154l45 166q-164 -189 -395 -189zM424 100 q137 0 258 89.5t158 226.5l20 73q-164 47 -344 48q-141 0 -229 -70t-88 -178q0 -84 61.5 -136.5t163.5 -52.5zM842 1219l53 194h182l-53 -194h-182zM479 1219l53 194h185l-53 -194h-185z" />
<glyph unicode="&#xe5;" horiz-adv-x="1179" d="M375 -23q-141 0 -238.5 79t-97.5 214q0 176 131 279.5t340 103.5q172 0 377 -57l6 25q14 53 14 98q0 215 -286 215q-139 0 -299 -55l-27 131q170 63 350 63q199 0 307.5 -87t108.5 -241q0 -68 -23 -145l-159 -600h-154l45 166q-164 -189 -395 -189zM424 100 q137 0 258 89.5t158 226.5l20 73q-164 47 -344 48q-141 0 -229 -70t-88 -178q0 -84 61.5 -136.5t163.5 -52.5zM788 1217q-90 0 -146 51t-56 129q0 94 67.5 160.5t163.5 66.5q90 0 147.5 -51t57.5 -129q0 -94 -69 -160.5t-165 -66.5zM791 1296q61 0 101 43t40 105 q0 45 -31 73.5t-84 28.5q-61 0 -102 -43t-41 -104q0 -45 31 -74t86 -29z" />
<glyph unicode="&#xe6;" horiz-adv-x="1961" d="M911 219q-236 -242 -514 -242q-160 0 -259 79t-99 220q0 174 134 275.5t343 101.5q186 0 371 -57l6 25q14 53 14 98q0 215 -286 215q-139 0 -299 -55l-27 131q170 63 350 63q317 0 389 -219q182 227 441 227q193 0 300 -115.5t107 -289.5q0 -106 -35 -201h-831 q-2 -14 -2 -43q0 -145 86 -232t233 -87q170 0 328 125l82 -105q-186 -158 -414 -158q-150 0 -258.5 64.5t-159.5 179.5zM1038 594h682q8 37 9 82q0 117 -68 194.5t-197 77.5q-152 0 -266.5 -101t-159.5 -253zM874 487q-168 49 -352 50q-141 0 -232 -68t-91 -174 q0 -88 62.5 -141.5t174.5 -53.5q229 0 443 226q-10 61 -11 110q0 20 6 51z" />
<glyph unicode="&#xe7;" horiz-adv-x="1144" d="M444 -10q-150 37 -248 155.5t-98 292.5q0 260 185.5 451.5t437.5 191.5q156 0 260 -69.5t162 -177.5l-127 -80q-113 188 -305 188q-180 0 -315.5 -150.5t-135.5 -349.5q0 -150 92 -238.5t223 -88.5q160 0 314 139l92 -102q-186 -176 -412 -177h-4l-213 -292l-135 69z" />
<glyph unicode="&#xe8;" horiz-adv-x="1206" d="M258 475q-2 -14 -2 -43q0 -145 86 -232t233 -87q172 0 326 125l82 -105q-186 -158 -416 -158q-211 0 -340 125t-129 326q0 252 179.5 453.5t437.5 201.5q193 0 301 -115.5t108 -289.5q0 -100 -37 -201h-829zM281 594h680q10 31 10 82q0 117 -67.5 194.5t-196.5 77.5 q-152 0 -266.5 -101t-159.5 -253zM735 1219l-170 221l166 76l115 -297h-111z" />
<glyph unicode="&#xe9;" horiz-adv-x="1206" d="M258 475q-2 -14 -2 -43q0 -145 86 -232t233 -87q172 0 326 125l82 -105q-186 -158 -416 -158q-211 0 -340 125t-129 326q0 252 179.5 453.5t437.5 201.5q193 0 301 -115.5t108 -289.5q0 -100 -37 -201h-829zM281 594h680q10 31 10 82q0 117 -67.5 194.5t-196.5 77.5 q-152 0 -266.5 -101t-159.5 -253zM620 1219l275 297l164 -76l-291 -221h-148z" />
<glyph unicode="&#xea;" horiz-adv-x="1206" d="M258 475q-2 -14 -2 -43q0 -145 86 -232t233 -87q172 0 326 125l82 -105q-186 -158 -416 -158q-211 0 -340 125t-129 326q0 252 179.5 453.5t437.5 201.5q193 0 301 -115.5t108 -289.5q0 -100 -37 -201h-829zM281 594h680q10 31 10 82q0 117 -67.5 194.5t-196.5 77.5 q-152 0 -266.5 -101t-159.5 -253zM467 1219l289 268h139l145 -268h-127l-110 137l-197 -137h-139z" />
<glyph unicode="&#xeb;" horiz-adv-x="1206" d="M258 475q-2 -14 -2 -43q0 -145 86 -232t233 -87q172 0 326 125l82 -105q-186 -158 -416 -158q-211 0 -340 125t-129 326q0 252 179.5 453.5t437.5 201.5q193 0 301 -115.5t108 -289.5q0 -100 -37 -201h-829zM281 594h680q10 31 10 82q0 117 -67.5 194.5t-196.5 77.5 q-152 0 -266.5 -101t-159.5 -253zM852 1219l53 194h182l-53 -194h-182zM489 1219l54 194h184l-53 -194h-185z" />
<glyph unicode="&#xec;" horiz-adv-x="538" d="M49 0l285 1059h158l-285 -1059h-158zM383 1219l-170 221l166 76l115 -297h-111z" />
<glyph unicode="&#xed;" horiz-adv-x="538" d="M49 0l285 1059h158l-285 -1059h-158zM352 1219l275 297l164 -76l-291 -221h-148z" />
<glyph unicode="&#xee;" horiz-adv-x="538" d="M49 0l285 1059h158l-285 -1059h-158zM152 1219l288 268h140l145 -268h-127l-111 137l-196 -137h-139z" />
<glyph unicode="&#xef;" horiz-adv-x="538" d="M49 0l285 1059h158l-285 -1059h-158zM537 1219l53 194h182l-53 -194h-182zM174 1219l53 194h185l-54 -194h-184z" />
<glyph unicode="&#xf0;" horiz-adv-x="1273" d="M563 -23q-205 0 -338 127t-133 322q0 233 169 400t394 167q184 0 314 -110l-160 370l-305 -129l-53 103l313 131l-62 137h172l33 -80l232 98l51 -102l-240 -100l131 -322q94 -233 95 -397q0 -248 -173.5 -431.5t-439.5 -183.5zM575 117q180 0 308.5 129t128.5 307 q0 135 -92.5 225t-249.5 90q-172 0 -296 -129t-124 -305q0 -145 91 -231t234 -86z" />
<glyph unicode="&#xf1;" horiz-adv-x="1255" d="M35 0l282 1059h158l-45 -172q172 195 369 194q154 0 246 -89t92 -238q0 -61 -27 -164l-156 -590h-157l159 600q16 55 17 119q0 104 -63.5 162.5t-174.5 58.5q-123 0 -232.5 -96t-150.5 -246l-159 -598h-158zM559 1212l-100 43q104 217 239 218q45 0 74 -15.5t72 -52.5 q61 -53 86 -57q6 -2 14 -2q35 0 62.5 28.5t64.5 93.5l100 -45q-104 -217 -239 -217q-66 0 -144 68q-66 59 -102 59q-57 0 -127 -121z" />
<glyph unicode="&#xf2;" horiz-adv-x="1306" d="M582 -25q-215 0 -348.5 133.5t-133.5 342.5q0 250 185.5 440t437.5 190q217 0 350 -133t133 -340q0 -254 -187 -443.5t-437 -189.5zM592 117q178 0 315 148.5t137 336.5q0 160 -91 250t-240 90q-180 0 -316.5 -150.5t-136.5 -336.5q0 -158 91 -248t241 -90zM758 1219 l-170 221l166 76l114 -297h-110z" />
<glyph unicode="&#xf3;" horiz-adv-x="1306" d="M582 -25q-215 0 -348.5 133.5t-133.5 342.5q0 250 185.5 440t437.5 190q217 0 350 -133t133 -340q0 -254 -187 -443.5t-437 -189.5zM592 117q178 0 315 148.5t137 336.5q0 160 -91 250t-240 90q-180 0 -316.5 -150.5t-136.5 -336.5q0 -158 91 -248t241 -90zM639 1219 l275 297l164 -76l-291 -221h-148z" />
<glyph unicode="&#xf4;" horiz-adv-x="1306" d="M582 -25q-215 0 -348.5 133.5t-133.5 342.5q0 250 185.5 440t437.5 190q217 0 350 -133t133 -340q0 -254 -187 -443.5t-437 -189.5zM592 117q178 0 315 148.5t137 336.5q0 160 -91 250t-240 90q-180 0 -316.5 -150.5t-136.5 -336.5q0 -158 91 -248t241 -90zM520 1219 l289 268h139l146 -268h-127l-111 137l-197 -137h-139z" />
<glyph unicode="&#xf5;" horiz-adv-x="1306" d="M582 -25q-215 0 -348.5 133.5t-133.5 342.5q0 250 185.5 440t437.5 190q217 0 350 -133t133 -340q0 -254 -187 -443.5t-437 -189.5zM592 117q178 0 315 148.5t137 336.5q0 160 -91 250t-240 90q-180 0 -316.5 -150.5t-136.5 -336.5q0 -158 91 -248t241 -90zM561 1212 l-100 43q104 217 239 218q45 0 74 -15.5t72 -52.5q61 -53 86 -57q6 -2 14 -2q35 0 62.5 28.5t64.5 93.5l100 -45q-104 -217 -239 -217q-66 0 -144 68q-66 59 -102 59q-57 0 -127 -121z" />
<glyph unicode="&#xf6;" horiz-adv-x="1306" d="M582 -25q-215 0 -348.5 133.5t-133.5 342.5q0 250 185.5 440t437.5 190q217 0 350 -133t133 -340q0 -254 -187 -443.5t-437 -189.5zM592 117q178 0 315 148.5t137 336.5q0 160 -91 250t-240 90q-180 0 -316.5 -150.5t-136.5 -336.5q0 -158 91 -248t241 -90zM879 1219 l53 194h182l-53 -194h-182zM516 1219l53 194h185l-54 -194h-184z" />
<glyph unicode="&#xf8;" horiz-adv-x="1306" d="M582 -25q-209 0 -346 134l-144 -119h-174l246 207q-63 111 -64 254q0 250 185.5 440t437.5 190q215 0 344 -129l145 119h174l-247 -207q68 -111 67 -256q0 -254 -187 -443.5t-437 -189.5zM289 299l665 557q-88 88 -239 88q-182 0 -319.5 -150.5t-137.5 -338.5 q0 -80 31 -156zM590 113q180 0 318.5 149.5t138.5 339.5q0 90 -31 162l-668 -561q90 -90 242 -90z" />
<glyph unicode="&#xf9;" horiz-adv-x="1255" d="M455 -23q-154 0 -245 89.5t-91 238.5q0 61 26 164l156 590h158l-162 -600q-14 -61 -14 -119q0 -104 62.5 -162.5t172.5 -58.5q125 0 234.5 97t148.5 247l160 596h158l-283 -1059h-158l47 172q-171 -195 -370 -195zM756 1219l-170 221l166 76l114 -297h-110z" />
<glyph unicode="&#xfa;" horiz-adv-x="1255" d="M455 -23q-154 0 -245 89.5t-91 238.5q0 61 26 164l156 590h158l-162 -600q-14 -61 -14 -119q0 -104 62.5 -162.5t172.5 -58.5q125 0 234.5 97t148.5 247l160 596h158l-283 -1059h-158l47 172q-171 -195 -370 -195zM657 1219l275 297l164 -76l-291 -221h-148z" />
<glyph unicode="&#xfb;" horiz-adv-x="1255" d="M455 -23q-154 0 -245 89.5t-91 238.5q0 61 26 164l156 590h158l-162 -600q-14 -61 -14 -119q0 -104 62.5 -162.5t172.5 -58.5q125 0 234.5 97t148.5 247l160 596h158l-283 -1059h-158l47 172q-171 -195 -370 -195zM502 1219l289 268h139l145 -268h-127l-110 137 l-197 -137h-139z" />
<glyph unicode="&#xfc;" horiz-adv-x="1255" d="M455 -23q-154 0 -245 89.5t-91 238.5q0 61 26 164l156 590h158l-162 -600q-14 -61 -14 -119q0 -104 62.5 -162.5t172.5 -58.5q125 0 234.5 97t148.5 247l160 596h158l-283 -1059h-158l47 172q-171 -195 -370 -195zM883 1219l53 194h182l-53 -194h-182zM520 1219l53 194 h185l-53 -194h-185z" />
<glyph unicode="&#xfd;" horiz-adv-x="1175" d="M78 -334q-125 0 -232 74l86 119q68 -53 162 -54q137 0 277 197l-193 1057h164l147 -883l570 883h178l-725 -1094q-111 -162 -212 -230.5t-222 -68.5zM604 1219l275 297l163 -76l-290 -221h-148z" />
<glyph unicode="&#xfe;" horiz-adv-x="1349" d="M-53 -328l489 1823h158l-168 -618q182 205 401 204q182 0 301 -123.5t119 -324.5q0 -276 -178 -467t-416 -191q-285 0 -397 263l-152 -566h-157zM639 115q186 0 314 149.5t128 353.5q0 147 -81.5 235.5t-217.5 88.5q-178 0 -324.5 -152.5t-146.5 -345.5q0 -139 92.5 -234 t235.5 -95z" />
<glyph unicode="&#xff;" horiz-adv-x="1175" d="M78 -334q-125 0 -232 74l86 119q68 -53 162 -54q137 0 277 197l-193 1057h164l147 -883l570 883h178l-725 -1094q-111 -162 -212 -230.5t-222 -68.5zM829 1219l53 194h183l-54 -194h-182zM467 1219l53 194h184l-53 -194h-184z" />
<glyph unicode="&#x152;" horiz-adv-x="2318" d="M891 0q-369 0 -561 193q-156 156 -156 409q0 328 227 559q272 272 736 273h1290l-39 -148h-838l-131 -489h744l-39 -148h-744l-135 -502h848l-41 -147h-1161zM901 150h182l306 1134h-273q-365 0 -594 -225q-178 -178 -178 -447q0 -199 119 -317q149 -145 438 -145z" />
<glyph unicode="&#x153;" horiz-adv-x="2131" d="M1186 475q-2 -14 -2 -43q0 -145 86 -232t233 -87q172 0 326 125l84 -105q-186 -158 -414 -158q-160 0 -273.5 78t-152.5 209q-84 -129 -210 -208t-285 -79q-211 0 -344.5 134.5t-133.5 341.5q0 250 185.5 440t437.5 190q166 0 277.5 -84t150.5 -217q182 301 491 301 q193 0 301.5 -115.5t108.5 -289.5q0 -109 -37 -201h-829zM1208 594h682q8 37 8 82q0 117 -67.5 194.5t-196.5 77.5q-152 0 -266.5 -101t-159.5 -253zM592 117q178 0 315 144.5t137 332.5q0 162 -91 255t-240 93q-182 0 -317.5 -148.5t-135.5 -336.5q0 -158 91 -249t241 -91z " />
<glyph unicode="&#x178;" horiz-adv-x="1357" d="M442 0l156 578l-354 856h180l287 -723l675 723h207l-839 -883l-148 -551h-164zM1018 1561l53 194h182l-53 -194h-182zM655 1561l54 194h184l-53 -194h-185z" />
<glyph unicode="&#x2c6;" horiz-adv-x="1024" d="M412 1219l288 268h140l145 -268h-127l-110 137l-197 -137h-139z" />
<glyph unicode="&#x2dc;" horiz-adv-x="1024" d="M469 1212l-100 43q104 217 239 218q45 0 74 -15.5t72 -52.5q61 -53 86 -57q6 -2 14 -2q35 0 62.5 28.5t64.5 93.5l100 -45q-104 -217 -239 -217q-66 0 -144 68q-66 59 -102 59q-57 0 -127 -121z" />
<glyph unicode="&#x3bc;" d="M1376 -59l-133 168q-201 -135 -434 -136q-274 0 -451.5 178.5t-177.5 444.5q0 221 108.5 418.5t303 320.5t424.5 123q274 0 451.5 -178t177.5 -442q0 -180 -76 -348t-209 -293l143 -162zM819 123q182 0 332 104l-223 262l127 97l209 -264q211 215 211 509 q0 207 -129 342.5t-340 135.5q-182 0 -335 -102.5t-237 -265.5t-84 -341q0 -207 129 -342t340 -135z" />
<glyph unicode="&#x2000;" horiz-adv-x="927" />
<glyph unicode="&#x2001;" horiz-adv-x="1857" />
<glyph unicode="&#x2002;" horiz-adv-x="927" />
<glyph unicode="&#x2003;" horiz-adv-x="1857" />
<glyph unicode="&#x2004;" horiz-adv-x="618" />
<glyph unicode="&#x2005;" horiz-adv-x="462" />
<glyph unicode="&#x2006;" horiz-adv-x="309" />
<glyph unicode="&#x2007;" horiz-adv-x="309" />
<glyph unicode="&#x2008;" horiz-adv-x="231" />
<glyph unicode="&#x2009;" horiz-adv-x="370" />
<glyph unicode="&#x200a;" horiz-adv-x="102" />
<glyph unicode="&#x2010;" horiz-adv-x="839" d="M135 532l43 166h572l-43 -166h-572z" />
<glyph unicode="&#x2011;" horiz-adv-x="839" d="M135 532l43 166h572l-43 -166h-572z" />
<glyph unicode="&#x2012;" horiz-adv-x="839" d="M135 532l43 166h572l-43 -166h-572z" />
<glyph unicode="&#x2013;" horiz-adv-x="1083" d="M135 537l41 157h817l-41 -157h-817z" />
<glyph unicode="&#x2014;" horiz-adv-x="1841" d="M135 537l41 157h1575l-41 -157h-1575z" />
<glyph unicode="&#x2018;" horiz-adv-x="522" d="M270 979l52 186q35 129 103.5 192.5t192.5 86.5l17 -72q-168 -41 -193 -178h76l-59 -215h-189z" />
<glyph unicode="&#x2019;" horiz-adv-x="522" d="M254 971l-16 69q166 41 192 179h-76l60 215h188l-51 -185q-37 -133 -104.5 -194t-192.5 -84z" />
<glyph unicode="&#x201a;" horiz-adv-x="522" d="M-76 -248l-16 70q168 43 192 178h-75l59 215h186l-49 -184q-37 -131 -104.5 -193.5t-192.5 -85.5z" />
<glyph unicode="&#x201c;" horiz-adv-x="931" d="M680 979l49 184q37 131 104.5 193.5t192.5 85.5l16 -70q-166 -43 -190 -178h74l-58 -215h-188zM270 979l49 184q37 131 105 193.5t194 85.5l15 -70q-166 -43 -191 -178h74l-57 -215h-189z" />
<glyph unicode="&#x201d;" horiz-adv-x="931" d="M647 971l-14 69q164 39 190 179h-73l57 215h188l-49 -185q-37 -131 -104.5 -193t-194.5 -85zM238 971l-15 69q164 39 191 179h-74l57 215h189l-49 -185q-37 -131 -104.5 -193t-194.5 -85z" />
<glyph unicode="&#x201e;" horiz-adv-x="931" d="M336 -248l-17 70q166 43 191 178h-74l58 215h188l-49 -184q-37 -131 -104.5 -193.5t-192.5 -85.5zM-76 -248l-16 70q168 43 192 178h-75l59 215h186l-49 -184q-37 -131 -104.5 -193.5t-192.5 -85.5z" />
<glyph unicode="&#x2022;" horiz-adv-x="978" d="M483 442q-98 0 -159.5 61.5t-61.5 166.5q0 131 90 230t217 99q98 0 160 -61t62 -164q0 -131 -91.5 -231.5t-216.5 -100.5z" />
<glyph unicode="&#x2026;" horiz-adv-x="1503" d="M1010 0l57 213h186l-57 -213h-186zM516 0l59 213h185l-58 -213h-186zM25 0l57 213h186l-57 -213h-186z" />
<glyph unicode="&#x202f;" horiz-adv-x="370" />
<glyph unicode="&#x2039;" horiz-adv-x="671" d="M307 80l-215 436l4 16l455 443l102 -86l-385 -383l168 -363z" />
<glyph unicode="&#x203a;" horiz-adv-x="671" d="M119 78l-103 86l383 383l-168 362l129 64l215 -436l-4 -17z" />
<glyph unicode="&#x2044;" horiz-adv-x="1110" d="M-201 -201l1428 1753h162l-1428 -1753h-162z" />
<glyph unicode="&#x205f;" horiz-adv-x="462" />
<glyph unicode="&#x2122;" horiz-adv-x="1419" d="M739 803l179 631h86l133 -347l315 347h104l-178 -631h-88l137 483l-317 -342h-10l-133 342l-138 -483h-90zM307 803l152 545h-201l25 86h493l-24 -86h-201l-154 -545h-90z" />
<glyph unicode="&#xe000;" horiz-adv-x="1060" d="M0 1060h1060v-1060h-1060v1060z" />
<glyph unicode="&#xfb01;" horiz-adv-x="1308" d="M1153 1290l49 174h178l-47 -174h-180zM94 0l248 920h-145l36 139h146l35 127q82 313 362 313q125 0 211 -45l-37 -135q-92 43 -174 43q-160 0 -213 -201l-26 -102h346l-39 -139h-344l-248 -920h-158zM817 0l285 1059h158l-285 -1059h-158z" />
<glyph unicode="&#xfb02;" horiz-adv-x="1308" d="M94 0l248 920h-145l36 139h146l35 127q82 313 362 313q125 0 211 -45l-37 -135q-92 43 -174 43q-160 0 -213 -201l-26 -102h346l-39 -139h-344l-248 -920h-158zM817 0l402 1495h157l-401 -1495h-158z" />
<glyph unicode="&#xfb03;" horiz-adv-x="2076" d="M1921 1290l47 174h180l-47 -174h-180zM1585 0l285 1059h158l-285 -1059h-158zM862 0l248 920h-145l36 139h146l35 127q82 313 362 313q125 0 211 -45l-37 -135q-92 43 -174 43q-160 0 -213 -201l-26 -102h346l-39 -139h-344l-248 -920h-158zM94 0l248 920h-145l36 139 h146l35 127q82 313 362 313q125 0 211 -45l-37 -135q-92 43 -174 43q-160 0 -213 -201l-26 -102h346l-39 -139h-344l-248 -920h-158z" />
<glyph unicode="&#xfb04;" horiz-adv-x="2076" d="M1585 0l402 1495h157l-401 -1495h-158zM862 0l248 920h-145l36 139h146l35 127q82 313 362 313q125 0 211 -45l-37 -135q-92 43 -174 43q-160 0 -213 -201l-26 -102h346l-39 -139h-344l-248 -920h-158zM94 0l248 920h-145l36 139h146l35 127q82 313 362 313 q125 0 211 -45l-37 -135q-92 43 -174 43q-160 0 -213 -201l-26 -102h346l-39 -139h-344l-248 -920h-158z" />
</font>
</defs>
</svg>
