<?xml version="1.0" standalone="no"?>
<!DOCTYPE svg PUBLIC "-//W3C//DTD SVG 1.1//EN" "http://www.w3.org/Graphics/SVG/1.1/DTD/svg11.dtd" >
<svg xmlns="http://www.w3.org/2000/svg">
<metadata>
This is a custom SVG webfont generated by Font Squirrel.
Copyright   : HTF Gothama c 2002 The Hoefler Type Foundry Inc Info wwwtypographycom
</metadata>
<defs>
<font id="webfontTX5ZImNI" horiz-adv-x="1703" >
<font-face units-per-em="2048" ascent="1638" descent="-410" />
<missing-glyph horiz-adv-x="614" />
<glyph unicode=" "  horiz-adv-x="614" />
<glyph unicode="&#x09;" horiz-adv-x="614" />
<glyph unicode="&#xa0;" horiz-adv-x="614" />
<glyph unicode="!" horiz-adv-x="665" d="M229 487l146 906l12 41h365l-13 -41l-338 -906h-172zM18 0l88 328h332l-88 -328h-332z" />
<glyph unicode="&#x22;" horiz-adv-x="1081" d="M698 780l172 654h349l-5 -11l-354 -643h-162zM203 780l172 654h348l-4 -11l-354 -643h-162z" />
<glyph unicode="#" horiz-adv-x="1415" d="M82 0l106 307h-165l69 262h189l104 303h-190l69 263h213l105 299h270l-104 -299h296l105 299h270l-104 -299h168l-70 -263h-190l-105 -303h193l-70 -262h-215l-106 -307h-271l107 307h-297l-107 -307h-270zM551 569h297l104 303h-297z" />
<glyph unicode="$" horiz-adv-x="1302" d="M330 -201l67 221q-262 53 -407 244l229 193q115 -131 266 -170l97 317q-168 63 -254 145t-86 234q0 193 162.5 322t402.5 129h16l37 118h213l-43 -145q180 -49 316 -186l-213 -209q-96 90 -189 125l-92 -306q164 -61 247 -147t83 -233q0 -199 -165 -325t-411 -126h-2 l-61 -201h-213zM674 899l80 264q-94 -6 -141.5 -47t-47.5 -100q0 -37 24 -63.5t85 -53.5zM676 270q182 16 182 148q0 72 -100 119z" />
<glyph unicode="%" horiz-adv-x="1802" d="M487 709q-141 0 -228 87t-87 228q0 166 112.5 296t284.5 130q141 0 228.5 -87t87.5 -228q0 -166 -113 -296t-285 -130zM123 0l1378 1434h266l-1378 -1434h-266zM1321 -16q-141 0 -228 87t-87 228q0 166 112.5 296t284.5 130q141 0 228 -87t87 -228q0 -166 -112.5 -296 t-284.5 -130zM500 887q80 0 132 75.5t52 163.5q0 68 -34 107t-93 39q-80 0 -132 -76t-52 -164q0 -68 34 -106.5t93 -38.5zM1333 162q80 0 132.5 75.5t52.5 163.5q0 68 -34 107t-93 39q-80 0 -132.5 -76t-52.5 -164q0 -68 34 -106.5t93 -38.5z" />
<glyph unicode="&#x26;" horiz-adv-x="1425" d="M1055 -29l-115 158q-215 -150 -438 -149q-203 0 -329 103t-126 282q0 139 99.5 258.5t306.5 187.5q-76 131 -76 248q0 164 127 281.5t330 117.5q176 0 285.5 -97t109.5 -247q0 -266 -387 -397l162 -217q88 92 174 231l190 -133q-106 -162 -223 -289l141 -190zM713 893 q135 49 185 94t50 109q0 45 -33.5 80.5t-95.5 35.5q-74 0 -120 -47t-46 -110q1 -74 60 -162zM537 238q121 0 262 88l-221 305q-117 -45 -175.5 -110.5t-58.5 -137.5q0 -63 50.5 -104t142.5 -41z" />
<glyph unicode="'" horiz-adv-x="585" d="M203 780l172 654h348l-4 -11l-354 -643h-162z" />
<glyph unicode="(" horiz-adv-x="911" d="M494 -293q-375 301 -375 721q0 336 212 607.5t597 424.5l114 -231q-293 -135 -450.5 -346t-157.5 -445q0 -268 254 -532z" />
<glyph unicode=")" horiz-adv-x="911" d="M4 -285l-115 232q293 135 451 346t158 444q0 268 -254 533l194 198q375 -301 375 -720q0 -336 -212 -607.5t-597 -425.5z" />
<glyph unicode="*" horiz-adv-x="880" d="M569 752l-161 43l94 229l-232 -94l-45 164l248 32l-197 154l121 121l152 -199l33 246l161 -43l-94 -229l232 94l45 -164l-248 -33l196 -153l-120 -121l-152 198z" />
<glyph unicode="+" horiz-adv-x="1329" d="M430 211l98 369h-370l75 282h371l98 369h291l-98 -369h371l-76 -282h-371l-98 -369h-291z" />
<glyph unicode="," horiz-adv-x="653" d="M-104 -332l-21 129q233 20 266 203h-127l88 328h332l-74 -277q-53 -199 -165.5 -289t-298.5 -94z" />
<glyph unicode="-" horiz-adv-x="843" d="M90 485l80 299h631l-80 -299h-631z" />
<glyph unicode="." horiz-adv-x="653" d="M14 0l88 328h332l-88 -328h-332z" />
<glyph unicode="/" horiz-adv-x="1085" d="M-276 -262l1394 1896h293l-1395 -1896h-292z" />
<glyph unicode="0" horiz-adv-x="1495" d="M686 -25q-252 0 -405.5 163t-153.5 433q0 160 53 315.5t147.5 283.5t244 208t323.5 80q252 0 405.5 -162.5t153.5 -433.5q0 -160 -53 -315.5t-147.5 -283.5t-244 -208t-323.5 -80zM711 260q180 0 299.5 193.5t119.5 410.5q0 150 -69.5 230t-190.5 80q-180 0 -299.5 -194 t-119.5 -411q0 -150 69.5 -229.5t190.5 -79.5z" />
<glyph unicode="1" horiz-adv-x="888" d="M195 0l297 1110l-261 -59l-4 268l451 125h215l-387 -1444h-311z" />
<glyph unicode="2" horiz-adv-x="1257" d="M-61 0l69 258l725 500q209 143 209 266q0 70 -48 108.5t-132 38.5q-158 0 -342 -178l-193 201q229 260 549 260q221 0 355.5 -110.5t134.5 -284.5q0 -135 -75 -243.5t-263 -240.5l-443 -303h602l-73 -272h-1075z" />
<glyph unicode="3" horiz-adv-x="1236" d="M496 -25q-373 0 -531 273l234 172q119 -162 311 -162q113 0 191.5 60.5t78.5 140.5q0 82 -73.5 126t-206.5 44h-88l-13 196l422 338h-542l73 271h969l-66 -238l-462 -352q305 -74 305 -357q0 -217 -173 -364.5t-429 -147.5z" />
<glyph unicode="4" horiz-adv-x="1349" d="M645 0l82 309h-664l-30 234l989 901h307l-235 -879h192l-69 -256h-193l-82 -309h-297zM432 565h365l123 459z" />
<glyph unicode="5" horiz-adv-x="1249" d="M512 -23q-154 0 -305.5 74t-224.5 182l221 187q145 -158 336 -158q125 0 207.5 65.5t82.5 157.5q0 82 -67.5 133.5t-198.5 51.5q-86 0 -192 -45l-160 129l223 680h869l-76 -277h-584l-82 -244q76 16 146 17q199 0 322.5 -111.5t123.5 -298.5q0 -221 -178 -382t-463 -161z " />
<glyph unicode="6" horiz-adv-x="1316" d="M641 -25q-242 0 -373 131q-147 147 -147 404q0 209 72.5 403.5t207.5 329.5q215 215 521 215q262 0 442 -166l-182 -227q-125 111 -287 111q-166 0 -279 -113q-100 -100 -147 -252q49 49 141 85t189 36q186 0 311 -106.5t125 -293.5q0 -221 -174 -389t-420 -168zM641 242 q119 0 198 75.5t79 171.5q0 86 -59.5 137.5t-156.5 51.5q-125 0 -203.5 -71.5t-78.5 -174.5q0 -76 53 -129q62 -61 168 -61z" />
<glyph unicode="7" horiz-adv-x="1247" d="M18 0l891 1161h-659l74 273h1032l-66 -238l-901 -1196h-371z" />
<glyph unicode="8" horiz-adv-x="1355" d="M614 -20q-227 0 -387.5 112.5t-160.5 292.5q0 156 99 253t267 138q-84 43 -129 117t-45 160q0 156 143.5 278.5t395.5 122.5q223 0 365.5 -108.5t142.5 -276.5q0 -135 -83 -229.5t-231 -128.5q100 -39 159.5 -117t59.5 -188q0 -172 -164 -299t-432 -127zM774 852 q100 0 167 51t69 127q2 72 -58.5 119t-169.5 47q-96 0 -163.5 -50t-69.5 -126q-2 -72 60.5 -120t164.5 -48zM631 233q117 0 193.5 52.5t78.5 136.5q2 78 -70.5 127t-189.5 49t-192.5 -53t-77.5 -133q-2 -78 69.5 -128.5t188.5 -50.5z" />
<glyph unicode="9" horiz-adv-x="1316" d="M498 -25q-266 0 -471 183l184 227q150 -127 303 -127q164 0 281 117q94 94 139 231q-49 -49 -139 -84t-187 -35q-188 0 -312 106.5t-124 299.5q0 236 173 400.5t421 164.5q109 0 211 -33.5t164 -95.5q147 -147 147 -434q0 -197 -74.5 -383t-212.5 -324 q-212 -213 -503 -213zM709 741q123 0 200.5 74t77.5 180q0 84 -51 135q-61 61 -168 62q-123 0 -201 -76t-78 -182q0 -92 61 -142.5t159 -50.5z" />
<glyph unicode=":" horiz-adv-x="653" d="M221 770l88 328h332l-88 -328h-332zM14 0l88 328h332l-88 -328h-332z" />
<glyph unicode=";" horiz-adv-x="653" d="M221 770l88 328h332l-88 -328h-332zM-104 -332l-21 129q233 20 266 203h-127l88 328h332l-74 -277q-53 -199 -165.5 -289t-298.5 -94z" />
<glyph unicode="&#x3c;" horiz-adv-x="1310" d="M1022 145l-875 435l76 282l1108 434l-84 -303l-768 -284l617 -285z" />
<glyph unicode="=" horiz-adv-x="1310" d="M254 846l76 282h970l-75 -282h-971zM111 313l75 283h971l-76 -283h-970z" />
<glyph unicode="&#x3e;" horiz-adv-x="1310" d="M66 145l84 304l768 284l-617 285l74 278l874 -434l-75 -282z" />
<glyph unicode="?" horiz-adv-x="1114" d="M362 487l41 332l13 10q410 29 409 209q0 127 -170 127q-152 0 -293 -121l-163 207q96 98 228 149.5t271 51.5q209 0 333 -109.5t124 -263.5q0 -180 -133 -294.5t-391 -153.5l-60 -144h-209zM176 0l88 328h332l-88 -328h-332z" />
<glyph unicode="@" horiz-adv-x="2007" d="M965 -317q-375 0 -613.5 222t-238.5 572q0 260 131 487.5t362.5 363.5t503.5 136q373 0 601 -206.5t228 -497.5q0 -305 -142 -466t-343 -161q-102 0 -177 42t-108 116q-156 -160 -327 -160q-141 0 -235.5 92t-94.5 254q0 240 157.5 402.5t356.5 162.5q180 0 268 -143 l39 127l228 -63l-162 -510q-35 -109 0 -166.5t119 -57.5q123 0 229 144.5t106 386.5q0 258 -204.5 440t-538.5 182q-252 0 -463 -126t-330.5 -333.5t-119.5 -445.5q0 -315 214 -515t554 -200q215 0 419 93l33 -72q-214 -100 -452 -100zM944 338q106 0 194.5 97t88.5 229 q0 76 -49.5 123t-128.5 47q-106 0 -191.5 -94.5t-85.5 -225.5q0 -82 46 -129t126 -47z" />
<glyph unicode="A" horiz-adv-x="1566" d="M-117 0l1002 1444h303l227 -1444h-323l-45 322h-607l-217 -322h-340zM629 600h381l-66 473z" />
<glyph unicode="B" horiz-adv-x="1468" d="M25 0l385 1434h557q242 0 363.5 -99.5t121.5 -253.5q0 -139 -83 -231t-224 -123q201 -94 201 -290.5t-163 -316.5t-454 -120h-704zM561 854h318q258 0 258 174q0 59 -49.5 94t-149.5 35h-297zM406 276h370q119 0 187.5 48.5t68.5 132.5q0 63 -50 99t-146 36h-347z" />
<glyph unicode="C" horiz-adv-x="1486" d="M813 -25q-297 0 -486.5 171t-189.5 454q0 346 257 602t616 256q387 0 573 -305l-260 -182q-70 98 -150.5 147t-201.5 49q-199 0 -352.5 -164.5t-153.5 -390.5q0 -154 98.5 -250t251.5 -96q96 0 171 35t165 107l205 -213q-238 -220 -543 -220z" />
<glyph unicode="D" horiz-adv-x="1591" d="M25 0l385 1434h417q377 0 562 -185q156 -156 155 -420q0 -330 -235 -565q-264 -264 -752 -264h-532zM416 285h178q305 0 479 174q143 143 144 358q0 143 -84 227q-104 104 -330 105h-154z" />
<glyph unicode="E" horiz-adv-x="1361" d="M25 0l385 1434h1071l-76 -281h-758l-78 -293h666l-76 -276h-665l-82 -303h770l-76 -281h-1081z" />
<glyph unicode="F" horiz-adv-x="1357" d="M25 0l385 1434h1091l-78 -287h-776l-82 -305h684l-75 -287h-685l-149 -555h-315z" />
<glyph unicode="G" horiz-adv-x="1597" d="M809 -25q-127 0 -245 38t-215 112t-155.5 196.5t-58.5 276.5q0 223 115 419.5t322.5 318.5t457.5 122q395 0 586 -248l-234 -206q-152 166 -376 165q-227 0 -385 -166.5t-158 -394.5q0 -162 104.5 -253t261.5 -91q133 0 256 55l68 234h-317l73 272h623l-203 -714 q-239 -136 -520 -136z" />
<glyph unicode="H" horiz-adv-x="1548" d="M25 0l385 1434h315l-152 -568h574l151 568h316l-385 -1434h-316l156 575h-573l-156 -575h-315z" />
<glyph unicode="I" horiz-adv-x="688" d="M39 0l385 1434h315l-385 -1434h-315z" />
<glyph unicode="J" horiz-adv-x="1177" d="M385 -20q-141 0 -265 61t-200 178l223 195q113 -141 258 -142q113 0 193 80q35 35 61.5 94.5t63.5 198.5l211 789h323l-231 -865q-45 -174 -89 -267t-120 -169q-154 -153 -428 -153z" />
<glyph unicode="K" horiz-adv-x="1488" d="M25 0l385 1434h315l-170 -635l709 635h426l-699 -600l338 -834h-346l-242 645l-297 -254l-104 -391h-315z" />
<glyph unicode="L" horiz-adv-x="1282" d="M25 0l385 1434h315l-307 -1147h715l-78 -287h-1030z" />
<glyph unicode="M" horiz-adv-x="1777" d="M25 0l385 1434h327l207 -607l535 607h364l-385 -1434h-319l250 936l-562 -612h-8l-229 606l-250 -930h-315z" />
<glyph unicode="N" horiz-adv-x="1609" d="M25 0l385 1434h290l418 -912l246 912h311l-385 -1434h-268l-434 940l-252 -940h-311z" />
<glyph unicode="O" d="M793 -25q-293 0 -474.5 180.5t-181.5 454.5q0 215 106.5 408.5t307.5 316.5t448 123q293 0 474.5 -180t181.5 -455q0 -215 -106.5 -408.5t-307 -316.5t-448.5 -123zM829 266q215 0 356.5 169t141.5 368q0 164 -96 264t-268 100q-215 0 -356.5 -169t-141.5 -367 q0 -164 96 -264.5t268 -100.5z" />
<glyph unicode="P" horiz-adv-x="1390" d="M25 0l385 1434h454q305 0 451 -146q111 -111 110 -295q0 -260 -196.5 -409.5t-499.5 -149.5h-272l-117 -434h-315zM530 711h215q160 0 255.5 68.5t95.5 187.5q0 72 -47 118q-63 63 -197 64h-205z" />
<glyph unicode="Q" d="M1266 -90l-95 151q-172 -86 -378 -86q-293 0 -474.5 180.5t-181.5 454.5q0 215 106.5 408.5t307.5 316.5t448 123q293 0 474.5 -180t181.5 -455q0 -340 -244 -590l115 -151zM829 266q92 0 181 37l-185 250l260 174l146 -233q96 147 96 309q0 164 -96 264t-268 100 q-215 0 -356.5 -169t-141.5 -367q0 -164 96 -264.5t268 -100.5z" />
<glyph unicode="R" horiz-adv-x="1488" d="M25 0l385 1434h522q311 0 454 -144q111 -111 111 -289q0 -195 -117.5 -326.5t-345.5 -185.5l244 -489h-358l-222 459h-235l-123 -459h-315zM539 737h280q154 0 251 61.5t97 176.5q0 70 -45 115q-59 59 -209 59h-264z" />
<glyph unicode="S" horiz-adv-x="1302" d="M604 -20q-420 0 -624 264l237 200q172 -188 401 -188q96 0 158 41t62 109q0 53 -50.5 92t-193.5 96q-166 68 -259 156t-93 231q0 213 165.5 343t403.5 130q338 0 537 -213l-218 -217q-86 80 -164.5 117t-179.5 37q-94 0 -151 -44t-57 -102q0 -55 49 -90t202 -98 q168 -68 256.5 -155t88.5 -232q0 -217 -167 -347t-403 -130z" />
<glyph unicode="T" horiz-adv-x="1269" d="M326 0l307 1143h-436l77 291h1188l-78 -291h-436l-307 -1143h-315z" />
<glyph unicode="U" horiz-adv-x="1564" d="M702 -23q-250 0 -393 128t-143 356q0 106 35 229l198 744h316l-207 -772q-23 -78 -23 -156q0 -109 65.5 -173.5t184.5 -64.5q139 0 234 90q94 94 139 267l217 809h315l-229 -854q-74 -279 -221 -426q-177 -177 -488 -177z" />
<glyph unicode="V" horiz-adv-x="1482" d="M442 -10l-186 1444h338l98 -1000l635 1000h354l-960 -1444h-279z" />
<glyph unicode="W" horiz-adv-x="2269" d="M369 -10l-103 1444h328l37 -971l577 975h271l65 -975l557 971h357l-877 -1444h-293l-69 919l-562 -919h-288z" />
<glyph unicode="X" horiz-adv-x="1433" d="M-104 0l692 743l-307 691h354l180 -461l402 461h403l-674 -725l318 -709h-355l-192 481l-418 -481h-403z" />
<glyph unicode="Y" horiz-adv-x="1331" d="M346 0l152 565l-297 869h350l168 -594l491 594h381l-784 -897l-145 -537h-316z" />
<glyph unicode="Z" horiz-adv-x="1411" d="M-39 0l64 240l1007 917h-737l76 277h1163l-66 -240l-1007 -918h768l-74 -276h-1194z" />
<glyph unicode="[" horiz-adv-x="952" d="M-20 -266l456 1700h662l-66 -244h-362l-326 -1213h363l-66 -243h-661z" />
<glyph unicode="\" horiz-adv-x="1085" d="M668 -262l-426 1896h258l426 -1896h-258z" />
<glyph unicode="]" horiz-adv-x="952" d="M-127 -266l66 243h362l326 1213h-363l66 244h661l-456 -1700h-662z" />
<glyph unicode="^" horiz-adv-x="1024" d="M172 1010l418 424h213l188 -424h-203l-122 239l-250 -239h-244z" />
<glyph unicode="_" horiz-adv-x="1228" d="M-236 -328l64 238h1237l-64 -238h-1237z" />
<glyph unicode="`" horiz-adv-x="1024" d="M709 1219l-195 245l274 117l134 -362h-213z" />
<glyph unicode="a" horiz-adv-x="1204" d="M334 -20q-141 0 -230.5 82.5t-89.5 211.5q0 184 133.5 290t339.5 106q152 0 310 -49l4 14q12 49 12 82q0 129 -207 129q-147 0 -293 -60l-49 246q186 78 408 78q219 0 331.5 -87t112.5 -251q0 -72 -24 -166l-162 -606h-301l33 127q-138 -147 -328 -147zM467 193 q94 0 172 64.5t104 156.5l9 28q-100 39 -205 39q-98 0 -160.5 -47t-62.5 -125q0 -51 38.5 -83.5t104.5 -32.5z" />
<glyph unicode="b" horiz-adv-x="1380" d="M690 -20q-225 0 -344 180l-43 -160h-309l397 1495h311l-137 -516q150 139 309 139q184 0 303 -127t119 -344q0 -285 -183 -476t-423 -191zM649 242q129 0 227.5 111.5t98.5 273.5q0 106 -62.5 167.5t-167.5 61.5q-131 0 -231 -112.5t-100 -268.5q0 -104 65.5 -168.5 t169.5 -64.5z" />
<glyph unicode="c" horiz-adv-x="1146" d="M598 -25q-225 0 -368.5 136.5t-143.5 359.5q0 268 191.5 457.5t455.5 189.5q311 0 451 -241l-238 -168q-47 72 -99 107.5t-138 35.5q-123 0 -219.5 -114.5t-96.5 -266.5q0 -104 61.5 -167.5t153.5 -63.5q121 0 248 108l160 -203q-94 -84 -190.5 -127t-227.5 -43z" />
<glyph unicode="d" horiz-adv-x="1380" d="M504 -20q-184 0 -303 126.5t-119 344.5q0 285 183.5 476t422.5 191q225 0 344 -180l148 557h311l-399 -1495h-312l33 119q-149 -139 -309 -139zM633 242q131 0 231.5 112.5t100.5 268.5q0 104 -65.5 168.5t-170.5 64.5q-129 0 -227.5 -111.5t-98.5 -273.5 q0 -106 63 -167.5t167 -61.5z" />
<glyph unicode="e" horiz-adv-x="1243" d="M377 440q16 -215 250 -215q119 0 243 88l144 -192q-174 -145 -422 -146q-238 0 -373 130.5t-135 357.5q0 162 79 310.5t231.5 246.5t340.5 98q209 0 329 -119.5t120 -308.5q0 -117 -56 -250h-751zM403 635h478q10 35 10 72q0 72 -45 116.5t-135 44.5q-104 0 -186.5 -63.5 t-121.5 -169.5z" />
<glyph unicode="f" horiz-adv-x="841" d="M47 0l225 831h-131l72 267h129l14 59q92 352 445 352q127 0 213 -30l-68 -258q-66 27 -135 26q-121 0 -154 -119l-8 -30h264l-71 -267h-258l-226 -831h-311z" />
<glyph unicode="g" horiz-adv-x="1374" d="M512 -332q-352 0 -580 154l164 213q182 -121 396 -121q150 0 237 88q61 61 100 197l11 37q-88 -78 -166 -112t-178 -34q-168 0 -288 102.5t-120 280.5q0 268 183.5 456.5t416.5 188.5q225 0 334 -190l45 170h311l-235 -883q-43 -164 -84 -246t-109 -149 q-151 -152 -438 -152zM618 338q129 0 226.5 95t97.5 224q0 92 -59.5 146.5t-157.5 54.5q-129 0 -222 -98t-93 -228q0 -94 57 -144t151 -50z" />
<glyph unicode="h" horiz-adv-x="1273" d="M-6 0l397 1495h311l-135 -512q152 135 299.5 135t235.5 -86t88 -233q0 -70 -37 -209l-158 -590h-311l162 602q14 53 14 98q0 135 -151 136q-90 0 -150.5 -58.5t-87.5 -161.5l-166 -616h-311z" />
<glyph unicode="i" horiz-adv-x="618" d="M326 1219l75 276h328l-76 -276h-327zM6 0l295 1098h311l-295 -1098h-311z" />
<glyph unicode="j" horiz-adv-x="616" d="M326 1219l73 276h328l-74 -276h-327zM-94 -334q-94 0 -170 17l65 243q41 -10 76 -10q51 0 90 40t58 110l276 1032h311l-286 -1071q-98 -361 -420 -361z" />
<glyph unicode="k" horiz-adv-x="1210" d="M-6 0l401 1495h312l-209 -774l444 377h406l-531 -428l240 -670h-348l-156 465l-158 -127l-90 -338h-311z" />
<glyph unicode="l" horiz-adv-x="618" d="M6 0l402 1495h311l-402 -1495h-311z" />
<glyph unicode="m" horiz-adv-x="1943" d="M-6 0l293 1098h311l-31 -115q152 135 291 135q219 0 291 -198q164 199 393 198q147 0 232.5 -85t85.5 -234q0 -70 -37 -209l-158 -590h-311l162 602q14 53 14 98q0 135 -146 136q-176 0 -233 -220l-166 -616h-311l162 602q14 53 14 98q0 135 -145 136q-176 0 -234 -220 l-166 -616h-311z" />
<glyph unicode="n" horiz-adv-x="1267" d="M-6 0l293 1098h311l-31 -115q152 135 299.5 135t235.5 -86t88 -233q0 -70 -37 -209l-158 -590h-311l162 602q14 53 14 98q0 135 -151 136q-90 0 -150.5 -58.5t-87.5 -161.5l-166 -616h-311z" />
<glyph unicode="o" horiz-adv-x="1335" d="M614 -25q-240 0 -384 142.5t-144 365.5q0 250 187.5 442.5t447.5 192.5q240 0 384 -142t144 -366q0 -250 -187.5 -442.5t-447.5 -192.5zM629 242q135 0 225 116.5t90 243.5q0 119 -64.5 184.5t-172.5 65.5q-135 0 -225.5 -117t-90.5 -243q0 -119 64.5 -184.5t173.5 -65.5 z" />
<glyph unicode="p" horiz-adv-x="1380" d="M-94 -328l381 1426h311l-33 -119q150 139 309 139q184 0 303 -127t119 -344q0 -285 -183 -476t-423 -191q-225 0 -344 180l-129 -488h-311zM649 242q129 0 227.5 111.5t98.5 273.5q0 106 -62.5 167.5t-167.5 61.5q-131 0 -231 -112.5t-100 -268.5q0 -104 65.5 -168.5 t169.5 -64.5z" />
<glyph unicode="q" horiz-adv-x="1380" d="M672 -410l141 529q-150 -139 -309 -139q-184 0 -303 126.5t-119 344.5q0 285 183.5 476t422.5 191q225 0 344 -180l41 160h311l-401 -1508h-311zM633 242q131 0 231.5 112.5t100.5 268.5q0 104 -65.5 168.5t-170.5 64.5q-129 0 -227.5 -111.5t-98.5 -273.5 q0 -106 63 -167.5t167 -61.5z" />
<glyph unicode="r" horiz-adv-x="858" d="M-6 0l293 1098h311l-59 -221q166 243 386 242q16 0 31 -1l-88 -325h-16q-336 0 -442 -404l-105 -389h-311z" />
<glyph unicode="s" horiz-adv-x="1024" d="M444 -25q-133 0 -267 51.5t-226 147.5l180 186q147 -147 336 -147q131 0 131 96q0 47 -127 103q-78 33 -124 57.5t-97 63t-74.5 88t-23.5 112.5q0 168 119.5 276.5t320.5 108.5q125 0 241.5 -46t190.5 -111l-168 -197q-147 117 -287 117q-57 0 -88.5 -25t-31.5 -68 q0 -31 34.5 -55t110.5 -59q68 -31 109.5 -53.5t92 -60.5t75 -87t24.5 -111q0 -178 -126 -282.5t-325 -104.5z" />
<glyph unicode="t" horiz-adv-x="849" d="M393 -18q-135 0 -207.5 60t-72.5 155q0 55 20 137l133 497h-131l72 267h131l76 280h311l-76 -280h258l-71 -267h-258l-123 -460q-8 -33 -9 -49q0 -66 84 -66q80 0 160 35l-72 -264q-96 -45 -225 -45z" />
<glyph unicode="u" horiz-adv-x="1273" d="M407.5 -20q-147.5 0 -235.5 86t-88 233q0 70 37 209l158 590h311l-162 -602q-14 -53 -14 -99q0 -135 151 -135q90 0 150.5 58.5t87.5 160.5l166 617h311l-293 -1098h-311l31 115q-152 -135 -299.5 -135z" />
<glyph unicode="v" horiz-adv-x="1212" d="M307 -8l-133 1106h320l49 -731l436 731h334l-723 -1106h-283z" />
<glyph unicode="w" horiz-adv-x="1755" d="M223 -8l-41 1106h316l-2 -666l385 670h268l29 -672l360 668h309l-639 -1106h-280l-31 674l-395 -674h-279z" />
<glyph unicode="x" horiz-adv-x="1183" d="M-102 0l536 573l-239 525h331l123 -307l258 307h371l-514 -555l242 -543h-332l-127 326l-279 -326h-370z" />
<glyph unicode="y" horiz-adv-x="1212" d="M174 -334q-147 0 -256 76l166 225q57 -43 121 -43q68 0 121 68l-136 1106h318l51 -746l412 746h336l-680 -1125q-109 -168 -211.5 -237.5t-241.5 -69.5z" />
<glyph unicode="z" horiz-adv-x="1140" d="M-55 0l59 219l719 627h-533l68 252h930l-60 -219l-720 -627h559l-68 -252h-954z" />
<glyph unicode="{" horiz-adv-x="1003" d="M631 -289q-203 39 -292 115t-89 199q0 68 41 176q33 86 33 145q0 63 -31 93t-137 30h-66l64 238h65q147 0 206.5 60t84.5 253q29 231 164 336.5t413 107.5l21 -209q-186 -18 -249.5 -83.5t-80.5 -225.5q-23 -205 -98.5 -285.5t-235.5 -97.5q84 -12 129 -61t45 -121 q0 -63 -36 -158q-35 -96 -35 -143q0 -63 37 -100t149 -78z" />
<glyph unicode="|" horiz-adv-x="716" d="M270 -262v1896h246v-1896h-246z" />
<glyph unicode="}" horiz-adv-x="1003" d="M-63 -289l-21 209q184 18 247.5 83t82.5 226q23 205 98.5 286t235.5 97q-84 12 -129 61.5t-45 121.5q0 63 36 157q35 92 35 144q0 63 -37 100t-149 78l102 190q203 -39 292 -114.5t89 -198.5q0 -68 -41 -176q-33 -86 -33 -146q0 -63 31 -92.5t137 -29.5h66l-64 -238h-65 q-147 0 -206.5 -60.5t-84.5 -252.5q-29 -231 -163.5 -337t-413.5 -108z" />
<glyph unicode="~" horiz-adv-x="1044" d="M276 451l-163 81q55 125 137 199t176 74q82 0 162 -60q74 -53 108 -53q76 0 144 121l164 -82q-55 -125 -137.5 -198.5t-176.5 -73.5q-78 0 -162 59q-74 53 -108 53q-76 1 -144 -120z" />
<glyph unicode="&#xa1;" horiz-adv-x="665" d="M315 1106l88 328h332l-88 -328h-332zM2 0l12 41l338 905h172l-145 -905l-12 -41h-365z" />
<glyph unicode="&#xa2;" horiz-adv-x="1200" d="M414 213q-133 61 -206 179t-73 276q0 268 187.5 449t461.5 181q35 0 54 -2l57 150h213l-76 -193q152 -66 232 -202l-236 -164q-45 72 -106 106l-224 -571q133 2 256 100l164 -211q-174 -156 -418 -155q-49 0 -94 6l-67 -174h-213zM743 1030q-131 -14 -217 -120.5 t-86 -237.5q0 -123 86 -195z" />
<glyph unicode="&#xa3;" horiz-adv-x="1318" d="M-27 0l56 207l170 51l77 289h-155l69 260h156l51 192q53 199 164 310q145 145 383 145q303 0 438 -246l-252 -172q-78 127 -208 127q-82 0 -140 -57q-55 -55 -84 -160l-39 -139h474l-70 -260h-471l-74 -275h627l-74 -272h-1098z" />
<glyph unicode="&#xa4;" horiz-adv-x="1474" d="M811 -25q-231 0 -379.5 126t-177.5 343h-205l55 207h154q10 78 27 140h-144l56 206h149q92 209 266 335t404 126q399 0 518 -334l-268 -133q-45 96 -103.5 139.5t-163.5 43.5q-193 0 -301 -177h396l-56 -206h-417q-20 -55 -35 -140h415l-55 -207h-362q18 -90 81.5 -137 t151.5 -47q86 0 151.5 34t137.5 109l213 -184q-203 -244 -508 -244z" />
<glyph unicode="&#xa5;" horiz-adv-x="1456" d="M428 0l51 188h-377l60 222h377l32 127h-376l59 221h293l-256 676h340l172 -531l461 531h374l-624 -676h297l-60 -221h-377l-32 -127h377l-60 -222h-377l-51 -188h-303z" />
<glyph unicode="&#xa7;" horiz-adv-x="1294" d="M580 -18q-156 0 -282 50t-200 140l195 172q129 -129 303 -129q66 0 104.5 21.5t38.5 56.5q0 33 -43 55.5t-166 54.5q-92 25 -150 46.5t-117.5 55.5t-88.5 81t-29 110q0 102 71 172t208 99q-74 70 -74 170q0 139 130 230t327 91q156 0 281.5 -50t199.5 -140l-194 -172 q-129 129 -303 129q-66 0 -105 -21.5t-39 -56.5q0 -33 43 -55.5t166 -55.5q92 -25 150.5 -46t118 -55t88 -81t28.5 -111q0 -102 -70.5 -171.5t-207.5 -98.5q74 -70 73 -170q0 -139 -129.5 -230t-326.5 -91zM817 590q53 0 93 28.5t40 71.5q0 39 -41 63.5t-135 53.5 q-141 43 -205 43q-53 0 -93 -28.5t-40 -71.5q0 -39 41 -63.5t135 -53.5q142 -43 205 -43z" />
<glyph unicode="&#xa8;" horiz-adv-x="1024" d="M760 1219l76 276h299l-76 -276h-299zM322 1219l75 276h299l-75 -276h-299z" />
<glyph unicode="&#xa9;" horiz-adv-x="1699" d="M891 -25q-309 0 -524 217.5t-215 522.5t217 524t526 219t524 -217t215 -522t-217 -524.5t-526 -219.5zM890.5 57q278.5 0 468 192.5t189.5 469.5q0 274 -187 465.5t-466 191.5t-468 -192.5t-189 -468.5q0 -274 187 -466t465.5 -192zM901 319q-172 0 -287.5 117 t-115.5 289t115.5 291t293.5 119q186 0 312 -121l-113 -131q-98 88 -199 88q-96 0 -160.5 -71t-64.5 -173t63.5 -173t161.5 -71q100 0 203 92l115 -114q-131 -142 -324 -142z" />
<glyph unicode="&#xaa;" horiz-adv-x="798" d="M385 819q-78 0 -127 45t-49 117q0 102 73.5 160.5t186.5 58.5q86 0 172 -29l4 15q6 18 6 35q0 76 -116 75q-84 0 -160 -32l-29 135q102 43 225 43q244 0 244 -187q0 -47 -12 -90l-90 -334h-166l18 70q-78 -82 -180 -82zM104 567l37 135h545l-37 -135h-545zM459 936 q51 0 95 36t56 87l4 16q-57 20 -112.5 20.5t-89 -25.5t-33.5 -69q0 -29 21.5 -47t58.5 -18z" />
<glyph unicode="&#xab;" horiz-adv-x="1316" d="M868 63l-221 459l4 17l486 477l178 -164l-361 -350l164 -328zM315 63l-221 459l4 17l486 477l178 -164l-361 -350l164 -328z" />
<glyph unicode="&#xad;" horiz-adv-x="843" d="M90 485l80 299h631l-80 -299h-631z" />
<glyph unicode="&#xae;" horiz-adv-x="1699" d="M891 -25q-309 0 -524 217.5t-215 522.5t217 524t526 219t524 -217t215 -522t-217 -524.5t-526 -219.5zM890.5 57q278.5 0 468 192.5t189.5 469.5q0 274 -187 465.5t-466 191.5t-468 -192.5t-189 -468.5q0 -274 187 -466t465.5 -192zM588 344v789h350q143 0 226 -69 t83 -192q0 -184 -170 -245l193 -283h-203l-168 254h-137v-254h-174zM762 748h174q66 0 100.5 31.5t34.5 82.5q0 117 -139 117h-170v-231z" />
<glyph unicode="&#xaf;" horiz-adv-x="1024" d="M326 1229l57 215h737l-57 -215h-737z" />
<glyph unicode="&#xb0;" horiz-adv-x="911" d="M510 743q-150 0 -240 88.5t-90 227.5q0 156 115 274.5t276 118.5q150 0 240 -88t90 -227q0 -156 -114.5 -275t-276.5 -119zM516 903q86 0 144.5 70.5t58.5 156.5q0 72 -42 117t-112 45q-86 0 -144.5 -70.5t-58.5 -156.5q0 -72 42 -117t112 -45z" />
<glyph unicode="&#xb1;" horiz-adv-x="1271" d="M524 -25q-383 0 -551 275l234 176q137 -168 340 -168q121 0 190.5 56.5t69.5 129.5q0 150 -232 150h-155l69 260h166q115 0 193 48t78 134q0 61 -53.5 100.5t-135.5 39.5q-90 0 -159.5 -35t-155.5 -113l-174 199q225 231 526 231q219 0 347 -107.5t128 -265.5 q0 -133 -81 -227t-238 -139q82 -33 138 -107.5t56 -175.5q0 -199 -166 -330t-434 -131z" />
<glyph unicode="&#xb2;" horiz-adv-x="1257" d="M-61 0l69 258l725 500q209 143 209 266q0 70 -48 108.5t-132 38.5q-158 0 -342 -178l-193 201q229 260 549 260q221 0 355.5 -110.5t134.5 -284.5q0 -135 -75 -243.5t-263 -240.5l-443 -303h602l-73 -272h-1075z" />
<glyph unicode="&#xb3;" horiz-adv-x="1236" d="M496 -25q-373 0 -531 273l234 172q119 -162 311 -162q113 0 191.5 60.5t78.5 140.5q0 82 -73.5 126t-206.5 44h-88l-13 196l422 338h-542l73 271h969l-66 -238l-462 -352q305 -74 305 -357q0 -217 -173 -364.5t-429 -147.5z" />
<glyph unicode="&#xb4;" horiz-adv-x="1024" d="M426 1219l330 362l262 -117l-330 -245h-262z" />
<glyph unicode="&#xb5;" d="M1266 -90l-95 151q-172 -86 -378 -86q-293 0 -474.5 180.5t-181.5 454.5q0 215 106.5 408.5t307.5 316.5t448 123q293 0 474.5 -180t181.5 -455q0 -340 -244 -590l115 -151zM829 266q92 0 181 37l-185 250l260 174l146 -233q96 147 96 309q0 164 -96 264t-268 100 q-215 0 -356.5 -169t-141.5 -367q0 -164 96 -264.5t268 -100.5z" />
<glyph unicode="&#xb6;" horiz-adv-x="1226" d="M594 0l115 434q-254 4 -392.5 112.5t-138.5 321.5q0 250 184.5 408t538.5 158h391l-385 -1434h-313z" />
<glyph unicode="&#xb7;" horiz-adv-x="653" d="M131 471l88 328h332l-88 -328h-332z" />
<glyph unicode="&#xb8;" horiz-adv-x="1024" d="M322 -354l-232 108l254 266h229z" />
<glyph unicode="&#xb9;" horiz-adv-x="888" d="M195 0l297 1110l-261 -59l-4 268l451 125h215l-387 -1444h-311z" />
<glyph unicode="&#xba;" horiz-adv-x="823" d="M504 817q-131 0 -211 78t-80 201q0 139 101.5 243.5t246.5 104.5q131 0 211 -78t80 -201q0 -139 -101.5 -243.5t-246.5 -104.5zM104 567l37 135h570l-37 -135h-570zM510 963q76 0 125 61t49 135q0 61 -36 100t-93 39q-76 0 -125 -61t-49 -135q0 -61 36 -100t93 -39z" />
<glyph unicode="&#xbb;" horiz-adv-x="1316" d="M729 63l-178 164l360 351l-163 327l249 111l222 -459l-5 -16zM176 63l-178 164l360 351l-163 327l249 111l222 -459l-4 -16z" />
<glyph unicode="&#xbc;" horiz-adv-x="3303" d="M2599 0l82 309h-664l-30 234l989 901h307l-235 -879h192l-69 -256h-193l-82 -309h-297zM2386 565h365l123 459zM606 -201l1424 1753h274l-1423 -1753h-275zM195 0l297 1110l-261 -59l-4 268l451 125h215l-387 -1444h-311z" />
<glyph unicode="&#xbd;" horiz-adv-x="3211" d="M1893 0l69 258l725 500q209 143 209 266q0 70 -48 108.5t-132 38.5q-158 0 -342 -178l-193 201q229 260 549 260q221 0 355.5 -110.5t134.5 -284.5q0 -135 -75 -243.5t-263 -240.5l-443 -303h602l-73 -272h-1075zM606 -201l1424 1753h274l-1423 -1753h-275zM195 0 l297 1110l-261 -59l-4 268l451 125h215l-387 -1444h-311z" />
<glyph unicode="&#xbe;" horiz-adv-x="3651" d="M2947 0l82 309h-664l-30 234l989 901h307l-235 -879h192l-69 -256h-193l-82 -309h-297zM2734 565h365l123 459zM954 -201l1424 1753h274l-1423 -1753h-275zM496 -25q-373 0 -531 273l234 172q119 -162 311 -162q113 0 191.5 60.5t78.5 140.5q0 82 -73.5 126t-206.5 44 h-88l-13 196l422 338h-542l73 271h969l-66 -238l-462 -352q305 -74 305 -357q0 -217 -173 -364.5t-429 -147.5z" />
<glyph unicode="&#xbf;" horiz-adv-x="1114" d="M608 1106l88 328h332l-88 -328h-332zM506 -18q-209 0 -333 109.5t-124 262.5q0 180 133 295t391 154l60 143h209l-41 -332l-13 -10q-410 -29 -409 -209q0 -127 170 -127q152 0 293 121l164 -207q-96 -98 -228.5 -149t-271.5 -51z" />
<glyph unicode="&#xc0;" horiz-adv-x="1566" d="M-117 0l1002 1444h303l227 -1444h-323l-45 322h-607l-217 -322h-340zM629 600h381l-66 473zM947 1547l-195 245l274 117l134 -362h-213z" />
<glyph unicode="&#xc1;" horiz-adv-x="1566" d="M-117 0l1002 1444h303l227 -1444h-323l-45 322h-607l-217 -322h-340zM629 600h381l-66 473zM872 1546l330 363l262 -117l-329 -246h-263z" />
<glyph unicode="&#xc2;" horiz-adv-x="1566" d="M-117 0l1002 1444h303l227 -1444h-323l-45 322h-607l-217 -322h-340zM629 600h381l-66 473zM610 1547l338 321h295l166 -321h-226l-125 135l-198 -135h-250z" />
<glyph unicode="&#xc3;" horiz-adv-x="1566" d="M-117 0l1002 1444h303l227 -1444h-323l-45 322h-607l-217 -322h-340zM629 600h381l-66 473zM766 1532l-164 82q55 125 137 198.5t176 73.5q82 0 162 -59q74 -53 109 -53q76 0 143 120l164 -82q-55 -125 -137 -198.5t-176 -73.5q-78 0 -162 59q-74 53 -109 54 q-75 0 -143 -121z" />
<glyph unicode="&#xc4;" horiz-adv-x="1566" d="M-117 0l1002 1444h303l227 -1444h-323l-45 322h-607l-217 -322h-340zM629 600h381l-66 473zM1112 1547l76 276h299l-76 -276h-299zM674 1547l75 276h299l-75 -276h-299z" />
<glyph unicode="&#xc5;" horiz-adv-x="1566" d="M-117 0l983 1417q-53 59 -53 146q0 113 80 193.5t194 80.5q102 0 164 -60.5t62 -152.5q0 -141 -119 -225l221 -1399h-323l-45 322h-607l-217 -322h-340zM1042 1462q61 0 100.5 48.5t39.5 111.5q0 45 -27 73.5t-72 28.5q-61 0 -100 -48t-39 -111q0 -45 26.5 -74t71.5 -29z M629 600h381l-66 473z" />
<glyph unicode="&#xc6;" horiz-adv-x="2166" d="M-125 0l1157 1434h1254l-76 -281h-717l-78 -293h625l-76 -276h-625l-82 -303h730l-76 -281h-1041l86 322h-483l-256 -322h-342zM696 600h336l150 561h-39z" />
<glyph unicode="&#xc7;" horiz-adv-x="1486" d="M795 -25l-222 -329l-231 108l240 252q-205 59 -325 215t-120 379q0 346 257 602t616 256q387 0 573 -305l-260 -182q-70 98 -150.5 147t-201.5 49q-199 0 -352.5 -164.5t-153.5 -390.5q0 -154 98.5 -250t251.5 -96q96 0 171 35t165 107l205 -213q-238 -219 -543 -220h-18 z" />
<glyph unicode="&#xc8;" horiz-adv-x="1361" d="M25 0l385 1434h1071l-76 -281h-758l-78 -293h666l-76 -276h-665l-82 -303h770l-76 -281h-1081zM877 1546l-195 246l274 117l134 -363h-213z" />
<glyph unicode="&#xc9;" horiz-adv-x="1361" d="M25 0l385 1434h1071l-76 -281h-758l-78 -293h666l-76 -276h-665l-82 -303h770l-76 -281h-1081zM788 1547l330 362l262 -117l-330 -245h-262z" />
<glyph unicode="&#xca;" horiz-adv-x="1361" d="M25 0l385 1434h1071l-76 -281h-758l-78 -293h666l-76 -276h-665l-82 -303h770l-76 -281h-1081zM571 1546l338 322h295l166 -322h-225l-125 135l-199 -135h-250z" />
<glyph unicode="&#xcb;" horiz-adv-x="1361" d="M25 0l385 1434h1071l-76 -281h-758l-78 -293h666l-76 -276h-665l-82 -303h770l-76 -281h-1081zM1039 1547l76 276h299l-76 -276h-299zM601 1547l75 276h299l-75 -276h-299z" />
<glyph unicode="&#xcc;" horiz-adv-x="688" d="M39 0l385 1434h315l-385 -1434h-315zM524 1546l-194 246l274 117l133 -363h-213z" />
<glyph unicode="&#xcd;" horiz-adv-x="688" d="M39 0l385 1434h315l-385 -1434h-315zM430 1547l330 362l262 -117l-330 -245h-262z" />
<glyph unicode="&#xce;" horiz-adv-x="688" d="M39 0l385 1434h315l-385 -1434h-315zM188 1546l338 322h295l166 -322h-225l-125 135l-199 -135h-250z" />
<glyph unicode="&#xcf;" horiz-adv-x="688" d="M39 0l385 1434h315l-385 -1434h-315zM678 1546l76 277h299l-76 -277h-299zM240 1546l75 277h299l-75 -277h-299z" />
<glyph unicode="&#xd0;" horiz-adv-x="1632" d="M66 0l155 582h-170l76 278h170l154 574h417q377 0 562 -185q156 -156 155 -420q0 -330 -235 -565q-264 -264 -752 -264h-532zM457 285h178q305 0 479 174q143 143 143 358q0 143 -83 227q-104 104 -330 105h-154l-78 -289h291l-76 -278h-290z" />
<glyph unicode="&#xd1;" horiz-adv-x="1609" d="M25 0l385 1434h290l418 -912l246 912h311l-385 -1434h-268l-434 940l-252 -940h-311zM793 1532l-164 82q55 125 137 199t176 74q82 0 162 -60q74 -53 108 -53q76 0 144 121l164 -82q-55 -125 -137.5 -199t-176.5 -74q-78 0 -162 60q-74 53 -108 53q-75 0 -143 -121z" />
<glyph unicode="&#xd2;" d="M793 -25q-293 0 -474.5 180.5t-181.5 454.5q0 215 106.5 408.5t307.5 316.5t448 123q293 0 474.5 -180t181.5 -455q0 -215 -106.5 -408.5t-307 -316.5t-448.5 -123zM829 266q215 0 356.5 169t141.5 368q0 164 -96 264t-268 100q-215 0 -356.5 -169t-141.5 -367 q0 -164 96 -264.5t268 -100.5zM967 1546l-195 246l275 117l133 -363h-213z" />
<glyph unicode="&#xd3;" d="M793 -25q-293 0 -474.5 180.5t-181.5 454.5q0 215 106.5 408.5t307.5 316.5t448 123q293 0 474.5 -180t181.5 -455q0 -215 -106.5 -408.5t-307 -316.5t-448.5 -123zM829 266q215 0 356.5 169t141.5 368q0 164 -96 264t-268 100q-215 0 -356.5 -169t-141.5 -367 q0 -164 96 -264.5t268 -100.5zM848 1546l330 363l262 -117l-330 -246h-262z" />
<glyph unicode="&#xd4;" d="M793 -25q-293 0 -474.5 180.5t-181.5 454.5q0 215 106.5 408.5t307.5 316.5t448 123q293 0 474.5 -180t181.5 -455q0 -215 -106.5 -408.5t-307 -316.5t-448.5 -123zM829 266q215 0 356.5 169t141.5 368q0 164 -96 264t-268 100q-215 0 -356.5 -169t-141.5 -367 q0 -164 96 -264.5t268 -100.5zM653 1546l338 322h295l166 -322h-225l-125 135l-199 -135h-250z" />
<glyph unicode="&#xd5;" d="M793 -25q-293 0 -474.5 180.5t-181.5 454.5q0 215 106.5 408.5t307.5 316.5t448 123q293 0 474.5 -180t181.5 -455q0 -215 -106.5 -408.5t-307 -316.5t-448.5 -123zM829 266q215 0 356.5 169t141.5 368q0 164 -96 264t-268 100q-215 0 -356.5 -169t-141.5 -367 q0 -164 96 -264.5t268 -100.5zM816 1532l-164 82q55 125 137 199t176 74q82 0 162 -60q74 -53 108 -53q76 0 144 121l164 -82q-55 -125 -137.5 -199t-176.5 -74q-78 0 -162 60q-74 53 -108 53q-75 0 -143 -121z" />
<glyph unicode="&#xd6;" d="M793 -25q-293 0 -474.5 180.5t-181.5 454.5q0 215 106.5 408.5t307.5 316.5t448 123q293 0 474.5 -180t181.5 -455q0 -215 -106.5 -408.5t-307 -316.5t-448.5 -123zM829 266q215 0 356.5 169t141.5 368q0 164 -96 264t-268 100q-215 0 -356.5 -169t-141.5 -367 q0 -164 96 -264.5t268 -100.5zM1139 1547l76 276h299l-76 -276h-299zM701 1547l75 276h299l-75 -276h-299z" />
<glyph unicode="&#xd8;" d="M793 -25q-244 0 -418 131l-127 -116h-301l291 266q-100 154 -101 354q0 215 106.5 408.5t307.5 316.5t448 123q256 0 433 -143l139 129h301l-307 -283q90 -145 90 -338q0 -215 -106.5 -408.5t-307 -316.5t-448.5 -123zM483 463l711 653q-90 66 -229 66 q-219 0 -365.5 -174t-146.5 -379q-1 -92 30 -166zM827 252q219 0 365.5 174t146.5 379q0 76 -22 147l-703 -647q88 -53 213 -53z" />
<glyph unicode="&#xd9;" horiz-adv-x="1564" d="M702 -23q-250 0 -393 128t-143 356q0 106 35 229l198 744h316l-207 -772q-23 -78 -23 -156q0 -109 65.5 -173.5t184.5 -64.5q139 0 234 90q94 94 139 267l217 809h315l-229 -854q-74 -279 -221 -426q-177 -177 -488 -177zM948 1546l-194 246l274 117l133 -363h-213z" />
<glyph unicode="&#xda;" horiz-adv-x="1564" d="M702 -23q-250 0 -393 128t-143 356q0 106 35 229l198 744h316l-207 -772q-23 -78 -23 -156q0 -109 65.5 -173.5t184.5 -64.5q139 0 234 90q94 94 139 267l217 809h315l-229 -854q-74 -279 -221 -426q-177 -177 -488 -177zM856 1547l330 362l262 -117l-330 -245h-262z" />
<glyph unicode="&#xdb;" horiz-adv-x="1564" d="M702 -23q-250 0 -393 128t-143 356q0 106 35 229l198 744h316l-207 -772q-23 -78 -23 -156q0 -109 65.5 -173.5t184.5 -64.5q139 0 234 90q94 94 139 267l217 809h315l-229 -854q-74 -279 -221 -426q-177 -177 -488 -177zM621 1546l337 322h295l166 -322h-225l-125 135 l-199 -135h-249z" />
<glyph unicode="&#xdc;" horiz-adv-x="1564" d="M702 -23q-250 0 -393 128t-143 356q0 106 35 229l198 744h316l-207 -772q-23 -78 -23 -156q0 -109 65.5 -173.5t184.5 -64.5q139 0 234 90q94 94 139 267l217 809h315l-229 -854q-74 -279 -221 -426q-177 -177 -488 -177zM1116 1546l76 277h299l-76 -277h-299zM678 1546 l76 277h299l-76 -277h-299z" />
<glyph unicode="&#xdd;" horiz-adv-x="1331" d="M346 0l152 565l-297 869h350l168 -594l491 594h381l-784 -897l-145 -537h-316zM735 1547l330 362l262 -117l-330 -245h-262z" />
<glyph unicode="&#xde;" horiz-adv-x="1411" d="M25 0l385 1434h315l-55 -209h139q305 0 451 -146q111 -111 110 -295q0 -260 -196.5 -409.5t-499.5 -149.5h-273l-61 -225h-315zM475 502h215q160 0 255 68.5t95 187.5q0 72 -47 119q-63 63 -196 63h-205z" />
<glyph unicode="&#xdf;" horiz-adv-x="1294" d="M465 -4l65 242q178 -6 258 55t80 162q0 147 -235 172l55 204q283 63 283 261q0 74 -46 114.5t-116 40.5q-172 0 -236 -233l-270 -1014h-309l276 1030q59 219 179 338q141 141 370 141q207 0 326 -108.5t119 -278.5q0 -145 -83 -244.5t-233 -146.5q213 -92 213 -285 q0 -211 -174 -335.5t-522 -114.5z" />
<glyph unicode="&#xe0;" horiz-adv-x="1204" d="M334 -20q-141 0 -230.5 82.5t-89.5 211.5q0 184 133.5 290t339.5 106q152 0 310 -49l4 14q12 49 12 82q0 129 -207 129q-147 0 -293 -60l-49 246q186 78 408 78q219 0 331.5 -87t112.5 -251q0 -72 -24 -166l-162 -606h-301l33 127q-138 -147 -328 -147zM467 193 q94 0 172 64.5t104 156.5l9 28q-100 39 -205 39q-98 0 -160.5 -47t-62.5 -125q0 -51 38.5 -83.5t104.5 -32.5zM680 1219l-195 245l275 117l133 -362h-213z" />
<glyph unicode="&#xe1;" horiz-adv-x="1204" d="M334 -20q-141 0 -230.5 82.5t-89.5 211.5q0 184 133.5 290t339.5 106q152 0 310 -49l4 14q12 49 12 82q0 129 -207 129q-147 0 -293 -60l-49 246q186 78 408 78q219 0 331.5 -87t112.5 -251q0 -72 -24 -166l-162 -606h-301l33 127q-138 -147 -328 -147zM467 193 q94 0 172 64.5t104 156.5l9 28q-100 39 -205 39q-98 0 -160.5 -47t-62.5 -125q0 -51 38.5 -83.5t104.5 -32.5zM582 1219l330 362l262 -117l-330 -245h-262z" />
<glyph unicode="&#xe2;" horiz-adv-x="1204" d="M334 -20q-141 0 -230.5 82.5t-89.5 211.5q0 184 133.5 290t339.5 106q152 0 310 -49l4 14q12 49 12 82q0 129 -207 129q-147 0 -293 -60l-49 246q186 78 408 78q219 0 331.5 -87t112.5 -251q0 -72 -24 -166l-162 -606h-301l33 127q-138 -147 -328 -147zM467 193 q94 0 172 64.5t104 156.5l9 28q-100 39 -205 39q-98 0 -160.5 -47t-62.5 -125q0 -51 38.5 -83.5t104.5 -32.5zM367 1219l338 321h294l166 -321h-225l-125 135l-199 -135h-249z" />
<glyph unicode="&#xe3;" horiz-adv-x="1204" d="M334 -20q-141 0 -230.5 82.5t-89.5 211.5q0 184 133.5 290t339.5 106q152 0 310 -49l4 14q12 49 12 82q0 129 -207 129q-147 0 -293 -60l-49 246q186 78 408 78q219 0 331.5 -87t112.5 -251q0 -72 -24 -166l-162 -606h-301l33 127q-138 -147 -328 -147zM467 193 q94 0 172 64.5t104 156.5l9 28q-100 39 -205 39q-98 0 -160.5 -47t-62.5 -125q0 -51 38.5 -83.5t104.5 -32.5zM504 1204l-164 82q55 125 137 199t176 74q82 0 162 -60q74 -53 108 -53q76 0 144 121l164 -82q-55 -125 -137.5 -199t-176.5 -74q-78 0 -162 60q-74 53 -108 53 q-75 0 -143 -121z" />
<glyph unicode="&#xe4;" horiz-adv-x="1204" d="M334 -20q-141 0 -230.5 82.5t-89.5 211.5q0 184 133.5 290t339.5 106q152 0 310 -49l4 14q12 49 12 82q0 129 -207 129q-147 0 -293 -60l-49 246q186 78 408 78q219 0 331.5 -87t112.5 -251q0 -72 -24 -166l-162 -606h-301l33 127q-138 -147 -328 -147zM467 193 q94 0 172 64.5t104 156.5l9 28q-100 39 -205 39q-98 0 -160.5 -47t-62.5 -125q0 -51 38.5 -83.5t104.5 -32.5zM838 1219l75 276h299l-75 -276h-299zM399 1219l76 276h299l-76 -276h-299z" />
<glyph unicode="&#xe5;" horiz-adv-x="1204" d="M334 -20q-141 0 -230.5 82.5t-89.5 211.5q0 184 133.5 290t339.5 106q152 0 310 -49l4 14q12 49 12 82q0 129 -207 129q-147 0 -293 -60l-49 246q186 78 408 78q219 0 331.5 -87t112.5 -251q0 -72 -24 -166l-162 -606h-301l33 127q-138 -147 -328 -147zM467 193 q94 0 172 64.5t104 156.5l9 28q-100 39 -205 39q-98 0 -160.5 -47t-62.5 -125q0 -51 38.5 -83.5t104.5 -32.5zM801 1214q-102 0 -164 60.5t-62 152.5q0 113 80 194t195 81q102 0 163.5 -60.5t61.5 -152.5q0 -113 -79.5 -194t-194.5 -81zM805 1327q61 0 100 48t39 112 q0 45 -26.5 73.5t-71.5 28.5q-61 0 -100 -48t-39 -111q0 -45 26.5 -74t71.5 -29z" />
<glyph unicode="&#xe6;" horiz-adv-x="1925" d="M856 186q-201 -207 -491 -206q-166 0 -258.5 79.5t-92.5 214.5q0 184 133.5 290t339.5 106q152 0 310 -49l4 14q12 49 12 82q0 129 -207 129q-147 0 -293 -60l-49 246q186 78 408 78q268 0 360 -162q170 170 395 170q201 0 320 -120.5t119 -307.5q0 -117 -56 -250h-751 q16 -215 250 -215q119 0 243 88l144 -192q-160 -145 -422 -146q-295 0 -418 211zM1085 635h478q10 35 10 72q0 72 -45 116.5t-135 44.5q-104 0 -186.5 -63.5t-121.5 -169.5zM791 426q-125 55 -244 55q-98 0 -160.5 -47t-62.5 -125q0 -53 42 -84.5t121 -31.5q76 0 163 36.5 t153 102.5q-8 43 -12 94z" />
<glyph unicode="&#xe7;" horiz-adv-x="1146" d="M606 -25l-221 -329l-231 108l243 254q-145 53 -228 175t-83 288q0 268 191.5 457.5t455.5 189.5q311 0 451 -241l-238 -168q-47 72 -99 107.5t-138 35.5q-123 0 -219.5 -114.5t-96.5 -266.5q0 -104 61.5 -167.5t153.5 -63.5q121 0 248 108l160 -203q-94 -84 -188.5 -126 t-221.5 -44z" />
<glyph unicode="&#xe8;" horiz-adv-x="1243" d="M377 440q16 -215 250 -215q119 0 243 88l144 -192q-174 -145 -422 -146q-238 0 -373 130.5t-135 357.5q0 162 79 310.5t231.5 246.5t340.5 98q209 0 329 -119.5t120 -308.5q0 -117 -56 -250h-751zM403 635h478q10 35 10 72q0 72 -45 116.5t-135 44.5q-104 0 -186.5 -63.5 t-121.5 -169.5zM694 1219l-194 245l274 117l133 -362h-213z" />
<glyph unicode="&#xe9;" horiz-adv-x="1243" d="M377 440q16 -215 250 -215q119 0 243 88l144 -192q-174 -145 -422 -146q-238 0 -373 130.5t-135 357.5q0 162 79 310.5t231.5 246.5t340.5 98q209 0 329 -119.5t120 -308.5q0 -117 -56 -250h-751zM403 635h478q10 35 10 72q0 72 -45 116.5t-135 44.5q-104 0 -186.5 -63.5 t-121.5 -169.5zM586 1219l330 362l262 -117l-330 -245h-262z" />
<glyph unicode="&#xea;" horiz-adv-x="1243" d="M377 440q16 -215 250 -215q119 0 243 88l144 -192q-174 -145 -422 -146q-238 0 -373 130.5t-135 357.5q0 162 79 310.5t231.5 246.5t340.5 98q209 0 329 -119.5t120 -308.5q0 -117 -56 -250h-751zM403 635h478q10 35 10 72q0 72 -45 116.5t-135 44.5q-104 0 -186.5 -63.5 t-121.5 -169.5zM375 1219l338 321h295l166 -321h-226l-125 135l-198 -135h-250z" />
<glyph unicode="&#xeb;" horiz-adv-x="1243" d="M377 440q16 -215 250 -215q119 0 243 88l144 -192q-174 -145 -422 -146q-238 0 -373 130.5t-135 357.5q0 162 79 310.5t231.5 246.5t340.5 98q209 0 329 -119.5t120 -308.5q0 -117 -56 -250h-751zM403 635h478q10 35 10 72q0 72 -45 116.5t-135 44.5q-104 0 -186.5 -63.5 t-121.5 -169.5zM852 1219l76 276h299l-76 -276h-299zM414 1219l75 276h299l-75 -276h-299z" />
<glyph unicode="&#xec;" horiz-adv-x="618" d="M6 0l295 1098h311l-295 -1098h-311zM422 1219l-195 245l275 117l133 -362h-213z" />
<glyph unicode="&#xed;" horiz-adv-x="618" d="M6 0l295 1098h311l-295 -1098h-311zM303 1219l330 362l262 -117l-330 -245h-262z" />
<glyph unicode="&#xee;" horiz-adv-x="618" d="M6 0l295 1098h311l-295 -1098h-311zM76 1219l338 321h295l165 -321h-225l-125 135l-198 -135h-250z" />
<glyph unicode="&#xef;" horiz-adv-x="618" d="M6 0l295 1098h311l-295 -1098h-311zM553 1219l76 276h299l-76 -276h-299zM115 1219l75 276h299l-75 -276h-299z" />
<glyph unicode="&#xf0;" horiz-adv-x="1306" d="M586 -25q-227 0 -367.5 133.5t-140.5 348.5q0 223 157.5 380.5t378.5 157.5q178 0 310 -121l-138 297l-276 -100l-74 154l281 102l-78 168h307l33 -72l242 88l71 -153l-245 -90l77 -176q90 -205 90 -420q0 -299 -169.5 -498t-458.5 -199zM604 238q127 0 211 92t84 211 q0 104 -63.5 168.5t-167.5 64.5q-125 0 -209 -88t-84 -211q0 -111 64.5 -174t164.5 -63z" />
<glyph unicode="&#xf1;" horiz-adv-x="1267" d="M-6 0l293 1098h311l-31 -115q152 135 299.5 135t235.5 -86t88 -233q0 -70 -37 -209l-158 -590h-311l162 602q14 53 14 98q0 135 -151 136q-90 0 -150.5 -58.5t-87.5 -161.5l-166 -616h-311zM537 1204l-164 82q55 125 137 199t176 74q82 0 162 -60q74 -53 108 -53 q76 0 144 121l164 -82q-55 -125 -137.5 -199t-176.5 -74q-78 0 -162 60q-74 53 -108 53q-75 0 -143 -121z" />
<glyph unicode="&#xf2;" horiz-adv-x="1335" d="M614 -25q-240 0 -384 142.5t-144 365.5q0 250 187.5 442.5t447.5 192.5q240 0 384 -142t144 -366q0 -250 -187.5 -442.5t-447.5 -192.5zM629 242q135 0 225 116.5t90 243.5q0 119 -64.5 184.5t-172.5 65.5q-135 0 -225.5 -117t-90.5 -243q0 -119 64.5 -184.5t173.5 -65.5 zM717 1219l-195 245l275 117l133 -362h-213z" />
<glyph unicode="&#xf3;" horiz-adv-x="1335" d="M614 -25q-240 0 -384 142.5t-144 365.5q0 250 187.5 442.5t447.5 192.5q240 0 384 -142t144 -366q0 -250 -187.5 -442.5t-447.5 -192.5zM629 242q135 0 225 116.5t90 243.5q0 119 -64.5 184.5t-172.5 65.5q-135 0 -225.5 -117t-90.5 -243q0 -119 64.5 -184.5t173.5 -65.5 zM588 1219l330 362l262 -117l-330 -245h-262z" />
<glyph unicode="&#xf4;" horiz-adv-x="1335" d="M614 -25q-240 0 -384 142.5t-144 365.5q0 250 187.5 442.5t447.5 192.5q240 0 384 -142t144 -366q0 -250 -187.5 -442.5t-447.5 -192.5zM629 242q135 0 225 116.5t90 243.5q0 119 -64.5 184.5t-172.5 65.5q-135 0 -225.5 -117t-90.5 -243q0 -119 64.5 -184.5t173.5 -65.5 zM385 1219l338 321h295l166 -321h-226l-124 135l-199 -135h-250z" />
<glyph unicode="&#xf5;" horiz-adv-x="1335" d="M614 -25q-240 0 -384 142.5t-144 365.5q0 250 187.5 442.5t447.5 192.5q240 0 384 -142t144 -366q0 -250 -187.5 -442.5t-447.5 -192.5zM629 242q135 0 225 116.5t90 243.5q0 119 -64.5 184.5t-172.5 65.5q-135 0 -225.5 -117t-90.5 -243q0 -119 64.5 -184.5t173.5 -65.5 zM523 1204l-164 82q55 125 137 199t176 74q82 0 162 -60q74 -53 108 -53q76 0 144 121l164 -82q-55 -125 -137.5 -199t-176.5 -74q-78 0 -162 60q-74 53 -108 53q-75 0 -143 -121z" />
<glyph unicode="&#xf6;" horiz-adv-x="1335" d="M614 -25q-240 0 -384 142.5t-144 365.5q0 250 187.5 442.5t447.5 192.5q240 0 384 -142t144 -366q0 -250 -187.5 -442.5t-447.5 -192.5zM629 242q135 0 225 116.5t90 243.5q0 119 -64.5 184.5t-172.5 65.5q-135 0 -225.5 -117t-90.5 -243q0 -119 64.5 -184.5t173.5 -65.5 zM860 1219l76 276h299l-76 -276h-299zM422 1219l76 276h299l-76 -276h-299z" />
<glyph unicode="&#xf8;" horiz-adv-x="1335" d="M614 -25q-205 0 -346 109l-104 -94h-273l259 233q-63 117 -64 260q0 250 187.5 442.5t447.5 192.5q201 0 336 -102l100 92h273l-250 -227q70 -117 69 -271q0 -250 -187.5 -442.5t-447.5 -192.5zM387 420l455 414q-51 29 -127 28q-145 0 -239.5 -118.5t-94.5 -251.5 q0 -37 6 -72zM621 231q145 0 239 119t94 252q0 53 -8 86l-463 -422q58 -35 138 -35z" />
<glyph unicode="&#xf9;" horiz-adv-x="1273" d="M407.5 -20q-147.5 0 -235.5 86t-88 233q0 70 37 209l158 590h311l-162 -602q-14 -53 -14 -99q0 -135 151 -135q90 0 150.5 58.5t87.5 160.5l166 617h311l-293 -1098h-311l31 115q-152 -135 -299.5 -135zM754 1219l-195 245l275 117l133 -362h-213z" />
<glyph unicode="&#xfa;" horiz-adv-x="1273" d="M407.5 -20q-147.5 0 -235.5 86t-88 233q0 70 37 209l158 590h311l-162 -602q-14 -53 -14 -99q0 -135 151 -135q90 0 150.5 58.5t87.5 160.5l166 617h311l-293 -1098h-311l31 115q-152 -135 -299.5 -135zM612 1219l330 362l262 -117l-330 -245h-262z" />
<glyph unicode="&#xfb;" horiz-adv-x="1273" d="M407.5 -20q-147.5 0 -235.5 86t-88 233q0 70 37 209l158 590h311l-162 -602q-14 -53 -14 -99q0 -135 151 -135q90 0 150.5 58.5t87.5 160.5l166 617h311l-293 -1098h-311l31 115q-152 -135 -299.5 -135zM399 1219l338 321h295l166 -321h-225l-125 135l-199 -135h-250z " />
<glyph unicode="&#xfc;" horiz-adv-x="1273" d="M407.5 -20q-147.5 0 -235.5 86t-88 233q0 70 37 209l158 590h311l-162 -602q-14 -53 -14 -99q0 -135 151 -135q90 0 150.5 58.5t87.5 160.5l166 617h311l-293 -1098h-311l31 115q-152 -135 -299.5 -135zM877 1219l75 276h299l-75 -276h-299zM438 1219l76 276h299 l-76 -276h-299z" />
<glyph unicode="&#xfd;" horiz-adv-x="1212" d="M174 -334q-147 0 -256 76l166 225q57 -43 121 -43q68 0 121 68l-136 1106h318l51 -746l412 746h336l-680 -1125q-109 -168 -211.5 -237.5t-241.5 -69.5zM604 1219l330 362l262 -117l-330 -245h-262z" />
<glyph unicode="&#xfe;" horiz-adv-x="1380" d="M-94 -328l487 1823h312l-140 -516q150 139 309 139q184 0 303 -127t119 -344q0 -285 -183 -476t-423 -191q-225 0 -344 180l-129 -488h-311zM649 242q129 0 227.5 111.5t98.5 273.5q0 106 -62.5 167.5t-167.5 61.5q-131 0 -231 -112.5t-100 -268.5q0 -104 65.5 -168.5 t169.5 -64.5z" />
<glyph unicode="&#xff;" horiz-adv-x="1212" d="M174 -334q-147 0 -256 76l166 225q57 -43 121 -43q68 0 121 68l-136 1106h318l51 -746l412 746h336l-680 -1125q-109 -168 -211.5 -237.5t-241.5 -69.5zM826 1219l76 276h299l-76 -276h-299zM388 1219l75 276h299l-75 -276h-299z" />
<glyph unicode="&#x152;" horiz-adv-x="2193" d="M854 0q-377 0 -571 195q-145 145 -146 409q0 330 236 565q264 264 751 265h1188l-76 -281h-716l-78 -293h624l-75 -276h-625l-82 -303h729l-76 -281h-1083zM879 285h92l233 864h-117q-305 0 -479 -174q-143 -143 -143 -359q0 -143 84 -227q105 -104 330 -104z" />
<glyph unicode="&#x153;" horiz-adv-x="2105" d="M1239 440q16 -215 250 -215q119 0 244 88l143 -192q-160 -145 -422 -146q-293 0 -407 201q-170 -201 -431 -201q-242 0 -386 142.5t-144 365.5q0 254 185.5 444.5t447.5 190.5q303 0 424 -217q176 217 454 217q209 0 329 -119.5t120 -308.5q0 -117 -55 -250h-752z M1266 635h477q10 35 10 72q0 72 -45 116.5t-135 44.5q-104 0 -186 -63.5t-121 -169.5zM627 242q139 0 228 110.5t89 247.5q0 113 -64.5 182.5t-170.5 69.5q-139 0 -228.5 -110.5t-89.5 -247.5q0 -113 65 -182.5t171 -69.5z" />
<glyph unicode="&#x178;" horiz-adv-x="1331" d="M346 0l152 565l-297 869h350l168 -594l491 594h381l-784 -897l-145 -537h-316zM965 1546l75 277h299l-75 -277h-299zM526 1546l76 277h299l-76 -277h-299z" />
<glyph unicode="&#x2c6;" horiz-adv-x="1024" d="M293 1219l338 321h295l166 -321h-226l-125 135l-198 -135h-250z" />
<glyph unicode="&#x2dc;" horiz-adv-x="1024" d="M451 1204l-164 82q55 125 137 199t176 74q82 0 162 -60q74 -53 108 -53q76 0 144 121l164 -82q-55 -125 -137.5 -199t-176.5 -74q-78 0 -162 60q-74 53 -108 53q-75 0 -143 -121z" />
<glyph unicode="&#x3bc;" d="M1266 -90l-95 151q-172 -86 -378 -86q-293 0 -474.5 180.5t-181.5 454.5q0 215 106.5 408.5t307.5 316.5t448 123q293 0 474.5 -180t181.5 -455q0 -340 -244 -590l115 -151zM829 266q92 0 181 37l-185 250l260 174l146 -233q96 147 96 309q0 164 -96 264t-268 100 q-215 0 -356.5 -169t-141.5 -367q0 -164 96 -264.5t268 -100.5z" />
<glyph unicode="&#x2000;" horiz-adv-x="954" />
<glyph unicode="&#x2001;" horiz-adv-x="1908" />
<glyph unicode="&#x2002;" horiz-adv-x="954" />
<glyph unicode="&#x2003;" horiz-adv-x="1908" />
<glyph unicode="&#x2004;" horiz-adv-x="634" />
<glyph unicode="&#x2005;" horiz-adv-x="477" />
<glyph unicode="&#x2006;" horiz-adv-x="317" />
<glyph unicode="&#x2007;" horiz-adv-x="317" />
<glyph unicode="&#x2008;" horiz-adv-x="237" />
<glyph unicode="&#x2009;" horiz-adv-x="380" />
<glyph unicode="&#x200a;" horiz-adv-x="104" />
<glyph unicode="&#x2010;" horiz-adv-x="843" d="M90 485l80 299h631l-80 -299h-631z" />
<glyph unicode="&#x2011;" horiz-adv-x="843" d="M90 485l80 299h631l-80 -299h-631z" />
<glyph unicode="&#x2012;" horiz-adv-x="843" d="M90 485l80 299h631l-80 -299h-631z" />
<glyph unicode="&#x2013;" horiz-adv-x="1087" d="M90 489l78 291h876l-77 -291h-877z" />
<glyph unicode="&#x2014;" horiz-adv-x="1845" d="M90 489l78 291h1634l-78 -291h-1634z" />
<glyph unicode="&#x2018;" horiz-adv-x="653" d="M190 786l74 277q53 199 166 289t299 94l21 -129q-233 -20 -267 -203h127l-88 -328h-332z" />
<glyph unicode="&#x2019;" horiz-adv-x="653" d="M178 774l-20 129q233 20 266 203h-127l88 328h332l-74 -277q-53 -199 -166 -289t-299 -94z" />
<glyph unicode="&#x201a;" horiz-adv-x="653" d="M-104 -332l-21 129q233 20 266 203h-127l88 328h332l-74 -277q-53 -199 -165.5 -289t-298.5 -94z" />
<glyph unicode="&#x201c;" horiz-adv-x="1173" d="M713 784l73 277q53 199 166 289t299 94l21 -129q-233 -20 -266 -203h127l-89 -328h-331zM193 784l73 277q53 199 166 289t299 94l21 -129q-233 -20 -267 -203h127l-88 -328h-331z" />
<glyph unicode="&#x201d;" horiz-adv-x="1173" d="M700 774l-20 129q233 20 266 203h-127l88 328h332l-74 -277q-53 -199 -166 -289t-299 -94zM180 774l-20 129q233 20 266 203h-127l88 328h332l-74 -277q-53 -199 -166 -289t-299 -94z" />
<glyph unicode="&#x201e;" horiz-adv-x="1173" d="M416 -332l-21 129q233 20 267 203h-127l88 328h331l-73 -277q-53 -199 -166 -289t-299 -94zM-104 -332l-21 129q233 20 266 203h-127l88 328h332l-74 -277q-53 -199 -165.5 -289t-298.5 -94z" />
<glyph unicode="&#x2022;" horiz-adv-x="1024" d="M504 410q-111 0 -174.5 64.5t-63.5 172.5q0 147 98.5 268t245.5 121q111 0 174.5 -64.5t63.5 -172.5q0 -147 -98.5 -268t-245.5 -121z" />
<glyph unicode="&#x2026;" horiz-adv-x="1785" d="M1157 0l86 319h324l-86 -319h-324zM586 0l86 319h323l-86 -319h-323zM14 0l86 319h324l-86 -319h-324z" />
<glyph unicode="&#x202f;" horiz-adv-x="380" />
<glyph unicode="&#x2039;" horiz-adv-x="763" d="M315 63l-221 459l4 17l486 477l178 -164l-361 -350l164 -328z" />
<glyph unicode="&#x203a;" horiz-adv-x="763" d="M176 63l-178 164l360 351l-163 327l249 111l222 -459l-4 -16z" />
<glyph unicode="&#x2044;" horiz-adv-x="1064" d="M-283 -201l1424 1753h274l-1423 -1753h-275z" />
<glyph unicode="&#x205f;" horiz-adv-x="477" />
<glyph unicode="&#x2122;" horiz-adv-x="1433" d="M748 803l170 631h143l94 -267l238 267h155l-170 -631h-135l115 426l-248 -277h-12l-101 277l-114 -426h-135zM283 803l135 504h-189l35 127h520l-34 -127h-189l-135 -504h-143z" />
<glyph unicode="&#xe000;" horiz-adv-x="1100" d="M0 1100h1100v-1100h-1100v1100z" />
<glyph unicode="&#xfb01;" horiz-adv-x="1460" d="M1167 1219l76 276h328l-76 -276h-328zM47 0l225 831h-131l72 267h129l14 59q92 352 445 352q127 0 213 -30l-68 -258q-66 27 -135 26q-121 0 -154 -119l-8 -30h264l-71 -267h-258l-226 -831h-311zM848 0l295 1098h311l-295 -1098h-311z" />
<glyph unicode="&#xfb02;" horiz-adv-x="1460" d="M848 0l401 1495h312l-402 -1495h-311zM47 0l225 831h-131l72 267h129l14 59q92 352 445 352q127 0 213 -30l-68 -258q-66 27 -135 26q-121 0 -154 -119l-8 -30h264l-71 -267h-258l-226 -831h-311z" />
<glyph unicode="&#xfb03;" horiz-adv-x="2301" d="M2009 1219l75 276h328l-76 -276h-327zM1689 0l295 1098h311l-295 -1098h-311zM889 0l225 831h-131l72 267h129l14 59q92 352 445 352q127 0 213 -30l-68 -258q-66 27 -135 26q-121 0 -154 -119l-8 -30h264l-71 -267h-258l-226 -831h-311zM47 0l225 831h-131l72 267h129 l14 59q92 352 445 352q127 0 213 -30l-68 -258q-66 27 -135 26q-121 0 -154 -119l-8 -30h264l-71 -267h-258l-226 -831h-311z" />
<glyph unicode="&#xfb04;" horiz-adv-x="2301" d="M1689 0l402 1495h311l-402 -1495h-311zM889 0l225 831h-131l72 267h129l14 59q92 352 445 352q127 0 213 -30l-68 -258q-66 27 -135 26q-121 0 -154 -119l-8 -30h264l-71 -267h-258l-226 -831h-311zM47 0l225 831h-131l72 267h129l14 59q92 352 445 352q127 0 213 -30 l-68 -258q-66 27 -135 26q-121 0 -154 -119l-8 -30h264l-71 -267h-258l-226 -831h-311z" />
</font>
</defs>
</svg>
