<?xml version="1.0" standalone="no"?>
<!DOCTYPE svg PUBLIC "-//W3C//DTD SVG 1.1//EN" "http://www.w3.org/Graphics/SVG/1.1/DTD/svg11.dtd" >
<svg xmlns="http://www.w3.org/2000/svg">
<metadata>
This is a custom SVG webfont generated by Font Squirrel.
Copyright   : HTF Gothama c 2003 The Hoefler Type Foundry Inc Info wwwtypographycom
</metadata>
<defs>
<font id="webfontACTW66pt" horiz-adv-x="1662" >
<font-face units-per-em="2048" ascent="1638" descent="-410" />
<missing-glyph horiz-adv-x="520" />
<glyph unicode=" "  horiz-adv-x="520" />
<glyph unicode="&#x09;" horiz-adv-x="520" />
<glyph unicode="&#xa0;" horiz-adv-x="520" />
<glyph unicode="!" horiz-adv-x="663" d="M215 446l-143 680v308h520v-308l-143 -680h-234zM94 0v369h475v-369h-475z" />
<glyph unicode="&#x22;" horiz-adv-x="1134" d="M590 616l55 818h490v-11l-295 -807h-250zM23 616l55 818h489v-11l-295 -807h-249z" />
<glyph unicode="#" horiz-adv-x="1456" d="M170 0l43 246h-164v395h232l26 160h-194v395h262l41 238h321l-41 -238h224l41 238h321l-41 -238h166v-395h-233l-27 -160h196v-395h-264l-43 -246h-321l43 246h-223l-43 -246h-322zM584 627h252l32 190h-252z" />
<glyph unicode="$" horiz-adv-x="1404" d="M635 -201v203q-356 29 -623 211l209 309q217 -141 426 -170v170q-287 57 -420 157.5t-133 293.5v4q0 197 140.5 320.5t408.5 138.5v116h213v-122q266 -27 481 -166l-196 -312q-125 90 -297 125v-168q274 -55 405 -154.5t131 -297.5v-4q0 -199 -143 -317t-389 -136v-201 h-213zM651 930v166q-137 -2 -137 -76v-4q0 -33 29.5 -52.5t107.5 -33.5zM840 338q131 8 131 78v4q0 33 -28 51t-103 33v-166z" />
<glyph unicode="%" horiz-adv-x="1918" d="M442 649q-172 0 -281.5 117t-109.5 285v4q0 170 107.5 285.5t283.5 115.5t284 -115.5t108 -285.5v-4q0 -168 -110 -285t-282 -117zM223 0l1163 1434h310l-1164 -1434h-309zM1477 -23q-172 0 -282 117t-110 285v4q0 170 107.5 285.5t284 115.5t284 -115.5t107.5 -285.5v-4 q0 -168 -109.5 -285t-281.5 -117zM442 909q43 0 75 39t32 103v4q0 63 -31 102t-76 39t-75.5 -39t-30.5 -102v-4q0 -61 31.5 -101.5t74.5 -40.5zM1477 238q43 0 74.5 38.5t31.5 102.5v4q0 63 -30.5 102t-75.5 39t-76 -39t-31 -102v-4q0 -61 32 -101t75 -40z" />
<glyph unicode="&#x26;" horiz-adv-x="1433" d="M1120 -29l-129 131q-190 -129 -432 -129q-240 0 -390.5 110t-150.5 304v4q0 272 304 406q-88 127 -89 266v4q0 168 128 282.5t335 114.5q205 0 327 -105.5t122 -266.5v-5q0 -238 -258 -370l129 -125q43 57 131 211l293 -137q-102 -186 -191 -301l176 -170zM678 905 q113 57 113 162v4q0 45 -24 70.5t-62 25.5q-41 0 -66 -29.5t-25 -78.5v-4q1 -64 64 -150zM629 299q59 0 135 41l-199 203q-72 -51 -71 -125v-4q0 -51 37 -83t98 -32z" />
<glyph unicode="'" horiz-adv-x="577" d="M23 616l55 818h500v-11l-295 -807h-260z" />
<glyph unicode="(" horiz-adv-x="911" d="M688 -289q-313 160 -470 362.5t-157 514t157 514.5t470 362l184 -274q-188 -129 -274 -272.5t-86 -330t86 -329.5t274 -272z" />
<glyph unicode=")" horiz-adv-x="911" d="M223 -289l-184 275q188 129 274 272t86 329.5t-86 330t-274 272.5l184 274q313 -160 470 -362.5t157 -514t-157 -514t-470 -362.5z" />
<glyph unicode="*" horiz-adv-x="860" d="M299 627l70 295l-222 -209l-137 231l293 88l-293 88l137 232l222 -209l-70 295h262l-69 -295l221 209l137 -232l-293 -88l293 -88l-137 -231l-221 209l69 -295h-262z" />
<glyph unicode="+" horiz-adv-x="1310" d="M444 182v336h-319v406h319v336h422v-336h320v-406h-320v-336h-422z" />
<glyph unicode="," horiz-adv-x="577" d="M66 -344l-37 170q209 27 209 182h-187v471h475v-375q0 -236 -120.5 -337t-339.5 -111z" />
<glyph unicode="-" horiz-adv-x="835" d="M61 455v381h713v-381h-713z" />
<glyph unicode="." horiz-adv-x="577" d="M51 0v471h475v-471h-475z" />
<glyph unicode="/" horiz-adv-x="1105" d="M-98 -262l907 1896h367l-908 -1896h-366z" />
<glyph unicode="0" horiz-adv-x="1495" d="M745.5 -31q-313.5 0 -501 217t-187.5 527v4q0 309 189.5 528t503 219t501 -217t187.5 -526v-4q0 -309 -189.5 -528.5t-503 -219.5zM749.5 385q96.5 0 155 90t58.5 238v4q0 147 -60.5 239.5t-157 92.5t-155 -90.5t-58.5 -237.5v-4q0 -147 60.5 -239.5t157 -92.5z" />
<glyph unicode="1" horiz-adv-x="864" d="M303 0v1024l-233 -51l-86 354l428 117h362v-1444h-471z" />
<glyph unicode="2" horiz-adv-x="1280" d="M35 0v348l594 426q125 88 125 174q0 47 -35 77t-94 30q-61 0 -124 -41t-153 -137l-315 268q131 164 274.5 239.5t358.5 75.5q246 0 404.5 -132t158.5 -337v-4q0 -154 -73 -255t-216 -193l-256 -164h559v-375h-1208z" />
<glyph unicode="3" horiz-adv-x="1271" d="M657 -31q-410 0 -661 258l285 293q166 -156 337 -155q78 0 121 31.5t43 82.5v4q0 115 -188 115h-203l-63 213l315 250h-532v373h1101v-330l-321 -242q354 -94 354 -407v-4q0 -223 -169 -352.5t-419 -129.5z" />
<glyph unicode="4" horiz-adv-x="1411" d="M760 0v248h-690l-78 336l700 860h533v-858h172v-338h-172v-248h-465zM455 580h305v381z" />
<glyph unicode="5" horiz-adv-x="1290" d="M616 -31q-362 0 -624 236l264 307q195 -156 354 -156q84 0 132.5 39t48.5 99v4q0 63 -46.5 100t-121.5 37q-104 0 -220 -90l-288 143l41 746h1034v-379h-678l-10 -187q125 78 272 78q193 0 336 -119.5t143 -332.5v-5q0 -244 -178 -382t-459 -138z" />
<glyph unicode="6" horiz-adv-x="1355" d="M700 -31q-289 0 -460 172q-182 182 -183 531v4q0 350 181.5 569t521.5 219q287 0 506 -155l-207 -316q-145 102 -279 103q-221 0 -252 -281q150 127 324 127q176 0 309 -120t133 -316v-4q0 -250 -172 -391.5t-422 -141.5zM682 313q70 0 112 46.5t42 113.5v4q0 66 -44 113 t-114 47t-112 -46t-42 -112v-4q0 -68 44 -115t114 -47z" />
<glyph unicode="7" horiz-adv-x="1247" d="M82 0l620 1038h-653v396h1176v-361l-623 -1073h-520z" />
<glyph unicode="8" horiz-adv-x="1290" d="M645 -27q-276 0 -450.5 118t-174.5 304v4q0 240 259 344q-209 106 -209 312v4q0 176 160.5 288.5t414.5 112.5t415 -112.5t161 -288.5v-4q0 -205 -209 -312q258 -104 258 -344v-4q0 -188 -173 -305t-452 -117zM645.5 856q65.5 0 107.5 40t42 99v4q0 55 -42 95.5 t-107.5 40.5t-107.5 -40t-42 -96v-4q0 -59 42 -99t107.5 -40zM645 305q78 0 122 43t44 101v4q0 59 -46 99t-120 40t-120 -40t-46 -99v-4q0 -57 44 -100.5t122 -43.5z" />
<glyph unicode="9" horiz-adv-x="1355" d="M600 -31q-299 0 -530 168l206 309q143 -109 302 -108q227 0 251 272q-133 -133 -317 -133q-188 0 -319.5 124t-131.5 321v4q0 250 169 394t427 144q291 0 467 -176q174 -174 174 -522v-4q0 -360 -184 -576.5t-514 -216.5zM678 784q70 0 113 46.5t43 113.5v4 q0 72 -45.5 122t-115 50t-112.5 -49t-43 -121v-4q0 -70 45 -116t115 -46z" />
<glyph unicode=":" horiz-adv-x="598" d="M61 647v471h476v-471h-476zM61 0v471h476v-471h-476z" />
<glyph unicode=";" horiz-adv-x="598" d="M61 647v471h476v-471h-476zM76 -352l-37 170q209 27 209 182h-187v471h476v-375q0 -236 -121 -337t-340 -111z" />
<glyph unicode="&#x3c;" horiz-adv-x="1327" d="M1171 123l-1044 377v438l1044 377v-432l-647 -164l647 -164v-432z" />
<glyph unicode="=" horiz-adv-x="1306" d="M133 805v401h1041v-401h-1041zM133 236v401h1041v-401h-1041z" />
<glyph unicode="&#x3e;" horiz-adv-x="1327" d="M156 123v432l647 164l-647 164v432l1044 -377v-438z" />
<glyph unicode="?" horiz-adv-x="1099" d="M381 446l-57 355l24 24q285 37 285 142v2q0 37 -32 58.5t-89 21.5q-125 0 -291 -129l-221 331q231 207 559 207q231 0 378.5 -119.5t147.5 -314.5v-4q0 -180 -101 -280.5t-294 -155.5l-24 -138h-285zM279 0v369h475v-369h-475z" />
<glyph unicode="@" horiz-adv-x="1945" d="M991 -332q-397 0 -655 258t-258 637t261 640t656 261q377 0 625 -230t248 -552q0 -279 -140.5 -430.5t-324.5 -151.5q-238 0 -320 187q-131 -176 -299 -176q-164 0 -269 117.5t-105 308.5q0 223 132 385.5t316 162.5q172 0 266 -161l27 139l391 -59l-92 -506 q-10 -66 -10 -115t30.5 -81t83.5 -32q98 0 163 108.5t65 303.5q0 291 -220.5 495.5t-566.5 204.5q-365 0 -598 -235.5t-233 -583.5q0 -350 230.5 -581.5t596.5 -231.5q268 0 502 137l41 -65q-252 -154 -543 -154zM918 449q66 0 108.5 52t42.5 126q0 57 -30.5 89t-77.5 32 q-66 0 -109 -52.5t-43 -126.5q0 -57 31 -88.5t78 -31.5z" />
<glyph unicode="A" horiz-adv-x="1638" d="M-23 0l605 1444h475l604 -1444h-520l-76 193h-502l-74 -193h-512zM684 532h262l-131 349z" />
<glyph unicode="B" horiz-adv-x="1449" d="M82 0v1434h803q279 0 407 -129q88 -88 88 -224v-4q0 -240 -256 -327q147 -43 225 -125t78 -224v-4q0 -178 -143 -287.5t-407 -109.5h-795zM549 870h209q152 0 151 99v4q0 98 -153 98h-207v-201zM549 362h239q76 0 117 29t41 76v4q0 47 -40 75.5t-115 28.5h-242v-213z" />
<glyph unicode="C" horiz-adv-x="1480" d="M793 -31q-307 0 -525.5 209t-218.5 535v4q0 319 220 533t542 214q227 0 390 -99t259 -273l-395 -232q-90 174 -260 174q-119 0 -193.5 -91t-74.5 -222v-4q0 -139 74.5 -228.5t193.5 -89.5q170 0 270 181l395 -224q-218 -387 -677 -387z" />
<glyph unicode="D" horiz-adv-x="1533" d="M82 0v1434h549q418 0 636 -189.5t218 -515.5v-4q0 -330 -224.5 -527.5t-646.5 -197.5h-532zM561 418h80q170 0 265 73.5t95 223.5v4q0 150 -95 223.5t-265 73.5h-80v-598z" />
<glyph unicode="E" horiz-adv-x="1361" d="M82 0v1434h1223v-394h-752v-145h700v-346h-700v-156h762v-393h-1233z" />
<glyph unicode="F" horiz-adv-x="1312" d="M82 0v1434h1200v-410h-721v-182h670v-373h-670v-469h-479z" />
<glyph unicode="G" horiz-adv-x="1544" d="M854 -31q-342 0 -573.5 208t-231.5 536v4q0 322 225.5 534.5t565.5 212.5q350 0 600 -217l-269 -323q-147 125 -317 125q-139 0 -230.5 -96.5t-91.5 -241.5v-4q0 -152 95.5 -247t246.5 -95q104 0 164 32v144h-245v307h694v-664q-264 -215 -633 -215z" />
<glyph unicode="H" horiz-adv-x="1560" d="M82 0v1434h479v-506h438v506h480v-1434h-480v514h-438v-514h-479z" />
<glyph unicode="I" horiz-adv-x="651" d="M86 0v1434h479v-1434h-479z" />
<glyph unicode="J" horiz-adv-x="1155" d="M524 -29q-358 0 -536 267l313 264q88 -125 186 -125q59 0 96.5 45t37.5 121v891h466v-883q0 -274 -149 -424q-156 -156 -414 -156z" />
<glyph unicode="K" horiz-adv-x="1495" d="M82 0v1434h479v-537l408 537h557l-500 -623l510 -811h-571l-281 455l-123 -150v-305h-479z" />
<glyph unicode="L" horiz-adv-x="1257" d="M82 0v1434h479v-1024h674v-410h-1153z" />
<glyph unicode="M" horiz-adv-x="1777" d="M82 0v1434h500l307 -504l307 504h500v-1434h-477v711l-330 -510h-8l-330 510v-711h-469z" />
<glyph unicode="N" horiz-adv-x="1597" d="M82 0v1434h448l510 -633v633h476v-1434h-426l-533 662v-662h-475z" />
<glyph unicode="O" d="M829.5 -31q-329.5 0 -555 215t-225.5 529v4q0 313 227.5 530t557 217t555 -215t225.5 -528v-4q0 -313 -227.5 -530.5t-557 -217.5zM833.5 393q133.5 0 215 94.5t81.5 225.5v4q0 133 -83.5 228t-217 95t-215.5 -94t-82 -225v-4q0 -133 84 -228.5t217.5 -95.5z" />
<glyph unicode="P" horiz-adv-x="1388" d="M82 0v1434h645q295 0 468 -131.5t173 -378.5v-4q0 -254 -177 -392.5t-474 -138.5h-156v-389h-479zM561 731h129q94 0 149.5 41t55.5 117v4q0 158 -203 158h-131v-320z" />
<glyph unicode="Q" d="M1434 -43l-158 141q-197 -129 -447 -129q-330 0 -555 215t-225 529v4q0 313 227.5 530t557 217t555 -215t225.5 -528v-4q0 -225 -127 -412l147 -125zM834 379q51 0 100 16l-164 140l201 225l153 -137q10 45 11 84v4q0 133 -85 231t-221 98q-131 0 -214 -98t-83 -229v-4 q0 -133 83.5 -231.5t218.5 -98.5z" />
<glyph unicode="R" horiz-adv-x="1464" d="M82 0v1434h700q352 0 516 -164q131 -131 132 -340v-4q0 -301 -283 -439l334 -487h-547l-270 410h-5h-98v-410h-479zM561 752h207q86 0 135 36.5t49 102.5v4q0 68 -48 102.5t-134 34.5h-209v-280z" />
<glyph unicode="S" horiz-adv-x="1359" d="M698 -27q-459 0 -735 242l256 305q219 -168 502 -168q123 0 123 62v4q0 31 -42 51t-157 43q-109 23 -187.5 44.5t-162.5 59t-135 83.5t-85 116t-34 158v4q0 213 160.5 348t447.5 135q399 0 647 -196l-233 -324q-195 141 -430 141q-104 0 -105 -59v-4q0 -31 40 -51.5 t151 -40.5q147 -27 251.5 -61t190.5 -87t128 -132t42 -183v-4q0 -225 -171 -355.5t-462 -130.5z" />
<glyph unicode="T" horiz-adv-x="1376" d="M449 0v1028h-422v406h1323v-406h-422v-1028h-479z" />
<glyph unicode="U" horiz-adv-x="1556" d="M774 -29q-334 0 -519 164t-185 508v791h487v-785q0 -129 59.5 -191.5t162 -62.5t161.5 59.5t59 184.5v795h488v-781q0 -352 -187.5 -517t-525.5 -165z" />
<glyph unicode="V" horiz-adv-x="1576" d="M559 -10l-582 1444h537l279 -805l278 805h528l-581 -1444h-459z" />
<glyph unicode="W" horiz-adv-x="2277" d="M469 -10l-469 1444h502l203 -689l231 693h414l231 -693l203 689h493l-469 -1444h-417l-252 712l-252 -712h-418z" />
<glyph unicode="X" horiz-adv-x="1499" d="M-18 0l485 729l-465 705h545l207 -342l209 342h534l-465 -701l486 -733h-545l-228 373l-229 -373h-534z" />
<glyph unicode="Y" horiz-adv-x="1495" d="M508 0v508l-541 926h537l246 -471l247 471h531l-541 -920v-514h-479z" />
<glyph unicode="Z" horiz-adv-x="1409" d="M37 0v336l649 704h-625v394h1313v-336l-649 -705h649v-393h-1337z" />
<glyph unicode="[" horiz-adv-x="921" d="M102 -266v1700h754v-285h-358v-1131h358v-284h-754z" />
<glyph unicode="\" horiz-adv-x="1105" d="M838 -262l-908 1896h367l907 -1896h-366z" />
<glyph unicode="]" horiz-adv-x="921" d="M66 -266v284h358v1131h-358v285h753v-1700h-753z" />
<glyph unicode="^" horiz-adv-x="1024" d="M70 1010l286 420h312l286 -420h-319l-125 157l-125 -157h-315z" />
<glyph unicode="_" horiz-adv-x="1228" d="M-4 -328v238h1237v-238h-1237z" />
<glyph unicode="`" horiz-adv-x="1024" d="M475 1188l-338 276l453 117l196 -393h-311z" />
<glyph unicode="a" horiz-adv-x="1241" d="M393 -27q-166 0 -266 91.5t-100 252.5v5q0 166 114.5 257t311.5 91q166 0 264 -41v18q0 162 -207 162q-150 0 -309 -64l-82 310q215 82 471 82q328 0 473 -146q117 -117 117 -354v-637h-465v113q-129 -140 -322 -140zM578 242q63 0 103 47t40 125v47q-47 18 -107 18 q-68 0 -105.5 -35.5t-37.5 -89.5v-4q0 -49 31 -78.5t76 -29.5z" />
<glyph unicode="b" horiz-adv-x="1384" d="M870 -27q-199 0 -335 154v-127h-465v1495h465v-514q47 51 82.5 81t102 56.5t146.5 26.5q205 0 343.5 -162t138.5 -416v-4q0 -260 -137.5 -425t-340.5 -165zM711 356q80 0 133 58.5t53 142.5v4q0 84 -53 142.5t-133 58.5t-133.5 -58.5t-53.5 -142.5v-4q0 -84 53.5 -142.5 t133.5 -58.5z" />
<glyph unicode="c" horiz-adv-x="1161" d="M623 -29q-252 0 -420 171t-168 411v4q0 242 172 414t438 172q178 0 308 -84t198 -225l-334 -189q-61 113 -164 113q-74 0 -123 -56.5t-49 -140.5v-4q0 -86 48.5 -143.5t117.5 -57.5q102 0 174 113l338 -193q-163 -305 -536 -305z" />
<glyph unicode="d" horiz-adv-x="1384" d="M518 -27q-205 0 -343 162t-138 416v4q0 260 137 425t340 165q199 0 336 -154v504h465v-1495h-465v137q-47 -51 -83 -80.5t-102.5 -56.5t-146.5 -27zM674 356q80 0 133 58.5t53 142.5v4q0 84 -53 142.5t-133 58.5t-133.5 -58.5t-53.5 -142.5v-4q0 -84 53.5 -142.5 t133.5 -58.5z" />
<glyph unicode="e" horiz-adv-x="1224" d="M649 -27q-274 0 -444 160t-170 420v4q0 252 162.5 420t412.5 168q285 0 433.5 -173t148.5 -444q0 -53 -2 -77h-719q49 -150 211 -150q117 0 227 115l250 -199q-188 -244 -510 -244zM465 655h303q-8 78 -50 123t-106 45q-57 0 -97 -45t-50 -123z" />
<glyph unicode="f" horiz-adv-x="872" d="M156 0v760h-131v358h131q6 190 100 285q106 106 328 106q178 0 284 -30v-291q-72 16 -149 16q-109 0 -109 -90v-8h258v-346h-247v-760h-465z" />
<glyph unicode="g" horiz-adv-x="1384" d="M666 -332q-342 0 -621 139l143 281q203 -106 404 -106q129 0 197.5 64.5t68.5 180.5v33q-135 -154 -323 -154q-219 0 -358.5 142.5t-139.5 372.5v4q0 229 136 374.5t335 145.5q201 0 342 -146v119h465v-835q0 -305 -146 -451q-163 -164 -503 -164zM674 446q84 0 135 50.5 t51 126.5v4q0 74 -52 124t-134 50q-84 0 -135.5 -51.5t-51.5 -126.5v-5q0 -74 51.5 -123t135.5 -49z" />
<glyph unicode="h" horiz-adv-x="1320" d="M70 0v1495h465v-526q137 176 342 176q176 0 279.5 -109.5t103.5 -298.5v-737h-465v588q0 70 -37 110.5t-90 40.5q-55 0 -94 -41t-39 -110v-588h-465z" />
<glyph unicode="i" horiz-adv-x="612" d="M66 1198v297h481v-297h-481zM74 0v1118h465v-1118h-465z" />
<glyph unicode="j" horiz-adv-x="618" d="M66 1198v297h481v-297h-481zM102 -334q-53 0 -184 17v272h35q66 0 93.5 29.5t27.5 103.5v1030h465v-1038q0 -229 -110 -321.5t-327 -92.5z" />
<glyph unicode="k" horiz-adv-x="1257" d="M70 0v1495h465v-721l239 344h506l-350 -454l356 -664h-498l-161 307l-92 -119v-188h-465z" />
<glyph unicode="l" horiz-adv-x="612" d="M74 0v1495h465v-1495h-465z" />
<glyph unicode="m" horiz-adv-x="2029" d="M70 0v1118h465v-149q137 176 337 176q233 0 330 -184q164 184 379 184q180 0 283.5 -109.5t103.5 -298.5v-737h-465v592q0 68 -34.5 107.5t-88 39.5t-91.5 -40t-38 -107v-592h-465v592q0 68 -34.5 107.5t-88 39.5t-91 -40t-37.5 -107v-592h-465z" />
<glyph unicode="n" horiz-adv-x="1320" d="M70 0v1118h465v-155q141 182 342 182q176 0 279.5 -109.5t103.5 -298.5v-737h-465v588q0 70 -37 110.5t-90 40.5q-55 0 -94 -41t-39 -110v-588h-465z" />
<glyph unicode="o" horiz-adv-x="1327" d="M662 -27q-270 0 -448.5 170t-178.5 412v4q0 242 179 414t452 172q270 0 448 -170t178 -412v-4q0 -242 -179 -414t-451 -172zM665.5 360q77.5 0 129 56.5t51.5 138.5v4q0 82 -53.5 140.5t-131 58.5t-129 -56.5t-51.5 -138.5v-4q0 -82 53.5 -140.5t131 -58.5z" />
<glyph unicode="p" horiz-adv-x="1384" d="M70 -328v1446h465v-137q47 51 82.5 81t102 56.5t146.5 26.5q205 0 343.5 -162t138.5 -416v-4q0 -260 -137.5 -425t-340.5 -165q-199 0 -335 154v-455h-465zM711 356q80 0 133 58.5t53 142.5v4q0 84 -53 142.5t-133 58.5t-133.5 -58.5t-53.5 -142.5v-4q0 -84 53.5 -142.5 t133.5 -58.5z" />
<glyph unicode="q" horiz-adv-x="1384" d="M850 -328v465q-47 -51 -83 -80.5t-102.5 -56.5t-146.5 -27q-205 0 -343 162t-138 416v4q0 260 137 425t340 165q199 0 336 -154v127h465v-1446h-465zM674 356q80 0 133 58.5t53 142.5v4q0 84 -53 142.5t-133 58.5t-133.5 -58.5t-53.5 -142.5v-4q0 -84 53.5 -142.5 t133.5 -58.5z" />
<glyph unicode="r" horiz-adv-x="894" d="M70 0v1118h465v-225q102 242 331 242h19v-494h-49q-301 0 -301 -356v-285h-465z" />
<glyph unicode="s" horiz-adv-x="1075" d="M563 -27q-330 0 -573 162l157 264q201 -125 414 -125q68 0 68 37v4q0 18 -25.5 31.5t-107.5 34.5q-238 59 -347.5 137t-109.5 240v4q0 180 133 281.5t354 101.5q289 0 502 -129l-147 -277q-188 104 -357 105q-66 0 -65 -35v-4q0 -18 27.5 -31.5t109.5 -34.5 q236 -57 344.5 -137t108.5 -240v-4q0 -182 -129.5 -283.5t-356.5 -101.5z" />
<glyph unicode="t" horiz-adv-x="913" d="M578 -25q-422 0 -422 400v385h-131v358h131v281h465v-281h258v-358h-258v-283q0 -115 112 -115q66 0 141 35v-358q-120 -64 -296 -64z" />
<glyph unicode="u" horiz-adv-x="1320" d="M444 -27q-176 0 -279.5 110t-103.5 298v737h465v-588q0 -70 37 -110.5t90 -40.5q55 0 94 41t39 110v588h465v-1118h-465v150q-137 -177 -342 -177z" />
<glyph unicode="v" horiz-adv-x="1331" d="M453 -8l-453 1126h487l181 -561l182 561h481l-452 -1126h-426z" />
<glyph unicode="w" horiz-adv-x="1763" d="M340 -8l-338 1126h444l115 -450l135 454h371l137 -458l119 454h438l-342 -1126h-389l-149 479l-154 -479h-387z" />
<glyph unicode="x" horiz-adv-x="1216" d="M-14 0l360 559l-360 559h501l123 -225l125 225h494l-359 -559l361 -559h-502l-125 227l-125 -227h-493z" />
<glyph unicode="y" horiz-adv-x="1335" d="M461 -334q-223 0 -432 117l135 317q131 -74 205 -73q43 0 75 16l-438 1075h481l195 -590l178 590h473l-387 -1040q-84 -225 -190.5 -318.5t-294.5 -93.5z" />
<glyph unicode="z" horiz-adv-x="1153" d="M31 0v291l454 463h-436v364h1079v-291l-456 -462h456v-365h-1097z" />
<glyph unicode="{" horiz-adv-x="1003" d="M903 -289q-328 27 -463 115t-135 270q0 14 3 79t3 83q0 106 -65.5 148.5t-194.5 42.5h-12v278h12q129 0 194.5 42t65.5 149q0 18 -3 82.5t-3 78.5q0 182 135 270.5t463 114.5l66 -247q-160 -27 -210 -72t-50 -146q0 -12 3 -63t3 -74q0 -215 -244 -274q244 -59 244 -275 q0 -23 -3 -74t-3 -63q0 -100 50 -145t210 -72z" />
<glyph unicode="|" horiz-adv-x="737" d="M195 -262v1896h348v-1896h-348z" />
<glyph unicode="}" horiz-adv-x="1003" d="M100 -289l-65 248q160 27 210 72t50 145q0 12 -3 63.5t-3 73.5q0 215 243 275q-244 59 -243 274q0 23 3 74t3 63q0 100 -50 145.5t-210 72.5l65 247q328 -27 463 -114.5t135 -270.5q0 -14 -3 -78.5t-3 -82.5q0 -106 65.5 -148.5t194.5 -42.5h13v-278h-13 q-129 0 -194.5 -42t-65.5 -149q0 -18 3 -82.5t3 -79.5q0 -182 -135 -270t-463 -115z" />
<glyph unicode="~" horiz-adv-x="1024" d="M276 442l-206 52q31 174 90 249.5t164 75.5q68 0 188.5 -40t142.5 -40q37 0 54.5 19.5t38.5 70.5l206 -51q-31 -174 -90 -249.5t-164 -75.5q-68 0 -188.5 39.5t-142.5 39.5q-37 0 -55 -19.5t-38 -70.5z" />
<glyph unicode="&#xa1;" horiz-adv-x="663" d="M94 1065v369h475v-369h-475zM72 0v307l143 680h234l143 -680v-307h-520z" />
<glyph unicode="&#xa2;" horiz-adv-x="1165" d="M430 184q-180 61 -287.5 208t-107.5 333v4q0 242 156.5 402.5t416.5 175.5l23 139h260l-29 -174q104 -37 183 -104.5t116 -145.5l-293 -164q-41 59 -92 88l-74 -467q104 23 166 121l297 -168q-147 -268 -479 -282l-27 -162h-260zM582 977q-78 -18 -124 -87t-46 -157v-4 q0 -154 94 -217z" />
<glyph unicode="&#xa3;" horiz-adv-x="1296" d="M57 0v266l152 66v198h-152v299h152v41q0 283 158 441q152 152 424 151q299 0 491 -178l-242 -336q-92 96 -200 96q-76 0 -118 -45t-42 -122v-48h418v-299h-418v-174h577v-356h-1200z" />
<glyph unicode="&#xa4;" horiz-adv-x="1318" d="M829 -31q-256 0 -421.5 137.5t-210.5 362.5h-144v217h125q-2 8 -2 27v4q0 27 2 39h-125v217h152q47 213 215 352t422 139q143 0 270 -52t209 -146l-268 -291q-76 92 -203 92q-131 0 -186 -104h264v-209h-305q-2 -10 -2 -33v-4q0 -18 2 -29h305v-209h-269 q57 -113 197 -112q123 0 207 100l264 -293q-174 -205 -498 -205z" />
<glyph unicode="&#xa5;" horiz-adv-x="1495" d="M508 0v193h-377v268h377v80h-377v268h270l-413 625h536l226 -414l227 414h530l-415 -625h272v-268h-377v-80h377v-268h-377v-193h-479z" />
<glyph unicode="&#xa7;" horiz-adv-x="1269" d="M600 -31q-135 0 -274.5 39t-219.5 88l148 277q82 -45 186.5 -75t184.5 -30q88 0 88 49v5q0 35 -172 73q-254 57 -344 107q-135 72 -136 186v4q0 145 189 209q-106 82 -107 219v4q0 141 134.5 240.5t392.5 99.5q135 0 274 -39t219 -88l-147 -276q-82 45 -186.5 74.5 t-184.5 29.5q-88 0 -88 -47v-4q0 -37 172 -76q254 -57 344 -106q135 -72 135 -187v-4q0 -145 -188 -209q106 -82 106 -217v-4q0 -141 -134 -241.5t-392 -100.5zM791 625q96 0 96 53v4q0 45 -207 92q-150 35 -201 35q-96 0 -96 -53v-4q0 -45 207 -93q150 -34 201 -34z" />
<glyph unicode="&#xa8;" horiz-adv-x="1024" d="M553 1188v307h377v-307h-377zM94 1188v307h377v-307h-377z" />
<glyph unicode="&#xa9;" horiz-adv-x="1699" d="M848 -31q-309 0 -524 219.5t-215 524.5v4q0 305 217 526t526 221t524 -219t215 -524v-4q0 -305 -217 -526.5t-526 -221.5zM848 51q279 0 468 195.5t189 470.5v4q0 274 -188.5 467.5t-464.5 193.5q-279 0 -468 -195.5t-189 -469.5v-4q0 -274 188.5 -468t464.5 -194z M862 319q-182 0 -301 115t-119 289v4q0 170 120 289t304 119q242 0 353 -203l-218 -129q-47 96 -143 96q-66 0 -106.5 -49t-40.5 -121v-4q0 -76 41 -123t106 -47q94 0 150 98l217 -123q-123 -211 -363 -211z" />
<glyph unicode="&#xaa;" horiz-adv-x="798" d="M276 811q-92 0 -147 49t-55 139v5q0 90 63.5 139t171.5 49q86 0 146 -23v7q0 90 -115 90q-76 0 -170 -35l-45 170q121 45 260 45q176 0 260 -80q63 -61 64 -197v-346h-256v66q-73 -78 -177 -78zM70 541v178h651v-178h-651zM377 961q35 0 57.5 24.5t22.5 67.5v24 q-35 10 -60 10q-35 0 -56.5 -19t-21.5 -48v-4q0 -25 16.5 -40t41.5 -15z" />
<glyph unicode="&#xab;" horiz-adv-x="1265" d="M920 41l-375 500v16l375 500l319 -160l-266 -348l266 -348zM352 41l-313 418v180l313 418l320 -160l-266 -348l266 -348z" />
<glyph unicode="&#xad;" horiz-adv-x="835" d="M61 455v381h713v-381h-713z" />
<glyph unicode="&#xae;" horiz-adv-x="1699" d="M848 -31q-309 0 -524 219.5t-215 524.5v4q0 305 217 526t526 221t524 -219t215 -524v-4q0 -305 -217 -526.5t-526 -221.5zM848 51q279 0 468 195.5t189 470.5v4q0 274 -188.5 467.5t-464.5 193.5q-279 0 -468 -195.5t-189 -469.5v-4q0 -274 188.5 -468t464.5 -194z M504 344v789h385q195 0 285 -91q72 -72 71 -188v-4q0 -164 -155 -238l184 -268h-299l-152 225h-4h-51v-225h-264zM768 758h113q102 0 102 76v4q0 74 -100 73h-115v-153z" />
<glyph unicode="&#xaf;" horiz-adv-x="1024" d="M113 1198v256h798v-256h-798z" />
<glyph unicode="&#xb0;" horiz-adv-x="950" d="M475 688q-162 0 -276.5 110.5t-114.5 268.5v4q0 158 115.5 269.5t275.5 111.5q158 0 274.5 -112.5t116.5 -268.5v-4q0 -158 -114.5 -268.5t-276.5 -110.5zM475.5 911q65.5 0 110.5 45t45 111v4q0 66 -47 112t-109 46q-63 0 -109.5 -46t-46.5 -112v-4q0 -66 45.5 -111 t111 -45z" />
<glyph unicode="&#xb1;" horiz-adv-x="1271" d="M653 -31q-408 0 -661 260l282 285q160 -158 336 -158q78 0 126 32t48 73v4q0 90 -190 90h-139v336h127q180 0 180 86v4q0 43 -42 69.5t-110 26.5q-143 0 -284 -145l-271 272q229 260 617 260q242 0 394.5 -108.5t152.5 -272.5v-4q0 -233 -242 -329q127 -33 200.5 -116 t73.5 -216v-4q0 -197 -163 -321t-435 -124z" />
<glyph unicode="&#xb2;" horiz-adv-x="1280" d="M35 0v348l594 426q125 88 125 174q0 47 -35 77t-94 30q-61 0 -124 -41t-153 -137l-315 268q131 164 274.5 239.5t358.5 75.5q246 0 404.5 -132t158.5 -337v-4q0 -154 -73 -255t-216 -193l-256 -164h559v-375h-1208z" />
<glyph unicode="&#xb3;" horiz-adv-x="1271" d="M657 -31q-410 0 -661 258l285 293q166 -156 337 -155q78 0 121 31.5t43 82.5v4q0 115 -188 115h-203l-63 213l315 250h-532v373h1101v-330l-321 -242q354 -94 354 -407v-4q0 -223 -169 -352.5t-419 -129.5z" />
<glyph unicode="&#xb4;" horiz-adv-x="1024" d="M238 1188l196 393l453 -117l-338 -276h-311z" />
<glyph unicode="&#xb5;" d="M1190 -156l-154 154q-98 -25 -207 -25q-332 0 -556 213t-224 527v4q0 313 227.5 530t557 217t555 -215t225.5 -528v-4q0 -272 -180 -479l354 -373v-21h-598zM833.5 393q133.5 0 215 94.5t81.5 225.5v4q0 133 -83.5 228t-217 95t-215.5 -94t-82 -225v-4q0 -133 84 -228.5 t217.5 -95.5z" />
<glyph unicode="&#xb6;" horiz-adv-x="1230" d="M670 0v430h-37q-276 0 -444.5 132t-168.5 364v4q0 244 168 374t463 130h498v-1434h-479z" />
<glyph unicode="&#xb7;" horiz-adv-x="577" d="M51 410v471h475v-471h-475z" />
<glyph unicode="&#xb8;" horiz-adv-x="1024" d="M563 -354l-356 153l194 242h281z" />
<glyph unicode="&#xb9;" horiz-adv-x="864" d="M303 0v1024l-233 -51l-86 354l428 117h362v-1444h-471z" />
<glyph unicode="&#xba;" horiz-adv-x="798" d="M397.5 805q-149.5 0 -247 91t-97.5 224v4q0 133 99.5 226.5t249 93.5t246.5 -91t97 -225v-4q0 -133 -99 -226t-248.5 -93zM104 541v178h590v-178h-590zM401 1018q45 0 72 27.5t27 74.5v4q0 47 -30 77t-73 30q-45 0 -71.5 -27.5t-26.5 -75.5v-4q0 -47 29.5 -76.5 t72.5 -29.5z" />
<glyph unicode="&#xbb;" horiz-adv-x="1265" d="M913 41l-319 160l266 348l-266 348l319 160l314 -418v-180zM346 41l-319 160l266 348l-266 348l319 160l375 -500v-16z" />
<glyph unicode="&#xbc;" horiz-adv-x="3342" d="M2691 0v248h-690l-78 336l700 860h533v-858h172v-338h-172v-248h-465zM2386 580h305v381zM712 -201l953 1753h373l-953 -1753h-373zM303 0v1024l-233 -51l-86 354l428 117h362v-1444h-471z" />
<glyph unicode="&#xbd;" horiz-adv-x="3211" d="M1966 0v348l594 426q125 88 125 174q0 47 -35 77t-94 30q-61 0 -124 -41t-153 -137l-315 268q131 164 274.5 239.5t358.5 75.5q246 0 404.5 -132t158.5 -337v-4q0 -154 -73 -255t-216 -193l-256 -164h559v-375h-1208zM712 -201l953 1753h373l-953 -1753h-373zM303 0v1024 l-233 -51l-86 354l428 117h362v-1444h-471z" />
<glyph unicode="&#xbe;" horiz-adv-x="3749" d="M3099 0v248h-690l-78 336l700 860h533v-858h172v-338h-172v-248h-465zM2794 580h305v381zM1120 -201l953 1753h373l-953 -1753h-373zM657 -31q-410 0 -661 258l285 293q166 -156 337 -155q78 0 121 31.5t43 82.5v4q0 115 -188 115h-203l-63 213l315 250h-532v373h1101 v-330l-321 -242q354 -94 354 -407v-4q0 -223 -169 -352.5t-419 -129.5z" />
<glyph unicode="&#xbf;" horiz-adv-x="1099" d="M346 1065v369h475v-369h-475zM541 -25q-231 0 -379 120t-148 315v4q0 180 101.5 280.5t294.5 155.5l24 137h285l57 -354l-24 -25q-285 -37 -285 -141v-2q0 -37 31.5 -58.5t89.5 -21.5q125 0 291 129l221 -332q-231 -207 -559 -207z" />
<glyph unicode="&#xc0;" horiz-adv-x="1638" d="M-23 0l605 1444h475l604 -1444h-520l-76 193h-502l-74 -193h-512zM684 532h262l-131 349zM700 1516l-338 276l453 117l197 -393h-312z" />
<glyph unicode="&#xc1;" horiz-adv-x="1638" d="M-23 0l605 1444h475l604 -1444h-520l-76 193h-502l-74 -193h-512zM684 532h262l-131 349zM627 1516l196 393l453 -117l-338 -276h-311z" />
<glyph unicode="&#xc2;" horiz-adv-x="1638" d="M-23 0l605 1444h475l604 -1444h-520l-76 193h-502l-74 -193h-512zM684 532h262l-131 349zM379 1516l272 352h336l273 -352h-261l-182 114l-182 -114h-256z" />
<glyph unicode="&#xc3;" horiz-adv-x="1638" d="M-23 0l605 1444h475l604 -1444h-520l-76 193h-502l-74 -193h-512zM684 532h262l-131 349zM584 1505l-207 51q31 174 90 250t164 76q68 0 188.5 -40t143.5 -40q37 0 54 19.5t38 70.5l207 -51q-31 -174 -90.5 -249.5t-163.5 -75.5q-68 0 -189 39.5t-143 39.5 q-37 0 -54.5 -19.5t-37.5 -70.5z" />
<glyph unicode="&#xc4;" horiz-adv-x="1638" d="M-23 0l605 1444h475l604 -1444h-520l-76 193h-502l-74 -193h-512zM684 532h262l-131 349zM860 1516v307h377v-307h-377zM401 1516v307h377v-307h-377z" />
<glyph unicode="&#xc5;" horiz-adv-x="1638" d="M-23 0l588 1407q-41 68 -41 139v4q0 113 88 195t207 82t207 -82t88 -195v-4q0 -72 -41 -139l588 -1407h-520l-76 193h-502l-74 -193h-512zM819.5 1401q59.5 0 102.5 42t43 101v4q0 59 -43 101.5t-102.5 42.5t-102.5 -42t-43 -102v-4q0 -59 43 -101t102.5 -42zM684 532 h262l-131 349z" />
<glyph unicode="&#xc6;" horiz-adv-x="2211" d="M-39 0l744 1434h1449v-394h-710v-145h659v-346h-659v-156h721v-393h-1182v193h-444l-97 -193h-481zM709 532h274v523h-12z" />
<glyph unicode="&#xc7;" horiz-adv-x="1480" d="M795 -354l-357 153l158 195q-240 63 -393.5 256.5t-153.5 462.5v4q0 319 220 533t542 214q227 0 390 -99t259 -273l-395 -232q-90 174 -260 174q-119 0 -193.5 -91t-74.5 -222v-4q0 -139 74.5 -228.5t193.5 -89.5q170 0 270 181l395 -224q-193 -342 -577 -383z" />
<glyph unicode="&#xc8;" horiz-adv-x="1361" d="M82 0v1434h1223v-394h-752v-145h700v-346h-700v-156h762v-393h-1233zM633 1516l-338 276l453 117l196 -393h-311z" />
<glyph unicode="&#xc9;" horiz-adv-x="1361" d="M82 0v1434h1223v-394h-752v-145h700v-346h-700v-156h762v-393h-1233zM489 1516l197 393l453 -117l-338 -276h-312z" />
<glyph unicode="&#xca;" horiz-adv-x="1361" d="M82 0v1434h1223v-394h-752v-145h700v-346h-700v-156h762v-393h-1233zM264 1516l273 352h335l273 -352h-260l-183 114l-182 -114h-256z" />
<glyph unicode="&#xcb;" horiz-adv-x="1361" d="M82 0v1434h1223v-394h-752v-145h700v-346h-700v-156h762v-393h-1233zM745 1516v307h377v-307h-377zM287 1516v307h377v-307h-377z" />
<glyph unicode="&#xcc;" horiz-adv-x="651" d="M86 0v1434h479v-1434h-479zM197 1516l-338 276l452 117l197 -393h-311z" />
<glyph unicode="&#xcd;" horiz-adv-x="651" d="M86 0v1434h479v-1434h-479zM143 1516l197 393l453 -117l-338 -276h-312z" />
<glyph unicode="&#xce;" horiz-adv-x="651" d="M86 0v1434h479v-1434h-479zM-115 1516l273 352h336l272 -352h-260l-182 114l-183 -114h-256z" />
<glyph unicode="&#xcf;" horiz-adv-x="651" d="M86 0v1434h479v-1434h-479zM367 1516v307h376v-307h-376zM-92 1516v307h377v-307h-377z" />
<glyph unicode="&#xd0;" horiz-adv-x="1673" d="M221 0v549h-174v346h174v539h549q418 0 636 -189.5t218 -515.5v-4q0 -330 -224 -527.5t-646 -197.5h-533zM680 397h100q360 0 361 318v4q0 317 -361 317h-100v-141h176v-346h-176v-152z" />
<glyph unicode="&#xd1;" horiz-adv-x="1597" d="M82 0v1434h448l510 -633v633h476v-1434h-426l-533 662v-662h-475zM563 1505l-207 51q31 174 90.5 250t163.5 76q68 0 189 -40t143 -40q37 0 54.5 19.5t37.5 70.5l207 -51q-31 -174 -90 -249.5t-164 -75.5q-68 0 -188.5 39.5t-143.5 39.5q-37 0 -54.5 -19.5t-37.5 -70.5z " />
<glyph unicode="&#xd2;" d="M829.5 -31q-329.5 0 -555 215t-225.5 529v4q0 313 227.5 530t557 217t555 -215t225.5 -528v-4q0 -313 -227.5 -530.5t-557 -217.5zM833.5 393q133.5 0 215 94.5t81.5 225.5v4q0 133 -83.5 228t-217 95t-215.5 -94t-82 -225v-4q0 -133 84 -228.5t217.5 -95.5zM692 1516 l-338 276l453 117l197 -393h-312z" />
<glyph unicode="&#xd3;" d="M829.5 -31q-329.5 0 -555 215t-225.5 529v4q0 313 227.5 530t557 217t555 -215t225.5 -528v-4q0 -313 -227.5 -530.5t-557 -217.5zM833.5 393q133.5 0 215 94.5t81.5 225.5v4q0 133 -83.5 228t-217 95t-215.5 -94t-82 -225v-4q0 -133 84 -228.5t217.5 -95.5zM659 1516 l197 393l453 -117l-338 -276h-312z" />
<glyph unicode="&#xd4;" d="M829.5 -31q-329.5 0 -555 215t-225.5 529v4q0 313 227.5 530t557 217t555 -215t225.5 -528v-4q0 -313 -227.5 -530.5t-557 -217.5zM833.5 393q133.5 0 215 94.5t81.5 225.5v4q0 133 -83.5 228t-217 95t-215.5 -94t-82 -225v-4q0 -133 84 -228.5t217.5 -95.5zM391 1505 l273 353h335l273 -353h-260l-183 115l-182 -115h-256z" />
<glyph unicode="&#xd5;" d="M829.5 -31q-329.5 0 -555 215t-225.5 529v4q0 313 227.5 530t557 217t555 -215t225.5 -528v-4q0 -313 -227.5 -530.5t-557 -217.5zM833.5 393q133.5 0 215 94.5t81.5 225.5v4q0 133 -83.5 228t-217 95t-215.5 -94t-82 -225v-4q0 -133 84 -228.5t217.5 -95.5zM596 1505 l-207 51q31 174 90.5 250t163.5 76q68 0 188.5 -40t143.5 -40q37 0 54.5 19.5t37.5 70.5l207 -51q-31 -174 -90.5 -249.5t-163.5 -75.5q-68 0 -188.5 39.5t-143.5 39.5q-37 0 -54.5 -19.5t-37.5 -70.5z" />
<glyph unicode="&#xd6;" d="M829.5 -31q-329.5 0 -555 215t-225.5 529v4q0 313 227.5 530t557 217t555 -215t225.5 -528v-4q0 -313 -227.5 -530.5t-557 -217.5zM833.5 393q133.5 0 215 94.5t81.5 225.5v4q0 133 -83.5 228t-217 95t-215.5 -94t-82 -225v-4q0 -133 84 -228.5t217.5 -95.5zM872 1516 v307h377v-307h-377zM414 1516v307h377v-307h-377z" />
<glyph unicode="&#xd8;" d="M829 -31q-227 0 -415 111l-80 -90h-301l207 229q-190 211 -191 494v4q0 313 227.5 530t557.5 217q227 0 415 -110l80 90h301l-207 -232q190 -207 191 -491v-4q0 -313 -227.5 -530.5t-557.5 -217.5zM553 569l405 453q-57 29 -129 29q-137 0 -221 -97.5t-84 -232.5v-4 q0 -74 29 -148zM834 383q137 0 221 97.5t84 232.5v4q0 76 -29 145l-408 -450q62 -29 132 -29z" />
<glyph unicode="&#xd9;" horiz-adv-x="1556" d="M774 -29q-334 0 -519 164t-185 508v791h487v-785q0 -129 59.5 -191.5t162 -62.5t161.5 59.5t59 184.5v795h488v-781q0 -352 -187.5 -517t-525.5 -165zM645 1505l-338 277l453 116l196 -393h-311z" />
<glyph unicode="&#xda;" horiz-adv-x="1556" d="M774 -29q-334 0 -519 164t-185 508v791h487v-785q0 -129 59.5 -191.5t162 -62.5t161.5 59.5t59 184.5v795h488v-781q0 -352 -187.5 -517t-525.5 -165zM600 1505l197 393l452 -116l-338 -277h-311z" />
<glyph unicode="&#xdb;" horiz-adv-x="1556" d="M774 -29q-334 0 -519 164t-185 508v791h487v-785q0 -129 59.5 -191.5t162 -62.5t161.5 59.5t59 184.5v795h488v-781q0 -352 -187.5 -517t-525.5 -165zM338 1516l272 352h336l273 -352h-261l-182 114l-182 -114h-256z" />
<glyph unicode="&#xdc;" horiz-adv-x="1556" d="M774 -29q-334 0 -519 164t-185 508v791h487v-785q0 -129 59.5 -191.5t162 -62.5t161.5 59.5t59 184.5v795h488v-781q0 -352 -187.5 -517t-525.5 -165zM819 1516v307h377v-307h-377zM360 1516v307h377v-307h-377z" />
<glyph unicode="&#xdd;" horiz-adv-x="1495" d="M508 0v508l-541 926h537l246 -471l247 471h531l-541 -920v-514h-479zM537 1516l196 393l453 -117l-338 -276h-311z" />
<glyph unicode="&#xde;" horiz-adv-x="1413" d="M82 0v1434h479v-201h166q297 0 469 -126t172 -374v-4q0 -254 -176 -387t-475 -133h-156v-209h-479zM561 561h129q94 0 149.5 41t55.5 117v4q0 158 -203 158h-131v-320z" />
<glyph unicode="&#xdf;" horiz-adv-x="1331" d="M643 -6v319q94 8 148.5 46t54.5 100v4q0 61 -53.5 95t-149.5 38v209q66 25 112 73t46 113v4q0 59 -36 97t-85 38q-66 0 -105.5 -49t-39.5 -143v-938h-465v932q0 264 154.5 424t455.5 160q252 0 409.5 -131.5t157.5 -323.5v-4q0 -117 -68.5 -208t-172.5 -130 q121 -27 211 -112t90 -222v-4q0 -199 -188.5 -303t-475.5 -84z" />
<glyph unicode="&#xe0;" horiz-adv-x="1241" d="M393 -27q-166 0 -266 91.5t-100 252.5v5q0 166 114.5 257t311.5 91q166 0 264 -41v18q0 162 -207 162q-150 0 -309 -64l-82 310q215 82 471 82q328 0 473 -146q117 -117 117 -354v-637h-465v113q-129 -140 -322 -140zM578 242q63 0 103 47t40 125v47q-47 18 -107 18 q-68 0 -105.5 -35.5t-37.5 -89.5v-4q0 -49 31 -78.5t76 -29.5zM512 1196l-338 277l453 116l196 -393h-311z" />
<glyph unicode="&#xe1;" horiz-adv-x="1241" d="M393 -27q-166 0 -266 91.5t-100 252.5v5q0 166 114.5 257t311.5 91q166 0 264 -41v18q0 162 -207 162q-150 0 -309 -64l-82 310q215 82 471 82q328 0 473 -146q117 -117 117 -354v-637h-465v113q-129 -140 -322 -140zM578 242q63 0 103 47t40 125v47q-47 18 -107 18 q-68 0 -105.5 -35.5t-37.5 -89.5v-4q0 -49 31 -78.5t76 -29.5zM418 1196l196 393l453 -116l-338 -277h-311z" />
<glyph unicode="&#xe2;" horiz-adv-x="1241" d="M393 -27q-166 0 -266 91.5t-100 252.5v5q0 166 114.5 257t311.5 91q166 0 264 -41v18q0 162 -207 162q-150 0 -309 -64l-82 310q215 82 471 82q328 0 473 -146q117 -117 117 -354v-637h-465v113q-129 -140 -322 -140zM578 242q63 0 103 47t40 125v47q-47 18 -107 18 q-68 0 -105.5 -35.5t-37.5 -89.5v-4q0 -49 31 -78.5t76 -29.5zM172 1188l272 352h336l273 -352h-260l-183 115l-182 -115h-256z" />
<glyph unicode="&#xe3;" horiz-adv-x="1241" d="M393 -27q-166 0 -266 91.5t-100 252.5v5q0 166 114.5 257t311.5 91q166 0 264 -41v18q0 162 -207 162q-150 0 -309 -64l-82 310q215 82 471 82q328 0 473 -146q117 -117 117 -354v-637h-465v113q-129 -140 -322 -140zM578 242q63 0 103 47t40 125v47q-47 18 -107 18 q-68 0 -105.5 -35.5t-37.5 -89.5v-4q0 -49 31 -78.5t76 -29.5zM381 1178l-207 51q31 174 90.5 249.5t163.5 75.5q68 0 188.5 -39.5t143.5 -39.5q37 0 54 19t38 71l207 -52q-31 -174 -90.5 -249.5t-163.5 -75.5q-68 0 -188.5 40t-143.5 40q-37 0 -54.5 -19.5t-37.5 -70.5z " />
<glyph unicode="&#xe4;" horiz-adv-x="1241" d="M393 -27q-166 0 -266 91.5t-100 252.5v5q0 166 114.5 257t311.5 91q166 0 264 -41v18q0 162 -207 162q-150 0 -309 -64l-82 310q215 82 471 82q328 0 473 -146q117 -117 117 -354v-637h-465v113q-129 -140 -322 -140zM578 242q63 0 103 47t40 125v47q-47 18 -107 18 q-68 0 -105.5 -35.5t-37.5 -89.5v-4q0 -49 31 -78.5t76 -29.5zM653 1196v307h377v-307h-377zM195 1196v307h376v-307h-376z" />
<glyph unicode="&#xe5;" horiz-adv-x="1241" d="M393 -27q-166 0 -266 91.5t-100 252.5v5q0 166 114.5 257t311.5 91q166 0 264 -41v18q0 162 -207 162q-150 0 -309 -64l-82 310q215 82 471 82q328 0 473 -146q117 -117 117 -354v-637h-465v113q-129 -140 -322 -140zM578 242q63 0 103 47t40 125v47q-47 18 -107 18 q-68 0 -105.5 -35.5t-37.5 -89.5v-4q0 -49 31 -78.5t76 -29.5zM612.5 1208q-116.5 0 -206 84t-89.5 197v4q0 113 88.5 194.5t207 81.5t206.5 -81.5t88 -194.5v-4q0 -113 -89 -197t-205.5 -84zM612.5 1343q59.5 0 102.5 42t43 102v4q0 59 -43 101t-102.5 42t-102.5 -42 t-43 -101v-4q0 -59 43 -101.5t102.5 -42.5z" />
<glyph unicode="&#xe6;" horiz-adv-x="1902" d="M434 -27q-174 0 -290.5 88.5t-116.5 255.5v5q0 166 114.5 257t311.5 91q166 0 264 -41v18q0 162 -207 162q-150 0 -309 -64l-82 310q215 82 471 82q246 0 377 -109q139 117 331 117q276 0 424 -174t148 -443q0 -53 -2 -77h-719q49 -150 211 -150q117 0 227 115l250 -199 q-188 -244 -510 -244q-285 0 -450 166q-212 -166 -443 -166zM1143 655h303q-8 78 -50 123t-106 45q-57 0 -97 -45t-50 -123zM588 246q80 0 168 76q-27 63 -37 139q-47 18 -105 18q-68 0 -105.5 -35.5t-37.5 -89.5v-4q0 -49 33 -76.5t84 -27.5z" />
<glyph unicode="&#xe7;" horiz-adv-x="1161" d="M621 -354l-357 153l164 203q-176 59 -284.5 211t-108.5 340v4q0 242 172 414t438 172q178 0 308 -84t198 -225l-334 -189q-61 113 -164 113q-74 0 -123 -56.5t-49 -140.5v-4q0 -86 48.5 -143.5t117.5 -57.5q102 0 174 113l338 -193q-143 -264 -438 -299z" />
<glyph unicode="&#xe8;" horiz-adv-x="1224" d="M649 -27q-274 0 -444 160t-170 420v4q0 252 162.5 420t412.5 168q285 0 433.5 -173t148.5 -444q0 -53 -2 -77h-719q49 -150 211 -150q117 0 227 115l250 -199q-188 -244 -510 -244zM465 655h303q-8 78 -50 123t-106 45q-57 0 -97 -45t-50 -123zM487 1196l-337 277 l452 116l197 -393h-312z" />
<glyph unicode="&#xe9;" horiz-adv-x="1224" d="M649 -27q-274 0 -444 160t-170 420v4q0 252 162.5 420t412.5 168q285 0 433.5 -173t148.5 -444q0 -53 -2 -77h-719q49 -150 211 -150q117 0 227 115l250 -199q-188 -244 -510 -244zM465 655h303q-8 78 -50 123t-106 45q-57 0 -97 -45t-50 -123zM430 1196l197 393 l452 -116l-338 -277h-311z" />
<glyph unicode="&#xea;" horiz-adv-x="1224" d="M649 -27q-274 0 -444 160t-170 420v4q0 252 162.5 420t412.5 168q285 0 433.5 -173t148.5 -444q0 -53 -2 -77h-719q49 -150 211 -150q117 0 227 115l250 -199q-188 -244 -510 -244zM465 655h303q-8 78 -50 123t-106 45q-57 0 -97 -45t-50 -123zM174 1180l272 352h336 l273 -352h-260l-183 114l-182 -114h-256z" />
<glyph unicode="&#xeb;" horiz-adv-x="1224" d="M649 -27q-274 0 -444 160t-170 420v4q0 252 162.5 420t412.5 168q285 0 433.5 -173t148.5 -444q0 -53 -2 -77h-719q49 -150 211 -150q117 0 227 115l250 -199q-188 -244 -510 -244zM465 655h303q-8 78 -50 123t-106 45q-57 0 -97 -45t-50 -123zM655 1188v307h377v-307 h-377zM197 1188v307h376v-307h-376z" />
<glyph unicode="&#xec;" horiz-adv-x="612" d="M74 0v1118h465v-1118h-465zM184 1188l-338 276l453 117l197 -393h-312z" />
<glyph unicode="&#xed;" horiz-adv-x="612" d="M74 0v1118h465v-1118h-465zM123 1188l196 393l453 -117l-338 -276h-311z" />
<glyph unicode="&#xee;" horiz-adv-x="612" d="M74 0v1118h465v-1118h-465zM-131 1188l272 352h336l273 -352h-261l-182 115l-182 -115h-256z" />
<glyph unicode="&#xef;" horiz-adv-x="612" d="M74 0v1118h465v-1118h-465zM350 1188v307h377v-307h-377zM-109 1188v307h377v-307h-377z" />
<glyph unicode="&#xf0;" horiz-adv-x="1359" d="M662 -27q-272 0 -444.5 154t-172.5 383v4q0 180 139.5 312t368.5 132q141 0 190 -45l-149 203l-240 -84l-151 209l246 72l-134 182h476l38 -57l201 69l152 -209l-213 -61l94 -135q125 -182 172 -299t47 -275v-4q0 -238 -173 -394.5t-447 -156.5zM666 360q78 0 124 43 t46 107v4q0 63 -49.5 109.5t-124.5 46.5q-78 0 -124 -44t-46 -108v-4q0 -63 49 -108.5t125 -45.5z" />
<glyph unicode="&#xf1;" horiz-adv-x="1320" d="M70 0v1118h465v-155q141 182 342 182q176 0 279.5 -109.5t103.5 -298.5v-737h-465v588q0 70 -37 110.5t-90 40.5q-55 0 -94 -41t-39 -110v-588h-465zM434 1178l-207 51q31 174 90.5 249.5t163.5 75.5q68 0 189 -39.5t143 -39.5q37 0 54.5 19t37.5 71l207 -52 q-31 -174 -90 -249.5t-164 -75.5q-68 0 -188.5 40t-143.5 40q-37 0 -54.5 -19.5t-37.5 -70.5z" />
<glyph unicode="&#xf2;" horiz-adv-x="1327" d="M662 -27q-270 0 -448.5 170t-178.5 412v4q0 242 179 414t452 172q270 0 448 -170t178 -412v-4q0 -242 -179 -414t-451 -172zM665.5 360q77.5 0 129 56.5t51.5 138.5v4q0 82 -53.5 140.5t-131 58.5t-129 -56.5t-51.5 -138.5v-4q0 -82 53.5 -140.5t131 -58.5zM532 1196 l-337 277l452 116l197 -393h-312z" />
<glyph unicode="&#xf3;" horiz-adv-x="1327" d="M662 -27q-270 0 -448.5 170t-178.5 412v4q0 242 179 414t452 172q270 0 448 -170t178 -412v-4q0 -242 -179 -414t-451 -172zM665.5 360q77.5 0 129 56.5t51.5 138.5v4q0 82 -53.5 140.5t-131 58.5t-129 -56.5t-51.5 -138.5v-4q0 -82 53.5 -140.5t131 -58.5zM483 1196 l197 393l453 -116l-338 -277h-312z" />
<glyph unicode="&#xf4;" horiz-adv-x="1327" d="M662 -27q-270 0 -448.5 170t-178.5 412v4q0 242 179 414t452 172q270 0 448 -170t178 -412v-4q0 -242 -179 -414t-451 -172zM665.5 360q77.5 0 129 56.5t51.5 138.5v4q0 82 -53.5 140.5t-131 58.5t-129 -56.5t-51.5 -138.5v-4q0 -82 53.5 -140.5t131 -58.5zM223 1180 l273 352h335l273 -352h-260l-182 114l-183 -114h-256z" />
<glyph unicode="&#xf5;" horiz-adv-x="1327" d="M662 -27q-270 0 -448.5 170t-178.5 412v4q0 242 179 414t452 172q270 0 448 -170t178 -412v-4q0 -242 -179 -414t-451 -172zM665.5 360q77.5 0 129 56.5t51.5 138.5v4q0 82 -53.5 140.5t-131 58.5t-129 -56.5t-51.5 -138.5v-4q0 -82 53.5 -140.5t131 -58.5zM428 1178 l-207 51q31 174 90.5 249.5t163.5 75.5q68 0 188.5 -39.5t143.5 -39.5q37 0 54.5 19t37.5 71l207 -52q-31 -174 -90.5 -249.5t-163.5 -75.5q-68 0 -188.5 40t-143.5 40q-37 0 -54.5 -19.5t-37.5 -70.5z" />
<glyph unicode="&#xf6;" horiz-adv-x="1327" d="M662 -27q-270 0 -448.5 170t-178.5 412v4q0 242 179 414t452 172q270 0 448 -170t178 -412v-4q0 -242 -179 -414t-451 -172zM665.5 360q77.5 0 129 56.5t51.5 138.5v4q0 82 -53.5 140.5t-131 58.5t-129 -56.5t-51.5 -138.5v-4q0 -82 53.5 -140.5t131 -58.5zM705 1188v307 h376v-307h-376zM246 1188v307h377v-307h-377z" />
<glyph unicode="&#xf8;" horiz-adv-x="1327" d="M662 -27q-178 0 -326 80l-60 -63h-272l176 188q-145 162 -145 377v4q0 242 179 414t452 172q184 0 325 -82l60 65h272l-174 -188q143 -164 143 -377v-4q0 -242 -179 -414t-451 -172zM467 487l264 283q-35 10 -69 10q-86 0 -144.5 -63.5t-58.5 -153.5v-4q0 -41 8 -72z M666 338q86 0 144 63.5t58 153.5v4q0 39 -8 70l-260 -283q41 -8 66 -8z" />
<glyph unicode="&#xf9;" horiz-adv-x="1320" d="M444 -27q-176 0 -279.5 110t-103.5 298v737h465v-588q0 -70 37 -110.5t90 -40.5q55 0 94 41t39 110v588h465v-1118h-465v150q-137 -177 -342 -177zM561 1188l-338 276l453 117l196 -393h-311z" />
<glyph unicode="&#xfa;" horiz-adv-x="1320" d="M444 -27q-176 0 -279.5 110t-103.5 298v737h465v-588q0 -70 37 -110.5t90 -40.5q55 0 94 41t39 110v588h465v-1118h-465v150q-137 -177 -342 -177zM446 1188l197 393l453 -117l-338 -276h-312z" />
<glyph unicode="&#xfb;" horiz-adv-x="1320" d="M444 -27q-176 0 -279.5 110t-103.5 298v737h465v-588q0 -70 37 -110.5t90 -40.5q55 0 94 41t39 110v588h465v-1118h-465v150q-137 -177 -342 -177zM219 1188l273 352h335l273 -352h-260l-183 115l-182 -115h-256z" />
<glyph unicode="&#xfc;" horiz-adv-x="1320" d="M444 -27q-176 0 -279.5 110t-103.5 298v737h465v-588q0 -70 37 -110.5t90 -40.5q55 0 94 41t39 110v588h465v-1118h-465v150q-137 -177 -342 -177zM700 1188v307h377v-307h-377zM242 1188v307h376v-307h-376z" />
<glyph unicode="&#xfd;" horiz-adv-x="1335" d="M461 -334q-223 0 -432 117l135 317q131 -74 205 -73q43 0 75 16l-438 1075h481l195 -590l178 590h473l-387 -1040q-84 -225 -190.5 -318.5t-294.5 -93.5zM455 1188l196 393l453 -117l-338 -276h-311z" />
<glyph unicode="&#xfe;" horiz-adv-x="1384" d="M70 -328v1823h465v-514q47 51 82.5 81t102 56.5t146.5 26.5q205 0 343.5 -162t138.5 -416v-4q0 -260 -137.5 -425t-340.5 -165q-199 0 -335 154v-455h-465zM711 356q80 0 133 58.5t53 142.5v4q0 84 -53 142.5t-133 58.5t-133.5 -58.5t-53.5 -142.5v-4q0 -84 53.5 -142.5 t133.5 -58.5z" />
<glyph unicode="&#xff;" horiz-adv-x="1335" d="M461 -334q-223 0 -432 117l135 317q131 -74 205 -73q43 0 75 16l-438 1075h481l195 -590l178 590h473l-387 -1040q-84 -225 -190.5 -318.5t-294.5 -93.5zM702 1188v307h377v-307h-377zM244 1188v307h377v-307h-377z" />
<glyph unicode="&#x152;" horiz-adv-x="2211" d="M903 0q-418 0 -636 189.5t-218 515.5v4q0 330 224.5 527.5t646.5 197.5h1234v-394h-710v-145h659v-346h-659v-156h721v-393h-1262zM883 406h90v622h-90q-162 0 -256.5 -79t-94.5 -230v-4q0 -150 95.5 -229.5t255.5 -79.5z" />
<glyph unicode="&#x153;" horiz-adv-x="2035" d="M651 -27q-264 0 -440 171t-176 411v4q0 240 178 413t442 173q248 0 408 -150q143 150 369 150q276 0 423.5 -174t147.5 -443q0 -53 -2 -77h-719q49 -150 211 -150q117 0 227 115l250 -199q-188 -244 -500 -244q-262 0 -413 146q-162 -146 -406 -146zM1276 655h303 q-8 78 -50 123t-106 45q-57 0 -97 -45t-50 -123zM665.5 360q77.5 0 129 56.5t51.5 138.5v4q0 82 -53.5 140.5t-131 58.5t-129 -56.5t-51.5 -138.5v-4q0 -82 53.5 -140.5t131 -58.5z" />
<glyph unicode="&#x178;" horiz-adv-x="1495" d="M508 0v508l-541 926h537l246 -471l247 471h531l-541 -920v-514h-479zM788 1516v307h377v-307h-377zM330 1516v307h377v-307h-377z" />
<glyph unicode="&#x2c6;" horiz-adv-x="1024" d="M72 1188l272 352h336l272 -352h-260l-182 115l-182 -115h-256z" />
<glyph unicode="&#x2dc;" horiz-adv-x="1024" d="M276 1178l-206 51q31 174 90 249.5t164 75.5q68 0 188.5 -39.5t142.5 -39.5q37 0 54.5 19t38.5 71l206 -52q-31 -174 -90 -249.5t-164 -75.5q-68 0 -188.5 40t-142.5 40q-37 0 -55 -19.5t-38 -70.5z" />
<glyph unicode="&#x3bc;" d="M1190 -156l-154 154q-98 -25 -207 -25q-332 0 -556 213t-224 527v4q0 313 227.5 530t557 217t555 -215t225.5 -528v-4q0 -272 -180 -479l354 -373v-21h-598zM833.5 393q133.5 0 215 94.5t81.5 225.5v4q0 133 -83.5 228t-217 95t-215.5 -94t-82 -225v-4q0 -133 84 -228.5 t217.5 -95.5z" />
<glyph unicode="&#x2000;" horiz-adv-x="954" />
<glyph unicode="&#x2001;" horiz-adv-x="1908" />
<glyph unicode="&#x2002;" horiz-adv-x="954" />
<glyph unicode="&#x2003;" horiz-adv-x="1908" />
<glyph unicode="&#x2004;" horiz-adv-x="634" />
<glyph unicode="&#x2005;" horiz-adv-x="477" />
<glyph unicode="&#x2006;" horiz-adv-x="317" />
<glyph unicode="&#x2007;" horiz-adv-x="317" />
<glyph unicode="&#x2008;" horiz-adv-x="237" />
<glyph unicode="&#x2009;" horiz-adv-x="380" />
<glyph unicode="&#x200a;" horiz-adv-x="104" />
<glyph unicode="&#x2010;" horiz-adv-x="835" d="M61 455v381h713v-381h-713z" />
<glyph unicode="&#x2011;" horiz-adv-x="835" d="M61 455v381h713v-381h-713z" />
<glyph unicode="&#x2012;" horiz-adv-x="835" d="M61 455v381h713v-381h-713z" />
<glyph unicode="&#x2013;" horiz-adv-x="1081" d="M61 459v372h959v-372h-959z" />
<glyph unicode="&#x2014;" horiz-adv-x="1839" d="M61 459v372h1717v-372h-1717z" />
<glyph unicode="&#x2018;" horiz-adv-x="577" d="M47 621v374q0 236 121 337.5t340 111.5l37 -170q-209 -27 -209 -182h186v-471h-475z" />
<glyph unicode="&#x2019;" horiz-adv-x="577" d="M70 610l-37 170q209 27 209 183h-187v471h475v-375q0 -236 -120.5 -337.5t-339.5 -111.5z" />
<glyph unicode="&#x201a;" horiz-adv-x="577" d="M66 -352l-37 170q209 27 209 182h-187v471h475v-375q0 -236 -120.5 -337t-339.5 -111z" />
<glyph unicode="&#x201c;" horiz-adv-x="1134" d="M614 621v374q0 231 118 335t333 114l37 -170q-199 -25 -199 -182h176v-471h-465zM47 621v374q0 231 118 335t333 114l37 -170q-199 -25 -199 -182h176v-471h-465z" />
<glyph unicode="&#x201d;" horiz-adv-x="1134" d="M637 610l-37 170q199 25 199 183h-176v471h464v-375q0 -231 -117.5 -335t-332.5 -114zM70 610l-37 170q199 25 198 183h-176v471h465v-375q0 -231 -117.5 -335t-332.5 -114z" />
<glyph unicode="&#x201e;" horiz-adv-x="1130" d="M633 -352l-37 170q199 25 199 182h-177v471h465v-375q0 -231 -117.5 -334.5t-332.5 -113.5zM66 -352l-37 170q199 25 198 182h-176v471h465v-375q0 -231 -117.5 -334.5t-332.5 -113.5z" />
<glyph unicode="&#x2022;" horiz-adv-x="1024" d="M512 334q-160 0 -273.5 113.5t-113.5 271.5v4q0 158 113.5 271.5t273.5 113.5t273.5 -113.5t113.5 -271.5v-4q0 -158 -113.5 -271.5t-273.5 -113.5z" />
<glyph unicode="&#x2026;" horiz-adv-x="1720" d="M1202 0v467h467v-467h-467zM627 0v467h467v-467h-467zM51 0v467h467v-467h-467z" />
<glyph unicode="&#x202f;" horiz-adv-x="380" />
<glyph unicode="&#x2039;" horiz-adv-x="698" d="M352 41l-313 418v180l313 418l320 -160l-266 -348l266 -348z" />
<glyph unicode="&#x203a;" horiz-adv-x="698" d="M346 41l-319 160l266 348l-266 348l319 160l313 -418v-180z" />
<glyph unicode="&#x2044;" horiz-adv-x="1067" d="M-152 -201l953 1753h373l-953 -1753h-373z" />
<glyph unicode="&#x205f;" horiz-adv-x="477" />
<glyph unicode="&#x2122;" horiz-adv-x="1433" d="M664 803v631h219l135 -222l135 222h221v-631h-211v313l-145 -225h-2l-146 225v-313h-206zM201 803v450h-187v181h582v-181h-186v-450h-209z" />
<glyph unicode="&#xe000;" horiz-adv-x="1120" d="M0 1120h1120v-1120h-1120v1120z" />
<glyph unicode="&#xfb01;" horiz-adv-x="1484" d="M938 1198v297h481v-297h-481zM156 0v760h-131v358h131q6 190 100 285q106 106 328 106q178 0 284 -30v-291q-72 16 -149 16q-109 0 -109 -90v-8h258v-346h-247v-760h-465zM946 0v1118h465v-1118h-465z" />
<glyph unicode="&#xfb02;" horiz-adv-x="1484" d="M156 0v760h-131v358h131q6 190 100 285q106 106 328 106q178 0 284 -30v-291q-72 16 -149 16q-109 0 -109 -90v-8h258v-346h-247v-760h-465zM946 0v1495h465v-1495h-465z" />
<glyph unicode="&#xfb03;" horiz-adv-x="2357" d="M1811 1198v297h481v-297h-481zM1819 0v1118h465v-1118h-465zM1028 0v760h-131v358h131q6 190 100 285q106 106 328 106q178 0 284 -30v-291q-72 16 -149 16q-109 0 -109 -90v-8h258v-346h-247v-760h-465zM156 0v760h-131v358h131q6 190 100 285q106 106 328 106 q178 0 284 -30v-291q-72 16 -149 16q-109 0 -109 -90v-8h258v-346h-247v-760h-465z" />
<glyph unicode="&#xfb04;" horiz-adv-x="2357" d="M1819 0v1495h465v-1495h-465zM1028 0v760h-131v358h131q6 190 100 285q106 106 328 106q178 0 284 -30v-291q-72 16 -149 16q-109 0 -109 -90v-8h258v-346h-247v-760h-465zM156 0v760h-131v358h131q6 190 100 285q106 106 328 106q178 0 284 -30v-291q-72 16 -149 16 q-109 0 -109 -90v-8h258v-346h-247v-760h-465z" />
</font>
</defs>
</svg>
