<?xml version="1.0" standalone="no"?>
<!DOCTYPE svg PUBLIC "-//W3C//DTD SVG 1.1//EN" "http://www.w3.org/Graphics/SVG/1.1/DTD/svg11.dtd" >
<svg xmlns="http://www.w3.org/2000/svg">
<metadata>
This is a custom SVG webfont generated by Font Squirrel.
Copyright   : HTF Gothama c 2003 The Hoefler Type Foundry Inc Info wwwtypographycom
</metadata>
<defs>
<font id="webfont2FsRBOXp" horiz-adv-x="1716" >
<font-face units-per-em="2048" ascent="1638" descent="-410" />
<missing-glyph horiz-adv-x="573" />
<glyph unicode=" "  horiz-adv-x="573" />
<glyph unicode="&#x09;" horiz-adv-x="573" />
<glyph unicode="&#xa0;" horiz-adv-x="573" />
<glyph unicode="!" horiz-adv-x="397" d="M152 375l213 837l59 222h45l-59 -222l-238 -837h-20zM25 0l28 106h74l-29 -106h-73z" />
<glyph unicode="&#x22;" horiz-adv-x="622" d="M453 913l211 521h51v-4l-238 -517h-24zM190 913l211 521h52v-4l-238 -517h-25z" />
<glyph unicode="#" horiz-adv-x="1351" d="M203 0l143 412h-233l10 39h237l191 544h-260l10 39h262l139 400h41l-139 -400h490l139 400h41l-139 -400h233l-10 -39h-238l-188 -544h258l-10 -39h-262l-144 -412h-41l144 412h-490l-143 -412h-41zM401 451h490l190 544h-491z" />
<glyph unicode="$" horiz-adv-x="1273" d="M422 -201l57 211q-268 45 -432 248l33 29q154 -195 409 -240l181 672q-90 33 -144.5 59.5t-115 68.5t-89 97t-28.5 127q0 143 128 253t349 110q45 0 90 -7l33 125h39l-35 -131q215 -41 348 -188l-31 -29q-139 145 -327 180l-172 -641q88 -33 143 -59.5t114.5 -69.5 t88.5 -102t29 -137q0 -145 -126 -260t-358 -115q-33 0 -90 4l-55 -205h-39zM680 758l170 633q-39 6 -84 6q-197 0 -312.5 -97.5t-115.5 -226.5q0 -121 83 -185t259 -130zM610 37q205 0 319.5 103.5t114.5 232.5t-82.5 198.5t-256.5 133.5l-179 -664q57 -4 84 -4z" />
<glyph unicode="%" horiz-adv-x="1687" d="M487 709q-121 0 -197.5 86t-76.5 217q0 170 113.5 304t267.5 134q121 0 197.5 -86t76.5 -217q0 -170 -113.5 -304t-267.5 -134zM154 0l1429 1434h53l-1429 -1434h-53zM1196 -16q-121 0 -197.5 86t-76.5 217q0 170 113.5 304t267.5 134q121 0 197.5 -86t76.5 -217 q0 -170 -113.5 -304t-267.5 -134zM489 750q137 0 235.5 120.5t98.5 274.5q0 115 -64.5 189.5t-166.5 74.5q-137 0 -235.5 -121t-98.5 -274q0 -115 64.5 -189.5t166.5 -74.5zM1198 25q137 0 235.5 120.5t98.5 274.5q0 115 -64.5 189.5t-167.5 74.5q-137 0 -235 -121t-98 -274 q0 -115 64.5 -189.5t166.5 -74.5z" />
<glyph unicode="&#x26;" horiz-adv-x="1384" d="M1200 -18l-188 264q-270 -266 -545 -266q-164 0 -279.5 95t-115.5 257q0 106 46 190t131 139.5t168 88t193 61.5q-121 176 -121 299q0 152 108 250t267 98q131 0 216 -76.5t85 -191.5q0 -150 -129 -244t-362 -158l344 -483q125 137 258 363l37 -21q-129 -211 -273 -373 l191 -270zM651 819q225 61 347 146.5t122 222.5q0 98 -71.5 163.5t-186.5 65.5q-139 0 -233 -86t-94 -217q-1 -123 116 -295zM469 20q272 0 520 259l-356 501q-86 -23 -152.5 -46t-138.5 -61t-118 -83t-76.5 -110.5t-30.5 -145.5q0 -145 102.5 -229.5t249.5 -84.5z" />
<glyph unicode="'" horiz-adv-x="360" d="M190 913l211 521h52v-4l-238 -517h-25z" />
<glyph unicode="(" horiz-adv-x="798" d="M549 -266q-367 281 -367 717q0 322 214 602t601 420l15 -39q-375 -133 -580 -402.5t-205 -580.5q0 -416 348 -687z" />
<glyph unicode=")" horiz-adv-x="798" d="M-152 -274l-14 38q375 133 579.5 402.5t204.5 581.5q0 416 -348 686l27 30q367 -281 367 -716q0 -322 -214.5 -602.5t-601.5 -419.5z" />
<glyph unicode="*" horiz-adv-x="882" d="M547 836l-43 12l86 274l-275 -88l-12 43l283 62l-215 196l35 31l192 -213l64 281l43 -13l-87 -274l275 88l12 -43l-282 -62l215 -196l-35 -31l-193 213z" />
<glyph unicode="+" horiz-adv-x="1130" d="M477 272l115 430h-408l11 37h407l115 430h41l-115 -430h408l-11 -37h-407l-115 -430h-41z" />
<glyph unicode="," horiz-adv-x="335" d="M-51 -162l-8 25q59 14 90 137h-37l29 106h73l-24 -94q-23 -86 -50.5 -125t-72.5 -49z" />
<glyph unicode="-" horiz-adv-x="794" d="M160 588l12 43h508l-12 -43h-508z" />
<glyph unicode="." horiz-adv-x="335" d="M-6 0l29 106h73l-28 -106h-74z" />
<glyph unicode="/" horiz-adv-x="1005" d="M-199 -262l1471 1896h49l-1471 -1896h-49z" />
<glyph unicode="0" horiz-adv-x="1449" d="M653 -25q-229 0 -351 149.5t-122 391.5q0 233 91 448.5t260 354.5t374 139q229 0 351 -149.5t122 -390.5q0 -233 -91 -448.5t-260 -355t-374 -139.5zM655 16q193 0 351.5 133.5t242.5 338t84 427.5q0 225 -109.5 363.5t-320.5 138.5q-193 0 -351.5 -133t-242.5 -338 t-84 -428q0 -225 109.5 -363.5t320.5 -138.5z" />
<glyph unicode="1" horiz-adv-x="641" d="M209 0l373 1393l-301 -123l-9 41l330 133h37l-387 -1444h-43z" />
<glyph unicode="2" horiz-adv-x="1144" d="M-43 0l6 27l879 692q152 121 213 208t61 191q0 125 -97 210t-267 85q-236 0 -433 -223l-30 27q207 238 465 237q190 0 298.5 -97t108.5 -237q0 -115 -65.5 -210t-229.5 -224l-823 -645h895l-10 -41h-971z" />
<glyph unicode="3" horiz-adv-x="1136" d="M463 -23q-170 0 -293 71t-184 194l39 18q127 -242 440 -242q213 0 359.5 112t146.5 294q0 137 -117 221t-348 84h-49l-11 29l711 635h-813l12 41h877l-10 -33l-707 -633q238 -2 369 -94t131 -248q0 -201 -160 -325t-393 -124z" />
<glyph unicode="4" horiz-adv-x="1265" d="M786 0l101 375h-844l-6 26l1141 1043h36l-274 -1028h236l-11 -41h-235l-101 -375h-43zM111 416h786l256 956z" />
<glyph unicode="5" horiz-adv-x="1183" d="M504 -25q-164 0 -290 74t-185 189l39 20q133 -242 438 -242q217 0 363.5 130t146.5 315q0 166 -108.5 254t-293.5 88q-174 0 -358 -88l-23 18l230 701h747l-12 -41h-706l-203 -621q164 72 327 72q197 0 321 -99.5t124 -281.5q0 -201 -162 -344.5t-395 -143.5z" />
<glyph unicode="6" horiz-adv-x="1271" d="M618 -25q-203 0 -331 129q-121 121 -121 318q0 252 83 475t230 371q190 190 443 190q238 0 395 -194l-35 -27q-147 180 -362 180q-231 0 -408 -176q-242 -242 -299 -676q45 123 184.5 218.5t319.5 95.5q211 0 329.5 -112t118.5 -273q0 -213 -158 -366t-389 -153zM623 16 q209 0 353 140.5t144 332.5q0 154 -105.5 251.5t-299.5 97.5q-211 0 -358.5 -132.5t-147.5 -293.5q0 -168 113 -281q115 -115 301 -115z" />
<glyph unicode="7" horiz-adv-x="1087" d="M106 0l1037 1393h-879l12 41h932l-8 -27l-1042 -1407h-52z" />
<glyph unicode="8" horiz-adv-x="1280" d="M604 -20q-227 0 -369.5 100t-142.5 268q0 156 132 269.5t341 134.5q-119 43 -187.5 122.5t-68.5 186.5q0 166 141.5 279.5t352.5 113.5q186 0 315 -94t129 -238q0 -150 -113.5 -257t-295.5 -134q141 -39 225 -133t84 -213q0 -176 -148.5 -290.5t-394.5 -114.5zM731 754 q197 0 334 104.5t137 261.5q0 125 -116.5 209t-284.5 84q-193 0 -320 -99.5t-127 -250.5q0 -129 109.5 -219t267.5 -90zM604 20q227 0 362.5 102.5t135.5 260.5q0 143 -128 242.5t-321 99.5q-219 0 -367.5 -111.5t-148.5 -263t130 -241t337 -89.5z" />
<glyph unicode="9" horiz-adv-x="1271" d="M457 -25q-238 0 -396 195l35 27q147 -180 363 -181q231 0 407 177q242 242 299 675q-45 -123 -184 -218t-319 -95q-211 0 -330 111.5t-119 273.5q0 213 157.5 365.5t389.5 152.5q203 0 332 -129q121 -121 120 -317q0 -252 -82.5 -475.5t-230.5 -370.5 q-190 -191 -442 -191zM664 596q211 0 358 132t147 294q0 168 -112 281q-115 115 -301 114q-209 0 -353.5 -140t-144.5 -333q0 -154 105.5 -251t300.5 -97z" />
<glyph unicode=":" horiz-adv-x="344" d="M244 918l28 106h74l-29 -106h-73zM-2 0l29 106h73l-28 -106h-74z" />
<glyph unicode=";" horiz-adv-x="344" d="M244 918l28 106h74l-29 -106h-73zM-47 -162l-8 25q59 14 90 137h-37l29 106h73l-24 -94q-23 -86 -50.5 -125t-72.5 -49z" />
<glyph unicode="&#x3c;" horiz-adv-x="1228" d="M983 229l-813 482l6 20l1069 481l-12 -49l-995 -446l757 -443z" />
<glyph unicode="=" horiz-adv-x="1228" d="M303 942l10 41h848l-10 -41h-848zM174 461l10 41h848l-10 -41h-848z" />
<glyph unicode="&#x3e;" horiz-adv-x="1228" d="M88 229l12 50l996 446l-758 442l12 45l813 -481l-6 -20z" />
<glyph unicode="?" horiz-adv-x="1026" d="M408 375l71 321l6 6q236 23 390.5 123.5t154.5 278.5q0 133 -96 220t-266 87q-233 0 -432 -194l-29 28q211 207 463 207q188 0 296.5 -99.5t108.5 -246.5q0 -190 -155.5 -300t-397.5 -140l-94 -291h-20zM281 0l28 106h74l-29 -106h-73z" />
<glyph unicode="@" horiz-adv-x="1943" d="M913 -326q-354 0 -561 209t-207 533q0 217 83 412.5t219.5 332.5t314.5 217t364 80q326 0 526.5 -208t200.5 -486q0 -285 -124.5 -441.5t-268.5 -156.5q-125 0 -165 75.5t-21 174.5q-43 -98 -146.5 -174t-236.5 -76q-143 0 -227 92t-84 234q0 184 130 337.5t320 153.5 q150 0 228.5 -80t87.5 -201l69 234l39 -8l-119 -391q-51 -158 -19 -246t144 -88q131 0 241.5 146.5t110.5 412.5t-189 462.5t-499 196.5q-180 0 -351 -76.5t-300 -207.5t-208 -319.5t-79 -399.5q0 -303 194.5 -505t534.5 -202q266 0 463 99l19 -35q-201 -101 -484 -101z M895 207q174 0 298 144.5t124 289.5q0 143 -71.5 222t-215.5 79q-176 0 -290.5 -139t-114.5 -307q0 -131 70.5 -210t199.5 -79z" />
<glyph unicode="A" horiz-adv-x="1570" d="M-51 0l1077 1444h39l297 -1444h-43l-88 430h-912l-319 -430h-51zM350 471h873l-189 915z" />
<glyph unicode="B" horiz-adv-x="1484" d="M76 0l385 1434h524q186 0 305 -85t119 -233q0 -172 -120 -273.5t-288 -117.5q303 -63 304 -303q0 -182 -152 -302t-436 -120h-641zM322 745h516q248 0 387 97.5t139 269.5q0 133 -106.5 207t-280.5 74h-483zM131 41h592q260 0 398.5 107.5t138.5 275.5q0 135 -116 208 t-308 73h-527z" />
<glyph unicode="C" horiz-adv-x="1486" d="M758 -25q-240 0 -404 158t-164 418q0 233 112 442t310.5 337t431.5 128q174 0 309.5 -83t202.5 -228l-38 -17q-63 129 -186.5 208t-287.5 79q-223 0 -410.5 -123t-292.5 -321.5t-105 -421.5q0 -244 150.5 -389.5t375.5 -145.5q309 0 541 236l28 -29q-247 -248 -573 -248z " />
<glyph unicode="D" horiz-adv-x="1562" d="M76 0l385 1434h287q381 0 577 -197q156 -156 156 -406q0 -338 -226 -563q-268 -268 -731 -268h-448zM131 41h401q434 0 691 256q213 213 213 532q0 236 -144 379q-182 184 -532 185h-266z" />
<glyph unicode="E" horiz-adv-x="1353" d="M76 0l385 1434h1001l-12 -41h-954l-177 -652h869l-10 -41h-869l-178 -659h967l-11 -41h-1011z" />
<glyph unicode="F" horiz-adv-x="1288" d="M76 0l385 1434h991l-12 -41h-946l-179 -666h859l-11 -41h-858l-184 -686h-45z" />
<glyph unicode="G" horiz-adv-x="1595" d="M797 -25q-272 0 -435 169t-163 429q0 231 111.5 433t312 327t442.5 125q334 0 510 -252l-37 -24q-162 236 -473 235q-229 0 -418.5 -117.5t-296 -310t-106.5 -414.5q0 -244 151.5 -401.5t405.5 -157.5q244 0 463 140l149 518h-506l13 45h550l-167 -588 q-240 -156 -506 -156z" />
<glyph unicode="H" horiz-adv-x="1542" d="M76 0l385 1434h45l-187 -691h1024l187 691h45l-385 -1434h-45l188 702h-1024l-188 -702h-45z" />
<glyph unicode="I" horiz-adv-x="499" d="M88 0l385 1434h45l-385 -1434h-45z" />
<glyph unicode="J" horiz-adv-x="1073" d="M373 -23q-152 0 -249 90.5t-134 229.5l41 12q33 -127 120 -209t222 -82q166 0 278 113q102 102 164 326l262 977h45l-266 -990q-61 -227 -172 -338q-129 -129 -311 -129z" />
<glyph unicode="K" horiz-adv-x="1443" d="M78 0l383 1434h45l-260 -971l1247 971h68l-785 -607l424 -827h-49l-410 799l-512 -396l-106 -403h-45z" />
<glyph unicode="L" horiz-adv-x="1196" d="M76 0l385 1434h45l-375 -1393h881l-11 -41h-925z" />
<glyph unicode="M" horiz-adv-x="1761" d="M76 0l385 1434h39l385 -887l860 887h49l-385 -1434h-45l365 1358l-859 -885h-2l-383 885l-364 -1358h-45z" />
<glyph unicode="N" horiz-adv-x="1601" d="M76 0l385 1434h41l721 -1373l368 1373h43l-385 -1434h-41l-721 1372l-368 -1372h-43z" />
<glyph unicode="O" d="M813 -25q-270 0 -442 178.5t-172 442.5q0 221 107.5 418.5t297 320.5t408.5 123q270 0 442 -178t172 -442q0 -221 -107.5 -419t-297 -321t-408.5 -123zM815 16q211 0 388 116t277.5 304.5t100.5 399.5q0 248 -159.5 414.5t-411.5 166.5q-211 0 -388.5 -115.5t-277.5 -304 t-100 -399.5q0 -248 159.5 -415t411.5 -167z" />
<glyph unicode="P" horiz-adv-x="1368" d="M76 0l385 1434h436q272 0 401 -129q94 -94 95 -254q0 -221 -180.5 -354.5t-493.5 -133.5h-447l-151 -563h-45zM283 604h438q293 0 460 125t167 320q0 143 -84 227q-117 117 -369 117h-401z" />
<glyph unicode="Q" d="M1430 -18l-146 161q-211 -168 -471 -168q-270 0 -442 178.5t-172 442.5q0 221 107.5 418.5t297 320.5t408.5 123q270 0 442 -178t172 -442q0 -190 -83 -366.5t-226 -301.5l143 -162zM815 16q244 0 442 156l-264 297l33 27l264 -297q135 117 213 285.5t78 351.5 q0 248 -159.5 414.5t-411.5 166.5q-211 0 -388.5 -115.5t-277.5 -304t-100 -399.5q0 -248 159.5 -415t411.5 -167z" />
<glyph unicode="R" horiz-adv-x="1482" d="M76 0l385 1434h512q223 0 346 -94.5t123 -264.5q0 -174 -117 -291q-152 -152 -451 -157l326 -627h-49l-324 625h-538l-168 -625h-45zM299 666h541q307 0 452 145q104 104 104.5 260t-111 239t-316.5 83h-473z" />
<glyph unicode="S" horiz-adv-x="1308" d="M621 -20q-172 0 -326 71.5t-248 194.5l35 26q90 -119 234.5 -185.5t308.5 -66.5q213 0 333.5 108t120.5 245q0 70 -28.5 124t-93 96t-113.5 65.5t-146 60.5q-92 35 -144 59.5t-115.5 66.5t-93.5 97t-30 127q0 156 134.5 270.5t363.5 114.5q297 0 487 -207l-32 -28 q-178 195 -459 194q-205 0 -327 -102.5t-122 -237.5q0 -61 29 -111.5t89.5 -88t110.5 -61.5t138 -56q92 -35 149.5 -61.5t121 -71.5t95 -106.5t31.5 -139.5q0 -158 -131.5 -277.5t-371.5 -119.5z" />
<glyph unicode="T" horiz-adv-x="1191" d="M424 0l373 1393h-516l10 41h1081l-10 -41h-520l-373 -1393h-45z" />
<glyph unicode="U" horiz-adv-x="1540" d="M705 -23q-223 0 -363.5 116t-140.5 343q0 109 37 250l200 748h45l-202 -754q-35 -133 -35 -240q0 -209 126 -315.5t335 -106.5q240 0 403 164q141 141 225 451l215 801h45l-219 -813q-86 -317 -235 -467q-176 -177 -436 -177z" />
<glyph unicode="V" horiz-adv-x="1462" d="M563 -10l-246 1444h45l232 -1385l979 1385h51l-1026 -1444h-35z" />
<glyph unicode="W" horiz-adv-x="2144" d="M444 -10l-116 1444h43l106 -1385l813 1389h37l94 -1389l828 1385h47l-871 -1444h-39l-94 1378l-809 -1378h-39z" />
<glyph unicode="X" horiz-adv-x="1376" d="M-45 0l762 733l-395 701h47l379 -674l696 674h55l-733 -709l408 -725h-48l-391 698l-725 -698h-55z" />
<glyph unicode="Y" horiz-adv-x="1359" d="M508 0l162 602l-377 832h47l360 -797l791 797h57l-835 -840l-160 -594h-45z" />
<glyph unicode="Z" horiz-adv-x="1368" d="M-12 0l6 25l1399 1368h-998l13 41h1067l-9 -27l-1398 -1366h1026l-11 -41h-1095z" />
<glyph unicode="[" horiz-adv-x="839" d="M10 -266l457 1700h539l-11 -35h-493l-436 -1630h493l-10 -35h-539z" />
<glyph unicode="\" horiz-adv-x="964" d="M778 -262l-454 1896h43l454 -1896h-43z" />
<glyph unicode="]" horiz-adv-x="839" d="M-127 -266l10 35h494l436 1630h-494l11 35h538l-456 -1700h-539z" />
<glyph unicode="^" horiz-adv-x="1024" d="M313 1012l435 428h24l205 -428h-31l-196 374l-398 -374h-39z" />
<glyph unicode="_" horiz-adv-x="1122" d="M-227 -305l10 41h1135l-11 -41h-1134z" />
<glyph unicode="`" horiz-adv-x="1024" d="M782 1219l-157 229l53 25l129 -254h-25z" />
<glyph unicode="a" horiz-adv-x="1159" d="M381 -25q-131 0 -229.5 76t-98.5 205q0 168 126 262t335 94q231 0 434 -63l13 47q18 68 18 125q0 135 -100.5 206.5t-266.5 71.5q-141 0 -286 -51l-13 41q141 51 303 51q182 0 293 -80.5t111 -236.5q0 -59 -19 -133l-157 -590h-43l65 244q-68 -121 -190.5 -195 t-294.5 -74zM389 14q197 0 337 116t187 290l25 90q-203 61 -432 61q-186 0 -297 -82.5t-111 -226.5q0 -117 88 -182.5t203 -65.5z" />
<glyph unicode="b" horiz-adv-x="1331" d="M639 -25q-195 0 -312.5 112t-138.5 261l-94 -348h-43l402 1495h43l-197 -729q47 96 188.5 189.5t305.5 93.5q184 0 304 -126t120 -311q0 -156 -70 -300t-206 -240.5t-302 -96.5zM637 16q154 0 279.5 90.5t190 224.5t64.5 275q0 172 -107.5 287t-272.5 115 q-121 0 -230.5 -56.5t-182.5 -141.5t-116 -182.5t-43 -185.5q0 -186 115 -306t303 -120z" />
<glyph unicode="c" horiz-adv-x="1130" d="M549 -25q-178 0 -314.5 121t-136.5 322q0 254 181.5 442.5t422.5 188.5q145 0 248 -70t156 -172l-37 -21q-117 221 -369 222q-223 0 -390 -176.5t-167 -411.5q0 -184 122 -294t286 -110q195 0 369 156l28 -27q-188 -170 -399 -170z" />
<glyph unicode="d" horiz-adv-x="1331" d="M530 -25q-184 0 -304 126t-120 311q0 156 70 300t206 240.5t302 96.5q195 0 312.5 -112t138.5 -261l204 758h43l-385 -1434h-43l70 258q-47 -96 -188.5 -189.5t-305.5 -93.5zM532 16q121 0 230.5 56.5t182.5 141.5t116 182.5t43 185.5q0 186 -115 306t-303 120 q-154 0 -279.5 -90.5t-190 -224.5t-64.5 -275q0 -172 107 -287t273 -115z" />
<glyph unicode="e" horiz-adv-x="1200" d="M154 500q-8 -41 -9 -94q0 -178 111 -284t301 -106q207 0 379 146l27 -31q-182 -156 -406 -156q-209 0 -333 116t-124 310q0 256 176.5 452t415.5 196q201 0 300.5 -117t99.5 -285q-4 -84 -23 -147h-915zM160 539h874q12 74 13 110q0 152 -88.5 255.5t-266.5 103.5 q-188 0 -337.5 -136t-194.5 -333z" />
<glyph unicode="f" horiz-adv-x="665" d="M94 0l264 985h-161l10 39h162l49 180q78 291 317 291q98 0 176 -45l-12 -41q-68 43 -166 43q-207 0 -274 -256l-47 -172h374l-10 -39h-375l-264 -985h-43z" />
<glyph unicode="g" horiz-adv-x="1325" d="M485 -328q-135 0 -264 51.5t-219 139.5l31 28q82 -82 203.5 -130t252.5 -48q215 0 347 131q98 98 151 299l51 193q-76 -117 -202.5 -188.5t-286.5 -71.5q-178 0 -304 112.5t-126 284.5q0 227 163.5 401.5t407.5 174.5q188 0 306 -111t137 -250l90 336h43l-240 -893 q-55 -207 -162 -313q-146 -146 -379 -146zM555 117q233 0 391 160.5t158 334.5q0 160 -117 278t-297 118q-223 0 -374.5 -162t-151.5 -367q0 -156 112.5 -259t278.5 -103z" />
<glyph unicode="h" horiz-adv-x="1239" d="M51 0l402 1495h43l-199 -735q63 123 179 206t274 83q170 0 259 -90.5t89 -243.5q0 -78 -27 -180l-143 -535h-43l143 535q25 92 25 176q0 137 -76 217t-232 80q-164 0 -305 -120t-194 -323l-152 -565h-43z" />
<glyph unicode="i" horiz-adv-x="450" d="M406 1317l32 117h64l-33 -117h-63zM63 0l275 1024h43l-275 -1024h-43z" />
<glyph unicode="j" horiz-adv-x="450" d="M406 1317l32 117h64l-33 -117h-63zM-176 -342q-47 0 -86 14l12 41q33 -14 72 -14q158 0 211 188l305 1137h43l-307 -1145q-57 -221 -250 -221z" />
<glyph unicode="k" horiz-adv-x="1112" d="M51 0l402 1495h43l-312 -1159l887 688h59l-583 -451l327 -573h-45l-313 549l-346 -264l-76 -285h-43z" />
<glyph unicode="l" horiz-adv-x="448" d="M63 0l402 1495h43l-402 -1495h-43z" />
<glyph unicode="m" horiz-adv-x="1890" d="M51 0l275 1024h43l-72 -264q150 289 401 289q145 0 228.5 -86t83.5 -234q70 135 180 227.5t248 92.5q147 0 229 -86t82 -228q0 -76 -33 -200l-143 -535h-43l143 535q31 119 31 198q0 125 -68.5 200t-201.5 75q-145 0 -273.5 -131.5t-179.5 -323.5l-147 -553h-43l143 535 q31 119 31 198q0 125 -69 200t-202 75q-145 0 -273 -131.5t-179 -323.5l-148 -553h-43z" />
<glyph unicode="n" horiz-adv-x="1239" d="M51 0l275 1024h43l-72 -264q63 123 179 206t274 83q170 0 259 -90.5t89 -243.5q0 -78 -27 -180l-143 -535h-43l143 535q25 92 25 176q0 137 -76 217t-232 80q-164 0 -305 -120t-194 -323l-152 -565h-43z" />
<glyph unicode="o" horiz-adv-x="1271" d="M569 -25q-203 0 -336 130.5t-133 326.5q0 236 172 426.5t430 190.5q203 0 336 -130.5t133 -326.5q0 -236 -172 -426.5t-430 -190.5zM571 16q236 0 395.5 175.5t159.5 394.5q0 180 -118.5 301t-307.5 121q-236 0 -395.5 -175.5t-159.5 -394.5q0 -180 119 -301t307 -121z " />
<glyph unicode="p" horiz-adv-x="1331" d="M-37 -328l363 1352h43l-70 -258q47 96 188.5 189.5t305.5 93.5q184 0 304 -126t120 -311q0 -156 -70 -300t-206 -240.5t-302 -96.5q-195 0 -312.5 112t-138.5 261l-182 -676h-43zM637 16q154 0 279.5 90.5t190 224.5t64.5 275q0 172 -107.5 287t-272.5 115 q-121 0 -230.5 -56.5t-182.5 -141.5t-116 -182.5t-43 -185.5q0 -186 115 -306t303 -120z" />
<glyph unicode="q" horiz-adv-x="1331" d="M866 -328l158 586q-47 -96 -188.5 -189.5t-305.5 -93.5q-184 0 -304 126t-120 311q0 156 70 300t206 240.5t302 96.5q195 0 312.5 -112t138.5 -261l94 348h43l-363 -1352h-43zM532 16q121 0 230.5 56.5t182.5 141.5t116 182.5t43 185.5q0 186 -115 306t-303 120 q-154 0 -279.5 -90.5t-190 -224.5t-64.5 -275q0 -172 107 -287t273 -115z" />
<glyph unicode="r" horiz-adv-x="696" d="M51 0l275 1024h43l-86 -319q96 160 238.5 252t275.5 92l-11 -41h-4q-145 0 -321 -146.5t-228 -341.5l-139 -520h-43z" />
<glyph unicode="s" horiz-adv-x="1003" d="M428 -18q-115 0 -228.5 43t-193.5 120l29 31q170 -154 395 -153q154 0 244 72.5t90 160.5q0 92 -61.5 140t-210.5 108q-141 55 -215 112.5t-74 151.5q0 111 100 192.5t268 81.5q84 0 185.5 -33.5t177.5 -99.5l-29 -30q-143 123 -336 122q-147 0 -234 -68.5t-87 -160.5 q0 -84 64.5 -131t205.5 -102q150 -59 220.5 -116.5t70.5 -162.5q0 -106 -104.5 -192t-276.5 -86z" />
<glyph unicode="t" horiz-adv-x="761" d="M389 -18q-225 0 -225 188q0 43 16 104l191 711h-162l10 39h162l94 354h43l-94 -354h379l-10 -39h-379l-191 -711q-16 -59 -16 -100q0 -152 186 -151q76 0 148 30l-13 -47q-59 -24 -139 -24z" />
<glyph unicode="u" horiz-adv-x="1239" d="M489 -25q-170 0 -259 90.5t-89 243.5q0 78 27 180l143 535h43l-143 -535q-25 -92 -25 -176q0 -137 76 -217t232 -80q164 0 305 120t194 323l152 565h43l-275 -1024h-43l72 264q-63 -123 -179 -206t-274 -83z" />
<glyph unicode="v" horiz-adv-x="1146" d="M406 -8l-193 1032h45l174 -975l696 975h50l-744 -1032h-28z" />
<glyph unicode="w" horiz-adv-x="1648" d="M309 -8l-86 1032h43l76 -965l592 971h37l67 -971l584 965h47l-629 -1032h-36l-70 966l-588 -966h-37z" />
<glyph unicode="x" horiz-adv-x="1075" d="M-61 0l577 526l-285 498h48l268 -473l520 473h55l-557 -506l297 -518h-47l-280 494l-541 -494h-55z" />
<glyph unicode="y" horiz-adv-x="1173" d="M61 -334q-121 0 -196 55l22 33q78 -51 174 -51q84 0 169 59.5t206 229.5l-227 1032h45l213 -993l692 993h49l-727 -1034q-139 -199 -229.5 -261.5t-190.5 -62.5z" />
<glyph unicode="z" horiz-adv-x="997" d="M-66 0l7 25l1036 962h-754l10 37h820l-6 -25l-1037 -962h783l-11 -37h-848z" />
<glyph unicode="{" horiz-adv-x="901" d="M588 -289q-154 41 -227.5 121t-73.5 213q0 88 41 240q31 106 30 159q0 51 -43 86t-139 35h-61l12 41h61q145 0 221 81t117 286q18 92 38 154.5t57.5 128t90 105.5t136.5 67.5t196 33.5l-4 -43q-104 -8 -180 -34.5t-123 -62.5t-80.5 -97.5t-50 -116.5t-35.5 -143 q-41 -203 -109.5 -286t-193.5 -95q139 -27 140 -144q0 -51 -33 -161q-41 -137 -41 -230q0 -119 64.5 -190.5t203.5 -108.5z" />
<glyph unicode="|" horiz-adv-x="526" d="M291 -262v1896h39v-1896h-39z" />
<glyph unicode="}" horiz-adv-x="901" d="M-109 -287l5 43q104 8 180 35t123 62.5t80.5 97t50 117t35.5 143.5q41 203 109.5 286t193.5 95q-139 27 -140 143q0 53 33 162q41 137 41 229q0 119 -64.5 191t-203.5 108l14 39q154 -41 227.5 -120.5t73.5 -213.5q0 -88 -41 -239q-31 -119 -30 -160q0 -51 43 -86 t139 -35h61l-12 -41h-61q-145 0 -221 -80.5t-117 -285.5q-18 -92 -38 -154.5t-58 -128t-90 -105.5t-136 -68t-197 -34z" />
<glyph unicode="~" horiz-adv-x="901" d="M205 518l-25 10q70 172 172 172q55 0 131 -75q68 -68 111 -68q78 0 143 141l25 -10q-66 -172 -172 -172q-55 0 -131 76q-68 68 -111 67q-73 0 -143 -141z" />
<glyph unicode="&#xa1;" horiz-adv-x="397" d="M381 1327l29 107h73l-28 -107h-74zM39 0l59 221l238 838h20l-213 -838l-59 -221h-45z" />
<glyph unicode="&#xa2;" horiz-adv-x="1148" d="M449 221q-123 47 -201 153.5t-78 256.5q0 252 182.5 441.5t421.5 189.5q45 0 82 -7l76 191h41l-80 -199q184 -45 285 -227l-37 -21q-96 172 -260 211l-383 -964q59 -18 125 -19q205 0 370 158l27 -27q-178 -170 -399 -170q-74 0 -138 21l-88 -221h-39zM842 1219 q-37 4 -70 4q-223 0 -390 -177.5t-167 -412.5q0 -137 68.5 -234.5t179.5 -140.5z" />
<glyph unicode="&#xa3;" horiz-adv-x="1226" d="M-18 0l6 27l192 16l162 610h-186l12 41h186l72 262q66 246 186 367q131 131 306 131q121 0 215 -63.5t145 -169.5l-39 -21q-104 213 -326 213q-154 0 -268 -115q-113 -113 -178 -354l-68 -250h619l-12 -41h-619l-164 -612h768l-10 -41h-999z" />
<glyph unicode="&#xa4;" horiz-adv-x="1454" d="M788 -25q-211 0 -346 152t-135 405h-194l10 41h184q6 156 51 308h-153l10 41h158q86 240 260 388t397 148q166 0 284 -93t161 -230l-41 -17q-41 129 -147.5 214t-258.5 85q-209 0 -368.5 -136t-241.5 -359h676l-11 -41h-680q-47 -147 -53 -308h651l-10 -41h-641 q0 -233 123 -374.5t318 -141.5q246 0 438 224l33 -29q-200 -236 -474 -236z" />
<glyph unicode="&#xa5;" horiz-adv-x="1406" d="M537 0l65 246h-424l12 41h422l84 307h-422l13 41h397l-356 799h47l356 -795l774 795h58l-781 -799h392l-13 -41h-420l-82 -307h418l-12 -41h-418l-65 -246h-45z" />
<glyph unicode="&#xa7;" horiz-adv-x="1249" d="M588 -20q-137 0 -256 48t-193 115l33 31q166 -154 418 -154q129 0 209 54.5t80 140.5q0 63 -54.5 115.5t-117 80t-168.5 64.5l-104.5 39t-92.5 43t-80 53.5t-49 64.5t-20 83q0 111 115.5 180.5t322.5 52.5q-197 88 -197 226q0 102 93.5 169.5t242.5 67.5q137 0 256 -48 t193 -116l-33 -30q-166 154 -418 153q-129 0 -209 -54t-80 -140q0 -63 54.5 -115.5t117 -80.5t168.5 -65l104.5 -39t92.5 -42.5t79.5 -53t49 -64.5t20.5 -83q0 -111 -115.5 -180.5t-322.5 -53.5q197 -88 197 -225q0 -102 -93 -169.5t-243 -67.5zM786 475q160 0 247 57.5 t87 139.5q0 72 -65.5 128t-243.5 115q-127 43 -240 43q-160 0 -246.5 -57t-86.5 -139q0 -72 65.5 -128t243.5 -116q124 -43 239 -43z" />
<glyph unicode="&#xa8;" horiz-adv-x="1024" d="M813 1257l29 107h73l-28 -107h-74zM530 1257l29 107h74l-29 -107h-74z" />
<glyph unicode="&#xa9;" horiz-adv-x="1697" d="M903 -25q-307 0 -524 217.5t-217 524.5t217 524t524 217t524.5 -217t217.5 -524t-217.5 -524.5t-524.5 -217.5zM903 10q291 0 498 207t207 500t-207 499.5t-498 206.5t-497.5 -206.5t-206.5 -499.5t206.5 -500t497.5 -207zM918 336q-160 0 -265.5 112.5t-105.5 276.5 t106.5 277.5t266.5 113.5q164 0 288 -121l-28 -28q-113 113 -262 112q-141 0 -235.5 -103.5t-94.5 -248.5q0 -147 95 -250.5t237 -103.5q152 0 264 121l28 -27q-122 -131 -294 -131z" />
<glyph unicode="&#xaa;" horiz-adv-x="860" d="M473 848q-72 0 -127 42t-55 114q0 92 70.5 146t185.5 54t233 -35l6 23q8 31 9 63q0 147 -195 148q-70 0 -160 -29l-6 33q84 31 172 31q102 0 165 -46t63 -132q0 -29 -11 -74l-88 -326h-37l33 127q-88 -139 -258 -139zM180 651l8 31h506l-8 -31h-506zM479 883 q102 0 178 58t103 151l12 45q-111 35 -231 34q-98 0 -153.5 -43t-55.5 -120q0 -61 42 -93t105 -32z" />
<glyph unicode="&#xab;" horiz-adv-x="946" d="M680 96l-246 420l2 12l469 416l25 -20l-447 -408l226 -403zM332 96l-246 420l2 12l469 416l25 -20l-447 -408l225 -403z" />
<glyph unicode="&#xad;" horiz-adv-x="794" d="M160 588l12 43h508l-12 -43h-508z" />
<glyph unicode="&#xae;" horiz-adv-x="1697" d="M903 -25q-307 0 -524 217.5t-217 524.5t217 524t524 217t524.5 -217t217.5 -524t-217.5 -524.5t-524.5 -217.5zM903 10q291 0 498 207t207 500t-207 499.5t-498 206.5t-497.5 -206.5t-206.5 -499.5t206.5 -500t497.5 -207zM637 362v750h311q125 0 197 -56.5t72 -154.5 q0 -94 -60.5 -149.5t-169.5 -67.5l248 -322h-49l-244 318h-264v-318h-41zM678 717h264q111 0 173.5 49t62.5 133q0 82 -62.5 129t-171.5 47h-266v-358z" />
<glyph unicode="&#xaf;" horiz-adv-x="1024" d="M436 1272l10 39h553l-10 -39h-553z" />
<glyph unicode="&#xb0;" horiz-adv-x="880" d="M504 850q-109 0 -178.5 70.5t-69.5 177.5q0 135 97.5 240.5t232.5 105.5q109 0 178.5 -70.5t69.5 -175.5q0 -137 -97.5 -242.5t-232.5 -105.5zM504 889q119 0 203 94t84 215q0 88 -57.5 147.5t-147.5 59.5q-117 0 -201 -93t-84 -214q0 -90 56.5 -149.5t146.5 -59.5z" />
<glyph unicode="&#xb1;" horiz-adv-x="1163" d="M489 -25q-150 0 -284.5 64.5t-210.5 183.5l39 23q72 -115 196.5 -172.5t262.5 -57.5q213 0 343 111t130 258q0 145 -107.5 232.5t-279.5 87.5h-160l10 40h162q217 0 368.5 104.5t151.5 268.5q0 131 -108.5 215t-278.5 84q-233 0 -414 -164l-28 33q188 172 442 172 q193 0 312.5 -96t119.5 -242q0 -168 -127 -269t-315 -128q141 -31 219 -122t78 -214q0 -168 -144 -290t-377 -122z" />
<glyph unicode="&#xb2;" horiz-adv-x="1144" d="M-43 0l6 27l879 692q152 121 213 208t61 191q0 125 -97 210t-267 85q-236 0 -433 -223l-30 27q207 238 465 237q190 0 298.5 -97t108.5 -237q0 -115 -65.5 -210t-229.5 -224l-823 -645h895l-10 -41h-971z" />
<glyph unicode="&#xb3;" horiz-adv-x="1136" d="M463 -23q-170 0 -293 71t-184 194l39 18q127 -242 440 -242q213 0 359.5 112t146.5 294q0 137 -117 221t-348 84h-49l-11 29l711 635h-813l12 41h877l-10 -33l-707 -633q238 -2 369 -94t131 -248q0 -201 -160 -325t-393 -124z" />
<glyph unicode="&#xb4;" horiz-adv-x="1024" d="M549 1219l264 254l49 -25l-280 -229h-33z" />
<glyph unicode="&#xb5;" d="M1430 -18l-146 161q-211 -168 -471 -168q-270 0 -442 178.5t-172 442.5q0 221 107.5 418.5t297 320.5t408.5 123q270 0 442 -178t172 -442q0 -190 -83 -366.5t-226 -301.5l143 -162zM815 16q244 0 442 156l-264 297l33 27l264 -297q135 117 213 285.5t78 351.5 q0 248 -159.5 414.5t-411.5 166.5q-211 0 -388.5 -115.5t-277.5 -304t-100 -399.5q0 -248 159.5 -415t411.5 -167z" />
<glyph unicode="&#xb6;" horiz-adv-x="937" d="M541 0l151 567q-233 0 -348 104.5t-115 274.5q0 225 174.5 356.5t468.5 131.5h99l-385 -1434h-45z" />
<glyph unicode="&#xb7;" horiz-adv-x="335" d="M139 545l29 106h74l-29 -106h-74z" />
<glyph unicode="&#xb8;" horiz-adv-x="1024" d="M211 -289l-39 23l252 276h29z" />
<glyph unicode="&#xb9;" horiz-adv-x="641" d="M209 0l373 1393l-301 -123l-9 41l330 133h37l-387 -1444h-43z" />
<glyph unicode="&#xba;" horiz-adv-x="860" d="M551 848q-109 0 -180.5 71.5t-71.5 182.5q0 133 100.5 237.5t241.5 104.5q109 0 180.5 -72t71.5 -182q0 -133 -100.5 -237.5t-241.5 -104.5zM180 651l8 31h568l-8 -31h-568zM555 885q121 0 209 93t88 210q0 98 -59.5 158.5t-155.5 60.5q-121 0 -209 -93t-88 -210 q0 -98 59.5 -158.5t155.5 -60.5z" />
<glyph unicode="&#xbb;" horiz-adv-x="946" d="M387 96l-25 21l447 407l-225 404l28 16l246 -420l-2 -12zM39 96l-25 21l447 407l-225 404l28 16l246 -420l-2 -12z" />
<glyph unicode="&#xbc;" horiz-adv-x="2772" d="M2293 0l101 375h-844l-6 26l1141 1043h36l-274 -1028h236l-11 -41h-235l-101 -375h-43zM1618 416h786l256 956zM375 -201l1433 1755h47l-1433 -1755h-47zM209 0l373 1393l-301 -123l-9 41l330 133h37l-387 -1444h-43z" />
<glyph unicode="&#xbd;" horiz-adv-x="2652" d="M1464 0l6 27l879 692q152 121 213 208t61 191q0 125 -97 210t-267 85q-236 0 -433 -223l-30 27q207 238 465 237q190 0 298.5 -97t108.5 -237q0 -115 -65.5 -210t-229.5 -224l-823 -645h895l-10 -41h-971zM375 -201l1433 1755h47l-1433 -1755h-47zM209 0l373 1393 l-301 -123l-9 41l330 133h37l-387 -1444h-43z" />
<glyph unicode="&#xbe;" horiz-adv-x="3268" d="M2789 0l101 375h-844l-6 26l1141 1043h36l-274 -1028h236l-11 -41h-235l-101 -375h-43zM2114 416h786l256 956zM871 -201l1433 1755h47l-1433 -1755h-47zM463 -23q-170 0 -293 71t-184 194l39 18q127 -242 440 -242q213 0 359.5 112t146.5 294q0 137 -117 221t-348 84 h-49l-11 29l711 635h-813l12 41h877l-10 -33l-707 -633q238 -2 369 -94t131 -248q0 -201 -160 -325t-393 -124z" />
<glyph unicode="&#xbf;" horiz-adv-x="1026" d="M752 1327l28 107h74l-29 -107h-73zM465 -18q-188 0 -297 99t-109 247q0 190 156 299.5t397 140.5l95 291h20l-72 -322l-6 -6q-236 -23 -390.5 -123t-154.5 -278q0 -133 96.5 -220t266.5 -87q233 0 432 194l29 -29q-211 -206 -463 -206z" />
<glyph unicode="&#xc0;" horiz-adv-x="1570" d="M-51 0l1077 1444h39l297 -1444h-43l-88 430h-912l-319 -430h-51zM350 471h873l-189 915zM1096 1567l-158 229l53 25l129 -254h-24z" />
<glyph unicode="&#xc1;" horiz-adv-x="1570" d="M-51 0l1077 1444h39l297 -1444h-43l-88 430h-912l-319 -430h-51zM350 471h873l-189 915zM1034 1567l264 254l50 -25l-281 -229h-33z" />
<glyph unicode="&#xc2;" horiz-adv-x="1570" d="M-51 0l1077 1444h39l297 -1444h-43l-88 430h-912l-319 -430h-51zM350 471h873l-189 915zM840 1567l284 250h25l149 -250h-30l-142 196l-245 -196h-41z" />
<glyph unicode="&#xc3;" horiz-adv-x="1570" d="M-51 0l1077 1444h39l297 -1444h-43l-88 430h-912l-319 -430h-51zM350 471h873l-189 915zM834 1579l-25 10q70 172 172 172q55 0 131 -75q68 -68 111 -68q78 0 143 141l25 -10q-66 -172 -172 -172q-55 0 -132 76q-68 68 -110 67q-71 0 -143 -141z" />
<glyph unicode="&#xc4;" horiz-adv-x="1570" d="M-51 0l1077 1444h39l297 -1444h-43l-88 430h-912l-319 -430h-51zM350 471h873l-189 915zM1198 1606l29 106h73l-28 -106h-74zM915 1606l29 106h74l-29 -106h-74z" />
<glyph unicode="&#xc5;" horiz-adv-x="1570" d="M-51 0l1046 1403q-53 16 -84.5 59t-31.5 101q0 86 66.5 146t148.5 60t132 -47t50 -123q0 -82 -60.5 -141t-140.5 -65l287 -1393h-43l-88 430h-912l-319 -430h-51zM1062.5 1425q67.5 0 122 50.5t54.5 121.5q0 63 -40 101.5t-107.5 38.5t-122 -50.5t-54.5 -121.5 q0 -63 40 -101.5t107.5 -38.5zM350 471h873l-189 915z" />
<glyph unicode="&#xc6;" horiz-adv-x="2095" d="M-119 0l1303 1434h1020l-13 -41h-923l-176 -652h837l-10 -41h-838l-178 -659h936l-10 -41h-981l115 430h-637l-392 -430h-53zM362 471h613l248 922h-23z" />
<glyph unicode="&#xc7;" horiz-adv-x="1486" d="M743 -25l-213 -264l-38 23l221 243q-223 14 -373 170t-150 404q0 233 112 442t310.5 337t431.5 128q174 0 309.5 -83t202.5 -228l-38 -17q-63 129 -186.5 208t-287.5 79q-223 0 -410.5 -123t-292.5 -321.5t-105 -421.5q0 -244 150.5 -389.5t375.5 -145.5q309 0 541 236 l28 -29q-248 -248 -573 -248h-15z" />
<glyph unicode="&#xc8;" horiz-adv-x="1353" d="M76 0l385 1434h1001l-12 -41h-954l-177 -652h869l-10 -41h-869l-178 -659h967l-11 -41h-1011zM1016 1567l-158 229l53 25l129 -254h-24z" />
<glyph unicode="&#xc9;" horiz-adv-x="1353" d="M76 0l385 1434h1001l-12 -41h-954l-177 -652h869l-10 -41h-869l-178 -659h967l-11 -41h-1011zM879 1567l264 254l49 -25l-281 -229h-32z" />
<glyph unicode="&#xca;" horiz-adv-x="1353" d="M76 0l385 1434h1001l-12 -41h-954l-177 -652h869l-10 -41h-869l-178 -659h967l-11 -41h-1011zM743 1567l285 250h25l149 -250h-31l-141 196l-246 -196h-41z" />
<glyph unicode="&#xcb;" horiz-adv-x="1353" d="M76 0l385 1434h1001l-12 -41h-954l-177 -652h869l-10 -41h-869l-178 -659h967l-11 -41h-1011zM1100 1606l28 106h74l-28 -106h-74zM817 1606l29 106h74l-29 -106h-74z" />
<glyph unicode="&#xcc;" horiz-adv-x="499" d="M88 0l385 1434h45l-385 -1434h-45zM543 1567l-158 229l53 25l129 -254h-24z" />
<glyph unicode="&#xcd;" horiz-adv-x="499" d="M88 0l385 1434h45l-385 -1434h-45zM473 1567l264 254l49 -25l-280 -229h-33z" />
<glyph unicode="&#xce;" horiz-adv-x="499" d="M88 0l385 1434h45l-385 -1434h-45zM289 1567l284 250h25l150 -250h-31l-142 196l-245 -196h-41z" />
<glyph unicode="&#xcf;" horiz-adv-x="499" d="M88 0l385 1434h45l-385 -1434h-45zM649 1606l29 106h74l-29 -106h-74zM367 1606l28 106h74l-29 -106h-73z" />
<glyph unicode="&#xd0;" horiz-adv-x="1562" d="M76 0l188 700h-158l11 41h157l187 693h287q381 0 577 -197q156 -156 156 -406q0 -338 -226 -563q-268 -268 -731 -268h-448zM131 41h401q434 0 691 256q213 213 213 532q0 236 -144 379q-182 184 -532 185h-266l-175 -652h512l-10 -41h-514z" />
<glyph unicode="&#xd1;" horiz-adv-x="1601" d="M76 0l385 1434h41l721 -1373l368 1373h43l-385 -1434h-41l-721 1372l-368 -1372h-43zM809 1579l-25 10q70 172 172 172q55 0 131 -75q68 -68 111 -68q78 0 143 141l25 -10q-66 -172 -172 -172q-55 0 -131 76q-68 68 -111 67q-71 0 -143 -141z" />
<glyph unicode="&#xd2;" d="M813 -25q-270 0 -442 178.5t-172 442.5q0 221 107.5 418.5t297 320.5t408.5 123q270 0 442 -178t172 -442q0 -221 -107.5 -419t-297 -321t-408.5 -123zM815 16q211 0 388 116t277.5 304.5t100.5 399.5q0 248 -159.5 414.5t-411.5 166.5q-211 0 -388.5 -115.5t-277.5 -304 t-100 -399.5q0 -248 159.5 -415t411.5 -167zM1133 1567l-158 229l53 25l129 -254h-24z" />
<glyph unicode="&#xd3;" d="M813 -25q-270 0 -442 178.5t-172 442.5q0 221 107.5 418.5t297 320.5t408.5 123q270 0 442 -178t172 -442q0 -221 -107.5 -419t-297 -321t-408.5 -123zM815 16q211 0 388 116t277.5 304.5t100.5 399.5q0 248 -159.5 414.5t-411.5 166.5q-211 0 -388.5 -115.5t-277.5 -304 t-100 -399.5q0 -248 159.5 -415t411.5 -167zM991 1567l264 254l50 -25l-281 -229h-33z" />
<glyph unicode="&#xd4;" d="M813 -25q-270 0 -442 178.5t-172 442.5q0 221 107.5 418.5t297 320.5t408.5 123q270 0 442 -178t172 -442q0 -221 -107.5 -419t-297 -321t-408.5 -123zM815 16q211 0 388 116t277.5 304.5t100.5 399.5q0 248 -159.5 414.5t-411.5 166.5q-211 0 -388.5 -115.5t-277.5 -304 t-100 -399.5q0 -248 159.5 -415t411.5 -167zM868 1567l285 250h25l149 -250h-31l-141 196l-246 -196h-41z" />
<glyph unicode="&#xd5;" d="M813 -25q-270 0 -442 178.5t-172 442.5q0 221 107.5 418.5t297 320.5t408.5 123q270 0 442 -178t172 -442q0 -221 -107.5 -419t-297 -321t-408.5 -123zM815 16q211 0 388 116t277.5 304.5t100.5 399.5q0 248 -159.5 414.5t-411.5 166.5q-211 0 -388.5 -115.5t-277.5 -304 t-100 -399.5q0 -248 159.5 -415t411.5 -167zM831 1579l-24 10q70 172 172 172q55 0 131 -75q68 -68 111 -68q78 0 143 141l25 -10q-66 -172 -172 -172q-55 0 -132 76q-68 68 -110 67q-74 0 -144 -141z" />
<glyph unicode="&#xd6;" d="M813 -25q-270 0 -442 178.5t-172 442.5q0 221 107.5 418.5t297 320.5t408.5 123q270 0 442 -178t172 -442q0 -221 -107.5 -419t-297 -321t-408.5 -123zM815 16q211 0 388 116t277.5 304.5t100.5 399.5q0 248 -159.5 414.5t-411.5 166.5q-211 0 -388.5 -115.5t-277.5 -304 t-100 -399.5q0 -248 159.5 -415t411.5 -167zM1206 1606l29 106h74l-29 -106h-74zM924 1606l28 106h74l-29 -106h-73z" />
<glyph unicode="&#xd8;" d="M809 -25q-307 0 -485 228l-254 -213h-58l291 243q-109 156 -108 363q0 221 107.5 418.5t296.5 320.5t409 123q309 0 485 -229l256 215h57l-293 -244q109 -156 109 -362q0 -221 -107.5 -419t-297 -321t-408.5 -123zM334 260l1128 944q-164 213 -456 213 q-211 0 -388.5 -115.5t-277.5 -304t-100 -399.5q0 -193 94 -338zM811 16q211 0 388 116t277.5 304.5t100.5 399.5q0 190 -94 338l-1127 -945q164 -213 455 -213z" />
<glyph unicode="&#xd9;" horiz-adv-x="1540" d="M705 -23q-223 0 -363.5 116t-140.5 343q0 109 37 250l200 748h45l-202 -754q-35 -133 -35 -240q0 -209 126 -315.5t335 -106.5q240 0 403 164q141 141 225 451l215 801h45l-219 -813q-86 -317 -235 -467q-176 -177 -436 -177zM1047 1567l-158 229l53 25l129 -254h-24z " />
<glyph unicode="&#xda;" horiz-adv-x="1540" d="M705 -23q-223 0 -363.5 116t-140.5 343q0 109 37 250l200 748h45l-202 -754q-35 -133 -35 -240q0 -209 126 -315.5t335 -106.5q240 0 403 164q141 141 225 451l215 801h45l-219 -813q-86 -317 -235 -467q-176 -177 -436 -177zM946 1567l264 254l50 -25l-281 -229h-33z " />
<glyph unicode="&#xdb;" horiz-adv-x="1540" d="M705 -23q-223 0 -363.5 116t-140.5 343q0 109 37 250l200 748h45l-202 -754q-35 -133 -35 -240q0 -209 126 -315.5t335 -106.5q240 0 403 164q141 141 225 451l215 801h45l-219 -813q-86 -317 -235 -467q-176 -177 -436 -177zM807 1567l285 250h24l150 -250h-31l-141 196 l-246 -196h-41z" />
<glyph unicode="&#xdc;" horiz-adv-x="1540" d="M705 -23q-223 0 -363.5 116t-140.5 343q0 109 37 250l200 748h45l-202 -754q-35 -133 -35 -240q0 -209 126 -315.5t335 -106.5q240 0 403 164q141 141 225 451l215 801h45l-219 -813q-86 -317 -235 -467q-176 -177 -436 -177zM1145 1585l29 107h73l-28 -107h-74z M862 1585l29 107h74l-29 -107h-74z" />
<glyph unicode="&#xdd;" horiz-adv-x="1359" d="M506 0l162 602l-377 832h47l360 -797l791 797h57l-835 -840l-160 -594h-45zM836 1567l264 254l49 -25l-281 -229h-32z" />
<glyph unicode="&#xde;" horiz-adv-x="1372" d="M76 0l385 1434h45l-74 -277h391q272 0 402 -129q94 -94 94 -254q0 -221 -180.5 -354t-493.5 -133h-446l-78 -287h-45zM209 328h438q293 0 460 125t167 319q0 143 -84 227q-117 117 -369 117h-401z" />
<glyph unicode="&#xdf;" horiz-adv-x="1169" d="M408 -4l10 41q252 -2 409.5 103.5t157.5 271.5q0 258 -383 329l10 35q483 82 484 412q0 121 -80 200.5t-217 79.5q-152 0 -263.5 -115.5t-162.5 -308.5l-279 -1044h-43l283 1055q57 209 174 325q127 127 289 127q152 0 249 -89t97 -230q0 -180 -125 -285.5t-322 -146.5 q334 -84 334 -344q0 -184 -171.5 -301t-450.5 -115z" />
<glyph unicode="&#xe0;" horiz-adv-x="1159" d="M381 -25q-131 0 -229.5 76t-98.5 205q0 168 126 262t335 94q231 0 434 -63l13 47q18 68 18 125q0 135 -100.5 206.5t-266.5 71.5q-141 0 -286 -51l-13 41q141 51 303 51q182 0 293 -80.5t111 -236.5q0 -59 -19 -133l-157 -590h-43l65 244q-68 -121 -190.5 -195 t-294.5 -74zM389 14q197 0 337 116t187 290l25 90q-203 61 -432 61q-186 0 -297 -82.5t-111 -226.5q0 -117 88 -182.5t203 -65.5zM768 1219l-158 229l54 25l129 -254h-25z" />
<glyph unicode="&#xe1;" horiz-adv-x="1159" d="M381 -25q-131 0 -229.5 76t-98.5 205q0 168 126 262t335 94q231 0 434 -63l13 47q18 68 18 125q0 135 -100.5 206.5t-266.5 71.5q-141 0 -286 -51l-13 41q141 51 303 51q182 0 293 -80.5t111 -236.5q0 -59 -19 -133l-157 -590h-43l65 244q-68 -121 -190.5 -195 t-294.5 -74zM389 14q197 0 337 116t187 290l25 90q-203 61 -432 61q-186 0 -297 -82.5t-111 -226.5q0 -117 88 -182.5t203 -65.5zM637 1219l264 254l49 -25l-280 -229h-33z" />
<glyph unicode="&#xe2;" horiz-adv-x="1159" d="M381 -25q-131 0 -229.5 76t-98.5 205q0 168 126 262t335 94q231 0 434 -63l13 47q18 68 18 125q0 135 -100.5 206.5t-266.5 71.5q-141 0 -286 -51l-13 41q141 51 303 51q182 0 293 -80.5t111 -236.5q0 -59 -19 -133l-157 -590h-43l65 244q-68 -121 -190.5 -195 t-294.5 -74zM389 14q197 0 337 116t187 290l25 90q-203 61 -432 61q-186 0 -297 -82.5t-111 -226.5q0 -117 88 -182.5t203 -65.5zM520 1219l285 249h24l150 -249h-31l-141 196l-246 -196h-41z" />
<glyph unicode="&#xe3;" horiz-adv-x="1159" d="M381 -25q-131 0 -229.5 76t-98.5 205q0 168 126 262t335 94q231 0 434 -63l13 47q18 68 18 125q0 135 -100.5 206.5t-266.5 71.5q-141 0 -286 -51l-13 41q141 51 303 51q182 0 293 -80.5t111 -236.5q0 -59 -19 -133l-157 -590h-43l65 244q-68 -121 -190.5 -195 t-294.5 -74zM389 14q197 0 337 116t187 290l25 90q-203 61 -432 61q-186 0 -297 -82.5t-111 -226.5q0 -117 88 -182.5t203 -65.5zM504 1231l-25 10q70 172 172 172q55 0 131 -76q68 -68 111 -67q78 0 143 141l25 -10q-66 -172 -172 -172q-55 0 -131 76q-68 68 -111 67 q-73 0 -143 -141z" />
<glyph unicode="&#xe4;" horiz-adv-x="1159" d="M381 -25q-131 0 -229.5 76t-98.5 205q0 168 126 262t335 94q231 0 434 -63l13 47q18 68 18 125q0 135 -100.5 206.5t-266.5 71.5q-141 0 -286 -51l-13 41q141 51 303 51q182 0 293 -80.5t111 -236.5q0 -59 -19 -133l-157 -590h-43l65 244q-68 -121 -190.5 -195 t-294.5 -74zM389 14q197 0 337 116t187 290l25 90q-203 61 -432 61q-186 0 -297 -82.5t-111 -226.5q0 -117 88 -182.5t203 -65.5zM856 1257l29 107h73l-28 -107h-74zM573 1257l29 107h74l-29 -107h-74z" />
<glyph unicode="&#xe5;" horiz-adv-x="1159" d="M381 -25q-131 0 -229.5 76t-98.5 205q0 168 126 262t335 94q231 0 434 -63l13 47q18 68 18 125q0 135 -100.5 206.5t-266.5 71.5q-141 0 -286 -51l-13 41q141 51 303 51q182 0 293 -80.5t111 -236.5q0 -59 -19 -133l-157 -590h-43l65 244q-68 -121 -190.5 -195 t-294.5 -74zM389 14q197 0 337 116t187 290l25 90q-203 61 -432 61q-186 0 -297 -82.5t-111 -226.5q0 -117 88 -182.5t203 -65.5zM776 1219q-82 0 -132 47t-50 123q0 86 66.5 146t148.5 60t132 -47t50 -123q0 -86 -66.5 -146t-148.5 -60zM778.5 1251q67.5 0 121.5 50.5 t54 121.5q0 63 -40 101.5t-107.5 38.5t-121.5 -50.5t-54 -121.5q0 -63 40 -101.5t107.5 -38.5z" />
<glyph unicode="&#xe6;" horiz-adv-x="2023" d="M946 262q-221 -287 -551 -287q-139 0 -240.5 76t-101.5 205q0 168 126 262t335 94q231 0 434 -63l13 47q18 68 18 125q0 135 -100.5 206.5t-266.5 71.5q-141 0 -286 -51l-13 41q141 51 303 51q182 0 291 -79.5t109 -235.5q78 145 212 234.5t288 89.5q201 0 300 -117 t99 -285q0 -74 -23 -147h-915q-8 -41 -8 -94q0 -178 110.5 -284t300.5 -106q207 0 379 146l27 -31q-182 -156 -406 -156q-168 0 -280.5 76t-153.5 211zM983 539h875q12 74 12 110q0 152 -88 255.5t-266 103.5q-188 0 -338 -136t-195 -333zM936 510q-203 61 -430 61 q-186 0 -297 -82.5t-111 -226.5q0 -119 90.5 -183.5t210.5 -64.5q152 0 297.5 78t239.5 213q-8 41 -8 96q0 62 8 109z" />
<glyph unicode="&#xe7;" horiz-adv-x="1130" d="M492 -20q-162 20 -278 138t-116 300q0 254 181.5 442.5t422.5 188.5q145 0 248 -70t156 -172l-37 -21q-117 221 -369 222q-223 0 -390 -176.5t-167 -411.5q0 -184 122 -294t286 -110q195 0 369 156l28 -27q-188 -170 -399 -170h-27l-215 -264l-39 23z" />
<glyph unicode="&#xe8;" horiz-adv-x="1200" d="M154 500q-8 -41 -9 -94q0 -178 111 -284t301 -106q207 0 379 146l27 -31q-182 -156 -406 -156q-209 0 -333 116t-124 310q0 256 176.5 452t415.5 196q201 0 300.5 -117t99.5 -285q-4 -84 -23 -147h-915zM160 539h874q12 74 13 110q0 152 -88.5 255.5t-266.5 103.5 q-188 0 -337.5 -136t-194.5 -333zM778 1219l-157 229l53 25l129 -254h-25z" />
<glyph unicode="&#xe9;" horiz-adv-x="1200" d="M154 500q-8 -41 -9 -94q0 -178 111 -284t301 -106q207 0 379 146l27 -31q-182 -156 -406 -156q-209 0 -333 116t-124 310q0 256 176.5 452t415.5 196q201 0 300.5 -117t99.5 -285q-4 -84 -23 -147h-915zM160 539h874q12 74 13 110q0 152 -88.5 255.5t-266.5 103.5 q-188 0 -337.5 -136t-194.5 -333zM668 1219l264 254l49 -25l-281 -229h-32z" />
<glyph unicode="&#xea;" horiz-adv-x="1200" d="M154 500q-8 -41 -9 -94q0 -178 111 -284t301 -106q207 0 379 146l27 -31q-182 -156 -406 -156q-209 0 -333 116t-124 310q0 256 176.5 452t415.5 196q201 0 300.5 -117t99.5 -285q-4 -84 -23 -147h-915zM160 539h874q12 74 13 110q0 152 -88.5 255.5t-266.5 103.5 q-188 0 -337.5 -136t-194.5 -333zM512 1219l285 249h24l150 -249h-31l-141 196l-246 -196h-41z" />
<glyph unicode="&#xeb;" horiz-adv-x="1200" d="M154 500q-8 -41 -9 -94q0 -178 111 -284t301 -106q207 0 379 146l27 -31q-182 -156 -406 -156q-209 0 -333 116t-124 310q0 256 176.5 452t415.5 196q201 0 300.5 -117t99.5 -285q-4 -84 -23 -147h-915zM160 539h874q12 74 13 110q0 152 -88.5 255.5t-266.5 103.5 q-188 0 -337.5 -136t-194.5 -333zM864 1257l29 107h74l-29 -107h-74zM582 1257l28 107h74l-29 -107h-73z" />
<glyph unicode="&#xec;" horiz-adv-x="450" d="M63 0l275 1024h43l-275 -1024h-43zM369 1219l-158 229l53 25l129 -254h-24z" />
<glyph unicode="&#xed;" horiz-adv-x="450" d="M63 0l275 1024h43l-275 -1024h-43zM371 1219l264 254l49 -25l-281 -229h-32z" />
<glyph unicode="&#xee;" horiz-adv-x="450" d="M63 0l275 1024h43l-275 -1024h-43zM168 1219l285 249h24l150 -249h-31l-141 196l-246 -196h-41z" />
<glyph unicode="&#xef;" horiz-adv-x="450" d="M63 0l275 1024h43l-275 -1024h-43zM518 1257l29 107h74l-29 -107h-74zM236 1257l28 107h74l-29 -107h-73z" />
<glyph unicode="&#xf0;" horiz-adv-x="1241" d="M557 -25q-193 0 -323 122t-130 306q0 221 166 399.5t402 178.5q254 0 383 -184l-221 532l-340 -160l-17 35l342 160l-53 131h53l45 -111l250 119l16 -35l-251 -118l196 -482q61 -152 62 -313q0 -221 -168 -400.5t-412 -179.5zM559 16q223 0 378 164t155 369 q0 170 -118 280.5t-304 110.5q-215 0 -367.5 -164t-152.5 -366q0 -168 115.5 -281t293.5 -113z" />
<glyph unicode="&#xf1;" horiz-adv-x="1239" d="M51 0l275 1024h43l-72 -264q63 123 179 206t274 83q170 0 259 -90.5t89 -243.5q0 -78 -27 -180l-143 -535h-43l143 535q25 92 25 176q0 137 -76 217t-232 80q-164 0 -305 -120t-194 -323l-152 -565h-43zM535 1231l-25 10q70 172 172 172q55 0 131 -76q68 -68 111 -67 q78 0 143 141l25 -10q-66 -172 -172 -172q-55 0 -132 76q-68 68 -110 67q-71 0 -143 -141z" />
<glyph unicode="&#xf2;" horiz-adv-x="1271" d="M569 -25q-203 0 -336 130.5t-133 326.5q0 236 172 426.5t430 190.5q203 0 336 -130.5t133 -326.5q0 -236 -172 -426.5t-430 -190.5zM571 16q236 0 395.5 175.5t159.5 394.5q0 180 -118.5 301t-307.5 121q-236 0 -395.5 -175.5t-159.5 -394.5q0 -180 119 -301t307 -121z M795 1219l-158 229l53 25l129 -254h-24z" />
<glyph unicode="&#xf3;" horiz-adv-x="1271" d="M569 -25q-203 0 -336 130.5t-133 326.5q0 236 172 426.5t430 190.5q203 0 336 -130.5t133 -326.5q0 -236 -172 -426.5t-430 -190.5zM571 16q236 0 395.5 175.5t159.5 394.5q0 180 -118.5 301t-307.5 121q-236 0 -395.5 -175.5t-159.5 -394.5q0 -180 119 -301t307 -121z M686 1219l264 254l49 -25l-280 -229h-33z" />
<glyph unicode="&#xf4;" horiz-adv-x="1271" d="M569 -25q-203 0 -336 130.5t-133 326.5q0 236 172 426.5t430 190.5q203 0 336 -130.5t133 -326.5q0 -236 -172 -426.5t-430 -190.5zM571 16q236 0 395.5 175.5t159.5 394.5q0 180 -118.5 301t-307.5 121q-236 0 -395.5 -175.5t-159.5 -394.5q0 -180 119 -301t307 -121z M578 1219l284 249h25l149 -249h-30l-142 196l-246 -196h-40z" />
<glyph unicode="&#xf5;" horiz-adv-x="1271" d="M569 -25q-203 0 -336 130.5t-133 326.5q0 236 172 426.5t430 190.5q203 0 336 -130.5t133 -326.5q0 -236 -172 -426.5t-430 -190.5zM571 16q236 0 395.5 175.5t159.5 394.5q0 180 -118.5 301t-307.5 121q-236 0 -395.5 -175.5t-159.5 -394.5q0 -180 119 -301t307 -121z M567 1231l-24 10q70 172 172 172q55 0 131 -76q68 -68 110 -67q78 0 144 141l24 -10q-66 -172 -172 -172q-55 0 -131 76q-68 68 -110 67q-72 0 -144 -141z" />
<glyph unicode="&#xf6;" horiz-adv-x="1271" d="M569 -25q-203 0 -336 130.5t-133 326.5q0 236 172 426.5t430 190.5q203 0 336 -130.5t133 -326.5q0 -236 -172 -426.5t-430 -190.5zM571 16q236 0 395.5 175.5t159.5 394.5q0 180 -118.5 301t-307.5 121q-236 0 -395.5 -175.5t-159.5 -394.5q0 -180 119 -301t307 -121z M893 1257l29 107h73l-28 -107h-74zM610 1257l29 107h74l-29 -107h-74z" />
<glyph unicode="&#xf8;" horiz-adv-x="1271" d="M569 -25q-227 0 -362 158l-176 -143h-56l209 172q-84 117 -84 270q0 236 172 426.5t430 190.5q231 0 367 -162l207 172h55l-241 -199q82 -113 81 -268q0 -236 -172 -426.5t-430 -190.5zM217 188l819 672q-121 147 -336 148q-236 0 -395.5 -175.5t-159.5 -394.5 q0 -144 72 -250zM571 16q236 0 395.5 175.5t159.5 394.5q0 145 -69 248l-817 -672q116 -146 331 -146z" />
<glyph unicode="&#xf9;" horiz-adv-x="1239" d="M489 -25q-170 0 -259 90.5t-89 243.5q0 78 27 180l143 535h43l-143 -535q-25 -92 -25 -176q0 -137 76 -217t232 -80q164 0 305 120t194 323l152 565h43l-275 -1024h-43l72 264q-63 -123 -179 -206t-274 -83zM780 1219l-157 229l53 25l129 -254h-25z" />
<glyph unicode="&#xfa;" horiz-adv-x="1239" d="M489 -25q-170 0 -259 90.5t-89 243.5q0 78 27 180l143 535h43l-143 -535q-25 -92 -25 -176q0 -137 76 -217t232 -80q164 0 305 120t194 323l152 565h43l-275 -1024h-43l72 264q-63 -123 -179 -206t-274 -83zM717 1219l264 254l49 -25l-280 -229h-33z" />
<glyph unicode="&#xfb;" horiz-adv-x="1239" d="M489 -25q-170 0 -259 90.5t-89 243.5q0 78 27 180l143 535h43l-143 -535q-25 -92 -25 -176q0 -137 76 -217t232 -80q164 0 305 120t194 323l152 565h43l-275 -1024h-43l72 264q-63 -123 -179 -206t-274 -83zM561 1219l285 249h24l150 -249h-31l-141 196l-246 -196h-41z " />
<glyph unicode="&#xfc;" horiz-adv-x="1239" d="M489 -25q-170 0 -259 90.5t-89 243.5q0 78 27 180l143 535h43l-143 -535q-25 -92 -25 -176q0 -137 76 -217t232 -80q164 0 305 120t194 323l152 565h43l-275 -1024h-43l72 264q-63 -123 -179 -206t-274 -83zM901 1247l29 107h74l-29 -107h-74zM618 1247l29 107h74 l-29 -107h-74z" />
<glyph unicode="&#xfd;" horiz-adv-x="1173" d="M61 -334q-121 0 -196 55l22 33q78 -51 174 -51q84 0 169 59.5t206 229.5l-227 1032h45l213 -993l692 993h49l-727 -1034q-139 -199 -229.5 -261.5t-190.5 -62.5zM657 1219l265 254l49 -25l-281 -229h-33z" />
<glyph unicode="&#xfe;" horiz-adv-x="1331" d="M-37 -328l490 1823h43l-197 -729q47 96 188.5 189.5t305.5 93.5q184 0 304 -126t120 -311q0 -156 -70 -300t-206 -240.5t-302 -96.5q-195 0 -312.5 112t-138.5 261l-182 -676h-43zM637 16q154 0 279.5 90.5t190 224.5t64.5 275q0 172 -107.5 287t-272.5 115 q-121 0 -230.5 -56.5t-182.5 -141.5t-116 -182.5t-43 -185.5q0 -186 115 -306t303 -120z" />
<glyph unicode="&#xff;" horiz-adv-x="1173" d="M61 -334q-121 0 -196 55l22 33q78 -51 174 -51q84 0 169 59.5t206 229.5l-227 1032h45l213 -993l692 993h49l-727 -1034q-139 -199 -229.5 -261.5t-190.5 -62.5zM858 1247l29 107h74l-29 -107h-74zM575 1247l29 107h74l-29 -107h-74z" />
<glyph unicode="&#x152;" horiz-adv-x="2385" d="M924 0q-381 0 -578 197q-156 156 -156 405q0 338 226 563q268 268 731 269h1347l-12 -41h-923l-177 -652h838l-10 -41h-838l-178 -659h936l-10 -41h-1196zM911 41h240l362 1352h-374q-434 0 -690 -256q-213 -213 -213 -533q0 -233 145 -379q180 -184 530 -184z" />
<glyph unicode="&#x153;" horiz-adv-x="2205" d="M1159 500q-8 -41 -8 -94q0 -178 110.5 -284t301.5 -106q207 0 379 146l26 -31q-182 -156 -405 -156q-193 0 -313 101.5t-136 273.5q-70 -162 -218 -268.5t-337 -106.5q-203 0 -331 129t-128 328q0 236 172 426.5t430 190.5q186 0 312.5 -110t146.5 -284q72 172 217.5 283 t319.5 111q201 0 300 -117t99 -285q-4 -84 -22 -147h-916zM1165 539h875q12 74 12 110q0 152 -88 255.5t-266 103.5q-188 0 -338 -136t-195 -333zM561 16q236 0 400.5 176.5t164.5 393.5q0 180 -118.5 301t-307.5 121q-236 0 -395.5 -175.5t-159.5 -394.5q0 -182 114 -302 t302 -120z" />
<glyph unicode="&#x178;" horiz-adv-x="1359" d="M508 0l162 602l-377 832h47l360 -797l791 797h57l-835 -840l-160 -594h-45zM1042 1585l29 107h74l-29 -107h-74zM760 1585l28 107h74l-28 -107h-74z" />
<glyph unicode="&#x2c6;" horiz-adv-x="1024" d="M471 1219l285 249h24l150 -249h-31l-141 196l-246 -196h-41z" />
<glyph unicode="&#x2dc;" horiz-adv-x="1024" d="M457 1231l-25 10q70 172 172 172q55 0 131 -76q68 -68 111 -67q78 0 143 141l25 -10q-66 -172 -172 -172q-55 0 -131 76q-68 68 -111 67q-71 0 -143 -141z" />
<glyph unicode="&#x3bc;" d="M1430 -18l-146 161q-211 -168 -471 -168q-270 0 -442 178.5t-172 442.5q0 221 107.5 418.5t297 320.5t408.5 123q270 0 442 -178t172 -442q0 -190 -83 -366.5t-226 -301.5l143 -162zM815 16q244 0 442 156l-264 297l33 27l264 -297q135 117 213 285.5t78 351.5 q0 248 -159.5 414.5t-411.5 166.5q-211 0 -388.5 -115.5t-277.5 -304t-100 -399.5q0 -248 159.5 -415t411.5 -167z" />
<glyph unicode="&#x2000;" horiz-adv-x="909" />
<glyph unicode="&#x2001;" horiz-adv-x="1820" />
<glyph unicode="&#x2002;" horiz-adv-x="909" />
<glyph unicode="&#x2003;" horiz-adv-x="1820" />
<glyph unicode="&#x2004;" horiz-adv-x="606" />
<glyph unicode="&#x2005;" horiz-adv-x="454" />
<glyph unicode="&#x2006;" horiz-adv-x="303" />
<glyph unicode="&#x2007;" horiz-adv-x="303" />
<glyph unicode="&#x2008;" horiz-adv-x="227" />
<glyph unicode="&#x2009;" horiz-adv-x="362" />
<glyph unicode="&#x200a;" horiz-adv-x="100" />
<glyph unicode="&#x2010;" horiz-adv-x="794" d="M160 588l12 43h508l-12 -43h-508z" />
<glyph unicode="&#x2011;" horiz-adv-x="794" d="M160 588l12 43h508l-12 -43h-508z" />
<glyph unicode="&#x2012;" horiz-adv-x="794" d="M160 588l12 43h508l-12 -43h-508z" />
<glyph unicode="&#x2013;" horiz-adv-x="1101" d="M160 588l10 41h815l-10 -41h-815z" />
<glyph unicode="&#x2014;" horiz-adv-x="1830" d="M160 588l10 41h1544l-10 -41h-1544z" />
<glyph unicode="&#x2018;" horiz-adv-x="335" d="M301 1167l25 95q23 86 50 124.5t73 49.5l8 -25q-59 -14 -90 -137h36l-28 -107h-74z" />
<glyph unicode="&#x2019;" horiz-adv-x="335" d="M303 1165l-8 25q59 14 90 137h-37l29 107h74l-25 -95q-23 -86 -50.5 -125t-72.5 -49z" />
<glyph unicode="&#x201a;" horiz-adv-x="335" d="M-51 -162l-8 25q59 14 90 137h-37l29 106h73l-24 -94q-23 -86 -50.5 -125t-72.5 -49z" />
<glyph unicode="&#x201c;" horiz-adv-x="520" d="M485 1167l25 95q23 86 50.5 124.5t72.5 49.5l8 -25q-59 -14 -90 -137h37l-29 -107h-74zM301 1167l25 95q23 86 50 124.5t73 49.5l8 -25q-59 -14 -90 -137h36l-28 -107h-74z" />
<glyph unicode="&#x201d;" horiz-adv-x="520" d="M487 1165l-8 25q59 14 90 137h-37l29 107h74l-25 -95q-23 -86 -50.5 -125t-72.5 -49zM303 1165l-8 25q59 14 90 137h-37l29 107h74l-25 -95q-23 -86 -50.5 -125t-72.5 -49z" />
<glyph unicode="&#x201e;" horiz-adv-x="520" d="M133 -162l-8 25q59 14 90 137h-37l29 106h74l-25 -94q-23 -86 -50.5 -125t-72.5 -49zM-51 -162l-8 25q59 14 90 137h-37l29 106h73l-24 -94q-23 -86 -50.5 -125t-72.5 -49z" />
<glyph unicode="&#x2022;" horiz-adv-x="882" d="M461 498q-80 0 -130 51t-50 135q0 104 72.5 182t172.5 78q80 0 130.5 -51t50.5 -135q0 -104 -73 -182t-173 -78z" />
<glyph unicode="&#x2026;" horiz-adv-x="991" d="M649 0l29 106h74l-29 -106h-74zM322 0l28 106h74l-29 -106h-73zM-6 0l29 106h73l-28 -106h-74z" />
<glyph unicode="&#x202f;" horiz-adv-x="362" />
<glyph unicode="&#x2039;" horiz-adv-x="598" d="M332 96l-246 420l2 12l469 416l25 -20l-447 -408l225 -403z" />
<glyph unicode="&#x203a;" horiz-adv-x="598" d="M39 96l-25 21l447 407l-225 404l28 16l246 -420l-2 -12z" />
<glyph unicode="&#x2044;" horiz-adv-x="866" d="M-266 -201l1433 1755h47l-1433 -1755h-47z" />
<glyph unicode="&#x205f;" horiz-adv-x="454" />
<glyph unicode="&#x2122;" horiz-adv-x="1343" d="M698 803l181 631h24l156 -383l375 383h32l-180 -631h-31l164 571l-372 -375h-3l-151 375l-164 -571h-31zM303 803l172 600h-225l8 31h481l-8 -31h-225l-172 -600h-31z" />
<glyph unicode="&#xe000;" horiz-adv-x="1025" d="M0 1025h1025v-1025h-1025v1025z" />
<glyph unicode="&#xfb01;" horiz-adv-x="1116" d="M1071 1317l33 117h63l-32 -117h-64zM94 0l264 985h-161l10 39h162l49 180q78 291 317 291q98 0 176 -45l-12 -41q-68 43 -166 43q-207 0 -274 -256l-47 -172h374l-10 -39h-375l-264 -985h-43zM729 0l275 1024h43l-275 -1024h-43z" />
<glyph unicode="&#xfb02;" horiz-adv-x="1114" d="M729 0l401 1495h44l-402 -1495h-43zM94 0l264 985h-161l10 39h162l49 180q78 291 317 291q98 0 176 -45l-12 -41q-68 43 -166 43q-207 0 -274 -256l-47 -172h374l-10 -39h-375l-264 -985h-43z" />
<glyph unicode="&#xfb03;" horiz-adv-x="1781" d="M1737 1317l32 117h64l-33 -117h-63zM1394 0l275 1024h43l-275 -1024h-43zM760 0l264 985h-161l10 39h162l49 180q78 291 317 291q98 0 176 -45l-12 -41q-68 43 -166 43q-207 0 -274 -256l-47 -172h374l-10 -39h-375l-264 -985h-43zM94 0l264 985h-161l10 39h162l49 180 q78 291 317 291q98 0 176 -45l-12 -41q-68 43 -166 43q-207 0 -274 -256l-47 -172h374l-10 -39h-375l-264 -985h-43z" />
<glyph unicode="&#xfb04;" horiz-adv-x="1779" d="M1394 0l402 1495h43l-402 -1495h-43zM760 0l264 985h-161l10 39h162l49 180q78 291 317 291q98 0 176 -45l-12 -41q-68 43 -166 43q-207 0 -274 -256l-47 -172h374l-10 -39h-375l-264 -985h-43zM94 0l264 985h-161l10 39h162l49 180q78 291 317 291q98 0 176 -45l-12 -41 q-68 43 -166 43q-207 0 -274 -256l-47 -172h374l-10 -39h-375l-264 -985h-43z" />
</font>
</defs>
</svg>
