<?xml version="1.0" encoding="UTF-8" standalone="no"?>
<svg width="32px" height="32px" viewBox="0 0 32 32" version="1.1" xmlns="http://www.w3.org/2000/svg" xmlns:xlink="http://www.w3.org/1999/xlink" xmlns:sketch="http://www.bohemiancoding.com/sketch/ns">
    <!-- Generator: Sketch 3.5.2 (25235) - http://www.bohemiancoding.com/sketch -->
    <title>feed</title>
    <desc>Created with Sketch.</desc>
    <defs></defs>
    <g id="Page-1" stroke="none" stroke-width="1" fill="none" fill-rule="evenodd" sketch:type="MSPage">
        <g id="feed" sketch:type="MSArtboardGroup">
            <g id="Guides" sketch:type="MSLayerGroup" stroke-width="0.1">
                <g id="Advanced-Guides" transform="translate(2.000000, 2.000000)" stroke-opacity="0.387567935" stroke="#50E3C2" sketch:type="MSShapeGroup">
                    <path d="M24.667,27.333 L3.334,27.333 L3.334,0.666 L24.667,0.666 L24.667,27.333 Z" id="Fill-3"></path>
                    <path d="M27.333,24.667 L0.666,24.667 L0.666,3.334 L27.333,3.334 L27.333,24.667 Z" id="Fill-4"></path>
                </g>
                <g id="Basic-structure" transform="translate(2.000000, 2.000000)" stroke-opacity="0.387567935" stroke="#50E3C2" sketch:type="MSShapeGroup">
                    <path d="M26,2 L2,2 L2,26 L26,26 L26,2 Z" id="Fill-5"></path>
                    <path d="M14,0.6667 C6.636,0.6667 0.667,6.6367 0.667,13.9997 C0.667,21.3637 6.636,27.3337 14,27.3337 C21.364,27.3337 27.333,21.3637 27.333,13.9997 C27.333,6.6367 21.364,0.6667 14,0.6667" id="Path"></path>
                </g>
                <g id="Cross-hair" stroke="#E350D5" stroke-opacity="0.335626132" sketch:type="MSShapeGroup">
                    <path d="M16,0 L16,32" id="Line" transform="translate(16.000000, 16.000000) scale(-1, -1) translate(-16.000000, -16.000000) "></path>
                    <path d="M32,16 L0,16" id="Line"></path>
                </g>
                <g id="Diagonal" stroke="#E350D5" stroke-opacity="0.335626132" sketch:type="MSShapeGroup">
                    <path d="M0,0 L32,32" id="Line"></path>
                    <path d="M0,0 L32,32" id="Line" transform="translate(16.000000, 16.000000) scale(-1, 1) translate(-16.000000, -16.000000) "></path>
                </g>
            </g>
            <g id="Feed" sketch:type="MSLayerGroup" transform="translate(7.000000, 7.000000)" fill="#000000">
                <path d="M0,6.33333333 L0,9.5 C5.23925,9.5 9.5,13.76075 9.5,19 L12.6666667,19 C12.6666667,12.0048333 6.99516667,6.33333333 0,6.33333333 L0,6.33333333 Z M0,0 L0,3.16666667 C8.7305,3.16666667 15.8333333,10.2695 15.8333333,19 L19,19 C19,8.50725 10.49275,0 0,0 L0,0 Z M2.375,14.25 C1.06241667,14.25 0,15.314 0,16.625 C0,17.936 1.06241667,19 2.375,19 C3.68758333,19 4.75,17.936 4.75,16.625 C4.75,15.314 3.68758333,14.25 2.375,14.25 L2.375,14.25 Z" id="Shape" sketch:type="MSShapeGroup"></path>
            </g>
        </g>
    </g>
</svg>