<?xml version="1.0" encoding="UTF-8" standalone="no"?>
<svg width="32px" height="32px" viewBox="0 0 32 32" version="1.1" xmlns="http://www.w3.org/2000/svg" xmlns:xlink="http://www.w3.org/1999/xlink">
    <defs></defs>
    <g id="Page-1" stroke="none" stroke-width="1" fill="none" fill-rule="evenodd">
        <g id="feed">
            <g id="Guides"></g>
            <g id="Feed" transform="translate(7.000000, 7.000000)" fill="#000000">
                <path d="M0,6.33333333 L0,9.5 C5.23925,9.5 9.5,13.76075 9.5,19 L12.6666667,19 C12.6666667,12.0048333 6.99516667,6.33333333 0,6.33333333 L0,6.33333333 Z M0,0 L0,3.16666667 C8.7305,3.16666667 15.8333333,10.2695 15.8333333,19 L19,19 C19,8.50725 10.49275,0 0,0 L0,0 Z M2.375,14.25 C1.06241667,14.25 0,15.314 0,16.625 C0,17.936 1.06241667,19 2.375,19 C3.68758333,19 4.75,17.936 4.75,16.625 C4.75,15.314 3.68758333,14.25 2.375,14.25 L2.375,14.25 Z" id="Shape"></path>
            </g>
        </g>
    </g>
</svg>