<?xml version="1.0" encoding="UTF-8" standalone="no"?>
<svg width="32px" height="32px" viewBox="0 0 32 32" version="1.1" xmlns="http://www.w3.org/2000/svg" xmlns:xlink="http://www.w3.org/1999/xlink">
    <defs></defs>
    <g id="Page-1" stroke="none" stroke-width="1" fill="none" fill-rule="evenodd">
        <g id="globe" fill="#000000">
            <g id="unstroked-version" transform="translate(5.500000, 5.500000)">
                <path d="M10.5,20 L10.5,20 C15.7467051,20 20,15.7467051 20,10.5 C20,5.25329488 15.7467051,1 10.5,1 C5.25329488,1 1,5.25329488 1,10.5 C1,15.7467051 5.25329488,20 10.5,20 L10.5,20 Z M10.5,21 L10.5,21 C4.70101013,21 0,16.2989899 0,10.5 C0,4.70101013 4.70101013,0 10.5,0 C16.2989899,0 21,4.70101013 21,10.5 C21,16.2989899 16.2989899,21 10.5,21 L10.5,21 Z" id="Shape"></path>
                <path d="M0.5,10.75 L20.5,10.75 L20.75,10.75 L20.75,10.25 L20.5,10.25 L0.5,10.25 L0.25,10.25 L0.25,10.75 L0.5,10.75 L0.5,10.75 Z" id="Shape"></path>
                <path d="M10.2825215,20.5497744 L10.2825215,20.5497744 C10.4292746,20.4788863 10.7050983,20.3175559 11.0670309,20.0567046 C11.6790438,19.615616 12.2928414,19.0565338 12.8664068,18.370511 C14.5117022,16.4026273 15.5,13.8111971 15.5,10.5 C15.5,7.33882975 14.5111607,4.77683696 12.8623825,2.75333648 C12.2861625,2.04615732 11.6691598,1.45720026 11.0536512,0.981580001 C10.6888961,0.699723752 10.4102003,0.520562189 10.2605739,0.438947786 L10.7394261,0.438947786 C10.5897997,0.520562189 10.3111039,0.699723752 9.94634875,0.981580001 C9.33084018,1.45720026 8.71383754,2.04615732 8.13761749,2.75333648 C6.48883932,4.77683696 5.5,7.33882975 5.5,10.5 C5.5,13.5934757 6.48910251,16.1422323 8.13937261,18.1907854 C8.71672119,18.9074737 9.33507669,19.5099037 9.95206045,20.0011335 C10.3180092,20.2924944 10.5979247,20.479755 10.7487782,20.5662842 L10.2825215,20.5497744 Z M10.5,21 L10.5,21 C10.5,21 5,17.8452148 5,10.5 C5,3 10.5,0 10.5,0 C10.5,0 16,3 16,10.5 C16,18.3432617 10.5,21 10.5,21 L10.5,21 Z" id="Shape"></path>
                <path d="M10.25,0.5 L10.25,20.6049728 L10.25,20.8549728 L10.75,20.8549728 L10.75,20.6049728 L10.75,0.5 L10.75,0.25 L10.25,0.25 L10.25,0.5 L10.25,0.5 Z" id="Shape"></path>
                <path d="M2.22979541,16.9701907 C3.92487371,15.5258589 6.63116371,14 10.5,14 C14.424667,14 17.1170931,15.5060722 18.7922176,16.9419947 C18.6898009,17.0736372 18.5843184,17.2027764 18.4758771,17.3293053 C18.4009004,17.2649529 18.324498,17.2010382 18.2466635,17.1376175 C16.223163,15.4888393 13.6611703,14.5 10.5,14.5 C7.4065243,14.5 4.85776766,15.4891025 2.8092146,17.1393726 C2.72017939,17.2110974 2.63290759,17.2834552 2.54739332,17.3563645 C2.43854122,17.2302217 2.33263951,17.1014613 2.22979541,16.9701907 Z" id="Shape"></path>
                <path d="M18.7922176,4.05800528 C17.1170931,5.49392783 14.424667,7 10.5,7 C6.45660699,7 3.79161264,5.5382901 2.15841469,4.12196462 C2.25987278,3.989472 2.36441616,3.85946691 2.47193747,3.73205667 C2.5236917,3.77706961 2.57620746,3.82185955 2.62948896,3.8664068 C4.5973727,5.51170221 7.18880287,6.5 10.5,6.5 C13.6611703,6.5 16.223163,5.51116068 18.2466635,3.86238251 C18.324498,3.79896181 18.4009004,3.73504708 18.4758771,3.67069467 C18.5843184,3.79722356 18.6898009,3.92636284 18.7922176,4.05800528 Z" id="Shape"></path>
            </g>
        </g>
    </g>
</svg>