<?xml version="1.0" encoding="UTF-8" standalone="no"?>
<svg width="32px" height="32px" viewBox="0 0 32 32" version="1.1" xmlns="http://www.w3.org/2000/svg" xmlns:xlink="http://www.w3.org/1999/xlink" xmlns:sketch="http://www.bohemiancoding.com/sketch/ns">
    <!-- Generator: Sketch 3.5.2 (25235) - http://www.bohemiancoding.com/sketch -->
    <title>heart</title>
    <desc>Created with Sketch.</desc>
    <defs></defs>
    <g id="Page-1" stroke="none" stroke-width="1" fill="none" fill-rule="evenodd" sketch:type="MSPage">
        <g id="heart" sketch:type="MSArtboardGroup">
            <g id="Guides" sketch:type="MSLayerGroup" stroke-width="0.1">
                <g id="Advanced-Guides" transform="translate(2.000000, 2.000000)" stroke-opacity="0.387567935" stroke="#50E3C2" sketch:type="MSShapeGroup">
                    <path d="M24.667,27.333 L3.334,27.333 L3.334,0.666 L24.667,0.666 L24.667,27.333 Z" id="Fill-3"></path>
                    <path d="M27.333,24.667 L0.666,24.667 L0.666,3.334 L27.333,3.334 L27.333,24.667 Z" id="Fill-4"></path>
                </g>
                <g id="Basic-structure" transform="translate(2.000000, 2.000000)" stroke-opacity="0.387567935" stroke="#50E3C2" sketch:type="MSShapeGroup">
                    <path d="M26,2 L2,2 L2,26 L26,26 L26,2 Z" id="Fill-5"></path>
                    <path d="M14,0.6667 C6.636,0.6667 0.667,6.6367 0.667,13.9997 C0.667,21.3637 6.636,27.3337 14,27.3337 C21.364,27.3337 27.333,21.3637 27.333,13.9997 C27.333,6.6367 21.364,0.6667 14,0.6667" id="Path"></path>
                </g>
                <g id="Cross-hair" stroke="#E350D5" stroke-opacity="0.335626132" sketch:type="MSShapeGroup">
                    <path d="M16,0 L16,32" id="Line" transform="translate(16.000000, 16.000000) scale(-1, -1) translate(-16.000000, -16.000000) "></path>
                    <path d="M32,16 L0,16" id="Line"></path>
                </g>
                <g id="Diagonal" stroke="#E350D5" stroke-opacity="0.335626132" sketch:type="MSShapeGroup">
                    <path d="M0,0 L32,32" id="Line"></path>
                    <path d="M0,0 L32,32" id="Line" transform="translate(16.000000, 16.000000) scale(-1, 1) translate(-16.000000, -16.000000) "></path>
                </g>
            </g>
            <path d="M25.8704542,11.0501498 C25.4256325,8.6703537 23.6908279,7.31364753 21.7336125,7.04675451 C19.8876024,6.80210258 17.8414226,7.51381729 16.5069575,9.27086299 C16.2623056,9.60447926 16.106618,9.91585445 15.9954126,10.316194 C15.8842072,9.91585445 15.7285196,9.60447926 15.4838676,9.27086299 C14.1494025,7.51381729 12.1254638,6.80210258 10.2572127,7.04675451 C8.29999725,7.31364753 6.54295155,8.6703537 6.12037094,11.0501498 C5.60882599,13.8302854 6.78760348,15.56509 8.52240809,17.677993 C10.8799631,20.5693341 13.4599289,23.3272286 15.9954126,26.0851231 C18.5308962,23.3272286 21.1108621,20.5915751 23.4906582,17.677993 C25.2254628,15.56509 26.4042403,13.8302854 25.8704542,11.0501498 L25.8704542,11.0501498 Z" id="Shape" fill="#000000" sketch:type="MSShapeGroup"></path>
        </g>
    </g>
</svg>