<?xml version="1.0" encoding="UTF-8" standalone="no"?>
<svg width="32px" height="32px" viewBox="0 0 32 32" version="1.1" xmlns="http://www.w3.org/2000/svg" xmlns:xlink="http://www.w3.org/1999/xlink">
    <defs></defs>
    <g id="Page-1" stroke="none" stroke-width="1" fill="none" fill-rule="evenodd">
        <g id="heart">
            <g id="Guides"></g>
            <path d="M25.8704542,11.0501498 C25.4256325,8.6703537 23.6908279,7.31364753 21.7336125,7.04675451 C19.8876024,6.80210258 17.8414226,7.51381729 16.5069575,9.27086299 C16.2623056,9.60447926 16.106618,9.91585445 15.9954126,10.316194 C15.8842072,9.91585445 15.7285196,9.60447926 15.4838676,9.27086299 C14.1494025,7.51381729 12.1254638,6.80210258 10.2572127,7.04675451 C8.29999725,7.31364753 6.54295155,8.6703537 6.12037094,11.0501498 C5.60882599,13.8302854 6.78760348,15.56509 8.52240809,17.677993 C10.8799631,20.5693341 13.4599289,23.3272286 15.9954126,26.0851231 C18.5308962,23.3272286 21.1108621,20.5915751 23.4906582,17.677993 C25.2254628,15.56509 26.4042403,13.8302854 25.8704542,11.0501498 L25.8704542,11.0501498 Z" id="Shape" fill="#000000"></path>
        </g>
    </g>
</svg>