<?xml version="1.0" encoding="UTF-8" standalone="no"?>
<svg width="32px" height="32px" viewBox="0 0 32 32" version="1.1" xmlns="http://www.w3.org/2000/svg" xmlns:xlink="http://www.w3.org/1999/xlink" xmlns:sketch="http://www.bohemiancoding.com/sketch/ns">
    <!-- Generator: Sketch 3.5.2 (25235) - http://www.bohemiancoding.com/sketch -->
    <title>mail</title>
    <desc>Created with Sketch.</desc>
    <defs></defs>
    <g id="Page-1" stroke="none" stroke-width="1" fill="none" fill-rule="evenodd" sketch:type="MSPage">
        <g id="mail" sketch:type="MSArtboardGroup">
            <g id="Guides" sketch:type="MSLayerGroup" stroke-width="0.1">
                <g id="Advanced-Guides" transform="translate(2.000000, 2.000000)" stroke-opacity="0.387567935" stroke="#50E3C2" sketch:type="MSShapeGroup">
                    <path d="M24.667,27.333 L3.334,27.333 L3.334,0.666 L24.667,0.666 L24.667,27.333 Z" id="Fill-3"></path>
                    <path d="M27.333,24.667 L0.666,24.667 L0.666,3.334 L27.333,3.334 L27.333,24.667 Z" id="Fill-4"></path>
                </g>
                <g id="Basic-structure" transform="translate(2.000000, 2.000000)" stroke-opacity="0.387567935" stroke="#50E3C2" sketch:type="MSShapeGroup">
                    <path d="M26,2 L2,2 L2,26 L26,26 L26,2 Z" id="Fill-5"></path>
                    <path d="M14,0.6667 C6.636,0.6667 0.667,6.6367 0.667,13.9997 C0.667,21.3637 6.636,27.3337 14,27.3337 C21.364,27.3337 27.333,21.3637 27.333,13.9997 C27.333,6.6367 21.364,0.6667 14,0.6667" id="Path"></path>
                </g>
                <g id="Cross-hair" stroke="#E350D5" stroke-opacity="0.335626132" sketch:type="MSShapeGroup">
                    <path d="M16,0 L16,32" id="Line" transform="translate(16.000000, 16.000000) scale(-1, -1) translate(-16.000000, -16.000000) "></path>
                    <path d="M32,16 L0,16" id="Line"></path>
                </g>
                <g id="Diagonal" stroke="#E350D5" stroke-opacity="0.335626132" sketch:type="MSShapeGroup">
                    <path d="M0,0 L32,32" id="Line"></path>
                    <path d="M0,0 L32,32" id="Line" transform="translate(16.000000, 16.000000) scale(-1, 1) translate(-16.000000, -16.000000) "></path>
                </g>
            </g>
            <g id="Original-sources" sketch:type="MSLayerGroup" transform="translate(4.000000, 9.000000)" fill="#000000">
                <path d="M8.10292304,6.63306463 L0.572681202,15 L23.4273188,15 L15.897077,6.63306463 L12.3048554,9.39631199 L12,9.63081613 L11.6951446,9.39631199 L8.10292304,6.63306463 Z M8.45274995,5.73479375 L7.96283529,5.29387056 L7.93161979,5.32855445 L1.09606636,2.2759572e-15 L22.9039336,8.8817842e-16 L16.0683802,5.32855445 L16.0371647,5.29387056 L15.5472501,5.73479375 L12,8.5 L8.45274995,5.73479375 Z M7.30793616,6.02153626 L3.33066907e-16,14.1414653 L0,0.400046903 L7.30793616,6.02153626 Z M24,0.400046903 L24,14.1414653 L16.6920638,6.02153626 L24,0.400046903 Z" id="Rectangle-7" sketch:type="MSShapeGroup"></path>
            </g>
        </g>
    </g>
</svg>