<?xml version="1.0" encoding="UTF-8" standalone="no"?>
<svg width="32px" height="32px" viewBox="0 0 32 32" version="1.1" xmlns="http://www.w3.org/2000/svg" xmlns:xlink="http://www.w3.org/1999/xlink">
    <defs></defs>
    <g id="Page-1" stroke="none" stroke-width="1" fill="none" fill-rule="evenodd">
        <g id="twitter">
            <g id="Guides"></g>
            <g id="Twitter" transform="translate(5.000000, 7.000000)" fill="#000000">
                <path d="M19.4087143,3.29175 C20.339,2.72966667 21.0555714,1.83825 21.3918571,0.775833333 C20.5212857,1.29675 19.5548571,1.67516667 18.5287143,1.87941667 C17.7052857,0.995916667 16.5314286,0.443333333 15.2318571,0.443333333 C12.7395714,0.443333333 10.7187143,2.4795 10.7187143,4.99066667 C10.7187143,5.34691667 10.7595714,5.69366667 10.8365714,6.02616667 C7.08557143,5.83616667 3.75885714,4.02641667 1.53214286,1.27458333 C1.144,1.94591667 0.920857143,2.72966667 0.920857143,3.5625 C0.920857143,5.1395 1.716,6.53125 2.92757143,7.34666667 C2.189,7.32291667 1.49285714,7.11866667 0.883142857,6.77825 L0.883142857,6.83683333 C0.883142857,9.04083333 2.43728571,10.8775 4.50371429,11.2955 C4.125,11.3984167 3.72742857,11.4538333 3.31571429,11.4538333 C3.02342857,11.4538333 2.74214286,11.4221667 2.46557143,11.3730833 C3.04071429,13.18125 4.708,14.4938333 6.68171429,14.5286667 C5.13857143,15.7494167 3.19,16.4761667 1.078,16.4761667 C0.713428571,16.4761667 0.353571429,16.454 0,16.41125 C1.99728571,17.70325 4.36857143,18.4553333 6.91742857,18.4553333 C15.2208571,18.4553333 19.7622857,11.5250833 19.7622857,5.51633333 C19.7622857,5.32 19.756,5.12366667 19.7465714,4.92891667 C20.6281429,4.28766667 21.395,3.48808333 22,2.57608333 C21.1907143,2.93866667 20.3217143,3.1825 19.4087143,3.29175 Z" id="Shape"></path>
            </g>
        </g>
    </g>
</svg>